<?xml version="1.0" encoding="UTF-8"?>
<!-- Generated by jsxcad -->
<!DOCTYPE svg PUBLIC "-//W3C//DTD SVG 1.1 Tiny//EN" "http://www.w3.org/Graphics/SVG/1.1/DTD/svg11-tiny.dtd">
<svg viewBox="-250 -250 500 500" width="500" height="500" xmlns="http://www.w3.org/2000/svg"><path d="M-196.12291942160476,-103.4438993051249L-101.11843637158569,45.12345186014044L-100.88621155390122,42.62883337218122z" style="fill:rgb(247,158,158)"/><path d="M-196.12291942160476,-103.4438993051249L-103.1876759823525,45.64603935046477L-101.11843637158569,45.12345186014044z" style="fill:rgb(127,37,217)"/><path d="M-196.12291942160476,-103.4438993051249L-100.88621155390122,42.62883337218122L-195.60553137611777,-105.91754820478108z" style="fill:rgb(247,158,158)"/><path d="M-196.12291942160476,-103.4438993051249L-198.4432399636541,-102.75390919484597L-103.1876759823525,45.64603935046477zM117.75079743844863,-196.77989890345435L-98.01050703118175,44.338537521958216L175.83853591172667,-24.82240823895813z" style="fill:rgb(127,37,217)"/><path d="M117.75079743844863,-196.77989890345435L175.83853591172667,-24.82240823895813L175.40643376268048,-27.319825176402606zM128.64192643959595,-200.01858769305264L185.3446388120669,-27.223189074566335L184.8881552957942,-29.720304497808435z" style="fill:rgb(247,158,158)"/><path d="M128.64192643959595,-200.01858769305264L179.3983177879512,-25.721434285593197L185.3446388120669,-27.223189074566335zM117.75079743844863,-196.77989890345435L-192.63717698592328,-104.48044597028465L-98.01050703118175,44.338537521958216z" style="fill:rgb(127,37,217)"/><path d="M-122.31489825131426,175.8229621602854L-118.46575096937599,171.84557723699706L-121.99363938007504,172.6266797120727zM-122.31489825131426,175.8229621602854L-118.77800065575916,175.04268171105542L-118.46575096937599,171.84557723699706zM-196.12291942160476,-103.4438993051249L-195.60553137611777,-105.91754820478108L-197.9200453741697,-105.22789049581326zM-196.12291942160476,-103.4438993051249L-197.9200453741697,-105.22789049581326L-198.4432399636541,-102.75390919484597z" style="fill:rgb(83,212,212)"/><path d="M-139.01687305796705,153.86107662774083L-122.31489825131426,175.8229621602854L-121.99363938007504,172.6266797120727z" style="fill:rgb(247,158,158)"/><path d="M-122.31489825131426,175.8229621602854L-141.4206876367908,154.4071657910328L-124.66929673178359,176.34236259006914z" style="fill:rgb(127,37,217)"/><path d="M-139.01687305796705,153.86107662774083L-121.99363938007504,172.6266797120727L-138.64250888883333,150.64307950043633z" style="fill:rgb(247,158,158)"/><path d="M-122.31489825131426,175.8229621602854L-139.01687305796705,153.86107662774083L-141.4206876367908,154.4071657910328zM211.44760727094382,115.56825871547433L-124.66929673178359,176.34236259006914L-116.60045532940737,186.90813444113286z" style="fill:rgb(127,37,217)"/><path d="M117.75079743844863,-196.77989890345435L-192.12852575696553,-106.9536012794901L-192.63717698592328,-104.48044597028465z" style="fill:rgb(83,212,212)"/><path d="M117.75079743844863,-196.77989890345435L175.40643376268048,-27.319825176402606L117.41491092052678,-199.1883866053782z" style="fill:rgb(247,158,158)"/><path d="M196.05201770585055,105.5882489961875L-135.40560221917042,153.04069628446513L-118.77800065575916,175.04268171105542z" style="fill:rgb(127,37,217)"/><path d="M128.64192643959595,-200.01858769305264L184.8881552957942,-29.720304497808435L128.27401643431637,-202.42409503971106z" style="fill:rgb(247,158,158)"/><path d="M128.64192643959595,-200.01858769305264L121.82830406500669,-197.9924274790526L179.3983177879512,-25.721434285593197zM211.44760727094382,115.56825871547433L207.09496559050427,103.15208117526646L-124.66929673178359,176.34236259006914z" style="fill:rgb(127,37,217)"/><path d="M117.75079743844863,-196.77989890345435L117.41491092052678,-199.1883866053782L-192.12852575696553,-106.9536012794901z" style="fill:rgb(83,212,212)"/><path d="M196.05201770585055,105.5882489961875L186.70756152672962,79.86536356044451L-135.40560221917042,153.04069628446513z" style="fill:rgb(127,37,217)"/><path d="M196.05201770585055,105.5882489961875L199.61751705207396,101.42013370570544L195.4954321754501,102.3327842942818zM196.05201770585055,105.5882489961875L200.18639220245646,104.67616998352288L199.61751705207396,101.42013370570544z" style="fill:rgb(83,212,212)"/><path d="M198.02982512795774,77.29325781530994L-197.1907746568368,81.37873332900757L-141.4206876367908,154.4071657910328z" style="fill:rgb(127,37,217)"/><path d="M128.64192643959595,-200.01858769305264L128.27401643431637,-202.42409503971106L121.48044769416055,-200.3998056540177zM128.64192643959595,-200.01858769305264L121.48044769416055,-200.3998056540177L121.82830406500669,-197.9924274790526z" style="fill:rgb(83,212,212)"/><path d="M186.70756152672962,79.86536356044451L196.05201770585055,105.5882489961875L195.4954321754501,102.3327842942818z" style="fill:rgb(247,158,158)"/><path d="M207.09496559050427,103.15208117526646L190.94631942868313,78.90243574513055L200.18639220245646,104.67616998352288z" style="fill:rgb(127,37,217)"/><path d="M186.70756152672962,79.86536356044451L195.4954321754501,102.3327842942818L186.16297937570096,76.59572189434071z" style="fill:rgb(247,158,158)"/><path d="M207.09496559050427,103.15208117526646L198.02982512795774,77.29325781530994L190.94631942868313,78.90243574513055z" style="fill:rgb(127,37,217)"/><path d="M-190.7726771238209,79.7778306208084L-190.21618748064074,76.50814206927369L-194.05892775445244,77.46978290715283zM-190.7726771238209,79.7778306208084L-194.05892775445244,77.46978290715283L-194.62609320888515,80.73900919559044z" style="fill:rgb(83,212,212)"/><path d="M-215.25590253169077,53.61231807623711L-194.62609320888515,80.73900919559044L-194.05892775445244,77.46978290715283z" style="fill:rgb(247,158,158)"/><path d="M-194.62609320888515,80.73900919559044L-217.87882234068337,54.28866318132433L-197.1907746568368,81.37873332900757z" style="fill:rgb(127,37,217)"/><path d="M-215.25590253169077,53.61231807623711L-194.05892775445244,77.46978290715283L-214.61096174910358,50.33234213682364z" style="fill:rgb(247,158,158)"/><path d="M-194.62609320888515,80.73900919559044L-215.25590253169077,53.61231807623711L-217.87882234068337,54.28866318132433z" style="fill:rgb(127,37,217)"/><path d="M150.17875149184124,-59.204579524710994L211.44760727094382,115.56825871547433L210.8536965736946,112.31937766082018z" style="fill:rgb(247,158,158)"/><path d="M198.02982512795774,77.29325781530994L167.56657096163582,-9.60486747949585L-197.1907746568368,81.37873332900757zM155.3154764310462,-6.549003560007747L-211.31480002533493,52.59606952102129L-190.7726771238209,79.7778306208084zM156.1541971287348,-42.15929697318751L-228.66687091224918,40.16217992196064L-217.87882234068337,54.28866318132433z" style="fill:rgb(127,37,217)"/><path d="M-227.97244941295105,36.87852695215927L-228.66687091224918,40.16217992196064L150.17875149184124,-59.204579524710994z" style="fill:rgb(83,212,212)"/><path d="M155.3154764310462,-6.549003560007747L143.55901615942724,-38.91151109746723L-211.31480002533493,52.59606952102129z" style="fill:rgb(127,37,217)"/><path d="M150.17875149184124,-59.204579524710994L210.8536965736946,112.31937766082018L149.67758355300526,-62.48138547098237z" style="fill:rgb(247,158,158)"/><path d="M159.90127799853045,-7.692867474435775L159.3925532432232,-10.98069491307669L154.82187836200137,-9.836892511005038zM159.90127799853045,-7.692867474435775L154.82187836200137,-9.836892511005038L155.3154764310462,-6.549003560007747z" style="fill:rgb(83,212,212)"/><path d="M143.55901615942724,-38.91151109746723L155.3154764310462,-6.549003560007747L154.82187836200137,-9.836892511005038z" style="fill:rgb(247,158,158)"/><path d="M167.56657096163582,-9.60486747949585L148.27335089694245,-40.127147822918076L159.90127799853045,-7.692867474435775zM156.1541971287348,-42.15929697318751L150.17875149184124,-59.204579524710994L-228.66687091224918,40.16217992196064z" style="fill:rgb(127,37,217)"/><path d="M-227.97244941295105,36.87852695215927L150.17875149184124,-59.204579524710994L149.67758355300526,-62.48138547098237z" style="fill:rgb(83,212,212)"/><path d="M143.55901615942724,-38.91151109746723L154.82187836200137,-9.836892511005038L143.08874249416843,-42.19457753907206z" style="fill:rgb(247,158,158)"/><path d="M167.56657096163582,-9.60486747949585L156.1541971287348,-42.15929697318751L148.27335089694245,-40.127147822918076z" style="fill:rgb(127,37,217)"/></svg>
