<?xml version="1.0" encoding="UTF-8"?>
<!-- Generated by jsxcad -->
<!DOCTYPE svg PUBLIC "-//W3C//DTD SVG 1.1 Tiny//EN" "http://www.w3.org/Graphics/SVG/1.1/DTD/svg11-tiny.dtd">
<svg viewBox="-250 -250 500 500" width="500" height="500" xmlns="http://www.w3.org/2000/svg"><path d="M-117.89119016023821,181.6291453578878L-99.67498519235299,39.811938561339446L-104.33182267895451,40.99386795821188z" style="fill:rgb(83,212,212)"/><path d="M-112.64642612793669,180.48115403530028L-98.30241202702528,41.97469675483141L-99.67498519235299,39.811938561339446zM-118.21623831346456,167.59344309998045L-95.1973790114859,41.18859686578542L-104.42344737324878,26.568093906840915z" style="fill:rgb(247,158,158)"/><path d="M-109.14212039304515,179.71411586415886L18.231534989970744,9.886702290039622L-96.56430163510683,39.0224318461012zM-121.76158514136007,168.3821987849612L-104.42344737324878,26.568093906840915L-107.56646968465952,27.37732873689763z" style="fill:rgb(83,212,212)"/><path d="M-118.21623831346456,167.59344309998045L-104.42344737324878,26.568093906840915L-113.92320241128306,11.513878866224006z" style="fill:rgb(247,158,158)"/><path d="M-129.22393554891437,152.88999201726625L-113.92320241128306,11.513878866224006L-117.10511859313677,12.34728751126225z" style="fill:rgb(83,212,212)"/><path d="M18.231534989970744,9.886702290039622L21.984218723158452,153.54226433625357L19.382866483097157,12.180462588822182z" style="fill:rgb(247,158,158)"/><path d="M51.468207645989544,1.4510773561382468L18.231534989970744,9.886702290039622L20.684554458511485,151.29727494404975zM-142.7564496105799,148.9327372980673L-121.00021472596028,6.2097877441704386L-125.78707794620337,7.472290307926257z" style="fill:rgb(83,212,212)"/><path d="M-137.3464352449574,147.6957325087625L-119.53412889168901,8.519909335952285L-121.00021472596028,6.2097877441704386zM59.67303615586204,145.3162587890271L52.55442786331506,3.7824600856776347L51.468207645989544,1.4510773561382468zM-112.64642612793669,180.48115403530028L-111.06402446484032,182.58154794144332L-98.30241202702528,41.97469675483141z" style="fill:rgb(247,158,158)"/><path d="M-117.89119016023821,181.6291453578878L-112.64642612793669,180.48115403530028L-99.67498519235299,39.811938561339446z" style="fill:rgb(83,212,212)"/><path d="M-118.21623831346456,167.59344309998045L-107.56687803458537,181.81824897371948L-95.1973790114859,41.18859686578542z" style="fill:rgb(247,158,158)"/><path d="M-133.73142742512923,146.86914250921615L0.3245450432758777,-25.788834561123956L-117.80248088612932,5.366405922743565zM58.45747415362105,143.02942970247366L171.61129153741757,-29.041808488523795L51.468207645989544,1.4510773561382468zM-121.76158514136007,168.3821987849612L-118.21623831346456,167.59344309998045L-104.42344737324878,26.568093906840915z" style="fill:rgb(83,212,212)"/><path d="M-102.95082302856757,43.15153098400919L184.88815529579412,-29.720304497808424L128.27401643431637,-202.424095039711z" style="fill:rgb(127,37,217)"/><path d="M-109.14212039304515,179.71411586415886L20.684554458511485,151.29727494404975L18.231534989970744,9.886702290039622z" style="fill:rgb(83,212,212)"/><path d="M0.3245450432758777,-25.788834561123956L1.773935047238671,118.63171421801151L1.5567864506332418,-23.333878377011743zM-118.21623831346456,167.59344309998045L-113.92320241128306,11.513878866224006L-129.22393554891437,152.88999201726625zM195.69483441524045,112.99050644476976L172.4521050528803,-26.57188219911436L171.61129153741757,-29.041808488523795z" style="fill:rgb(247,158,158)"/><path d="M34.568776483851444,-34.82052878865131L0.3245450432758777,-25.788834561123956L0.3699332196453678,116.20649431429233zM-129.22393554891437,152.88999201726625L-117.10511859313677,12.34728751126225L-132.8187740628715,153.70549902757267zM199.7702889387326,112.09846054739549L184.07369855826755,-32.20482998547079L175.16448316106127,-29.94362374176417z" style="fill:rgb(83,212,212)"/><path d="M18.231534989970744,9.886702290039622L20.684554458511485,151.29727494404975L21.984218723158452,153.54226433625357zM184.88815529579412,-29.720304497808424L184.07369855826755,-32.20482998547079L209.99325735892631,109.8608247050055zM40.76407552257219,109.74296151532414L35.73199005822637,-32.323897396913885L34.568776483851444,-34.82052878865131zM127.90820418351522,-204.81585993474147L184.88815529579412,-29.720304497808424L184.4339131633724,-32.20514961251775zM-137.3464352449574,147.6957325087625L-135.6414049221115,149.9589002628911L-119.53412889168901,8.519909335952285z" style="fill:rgb(247,158,158)"/><path d="M-142.7564496105799,148.9327372980673L-137.3464352449574,147.6957325087625L-121.00021472596028,6.2097877441704386z" style="fill:rgb(83,212,212)"/><path d="M-102.95082302856757,43.15153098400919L128.27401643431637,-202.424095039711L-197.9200453741696,-105.22789049581323zM-112.64642612793669,180.48115403530028L-116.29811639509629,183.72394914744194L-111.06402446484032,182.58154794144332z" style="fill:rgb(127,37,217)"/><path d="M-177.41776911241274,-89.1056111400545L-171.09322626196197,-41.15265727691276L-165.98766458917683,-70.99240133839156z" style="fill:rgb(247,158,158)"/><path d="M-112.64642612793669,180.48115403530028L-117.89119016023821,181.6291453578878L-116.29811639509629,183.72394914744194z" style="fill:rgb(127,37,217)"/><path d="M51.468207645989544,1.4510773561382468L20.684554458511485,151.29727494404975L58.45747415362105,143.02942970247366z" style="fill:rgb(83,212,212)"/><path d="M194.66403336745665,97.98569530731982L175.99780038696915,-27.469539587419L170.36853658630838,-44.18262443804322zM59.67303615586204,145.3162587890271L51.468207645989544,1.4510773561382468L58.45747415362105,143.02942970247366z" style="fill:rgb(247,158,158)"/><path d="M-118.21623831346456,167.59344309998045L-111.06402446484032,182.58154794144332L-107.56687803458537,181.81824897371948z" style="fill:rgb(127,37,217)"/><path d="M190.53173164836366,98.90503423017013L170.36853658630838,-44.18262443804322L166.77225501251306,-43.25669119723544zM39.4499645693262,107.27072733832898L158.5156894687715,-67.51072884087876L34.568776483851444,-34.82052878865131z" style="fill:rgb(83,212,212)"/><path d="M-190.32864593087473,71.26984128872996L-113.92320241128306,11.513878866224006L-165.98766458917683,-70.99240133839156z" style="fill:rgb(247,158,158)"/><path d="M-118.21623831346456,167.59344309998045L-121.76158514136007,168.3821987849612L-111.06402446484032,182.58154794144332z" style="fill:rgb(127,37,217)"/><path d="M194.66403336745665,97.98569530731982L170.36853658630838,-44.18262443804322L164.56045746541827,-61.42660313302331z" style="fill:rgb(247,158,158)"/><path d="M20.684554458511485,151.29727494404975L-109.14212039304515,179.71411586415886L-107.56687803458537,181.81824897371948z" style="fill:rgb(127,37,217)"/><path d="M-188.18493437429368,-49.470135259092714L-177.41776911241274,-89.1056111400545L-180.85385259478903,-88.1015046165095z" style="fill:rgb(83,212,212)"/><path d="M-177.41776911241274,-89.1056111400545L-182.966532804854,-59.33134493120955L-171.09322626196197,-41.15265727691276zM-175.85412990895097,-48.22730217468306L-171.2077574214225,-40.48327096580097L-171.12212229584168,-40.98377277200934zM-174.83353728975175,-46.03019016600559L-171.34700465304311,-39.66943511184502L-171.2077574214225,-40.48327096580097zM-176.9804652461364,-50.166329729101705L-171.12212229584168,-40.98377277200934L-171.09322626196197,-41.15265727691276zM-173.9562440698832,-43.65740425631306L-171.53475717602322,-38.572104868536584L-171.34700465304311,-39.66943511184502zM-173.2545029984595,-41.19721527592239L-171.76409141528,-37.23174793181925L-171.53475717602322,-38.572104868536584zM-174.83353728975175,-46.03019016600559L-173.9562440698832,-43.65740425631306L-171.34700465304311,-39.66943511184502zM-173.9562440698832,-43.65740425631306L-173.2545029984595,-41.19721527592239L-171.53475717602322,-38.572104868536584zM-175.85412990895097,-48.22730217468306L-174.83353728975175,-46.03019016600559L-171.2077574214225,-40.48327096580097z" style="fill:rgb(247,158,158)"/><path d="M-173.2545029984595,-41.19721527592239L-176.76073013659078,-40.217079097255855L-176.26201888798454,-37.76260847609855z" style="fill:rgb(93,135,250)"/><path d="M-173.9562440698832,-43.65740425631306L-177.46239307181716,-42.67488240753472L-176.76073013659078,-40.217079097255855z" style="fill:rgb(99,111,250)"/><path d="M-173.2545029984595,-41.19721527592239L-172.75426491775534,-38.74082052220222L-171.76409141528,-37.23174793181925z" style="fill:rgb(247,158,158)"/><path d="M-173.9562440698832,-43.65740425631306L-176.76073013659078,-40.217079097255855L-173.2545029984595,-41.19721527592239z" style="fill:rgb(99,111,250)"/><path d="M-172.75426491775534,-38.74082052220222L-172.02648688186812,-35.69816278140988L-171.76409141528,-37.23174793181925z" style="fill:rgb(247,158,158)"/><path d="M-173.2545029984595,-41.19721527592239L-176.26201888798454,-37.76260847609855L-172.75426491775534,-38.74082052220222z" style="fill:rgb(93,135,250)"/><path d="M-172.75426491775534,-38.74082052220222L-176.26201888798454,-37.76260847609855L-175.98491424797768,-35.40250261470188z" style="fill:rgb(89,159,244)"/><path d="M-174.83353728975175,-46.03019016600559L-178.34105949575635,-45.0449161247982L-177.46239307181716,-42.67488240753472zM-174.83353728975175,-46.03019016600559L-177.46239307181716,-42.67488240753472L-173.9562440698832,-43.65740425631306z" style="fill:rgb(106,87,246)"/><path d="M-176.9804652461364,-50.166329729101705L-175.85412990895097,-48.22730217468306L-171.12212229584168,-40.98377277200934z" style="fill:rgb(247,158,158)"/><path d="M-172.75426491775534,-38.74082052220222L-175.98491424797768,-35.40250261470188L-172.47421972676455,-36.37931837092105z" style="fill:rgb(89,159,244)"/><path d="M-172.75426491775534,-38.74082052220222L-172.47421972676455,-36.37931837092105L-172.02648688186812,-35.69816278140988z" style="fill:rgb(247,158,158)"/><path d="M-133.73142742512923,146.86914250921615L0.3699332196453678,116.20649431429233L0.3245450432758777,-25.788834561123956z" style="fill:rgb(83,212,212)"/><path d="M-175.85412990895097,-48.22730217468306L-178.34105949575635,-45.0449161247982L-174.83353728975175,-46.03019016600559z" style="fill:rgb(114,65,238)"/><path d="M-172.47421972676455,-36.37931837092105L-175.98491424797768,-35.40250261470188L-175.94019602445093,-33.22469704847076z" style="fill:rgb(85,182,234)"/><path d="M-175.85412990895097,-48.22730217468306L-179.36442701329906,-47.23899112123011L-178.34105949575635,-45.0449161247982z" style="fill:rgb(114,65,238)"/><path d="M-172.47421972676455,-36.37931837092105L-172.31211080949726,-34.02881757621568L-172.02648688186812,-35.69816278140988z" style="fill:rgb(247,158,158)"/><path d="M-172.47421972676455,-36.37931837092105L-175.94019602445093,-33.22469704847076L-172.42531237071915,-34.20069493818852z" style="fill:rgb(85,182,234)"/><path d="M-172.47421972676455,-36.37931837092105L-172.42531237071915,-34.20069493818852L-172.31211080949726,-34.02881757621568z" style="fill:rgb(247,158,158)"/><path d="M-176.9804652461364,-50.166329729101705L-179.36442701329906,-47.23899112123011L-175.85412990895097,-48.22730217468306z" style="fill:rgb(123,46,225)"/><path d="M-172.42531237071915,-34.20069493818852L-175.94019602445093,-33.22469704847076L-176.1303856931407,-31.311074976131984z" style="fill:rgb(84,202,220)"/><path d="M-176.9804652461364,-50.166329729101705L-180.4948384265394,-49.17482199350938L-179.36442701329906,-47.23899112123011z" style="fill:rgb(123,46,225)"/><path d="M-129.22393554891437,152.88999201726625L-121.76158514136007,168.3821987849612L-118.21623831346456,167.59344309998045z" style="fill:rgb(127,37,217)"/><path d="M-172.42531237071915,-34.20069493818852L-172.61015792903504,-32.28686432302618L-172.31211080949726,-34.02881757621568z" style="fill:rgb(247,158,158)"/><path d="M-172.42531237071915,-34.20069493818852L-176.1303856931407,-31.311074976131984L-172.61015792903504,-32.28686432302618z" style="fill:rgb(84,202,220)"/><path d="M188.4545300382708,80.82376852228127L164.56045746541827,-61.42660313302331L160.9121405668487,-60.47103723391192z" style="fill:rgb(83,212,212)"/><path d="M20.684554458511485,151.29727494404975L-107.56687803458537,181.81824897371948L21.984218723158452,153.54226433625357z" style="fill:rgb(127,37,217)"/><path d="M-178.1708224849745,-51.77360659870138L-180.4948384265394,-49.17482199350938L-176.9804652461364,-50.166329729101705zM-178.1708224849745,-51.77360659870138L-181.6904445015363,-50.77885568904026L-180.4948384265394,-49.17482199350938z" style="fill:rgb(131,29,208)"/><path d="M58.45747415362105,143.02942970247366L195.69483441524045,112.99050644476976L171.61129153741757,-29.041808488523795z" style="fill:rgb(83,212,212)"/><path d="M-190.32864593087473,71.26984128872996L-129.22393554891437,152.88999201726625L-113.92320241128306,11.513878866224006z" style="fill:rgb(247,158,158)"/><path d="M-179.38080878086157,-52.986890378397995L-181.6904445015363,-50.77885568904026L-178.1708224849745,-51.77360659870138zM-179.38080878086157,-52.986890378397995L-182.90660080441884,-51.98897699565253L-181.6904445015363,-50.77885568904026z" style="fill:rgb(140,16,189)"/><path d="M-182.966532804854,-59.33134493120955L-178.1708224849745,-51.77360659870138L-176.9804652461364,-50.166329729101705z" style="fill:rgb(247,158,158)"/><path d="M-188.18493437429368,-49.470135259092714L-184.61621757966648,-50.47925483017503L-177.41776911241274,-89.1056111400545z" style="fill:rgb(83,212,212)"/><path d="M-129.22393554891437,152.88999201726625L-132.8187740628715,153.70549902757267L-121.76158514136007,168.3821987849612z" style="fill:rgb(127,37,217)"/><path d="M-180.5646969536756,-53.75783202017902L-182.90660080441884,-51.98897699565253L-179.38080878086157,-52.986890378397995z" style="fill:rgb(148,8,167)"/><path d="M-182.99795328235996,-59.16274614688767L-179.38080878086157,-52.986890378397995L-178.1708224849745,-51.77360659870138z" style="fill:rgb(247,158,158)"/><path d="M-180.5646969536756,-53.75783202017902L-184.09741080738578,-52.756943841436374L-182.90660080441884,-51.98897699565253z" style="fill:rgb(148,8,167)"/><path d="M181.6775795265898,74.74998050073913L159.4179404190243,-64.86032980593518L158.5156894687715,-67.51072884087876zM-182.966532804854,-59.33134493120955L-182.99795328235996,-59.16274614688767L-178.1708224849745,-51.77360659870138zM-183.09107036165906,-58.66308529187303L-180.5646969536756,-53.75783202017902L-179.38080878086157,-52.986890378397995z" style="fill:rgb(247,158,158)"/><path d="M-181.67719167945125,-54.05405376830034L-184.09741080738578,-52.756943841436374L-180.5646969536756,-53.75783202017902zM-181.67719167945125,-54.05405376830034L-185.21730017739398,-53.05051049428433L-184.09741080738578,-52.756943841436374z" style="fill:rgb(155,4,143)"/><path d="M-182.99795328235996,-59.16274614688767L-183.09107036165906,-58.66308529187303L-179.38080878086157,-52.986890378397995z" style="fill:rgb(247,158,158)"/><path d="M185.90702148322035,73.78290844181251L171.38721189418015,-70.90550567452001L162.18524115828887,-68.47854755842198z" style="fill:rgb(83,212,212)"/><path d="M0.3245450432758777,-25.788834561123956L0.3699332196453678,116.20649431429233L1.773935047238671,118.63171421801151zM-183.24248618534864,-57.85060130443605L-181.67719167945125,-54.05405376830034L-180.5646969536756,-53.75783202017902zM172.26136364560898,-68.23887560227598L171.38721189418015,-70.90550567452001L196.51774987187957,71.35673755041954zM-183.09107036165906,-58.66308529187303L-183.24248618534864,-57.85060130443605L-180.5646969536756,-53.75783202017902z" style="fill:rgb(247,158,158)"/><path d="M-169.3787374678227,-70.02019081379603L-190.32864593087473,71.26984128872996L-165.98766458917683,-70.99240133839156z" style="fill:rgb(83,212,212)"/><path d="M-182.67508982637537,-53.86082895021558L-185.21730017739398,-53.05051049428433L-181.67719167945125,-54.05405376830034zM-182.67508982637537,-53.86082895021558L-186.22280602886465,-52.855057592449L-185.21730017739398,-53.05051049428433z" style="fill:rgb(161,4,119)"/><path d="M-183.24248618534864,-57.85060130443605L-183.4466532473081,-56.75505291180922L-181.67719167945125,-54.05405376830034zM-183.4466532473081,-56.75505291180922L-182.67508982637537,-53.86082895021558L-181.67719167945125,-54.05405376830034zM195.69483441524045,112.99050644476976L196.58999603567628,115.43260166675186L172.4521050528803,-26.57188219911436zM-183.4466532473081,-56.75505291180922L-183.69604757610753,-55.41682074721857L-182.67508982637537,-53.86082895021558zM-183.69604757610753,-55.41682074721857L-183.51901949458158,-53.182139616664486L-182.67508982637537,-53.86082895021558zM-183.69604757610753,-55.41682074721857L-183.98140880113905,-53.88559026169655L-183.51901949458158,-53.182139616664486z" style="fill:rgb(247,158,158)"/><path d="M20.684554458511485,151.29727494404975L21.984218723158452,153.54226433625357L59.67303615586204,145.3162587890271z" style="fill:rgb(127,37,217)"/><path d="M184.88815529579412,-29.720304497808424L209.99325735892631,109.8608247050055L210.85369657369452,112.31937766082015z" style="fill:rgb(247,158,158)"/><path d="M-137.3464352449574,147.6957325087625L-141.04008379214565,151.18966323168985L-135.6414049221115,149.9589002628911z" style="fill:rgb(127,37,217)"/><path d="M-183.98140880113905,-53.88559026169655L-184.17502365386662,-52.04104107038802L-183.51901949458158,-53.182139616664486z" style="fill:rgb(247,158,158)"/><path d="M-137.3464352449574,147.6957325087625L-142.7564496105799,148.9327372980673L-141.04008379214565,151.18966323168985z" style="fill:rgb(127,37,217)"/><path d="M199.7702889387326,112.09846054739549L209.99325735892631,109.8608247050055L184.07369855826755,-32.20482998547079z" style="fill:rgb(83,212,212)"/><path d="M-183.98140880113905,-53.88559026169655L-184.2920484534061,-52.21872385071424L-184.17502365386662,-52.04104107038802z" style="fill:rgb(247,158,158)"/><path d="M34.568776483851444,-34.82052878865131L0.3699332196453678,116.20649431429233L39.4499645693262,107.27072733832898z" style="fill:rgb(83,212,212)"/><path d="M-184.2920484534061,-52.21872385071424L-184.61621757966648,-50.47925483017503L-184.17502365386662,-52.04104107038802zM194.66403336745665,97.98569530731982L200.65557945707243,114.54523355781521L175.99780038696915,-27.469539587419zM40.76407552257219,109.74296151532414L34.568776483851444,-34.82052878865131L39.4499645693262,107.27072733832898z" style="fill:rgb(247,158,158)"/><path d="M20.684554458511485,151.29727494404975L59.67303615586204,145.3162587890271L58.45747415362105,143.02942970247366z" style="fill:rgb(127,37,217)"/><path d="M-197.3996023297939,-107.68887066903497L-197.9200453741696,-105.22789049581323L128.27401643431637,-202.424095039711z" style="fill:rgb(83,212,212)"/><path d="M127.90820418351522,-204.81585993474147L128.27401643431637,-202.424095039711L184.88815529579412,-29.720304497808424z" style="fill:rgb(247,158,158)"/><path d="M190.53173164836366,98.90503423017013L194.66403336745665,97.98569530731982L170.36853658630838,-44.18262443804322z" style="fill:rgb(83,212,212)"/><path d="M0.3699332196453678,116.20649431429233L-133.73142742512923,146.86914250921615L-132.03398590771047,149.13650277389124zM195.69483441524045,112.99050644476976L58.45747415362105,143.02942970247366L59.67303615586204,145.3162587890271zM0.3699332196453678,116.20649431429233L-132.03398590771047,149.13650277389124L1.773935047238671,118.63171421801151z" style="fill:rgb(127,37,217)"/><path d="M-218.03333500390806,34.263534879124705L-177.41776911241274,-89.1056111400545L-189.2262244913834,-107.81839594721433zM194.66403336745665,97.98569530731982L164.56045746541827,-61.42660313302331L188.4545300382708,80.82376852228127z" style="fill:rgb(247,158,158)"/><path d="M39.4499645693262,107.27072733832898L181.6775795265898,74.74998050073913L158.5156894687715,-67.51072884087876z" style="fill:rgb(83,212,212)"/><path d="M-190.32864593087473,71.26984128872996L-132.8187740628715,153.70549902757267L-129.22393554891437,152.88999201726625zM195.69483441524045,112.99050644476976L59.67303615586204,145.3162587890271L196.58999603567628,115.43260166675186z" style="fill:rgb(127,37,217)"/><path d="M-189.2262244913834,-107.81839594721433L-192.70846603102993,-106.78079260793145L-222.01518821365102,35.31116307538025zM188.4545300382708,80.82376852228127L160.9121405668487,-60.47103723391192L184.25330160808468,81.77682684934247zM-197.3996023297939,-107.68887066903497L128.27401643431637,-202.424095039711L127.90820418351522,-204.81585993474147z" style="fill:rgb(83,212,212)"/><path d="M181.6775795265898,74.74998050073913L182.64788580609823,77.39707275271158L159.4179404190243,-64.86032980593518zM125.42954979230112,-177.6050310184104L136.913861650689,-127.20182177121703L132.51395997529252,-156.57163494481978zM172.26136364560898,-68.23887560227598L196.51774987187957,71.35673755041954L197.45067718316335,74.0224184715143z" style="fill:rgb(247,158,158)"/><path d="M39.4499645693262,107.27072733832898L0.3699332196453678,116.20649431429233L1.773935047238671,118.63171421801151z" style="fill:rgb(127,37,217)"/><path d="M185.90702148322035,73.78290844181251L196.51774987187957,71.35673755041954L171.38721189418015,-70.90550567452001zM-169.3787374678227,-70.02019081379603L-194.19211160444456,72.24194506410076L-190.32864593087473,71.26984128872996z" style="fill:rgb(83,212,212)"/><path d="M209.99325735892631,109.8608247050055L200.65557945707243,114.54523355781521L210.85369657369452,112.31937766082015zM209.99325735892631,109.8608247050055L199.7702889387326,112.09846054739549L200.65557945707243,114.54523355781521z" style="fill:rgb(127,37,217)"/><path d="M-182.30835546566152,24.39479988899951L-186.01687185005207,25.370963602574992L-186.47924633672113,27.149366134140607z" style="fill:rgb(84,220,202)"/><path d="M39.4499645693262,107.27072733832898L1.773935047238671,118.63171421801151L40.76407552257219,109.74296151532414z" style="fill:rgb(127,37,217)"/><path d="M-182.30835546566152,24.39479988899951L-186.47924633672113,27.149366134140607L-182.76375829873078,26.172961993509368z" style="fill:rgb(84,220,202)"/><path d="M-182.76375829873078,26.172961993509368L-182.64202000338884,26.34492115797714L-182.30835546566152,24.39479988899951z" style="fill:rgb(247,158,158)"/><path d="M-182.76375829873078,26.172961993509368L-186.47924633672113,27.149366134140607L-187.17085543952896,28.52263493002318z" style="fill:rgb(85,234,182)"/><path d="M-182.76375829873078,26.172961993509368L-182.96401553802315,28.226842278163215L-182.64202000338884,26.34492115797714z" style="fill:rgb(247,158,158)"/><path d="M194.66403336745665,97.98569530731982L196.58999603567628,115.43260166675186L200.65557945707243,114.54523355781521z" style="fill:rgb(127,37,217)"/><path d="M-182.76375829873078,26.172961993509368L-187.17085543952896,28.52263493002318L-183.44759064755698,27.545342172872008z" style="fill:rgb(85,234,182)"/><path d="M-182.76375829873078,26.172961993509368L-183.44759064755698,27.545342172872008L-182.96401553802315,28.226842278163215zM-183.44759064755698,27.545342172872008L-183.26177543371065,29.96711683530918L-182.96401553802315,28.226842278163215z" style="fill:rgb(247,158,158)"/><path d="M-183.44759064755698,27.545342172872008L-187.17085543952896,28.52263493002318L-188.06698386320392,29.435985773138814z" style="fill:rgb(89,244,159)"/><path d="M-183.44759064755698,27.545342172872008L-184.3354911435802,28.457183591090402L-183.26177543371065,29.96711683530918z" style="fill:rgb(247,158,158)"/><path d="M-183.44759064755698,27.545342172872008L-188.06698386320392,29.435985773138814L-184.3354911435802,28.457183591090402z" style="fill:rgb(89,244,159)"/><path d="M-184.3354911435802,28.457183591090402L-183.52356245475633,31.497145891320624L-183.26177543371065,29.96711683530918zM153.67980012962636,-15.287354971523934L164.56045746541827,-61.42660313302331L132.51395997529252,-156.57163494481978z" style="fill:rgb(247,158,158)"/><path d="M-184.3354911435802,28.457183591090402L-188.06698386320392,29.435985773138814L-189.13491808301578,29.851199047292532z" style="fill:rgb(93,250,135)"/><path d="M-184.3354911435802,28.457183591090402L-185.39499594763709,28.870316730547227L-183.52356245475633,31.497145891320624zM-185.39499594763709,28.870316730547227L-183.738964701375,32.75607650881383L-183.52356245475633,31.497145891320624z" style="fill:rgb(247,158,158)"/><path d="M-184.3354911435802,28.457183591090402L-189.13491808301578,29.851199047292532L-185.39499594763709,28.870316730547227z" style="fill:rgb(93,250,135)"/><path d="M194.66403336745665,97.98569530731982L190.53173164836366,98.90503423017013L196.58999603567628,115.43260166675186z" style="fill:rgb(127,37,217)"/><path d="M-186.58667938726197,28.765090051020028L-183.89935083122276,33.69346497183225L-183.738964701375,32.75607650881383zM-185.39499594763709,28.870316730547227L-186.58667938726197,28.765090051020028L-183.738964701375,32.75607650881383zM-187.86530222890235,28.14169739006173L-183.99825584393122,34.271518261780734L-183.89935083122276,33.69346497183225zM-186.58667938726197,28.765090051020028L-187.86530222890235,28.14169739006173L-183.89935083122276,33.69346497183225z" style="fill:rgb(247,158,158)"/><path d="M126.75906282603408,-138.5259871949914L125.42954979230112,-177.6050310184104L121.43478040250744,-176.43765273908525z" style="fill:rgb(83,212,212)"/><path d="M-189.1815766395475,27.020748831371765L-184.03167577511596,34.46684294043846L-183.99825584393122,34.271518261780734zM-187.86530222890235,28.14169739006173L-189.1815766395475,27.020748831371765L-183.99825584393122,34.271518261780734z" style="fill:rgb(247,158,158)"/><path d="M-190.32864593087473,71.26984128872996L-194.19211160444456,72.24194506410076L-132.8187740628715,153.70549902757267z" style="fill:rgb(127,37,217)"/><path d="M125.42954979230112,-177.6050310184104L129.66980980187122,-148.41323644802895L136.913861650689,-127.20182177121703zM-189.1815766395475,27.020748831371765L-190.48404517393908,25.443017826079835L-184.03167577511596,34.46684294043846zM134.0543482858685,-135.48059345948303L137.01280199590488,-126.54137890340903L136.93882324187908,-127.03519511335753zM134.80352008144595,-133.00836593876932L137.1331084902706,-125.73832533687096L137.01280199590488,-126.54137890340903z" style="fill:rgb(247,158,158)"/><path d="M181.6775795265898,74.74998050073913L39.4499645693262,107.27072733832898L40.76407552257219,109.74296151532414z" style="fill:rgb(127,37,217)"/><path d="M133.32441399841107,-137.71215329960765L136.93882324187908,-127.03519511335753L136.913861650689,-127.20182177121703zM135.54410634418667,-130.38785093437014L137.2953474694986,-124.65536255362008L137.1331084902706,-125.73832533687096zM136.24874508055285,-127.71617741418312L137.49355492915788,-123.3323009113978L137.2953474694986,-124.65536255362008zM134.80352008144595,-133.00836593876932L135.54410634418667,-130.38785093437014L137.1331084902706,-125.73832533687096zM135.54410634418667,-130.38785093437014L136.24874508055285,-127.71617741418312L137.2953474694986,-124.65536255362008zM134.0543482858685,-135.48059345948303L134.80352008144595,-133.00836593876932L137.01280199590488,-126.54137890340903z" style="fill:rgb(247,158,158)"/><path d="M136.24874508055285,-127.71617741418312L132.1600727331582,-126.57322609804473L132.80078927832028,-123.95130834299867z" style="fill:rgb(93,135,250)"/><path d="M135.54410634418667,-130.38785093437014L131.45541055723936,-129.24208072900885L132.1600727331582,-126.57322609804473z" style="fill:rgb(99,111,250)"/><path d="M136.24874508055285,-127.71617741418312L136.89144162547802,-125.09207107826568L137.49355492915788,-123.3323009113978z" style="fill:rgb(247,158,158)"/><path d="M135.54410634418667,-130.38785093437014L132.1600727331582,-126.57322609804473L136.24874508055285,-127.71617741418312z" style="fill:rgb(99,111,250)"/><path d="M136.89144162547802,-125.09207107826568L137.72038930995024,-121.81815680767549L137.49355492915788,-123.3323009113978z" style="fill:rgb(247,158,158)"/><path d="M136.24874508055285,-127.71617741418312L132.80078927832028,-123.95130834299867L136.89144162547802,-125.09207107826568z" style="fill:rgb(93,135,250)"/><path d="M136.89144162547802,-125.09207107826568L132.80078927832028,-123.95130834299867L133.35380946530316,-121.4733410457275z" style="fill:rgb(89,159,244)"/><path d="M134.80352008144595,-133.00836593876932L130.71283002798137,-131.85927830910538L131.45541055723936,-129.24208072900885zM134.80352008144595,-133.00836593876932L131.45541055723936,-129.24208072900885L135.54410634418667,-130.38785093437014z" style="fill:rgb(106,87,246)"/><path d="M133.32441399841107,-137.71215329960765L134.0543482858685,-135.48059345948303L136.93882324187908,-127.03519511335753zM-195.53838837834428,8.128333256360985L-195.41228507365858,8.306456133073906L-195.17476562394498,6.177160186244546z" style="fill:rgb(247,158,158)"/><path d="M136.89144162547802,-125.09207107826568L133.35380946530316,-121.4733410457275L137.44836548853436,-122.61261392871104z" style="fill:rgb(89,159,244)"/><path d="M136.89144162547802,-125.09207107826568L137.44836548853436,-122.61261392871104L137.72038930995024,-121.81815680767549z" style="fill:rgb(247,158,158)"/><path d="M134.0543482858685,-135.48059345948303L130.71283002798137,-131.85927830910538L134.80352008144595,-133.00836593876932z" style="fill:rgb(114,65,238)"/><path d="M137.44836548853436,-122.61261392871104L133.35380946530316,-121.4733410457275L133.7984093372718,-119.23153699637626z" style="fill:rgb(85,182,234)"/><path d="M134.0543482858685,-135.48059345948303L129.959730389916,-134.32777445688788L130.71283002798137,-131.85927830910538z" style="fill:rgb(114,65,238)"/><path d="M137.44836548853436,-122.61261392871104L137.96736698368102,-120.16955403800624L137.72038930995024,-121.81815680767549zM-195.53838837834428,8.128333256360985L-195.38887905164748,10.716656792194131L-195.41228507365858,8.306456133073906z" style="fill:rgb(247,158,158)"/><path d="M137.44836548853436,-122.61261392871104L133.7984093372718,-119.23153699637626L137.89865323897834,-120.37007269488524z" style="fill:rgb(85,182,234)"/><path d="M137.44836548853436,-122.61261392871104L137.89865323897834,-120.37007269488524L137.96736698368102,-120.16955403800624z" style="fill:rgb(247,158,158)"/><path d="M133.32441399841107,-137.71215329960765L129.959730389916,-134.32777445688788L134.0543482858685,-135.48059345948303z" style="fill:rgb(123,46,225)"/><path d="M-195.53838837834428,8.128333256360985L-195.88931652260288,10.011392654017614L-195.38887905164748,10.716656792194131z" style="fill:rgb(247,158,158)"/><path d="M137.89865323897834,-120.37007269488524L133.7984093372718,-119.23153699637626L134.1176466137671,-117.31020805767218z" style="fill:rgb(84,202,220)"/><path d="M133.32441399841107,-137.71215329960765L129.22407709380045,-136.55533643489863L129.959730389916,-134.32777445688788z" style="fill:rgb(123,46,225)"/><path d="M188.4545300382708,80.82376852228127L190.53173164836366,98.90503423017013L194.66403336745665,97.98569530731982z" style="fill:rgb(127,37,217)"/><path d="M-195.88931652260288,10.011392654017614L-195.10446295762299,13.31292521929411L-195.38887905164748,10.716656792194131zM137.89865323897834,-120.37007269488524L138.22515648843734,-118.44878650245907L137.96736698368102,-120.16955403800624z" style="fill:rgb(247,158,158)"/><path d="M137.89865323897834,-120.37007269488524L134.1176466137671,-117.31020805767218L138.22515648843734,-118.44878650245907z" style="fill:rgb(84,202,220)"/><path d="M-197.01663987074704,16.060525225130682L-190.48404517393908,25.443017826079835L-191.72112772659585,23.468235444012436zM-195.88931652260288,10.011392654017614L-196.2138520906064,11.752824657327398L-195.10446295762299,13.31292521929411zM-196.2138520906064,11.752824657327398L-194.569787226361,15.9921602805058L-195.10446295762299,13.31292521929411z" style="fill:rgb(247,158,158)"/><path d="M132.6410405700702,-139.61859038975996L129.22407709380045,-136.55533643489863L133.32441399841107,-137.71215329960765z" style="fill:rgb(131,29,208)"/><path d="M-196.90882341191815,15.481991154916601L-191.72112772659585,23.468235444012436L-192.84346444823163,21.17294561471598z" style="fill:rgb(247,158,158)"/><path d="M132.6410405700702,-139.61859038975996L128.53343060520564,-138.45765524536424L129.22407709380045,-136.55533643489863z" style="fill:rgb(131,29,208)"/><path d="M-196.49919521240483,13.283955478840527L-193.8059244130272,18.647480611600994L-194.569787226361,15.9921602805058zM-196.73399128665335,14.54385175339342L-192.84346444823163,21.17294561471598L-193.8059244130272,18.647480611600994zM-196.2138520906064,11.752824657327398L-196.49919521240483,13.283955478840527L-194.569787226361,15.9921602805058zM-218.03333500390806,34.263534879124705L-203.92176592284702,53.112944224312976L-177.41776911241274,-89.1056111400545zM-196.49919521240483,13.283955478840527L-196.73399128665335,14.54385175339342L-193.8059244130272,18.647480611600994zM153.67980012962636,-15.287354971523934L188.4545300382708,80.82376852228127L164.56045746541827,-61.42660313302331zM-197.01663987074704,16.060525225130682L-197.0530714467393,16.25601581219697L-190.48404517393908,25.443017826079835z" style="fill:rgb(247,158,158)"/><path d="M132.0301729127164,-141.1264423371011L128.53343060520564,-138.45765524536424L132.6410405700702,-139.61859038975996z" style="fill:rgb(140,16,189)"/><path d="M-196.73399128665335,14.54385175339342L-196.90882341191815,15.481991154916601L-192.84346444823163,21.17294561471598zM-196.90882341191815,15.481991154916601L-197.01663987074704,16.060525225130682L-191.72112772659585,23.468235444012436z" style="fill:rgb(247,158,158)"/><path d="M132.0301729127164,-141.1264423371011L127.91396907772581,-139.96142339889718L128.53343060520564,-138.45765524536424z" style="fill:rgb(140,16,189)"/><path d="M129.66980980187122,-148.41323644802895L132.6410405700702,-139.61859038975996L133.32441399841107,-137.71215329960765z" style="fill:rgb(247,158,158)"/><path d="M126.75906282603408,-138.5259871949914L130.93448398988653,-139.70666837674787L125.42954979230112,-177.6050310184104z" style="fill:rgb(83,212,212)"/><path d="M181.6775795265898,74.74998050073913L40.76407552257219,109.74296151532414L182.64788580609823,77.39707275271158zM188.4545300382708,80.82376852228127L184.25330160808468,81.77682684934247L190.53173164836366,98.90503423017013z" style="fill:rgb(127,37,217)"/><path d="M131.51540487725524,-142.17605400606533L127.91396907772581,-139.96142339889718L132.0301729127164,-141.1264423371011z" style="fill:rgb(148,8,167)"/><path d="M-197.0530714467393,16.25601581219697L-190.32864593087473,71.26984128872996L-184.03167577511596,34.46684294043846zM129.6938805009749,-148.24752326889123L132.0301729127164,-141.1264423371011L132.6410405700702,-139.61859038975996z" style="fill:rgb(247,158,158)"/><path d="M131.51540487725524,-142.17605400606533L127.3896004052931,-141.00712911108496L127.91396907772581,-139.96142339889718z" style="fill:rgb(148,8,167)"/><path d="M129.66980980187122,-148.41323644802895L129.6938805009749,-148.24752326889123L132.6410405700702,-139.61859038975996zM129.76521784835742,-147.7564058910745L131.51540487725524,-142.17605400606533L132.0301729127164,-141.1264423371011z" style="fill:rgb(247,158,158)"/><path d="M131.11701648458535,-142.72408238529704L127.3896004052931,-141.00712911108496L131.51540487725524,-142.17605400606533zM131.11701648458535,-142.72408238529704L126.9809972620819,-141.55160659823608L127.3896004052931,-141.00712911108496z" style="fill:rgb(155,4,143)"/><path d="M129.6938805009749,-148.24752326889123L129.76521784835742,-147.7564058910745L132.0301729127164,-141.1264423371011zM129.8812317949396,-146.95772077464392L131.11701648458535,-142.72408238529704L131.51540487725524,-142.17605400606533zM129.76521784835742,-147.7564058910745L129.8812317949396,-146.95772077464392L131.51540487725524,-142.17605400606533z" style="fill:rgb(247,158,158)"/><path d="M130.8512058598019,-142.74566085856767L126.9809972620819,-141.55160659823608L131.11701648458535,-142.72408238529704z" style="fill:rgb(161,4,119)"/><path d="M128.58137952419463,-155.4441815318196L153.67980012962636,-15.287354971523934L132.51395997529252,-156.57163494481978zM-207.84358386104904,54.12175246494157L-195.17476562394498,6.177160186244546L-198.93706961626629,7.188587152103726z" style="fill:rgb(83,212,212)"/><path d="M130.8512058598019,-142.74566085856767L126.70470938631783,-141.57012909179755L126.9809972620819,-141.55160659823608z" style="fill:rgb(161,4,119)"/><path d="M129.8812317949396,-146.95772077464392L130.03768725160694,-145.88060781658703L131.11701648458535,-142.72408238529704zM130.03768725160694,-145.88060781658703L130.8512058598019,-142.74566085856767L131.11701648458535,-142.72408238529704zM130.03768725160694,-145.88060781658703L130.22883962127185,-144.56463162742614L130.8512058598019,-142.74566085856767z" style="fill:rgb(247,158,158)"/><path d="M-189.2262244913834,-107.81839594721433L-222.01518821365102,35.31116307538025L-218.03333500390806,34.263534879124705z" style="fill:rgb(83,212,212)"/><path d="M130.22883962127185,-144.56463162742614L130.72927030486346,-142.2359115272385L130.8512058598019,-142.74566085856767zM130.22883962127185,-144.56463162742614L130.4476115011574,-143.05851069734317L130.72927030486346,-142.2359115272385zM130.4476115011574,-143.05851069734317L130.75705058189712,-141.21070204689346L130.72927030486346,-142.2359115272385zM130.4476115011574,-143.05851069734317L130.68582567249865,-141.41854056275758L130.75705058189712,-141.21070204689346z" style="fill:rgb(247,158,158)"/><path d="M-116.60045532940732,186.9081344411328L211.44760727094376,115.56825871547429L150.17875149184115,-59.20457952471097z" style="fill:rgb(127,37,217)"/><path d="M130.68582567249865,-141.41854056275758L130.93448398988653,-139.70666837674787L130.75705058189712,-141.21070204689346z" style="fill:rgb(247,158,158)"/><path d="M196.51774987187957,71.35673755041954L186.86670376075205,76.43529184401196L197.45067718316335,74.0224184715143zM196.51774987187957,71.35673755041954L185.90702148322035,73.78290844181251L186.86670376075205,76.43529184401196z" style="fill:rgb(127,37,217)"/><path d="M-197.0530714467393,16.25601581219697L-203.92176592284702,53.112944224312976L-190.32864593087473,71.26984128872996z" style="fill:rgb(247,158,158)"/><path d="M-207.84358386104904,54.12175246494157L-203.92176592284702,53.112944224312976L-195.17476562394498,6.177160186244546z" style="fill:rgb(83,212,212)"/><path d="M-203.92176592284702,53.112944224312976L-194.19211160444456,72.24194506410076L-190.32864593087473,71.26984128872996zM-203.92176592284702,53.112944224312976L-207.84358386104904,54.12175246494157L-194.19211160444456,72.24194506410076z" style="fill:rgb(127,37,217)"/><path d="M149.67758355300518,-62.48138547098234L211.44760727094376,115.56825871547429L210.85369657369452,112.31937766082015zM137.74050392873923,-59.340727069523474L125.42954979230112,-177.6050310184104L118.09195297154797,-199.39012902610207z" style="fill:rgb(247,158,158)"/><path d="M-116.60045532940732,186.9081344411328L150.17875149184115,-59.20457952471097L-228.66687091224912,40.16217992196063zM153.67980012962636,-15.287354971523934L184.25330160808468,81.77682684934247L188.4545300382708,80.82376852228127zM-218.03333500390806,34.263534879124705L-207.84358386104904,54.12175246494157L-203.92176592284702,53.112944224312976z" style="fill:rgb(127,37,217)"/><path d="M118.09195297154797,-199.39012902610207L114.0330106612643,-198.18067896777032L132.98465398084133,-58.08946601039823z" style="fill:rgb(83,212,212)"/><path d="M-218.03333500390806,34.263534879124705L-222.01518821365102,35.31116307538025L-207.84358386104904,54.12175246494157z" style="fill:rgb(127,37,217)"/><path d="M128.58137952419463,-155.4441815318196L149.09667702705266,-14.134178170207289L153.67980012962636,-15.287354971523934z" style="fill:rgb(83,212,212)"/><path d="M146.65256085835105,-62.19494827290851L142.28610736894206,-61.04559820264263L142.49617690001915,-59.303000530285026zM146.65256085835105,-62.19494827290851L142.49617690001915,-59.303000530285026L146.87232739930482,-60.45302485681371z" style="fill:rgb(84,220,202)"/><path d="M146.87232739930482,-60.45302485681371L146.94386165002524,-60.25047817453902L146.65256085835105,-62.19494827290851z" style="fill:rgb(247,158,158)"/><path d="M146.87232739930482,-60.45302485681371L142.49617690001915,-59.303000530285026L142.55421002696815,-58.02493042230626z" style="fill:rgb(85,234,182)"/><path d="M146.87232739930482,-60.45302485681371L147.22506226967567,-58.373433527605656L146.94386165002524,-60.25047817453902z" style="fill:rgb(247,158,158)"/><path d="M146.87232739930482,-60.45302485681371L142.55421002696815,-58.02493042230626L146.94119027616932,-59.17644057569605z" style="fill:rgb(85,234,182)"/><path d="M146.87232739930482,-60.45302485681371L146.94119027616932,-59.17644057569605L147.22506226967567,-58.373433527605656zM146.94119027616932,-59.17644057569605L147.48517308269746,-56.63716562819976L147.22506226967567,-58.373433527605656z" style="fill:rgb(247,158,158)"/><path d="M146.94119027616932,-59.17644057569605L142.55421002696815,-58.02493042230626L142.45688592181867,-57.2631682183113z" style="fill:rgb(89,244,159)"/><path d="M146.94119027616932,-59.17644057569605L146.85542578741922,-58.41693953030683L147.48517308269746,-56.63716562819976z" style="fill:rgb(247,158,158)"/><path d="M146.94119027616932,-59.17644057569605L142.45688592181867,-57.2631682183113L146.85542578741922,-58.41693953030683z" style="fill:rgb(89,244,159)"/><path d="M146.85542578741922,-58.41693953030683L147.71391890034482,-55.11026822467178L147.48517308269746,-56.63716562819976z" style="fill:rgb(247,158,158)"/><path d="M146.85542578741922,-58.41693953030683L142.45688592181867,-57.2631682183113L142.20670464727985,-57.05085489130998z" style="fill:rgb(93,250,135)"/><path d="M146.85542578741922,-58.41693953030683L146.61709725033202,-58.207586581941094L147.71391890034482,-55.11026822467178zM146.61709725033202,-58.207586581941094L147.9021767310715,-53.853626785588375L147.71391890034482,-55.11026822467178z" style="fill:rgb(247,158,158)"/><path d="M146.85542578741922,-58.41693953030683L142.20670464727985,-57.05085489130998L146.61709725033202,-58.207586581941094z" style="fill:rgb(93,250,135)"/><path d="M146.2341328340197,-58.56093225376514L148.04237533175456,-52.917780158309725L147.9021767310715,-53.853626785588375zM146.61709725033202,-58.207586581941094L146.2341328340197,-58.56093225376514L147.9021767310715,-53.853626785588375zM145.7201902221418,-59.46785964446654L148.12884124707384,-52.340610791848235L148.04237533175456,-52.917780158309725zM146.2341328340197,-58.56093225376514L145.7201902221418,-59.46785964446654L148.04237533175456,-52.917780158309725zM145.09434824601027,-60.89724208122557L148.15806092042206,-52.145572067742734L148.12884124707384,-52.340610791848235zM145.7201902221418,-59.46785964446654L145.09434824601027,-60.89724208122557L148.12884124707384,-52.340610791848235z" style="fill:rgb(247,158,158)"/><path d="M153.67980012962636,-15.287354971523934L149.09667702705266,-14.134178170207289L184.25330160808468,81.77682684934247z" style="fill:rgb(127,37,217)"/><path d="M145.09434824601027,-60.89724208122557L144.38045855976142,-62.79653501519718L148.15806092042206,-52.145572067742734zM139.35440734849942,-81.74024779866957L139.4287332702655,-81.52979601049833L139.07277451081853,-83.67913094787373zM139.35440734849942,-81.74024779866957L139.92093708657828,-79.03497229021042L139.4287332702655,-81.52979601049833zM139.35440734849942,-81.74024779866957L139.62629588807607,-79.86844864276175L139.92093708657828,-79.03497229021042zM139.62629588807607,-79.86844864276175L140.53032052849753,-76.29280526689968L139.92093708657828,-79.03497229021042zM140.50028330145713,-73.85153853250864L144.38045855976142,-62.79653501519718L143.60622667401518,-65.09343223548792zM139.62629588807607,-79.86844864276175L139.87781109063715,-78.13690841460485L140.53032052849753,-76.29280526689968zM139.87781109063715,-78.13690841460485L141.23280280492025,-73.41234864843157L140.53032052849753,-76.29280526689968zM140.41665851814506,-74.42724797234094L143.60622667401518,-65.09343223548792L142.80218138063077,-67.69850957727547zM140.09901213802237,-76.61406403717632L142.00034915715628,-70.508840756252L141.23280280492025,-73.41234864843157zM140.2810706997367,-75.36069945264083L142.80218138063077,-67.69850957727547L142.00034915715628,-70.508840756252zM139.87781109063715,-78.13690841460485L140.09901213802237,-76.61406403717632L141.23280280492025,-73.41234864843157zM140.09901213802237,-76.61406403717632L140.2810706997367,-75.36069945264083L142.00034915715628,-70.508840756252zM140.50028330145713,-73.85153853250864L140.52854329705207,-73.65698441123938L144.38045855976142,-62.79653501519718zM137.74050392873923,-59.340727069523474L145.87286732147103,-36.8643264969611L125.42954979230112,-177.6050310184104zM140.2810706997367,-75.36069945264083L140.41665851814506,-74.42724797234094L142.80218138063077,-67.69850957727547zM140.41665851814506,-74.42724797234094L140.50028330145713,-73.85153853250864L143.60622667401518,-65.09343223548792zM140.52854329705207,-73.65698441123938L153.67980012962636,-15.287354971523934L148.15806092042206,-52.145572067742734z" style="fill:rgb(247,158,158)"/><path d="M-227.972449412951,36.878526952159255L-228.66687091224912,40.16217992196063L150.17875149184115,-59.20457952471097zM141.2049661543717,-35.66360686048084L139.07277451081853,-83.67913094787373L134.6294627841906,-82.48463017483787z" style="fill:rgb(83,212,212)"/><path d="M149.67758355300518,-62.48138547098234L150.17875149184115,-59.20457952471097L211.44760727094376,115.56825871547429z" style="fill:rgb(247,158,158)"/><path d="M118.09195297154797,-199.39012902610207L132.98465398084133,-58.08946601039823L137.74050392873923,-59.340727069523474z" style="fill:rgb(83,212,212)"/><path d="M140.52854329705207,-73.65698441123938L145.87286732147103,-36.8643264969611L153.67980012962636,-15.287354971523934z" style="fill:rgb(247,158,158)"/><path d="M141.2049661543717,-35.66360686048084L145.87286732147103,-36.8643264969611L139.07277451081853,-83.67913094787373z" style="fill:rgb(83,212,212)"/><path d="M145.87286732147103,-36.8643264969611L149.09667702705266,-14.134178170207289L153.67980012962636,-15.287354971523934zM145.87286732147103,-36.8643264969611L141.2049661543717,-35.66360686048084L149.09667702705266,-14.134178170207289z" style="fill:rgb(127,37,217)"/><path d="M-227.972449412951,36.878526952159255L150.17875149184115,-59.20457952471097L149.67758355300518,-62.48138547098234z" style="fill:rgb(83,212,212)"/><path d="M137.74050392873923,-59.340727069523474L141.2049661543717,-35.66360686048084L145.87286732147103,-36.8643264969611zM137.74050392873923,-59.340727069523474L132.98465398084133,-58.08946601039823L141.2049661543717,-35.66360686048084z" style="fill:rgb(127,37,217)"/></svg>
