<?xml version="1.0" encoding="UTF-8"?>
<!-- Generated by jsxcad -->
<!DOCTYPE svg PUBLIC "-//W3C//DTD SVG 1.1 Tiny//EN" "http://www.w3.org/Graphics/SVG/1.1/DTD/svg11-tiny.dtd">
<svg viewBox="-250 -250 500 500" width="500" height="500" xmlns="http://www.w3.org/2000/svg"><path d="M-72.51654019936372,125.79946946829284L69.61419800550638,-125.58817008859587L-72.51478958906924,-125.58817008859583zM69.61419800550638,-125.58817008859587L-72.51654019936372,125.79946946829284L69.61587859138925,125.79946946829278z" style="fill:rgb(127,127,254)"/><path d="M69.42249882313817,125.45031155164924L72.79072811363007,-131.3235717013851L69.42082756087606,-125.23902900626766zM72.79072811363007,-131.3235717013851L69.42249882313817,125.45031155164924L72.7908164508846,-118.68643661329712zM72.7908164508846,-118.68643661329712L69.42249882313817,125.45031155164924L72.79083765185759,-115.65351962811522zM72.79083765185759,-115.65351962811522L69.42249882313817,125.45031155164924L72.79247723117669,118.8974119029861zM72.79247723117669,118.8974119029861L69.42249882313817,125.45031155164924L72.79249843311712,121.93046728658683zM72.79249843311712,121.93046728658683L69.42249882313817,125.45031155164924L72.79256557267668,131.53515432429572zM-4.189782843121657e-14,-114.54047753495007L-3.92705090211772e-14,-117.88458071942429L-4.2714349899343924e-14,-117.54423250735744z" style="fill:rgb(0,127,127)"/><path d="M30.037888940431213,-114.54047753495009L-3.84516245514278e-14,-114.87213619704838L-4.189782843121657e-14,-114.54047753495007z" style="fill:rgb(127,0,127)"/><path d="M3.932665317797772e-14,118.09551954223744L30.038559023986004,117.7551559264524L3.565600933654859e-14,117.75515592645242z" style="fill:rgb(127,254,127)"/><path d="M3.647257186223076e-14,120.7590466485657L3.932665317797772e-14,118.09551954223744L3.565600933654859e-14,117.75515592645242zM-3.92705090211772e-14,-117.88458071942429L-4.189782843121657e-14,-114.54047753495007L-3.84516245514278e-14,-114.87213619704838z" style="fill:rgb(0,127,127)"/><path d="M-3.84516245514278e-14,-114.87213619704838L30.037888940431213,-114.54047753495009L30.124786406048685,-114.87213619704839z" style="fill:rgb(127,0,127)"/><path d="M30.038559023986004,117.7551559264524L3.932665317797772e-14,118.09551954223744L30.125460372262566,118.09551954223743z" style="fill:rgb(127,254,127)"/><path d="M3.932665317797772e-14,118.09551954223744L3.647257186223076e-14,120.7590466485657L4.0145578943225023e-14,121.10810060089267z" style="fill:rgb(0,127,127)"/><path d="M-3.84516245514278e-14,-114.87213619704838L30.12477769116583,-117.8845807194243L-3.92705090211772e-14,-117.88458071942429zM30.12477769116583,-117.8845807194243L-3.84516245514278e-14,-114.87213619704838L30.124786406048685,-114.87213619704839zM4.0145578943225023e-14,121.10810060089267L30.125460372262566,118.09551954223743L3.932665317797772e-14,118.09551954223744zM30.125460372262566,118.09551954223743L4.0145578943225023e-14,121.10810060089267L30.125469087540427,121.10810060089266zM-75.67863847092272,131.28043983306662L72.64966258807247,-131.06887005674375L-75.6767318625756,-131.0688700567437zM72.64966258807247,-131.06887005674375L-75.67863847092272,131.28043983306662L72.65149293208589,131.28043983306657zM72.79083765185759,-115.65351962811522L75.82376713633813,-118.68643661329712L72.7908164508846,-118.68643661329712zM75.82376713633813,-118.68643661329712L72.79083765185759,-115.65351962811522L75.823789220685,-115.65351962811522zM72.79247723117669,118.8974119029861L75.82551920116367,121.93046728658683L75.82549711580904,118.8974119029861zM75.82551920116367,121.93046728658683L72.79247723117669,118.8974119029861L72.79249843311712,121.93046728658683z" style="fill:rgb(127,127,254)"/><path d="M-86.77582554884454,-150.30729920913532L-72.31510294076885,125.45031155164929L-72.31336204257931,-125.2390290062676z" style="fill:rgb(255,127,127)"/><path d="M75.823789220685,-115.65351962811522L-80.93103048641777,-123.45057466611898L-75.82378922068509,-115.65351962811516z" style="fill:rgb(127,0,127)"/><path d="M-80.93297620949491,126.8991291897694L75.82549711580904,118.8974119029861L-75.82549711580897,118.89741190298615z" style="fill:rgb(127,254,127)"/><path d="M32.372412194567055,-123.45057466611902L75.823789220685,-115.65351962811522L80.93103048641767,-123.45057466611904zM-4.5156244838614225e-14,-123.45057466611901L75.823789220685,-115.65351962811522L32.372412194567055,-123.45057466611902zM-80.93103048641777,-123.45057466611898L75.823789220685,-115.65351962811522L-4.5156244838614225e-14,-123.45057466611901z" style="fill:rgb(127,0,127)"/><path d="M75.82549711580904,118.8974119029861L32.37319048379803,126.89912918976934L80.93297620949501,126.89912918976934zM75.82549711580904,118.8974119029861L3.842508832852157e-14,126.89912918976937L32.37319048379803,126.89912918976934zM75.82549711580904,118.8974119029861L-80.93297620949491,126.8991291897694L3.842508832852157e-14,126.89912918976937z" style="fill:rgb(127,254,127)"/><path d="M72.7908164508846,-118.68643661329712L83.30479252689067,-150.30729920913538L72.79072811363007,-131.3235717013851z" style="fill:rgb(0,127,127)"/><path d="M75.82376713633813,-118.68643661329712L83.30490822648086,-135.84485036065254L72.7908164508846,-118.68643661329712z" style="fill:rgb(127,0,127)"/><path d="M83.30708343859436,136.05666517449868L72.79083765185759,-115.65351962811522L72.79247723117669,118.8974119029861z" style="fill:rgb(0,127,127)"/><path d="M83.30711120799397,139.52784014363843L75.82551920116367,121.93046728658683L72.79249843311712,121.93046728658683z" style="fill:rgb(127,254,127)"/><path d="M83.30719914454824,150.51990947954317L72.79249843311712,121.93046728658683L72.79256557267668,131.53515432429572z" style="fill:rgb(0,127,127)"/><path d="M-4.5156244838614225e-14,-123.45057466611901L32.37240213072725,-126.68777648505589L-4.603622473881211e-14,-126.68777648505586zM32.37240213072725,-126.68777648505589L-4.5156244838614225e-14,-123.45057466611901L32.372412194567055,-123.45057466611902zM3.930511591628028e-14,130.1364886793947L32.37319048379803,126.89912918976934L3.842508832852157e-14,126.89912918976937zM32.37319048379803,126.89912918976934L3.930511591628028e-14,130.1364886793947L32.373200548128,130.13648867939466z" style="fill:rgb(127,127,254)"/><path d="M32.372412194567055,-123.45057466611902L-4.516795339922115e-14,-123.48259157225691L-4.5156244838614225e-14,-123.45057466611901z" style="fill:rgb(127,0,127)"/><path d="M3.842508832852157e-14,126.89912918976937L32.38157959620334,126.93198654685445L32.37319048379803,126.89912918976934z" style="fill:rgb(127,254,127)"/><path d="M3.9315294195553095e-14,130.17018496867848L3.842508832852157e-14,126.89912918976937L3.930511591628028e-14,130.1364886793947z" style="fill:rgb(0,127,127)"/><path d="M-4.516795339922115e-14,-123.48259157225691L32.372412194567055,-123.45057466611902L32.38080090355687,-123.48259157225692z" style="fill:rgb(127,0,127)"/><path d="M32.38157959620334,126.93198654685445L3.842508832852157e-14,126.89912918976937L3.843503855635099e-14,126.93198654685445z" style="fill:rgb(127,254,127)"/><path d="M3.842508832852157e-14,126.89912918976937L3.9315294195553095e-14,130.17018496867848L3.843503855635099e-14,126.93198654685445z" style="fill:rgb(0,127,127)"/><path d="M-4.516795339922115e-14,-123.48259157225691L32.38079083450068,-126.72063224166608L-4.604816132614425e-14,-126.72063224166605zM32.38079083450068,-126.72063224166608L-4.516795339922115e-14,-123.48259157225691L32.38080090355687,-123.48259157225692zM3.9315294195553095e-14,130.17018496867848L32.38157959620334,126.93198654685445L3.843503855635099e-14,126.93198654685445zM32.38157959620334,126.93198654685445L3.9315294195553095e-14,130.17018496867848L32.38158966575008,130.17018496867846z" style="fill:rgb(127,127,254)"/><path d="M-4.619188440970943e-14,-127.11623364108516L-4.5156244838614225e-14,-123.45057466611901L-4.603622473881211e-14,-126.68777648505586z" style="fill:rgb(255,127,127)"/><path d="M32.372412194567055,-123.45057466611902L32.4817954466133,-127.11623364108516L32.37240213072725,-126.68777648505589z" style="fill:rgb(0,127,127)"/><path d="M80.93103048641767,-123.45057466611904L32.48180557858379,-123.86809275053716L32.372412194567055,-123.45057466611902zM-4.5156244838614225e-14,-123.45057466611901L-81.2045139464596,-123.86809275053712L-80.93103048641777,-123.45057466611898z" style="fill:rgb(127,0,127)"/><path d="M-80.93297620949491,126.8991291897694L3.855484478770597e-14,127.327607249429L3.842508832852157e-14,126.89912918976937zM32.37319048379803,126.89912918976934L81.20647284195282,127.32760724942897L80.93297620949501,126.89912918976934z" style="fill:rgb(127,254,127)"/><path d="M32.373200548128,130.13648867939466L32.48258913678115,127.32760724942897L32.37319048379803,126.89912918976934zM-4.516795339922115e-14,-123.48259157225691L-4.2345267109869995e-14,-127.11623364108516L-4.604816132614425e-14,-126.72063224166605z" style="fill:rgb(0,127,127)"/><path d="M32.38080090355687,-123.48259157225692L-4.146231255920685e-14,-123.86809275053714L-4.516795339922115e-14,-123.48259157225691z" style="fill:rgb(127,0,127)"/><path d="M4.24015560793426e-14,127.327607249429L32.38157959620334,126.93198654685445L3.843503855635099e-14,126.93198654685445z" style="fill:rgb(127,254,127)"/><path d="M3.9315294195553095e-14,130.17018496867848L4.24015560793426e-14,127.327607249429L3.843503855635099e-14,126.93198654685445z" style="fill:rgb(0,127,127)"/><path d="M-4.5156244838614225e-14,-123.45057466611901L-4.619188440970943e-14,-127.11623364108516L-4.530893091561492e-14,-123.86809275053714z" style="fill:rgb(255,127,127)"/><path d="M32.4817954466133,-127.11623364108516L32.372412194567055,-123.45057466611902L32.48180557858379,-123.86809275053716z" style="fill:rgb(0,127,127)"/><path d="M32.48180557858379,-123.86809275053716L80.93103048641767,-123.45057466611904L81.20451394645951,-123.86809275053717zM-81.2045139464596,-123.86809275053712L-4.5156244838614225e-14,-123.45057466611901L-4.530893091561492e-14,-123.86809275053714z" style="fill:rgb(127,0,127)"/><path d="M3.855484478770597e-14,127.327607249429L-80.93297620949491,126.8991291897694L-81.20647284195272,127.32760724942901zM81.20647284195282,127.32760724942897L32.37319048379803,126.89912918976934L32.48258913678115,127.32760724942897z" style="fill:rgb(127,254,127)"/><path d="M32.48258913678115,127.32760724942897L32.373200548128,130.13648867939466L32.4825992692468,130.5759068780856zM-4.2345267109869995e-14,-127.11623364108516L-4.516795339922115e-14,-123.48259157225691L-4.146231255920685e-14,-123.86809275053714z" style="fill:rgb(0,127,127)"/><path d="M-4.146231255920685e-14,-123.86809275053714L32.38080090355687,-123.48259157225692L32.48180557858379,-123.86809275053716z" style="fill:rgb(127,0,127)"/><path d="M32.38157959620334,126.93198654685445L4.24015560793426e-14,127.327607249429L32.48258913678115,127.32760724942897z" style="fill:rgb(127,254,127)"/><path d="M4.24015560793426e-14,127.327607249429L3.9315294195553095e-14,130.17018496867848L4.328455864046316e-14,130.57590687808562z" style="fill:rgb(0,127,127)"/><path d="M-4.146231255920685e-14,-123.86809275053714L32.4817954466133,-127.11623364108516L-4.2345267109869995e-14,-127.11623364108516zM32.4817954466133,-127.11623364108516L-4.146231255920685e-14,-123.86809275053714L32.48180557858379,-123.86809275053716zM4.328455864046316e-14,130.57590687808562L32.48258913678115,127.32760724942897L4.24015560793426e-14,127.327607249429zM32.48258913678115,127.32760724942897L4.328455864046316e-14,130.57590687808562L32.4825992692468,130.5759068780856z" style="fill:rgb(127,127,254)"/><path d="M-72.31510294076885,125.45031155164929L-86.77582554884454,-150.30729920913532L-86.77833244223766,150.51990947954323z" style="fill:rgb(255,127,127)"/><path d="M86.77597499419828,-132.37385665928053L32.48180557858379,-123.86809275053716L81.20451394645951,-123.86809275053717zM86.77597499419828,-132.37385665928053L-4.530893091561492e-14,-123.86809275053714L32.48180557858379,-123.86809275053716zM-4.530893091561492e-14,-123.86809275053714L-86.77597499419838,-132.37385665928048L-81.2045139464596,-123.86809275053712z" style="fill:rgb(127,0,127)"/><path d="M32.48258913678115,127.32760724942897L86.77821191520248,136.05666517449868L81.20647284195282,127.32760724942897zM3.855484478770597e-14,127.327607249429L86.77821191520248,136.05666517449868L32.48258913678115,127.32760724942897zM-86.77821191520238,136.05666517449876L3.855484478770597e-14,127.327607249429L-81.20647284195272,127.32760724942901z" style="fill:rgb(127,254,127)"/><path d="M83.30479252689067,-150.30729920913538L72.7908164508846,-118.68643661329712L83.30490822648086,-135.84485036065254z" style="fill:rgb(0,127,127)"/><path d="M83.30490822648086,-135.84485036065254L75.82376713633813,-118.68643661329712L86.7759460692509,-135.84485036065254z" style="fill:rgb(127,0,127)"/><path d="M72.79083765185759,-115.65351962811522L83.30708343859436,136.05666517449868L83.30493599443035,-132.37385665928053z" style="fill:rgb(0,127,127)"/><path d="M75.82551920116367,121.93046728658683L83.30711120799397,139.52784014363843L86.7782408416604,139.52784014363843z" style="fill:rgb(127,254,127)"/><path d="M72.79249843311712,121.93046728658683L83.30719914454824,150.51990947954317L83.30711120799397,139.52784014363843z" style="fill:rgb(0,127,127)"/><path d="M-86.77597499419838,-132.37385665928048L-4.530893091561492e-14,-123.86809275053714L86.77597499419828,-132.37385665928053z" style="fill:rgb(127,0,127)"/><path d="M3.855484478770597e-14,127.327607249429L-86.77821191520238,136.05666517449876L86.77821191520248,136.05666517449868z" style="fill:rgb(127,254,127)"/><path d="M83.30490822648086,-135.84485036065254L86.77582554884444,-150.30729920913538L83.30479252689067,-150.30729920913538zM86.77582554884444,-150.30729920913538L83.30490822648086,-135.84485036065254L86.7759460692509,-135.84485036065254zM-86.77597499419838,-132.37385665928048L86.7759460692509,-135.84485036065254L-86.775946069251,-135.84485036065246zM86.7759460692509,-135.84485036065254L-86.77597499419838,-132.37385665928048L86.77597499419828,-132.37385665928053zM-90.24946573992715,150.51990947954323L-86.77582554884454,-150.30729920913532L-90.24685857079831,-150.30729920913532zM83.30708343859436,136.05666517449868L86.77597499419828,-132.37385665928053L83.30493599443035,-132.37385665928053zM86.77597499419828,-132.37385665928053L83.30708343859436,136.05666517449868L86.77821191520248,136.05666517449868zM-86.77582554884454,-150.30729920913532L-90.24946573992715,150.51990947954323L-86.77833244223766,150.51990947954323zM-86.7782408416603,139.52784014363849L86.77821191520248,136.05666517449868L-86.77821191520238,136.05666517449876zM86.77821191520248,136.05666517449868L-86.7782408416603,139.52784014363849L86.7782408416604,139.52784014363843zM83.30719914454824,150.51990947954317L86.7782408416604,139.52784014363843L83.30711120799397,139.52784014363843zM86.7782408416604,139.52784014363843L83.30719914454824,150.51990947954317L86.77833244223774,150.51990947954317z" style="fill:rgb(127,127,254)"/></svg>
