solid JSxCAD
facet normal 0 1 0
outer loop
vertex -254 144 90
vertex 260 144 96
vertex 260 144 90
endloop
endfacet
facet normal 0 1 0
outer loop
vertex 260 144 96
vertex -254 144 90
vertex -254 144 96
endloop
endfacet
facet normal 0 -1 0
outer loop
vertex 260 -150 96
vertex -254 -150 90
vertex 260 -150 90
endloop
endfacet
facet normal 0 -1 0
outer loop
vertex -254 -150 90
vertex 260 -150 96
vertex -254 -150 96
endloop
endfacet
facet normal -1 0 0
outer loop
vertex -254 -150 90
vertex -254 144 96
vertex -254 144 90
endloop
endfacet
facet normal -1 0 0
outer loop
vertex -254 144 96
vertex -254 -150 90
vertex -254 -150 96
endloop
endfacet
facet normal 1 0 0
outer loop
vertex 260 -150 90
vertex 260 144 96
vertex 260 -150 96
endloop
endfacet
facet normal 1 0 0
outer loop
vertex 260 144 96
vertex 260 -150 90
vertex 260 144 90
endloop
endfacet
facet normal 0 0 1
outer loop
vertex 260 144 96
vertex -254 -150 96
vertex 260 -150 96
endloop
endfacet
facet normal 0 0 1
outer loop
vertex -254 -150 96
vertex 260 144 96
vertex -254 144 96
endloop
endfacet
facet normal 0 0 -1
outer loop
vertex -254 -150 90
vertex 260 144 90
vertex 260 -150 90
endloop
endfacet
facet normal 0 0 -1
outer loop
vertex 260 144 90
vertex -254 -150 90
vertex -254 144 90
endloop
endfacet
facet normal 0 1 0
outer loop
vertex 260 144 6
vertex -254 144 0
vertex -254 144 6
endloop
endfacet
facet normal 0 1 0
outer loop
vertex -254 144 0
vertex 260 144 6
vertex 260 144 0
endloop
endfacet
facet normal 0 -1 0
outer loop
vertex -254 -150 6
vertex 260 -150 0
vertex 260 -150 6
endloop
endfacet
facet normal 0 -1 0
outer loop
vertex 260 -150 0
vertex -254 -150 6
vertex -254 -150 0
endloop
endfacet
facet normal -1 0 0
outer loop
vertex -254 144 0
vertex -254 -150 6
vertex -254 144 6
endloop
endfacet
facet normal -1 0 0
outer loop
vertex -254 -150 6
vertex -254 144 0
vertex -254 -150 0
endloop
endfacet
facet normal 1 0 0
outer loop
vertex 260 -150 6
vertex 260 144 0
vertex 260 144 6
endloop
endfacet
facet normal 1 0 0
outer loop
vertex 260 144 0
vertex 260 -150 6
vertex 260 -150 0
endloop
endfacet
facet normal 0 0 1
outer loop
vertex 260 144 6
vertex -254 -150 6
vertex 260 -150 6
endloop
endfacet
facet normal 0 0 1
outer loop
vertex -254 -150 6
vertex 260 144 6
vertex -254 144 6
endloop
endfacet
facet normal 0 0 -1
outer loop
vertex 260 -150 0
vertex -254 144 0
vertex 260 144 0
endloop
endfacet
facet normal 0 0 -1
outer loop
vertex -254 144 0
vertex 260 -150 0
vertex -254 -150 0
endloop
endfacet
facet normal -1 0 0
outer loop
vertex -254 150 260
vertex -254 144 96
vertex -254 144 260
endloop
endfacet
facet normal -1 0 0
outer loop
vertex -254 150 260
vertex -254 144 90
vertex -254 144 96
endloop
endfacet
facet normal -1 0 0
outer loop
vertex -254 150 260
vertex -254 144 6
vertex -254 144 90
endloop
endfacet
facet normal -1 0 0
outer loop
vertex -254 150 260
vertex -254 144 0
vertex -254 144 6
endloop
endfacet
facet normal -1 0 0
outer loop
vertex -254 144 0
vertex -254 150 260
vertex -254 150 0
endloop
endfacet
facet normal 0 0 -1
outer loop
vertex -260 144 260
vertex -254 150 260
vertex -254 144 260
endloop
endfacet
facet normal 0 0 -1
outer loop
vertex -254 150 260
vertex -260 144 260
vertex -260 150 260
endloop
endfacet
facet normal 1 0 0
outer loop
vertex 260 150 360
vertex 260 144 6
vertex 260 150 0
endloop
endfacet
facet normal 1 0 0
outer loop
vertex 260 150 360
vertex 260 144 96
vertex 260 144 6
endloop
endfacet
facet normal 1 0 0
outer loop
vertex 260 144 96
vertex 260 150 360
vertex 260 144 360
endloop
endfacet
facet normal 1 0 0
outer loop
vertex 260 150 0
vertex 260 144 6
vertex 260 144 0
endloop
endfacet
facet normal 0 -1 0
outer loop
vertex -260 144 360
vertex -254 144 260
vertex -254 144 360
endloop
endfacet
facet normal 0 -1 0
outer loop
vertex -254 144 260
vertex -260 144 360
vertex -260 144 260
endloop
endfacet
facet normal 0 -1 0
outer loop
vertex 260 144 360
vertex -254 144 0
vertex 260 144 0
endloop
endfacet
facet normal 0 -1 0
outer loop
vertex 260 144 360
vertex -254 144 260
vertex -254 144 0
endloop
endfacet
facet normal 0 -1 0
outer loop
vertex -254 144 260
vertex 260 144 360
vertex -254 144 360
endloop
endfacet
facet normal 0 1 0
outer loop
vertex -260 150 260
vertex -254 150 360
vertex -254 150 260
endloop
endfacet
facet normal 0 1 0
outer loop
vertex -254 150 360
vertex -260 150 260
vertex -260 150 360
endloop
endfacet
facet normal 0 1 0
outer loop
vertex 260 150 0
vertex -254 150 260
vertex 260 150 360
endloop
endfacet
facet normal 0 1 0
outer loop
vertex -254 150 260
vertex 260 150 0
vertex -254 150 0
endloop
endfacet
facet normal 0 1 0
outer loop
vertex 260 150 360
vertex -254 150 260
vertex -254 150 360
endloop
endfacet
facet normal 0 0 -1
outer loop
vertex -254 144 0
vertex 260 150 0
vertex 260 144 0
endloop
endfacet
facet normal 0 0 -1
outer loop
vertex 260 150 0
vertex -254 144 0
vertex -254 150 0
endloop
endfacet
facet normal 0 0 1
outer loop
vertex -254 150 360
vertex 260 144 360
vertex 260 150 360
endloop
endfacet
facet normal 0 0 1
outer loop
vertex 260 144 360
vertex -254 150 360
vertex -254 144 360
endloop
endfacet
facet normal 0 0 1
outer loop
vertex -260 150 360
vertex -254 144 360
vertex -254 150 360
endloop
endfacet
facet normal 0 0 1
outer loop
vertex -254 144 360
vertex -260 150 360
vertex -260 144 360
endloop
endfacet
facet normal -1 0 0
outer loop
vertex -260 144 260
vertex -260 150 360
vertex -260 150 260
endloop
endfacet
facet normal -1 0 0
outer loop
vertex -260 150 360
vertex -260 144 260
vertex -260 144 360
endloop
endfacet
facet normal 0 1 0
outer loop
vertex 260 -150 96
vertex 260 -150 0
vertex -254 -150 0
endloop
endfacet
facet normal 0 1 0
outer loop
vertex -254 -150 0
vertex 260 -150 360
vertex 260 -150 96
endloop
endfacet
facet normal 0 1 0
outer loop
vertex -254 -150 0
vertex -254 -150 360
vertex 260 -150 360
endloop
endfacet
facet normal 0 1 0
outer loop
vertex -254 -150 0
vertex -260 -150 260
vertex -254 -150 360
endloop
endfacet
facet normal 0 1 0
outer loop
vertex -260 -150 260
vertex -254 -150 0
vertex -260 -150 0
endloop
endfacet
facet normal 0 1 0
outer loop
vertex -254 -150 360
vertex -260 -150 260
vertex -260 -150 360
endloop
endfacet
facet normal 0 -1 0
outer loop
vertex -260 -156 360
vertex -254 -156 0
vertex -254 -156 360
endloop
endfacet
facet normal 0 -1 0
outer loop
vertex -254 -156 0
vertex -260 -156 360
vertex -260 -156 0
endloop
endfacet
facet normal 0 -1 0
outer loop
vertex 260 -156 360
vertex -254 -156 0
vertex 260 -156 0
endloop
endfacet
facet normal 0 -1 0
outer loop
vertex -254 -156 0
vertex 260 -156 360
vertex -254 -156 360
endloop
endfacet
facet normal 0 0 -1
outer loop
vertex 260 -156 0
vertex -254 -150 0
vertex 260 -150 0
endloop
endfacet
facet normal 0 0 -1
outer loop
vertex -254 -150 0
vertex 260 -156 0
vertex -254 -156 0
endloop
endfacet
facet normal 0 0 -1
outer loop
vertex -254 -156 0
vertex -260 -150 0
vertex -254 -150 0
endloop
endfacet
facet normal 0 0 -1
outer loop
vertex -260 -150 0
vertex -254 -156 0
vertex -260 -156 0
endloop
endfacet
facet normal 0 0 1
outer loop
vertex -254 -150 360
vertex 260 -156 360
vertex 260 -150 360
endloop
endfacet
facet normal 0 0 1
outer loop
vertex 260 -156 360
vertex -254 -150 360
vertex -254 -156 360
endloop
endfacet
facet normal 0 0 1
outer loop
vertex -260 -150 360
vertex -254 -156 360
vertex -254 -150 360
endloop
endfacet
facet normal 0 0 1
outer loop
vertex -254 -156 360
vertex -260 -150 360
vertex -260 -156 360
endloop
endfacet
facet normal 1 0 0
outer loop
vertex 260 -156 360
vertex 260 -150 0
vertex 260 -150 360
endloop
endfacet
facet normal 1 0 0
outer loop
vertex 260 -150 0
vertex 260 -156 360
vertex 260 -156 0
endloop
endfacet
facet normal -1 0 0
outer loop
vertex -260 -150 260
vertex -260 -156 360
vertex -260 -150 360
endloop
endfacet
facet normal -1 0 0
outer loop
vertex -260 -150 0
vertex -260 -156 360
vertex -260 -150 260
endloop
endfacet
facet normal -1 0 0
outer loop
vertex -260 -156 360
vertex -260 -150 0
vertex -260 -156 0
endloop
endfacet
facet normal 1 0 0
outer loop
vertex -254 150 260
vertex -254 144 0
vertex -254 150 0
endloop
endfacet
facet normal 1 0 0
outer loop
vertex -254 144 260
vertex -254 144 0
vertex -254 150 260
endloop
endfacet
facet normal 1 0 0
outer loop
vertex -254 -150 260
vertex -254 144 0
vertex -254 144 260
endloop
endfacet
facet normal 1 0 0
outer loop
vertex -254 -150 96
vertex -254 144 0
vertex -254 -150 260
endloop
endfacet
facet normal 1 0 0
outer loop
vertex -254 -150 90
vertex -254 144 0
vertex -254 -150 96
endloop
endfacet
facet normal 1 0 0
outer loop
vertex -254 -150 6
vertex -254 144 0
vertex -254 -150 90
endloop
endfacet
facet normal 1 0 0
outer loop
vertex -254 144 0
vertex -254 -150 6
vertex -254 -150 0
endloop
endfacet
facet normal -1 0 0
outer loop
vertex -260 150 0
vertex -260 144 260
vertex -260 150 260
endloop
endfacet
facet normal -1 0 0
outer loop
vertex -260 150 0
vertex -260 -150 260
vertex -260 144 260
endloop
endfacet
facet normal -1 0 0
outer loop
vertex -260 -150 260
vertex -260 150 0
vertex -260 -150 0
endloop
endfacet
facet normal 0 0 -1
outer loop
vertex -260 -150 0
vertex -254 144 0
vertex -254 -150 0
endloop
endfacet
facet normal 0 0 -1
outer loop
vertex -260 -150 0
vertex -254 150 0
vertex -254 144 0
endloop
endfacet
facet normal 0 0 -1
outer loop
vertex -254 150 0
vertex -260 -150 0
vertex -260 150 0
endloop
endfacet
facet normal 0 -1 0
outer loop
vertex -260 -150 260
vertex -254 -150 96
vertex -254 -150 260
endloop
endfacet
facet normal 0 -1 0
outer loop
vertex -260 -150 260
vertex -254 -150 90
vertex -254 -150 96
endloop
endfacet
facet normal 0 -1 0
outer loop
vertex -260 -150 260
vertex -254 -150 6
vertex -254 -150 90
endloop
endfacet
facet normal 0 -1 0
outer loop
vertex -260 -150 260
vertex -254 -150 0
vertex -254 -150 6
endloop
endfacet
facet normal 0 -1 0
outer loop
vertex -254 -150 0
vertex -260 -150 260
vertex -260 -150 0
endloop
endfacet
facet normal 0 0 1
outer loop
vertex -260 150 260
vertex -254 144 260
vertex -254 150 260
endloop
endfacet
facet normal 0 0 1
outer loop
vertex -260 144 260
vertex -254 144 260
vertex -260 150 260
endloop
endfacet
facet normal 0 0 1
outer loop
vertex -260 -150 260
vertex -254 144 260
vertex -260 144 260
endloop
endfacet
facet normal 0 0 1
outer loop
vertex -254 144 260
vertex -260 -150 260
vertex -254 -150 260
endloop
endfacet
facet normal 0 1 0
outer loop
vertex -260 150 0
vertex -254 150 260
vertex -254 150 0
endloop
endfacet
facet normal 0 1 0
outer loop
vertex -254 150 260
vertex -260 150 0
vertex -260 150 260
endloop
endfacet
facet normal 1 0 0
outer loop
vertex 266 -150 0
vertex 266 150 260
vertex 266 -150 260
endloop
endfacet
facet normal 1 0 0
outer loop
vertex 266 150 260
vertex 266 -150 0
vertex 266 150 0
endloop
endfacet
facet normal -1 0 0
outer loop
vertex 260 150 260
vertex 260 -150 96
vertex 260 -150 260
endloop
endfacet
facet normal -1 0 0
outer loop
vertex 260 150 260
vertex 260 -150 90
vertex 260 -150 96
endloop
endfacet
facet normal -1 0 0
outer loop
vertex 260 150 260
vertex 260 -150 6
vertex 260 -150 90
endloop
endfacet
facet normal -1 0 0
outer loop
vertex 260 150 260
vertex 260 -150 0
vertex 260 -150 6
endloop
endfacet
facet normal -1 0 0
outer loop
vertex 260 150 260
vertex 260 144 0
vertex 260 -150 0
endloop
endfacet
facet normal -1 0 0
outer loop
vertex 260 144 0
vertex 260 150 260
vertex 260 150 0
endloop
endfacet
facet normal 0 0 -1
outer loop
vertex 260 -150 0
vertex 266 150 0
vertex 266 -150 0
endloop
endfacet
facet normal 0 0 -1
outer loop
vertex 260 144 0
vertex 266 150 0
vertex 260 -150 0
endloop
endfacet
facet normal 0 0 -1
outer loop
vertex 266 150 0
vertex 260 144 0
vertex 260 150 0
endloop
endfacet
facet normal 0 -1 0
outer loop
vertex 260 -150 96
vertex 266 -150 260
vertex 260 -150 260
endloop
endfacet
facet normal 0 -1 0
outer loop
vertex 260 -150 90
vertex 266 -150 260
vertex 260 -150 96
endloop
endfacet
facet normal 0 -1 0
outer loop
vertex 260 -150 6
vertex 266 -150 260
vertex 260 -150 90
endloop
endfacet
facet normal 0 -1 0
outer loop
vertex 260 -150 6
vertex 266 -150 0
vertex 266 -150 260
endloop
endfacet
facet normal 0 -1 0
outer loop
vertex 266 -150 0
vertex 260 -150 6
vertex 260 -150 0
endloop
endfacet
facet normal 0 0 1
outer loop
vertex 260 150 260
vertex 266 -150 260
vertex 266 150 260
endloop
endfacet
facet normal 0 0 1
outer loop
vertex 266 -150 260
vertex 260 150 260
vertex 260 -150 260
endloop
endfacet
facet normal 0 1 0
outer loop
vertex 260 150 0
vertex 266 150 260
vertex 266 150 0
endloop
endfacet
facet normal 0 1 0
outer loop
vertex 266 150 260
vertex 260 150 0
vertex 260 150 260
endloop
endfacet
endsolid JSxCAD
