<?xml version="1.0" encoding="UTF-8"?>
<!-- Generated by jsxcad -->
<!DOCTYPE svg PUBLIC "-//W3C//DTD SVG 1.1 Tiny//EN" "http://www.w3.org/Graphics/SVG/1.1/DTD/svg11-tiny.dtd">
<svg viewBox="-250 -250 500 500" width="500" height="500" xmlns="http://www.w3.org/2000/svg"><path d="M-72.51654019936372,125.79946946829284L72.51478958906915,-125.58817008859587L-72.51478958906924,-125.58817008859583zM72.51478958906915,-125.58817008859587L-72.51654019936372,125.79946946829284L72.5165401993638,125.79946946829278zM-75.67863847092272,131.28043983306662L75.67673186257551,-131.06887005674375L-75.6767318625756,-131.0688700567437zM75.67673186257551,-131.06887005674375L-75.67863847092272,131.28043983306662L75.6786384709228,131.28043983306657z" style="fill:rgb(127,127,254)"/><path d="M75.823789220685,-115.65351962811522L-78.09847685213226,-119.12620942948797L-75.82378922068509,-115.65351962811516z" style="fill:rgb(127,0,127)"/><path d="M-78.10028875808504,122.4612521603712L75.82549711580904,118.8974119029861L-75.82549711580897,118.89741190298615z" style="fill:rgb(127,254,127)"/><path d="M-86.77582554884454,-150.30729920913532L-72.31510294076885,125.45031155164929L-72.31336204257931,-125.2390290062676z" style="fill:rgb(255,127,127)"/><path d="M72.31510294076892,125.45031155164924L86.77582554884444,-150.30729920913538L72.31336204257923,-125.23902900626766z" style="fill:rgb(0,127,127)"/><path d="M75.82549711580904,118.8974119029861L-78.10028875808504,122.4612521603712L78.10028875808513,122.46125216037116z" style="fill:rgb(127,254,127)"/><path d="M77.23528799271898,-119.18585373967763L75.823789220685,-115.65351962811522L78.09847685213218,-119.12620942948803zM-78.09847685213226,-119.12620942948797L75.823789220685,-115.65351962811522L-77.23528799271907,-119.18585373967757zM-77.23528799271907,-119.18585373967757L75.823789220685,-115.65351962811522L77.23528799271898,-119.18585373967763z" style="fill:rgb(127,0,127)"/><path d="M-78.09847685213226,-119.12620942948797L-77.2352648108141,-122.31131881981464L-78.09845342286451,-122.25011181333994z" style="fill:rgb(63,127,237)"/><path d="M78.09845342286442,-122.25011181334L77.23528799271898,-119.18585373967763L78.09847685213218,-119.12620942948803z" style="fill:rgb(191,127,237)"/><path d="M78.10028875808513,122.46125216037116L-78.10028875808504,122.4612521603712L-77.2370807688536,122.5224620443624z" style="fill:rgb(127,254,127)"/><path d="M-78.10031218845401,125.58530137110766L-77.2370807688536,122.5224620443624L-78.10028875808504,122.4612521603712z" style="fill:rgb(63,127,237)"/><path d="M78.10028875808513,122.46125216037116L77.23710395184877,125.64807409832102L78.1003121884541,125.5853013711076zM77.23528799271898,-119.18585373967763L78.09845342286442,-122.25011181334L77.23526481081403,-122.3113188198147z" style="fill:rgb(191,127,237)"/><path d="M-77.2352648108141,-122.31131881981464L-78.09847685213226,-119.12620942948797L-77.23528799271907,-119.18585373967757z" style="fill:rgb(63,127,237)"/><path d="M78.10028875808513,122.46125216037116L-77.2370807688536,122.5224620443624L77.23708076885369,122.52246204436234z" style="fill:rgb(127,254,127)"/><path d="M77.23710395184877,125.64807409832102L78.10028875808513,122.46125216037116L77.23708076885369,122.52246204436234z" style="fill:rgb(191,127,237)"/><path d="M-77.2370807688536,122.5224620443624L-78.10031218845401,125.58530137110766L-77.23710395184868,125.64807409832108z" style="fill:rgb(63,127,237)"/><path d="M77.23528799271898,-119.18585373967763L-77.31263842069133,-119.30532155973505L-77.23528799271907,-119.18585373967757z" style="fill:rgb(127,0,127)"/><path d="M-77.31443478956326,122.64506572001918L77.23708076885369,122.52246204436234L-77.2370807688536,122.5224620443624z" style="fill:rgb(127,254,127)"/><path d="M-77.31263842069133,-119.30532155973505L77.23528799271898,-119.18585373967763L77.31263842069124,-119.30532155973509z" style="fill:rgb(127,0,127)"/><path d="M77.23708076885369,122.52246204436234L-77.31443478956326,122.64506572001918L77.31443478956335,122.64506572001912zM-78.25680420555265,122.70645969596316L77.31443478956335,122.64506572001912L-77.31443478956326,122.64506572001918zM77.31443478956335,122.64506572001912L-78.25680420555265,122.70645969596316L78.25680420555274,122.7064596959631z" style="fill:rgb(127,254,127)"/><path d="M-28.197198415676144,-127.7572912856175L-77.31263842069133,-119.30532155973505L77.31263842069124,-119.30532155973509zM83.75202389119818,-127.75729128561753L77.31263842069124,-119.30532155973509L78.25498503017388,-119.3651452491597zM-77.31263842069133,-119.30532155973505L-83.75202389119826,-127.75729128561747L-78.25498503017397,-119.36514524915964z" style="fill:rgb(127,0,127)"/><path d="M78.25680420555274,122.7064596959631L-78.25680420555265,122.70645969596316L-83.75410762326254,131.31890176010418z" style="fill:rgb(127,254,127)"/><path d="M27.637484178456,-127.75729128561753L77.31263842069124,-119.30532155973509L83.75202389119818,-127.75729128561753zM-28.197198415676144,-127.7572912856175L77.31263842069124,-119.30532155973509L27.637484178456,-127.75729128561753zM-83.75202389119826,-127.75729128561747L-77.31263842069133,-119.30532155973505L-28.197198415676144,-127.7572912856175z" style="fill:rgb(127,0,127)"/><path d="M78.25680420555274,122.7064596959631L-83.75410762326254,131.31890176010418L83.75410762326263,131.31890176010413z" style="fill:rgb(127,254,127)"/><path d="M-72.31510294076885,125.45031155164929L-86.77582554884454,-150.30729920913532L-86.77833244223766,150.51990947954323z" style="fill:rgb(255,127,127)"/><path d="M86.77582554884444,-150.30729920913538L72.31510294076892,125.45031155164924L86.77833244223774,150.51990947954317z" style="fill:rgb(0,127,127)"/><path d="M-28.197198415676144,-127.7572912856175L27.63747528711235,-131.10733004554194L-28.197189344265034,-131.10733004554191zM27.63747528711235,-131.10733004554194L-28.197198415676144,-127.7572912856175L27.637484178456,-127.75729128561753z" style="fill:rgb(127,127,254)"/><path d="M27.637484178456,-127.75729128561753L28.756685995427468,-131.11204296050397L27.63747528711235,-131.10733004554194z" style="fill:rgb(123,127,254)"/><path d="M83.75202389119818,-127.75729128561753L28.756695247168395,-127.76188387379084L27.637484178456,-127.75729128561753z" style="fill:rgb(127,0,127)"/><path d="M28.756685995427468,-131.11204296050397L27.637484178456,-127.75729128561753L28.756695247168395,-127.76188387379084z" style="fill:rgb(123,127,254)"/><path d="M28.756695247168395,-127.76188387379084L83.75202389119818,-127.75729128561753L83.75503213671152,-127.76188387379086z" style="fill:rgb(127,0,127)"/><path d="M-28.19790902768318,134.66910937420667L27.638171793026878,131.31890176010415L-28.197899955814847,131.31890176010418zM27.638171793026878,131.31890176010415L-28.19790902768318,134.66910937420667L27.638180684818686,134.66910937420664z" style="fill:rgb(127,127,254)"/><path d="M-28.197189344265034,-131.10733004554191L-29.313536906335422,-127.77104492791311L-28.197198415676144,-127.7572912856175z" style="fill:rgb(140,127,254)"/><path d="M-28.197198415676144,-127.7572912856175L-83.76103282715474,-127.77104492791311L-83.75202389119826,-127.75729128561747z" style="fill:rgb(127,0,127)"/><path d="M28.757410733165138,131.32361491261852L83.75410762326263,131.31890176010413L27.638171793026878,131.31890176010415z" style="fill:rgb(127,254,127)"/><path d="M27.638180684818686,134.66910937420664L28.757410733165138,131.32361491261852L27.638171793026878,131.31890176010415z" style="fill:rgb(123,127,254)"/><path d="M83.75410762326263,131.31890176010413L28.757410733165138,131.32361491261852L83.75711601846952,131.3236149126185z" style="fill:rgb(127,254,127)"/><path d="M28.757410733165138,131.32361491261852L27.638180684818686,134.66910937420664L28.757419985372405,134.67394286564002z" style="fill:rgb(123,127,254)"/><path d="M-83.76311700752942,131.3330164621929L-28.197899955814847,131.31890176010418L-83.75410762326254,131.31890176010418z" style="fill:rgb(127,254,127)"/><path d="M-28.197899955814847,131.31890176010418L-29.314275731225727,134.68358446098222L-28.19790902768318,134.66910937420667zM-29.313536906335422,-127.77104492791311L-28.197189344265034,-131.10733004554191L-29.31352747476906,-131.1214440361958z" style="fill:rgb(140,127,254)"/><path d="M-83.76103282715474,-127.77104492791311L-28.197198415676144,-127.7572912856175L-29.313536906335422,-127.77104492791311z" style="fill:rgb(127,0,127)"/><path d="M28.756695247168395,-127.76188387379084L29.865282204353356,-131.1354966247775L28.756685995427468,-131.11204296050397z" style="fill:rgb(106,127,253)"/><path d="M83.75503213671152,-127.76188387379086L29.865291814474663,-127.78473873581147L28.756695247168395,-127.76188387379084z" style="fill:rgb(127,0,127)"/><path d="M-28.197899955814847,131.31890176010418L-83.76311700752942,131.3330164621929L-29.31426629918394,131.33301646219286z" style="fill:rgb(127,254,127)"/><path d="M-29.314275731225727,134.68358446098222L-28.197899955814847,131.31890176010418L-29.31426629918394,131.33301646219286z" style="fill:rgb(140,127,254)"/><path d="M28.757410733165138,131.32361491261852L83.77208719705749,131.34706975919025L83.75711601846952,131.3236149126185z" style="fill:rgb(127,254,127)"/><path d="M28.757419985372405,134.67394286564002L29.86603501592253,131.34706975919028L28.757410733165138,131.32361491261852zM29.865282204353356,-131.1354966247775L28.756695247168395,-127.76188387379084L29.865291814474663,-127.78473873581147z" style="fill:rgb(106,127,253)"/><path d="M29.865291814474663,-127.78473873581147L83.75503213671152,-127.76188387379086L83.77000257027464,-127.7847387358115z" style="fill:rgb(127,0,127)"/><path d="M83.77208719705749,131.34706975919025L28.757410733165138,131.32361491261852L29.86603501592253,131.34706975919028z" style="fill:rgb(127,254,127)"/><path d="M29.86603501592253,131.34706975919028L28.757419985372405,134.67394286564002L29.866044626528332,134.69799657483742z" style="fill:rgb(106,127,253)"/><path d="M-29.31352747476906,-131.1214440361958L-30.409553907708315,-127.8029053983504L-29.313536906335422,-127.77104492791311z" style="fill:rgb(157,127,251)"/><path d="M-29.313536906335422,-127.77104492791311L-83.78190213083028,-127.8029053983504L-83.76103282715474,-127.77104492791311z" style="fill:rgb(127,0,127)"/><path d="M-83.7839873499064,131.3657133320803L-29.31426629918394,131.33301646219286L-83.76311700752942,131.3330164621929z" style="fill:rgb(127,254,127)"/><path d="M-29.31426629918394,131.33301646219286L-30.41032054782223,134.71711616614968L-29.314275731225727,134.68358446098222zM-30.409553907708315,-127.8029053983504L-29.31352747476906,-131.1214440361958L-30.40954412106312,-131.15413925774246z" style="fill:rgb(157,127,251)"/><path d="M-83.78190213083028,-127.8029053983504L-29.313536906335422,-127.77104492791311L-30.409553907708315,-127.8029053983504z" style="fill:rgb(127,0,127)"/><path d="M-29.31426629918394,131.33301646219286L-83.7839873499064,131.3657133320803L-30.410310760683576,131.36571333208028z" style="fill:rgb(127,254,127)"/><path d="M-30.41032054782223,134.71711616614968L-29.31426629918394,131.33301646219286L-30.410310760683576,131.36571333208028z" style="fill:rgb(157,127,251)"/><path d="M29.865291814474663,-127.78473873581147L30.943935492040993,-131.17729417191654L29.865282204353356,-131.1354966247775z" style="fill:rgb(89,127,249)"/><path d="M83.77000257027464,-127.7847387358115L30.943945452425112,-127.825469137751L29.865291814474663,-127.78473873581147z" style="fill:rgb(127,0,127)"/><path d="M30.94471574155279,131.38886941386568L83.77208719705749,131.34706975919025L29.86603501592253,131.34706975919028z" style="fill:rgb(127,254,127)"/><path d="M29.866044626528332,134.69799657483742L30.94471574155279,131.38886941386568L29.86603501592253,131.34706975919028z" style="fill:rgb(89,127,249)"/><path d="M-30.409553907708315,-127.8029053983504L-83.79657897946663,-127.82531205404726L-83.78190213083028,-127.8029053983504zM83.79446557050747,-127.82546913775103L83.77000257027464,-127.7847387358115L83.79657897946653,-127.82531205404732z" style="fill:rgb(127,0,127)"/><path d="M30.943935492040993,-131.17729417191654L29.865291814474663,-127.78473873581147L30.943945452425112,-127.825469137751z" style="fill:rgb(89,127,249)"/><path d="M30.943945452425112,-127.825469137751L83.77000257027464,-127.7847387358115L83.79446557050747,-127.82546913775103z" style="fill:rgb(127,0,127)"/><path d="M-83.79866492918997,131.38870820640622L-30.410310760683576,131.36571333208028L-83.7839873499064,131.3657133320803zM83.77208719705749,131.34706975919025L30.94471574155279,131.38886941386568L83.79866492919007,131.38870820640616z" style="fill:rgb(127,254,127)"/><path d="M30.94471574155279,131.38886941386568L29.866044626528332,134.69799657483742L30.944725702439225,134.74086348233126z" style="fill:rgb(89,127,249)"/><path d="M-30.40954412106312,-131.15413925774246L-31.466127699020547,-127.85233402999027L-30.409553907708315,-127.8029053983504zM-30.410310760683576,131.36571333208028L-31.46692128245305,134.76913756780453L-30.41032054782223,134.71711616614968z" style="fill:rgb(173,127,246)"/><path d="M-83.79657897946663,-127.82531205404726L-30.409553907708315,-127.8029053983504L-83.43331892001547,-127.85233402999025z" style="fill:rgb(127,0,127)"/><path d="M83.79866492919007,131.38870820640616L30.94471574155279,131.38886941386568L83.79655147018319,131.38886941386565zM-30.410310760683576,131.36571333208028L-83.79866492918997,131.38870820640622L-31.466911151348484,131.41643956244738z" style="fill:rgb(127,254,127)"/><path d="M-31.466127699020547,-127.85233402999027L-30.40954412106312,-131.15413925774246L-31.466117568426974,-131.20486293004544z" style="fill:rgb(173,127,246)"/><path d="M-83.43331892001547,-127.85233402999025L-30.409553907708315,-127.8029053983504L-31.466127699020547,-127.85233402999027z" style="fill:rgb(127,0,127)"/><path d="M-31.46692128245305,134.76913756780453L-30.410310760683576,131.36571333208028L-31.466911151348484,131.41643956244738z" style="fill:rgb(173,127,246)"/><path d="M30.943945452425112,-127.825469137751L31.973800136681426,-131.2367263152375L30.943935492040993,-131.17729417191654z" style="fill:rgb(73,127,243)"/><path d="M83.79446557050747,-127.82546913775103L31.973810433222596,-127.88338390193896L30.943945452425112,-127.825469137751z" style="fill:rgb(127,0,127)"/><path d="M-31.466911151348484,131.41643956244738L-83.79866492918997,131.38870820640622L-83.43539626580662,131.41643956244738zM31.974606719159866,131.44830455505885L83.79655147018319,131.38886941386565L30.94471574155279,131.38886941386568z" style="fill:rgb(127,254,127)"/><path d="M30.944725702439225,134.74086348233126L31.974606719159866,131.44830455505885L30.94471574155279,131.38886941386568z" style="fill:rgb(73,127,243)"/><path d="M-83.79657897946663,-127.82531205404726L-82.8734094795586,-131.2475997517047L-83.79655200665894,-131.17713297258635z" style="fill:rgb(63,127,237)"/><path d="M83.79655200665887,-131.1771329725864L82.87343616953945,-127.8939797255764L83.79657897946653,-127.82531205404732z" style="fill:rgb(191,127,237)"/><path d="M-83.7986919033579,134.74069815883024L-82.87550024680411,131.45917854015016L-83.79866492918997,131.38870820640622z" style="fill:rgb(63,127,237)"/><path d="M83.79866492919007,131.38870820640616L82.87552693813187,134.81296778167643L83.79869190335799,134.74069815883018z" style="fill:rgb(191,127,237)"/><path d="M31.973800136681426,-131.2367263152375L30.943945452425112,-127.825469137751L31.973810433222596,-127.88338390193896z" style="fill:rgb(73,127,243)"/><path d="M31.973810433222596,-127.88338390193896L83.79446557050747,-127.82546913775103L83.01589428865037,-127.88338390193896zM-31.466127699020547,-127.85233402999027L-82.87343616953953,-127.89397972557632L-83.43331892001547,-127.85233402999025z" style="fill:rgb(127,0,127)"/><path d="M83.79655147018319,131.38886941386565L31.974606719159866,131.44830455505885L83.01796174286659,131.44830455505883z" style="fill:rgb(127,254,127)"/><path d="M31.974606719159866,131.44830455505885L30.944725702439225,134.74086348233126L31.974617016220535,134.80181615574043z" style="fill:rgb(73,127,243)"/><path d="M-83.43539626580662,131.41643956244738L-32.095623855703664,131.45917854015016L-31.466911151348484,131.41643956244738z" style="fill:rgb(127,254,127)"/><path d="M82.87343616953945,-127.8939797255764L83.79655200665887,-131.1771329725864L82.87340947955852,-131.24759975170477z" style="fill:rgb(191,127,237)"/><path d="M-82.8734094795586,-131.2475997517047L-83.79657897946663,-127.82531205404726L-82.87343616953953,-127.89397972557632z" style="fill:rgb(63,127,237)"/><path d="M82.87552693813187,134.81296778167643L83.79866492919007,131.38870820640616L82.87550024680421,131.4591785401501z" style="fill:rgb(191,127,237)"/><path d="M-82.87550024680411,131.45917854015016L-83.7986919033579,134.74069815883024L-82.87552693813177,134.8129677816765z" style="fill:rgb(63,127,237)"/><path d="M-31.466117568426974,-131.20486293004544L-32.46476696196605,-127.91848640450232L-31.466127699020547,-127.85233402999027zM-31.466911151348484,131.41643956244738L-32.46558615463216,134.8387599548532L-31.46692128245305,134.76913756780453z" style="fill:rgb(188,127,239)"/><path d="M-82.87343616953953,-127.89397972557632L-31.466127699020547,-127.85233402999027L-32.09482448982,-127.89397972557634z" style="fill:rgb(127,0,127)"/><path d="M-32.095623855703664,131.45917854015016L-83.43539626580662,131.41643956244738L-82.87550024680411,131.45917854015016z" style="fill:rgb(127,254,127)"/><path d="M83.01589428865037,-127.88338390193896L32.11151322763646,-127.89397972557637L31.973810433222596,-127.88338390193896z" style="fill:rgb(127,0,127)"/><path d="M32.11231300917634,131.4591785401501L83.01796174286659,131.44830455505883L31.974606719159866,131.44830455505885z" style="fill:rgb(127,254,127)"/><path d="M32.11151322763646,-127.89397972557637L83.01589428865037,-127.88338390193896L82.87343616953945,-127.8939797255764z" style="fill:rgb(127,0,127)"/><path d="M83.01796174286659,131.44830455505883L32.11231300917634,131.4591785401501L82.87550024680421,131.4591785401501z" style="fill:rgb(127,254,127)"/><path d="M-32.46476696196605,-127.91848640450232L-31.466117568426974,-131.20486293004544L-32.46475650445458,-131.27274851082157zM-32.46558615463216,134.8387599548532L-31.466911151348484,131.41643956244738L-32.46557569659294,131.48432856833264z" style="fill:rgb(188,127,239)"/><path d="M-32.09482448982,-127.89397972557634L-82.88930322145521,-127.91848640450232L-82.87343616953953,-127.89397972557632z" style="fill:rgb(127,0,127)"/><path d="M-82.89136808918694,131.48432856833267L-32.095623855703664,131.45917854015016L-82.87550024680411,131.45917854015016z" style="fill:rgb(127,254,127)"/><path d="M31.973810433222596,-127.88338390193896L32.93682216055747,-131.31277481641922L31.973800136681426,-131.2367263152375z" style="fill:rgb(58,127,234)"/><path d="M-82.88930322145521,-127.91848640450232L-32.09482448982,-127.89397972557634L-32.46476696196605,-127.91848640450232z" style="fill:rgb(127,0,127)"/><path d="M31.974617016220535,134.80181615574043L32.93765351767565,131.52435689425303L31.974606719159866,131.44830455505885z" style="fill:rgb(58,127,234)"/><path d="M-32.095623855703664,131.45917854015016L-82.89136808918694,131.48432856833267L-32.46557569659294,131.48432856833264z" style="fill:rgb(127,254,127)"/><path d="M82.87343616953945,-127.8939797255764L32.9368327733626,-127.95749078700386L32.11151322763646,-127.89397972557637z" style="fill:rgb(127,0,127)"/><path d="M32.93765351767565,131.52435689425303L82.87550024680421,131.4591785401501L32.11231300917634,131.4591785401501z" style="fill:rgb(127,254,127)"/><path d="M32.93682216055747,-131.31277481641922L31.973810433222596,-127.88338390193896L32.9368327733626,-127.95749078700386zM32.93765351767565,131.52435689425303L31.974617016220535,134.80181615574043L32.93766413101655,134.87981030703517z" style="fill:rgb(58,127,234)"/><path d="M32.9368327733626,-127.95749078700386L82.87343616953945,-127.8939797255764L82.91455693143186,-127.95749078700389z" style="fill:rgb(127,0,127)"/><path d="M82.87550024680421,131.4591785401501L32.93765351767565,131.52435689425303L82.91662305756897,131.524356894253z" style="fill:rgb(127,254,127)"/><path d="M-32.46475650445458,-131.27274851082157L-33.38792297672855,-128.00023195106644L-32.46476696196605,-127.91848640450232z" style="fill:rgb(203,127,230)"/><path d="M-32.46476696196605,-127.91848640450232L-82.94223005152979,-128.00023195106644L-82.88930322145521,-127.91848640450232z" style="fill:rgb(127,0,127)"/><path d="M-82.94429755707253,131.56822010045724L-32.46557569659294,131.48432856833264L-82.89136808918694,131.48432856833267z" style="fill:rgb(127,254,127)"/><path d="M-32.46557569659294,131.48432856833264L-33.388766001613945,134.92479345388134L-32.46558615463216,134.8387599548532zM-33.38792297672855,-128.00023195106644L-32.46475650445458,-131.27274851082157L-33.38791221498393,-131.35663580803853z" style="fill:rgb(203,127,230)"/><path d="M-82.94223005152979,-128.00023195106644L-32.46476696196605,-127.91848640450232L-33.38792297672855,-128.00023195106644z" style="fill:rgb(127,0,127)"/><path d="M-32.46557569659294,131.48432856833264L-82.94429755707253,131.56822010045724L-33.38875523932587,131.5682201004572z" style="fill:rgb(127,254,127)"/><path d="M-33.388766001613945,134.92479345388134L-32.46557569659294,131.48432856833264L-33.38875523932587,131.5682201004572z" style="fill:rgb(203,127,230)"/><path d="M82.91455693143186,-127.95749078700389L33.668041848854415,-128.03153645550145L32.9368327733626,-127.95749078700386z" style="fill:rgb(127,0,127)"/><path d="M33.66888129907957,131.60034641201298L82.91662305756897,131.524356894253L32.93765351767565,131.52435689425303z" style="fill:rgb(127,254,127)"/><path d="M32.9368327733626,-127.95749078700386L33.81602990943553,-131.40414071959333L32.93682216055747,-131.31277481641922zM32.93766413101655,134.87981030703517L33.81688405203819,131.61572741141555L32.93765351767565,131.52435689425303z" style="fill:rgb(45,127,224)"/><path d="M33.668041848854415,-128.03153645550145L82.91455693143186,-127.95749078700389L82.96249841178219,-128.03153645550148z" style="fill:rgb(127,0,127)"/><path d="M82.91662305756897,131.524356894253L33.66888129907957,131.60034641201298L82.96456692792223,131.60034641201298z" style="fill:rgb(127,254,127)"/><path d="M-33.38792297672855,-128.00023195106644L-82.96249841178228,-128.03153645550142L-82.94223005152979,-128.00023195106644z" style="fill:rgb(127,0,127)"/><path d="M-82.94429755707253,131.56822010045724L-33.660042145235984,131.60034641201304L-33.38875523932587,131.5682201004572z" style="fill:rgb(127,254,127)"/><path d="M33.81602990943553,-131.40414071959333L32.9368327733626,-127.95749078700386L33.816040813111755,-128.04652400110993zM33.81688405203819,131.61572741141555L32.93766413101655,134.87981030703517L33.81689495626525,134.97351374887387z" style="fill:rgb(45,127,224)"/><path d="M-82.96249841178228,-128.03153645550142L-33.38792297672855,-128.00023195106644L-33.659202915393415,-128.03153645550142z" style="fill:rgb(127,0,127)"/><path d="M-33.660042145235984,131.60034641201304L-82.94429755707253,131.56822010045724L-82.96456692792214,131.60034641201304z" style="fill:rgb(127,254,127)"/><path d="M-33.38791221498393,-131.35663580803853L-34.21928158220693,-128.0961684806467L-33.38792297672855,-128.00023195106644zM-33.38875523932587,131.5682201004572L-34.22014624546738,135.02576232570837L-33.388766001613945,134.92479345388134z" style="fill:rgb(216,127,219)"/><path d="M82.96249841178219,-128.03153645550148L33.816040813111755,-128.04652400110993L33.668041848854415,-128.03153645550145z" style="fill:rgb(127,0,127)"/><path d="M33.81688405203819,131.61572741141555L82.96456692792223,131.60034641201298L33.66888129907957,131.60034641201298z" style="fill:rgb(127,254,127)"/><path d="M33.816040813111755,-128.04652400110993L82.96249841178219,-128.03153645550148L83.18316598213043,-128.04652400110993z" style="fill:rgb(127,0,127)"/><path d="M82.96456692792223,131.60034641201298L33.81688405203819,131.61572741141555L83.18524024280346,131.61572741141552z" style="fill:rgb(127,254,127)"/><path d="M-34.21928158220693,-128.0961684806467L-82.96249841178228,-128.03153645550142L-33.659202915393415,-128.03153645550142z" style="fill:rgb(127,0,127)"/><path d="M-82.96456692792214,131.60034641201304L-34.22013520693764,131.6666751609436L-33.660042145235984,131.60034641201304z" style="fill:rgb(127,254,127)"/><path d="M-34.21928158220693,-128.0961684806467L-33.38791221498393,-131.35663580803853L-34.219270544235016,-131.4550858949916zM-34.22014624546738,135.02576232570837L-33.38875523932587,131.5682201004572L-34.22013520693764,131.6666751609436z" style="fill:rgb(216,127,219)"/><path d="M-82.96249841178228,-128.03153645550142L-34.21928158220693,-128.0961684806467L-83.91409740840496,-128.0961684806467z" style="fill:rgb(127,0,127)"/><path d="M-34.22013520693764,131.6666751609436L-82.96456692792214,131.60034641201304L-83.91619070626203,131.6666751609436z" style="fill:rgb(127,254,127)"/><path d="M33.816040813111755,-128.04652400110993L34.595833561228034,-131.50925247006978L33.81602990943553,-131.40414071959333z" style="fill:rgb(32,127,213)"/><path d="M83.18316598213043,-128.04652400110993L34.59584472526102,-128.14895211339933L33.816040813111755,-128.04652400110993z" style="fill:rgb(127,0,127)"/><path d="M34.59670809896943,131.7208444740141L83.18524024280346,131.61572741141552L33.81688405203819,131.61572741141555z" style="fill:rgb(127,254,127)"/><path d="M33.81689495626525,134.97351374887387L34.59670809896943,131.7208444740141L33.81688405203819,131.61572741141555z" style="fill:rgb(32,127,213)"/><path d="M84.00857028365898,-128.14895211339936L83.18316598213043,-128.04652400110993L83.97678445753775,-128.10042575194495z" style="fill:rgb(127,0,127)"/><path d="M83.18524024280346,131.61572741141552L34.59670809896943,131.7208444740141L83.97887938873659,131.67104419444073z" style="fill:rgb(127,254,127)"/><path d="M34.595833561228034,-131.50925247006978L33.816040813111755,-128.04652400110993L34.59584472526102,-128.14895211339933z" style="fill:rgb(32,127,213)"/><path d="M34.59584472526102,-128.14895211339933L83.18316598213043,-128.04652400110993L84.00857028365898,-128.14895211339936z" style="fill:rgb(127,0,127)"/><path d="M34.59670809896943,131.7208444740141L33.81689495626525,134.97351374887387L34.59671926356684,135.08131472091694z" style="fill:rgb(32,127,213)"/><path d="M-34.219270544235016,-131.4550858949916L-34.94403962709389,-128.20464453001657L-34.21928158220693,-128.0961684806467z" style="fill:rgb(227,127,206)"/><path d="M-34.94403962709389,-128.20464453001657L-83.91409740840496,-128.0961684806467L-34.21928158220693,-128.0961684806467zM-83.91409740840496,-128.0961684806467L-84.04505003235262,-128.20464453001654L-83.97678445753783,-128.10042575194487z" style="fill:rgb(127,0,127)"/><path d="M-83.91619070626203,131.6666751609436L-34.94491206904499,131.77799893379176L-34.22013520693764,131.6666751609436z" style="fill:rgb(127,254,127)"/><path d="M-34.22013520693764,131.6666751609436L-34.94492335090725,135.1399284813358L-34.22014624546738,135.02576232570837z" style="fill:rgb(227,127,206)"/><path d="M83.97887938873659,131.67104419444073L34.59670809896943,131.7208444740141L84.0106668010713,131.7208444740141zM-34.94491206904499,131.77799893379176L-83.91619070626203,131.6666751609436L-83.97887938873649,131.67104419444078z" style="fill:rgb(127,254,127)"/><path d="M-34.94403962709389,-128.20464453001657L-34.219270544235016,-131.4550858949916L-34.944028345802245,-131.5664040397486z" style="fill:rgb(227,127,206)"/><path d="M-84.04505003235262,-128.20464453001654L-83.91409740840496,-128.0961684806467L-34.94403962709389,-128.20464453001657z" style="fill:rgb(127,0,127)"/><path d="M-34.94492335090725,135.1399284813358L-34.22013520693764,131.6666751609436L-34.94491206904499,131.77799893379176z" style="fill:rgb(227,127,206)"/><path d="M-34.94491206904499,131.77799893379176L-83.97887938873649,131.67104419444078L-84.04714837095963,131.77799893379176z" style="fill:rgb(127,254,127)"/><path d="M34.59584472526102,-128.14895211339933L35.262286753173974,-131.62629296615935L34.595833561228034,-131.50925247006978z" style="fill:rgb(22,127,199)"/><path d="M84.00857028365898,-128.14895211339936L35.262298142389724,-128.26300441514536L34.59584472526102,-128.14895211339933z" style="fill:rgb(127,0,127)"/><path d="M35.26317893069281,131.83789089007306L84.0106668010713,131.7208444740141L34.59670809896943,131.7208444740141z" style="fill:rgb(127,254,127)"/><path d="M34.59671926356684,135.08131472091694L35.26317893069281,131.83789089007306L34.59670809896943,131.7208444740141zM35.262286753173974,-131.62629296615935L34.59584472526102,-128.14895211339933L35.262298142389724,-128.26300441514536z" style="fill:rgb(22,127,199)"/><path d="M35.262298142389724,-128.26300441514536L84.00857028365898,-128.14895211339936L84.08327703115404,-128.2630044151454z" style="fill:rgb(127,0,127)"/><path d="M84.0106668010713,131.7208444740141L35.26317893069281,131.83789089007306L84.08537727903324,131.83789089007306z" style="fill:rgb(127,254,127)"/><path d="M35.26317893069281,131.83789089007306L34.59671926356684,135.08131472091694L35.263190320484895,135.20134963361596z" style="fill:rgb(22,127,199)"/><path d="M-34.944028345802245,-131.5664040397486L-35.549173393220514,-128.3237814660911L-34.94403962709389,-128.20464453001657z" style="fill:rgb(237,127,192)"/><path d="M-34.94403962709389,-128.20464453001657L-84.1230873263344,-128.32378146609108L-84.04505003235262,-128.20464453001654z" style="fill:rgb(127,0,127)"/><path d="M-84.12518956348717,131.90026346936293L-34.94491206904499,131.77799893379176L-84.04714837095963,131.77799893379176z" style="fill:rgb(127,254,127)"/><path d="M-34.94491206904499,131.77799893379176L-35.55007325546101,135.26531474562236L-34.94492335090725,135.1399284813358zM-35.549173393220514,-128.3237814660911L-34.944028345802245,-131.5664040397486L-35.549161905911944,-131.68866238862185z" style="fill:rgb(237,127,192)"/><path d="M-84.1230873263344,-128.32378146609108L-34.94403962709389,-128.20464453001657L-35.549173393220514,-128.3237814660911z" style="fill:rgb(127,0,127)"/><path d="M-34.94491206904499,131.77799893379176L-84.12518956348717,131.90026346936293L-35.55006176757086,131.90026346936293z" style="fill:rgb(127,254,127)"/><path d="M-35.55007325546101,135.26531474562236L-34.94491206904499,131.77799893379176L-35.55006176757086,131.90026346936293z" style="fill:rgb(237,127,192)"/><path d="M35.262298142389724,-128.26300441514536L35.80334287823748,-131.7532352397747L35.262286753173974,-131.62629296615935z" style="fill:rgb(13,127,185)"/><path d="M84.08327703115404,-128.2630044151454L35.80335445335029,-128.3867056893803L35.262298142389724,-128.26300441514536z" style="fill:rgb(127,0,127)"/><path d="M35.804249618078,131.96483959044392L84.08537727903324,131.83789089007306L35.26317893069281,131.83789089007306z" style="fill:rgb(127,254,127)"/><path d="M35.263190320484895,135.20134963361596L35.804249618078,131.96483959044392L35.26317893069281,131.83789089007306zM35.80334287823748,-131.7532352397747L35.262298142389724,-128.26300441514536L35.80335445335029,-128.3867056893803z" style="fill:rgb(13,127,185)"/><path d="M35.80335445335029,-128.3867056893803L84.08327703115404,-128.2630044151454L84.16430406627398,-128.38670568938034z" style="fill:rgb(127,0,127)"/><path d="M84.08537727903324,131.83789089007306L35.804249618078,131.96483959044392L84.16640836397119,131.9648395904439z" style="fill:rgb(127,254,127)"/><path d="M35.804249618078,131.96483959044392L35.263190320484895,135.20134963361596L35.804261193777116,135.3315396615422z" style="fill:rgb(13,127,185)"/><path d="M-35.549161905911944,-131.68866238862185L-36.023667378914396,-128.45150413349484L-35.549173393220514,-128.3237814660911z" style="fill:rgb(244,127,177)"/><path d="M-35.549173393220514,-128.3237814660911L-84.20674846177006,-128.4515041334948L-84.1230873263344,-128.32378146609108z" style="fill:rgb(127,0,127)"/><path d="M-84.2088548824403,132.03133913637822L-35.55006176757086,131.90026346936293L-84.12518956348717,131.90026346936293z" style="fill:rgb(127,254,127)"/><path d="M-35.55006176757086,131.90026346936293L-36.02458015899014,135.399737112332L-35.55007325546101,135.26531474562236zM-36.023667378914396,-128.45150413349484L-35.549161905911944,-131.68866238862185L-36.0236557267018,-131.81973141671062z" style="fill:rgb(244,127,177)"/><path d="M-84.20674846177006,-128.4515041334948L-35.549173393220514,-128.3237814660911L-36.023667378914396,-128.45150413349484z" style="fill:rgb(127,0,127)"/><path d="M-35.55006176757086,131.90026346936293L-84.2088548824403,132.03133913637822L-36.024568506187045,132.0313391363782z" style="fill:rgb(127,254,127)"/><path d="M-36.02458015899014,135.399737112332L-35.55006176757086,131.90026346936293L-36.024568506187045,132.0313391363782z" style="fill:rgb(244,127,177)"/><path d="M35.80335445335029,-128.3867056893803L36.20907755865978,-131.8878611629152L35.80334287823748,-131.7532352397747z" style="fill:rgb(7,127,169)"/><path d="M84.16430406627398,-128.38670568938034L36.20908927689747,-128.51789443977782L35.80335445335029,-128.3867056893803z" style="fill:rgb(127,0,127)"/><path d="M36.20999551025302,132.09947233610677L84.16640836397119,131.9648395904439L35.804249618078,131.96483959044392z" style="fill:rgb(127,254,127)"/><path d="M35.804261193777116,135.3315396615422L36.20999551025302,132.09947233610677L35.804249618078,131.96483959044392zM36.20907755865978,-131.8878611629152L35.80335445335029,-128.3867056893803L36.20908927689747,-128.51789443977782z" style="fill:rgb(7,127,169)"/><path d="M36.20908927689747,-128.51789443977782L84.16430406627398,-128.38670568938034L84.25023556173788,-128.51789443977785z" style="fill:rgb(127,0,127)"/><path d="M84.16640836397119,131.9648395904439L36.20999551025302,132.09947233610677L84.25234415864547,132.09947233610674z" style="fill:rgb(127,254,127)"/><path d="M36.20999551025302,132.09947233610677L35.804261193777116,135.3315396615422L36.21000722908487,135.46960992833237z" style="fill:rgb(7,127,169)"/><path d="M-36.0236557267018,-131.81973141671062L-36.35873518967938,-128.5855804832066L-36.023667378914396,-128.45150413349484z" style="fill:rgb(250,127,161)"/><path d="M-36.023667378914396,-128.45150413349484L-84.29457139782338,-128.58558048320657L-84.20674846177006,-128.4515041334948z" style="fill:rgb(127,0,127)"/><path d="M-84.29668221459815,132.16893529078015L-36.024568506187045,132.0313391363782L-84.2088548824403,132.03133913637822z" style="fill:rgb(127,254,127)"/><path d="M-36.024568506187045,132.0313391363782L-36.35965742067626,135.54084645137416L-36.02458015899014,135.399737112332zM-36.35873518967938,-128.5855804832066L-36.0236557267018,-131.81973141671062L-36.35872341682014,-131.95732059482646z" style="fill:rgb(250,127,161)"/><path d="M-84.29457139782338,-128.58558048320657L-36.023667378914396,-128.45150413349484L-36.35873518967938,-128.5855804832066z" style="fill:rgb(127,0,127)"/><path d="M-36.024568506187045,132.0313391363782L-84.29668221459815,132.16893529078015L-36.35964564721978,132.16893529078013z" style="fill:rgb(127,254,127)"/><path d="M-36.35965742067626,135.54084645137416L-36.024568506187045,132.0313391363782L-36.35964564721978,132.16893529078013z" style="fill:rgb(250,127,161)"/><path d="M36.20908927689747,-128.51789443977782L36.47188150991735,-132.02780680560093L36.20907755865978,-131.8878611629152z" style="fill:rgb(2,127,152)"/><path d="M84.25023556173788,-128.51789443977785L36.47189332572006,-128.65426709053932L36.20908927689747,-128.51789443977782z" style="fill:rgb(127,0,127)"/><path d="M36.47280710431923,132.23942507828627L84.25234415864547,132.09947233610674L36.20999551025302,132.09947233610677z" style="fill:rgb(127,254,127)"/><path d="M36.21000722908487,135.46960992833237L36.47280710431923,132.23942507828627L36.20999551025302,132.09947233610677zM36.47188150991735,-132.02780680560093L36.20908927689747,-128.51789443977782L36.47189332572006,-128.65426709053932z" style="fill:rgb(2,127,152)"/><path d="M36.47189332572006,-128.65426709053932L84.25023556173788,-128.51789443977785L84.33956262510881,-128.65426709053935z" style="fill:rgb(127,0,127)"/><path d="M84.25234415864547,132.09947233610674L36.47280710431923,132.23942507828627L84.34167569576019,132.23942507828627z" style="fill:rgb(127,254,127)"/><path d="M36.47280710431923,132.23942507828627L36.21000722908487,135.46960992833237L36.472818920721686,135.61313602496378z" style="fill:rgb(2,127,152)"/><path d="M-36.35872341682014,-131.95732059482646L-36.54799479255952,-128.7236472531387L-36.35873518967938,-128.5855804832066z" style="fill:rgb(253,127,144)"/><path d="M-36.35873518967938,-128.5855804832066L-84.38500814623502,-128.72364725313867L-84.29457139782338,-128.58558048320657z" style="fill:rgb(127,0,127)"/><path d="M-84.29668221459815,132.16893529078015L-36.54891097124937,132.31062663038034L-36.35964564721978,132.16893529078013z" style="fill:rgb(127,254,127)"/><path d="M-36.35964564721978,132.16893529078013L-36.54892281868842,135.6861555363524L-36.35965742067626,135.54084645137416zM-36.54799479255952,-128.7236472531387L-36.35872341682014,-131.95732059482646L-36.547982945722104,-132.09900474291z" style="fill:rgb(253,127,144)"/><path d="M-84.38500814623502,-128.72364725313867L-36.35873518967938,-128.5855804832066L-36.54799479255952,-128.7236472531387z" style="fill:rgb(127,0,127)"/><path d="M-36.54891097124937,132.31062663038034L-84.29668221459815,132.16893529078015L-84.38712349474181,132.31062663038037z" style="fill:rgb(127,254,127)"/><path d="M-36.54892281868842,135.6861555363524L-36.35964564721978,132.16893529078013L-36.54891097124937,132.31062663038034z" style="fill:rgb(253,127,144)"/><path d="M36.47189332572006,-128.65426709053932L36.58662800899546,-132.17060019964364L36.47188150991735,-132.02780680560093z" style="fill:rgb(0,127,136)"/><path d="M84.33956262510881,-128.65426709053935L36.58663987478198,-128.79341478600602L36.47189332572006,-128.65426709053932z" style="fill:rgb(127,0,127)"/><path d="M36.58755751891982,132.38222572404499L84.34167569576019,132.23942507828627L36.47280710431923,132.23942507828627z" style="fill:rgb(127,254,127)"/><path d="M36.472818920721686,135.61313602496378L36.58755751891982,132.38222572404499L36.47280710431923,132.23942507828627zM36.58662800899546,-132.17060019964364L36.47189332572006,-128.65426709053932L36.58663987478198,-128.79341478600602z" style="fill:rgb(0,127,136)"/><path d="M36.58663987478198,-128.79341478600602L84.33956262510881,-128.65426709053935L84.4307074033431,-128.79341478600605z" style="fill:rgb(127,0,127)"/><path d="M84.34167569576019,132.23942507828627L36.58755751891982,132.38222572404499L84.43282504366107,132.38222572404499z" style="fill:rgb(127,254,127)"/><path d="M36.58755751891982,132.38222572404499L36.472818920721686,135.61313602496378L36.58756938530928,135.75958273959913z" style="fill:rgb(0,127,136)"/><path d="M-36.547982945722104,-132.09900474291L-36.58760185675799,-128.86325792595298L-36.54799479255952,-128.7236472531387z" style="fill:rgb(255,127,127)"/><path d="M-36.54799479255952,-128.7236472531387L-84.4764561847391,-128.86325792595298L-84.38500814623502,-128.72364725313867z" style="fill:rgb(127,0,127)"/><path d="M-84.47857612059437,132.45390241159907L-36.54891097124937,132.31062663038034L-84.38712349474181,132.31062663038037z" style="fill:rgb(127,254,127)"/><path d="M-36.54891097124937,132.31062663038034L-36.58853189540631,135.83308951793327L-36.54892281868842,135.6861555363524zM-36.58760185675799,-128.86325792595298L-36.547982945722104,-132.09900474291L-36.58758998422983,-132.24227324435293z" style="fill:rgb(255,127,127)"/><path d="M-84.4764561847391,-128.86325792595298L-36.54799479255952,-128.7236472531387L-36.58760185675799,-128.86325792595298z" style="fill:rgb(127,0,127)"/><path d="M-36.54891097124937,132.31062663038034L-84.47857612059437,132.45390241159907L-36.58852002227456,132.45390241159905z" style="fill:rgb(127,254,127)"/><path d="M-36.58853189540631,135.83308951793327L-36.54891097124937,132.31062663038034L-36.58852002227456,132.45390241159905z" style="fill:rgb(255,127,127)"/><path d="M84.52204939289152,-128.9328635574139L36.58663987478198,-128.79341478600602L84.4307074033431,-128.79341478600605z" style="fill:rgb(127,0,127)"/><path d="M36.551725841751136,132.52533535744578L84.43282504366107,132.38222572404499L36.58755751891982,132.38222572404499z" style="fill:rgb(127,254,127)"/><path d="M36.58663987478198,-128.79341478600602L84.52204939289152,-128.9328635574139L36.55080810451148,-128.93286355741387z" style="fill:rgb(127,0,127)"/><path d="M84.43282504366107,132.38222572404499L36.551725841751136,132.52533535744578L84.52417161771548,132.52533535744575z" style="fill:rgb(127,254,127)"/><path d="M-36.58760185675799,-128.86325792595298L-84.56728384033997,-129.00192148086361L-84.4764561847391,-128.86325792595298z" style="fill:rgb(127,0,127)"/><path d="M-84.56940833734154,132.59620621854782L-36.58852002227456,132.45390241159905L-84.47857612059437,132.45390241159907z" style="fill:rgb(127,254,127)"/><path d="M-84.56728384033997,-129.00192148086361L-36.58760185675799,-128.86325792595298L-36.47636411068778,-129.00192148086364z" style="fill:rgb(127,0,127)"/><path d="M-36.58852002227456,132.45390241159905L-84.56940833734154,132.59620621854782L-36.47728046891354,132.59620621854782z" style="fill:rgb(127,254,127)"/><path d="M84.61195407966107,-129.07011804656835L36.55080810451148,-128.93286355741387L84.52204939289152,-128.9328635574139z" style="fill:rgb(127,0,127)"/><path d="M36.551725841751136,132.52533535744578L84.6140808216929,132.66619311104802L84.52417161771548,132.52533535744575z" style="fill:rgb(127,254,127)"/><path d="M36.55080810451148,-128.93286355741387L84.61195407966107,-129.07011804656835L36.364548760437906,-129.07011804656835z" style="fill:rgb(127,0,127)"/><path d="M84.6140808216929,132.66619311104802L36.551725841751136,132.52533535744578L36.36546279220992,132.66619311104802z" style="fill:rgb(127,254,127)"/><path d="M-36.47636411068778,-129.00192148086364L-84.65586081839827,-129.13714900137543L-84.56728384033997,-129.00192148086361z" style="fill:rgb(127,0,127)"/><path d="M-84.56940833734154,132.59620621854782L-36.21670851907193,132.73498379432132L-36.47728046891354,132.59620621854782z" style="fill:rgb(127,254,127)"/><path d="M-84.65586081839827,-129.13714900137543L-36.47636411068778,-129.00192148086364L-36.21579775381279,-129.13714900137543z" style="fill:rgb(127,0,127)"/><path d="M-36.21670851907193,132.73498379432132L-84.56940833734154,132.59620621854782L-84.65798976824344,132.73498379432135z" style="fill:rgb(127,254,127)"/><path d="M84.69880257625994,-129.20270675203886L36.364548760437906,-129.07011804656835L84.61195407966107,-129.07011804656835z" style="fill:rgb(127,0,127)"/><path d="M36.36546279220992,132.66619311104802L84.70093368650355,132.80226259993168L84.6140808216929,132.66619311104802z" style="fill:rgb(127,254,127)"/><path d="M36.364548760437906,-129.07011804656835L84.69880257625994,-129.20270675203886L36.03072922725378,-129.20270675203884z" style="fill:rgb(127,0,127)"/><path d="M84.70093368650355,132.80226259993168L36.36546279220992,132.66619311104802L36.031635797993985,132.8022625999317z" style="fill:rgb(127,254,127)"/><path d="M-36.21579775381279,-129.13714900137543L-84.74058553879593,-129.2664954084959L-84.65586081839827,-129.13714900137543z" style="fill:rgb(127,0,127)"/><path d="M-84.74271875219031,132.86772586983517L-36.21670851907193,132.73498379432132L-84.65798976824344,132.73498379432135z" style="fill:rgb(127,254,127)"/><path d="M-84.74058553879593,-129.2664954084959L-36.21579775381279,-129.13714900137543L-35.810119011391215,-129.26649540849593z" style="fill:rgb(127,0,127)"/><path d="M-36.21670851907193,132.73498379432132L-84.74271875219031,132.86772586983517L-35.81102047584346,132.86772586983514z" style="fill:rgb(127,254,127)"/><path d="M84.78102083860097,-129.3282266331738L36.03072922725378,-129.20270675203884L84.69880257625994,-129.20270675203886z" style="fill:rgb(127,0,127)"/><path d="M35.55580887184826,132.9310776967226L84.70093368650355,132.80226259993168L36.031635797993985,132.8022625999317z" style="fill:rgb(127,254,127)"/><path d="M36.03072922725378,-129.20270675203884L84.78102083860097,-129.3282266331738L35.554913404709765,-129.32822663317378z" style="fill:rgb(127,0,127)"/><path d="M84.70093368650355,132.80226259993168L35.55580887184826,132.9310776967226L84.78315608829938,132.93107769672258z" style="fill:rgb(127,254,127)"/><path d="M-35.810119011391215,-129.26649540849593L-84.81992042070097,-129.3876133288099L-84.74058553879593,-129.2664954084959z" style="fill:rgb(127,0,127)"/><path d="M-84.82205763028175,132.99202344613323L-35.81102047584346,132.86772586983514L-84.74271875219031,132.86772586983517z" style="fill:rgb(127,254,127)"/><path d="M-84.81992042070097,-129.3876133288099L-35.810119011391215,-129.26649540849593L-35.26621328926535,-129.3876133288099z" style="fill:rgb(127,0,127)"/><path d="M-35.81102047584346,132.86772586983514L-84.82205763028175,132.99202344613323L-35.2671018928922,132.9920234461332z" style="fill:rgb(127,254,127)"/><path d="M84.85710836683702,-129.44438692686163L35.554913404709765,-129.32822663317378L84.78102083860097,-129.3282266331738z" style="fill:rgb(127,0,127)"/><path d="M35.55580887184826,132.9310776967226L84.85924745090361,133.05028749873193L84.78315608829938,132.93107769672258z" style="fill:rgb(127,254,127)"/><path d="M35.554913404709765,-129.32822663317378L84.85710836683702,-129.44438692686163L34.945283974970614,-129.4443869268616z" style="fill:rgb(127,0,127)"/><path d="M84.85924745090361,133.05028749873193L35.55580887184826,132.9310776967226L34.94616487819247,133.05028749873196z" style="fill:rgb(127,254,127)"/><path d="M-35.26621328926535,-129.3876133288099L-84.8924139793027,-129.49828682882855L-84.81992042070097,-129.3876133288099z" style="fill:rgb(127,0,127)"/><path d="M-84.89455484373468,133.10560241444406L-35.2671018928922,132.9920234461332L-84.82205763028175,132.99202344613323z" style="fill:rgb(127,254,127)"/><path d="M-84.8924139793027,-129.49828682882855L-35.26621328926535,-129.3876133288099L-34.59353563779927,-129.49828682882858z" style="fill:rgb(127,0,127)"/><path d="M-35.2671018928922,132.9920234461332L-84.89455484373468,133.10560241444406L-34.59440803695188,133.10560241444404z" style="fill:rgb(127,254,127)"/><path d="M84.92567328578903,-129.54906270365177L34.945283974970614,-129.4443869268616L84.85710836683702,-129.44438692686163z" style="fill:rgb(127,0,127)"/><path d="M34.213389699093916,133.15771129017025L84.85924745090361,133.05028749873193L34.94616487819247,133.05028749873196z" style="fill:rgb(127,254,127)"/><path d="M34.945283974970614,-129.4443869268616L84.92567328578903,-129.54906270365177L34.21252657040691,-129.54906270365174z" style="fill:rgb(127,0,127)"/><path d="M84.85924745090361,133.05028749873193L34.213389699093916,133.15771129017025L84.92781582807459,133.15771129017025z" style="fill:rgb(127,254,127)"/><path d="M-34.59353563779927,-129.49828682882858L-84.95673337378062,-129.59648110488916L-84.8924139793027,-129.49828682882855z" style="fill:rgb(127,0,127)"/><path d="M-84.89455484373468,133.10560241444406L-33.804807554287656,133.20637455068598L-34.59440803695188,133.10560241444404z" style="fill:rgb(127,254,127)"/><path d="M-84.95673337378062,-129.59648110488916L-34.59353563779927,-129.49828682882858L-33.80395442132659,-129.59648110488916z" style="fill:rgb(127,0,127)"/><path d="M-33.804807554287656,133.20637455068598L-84.89455484373468,133.10560241444406L-84.9588774835675,133.206374550686z" style="fill:rgb(127,254,127)"/><path d="M84.98545109875487,-129.64032349856924L34.21252657040691,-129.54906270365174L84.92567328578903,-129.54906270365177z" style="fill:rgb(127,0,127)"/><path d="M34.213389699093916,133.15771129017025L84.98759665834203,133.2513679247242L84.92781582807459,133.15771129017025z" style="fill:rgb(127,254,127)"/><path d="M34.21252657040691,-129.54906270365174L84.98545109875487,-129.64032349856924L33.369649242388924,-129.64032349856922z" style="fill:rgb(127,0,127)"/><path d="M84.98759665834203,133.2513679247242L34.213389699093916,133.15771129017025L33.37049169918513,133.2513679247242z" style="fill:rgb(127,254,127)"/><path d="M-33.80395442132659,-129.59648110488916L-85.01169178361074,-129.68038427764932L-84.95673337378062,-129.59648110488916z" style="fill:rgb(127,0,127)"/><path d="M-85.0138386683741,133.29248040731355L-33.804807554287656,133.20637455068598L-84.9588774835675,133.206374550686z" style="fill:rgb(127,254,127)"/><path d="M-85.01169178361074,-129.68038427764932L-33.80395442132659,-129.59648110488916L-32.91155991429377,-129.68038427764932z" style="fill:rgb(127,0,127)"/><path d="M-33.804807554287656,133.20637455068598L-85.0138386683741,133.29248040731355L-32.91239106263386,133.29248040731355z" style="fill:rgb(127,254,127)"/><path d="M85.03533497360883,-129.71647954789373L33.369649242388924,-129.64032349856922L84.98545109875487,-129.64032349856924z" style="fill:rgb(127,0,127)"/><path d="M32.43257320386207,133.32952327631256L84.98759665834203,133.2513679247242L33.37049169918513,133.2513679247242z" style="fill:rgb(127,254,127)"/><path d="M33.369649242388924,-129.64032349856922L85.03533497360883,-129.71647954789373L32.43175394474672,-129.71647954789373z" style="fill:rgb(127,0,127)"/><path d="M84.98759665834203,133.2513679247242L32.43257320386207,133.32952327631256L85.03748305272347,133.32952327631256z" style="fill:rgb(127,254,127)"/><path d="M-32.91155991429377,-129.68038427764932L-85.05627031033677,-129.74844082879133L-85.01169178361074,-129.68038427764932z" style="fill:rgb(127,0,127)"/><path d="M-85.0584194472906,133.36232362796528L-32.91239106263386,133.29248040731355L-85.0138386683741,133.29248040731355z" style="fill:rgb(127,254,127)"/><path d="M-85.05627031033677,-129.74844082879133L-32.91155991429377,-129.68038427764932L-31.93240455303755,-129.74844082879136z" style="fill:rgb(127,0,127)"/><path d="M-32.91239106263386,133.29248040731355L-85.0584194472906,133.36232362796528L-31.933211396676416,133.36232362796528z" style="fill:rgb(127,254,127)"/><path d="M85.07440045520924,-129.77611951676857L32.43175394474672,-129.71647954789373L85.03533497360883,-129.71647954789373z" style="fill:rgb(127,0,127)"/><path d="M32.43257320386207,133.32952327631256L85.07655050846984,133.3907289572879L85.03748305272347,133.32952327631256z" style="fill:rgb(127,254,127)"/><path d="M32.43175394474672,-129.71647954789373L85.07440045520924,-129.77611951676857L31.415773849880008,-129.77611951676857z" style="fill:rgb(127,0,127)"/><path d="M85.07655050846984,133.3907289572879L32.43257320386207,133.32952327631256L31.416567808892854,133.3907289572879z" style="fill:rgb(127,254,127)"/><path d="M-31.93240455303755,-129.74844082879136L-85.08963976837518,-129.79938486831801L-85.05627031033677,-129.74844082879133z" style="fill:rgb(127,0,127)"/><path d="M-85.09179059198915,133.41460508825443L-31.933211396676416,133.36232362796528L-85.0584194472906,133.36232362796528z" style="fill:rgb(127,254,127)"/><path d="M-85.08963976837518,-129.79938486831801L-31.93240455303755,-129.74844082879136L-30.88421152677217,-129.79938486831801z" style="fill:rgb(127,0,127)"/><path d="M-31.933211396676416,133.36232362796528L-85.09179059198915,133.41460508825443L-30.88499219162899,133.4146050882544z" style="fill:rgb(127,254,127)"/><path d="M85.10191721932742,-129.81812844353234L31.415773849880008,-129.77611951676857L85.07440045520924,-129.77611951676857z" style="fill:rgb(127,0,127)"/><path d="M30.340906855141437,133.4338407339871L85.07655050846984,133.3907289572879L31.416567808892854,133.3907289572879z" style="fill:rgb(127,254,127)"/><path d="M31.415773849880008,-129.77611951676857L85.10191721932742,-129.81812844353234L30.340139832207083,-129.81812844353234z" style="fill:rgb(127,0,127)"/><path d="M85.07655050846984,133.3907289572879L30.340906855141437,133.4338407339871L85.10406866367215,133.43384073398707z" style="fill:rgb(127,254,127)"/><path d="M-30.88421152677217,-129.79938486831801L-85.11117646038822,-129.832264218289L-85.08963976837518,-129.79938486831801z" style="fill:rgb(127,0,127)"/><path d="M-85.11332837292616,133.4483476118911L-30.88499219162899,133.4146050882544L-85.09179059198915,133.41460508825443z" style="fill:rgb(127,254,127)"/><path d="M-85.11117646038822,-129.832264218289L-30.88421152677217,-129.79938486831801L-29.786041648526385,-129.832264218289z" style="fill:rgb(127,0,127)"/><path d="M-30.88499219162899,133.4146050882544L-85.11332837292616,133.4483476118911L-29.786794745347983,133.44834761189108z" style="fill:rgb(127,254,127)"/><path d="M85.11737305514706,-129.84172435300164L30.340139832207083,-129.81812844353234L85.10191721932742,-129.81812844353234z" style="fill:rgb(127,0,127)"/><path d="M30.340906855141437,133.4338407339871L85.11952528104435,133.45805610132462L85.10406866367215,133.43384073398707z" style="fill:rgb(127,254,127)"/><path d="M30.340139832207083,-129.81812844353234L85.11737305514706,-129.84172435300164L29.224445322772823,-129.8417243530016zM-29.786041648526385,-129.832264218289L-85.12048018450163,-129.84646790383982L-85.11117646038822,-129.832264218289z" style="fill:rgb(127,0,127)"/><path d="M85.11952528104435,133.45805610132462L30.340906855141437,133.4338407339871L29.22518427424424,133.45805610132462zM-85.12263256753356,133.46292418351555L-29.786794745347983,133.44834761189108L-85.11332837292616,133.4483476118911z" style="fill:rgb(127,254,127)"/><path d="M-85.12048018450163,-129.84646790383982L-29.786041648526385,-129.832264218289L-28.65792320574908,-129.84646790383985zM85.12048018450153,-129.84646790383988L29.224445322772823,-129.8417243530016L85.11737305514706,-129.84172435300164zM29.224445322772823,-129.8417243530016L85.12048018450153,-129.84646790383988L28.089063583918644,-129.84646790383988z" style="fill:rgb(127,0,127)"/><path d="M-29.786794745347983,133.44834761189108L-85.12263256753356,133.46292418351555L-28.658647858940647,133.46292418351555zM28.089773852748415,133.46292418351553L85.11952528104435,133.45805610132462L29.22518427424424,133.45805610132462zM85.11952528104435,133.45805610132462L28.089773852748415,133.46292418351553L85.12263256753364,133.4629241835155z" style="fill:rgb(127,254,127)"/><path d="M86.77597499419828,-132.37385665928053L28.089063583918644,-129.84646790383988L85.12048018450153,-129.84646790383988zM86.77597499419828,-132.37385665928053L-28.65792320574908,-129.84646790383985L28.089063583918644,-129.84646790383988zM-28.65792320574908,-129.84646790383985L-86.77597499419838,-132.37385665928048L-85.12048018450163,-129.84646790383982z" style="fill:rgb(127,0,127)"/><path d="M28.089773852748415,133.46292418351553L-86.77821191520238,136.05666517449876L85.12263256753364,133.4629241835155zM-28.658647858940647,133.46292418351555L-86.77821191520238,136.05666517449876L28.089773852748415,133.46292418351553zM-86.77821191520238,136.05666517449876L-28.658647858940647,133.46292418351555L-85.12263256753356,133.46292418351555z" style="fill:rgb(127,254,127)"/><path d="M-86.77597499419838,-132.37385665928048L-28.65792320574908,-129.84646790383985L86.77597499419828,-132.37385665928053z" style="fill:rgb(127,0,127)"/><path d="M85.12263256753364,133.4629241835155L-86.77821191520238,136.05666517449876L86.77821191520248,136.05666517449868z" style="fill:rgb(127,254,127)"/><path d="M-86.77597499419838,-132.37385665928048L86.7759460692509,-135.84485036065254L-86.775946069251,-135.84485036065246zM86.7759460692509,-135.84485036065254L-86.77597499419838,-132.37385665928048L86.77597499419828,-132.37385665928053zM-90.24946573992715,150.51990947954323L-86.77582554884454,-150.30729920913532L-90.24685857079831,-150.30729920913532zM86.77833244223774,150.51990947954317L90.24685857079822,-150.30729920913538L86.77582554884444,-150.30729920913538zM-86.77582554884454,-150.30729920913532L-90.24946573992715,150.51990947954323L-86.77833244223766,150.51990947954323zM90.24685857079822,-150.30729920913538L86.77833244223774,150.51990947954317L90.24946573992725,150.51990947954317zM-86.7782408416603,139.52784014363849L86.77821191520248,136.05666517449868L-86.77821191520238,136.05666517449876zM86.77821191520248,136.05666517449868L-86.7782408416603,139.52784014363849L86.7782408416604,139.52784014363843z" style="fill:rgb(127,127,254)"/></svg>
