<?xml version="1.0" encoding="UTF-8"?>
<!-- Generated by jsxcad -->
<!DOCTYPE svg PUBLIC "-//W3C//DTD SVG 1.1 Tiny//EN" "http://www.w3.org/Graphics/SVG/1.1/DTD/svg11-tiny.dtd">
<svg viewBox="-250 -250 500 500" width="500" height="500" xmlns="http://www.w3.org/2000/svg"><path d="M-73.49916844392706,35.6952913843165L-104.33182267895454,40.99386795821189L-102.95082302856761,43.15153098400921zM-73.49916844392706,35.6952913843165L-74.82637680219251,33.50524379212265L-104.33182267895454,40.99386795821189z" style="fill:rgb(127,37,217)"/><path d="M-74.6533659992244,31.02052721567331L-73.49916844392706,35.6952913843165L-73.32959350975152,33.21090731022883zM-74.6533659992244,31.02052721567331L-74.82637680219251,33.50524379212265L-73.49916844392706,35.6952913843165z" style="fill:rgb(247,158,158)"/><path d="M-74.82637680219251,33.50524379212265L-42.99961980770987,22.967203608651108L-74.6533659992244,31.02052721567331z" style="fill:rgb(83,212,212)"/><path d="M-41.83175907642591,27.678093161734804L-74.82637680219251,33.50524379212265L-73.49916844392706,35.6952913843165z" style="fill:rgb(127,37,217)"/><path d="M-74.82637680219251,33.50524379212265L-43.100069128335605,25.452956075501977L-42.99961980770987,22.967203608651108z" style="fill:rgb(83,212,212)"/><path d="M-41.83175907642591,27.678093161734804L-43.100069128335605,25.452956075501977L-74.82637680219251,33.50524379212265z" style="fill:rgb(127,37,217)"/><path d="M-104.42344737324879,26.56809390684092L-104.18034383701183,24.082467090778284L-107.31624821771871,24.891796680035313zM-104.42344737324879,26.56809390684092L-107.31624821771871,24.891796680035313L-107.56646968465955,27.377328736897635z" style="fill:rgb(83,212,212)"/><path d="M-43.100069128335605,25.452956075501977L-41.73447869490285,25.19259706211538L-42.99961980770987,22.967203608651108zM-43.100069128335605,25.452956075501977L-41.83175907642591,27.678093161734804L-41.73447869490285,25.19259706211538zM-116.82868162439057,9.860486159131472L-107.56646968465955,27.377328736897635L-107.31624821771871,24.891796680035313z" style="fill:rgb(247,158,158)"/><path d="M-107.56646968465955,27.377328736897635L-121.86836085102325,13.594875026700082L-112.27161796129039,28.58876348071537zM19.38286648309716,12.180462588822186L-43.100069128335605,25.452956075501977L-41.83175907642591,27.678093161734804z" style="fill:rgb(127,37,217)"/><path d="M-116.82868162439057,9.860486159131472L-117.10511859313681,12.347287511262255L-107.56646968465955,27.377328736897635z" style="fill:rgb(247,158,158)"/><path d="M-107.56646968465955,27.377328736897635L-117.10511859313681,12.347287511262255L-121.86836085102325,13.594875026700082zM19.38286648309716,12.180462588822186L18.231534989970747,9.886702290039624L-43.100069128335605,25.452956075501977zM184.07369855826758,-32.204829985470795L-112.27161796129039,28.58876348071537L-104.33182267895454,40.99386795821189z" style="fill:rgb(127,37,217)"/><path d="M18.231534989970747,9.886702290039624L19.337103952310287,9.693653966367892L18.18839503745201,7.399792863547712zM18.231534989970747,9.886702290039624L19.38286648309716,12.180462588822186L19.337103952310287,9.693653966367892z" style="fill:rgb(247,158,158)"/><path d="M-94.03321468191047,1.811721875652264L-118.0584897137941,5.433926800309738L-116.50205479282738,7.722301502765392z" style="fill:rgb(127,37,217)"/><path d="M-95.22331821631512,-3.0155983403127515L-94.03321468191047,1.811721875652264L-93.80897329207188,-0.6753511227062081z" style="fill:rgb(247,158,158)"/><path d="M-94.03321468191047,1.811721875652264L-95.4514528048777,-0.5285340563099933L-118.0584897137941,5.433926800309738z" style="fill:rgb(127,37,217)"/><path d="M-95.22331821631512,-3.0155983403127515L-95.4514528048777,-0.5285340563099933L-94.03321468191047,1.811721875652264z" style="fill:rgb(247,158,158)"/><path d="M-94.03321468191047,1.811721875652264L-61.31169795772246,-9.243943217135786L-93.80897329207188,-0.6753511227062081zM-95.4514528048777,-0.5285340563099933L-62.66412509667732,-11.62287361725393L-95.22331821631512,-3.0155983403127515z" style="fill:rgb(83,212,212)"/><path d="M166.7722550125131,-43.256691197235455L-113.92320241128306,11.513878866224008L-104.42344737324879,26.56809390684092zM-61.45946557026647,-6.757024641258105L-95.4514528048777,-0.5285340563099933L-94.03321468191047,1.811721875652264zM116.71171695431315,-12.460159810705196L51.468207645989565,1.4510773561382473L52.554427863315084,3.7824600856776365z" style="fill:rgb(127,37,217)"/><path d="M-117.89119016023825,181.62914535788784L-99.67498519235302,39.81193856133945L-104.33182267895454,40.99386795821189z" style="fill:rgb(83,212,212)"/><path d="M-112.64642612793672,180.4811540353003L-98.30241202702531,41.97469675483142L-99.67498519235302,39.81193856133945z" style="fill:rgb(247,158,158)"/><path d="M-94.03321468191047,1.811721875652264L-61.45946557026647,-6.757024641258105L-61.31169795772246,-9.243943217135786zM-95.4514528048777,-0.5285340563099933L-62.81549440234781,-9.136057518396493L-62.66412509667732,-11.62287361725393z" style="fill:rgb(83,212,212)"/><path d="M-61.45946557026647,-6.757024641258105L-62.81549440234781,-9.136057518396493L-95.4514528048777,-0.5285340563099933z" style="fill:rgb(127,37,217)"/><path d="M-62.81549440234781,-9.136057518396493L-61.31169795772246,-9.243943217135786L-62.66412509667732,-11.62287361725393zM-62.81549440234781,-9.136057518396493L-61.45946557026647,-6.757024641258105L-61.31169795772246,-9.243943217135786z" style="fill:rgb(247,158,158)"/><path d="M116.71171695431315,-12.460159810705196L115.75484698635661,-14.86517863084635L51.468207645989565,1.4510773561382473z" style="fill:rgb(127,37,217)"/><path d="M115.75484698635661,-14.86517863084635L116.42958284568174,-14.946789594402333L115.47439003018047,-17.35164181228839zM115.75484698635661,-14.86517863084635L116.71171695431315,-12.460159810705196L116.42958284568174,-14.946789594402333z" style="fill:rgb(247,158,158)"/><path d="M1.5567864506332423,-23.33387837701175L-62.81549440234781,-9.136057518396493L-61.45946557026647,-6.757024641258105z" style="fill:rgb(127,37,217)"/><path d="M-118.2162383134646,167.5934430999805L-95.19737901148594,41.18859686578543L-104.42344737324879,26.56809390684092z" style="fill:rgb(247,158,158)"/><path d="M-109.14212039304518,179.71411586415888L18.231534989970747,9.886702290039624L-96.56430163510684,39.022431846101206z" style="fill:rgb(83,212,212)"/><path d="M-113.92320241128306,11.513878866224008L-174.45425941477063,-68.56506446832887L-121.86836085102325,13.594875026700082zM173.7090009163827,-63.822788816611535L-116.50205479282738,7.722301502765392L-113.92320241128306,11.513878866224008z" style="fill:rgb(127,37,217)"/><path d="M115.75484698635661,-14.86517863084635L150.244399573931,-26.197802910179014L115.47439003018047,-17.35164181228839z" style="fill:rgb(83,212,212)"/><path d="M184.07369855826758,-32.204829985470795L179.38616373803941,-46.504391714819064L-112.27161796129039,28.58876348071537zM150.61236103098713,-23.712181534787458L115.75484698635661,-14.86517863084635L116.71171695431315,-12.460159810705196z" style="fill:rgb(127,37,217)"/><path d="M-107.56646968465955,27.377328736897635L-118.2162383134646,167.5934430999805L-104.42344737324879,26.56809390684092z" style="fill:rgb(83,212,212)"/><path d="M150.61236103098713,-23.712181534787458L116.71171695431315,-12.460159810705196L151.49720449477172,-21.266757953988694zM1.5567864506332423,-23.33387837701175L0.3245450432758778,-25.788834561123963L-62.81549440234781,-9.136057518396493z" style="fill:rgb(127,37,217)"/><path d="M115.75484698635661,-14.86517863084635L150.61236103098713,-23.712181534787458L150.244399573931,-26.197802910179014z" style="fill:rgb(83,212,212)"/><path d="M150.244399573931,-26.197802910179014L151.49720449477172,-21.266757953988694L151.1279288757419,-23.752647866195524zM150.244399573931,-26.197802910179014L150.61236103098713,-23.712181534787458L151.49720449477172,-21.266757953988694zM0.3245450432758778,-25.788834561123963L1.5529844089597764,-25.819543084227405L0.32375060734168476,-28.274206584897833zM0.3245450432758778,-25.788834561123963L1.5567864506332423,-23.33387837701175L1.5529844089597764,-25.819543084227405z" style="fill:rgb(247,158,158)"/><path d="M1.5567864506332423,-23.33387837701175L35.64398946249184,-34.80835500607431L1.5529844089597764,-25.819543084227405z" style="fill:rgb(83,212,212)"/><path d="M184.8881552957942,-29.720304497808435L150.61236103098713,-23.712181534787458L151.49720449477172,-21.266757953988694z" style="fill:rgb(127,37,217)"/><path d="M1.5567864506332423,-23.33387837701175L35.73199005822639,-32.32389739691389L35.64398946249184,-34.80835500607431z" style="fill:rgb(83,212,212)"/><path d="M184.8881552957942,-29.720304497808435L184.07369855826758,-32.204829985470795L150.61236103098713,-23.712181534787458z" style="fill:rgb(127,37,217)"/><path d="M-104.18034383701183,24.082467090778284L-113.65405841442255,9.027037908079587L-129.57198515985007,156.1059130425556z" style="fill:rgb(247,158,158)"/><path d="M166.7722550125131,-43.256691197235455L160.91214056684876,-60.47103723391194L-113.92320241128306,11.513878866224008z" style="fill:rgb(127,37,217)"/><path d="M-113.65405841442255,9.027037908079587L-116.82868162439057,9.860486159131472L-133.17617686227481,156.92064536100003z" style="fill:rgb(83,212,212)"/><path d="M18.231534989970747,9.886702290039624L21.98421872315846,153.5422643362536L19.38286648309716,12.180462588822186z" style="fill:rgb(247,158,158)"/><path d="M20.740366004217304,154.51467783627524L51.34542917136001,-1.0359958627189512L18.18839503745201,7.399792863547712z" style="fill:rgb(83,212,212)"/><path d="M-121.00021472596029,6.209787744170439L-135.64140492211152,149.9589002628911L-119.53412889168904,8.519909335952287z" style="fill:rgb(247,158,158)"/><path d="M101.88505796823887,-49.72591429508936L34.56877648385145,-34.82052878865132L35.73199005822639,-32.32389739691389z" style="fill:rgb(127,37,217)"/><path d="M-142.75644961057995,148.93273729806737L-121.00021472596029,6.209787744170439L-125.78707794620342,7.47229030792626z" style="fill:rgb(83,212,212)"/><path d="M173.7090009163827,-63.822788816611535L172.261363645609,-68.238875602276L-116.50205479282738,7.722301502765392z" style="fill:rgb(127,37,217)"/><path d="M170.36853658630844,-44.18262443804324L169.9443301770649,-46.664924469634386L166.3573578580362,-45.73917879255293z" style="fill:rgb(83,212,212)"/><path d="M-113.92320241128306,11.513878866224008L-169.3787374678228,-70.02019081379606L-174.45425941477063,-68.56506446832887z" style="fill:rgb(127,37,217)"/><path d="M170.36853658630844,-44.18262443804324L166.3573578580362,-45.73917879255293L166.7722550125131,-43.256691197235455z" style="fill:rgb(83,212,212)"/><path d="M52.42933809046089,1.2953992489967279L51.34542917136001,-1.0359958627189512L58.616674389953445,146.25426847092146z" style="fill:rgb(247,158,158)"/><path d="M171.38721189418018,-70.90550567452003L-169.3787374678228,-70.02019081379606L-118.0584897137941,5.433926800309738z" style="fill:rgb(127,37,217)"/><path d="M-112.64642612793672,180.4811540353003L-111.06402446484033,182.58154794144335L-98.30241202702531,41.97469675483142z" style="fill:rgb(247,158,158)"/><path d="M101.88505796823887,-49.72591429508936L100.85924655212196,-52.30421510714592L34.56877648385145,-34.82052878865132z" style="fill:rgb(127,37,217)"/><path d="M-117.89119016023825,181.62914535788784L-112.64642612793672,180.4811540353003L-99.67498519235302,39.81193856133945z" style="fill:rgb(83,212,212)"/><path d="M160.50548425569022,-62.949315034200175L166.7722550125131,-43.256691197235455L166.3573578580362,-45.73917879255293zM100.85924655212196,-52.30421510714592L101.63007981971595,-52.206979418832745L100.60623982527197,-54.78465933738077zM100.85924655212196,-52.30421510714592L101.88505796823887,-49.72591429508936L101.63007981971595,-52.206979418832745z" style="fill:rgb(247,158,158)"/><path d="M179.38616373803941,-46.504391714819064L164.56045746541832,-61.42660313302334L170.36853658630844,-44.18262443804324z" style="fill:rgb(127,37,217)"/><path d="M101.88505796823887,-49.72591429508936L137.43499526558256,-61.64770141375075L101.63007981971595,-52.206979418832745z" style="fill:rgb(83,212,212)"/><path d="M-118.2162383134646,167.5934430999805L-107.56687803458539,181.8182489737195L-95.19737901148594,41.18859686578543z" style="fill:rgb(247,158,158)"/><path d="M-133.73142742512928,146.8691425092162L0.3245450432758778,-25.788834561123963L-117.80248088612933,5.366405922743566zM100.85924655212196,-52.30421510714592L136.48741094314238,-64.27012594409752L100.60623982527197,-54.78465933738077z" style="fill:rgb(83,212,212)"/><path d="M160.50548425569022,-62.949315034200175L160.91214056684876,-60.47103723391194L166.7722550125131,-43.256691197235455z" style="fill:rgb(247,158,158)"/><path d="M136.83362908088753,-61.792222326331L100.85924655212196,-52.30421510714592L101.88505796823887,-49.72591429508936z" style="fill:rgb(127,37,217)"/><path d="M101.88505796823887,-49.72591429508936L137.78278822211504,-59.16905273507202L137.43499526558256,-61.64770141375075zM58.45747415362107,143.02942970247372L171.61129153741766,-29.041808488523806L51.468207645989565,1.4510773561382473z" style="fill:rgb(83,212,212)"/><path d="M136.83362908088753,-61.792222326331L101.88505796823887,-49.72591429508936L137.78278822211504,-59.16905273507202zM179.38616373803941,-46.504391714819064L173.7090009163827,-63.822788816611535L164.56045746541832,-61.42660313302334z" style="fill:rgb(127,37,217)"/><path d="M100.85924655212196,-52.30421510714592L136.83362908088753,-61.792222326331L136.48741094314238,-64.27012594409752z" style="fill:rgb(83,212,212)"/><path d="M136.48741094314238,-64.27012594409752L137.78278822211504,-59.16905273507202L137.43499526558256,-61.64770141375075zM136.48741094314238,-64.27012594409752L136.83362908088753,-61.792222326331L137.78278822211504,-59.16905273507202z" style="fill:rgb(247,158,158)"/><path d="M-107.56646968465955,27.377328736897635L-121.76158514136011,168.38219878496125L-118.2162383134646,167.5934430999805z" style="fill:rgb(83,212,212)"/><path d="M172.261363645609,-68.238875602276L136.83362908088753,-61.792222326331L137.78278822211504,-59.16905273507202zM172.261363645609,-68.238875602276L171.38721189418018,-70.90550567452003L136.83362908088753,-61.792222326331z" style="fill:rgb(127,37,217)"/><path d="M-169.3787374678228,-70.02019081379606L-165.56418741073034,-73.46743766751459L-168.94698545585354,-72.4955527485072zM-169.3787374678228,-70.02019081379606L-165.98766458917686,-70.99240133839157L-165.56418741073034,-73.46743766751459zM-109.14212039304518,179.71411586415888L20.68455445851149,151.29727494404978L18.231534989970747,9.886702290039624z" style="fill:rgb(83,212,212)"/><path d="M-104.18034383701183,24.082467090778284L-129.57198515985007,156.1059130425556L-118.52935783163981,170.7949578463322zM0.3245450432758778,-25.788834561123963L1.7739350472386717,118.63171421801155L1.5567864506332423,-23.33387837701175zM-180.3853705676378,-90.57019057790436L-169.3787374678228,-70.02019081379606L-168.94698545585354,-72.4955527485072z" style="fill:rgb(247,158,158)"/><path d="M-169.3787374678228,-70.02019081379606L-185.9965607117733,-86.59868015403217L-174.45425941477063,-68.56506446832887z" style="fill:rgb(127,37,217)"/><path d="M0.3709708378486227,119.45263884536996L34.48344289379164,-37.30458502859604L0.32375060734168476,-28.274206584897833z" style="fill:rgb(83,212,212)"/><path d="M195.6948344152405,112.9905064447698L172.45210505288037,-26.571882199114363L171.61129153741766,-29.041808488523806z" style="fill:rgb(247,158,158)"/><path d="M199.77028893873268,112.09846054739552L184.07369855826758,-32.204829985470795L175.1644831610613,-29.943623741764178z" style="fill:rgb(83,212,212)"/><path d="M-180.3853705676378,-90.57019057790436L-180.85385259478906,-88.10150461650953L-169.3787374678228,-70.02019081379606z" style="fill:rgb(247,158,158)"/><path d="M-169.3787374678228,-70.02019081379606L-180.85385259478906,-88.10150461650953L-185.9965607117733,-86.59868015403217z" style="fill:rgb(127,37,217)"/><path d="M-113.65405841442255,9.027037908079587L-133.17617686227481,156.92064536100003L-129.57198515985007,156.1059130425556z" style="fill:rgb(83,212,212)"/><path d="M18.231534989970747,9.886702290039624L20.68455445851149,151.29727494404978L21.98421872315846,153.5422643362536zM184.8881552957942,-29.720304497808435L184.07369855826758,-32.204829985470795L209.99325735892637,109.86082470500554zM-172.44652510590248,-35.94072914845621L-165.74319599277945,-73.75189734216143L-165.91331445497215,-74.02225474671276zM-172.53966944629119,-37.1252551603138L-165.91331445497215,-74.02225474671276L-166.1375438359932,-74.37859964653802zM-172.41539864306995,-34.809404851115765L-165.6288410003267,-73.5701801997426L-165.74319599277945,-73.75189734216143zM-172.69381356840302,-38.35115767522125L-166.1375438359932,-74.37859964653802L-166.41368206015835,-74.81743142431637zM-172.44669539195502,-33.74262571119577L-165.57138786349083,-73.4788732958478L-165.6288410003267,-73.5701801997426zM-172.90736548903394,-39.60625605294709L-166.41368206015835,-74.81743142431637L-166.73901526251393,-75.33444819687921zM-173.17816822723537,-40.87810853443662L-166.73901526251393,-75.33444819687921L-167.11033859784965,-75.92454076903297zM35.64398946249184,-34.80835500607431L34.48344289379164,-37.30458502859604L39.56168855882914,110.52301237025648zM-173.50351669811883,-42.154128922990395L-167.11033859784965,-75.92454076903297L-167.52397640860895,-76.58188124915614zM-173.88018935304328,-43.42169631807487L-167.52397640860895,-76.58188124915614L-167.97582270321422,-77.29994960654062zM127.90820418351528,-204.81585993474152L184.8881552957942,-29.720304497808435L184.43391316337244,-32.20514961251776zM-174.30448270968384,-44.66826806297582L-167.97582270321422,-77.29994960654062L-168.46138157270394,-78.07158877790873zM-174.77222463008496,-45.88148587507833L-168.46138157270394,-78.07158877790873L-168.97579406168234,-78.88909139966614zM-121.00021472596029,6.209787744170439L-137.34643524495746,147.69573250876255L-135.64140492211152,149.9589002628911z" style="fill:rgb(247,158,158)"/><path d="M-142.75644961057995,148.93273729806737L-137.34643524495746,147.69573250876255L-121.00021472596029,6.209787744170439z" style="fill:rgb(83,212,212)"/><path d="M-175.27882951247764,-47.04929428088057L-168.97579406168234,-78.88909139966614L-169.51389693054537,-79.74424097414519zM-175.81933375743205,-48.16003191169811L-169.51389693054537,-79.74424097414519L-170.07027235935712,-80.62841135002756z" style="fill:rgb(247,158,158)"/><path d="M-111.06402446484033,182.58154794144335L-117.89119016023825,181.62914535788784L-116.29811639509632,183.72394914744197z" style="fill:rgb(127,37,217)"/><path d="M-176.3884143743655,-49.2025517344336L-170.07027235935712,-80.62841135002756L-170.63927242104114,-81.53265022970345z" style="fill:rgb(247,158,158)"/><path d="M-111.06402446484033,182.58154794144335L-112.64642612793672,180.4811540353003L-117.89119016023825,181.62914535788784z" style="fill:rgb(127,37,217)"/><path d="M-176.98046524613642,-50.16632972910172L-170.63927242104114,-81.53265022970345L-171.21511108287007,-82.44774466053117zM194.6640333674567,97.98569530731986L175.99780038696917,-27.469539587419003L170.36853658630844,-44.18262443804324zM-177.58960158206597,-51.04154515899563L-171.21511108287007,-82.44774466053117L-171.79186884996068,-83.36433120007752z" style="fill:rgb(247,158,158)"/><path d="M20.740366004217304,154.51467783627524L58.616674389953445,146.25426847092146L51.34542917136001,-1.0359958627189512z" style="fill:rgb(83,212,212)"/><path d="M-178.2098010445901,-51.81919445637154L-171.79186884996068,-83.36433120007752L-172.3636479415234,-84.27298644159617zM52.42933809046089,1.2953992489967279L58.616674389953445,146.25426847092146L59.83513206033681,148.5390896665181zM-178.83485126142475,-52.4911814263454L-172.3636479415234,-84.27298644159617L-172.9245285366409,-85.16432110578204zM-179.4584598456351,-53.05041291127011L-172.9245285366409,-85.16432110578204L-173.46867822924355,-86.02908502768709z" style="fill:rgb(247,158,158)"/><path d="M-83.32648967316909,179.67212447128244L-118.1984209770352,184.8156871494289L-116.60045532940737,186.90813444113286z" style="fill:rgb(127,37,217)"/><path d="M-180.0743259501079,-53.49084907934543L-173.46867822924355,-86.02908502768709L-173.99043173414606,-86.8582490721659z" style="fill:rgb(247,158,158)"/><path d="M-118.2162383134646,167.5934430999805L-111.06402446484033,182.58154794144335L-107.56687803458539,181.8182489737195z" style="fill:rgb(127,37,217)"/><path d="M-180.67617702724718,-53.80761892145604L-173.99043173414606,-86.8582490721659L-174.48432529594365,-87.64313356112072z" style="fill:rgb(247,158,158)"/><path d="M166.7722550125131,-43.256691197235455L194.6640333674567,97.98569530731986L170.36853658630844,-44.18262443804324z" style="fill:rgb(83,212,212)"/><path d="M-181.2578287610762,-53.997044909611624L-174.48432529594365,-87.64313356112072L-174.94515877782862,-88.375484212373z" style="fill:rgb(247,158,158)"/><path d="M39.44996456932621,107.27072733832901L158.51568946877154,-67.51072884087876L34.56877648385145,-34.82052878865132z" style="fill:rgb(83,212,212)"/><path d="M-181.8132662841394,-54.056725396896645L-174.94515877782862,-88.375484212373L-175.3680683546204,-89.04755430649351zM-172.90736548903394,-39.60625605294709L-172.69381356840302,-38.35115767522125L-166.41368206015835,-74.81743142431637zM-173.17816822723537,-40.87810853443662L-172.90736548903394,-39.60625605294709L-166.73901526251393,-75.33444819687921zM-172.69381356840302,-38.35115767522125L-172.53966944629119,-37.1252551603138L-166.1375438359932,-74.37859964653802z" style="fill:rgb(247,158,158)"/><path d="M-83.32648967316909,179.67212447128244L-84.85585914756032,177.54403022972653L-118.1984209770352,184.8156871494289z" style="fill:rgb(127,37,217)"/><path d="M-173.50351669811883,-42.154128922990395L-173.17816822723537,-40.87810853443662L-167.11033859784965,-75.92454076903297zM-172.53966944629119,-37.1252551603138L-172.44652510590248,-35.94072914845621L-165.91331445497215,-74.02225474671276zM-173.88018935304328,-43.42169631807487L-173.50351669811883,-42.154128922990395L-167.52397640860895,-76.58188124915614zM-190.32864593087479,71.26984128872998L-113.92320241128306,11.513878866224008L-165.98766458917686,-70.99240133839157zM-172.44652510590248,-35.94072914845621L-172.41539864306995,-34.809404851115765L-165.74319599277945,-73.75189734216143zM-182.33669158183426,-53.98557039136296L-175.3680683546204,-89.04755430649351L-175.74856843942104,-89.65223029212834zM-174.30448270968384,-44.66826806297582L-173.88018935304328,-43.42169631807487L-167.97582270321422,-77.29994960654062zM-172.41539864306995,-34.809404851115765L-172.44669539195502,-33.74262571119577L-165.6288410003267,-73.5701801997426zM-174.77222463008496,-45.88148587507833L-174.30448270968384,-44.66826806297582L-168.46138157270394,-78.07158877790873zM-84.85585914756032,177.54403022972653L-83.10860401857244,176.47995140851404L-84.63342799573199,174.3495937495215zM-84.85585914756032,177.54403022972653L-83.32648967316909,179.67212447128244L-83.10860401857244,176.47995140851404zM-182.8225907923341,-53.78382781138266L-175.74856843942104,-89.65223029212834L-176.08260762491005,-90.18308733008774zM-172.44669539195502,-33.74262571119577L-172.54025876081036,-32.75116814601244L-165.57138786349083,-73.4788732958478zM-175.27882951247764,-47.04929428088057L-174.77222463008496,-45.88148587507833L-168.97579406168234,-78.88909139966614zM-183.26580585011666,-53.45309049370761L-176.08260762491005,-90.18308733008774L-176.36662465688872,-90.6344447765756zM-175.81933375743205,-48.16003191169811L-175.27882951247764,-47.04929428088057L-169.51389693054537,-79.74424097414519z" style="fill:rgb(247,158,158)"/><path d="M171.38721189418018,-70.90550567452003L142.37790945885644,-159.39958781752384L-169.3787374678228,-70.02019081379606z" style="fill:rgb(127,37,217)"/><path d="M-183.66158654299872,-52.99633224763397L-176.36662465688872,-90.6344447765756L-176.59758307988795,-91.0014785430499z" style="fill:rgb(247,158,158)"/><path d="M-118.2162383134646,167.5934430999805L-121.76158514136011,168.38219878496125L-111.06402446484033,182.58154794144335z" style="fill:rgb(127,37,217)"/><path d="M-176.3884143743655,-49.2025517344336L-175.81933375743205,-48.16003191169811L-170.07027235935712,-80.62841135002756zM-184.00566410294587,-52.41785642126598L-176.59758307988795,-91.0014785430499L-176.77302467259915,-91.28026464305962zM-176.98046524613642,-50.16632972910172L-176.3884143743655,-49.2025517344336L-170.63927242104114,-81.53265022970345zM-184.29422605986315,-51.72330243627034L-176.77302467259915,-91.28026464305962L-176.89102163911957,-91.46780017412071z" style="fill:rgb(247,158,158)"/><path d="M21.98421872315846,153.5422643362536L-109.14212039304518,179.71411586415888L-107.56687803458539,181.8182489737195z" style="fill:rgb(127,37,217)"/><path d="M-184.52411047655505,-50.919566858239726L-176.89102163911957,-91.46780017412071L-176.95034367343752,-91.56207229414578zM-177.58960158206597,-51.04154515899563L-176.98046524613642,-50.16632972910172L-171.21511108287007,-82.44774466053117z" style="fill:rgb(247,158,158)"/><path d="M-84.85585914756032,177.54403022972653L-48.800031594212015,166.5062564638277L-84.63342799573199,174.3495937495215z" style="fill:rgb(83,212,212)"/><path d="M-47.475536044672616,171.87569959599597L-84.85585914756032,177.54403022972653L-83.32648967316909,179.67212447128244z" style="fill:rgb(127,37,217)"/><path d="M-178.2098010445901,-51.81919445637154L-177.58960158206597,-51.04154515899563L-171.79186884996068,-83.36433120007752zM-178.83485126142475,-52.4911814263454L-178.2098010445901,-51.81919445637154L-172.3636479415234,-84.27298644159617z" style="fill:rgb(247,158,158)"/><path d="M128.58137952419466,-155.44418153181962L-177.41776911241277,-89.10561114005452L-165.98766458917686,-70.99240133839157z" style="fill:rgb(127,37,217)"/><path d="M-179.4584598456351,-53.05041291127011L-178.83485126142475,-52.4911814263454L-172.9245285366409,-85.16432110578204zM-180.0743259501079,-53.49084907934543L-179.4584598456351,-53.05041291127011L-173.46867822924355,-86.02908502768709z" style="fill:rgb(247,158,158)"/><path d="M-84.85585914756032,177.54403022972653L-48.92944952864641,169.70888122515242L-48.800031594212015,166.5062564638277z" style="fill:rgb(83,212,212)"/><path d="M-47.475536044672616,171.87569959599597L-48.92944952864641,169.70888122515242L-84.85585914756032,177.54403022972653z" style="fill:rgb(127,37,217)"/><path d="M-122.08380338259381,171.58290374119485L-118.2162383134646,167.5934430999805L-121.76158514136011,168.38219878496125z" style="fill:rgb(83,212,212)"/><path d="M-180.67617702724718,-53.80761892145604L-180.0743259501079,-53.49084907934543L-173.99043173414606,-86.8582490721659zM169.9443301770649,-46.664924469634386L164.14422219258987,-63.904607754268525L189.0033930654583,84.09135588593456zM-48.92944952864641,169.70888122515242L-47.35027496910692,168.67529656031525L-48.800031594212015,166.5062564638277zM-48.92944952864641,169.70888122515242L-47.475536044672616,171.87569959599597L-47.35027496910692,168.67529656031525z" style="fill:rgb(247,158,158)"/><path d="M-122.08380338259381,171.58290374119485L-118.52935783163981,170.7949578463322L-118.2162383134646,167.5934430999805z" style="fill:rgb(83,212,212)"/><path d="M-181.2578287610762,-53.997044909611624L-180.67617702724718,-53.80761892145604L-174.48432529594365,-87.64313356112072z" style="fill:rgb(247,158,158)"/><path d="M-173.50351669811883,-42.154128922990395L-177.009540425798,-41.17311786681937L-176.6845116163756,-39.89824804945246z" style="fill:rgb(97,120,251)"/><path d="M-173.17816822723537,-40.87810853443662L-176.6845116163756,-39.89824804945246L-176.41441420543808,-38.62741848215101z" style="fill:rgb(94,133,250)"/><path d="M-173.88018935304328,-43.42169631807487L-177.38628212913676,-42.43942292062991L-177.009540425798,-41.17311786681937z" style="fill:rgb(100,108,250)"/><path d="M-181.8132662841394,-54.056725396896645L-181.2578287610762,-53.997044909611624L-174.94515877782862,-88.375484212373z" style="fill:rgb(247,158,158)"/><path d="M-172.90736548903394,-39.60625605294709L-176.41441420543808,-38.62741848215101L-176.20194651041317,-37.37321057187567z" style="fill:rgb(91,145,248)"/><path d="M-174.30448270968384,-44.66826806297582L-177.81103255664024,-43.68463010288852L-177.38628212913676,-42.43942292062991z" style="fill:rgb(104,95,248)"/><path d="M-173.50351669811883,-42.154128922990395L-176.6845116163756,-39.89824804945246L-173.17816822723537,-40.87810853443662z" style="fill:rgb(97,120,251)"/><path d="M-173.88018935304328,-43.42169631807487L-177.009540425798,-41.17311786681937L-173.50351669811883,-42.154128922990395z" style="fill:rgb(100,108,250)"/><path d="M-173.17816822723537,-40.87810853443662L-176.41441420543808,-38.62741848215101L-172.90736548903394,-39.60625605294709z" style="fill:rgb(94,133,250)"/><path d="M-174.30448270968384,-44.66826806297582L-177.38628212913676,-42.43942292062991L-173.88018935304328,-43.42169631807487z" style="fill:rgb(104,95,248)"/><path d="M-172.69381356840302,-38.35115767522125L-176.20194651041317,-37.37321057187567L-176.04925511368918,-36.14805013521492z" style="fill:rgb(89,157,245)"/><path d="M-174.77222463008496,-45.88148587507833L-178.27961515606,-44.896399136700985L-177.81103255664024,-43.68463010288852z" style="fill:rgb(108,83,245)"/><path d="M-172.90736548903394,-39.60625605294709L-176.20194651041317,-37.37321057187567L-172.69381356840302,-38.35115767522125z" style="fill:rgb(91,145,248)"/><path d="M-174.77222463008496,-45.88148587507833L-177.81103255664024,-43.68463010288852L-174.30448270968384,-44.66826806297582z" style="fill:rgb(108,83,245)"/><path d="M-172.53966944629119,-37.1252551603138L-176.04925511368918,-36.14805013521492L-175.9579179751437,-34.964118077283054z" style="fill:rgb(87,169,240)"/><path d="M-172.69381356840302,-38.35115767522125L-176.04925511368918,-36.14805013521492L-172.53966944629119,-37.1252551603138z" style="fill:rgb(89,157,245)"/><path d="M-175.27882951247764,-47.04929428088057L-178.78745606379383,-46.062678586421725L-178.27961515606,-44.896399136700985zM-175.27882951247764,-47.04929428088057L-178.27961515606,-44.896399136700985L-174.77222463008496,-45.88148587507833z" style="fill:rgb(112,72,241)"/><path d="M-182.33669158183426,-53.98557039136296L-181.8132662841394,-54.056725396896645L-175.3680683546204,-89.04755430649351z" style="fill:rgb(247,158,158)"/><path d="M-133.73142742512928,146.8691425092162L0.3699332196453679,116.20649431429236L0.3245450432758778,-25.788834561123963z" style="fill:rgb(83,212,212)"/><path d="M-172.53966944629119,-37.1252551603138L-175.9579179751437,-34.964118077283054L-172.44652510590248,-35.94072914845621z" style="fill:rgb(87,169,240)"/><path d="M-172.44652510590248,-35.94072914845621L-175.9579179751437,-34.964118077283054L-175.92893573940077,-33.833231303579126z" style="fill:rgb(85,181,235)"/><path d="M-175.81933375743205,-48.16003191169811L-179.3295203740738,-47.17182682080531L-178.78745606379383,-46.062678586421725zM-175.81933375743205,-48.16003191169811L-178.78745606379383,-46.062678586421725L-175.27882951247764,-47.04929428088057z" style="fill:rgb(116,61,236)"/><path d="M-172.44652510590248,-35.94072914845621L-175.92893573940077,-33.833231303579126L-172.41539864306995,-34.809404851115765z" style="fill:rgb(85,181,235)"/><path d="M-172.41539864306995,-34.809404851115765L-175.92893573940077,-33.833231303579126L-175.96269291593836,-32.766728871562734z" style="fill:rgb(84,192,228)"/><path d="M-176.3884143743655,-49.2025517344336L-179.90052939120088,-48.212712273971924L-179.3295203740738,-47.17182682080531z" style="fill:rgb(120,51,229)"/><path d="M-182.8225907923341,-53.78382781138266L-182.33669158183426,-53.98557039136296L-175.74856843942104,-89.65223029212834z" style="fill:rgb(247,158,158)"/><path d="M-176.3884143743655,-49.2025517344336L-179.3295203740738,-47.17182682080531L-175.81933375743205,-48.16003191169811z" style="fill:rgb(120,51,229)"/><path d="M-172.41539864306995,-34.809404851115765L-175.96269291593836,-32.766728871562734L-172.44669539195502,-33.74262571119577z" style="fill:rgb(84,192,228)"/><path d="M164.14422219258987,-63.904607754268525L160.50548425569022,-62.949315034200175L184.78939489576896,85.04394163139034z" style="fill:rgb(83,212,212)"/><path d="M-172.44669539195502,-33.74262571119577L-175.96269291593836,-32.766728871562734L-176.0590089312287,-31.775384247690294z" style="fill:rgb(84,202,220)"/><path d="M-176.98046524613642,-50.16632972910172L-180.49483842653945,-49.1748219935094L-179.90052939120088,-48.212712273971924zM-176.98046524613642,-50.16632972910172L-179.90052939120088,-48.212712273971924L-176.3884143743655,-49.2025517344336z" style="fill:rgb(125,41,221)"/><path d="M-132.81877406287154,153.7054990275727L-122.08380338259381,171.58290374119485L-121.76158514136011,168.38219878496125zM-183.26580585011666,-53.45309049370761L-182.8225907923341,-53.78382781138266L-176.08260762491005,-90.18308733008774z" style="fill:rgb(247,158,158)"/><path d="M-172.44669539195502,-33.74262571119577L-176.0590089312287,-31.775384247690294L-172.54025876081036,-32.75116814601244z" style="fill:rgb(84,202,220)"/><path d="M-177.58960158206597,-51.04154515899563L-181.10654075488972,-50.0483616652039L-180.49483842653945,-49.1748219935094zM-177.58960158206597,-51.04154515899563L-180.49483842653945,-49.1748219935094L-176.98046524613642,-50.16632972910172z" style="fill:rgb(129,33,213)"/><path d="M-122.08380338259381,171.58290374119485L-138.5700548803713,158.13994128868688L-127.4034265301742,172.7621426954437z" style="fill:rgb(127,37,217)"/><path d="M-183.66158654299872,-52.99633224763397L-183.26580585011666,-53.45309049370761L-176.36662465688872,-90.6344447765756z" style="fill:rgb(247,158,158)"/><path d="M21.98421872315846,153.5422643362536L20.68455445851149,151.29727494404978L-109.14212039304518,179.71411586415888z" style="fill:rgb(127,37,217)"/><path d="M-178.2098010445901,-51.81919445637154L-181.10654075488972,-50.0483616652039L-177.58960158206597,-51.04154515899563zM-178.2098010445901,-51.81919445637154L-181.72958894403357,-50.82433952574065L-181.10654075488972,-50.0483616652039z" style="fill:rgb(134,25,203)"/><path d="M58.45747415362107,143.02942970247372L195.6948344152405,112.9905064447698L171.61129153741766,-29.041808488523806z" style="fill:rgb(83,212,212)"/><path d="M-184.00566410294587,-52.41785642126598L-183.66158654299872,-52.99633224763397L-176.59758307988795,-91.0014785430499zM-190.32864593087479,71.26984128872998L-129.22393554891443,152.8899920172663L-113.92320241128306,11.513878866224008z" style="fill:rgb(247,158,158)"/><path d="M-129.57198515985007,156.1059130425556L-122.08380338259381,171.58290374119485L-118.52935783163981,170.7949578463322zM22.043387061802974,156.75757391995967L-48.92944952864641,169.70888122515242L-47.475536044672616,171.87569959599597z" style="fill:rgb(127,37,217)"/><path d="M-178.83485126142475,-52.4911814263454L-181.72958894403357,-50.82433952574065L-178.2098010445901,-51.81919445637154zM-178.83485126142475,-52.4911814263454L-182.35774289977294,-51.494681340802515L-181.72958894403357,-50.82433952574065z" style="fill:rgb(138,18,193)"/><path d="M-184.29422605986315,-51.72330243627034L-184.00566410294587,-52.41785642126598L-176.77302467259915,-91.28026464305962zM-184.52411047655505,-50.919566858239726L-184.29422605986315,-51.72330243627034L-176.89102163911957,-91.46780017412071z" style="fill:rgb(247,158,158)"/><path d="M-179.4584598456351,-53.05041291127011L-182.35774289977294,-51.494681340802515L-178.83485126142475,-52.4911814263454zM-179.4584598456351,-53.05041291127011L-182.98467899665297,-52.0522956797392L-182.35774289977294,-51.494681340802515z" style="fill:rgb(142,13,182)"/><path d="M158.51568946877154,-67.51072884087876L182.6478858060983,77.39707275271161L159.41794041902435,-64.86032980593521z" style="fill:rgb(247,158,158)"/><path d="M-180.0743259501079,-53.49084907934543L-182.98467899665297,-52.0522956797392L-179.4584598456351,-53.05041291127011zM-180.0743259501079,-53.49084907934543L-183.60406404284169,-52.49117956041582L-182.98467899665297,-52.0522956797392z" style="fill:rgb(146,9,171)"/><path d="M-180.67617702724718,-53.80761892145604L-183.60406404284169,-52.49117956041582L-180.0743259501079,-53.49084907934543zM-180.67617702724718,-53.80761892145604L-184.20959040409704,-52.8064583054423L-183.60406404284169,-52.49117956041582z" style="fill:rgb(150,6,159)"/><path d="M-132.81877406287154,153.7054990275727L-133.17617686227481,156.92064536100003L-122.08380338259381,171.58290374119485z" style="fill:rgb(247,158,158)"/><path d="M-122.08380338259381,171.58290374119485L-133.17617686227481,156.92064536100003L-138.5700548803713,158.13994128868688z" style="fill:rgb(127,37,217)"/><path d="M-181.2578287610762,-53.997044909611624L-184.20959040409704,-52.8064583054423L-180.67617702724718,-53.80761892145604zM-181.2578287610762,-53.997044909611624L-184.79503625017097,-52.994484970242326L-184.20959040409704,-52.8064583054423z" style="fill:rgb(154,4,146)"/><path d="M-129.57198515985007,156.1059130425556L-133.17617686227481,156.92064536100003L-122.08380338259381,171.58290374119485z" style="fill:rgb(127,37,217)"/><path d="M185.9070214832204,73.78290844181254L171.38721189418018,-70.90550567452003L162.18524115828893,-68.478547558422z" style="fill:rgb(83,212,212)"/><path d="M-181.8132662841394,-54.056725396896645L-184.79503625017097,-52.994484970242326L-181.2578287610762,-53.997044909611624zM-181.8132662841394,-54.056725396896645L-185.35434906478375,-53.052873159895086L-184.79503625017097,-52.994484970242326z" style="fill:rgb(157,3,134)"/><path d="M135.45005562640836,-180.53327967942792L-197.9200453741697,-105.22789049581326L-185.9965607117733,-86.59868015403217z" style="fill:rgb(127,37,217)"/><path d="M0.3245450432758778,-25.788834561123963L0.3699332196453679,116.20649431429236L1.7739350472386717,118.63171421801155z" style="fill:rgb(247,158,158)"/><path d="M22.043387061802974,156.75757391995967L20.740366004217304,154.51467783627524L-48.92944952864641,169.70888122515242z" style="fill:rgb(127,37,217)"/><path d="M172.261363645609,-68.238875602276L171.38721189418018,-70.90550567452003L196.5177498718796,71.35673755041955zM-190.8970981372477,74.53048703922467L-165.56418741073034,-73.46743766751459L-165.57138786349083,-73.4788732958478z" style="fill:rgb(247,158,158)"/><path d="M-169.3787374678228,-70.02019081379606L-190.32864593087479,71.26984128872998L-165.98766458917686,-70.99240133839157z" style="fill:rgb(83,212,212)"/><path d="M-182.33669158183426,-53.98557039136296L-185.35434906478375,-53.052873159895086L-181.8132662841394,-54.056725396896645zM-182.33669158183426,-53.98557039136296L-185.88169125048762,-52.98053691529145L-185.35434906478375,-53.052873159895086z" style="fill:rgb(160,4,121)"/><path d="M195.6948344152405,112.9905064447698L196.58999603567634,115.43260166675188L172.45210505288037,-26.571882199114363z" style="fill:rgb(247,158,158)"/><path d="M210.58631386525835,113.1113827107292L-127.4034265301742,172.7621426954437L-118.1984209770352,184.8156871494289z" style="fill:rgb(127,37,217)"/><path d="M20.740366004217304,154.51467783627524L21.98421872315846,153.5422643362536L20.68455445851149,151.29727494404978zM20.740366004217304,154.51467783627524L22.043387061802974,156.75757391995967L21.98421872315846,153.5422643362536z" style="fill:rgb(247,158,158)"/><path d="M-135.64140492211152,149.9589002628911L-142.75644961057995,148.93273729806737L-141.04008379214568,151.18966323168988z" style="fill:rgb(127,37,217)"/><path d="M184.8881552957942,-29.720304497808435L209.99325735892637,109.86082470500554L210.8536965736946,112.31937766082018z" style="fill:rgb(247,158,158)"/><path d="M199.77028893873268,112.09846054739552L209.99325735892637,109.86082470500554L184.07369855826758,-32.204829985470795z" style="fill:rgb(83,212,212)"/><path d="M-135.64140492211152,149.9589002628911L-137.34643524495746,147.69573250876255L-142.75644961057995,148.93273729806737z" style="fill:rgb(127,37,217)"/><path d="M0.3709708378486227,119.45263884536996L39.56168855882914,110.52301237025648L34.48344289379164,-37.30458502859604z" style="fill:rgb(83,212,212)"/><path d="M59.83513206033681,148.5390896665181L20.740366004217304,154.51467783627524L22.043387061802974,156.75757391995967z" style="fill:rgb(127,37,217)"/><path d="M194.6640333674567,97.98569530731986L200.6555794570725,114.54523355781525L175.99780038696917,-27.469539587419003z" style="fill:rgb(247,158,158)"/><path d="M-197.9200453741697,-105.22789049581326L127.90820418351528,-204.81585993474152L-197.39960232979396,-107.68887066903501z" style="fill:rgb(83,212,212)"/><path d="M35.64398946249184,-34.80835500607431L39.56168855882914,110.52301237025648L40.87921477755232,112.99358841608404z" style="fill:rgb(247,158,158)"/><path d="M-172.54025876081036,-32.75116814601244L-176.0590089312287,-31.775384247690294L-186.1132125797807,25.865080642870204z" style="fill:rgb(83,212,212)"/><path d="M59.83513206033681,148.5390896665181L58.616674389953445,146.25426847092146L20.740366004217304,154.51467783627524zM-107.08841640559667,146.60780526106345L-134.384267453522,150.1567105298855L-132.57211000605994,152.3970015016749zM128.58137952419466,-155.44418153181962L121.43478040250747,-176.43765273908528L-177.41776911241277,-89.10561114005452zM-107.08841640559667,146.60780526106345L-108.73753797222606,144.31308813361932L-134.384267453522,150.1567105298855z" style="fill:rgb(127,37,217)"/><path d="M-108.73753797222606,144.31308813361932L-106.79768364214122,143.3832664926688L-108.4415731309479,141.08654949618978zM-108.73753797222606,144.31308813361932L-107.08841640559667,146.60780526106345L-106.79768364214122,143.3832664926688zM127.90820418351528,-204.81585993474152L128.27401643431637,-202.42409503971106L184.8881552957942,-29.720304497808435z" style="fill:rgb(247,158,158)"/><path d="M-176.95777960280407,-91.57388202037545L-180.3853705676378,-90.57019057790436L-208.46579253481318,57.40049548111923zM-107.08841640559667,146.60780526106345L-69.88041197943524,134.96707431335963L-106.79768364214122,143.3832664926688z" style="fill:rgb(83,212,212)"/><path d="M-204.53285965160865,56.392029560698106L-176.95034367343752,-91.56207229414578L-176.95777960280407,-91.57388202037545z" style="fill:rgb(247,158,158)"/><path d="M1.7739350472386717,118.63171421801155L-133.73142742512928,146.8691425092162L-132.0339859077105,149.1365027738913z" style="fill:rgb(127,37,217)"/><path d="M166.7722550125131,-43.256691197235455L190.53173164836372,98.90503423017014L194.6640333674567,97.98569530731986zM-108.73753797222606,144.31308813361932L-71.44445480437841,132.62705634700657L-108.4415731309479,141.08654949618978z" style="fill:rgb(83,212,212)"/><path d="M-70.07243323303106,138.19878544176632L-108.73753797222606,144.31308813361932L-107.08841640559667,146.60780526106345zM191.076170695893,102.16260881673243L-129.57198515985007,156.1059130425556L-118.52935783163981,170.7949578463322zM133.16930081651032,132.59127112020096L58.616674389953445,146.25426847092146L59.83513206033681,148.5390896665181z" style="fill:rgb(127,37,217)"/><path d="M-107.08841640559667,146.60780526106345L-70.07243323303106,138.19878544176632L-69.88041197943524,134.96707431335963z" style="fill:rgb(83,212,212)"/><path d="M196.58999603567634,115.43260166675188L58.45747415362107,143.02942970247372L59.67303615586205,145.31625878902713z" style="fill:rgb(127,37,217)"/><path d="M-108.73753797222606,144.31308813361932L-71.64128195462855,135.86067513949035L-71.44445480437841,132.62705634700657z" style="fill:rgb(83,212,212)"/><path d="M-70.07243323303106,138.19878544176632L-71.64128195462855,135.86067513949035L-108.73753797222606,144.31308813361932z" style="fill:rgb(127,37,217)"/><path d="M-71.64128195462855,135.86067513949035L-69.88041197943524,134.96707431335963L-71.44445480437841,132.62705634700657zM-71.64128195462855,135.86067513949035L-70.07243323303106,138.19878544176632L-69.88041197943524,134.96707431335963z" style="fill:rgb(247,158,158)"/><path d="M128.58137952419466,-155.44418153181962L132.1499479714152,-159.00145778804048L128.22850175320312,-157.87481837999601zM128.58137952419466,-155.44418153181962L132.51395997529255,-156.57163494481983L132.1499479714152,-159.00145778804048z" style="fill:rgb(83,212,212)"/><path d="M133.16930081651032,132.59127112020096L132.12001361324994,130.22400473855626L58.616674389953445,146.25426847092146z" style="fill:rgb(127,37,217)"/><path d="M169.9443301770649,-46.664924469634386L189.0033930654583,84.09135588593456L195.22082540410008,101.24383771166043z" style="fill:rgb(247,158,158)"/><path d="M-172.54025876081036,-32.75116814601244L-186.1132125797807,25.865080642870204L-182.40298711616737,24.88891758712852z" style="fill:rgb(83,212,212)"/><path d="M-218.03333500390812,34.26353487912471L-177.41776911241277,-89.10561114005452L-189.22622449138348,-107.81839594721437zM121.09568682945371,-178.8521786564387L128.58137952419466,-155.44418153181962L128.22850175320312,-157.87481837999601z" style="fill:rgb(247,158,158)"/><path d="M1.7739350472386717,118.63171421801155L0.3699332196453679,116.20649431429236L-133.73142742512928,146.8691425092162z" style="fill:rgb(127,37,217)"/><path d="M132.12001361324994,130.22400473855626L132.80211447927576,129.35501568161766L131.75477431755047,126.9858985953648zM132.12001361324994,130.22400473855626L133.16930081651032,132.59127112020096L132.80211447927576,129.35501568161766z" style="fill:rgb(247,158,158)"/><path d="M39.44996456932621,107.27072733832901L181.67757952658985,74.74998050073916L158.51568946877154,-67.51072884087876z" style="fill:rgb(83,212,212)"/><path d="M1.778897644341381,121.87612204826367L-71.64128195462855,135.86067513949035L-70.07243323303106,138.19878544176632zM-190.32864593087479,71.26984128872998L-132.81877406287154,153.7054990275727L-129.22393554891443,152.8899920172663zM135.45005562640836,-180.53327967942792L128.27401643431637,-202.42409503971106L-197.9200453741697,-105.22789049581326zM189.0033930654583,84.09135588593456L-132.57211000605994,152.3970015016749L-129.57198515985007,156.1059130425556zM-129.57198515985007,156.1059130425556L-200.5595718293439,76.96743949861404L-138.5700548803713,158.13994128868688zM142.37790945885644,-159.39958781752384L125.42954979230117,-177.60503101841044L132.51395997529255,-156.57163494481983zM196.58999603567634,115.43260166675188L195.6948344152405,112.9905064447698L58.45747415362107,143.02942970247372z" style="fill:rgb(127,37,217)"/><path d="M-189.22622449138348,-107.81839594721437L-192.70846603102999,-106.78079260793149L-222.01518821365107,35.31116307538026zM132.12001361324994,130.22400473855626L171.62905369302806,118.25809166647592L131.75477431755047,126.9858985953648z" style="fill:rgb(83,212,212)"/><path d="M173.06381494151566,123.91550364643834L132.12001361324994,130.22400473855626L133.16930081651032,132.59127112020096zM210.58631386525835,113.1113827107292L205.61802892902807,98.93902154238229L-127.4034265301742,172.7621426954437z" style="fill:rgb(127,37,217)"/><path d="M121.09568682945371,-178.8521786564387L121.43478040250747,-176.43765273908528L128.58137952419466,-155.44418153181962z" style="fill:rgb(247,158,158)"/><path d="M-197.9200453741697,-105.22789049581326L128.27401643431637,-202.42409503971106L127.90820418351528,-204.81585993474152zM164.14422219258987,-63.904607754268525L184.78939489576896,85.04394163139034L189.0033930654583,84.09135588593456z" style="fill:rgb(83,212,212)"/><path d="M1.778897644341381,121.87612204826367L0.3709708378486227,119.45263884536996L-71.64128195462855,135.86067513949035z" style="fill:rgb(127,37,217)"/><path d="M137.54442991317575,-122.15733680461742L132.03899411660376,-159.33123602395733L131.93354436049938,-159.64468147293113z" style="fill:rgb(247,158,158)"/><path d="M132.12001361324994,130.22400473855626L172.10938222403712,121.50277097592532L171.62905369302806,118.25809166647592z" style="fill:rgb(83,212,212)"/><path d="M137.2794301541374,-123.39086906599901L131.93354436049938,-159.64468147293113L131.7945455700904,-160.0578419046064z" style="fill:rgb(247,158,158)"/><path d="M173.06381494151566,123.91550364643834L172.10938222403712,121.50277097592532L132.12001361324994,130.22400473855626z" style="fill:rgb(127,37,217)"/><path d="M137.77999172269577,-120.99159587873808L132.1098811582033,-159.12056381662234L132.03899411660376,-159.33123602395733zM136.98766301259806,-124.6798853552383L131.7945455700904,-160.0578419046064L131.6233590456721,-160.56665788821437zM137.98373895032145,-119.90533210239987L132.14549211249445,-159.01471532076292L132.1098811582033,-159.12056381662234zM136.67203862078958,-126.0115978356845L131.6233590456721,-160.56665788821437L131.42166056247868,-161.16617767072194zM171.62905369302806,118.25809166647592L173.06381494151566,123.91550364643834L172.58208584207466,120.67259371388637zM136.33568862762561,-127.3728229261592L131.42166056247868,-161.16617767072194L131.1914300930934,-161.8504810067643zM135.98194300627705,-128.7501431211667L131.1914300930934,-161.8504810067643L130.93494245016925,-162.6128289190925z" style="fill:rgb(247,158,158)"/><path d="M142.37790945885644,-159.39958781752384L135.45005562640836,-180.53327967942792L125.42954979230117,-177.60503101841044z" style="fill:rgb(127,37,217)"/><path d="M135.61429418791923,-130.12995605456032L130.93494245016925,-162.6128289190925L130.65473788901036,-163.44568956963974zM135.2363563623423,-131.498667330912L130.65473788901036,-163.44568956963974L130.3535954921356,-164.3407776051339zM171.62905369302806,118.25809166647592L172.10938222403712,121.50277097592532L173.06381494151566,123.91550364643834zM134.8518492511241,-132.8427568593368L130.3535954921356,-164.3407776051339L130.0345149450456,-165.28917428920244zM158.51568946877154,-67.51072884087876L181.67757952658985,74.74998050073916L182.6478858060983,77.39707275271161zM134.4645816404467,-134.1488999821837L130.0345149450456,-165.28917428920244L129.70071225055258,-166.28135023382745zM0.3709708378486227,119.45263884536996L1.7739350472386717,118.63171421801155L0.3699332196453679,116.20649431429236zM0.3709708378486227,119.45263884536996L1.778897644341381,121.87612204826367L1.7739350472386717,118.63171421801155zM134.07836291848844,-135.4041258901226L129.70071225055258,-166.28135023382745L129.35552910017438,-167.307330501784zM133.69704528554672,-136.59587456830454L129.35552910017438,-167.307330501784L129.00247991046476,-168.35672192577184z" style="fill:rgb(247,158,158)"/><path d="M1.778897644341381,121.87612204826367L40.764075522572206,109.74296151532417L1.7739350472386717,118.63171421801155z" style="fill:rgb(83,212,212)"/><path d="M211.44760727094382,115.56825871547433L172.10938222403712,121.50277097592532L173.06381494151566,123.91550364643834z" style="fill:rgb(127,37,217)"/><path d="M172.261363645609,-68.238875602276L196.5177498718796,71.35673755041955L197.4506771831634,74.02241847151433zM133.32441399841113,-137.7121532996077L129.00247991046476,-168.35672192577184L128.64514085455943,-169.4188438248354z" style="fill:rgb(247,158,158)"/><path d="M185.9070214832204,73.78290844181254L196.5177498718796,71.35673755041955L171.38721189418018,-70.90550567452003zM-169.3787374678228,-70.02019081379606L-194.19211160444462,72.24194506410078L-190.32864593087479,71.26984128872998z" style="fill:rgb(83,212,212)"/><path d="M132.96421132407443,-138.74165024514699L128.64514085455943,-169.4188438248354L128.28717401533254,-170.48283237758787z" style="fill:rgb(247,158,158)"/><path d="M210.8536965736946,112.31937766082018L199.77028893873268,112.09846054739552L200.6555794570725,114.54523355781525z" style="fill:rgb(127,37,217)"/><path d="M132.62007021509677,-139.67381809009768L128.28717401533254,-170.48283237758787L127.93225632607913,-171.53774673547153z" style="fill:rgb(247,158,158)"/><path d="M40.87921477755232,112.99358841608404L0.3709708378486227,119.45263884536996L1.778897644341381,121.87612204826367z" style="fill:rgb(127,37,217)"/><path d="M-182.40298711616737,24.88891758712852L-186.1132125797807,25.865080642870204L-186.35409473829694,26.780948746144656z" style="fill:rgb(84,220,202)"/><path d="M-190.8970981372477,74.53048703922467L-190.8884959640579,74.54191648312897L-165.56418741073034,-73.46743766751459zM132.29549685209207,-140.49900283920798L127.93225632607913,-171.53774673547153L127.58406074262682,-172.5726801486729z" style="fill:rgb(247,158,158)"/><path d="M210.8536965736946,112.31937766082018L209.99325735892637,109.86082470500554L199.77028893873268,112.09846054739552z" style="fill:rgb(127,37,217)"/><path d="M-182.40298711616737,24.88891758712852L-186.35409473829694,26.780948746144656L-182.6402592756272,25.804656078957358z" style="fill:rgb(84,220,202)"/><path d="M-182.6402592756272,25.804656078957358L-186.35409473829694,26.780948746144656L-186.65736109013895,27.59251107309922z" style="fill:rgb(84,228,192)"/><path d="M1.778897644341381,121.87612204826367L40.87921477755232,112.99358841608404L40.764075522572206,109.74296151532417z" style="fill:rgb(83,212,212)"/><path d="M211.44760727094382,115.56825871547433L210.58631386525835,113.1113827107292L172.10938222403712,121.50277097592532z" style="fill:rgb(127,37,217)"/><path d="M131.99383291166785,-141.20854902058548L127.58406074262682,-172.5726801486729L127.24621515288278,-173.57687358359655z" style="fill:rgb(247,158,158)"/><path d="M-182.6402592756272,25.804656078957358L-186.65736109013895,27.59251107309922L-182.93968984837707,26.61591494193167z" style="fill:rgb(84,228,192)"/><path d="M-182.93968984837707,26.61591494193167L-186.65736109013895,27.59251107309922L-187.02014038918887,28.291254307316027z" style="fill:rgb(85,235,181)"/><path d="M131.71818579176445,-141.79485877984905L127.24621515288278,-173.57687358359655L126.92222630405448,-174.53985987727336z" style="fill:rgb(247,158,158)"/><path d="M194.6640333674567,97.98569530731986L196.58999603567634,115.43260166675188L200.6555794570725,114.54523355781525z" style="fill:rgb(127,37,217)"/><path d="M-182.93968984837707,26.61591494193167L-187.02014038918887,28.291254307316027L-183.2984457231593,27.31418316446459z" style="fill:rgb(85,235,181)"/><path d="M-183.2984457231593,27.31418316446459L-187.02014038918887,28.291254307316027L-187.4389918933137,28.869710761567152z" style="fill:rgb(87,240,169)"/><path d="M131.47146447929134,-142.25155282739226L126.92222630405448,-174.53985987727336L126.61551075671468,-175.45150122154303z" style="fill:rgb(247,158,158)"/><path d="M191.076170695893,102.16260881673243L184.78939489576896,85.04394163139034L-129.57198515985007,156.1059130425556zM40.87921477755232,112.99358841608404L39.56168855882914,110.52301237025648L0.3709708378486227,119.45263884536996z" style="fill:rgb(127,37,217)"/><path d="M-183.2984457231593,27.31418316446459L-187.4389918933137,28.869710761567152L-183.71312641735557,27.891996964328534z" style="fill:rgb(87,240,169)"/><path d="M131.25628765073068,-142.57345619945954L126.61551075671468,-175.45150122154303L126.32929710142632,-176.30223324699725z" style="fill:rgb(247,158,158)"/><path d="M-183.71312641735557,27.891996964328534L-187.4389918933137,28.869710761567152L-187.9098696598385,29.321578273987832z" style="fill:rgb(89,245,157)"/><path d="M131.07497388515463,-142.7567581531963L126.32929710142632,-176.30223324699725L126.06661019518644,-177.0830182607671z" style="fill:rgb(247,158,158)"/><path d="M-183.71312641735557,27.891996964328534L-187.9098696598385,29.321578273987832L-184.17972754028258,28.343059658114605z" style="fill:rgb(89,245,157)"/><path d="M136.67203862078958,-126.0115978356845L136.98766301259806,-124.6798853552383L131.6233590456721,-160.56665788821437zM136.33568862762561,-127.3728229261592L136.67203862078958,-126.0115978356845L131.42166056247868,-161.16617767072194zM136.98766301259806,-124.6798853552383L137.2794301541374,-123.39086906599901L131.7945455700904,-160.0578419046064zM135.98194300627705,-128.7501431211667L136.33568862762561,-127.3728229261592L131.1914300930934,-161.8504810067643zM137.2794301541374,-123.39086906599901L137.54442991317575,-122.15733680461742L131.93354436049938,-159.64468147293113zM135.61429418791923,-130.12995605456032L135.98194300627705,-128.7501431211667L130.93494245016925,-162.6128289190925z" style="fill:rgb(247,158,158)"/><path d="M-184.17972754028258,28.343059658114605L-187.9098696598385,29.321578273987832L-188.4281768342168,29.641766326664655z" style="fill:rgb(91,248,145)"/><path d="M137.54442991317575,-122.15733680461742L137.77999172269577,-120.99159587873808L132.03899411660376,-159.33123602395733zM130.92953206923204,-142.79901439409684L126.06661019518644,-177.0830182607671L125.83025441451423,-177.78555947811464zM135.2363563623423,-131.498667330912L135.61429418791923,-130.12995605456032L130.65473788901036,-163.44568956963974zM137.77999172269577,-120.99159587873808L137.98373895032145,-119.90533210239987L132.1098811582033,-159.12056381662234zM153.67980012962644,-15.287354971523941L164.56045746541832,-61.42660313302334L132.51395997529255,-156.57163494481983zM134.8518492511241,-132.8427568593368L135.2363563623423,-131.498667330912L130.3535954921356,-164.3407776051339z" style="fill:rgb(247,158,158)"/><path d="M-184.17972754028258,28.343059658114605L-188.4281768342168,29.641766326664655L-184.6936970281436,28.66228808632754z" style="fill:rgb(91,248,145)"/><path d="M130.82158961423897,-142.69922079585922L125.83025441451423,-177.78555947811464L125.62273464179496,-178.40236047376925zM137.98373895032145,-119.90533210239987L138.15354752771933,-118.90954000122686L132.14549211249445,-159.01471532076292zM134.4645816404467,-134.1488999821837L134.8518492511241,-132.8427568593368L130.0345149450456,-165.28917428920244z" style="fill:rgb(247,158,158)"/><path d="M-184.6936970281436,28.66228808632754L-188.4281768342168,29.641766326664655L-188.9888018917805,29.826496519227796z" style="fill:rgb(94,250,133)"/><path d="M130.75240864081445,-142.45785679179644L125.62273464179496,-178.40236047376925L125.44626961939437,-178.92685556096248zM134.07836291848844,-135.4041258901226L134.4645816404467,-134.1488999821837L129.70071225055258,-166.28135023382745z" style="fill:rgb(247,158,158)"/><path d="M-184.6936970281436,28.66228808632754L-188.9888018917805,29.826496519227796L-185.24996623881236,28.845912358873402z" style="fill:rgb(94,250,133)"/><path d="M130.72288017265407,-142.07686417026233L125.44626961939437,-178.92685556096248L125.30277140652366,-179.3533682583143z" style="fill:rgb(247,158,158)"/><path d="M194.6640333674567,97.98569530731986L190.53173164836372,98.90503423017014L196.58999603567634,115.43260166675188z" style="fill:rgb(127,37,217)"/><path d="M133.69704528554672,-136.59587456830454L134.07836291848844,-135.4041258901226L129.35552910017438,-167.307330501784zM130.73345397572206,-141.55967913929447L125.30277140652366,-179.3533682583143L125.1937754350988,-179.67736488758948zM133.32441399841113,-137.7121532996077L133.69704528554672,-136.59587456830454L129.00247991046476,-168.35672192577184zM130.78414885505975,-140.9112226659006L125.1937754350988,-179.67736488758948L125.12044025117649,-179.89530316641284zM130.87459579671182,-140.1378424609522L125.12044025117649,-179.89530316641284L125.08357977747647,-180.00487645986288zM132.96421132407443,-138.74165024514699L133.32441399841113,-137.7121532996077L128.64514085455943,-169.4188438248354zM132.62007021509677,-139.67381809009768L132.96421132407443,-138.74165024514699L128.28717401533254,-170.48283237758787z" style="fill:rgb(247,158,158)"/><path d="M116.83442484219403,95.73863461111746L39.56168855882914,110.52301237025648L40.87921477755232,112.99358841608404z" style="fill:rgb(127,37,217)"/><path d="M132.29549685209207,-140.49900283920798L132.62007021509677,-139.67381809009768L127.93225632607913,-171.53774673547153zM131.99383291166785,-141.20854902058548L132.29549685209207,-140.49900283920798L127.58406074262682,-172.5726801486729z" style="fill:rgb(247,158,158)"/><path d="M189.0033930654583,84.09135588593456L187.20166254406803,79.753123147634L-132.57211000605994,152.3970015016749zM-190.32864593087479,71.26984128872998L-194.19211160444462,72.24194506410078L-132.81877406287154,153.7054990275727z" style="fill:rgb(127,37,217)"/><path d="M131.71818579176445,-141.79485877984905L131.99383291166785,-141.20854902058548L127.24621515288278,-173.57687358359655z" style="fill:rgb(247,158,158)"/><path d="M182.6478858060983,77.39707275271161L39.44996456932621,107.27072733832901L40.764075522572206,109.74296151532417z" style="fill:rgb(127,37,217)"/><path d="M191.076170695893,102.16260881673243L194.6640333674567,97.98569530731986L190.53173164836372,98.90503423017014z" style="fill:rgb(83,212,212)"/><path d="M131.47146447929134,-142.25155282739226L131.71818579176445,-141.79485877984905L126.92222630405448,-174.53985987727336zM-190.96573124544628,74.43918694657552L-182.40298711616737,24.88891758712852L-182.6402592756272,25.804656078957358z" style="fill:rgb(247,158,158)"/><path d="M-129.57198515985007,156.1059130425556L-194.76275303732837,75.51358930335874L-200.5595718293439,76.96743949861404z" style="fill:rgb(127,37,217)"/><path d="M191.076170695893,102.16260881673243L195.22082540410008,101.24383771166043L194.6640333674567,97.98569530731986z" style="fill:rgb(83,212,212)"/><path d="M131.25628765073068,-142.57345619945954L131.47146447929134,-142.25155282739226L126.61551075671468,-175.45150122154303zM-191.10234348363696,74.2574765539866L-182.6402592756272,25.804656078957358L-182.93968984837707,26.61591494193167z" style="fill:rgb(247,158,158)"/><path d="M135.98194300627705,-128.7501431211667L131.89350444797432,-127.60616329328487L132.24687193128682,-126.23019065507995z" style="fill:rgb(97,120,251)"/><path d="M136.33568862762561,-127.3728229261592L132.24687193128682,-126.23019065507995L132.58230294846777,-124.87013446402143z" style="fill:rgb(94,133,250)"/><path d="M135.61429418791923,-130.12995605456032L131.5256979888664,-128.9844928207233L131.89350444797432,-127.60616329328487z" style="fill:rgb(100,108,250)"/><path d="M-191.3055859543879,73.98711242455137L-182.93968984837707,26.61591494193167L-183.2984457231593,27.31418316446459z" style="fill:rgb(247,158,158)"/><path d="M136.67203862078958,-126.0115978356845L132.58230294846777,-124.87013446402143L132.89649686235782,-123.5394112061406z" style="fill:rgb(91,145,248)"/><path d="M131.07497388515463,-142.7567581531963L131.25628765073068,-142.57345619945954L126.32929710142632,-176.30223324699725z" style="fill:rgb(247,158,158)"/><path d="M135.2363563623423,-131.498667330912L131.14707100885346,-130.35156950417252L131.5256979888664,-128.9844928207233z" style="fill:rgb(104,95,248)"/><path d="M135.98194300627705,-128.7501431211667L132.24687193128682,-126.23019065507995L136.33568862762561,-127.3728229261592z" style="fill:rgb(97,120,251)"/><path d="M135.61429418791923,-130.12995605456032L131.89350444797432,-127.60616329328487L135.98194300627705,-128.7501431211667z" style="fill:rgb(100,108,250)"/><path d="M136.33568862762561,-127.3728229261592L132.58230294846777,-124.87013446402143L136.67203862078958,-126.0115978356845z" style="fill:rgb(94,133,250)"/><path d="M-176.95777960280407,-91.57388202037545L-208.46579253481318,57.40049548111923L-204.53285965160865,56.392029560698106z" style="fill:rgb(83,212,212)"/><path d="M135.2363563623423,-131.498667330912L131.5256979888664,-128.9844928207233L135.61429418791923,-130.12995605456032z" style="fill:rgb(104,95,248)"/><path d="M136.98766301259806,-124.6798853552383L132.89649686235782,-123.5394112061406L133.18633632721364,-122.25119565413752z" style="fill:rgb(89,157,245)"/><path d="M186.11274308582114,77.1312612468843L-194.76275303732837,75.51358930335874L-134.384267453522,150.1567105298855z" style="fill:rgb(127,37,217)"/><path d="M134.8518492511241,-132.8427568593368L130.7613470313186,-131.69389679530758L131.14707100885346,-130.35156950417252z" style="fill:rgb(108,83,245)"/><path d="M136.67203862078958,-126.0115978356845L132.89649686235782,-123.5394112061406L136.98766301259806,-124.6798853552383z" style="fill:rgb(91,145,248)"/><path d="M134.8518492511241,-132.8427568593368L131.14707100885346,-130.35156950417252L135.2363563623423,-131.498667330912z" style="fill:rgb(108,83,245)"/><path d="M-204.53285965160865,56.392029560698106L-204.52393185653804,56.40389190187293L-176.95034367343752,-91.56207229414578z" style="fill:rgb(247,158,158)"/><path d="M137.2794301541374,-123.39086906599901L133.18633632721364,-122.25119565413752L133.4489061632396,-121.01826603647068z" style="fill:rgb(87,169,240)"/><path d="M136.98766301259806,-124.6798853552383L133.18633632721364,-122.25119565413752L137.2794301541374,-123.39086906599901z" style="fill:rgb(89,157,245)"/><path d="M-191.57349820275616,73.63072802068493L-183.2984457231593,27.31418316446459L-183.71312641735557,27.891996964328534z" style="fill:rgb(247,158,158)"/><path d="M134.4645816404467,-134.1488999821837L130.3723491199309,-132.99816955216778L130.7613470313186,-131.69389679530758zM134.4645816404467,-134.1488999821837L130.7613470313186,-131.69389679530758L134.8518492511241,-132.8427568593368z" style="fill:rgb(112,72,241)"/><path d="M130.92953206923204,-142.79901439409684L131.07497388515463,-142.7567581531963L126.06661019518644,-177.0830182607671z" style="fill:rgb(247,158,158)"/><path d="M137.2794301541374,-123.39086906599901L133.4489061632396,-121.01826603647068L137.54442991317575,-122.15733680461742z" style="fill:rgb(87,169,240)"/><path d="M137.54442991317575,-122.15733680461742L133.4489061632396,-121.01826603647068L133.68157253523194,-119.85292623858506z" style="fill:rgb(85,181,235)"/><path d="M134.07836291848844,-135.4041258901226L129.9839004424052,-134.2514321599327L130.3723491199309,-132.99816955216778z" style="fill:rgb(116,61,236)"/><path d="M116.83442484219403,95.73863461111746L115.69820714025364,93.17525766656335L39.56168855882914,110.52301237025648z" style="fill:rgb(127,37,217)"/><path d="M134.07836291848844,-135.4041258901226L130.3723491199309,-132.99816955216778L134.4645816404467,-134.1488999821837z" style="fill:rgb(116,61,236)"/><path d="M-191.90346676184902,73.19179453975019L-183.71312641735557,27.891996964328534L-184.17972754028258,28.343059658114605z" style="fill:rgb(247,158,158)"/><path d="M137.54442991317575,-122.15733680461742L133.68157253523194,-119.85292623858506L137.77999172269577,-120.99159587873808z" style="fill:rgb(85,181,235)"/><path d="M137.77999172269577,-120.99159587873808L133.68157253523194,-119.85292623858506L133.88197305927056,-118.76685547998537z" style="fill:rgb(84,192,228)"/><path d="M133.69704528554672,-136.59587456830454L129.5998657735976,-135.44113491051726L129.9839004424052,-134.2514321599327z" style="fill:rgb(120,51,229)"/><path d="M130.82158961423897,-142.69922079585922L130.92953206923204,-142.79901439409684L125.83025441451423,-177.78555947811464z" style="fill:rgb(247,158,158)"/><path d="M133.69704528554672,-136.59587456830454L129.9839004424052,-134.2514321599327L134.07836291848844,-135.4041258901226z" style="fill:rgb(120,51,229)"/><path d="M137.77999172269577,-120.99159587873808L133.88197305927056,-118.76685547998537L137.98373895032145,-119.90533210239987z" style="fill:rgb(84,192,228)"/><path d="M-192.29227343485476,72.67460138153078L-184.17972754028258,28.343059658114605L-184.6936970281436,28.66228808632754z" style="fill:rgb(247,158,158)"/><path d="M137.98373895032145,-119.90533210239987L133.88197305927056,-118.76685547998537L134.04805086803148,-117.77104851028392z" style="fill:rgb(84,202,220)"/><path d="M133.32441399841113,-137.7121532996077L129.22407709380047,-136.5553364348987L129.5998657735976,-135.44113491051726zM133.32441399841113,-137.7121532996077L129.5998657735976,-135.44113491051726L133.69704528554672,-136.59587456830454z" style="fill:rgb(125,41,221)"/><path d="M184.25330160808474,81.7768268493425L191.076170695893,102.16260881673243L190.53173164836372,98.90503423017014zM130.75240864081445,-142.45785679179644L130.82158961423897,-142.69922079585922L125.62273464179496,-178.40236047376925z" style="fill:rgb(247,158,158)"/><path d="M137.98373895032145,-119.90533210239987L134.04805086803148,-117.77104851028392L138.15354752771933,-118.90954000122686z" style="fill:rgb(84,202,220)"/><path d="M-192.73610915658264,72.08421190903088L-184.6936970281436,28.66228808632754L-185.24996623881236,28.845912358873402z" style="fill:rgb(247,158,158)"/><path d="M132.96421132407443,-138.74165024514699L128.86029636425997,-137.5827024844661L129.22407709380047,-136.5553364348987zM132.96421132407443,-138.74165024514699L129.22407709380047,-136.5553364348987L133.32441399841113,-137.7121532996077z" style="fill:rgb(129,33,213)"/><path d="M130.72288017265407,-142.07686417026233L130.75240864081445,-142.45785679179644L125.44626961939437,-178.92685556096248z" style="fill:rgb(247,158,158)"/><path d="M132.62007021509677,-139.67381809009768L128.86029636425997,-137.5827024844661L132.96421132407443,-138.74165024514699zM132.62007021509677,-139.67381809009768L128.51220257224102,-138.5127397702176L128.86029636425997,-137.5827024844661z" style="fill:rgb(134,25,203)"/><path d="M-193.2306072985187,71.42642810125878L-185.24996623881236,28.845912358873402L-185.8429867760473,28.891513085335582zM130.73345397572206,-141.55967913929447L130.72288017265407,-142.07686417026233L125.30277140652366,-179.3533682583143zM115.69820714025364,93.17525766656335L116.49925498564782,92.47727553931172L115.36539983157881,89.91244758894193z" style="fill:rgb(247,158,158)"/><path d="M189.0033930654583,84.09135588593456L191.076170695893,102.16260881673243L195.22082540410008,101.24383771166043z" style="fill:rgb(127,37,217)"/><path d="M115.69820714025364,93.17525766656335L116.83442484219403,95.73863461111746L116.49925498564782,92.47727553931172zM-218.03333500390812,34.26353487912471L-203.92176592284707,53.11294422431299L-177.41776911241277,-89.10561114005452z" style="fill:rgb(247,158,158)"/><path d="M132.29549685209207,-140.49900283920798L128.51220257224102,-138.5127397702176L132.62007021509677,-139.67381809009768zM132.29549685209207,-140.49900283920798L128.18331761061162,-139.3358143263498L128.51220257224102,-138.5127397702176z" style="fill:rgb(138,18,193)"/><path d="M-193.77088533161833,70.70773981129128L-185.8429867760473,28.891513085335582L-186.46678963690957,28.798078934167748zM130.78414885505975,-140.9112226659006L130.73345397572206,-141.55967913929447L125.1937754350988,-179.67736488758948zM153.67980012962644,-15.287354971523941L188.4545300382709,80.8237685222813L164.56045746541832,-61.42660313302334z" style="fill:rgb(247,158,158)"/><path d="M205.61802892902807,98.93902154238229L189.0033930654583,84.09135588593456L195.22082540410008,101.24383771166043z" style="fill:rgb(127,37,217)"/><path d="M130.87459579671182,-140.1378424609522L130.78414885505975,-140.9112226659006L125.12044025117649,-179.89530316641284z" style="fill:rgb(247,158,158)"/><path d="M131.99383291166785,-141.20854902058548L128.18331761061162,-139.3358143263498L132.29549685209207,-140.49900283920798z" style="fill:rgb(142,13,182)"/><path d="M-194.35159249206924,69.9352765293461L-186.46678963690957,28.798078934167748L-187.11504733340783,28.566033270343862z" style="fill:rgb(247,158,158)"/><path d="M116.83442484219403,95.73863461111746L157.74188024432576,83.07500889907705L116.49925498564782,92.47727553931172z" style="fill:rgb(83,212,212)"/><path d="M131.99383291166785,-141.20854902058548L127.8770367850516,-140.04326062742567L128.18331761061162,-139.3358143263498z" style="fill:rgb(142,13,182)"/><path d="M-194.96694180114994,69.11672227523557L-187.11504733340783,28.566033270343862L-187.7811160213961,28.197257560317883z" style="fill:rgb(247,158,158)"/><path d="M131.71818579176445,-141.79485877984905L127.8770367850516,-140.04326062742567L131.99383291166785,-141.20854902058548zM131.71818579176445,-141.79485877984905L127.59651235448122,-140.62754474675592L127.8770367850516,-140.04326062742567z" style="fill:rgb(146,9,171)"/><path d="M182.6478858060983,77.39707275271161L181.67757952658985,74.74998050073916L39.44996456932621,107.27072733832901z" style="fill:rgb(127,37,217)"/><path d="M-195.6107777413913,68.26027599752032L-187.7811160213961,28.197257560317883L-188.45812506408097,27.69508958449432z" style="fill:rgb(247,158,158)"/><path d="M131.47146447929134,-142.25155282739226L127.59651235448122,-140.62754474675592L131.71818579176445,-141.79485877984905zM131.47146447929134,-142.25155282739226L127.34470303620651,-141.08226686776075L127.59651235448122,-140.62754474675592z" style="fill:rgb(150,6,159)"/><path d="M115.69820714025364,93.17525766656335L156.7093267417911,80.45904535021464L115.36539983157881,89.91244758894193z" style="fill:rgb(83,212,212)"/><path d="M158.20021558618419,86.34145869393052L115.69820714025364,93.17525766656335L116.83442484219403,95.73863461111746z" style="fill:rgb(127,37,217)"/><path d="M184.25330160808474,81.7768268493425L184.78939489576896,85.04394163139034L191.076170695893,102.16260881673243zM-196.27663425746775,67.37454824455092L-188.45812506408097,27.69508958449432L-189.13904260417104,27.064310098078504z" style="fill:rgb(247,158,158)"/><path d="M131.25628765073068,-142.57345619945954L127.34470303620651,-141.08226686776075L131.47146447929134,-142.25155282739226zM131.25628765073068,-142.57345619945954L127.12427770577825,-141.4023152671531L127.34470303620651,-141.08226686776075z" style="fill:rgb(154,4,146)"/><path d="M189.0033930654583,84.09135588593456L184.78939489576896,85.04394163139034L191.076170695893,102.16260881673243z" style="fill:rgb(127,37,217)"/><path d="M116.83442484219403,95.73863461111746L158.20021558618419,86.34145869393052L157.74188024432576,83.07500889907705z" style="fill:rgb(83,212,212)"/><path d="M-196.95776889002596,66.46850462788294L-189.13904260417104,27.064310098078504L-189.81672747101337,26.311102453719254z" style="fill:rgb(247,158,158)"/><path d="M131.07497388515463,-142.7567581531963L127.12427770577825,-141.4023152671531L131.25628765073068,-142.57345619945954zM131.07497388515463,-142.7567581531963L126.93760782261815,-141.58385584966783L127.12427770577825,-141.4023152671531z" style="fill:rgb(157,3,134)"/><path d="M-197.647259897818,65.55134425254354L-189.81672747101337,26.311102453719254L-190.48404517393917,25.443017826079842zM-190.96573124544628,74.43918694657552L-190.8970981372477,74.53048703922467L-182.40298711616737,24.88891758712852zM-198.33802695376474,64.63246243796091L-190.48404517393917,25.443017826079842L-191.1338939936778,24.46888599768912zM-191.10234348363696,74.2574765539866L-190.96573124544628,74.43918694657552L-182.6402592756272,25.804656078957358z" style="fill:rgb(247,158,158)"/><path d="M130.92953206923204,-142.79901439409684L126.93760782261815,-141.58385584966783L131.07497388515463,-142.7567581531963z" style="fill:rgb(160,4,121)"/><path d="M154.1673908037291,-12.013404907103956L132.1499479714152,-159.00145778804048L132.14549211249445,-159.01471532076292z" style="fill:rgb(247,158,158)"/><path d="M130.92953206923204,-142.79901439409684L126.78674646953341,-141.62449654053114L126.93760782261815,-141.58385584966783z" style="fill:rgb(160,4,121)"/><path d="M205.61802892902807,98.93902154238229L199.5752149694893,81.7015787988052L189.0033930654583,84.09135588593456z" style="fill:rgb(127,37,217)"/><path d="M128.58137952419466,-155.44418153181962L153.67980012962644,-15.287354971523941L132.51395997529255,-156.57163494481983z" style="fill:rgb(83,212,212)"/><path d="M-191.3055859543879,73.98711242455137L-191.10234348363696,74.2574765539866L-182.93968984837707,26.61591494193167z" style="fill:rgb(247,158,158)"/><path d="M115.69820714025364,93.17525766656335L157.16590828047256,83.72681463136988L156.7093267417911,80.45904535021464z" style="fill:rgb(83,212,212)"/><path d="M-199.02300331876748,63.7213085336923L-191.1338939936778,24.46888599768912L-191.75938903480304,23.39874248676062z" style="fill:rgb(247,158,158)"/><path d="M158.20021558618419,86.34145869393052L157.16590828047256,83.72681463136988L115.69820714025364,93.17525766656335z" style="fill:rgb(127,37,217)"/><path d="M-191.57349820275616,73.63072802068493L-191.3055859543879,73.98711242455137L-183.2984457231593,27.31418316446459zM156.7093267417911,80.45904535021464L158.20021558618419,86.34145869393052L157.74188024432576,83.07500889907705zM-199.6950888134101,62.827296703039465L-191.75938903480304,23.39874248676062L-192.3538277252269,22.243720639151345zM-191.90346676184902,73.19179453975019L-191.57349820275616,73.63072802068493L-183.71312641735557,27.891996964328534zM-200.34728496710812,61.95973128761107L-192.3538277252269,22.243720639151345L-192.91082782555708,21.015926852395697zM-192.29227343485476,72.67460138153078L-191.90346676184902,73.19179453975019L-184.17972754028258,28.343059658114605zM-204.52393185653804,56.40389190187293L-195.38124005284914,7.797924352433886L-195.26062182967698,6.69492436854344zM-200.97278146893223,61.12767727671369L-192.91082782555708,21.015926852395697L-193.42441318153217,19.728312899022807zM156.7093267417911,80.45904535021464L157.16590828047256,83.72681463136988L158.20021558618419,86.34145869393052zM-204.45271618535196,56.49862918667918L-195.4325860701571,8.981256323264983L-195.38124005284914,7.797924352433886zM-201.5650106002498,60.3398873231831L-193.42441318153217,19.728312899022807L-193.88906821261344,18.39452553148264zM-192.73610915658264,72.08421190903088L-192.29227343485476,72.67460138153078L-184.6936970281436,28.66228808632754z" style="fill:rgb(247,158,158)"/><path d="M-189.22622449138348,-107.81839594721437L-222.01518821365107,35.31116307538026L-218.03333500390812,34.26353487912471z" style="fill:rgb(83,212,212)"/><path d="M-204.31106470125417,56.68707245928328L-195.41391823104726,10.232557956536668L-195.4325860701571,8.981256323264983zM-202.11771267249625,59.60467236877675L-193.88906821261344,18.39452553148264L-194.2997941116811,17.028744184174286zM-204.1004676726852,56.96719002374504L-195.32534496046753,11.538672981564314L-195.41391823104726,10.232557956536668zM-202.62502722332417,58.92983828878927L-194.2997941116811,17.028744184174286L-194.6521960917648,15.64552443214388zM-203.8232539919954,57.33594915122432L-195.1676801314427,12.885791306901863L-195.32534496046753,11.538672981564314zM-203.08154914054185,58.322573567653386L-194.6521960917648,15.64552443214388L-194.94251568773072,14.259615263024886zM-203.48239243479918,57.78937095024835L-194.94251568773072,14.259615263024886L-195.1676801314427,12.885791306901863zM-193.2306072985187,71.42642810125878L-192.73610915658264,72.08421190903088L-185.24996623881236,28.845912358873402zM-193.77088533161833,70.70773981129128L-193.2306072985187,71.42642810125878L-185.8429867760473,28.891513085335582z" style="fill:rgb(247,158,158)"/><path d="M187.20166254406803,79.753123147634L157.16590828047256,83.72681463136988L158.20021558618419,86.34145869393052z" style="fill:rgb(127,37,217)"/><path d="M-194.35159249206924,69.9352765293461L-193.77088533161833,70.70773981129128L-186.46678963690957,28.798078934167748zM-194.96694180114994,69.11672227523557L-194.35159249206924,69.9352765293461L-187.11504733340783,28.566033270343862z" style="fill:rgb(247,158,158)"/><path d="M197.4506771831634,74.02241847151433L185.9070214832204,73.78290844181254L186.8667037607521,76.43529184401199z" style="fill:rgb(127,37,217)"/><path d="M-195.6107777413913,68.26027599752032L-194.96694180114994,69.11672227523557L-187.7811160213961,28.197257560317883z" style="fill:rgb(247,158,158)"/><path d="M187.20166254406803,79.753123147634L186.11274308582114,77.1312612468843L157.16590828047256,83.72681463136988z" style="fill:rgb(127,37,217)"/><path d="M-196.27663425746775,67.37454824455092L-195.6107777413913,68.26027599752032L-188.45812506408097,27.69508958449432z" style="fill:rgb(247,158,158)"/><path d="M197.4506771831634,74.02241847151433L196.5177498718796,71.35673755041955L185.9070214832204,73.78290844181254z" style="fill:rgb(127,37,217)"/><path d="M-196.95776889002596,66.46850462788294L-196.27663425746775,67.37454824455092L-189.13904260417104,27.064310098078504z" style="fill:rgb(247,158,158)"/><path d="M138.15354752771933,-118.90954000122686L134.04805086803148,-117.77104851028392L142.35448106804168,-60.554952183019246z" style="fill:rgb(83,212,212)"/><path d="M-197.647259897818,65.55134425254354L-196.95776889002596,66.46850462788294L-189.81672747101337,26.311102453719254zM-198.33802695376474,64.63246243796091L-197.647259897818,65.55134425254354L-190.48404517393917,25.443017826079842z" style="fill:rgb(247,158,158)"/><path d="M-190.8884959640579,74.54191648312897L-190.32864593087479,71.26984128872998L-194.19211160444462,72.24194506410078z" style="fill:rgb(83,212,212)"/><path d="M-199.02300331876748,63.7213085336923L-198.33802695376474,64.63246243796091L-191.1338939936778,24.46888599768912z" style="fill:rgb(247,158,158)"/><path d="M-190.8884959640579,74.54191648312897L-194.19211160444462,72.24194506410078L-194.76275303732837,75.51358930335874z" style="fill:rgb(83,212,212)"/><path d="M-199.6950888134101,62.827296703039465L-199.02300331876748,63.7213085336923L-191.75938903480304,23.39874248676062zM-200.34728496710812,61.95973128761107L-199.6950888134101,62.827296703039465L-192.3538277252269,22.243720639151345zM-200.97278146893223,61.12767727671369L-200.34728496710812,61.95973128761107L-192.91082782555708,21.015926852395697zM-201.5650106002498,60.3398873231831L-200.97278146893223,61.12767727671369L-193.42441318153217,19.728312899022807zM-202.11771267249625,59.60467236877675L-201.5650106002498,60.3398873231831L-193.88906821261344,18.39452553148264zM-202.62502722332417,58.92983828878927L-202.11771267249625,59.60467236877675L-194.2997941116811,17.028744184174286zM-203.08154914054185,58.322573567653386L-202.62502722332417,58.92983828878927L-194.6521960917648,15.64552443214388zM-207.84358386104913,54.12175246494159L-194.76275303732837,75.51358930335874L-194.19211160444462,72.24194506410078z" style="fill:rgb(247,158,158)"/><path d="M125.07896649586209,-180.01860178807925L121.09568682945371,-178.8521786564387L141.66624606335378,-32.37905610169095z" style="fill:rgb(83,212,212)"/><path d="M-203.48239243479918,57.78937095024835L-203.08154914054185,58.322573567653386L-194.94251568773072,14.259615263024886zM-203.8232539919954,57.33594915122432L-203.48239243479918,57.78937095024835L-195.1676801314427,12.885791306901863zM-204.52393185653804,56.40389190187293L-204.45271618535196,56.49862918667918L-195.38124005284914,7.797924352433886zM-204.1004676726852,56.96719002374504L-203.8232539919954,57.33594915122432L-195.32534496046753,11.538672981564314zM-204.45271618535196,56.49862918667918L-204.31106470125417,56.68707245928328L-195.4325860701571,8.981256323264983zM-204.31106470125417,56.68707245928328L-204.1004676726852,56.96719002374504L-195.41391823104726,10.232557956536668zM146.34992896360828,-33.5800293698834L125.08357977747647,-180.00487645986288L125.07896649586209,-180.01860178807925z" style="fill:rgb(247,158,158)"/><path d="M-194.76275303732837,75.51358930335874L-214.35012735669008,58.90933429185875L-200.5595718293439,76.96743949861404zM-204.53285965160865,56.392029560698106L-194.76275303732837,75.51358930335874L-190.8884959640579,74.54191648312897z" style="fill:rgb(127,37,217)"/><path d="M-207.84358386104913,54.12175246494159L-208.46579253481318,57.40049548111923L-194.76275303732837,75.51358930335874z" style="fill:rgb(247,158,158)"/><path d="M-194.76275303732837,75.51358930335874L-208.46579253481318,57.40049548111923L-214.35012735669008,58.90933429185875zM-204.53285965160865,56.392029560698106L-208.46579253481318,57.40049548111923L-194.76275303732837,75.51358930335874z" style="fill:rgb(127,37,217)"/><path d="M149.67758355300526,-62.48138547098237L211.44760727094382,115.56825871547433L210.8536965736946,112.31937766082018z" style="fill:rgb(247,158,158)"/><path d="M138.15354752771933,-118.90954000122686L142.35448106804168,-60.554952183019246L146.72330784090641,-61.70439074770069z" style="fill:rgb(83,212,212)"/><path d="M137.74050392873926,-59.34072706952349L125.42954979230117,-177.60503101841044L118.091952971548,-199.3901290261021z" style="fill:rgb(247,158,158)"/><path d="M153.67980012962644,-15.287354971523941L184.25330160808474,81.7768268493425L188.4545300382709,80.8237685222813zM-218.03333500390812,34.26353487912471L-207.84358386104913,54.12175246494159L-203.92176592284707,53.11294422431299z" style="fill:rgb(127,37,217)"/><path d="M118.091952971548,-199.3901290261021L114.03301066126434,-198.1806789677704L132.9846539808414,-58.089466010398255z" style="fill:rgb(83,212,212)"/><path d="M199.5752149694893,81.7015787988052L149.57397130430786,-10.846564929541785L189.0033930654583,84.09135588593456zM-218.03333500390812,34.26353487912471L-222.01518821365107,35.31116307538026L-207.84358386104913,54.12175246494159zM186.11274308582114,77.1312612468843L149.57397130430786,-10.846564929541785L-194.76275303732837,75.51358930335874z" style="fill:rgb(127,37,217)"/><path d="M128.58137952419466,-155.44418153181962L149.09667702705272,-14.134178170207292L153.67980012962644,-15.287354971523941z" style="fill:rgb(83,212,212)"/><path d="M149.57397130430786,-10.846564929541785L-204.53285965160865,56.392029560698106L-190.8884959640579,74.54191648312897z" style="fill:rgb(127,37,217)"/><path d="M146.72330784090641,-61.70439074770069L142.35448106804168,-60.554952183019246L142.46179749761106,-59.65807823537959zM146.72330784090641,-61.70439074770069L142.46179749761106,-59.65807823537959L146.8356572120503,-60.80787773634197z" style="fill:rgb(84,220,202)"/><path d="M154.1673908037291,-12.013404907103956L154.17230521333815,-11.999833840448938L132.1499479714152,-159.00145778804048z" style="fill:rgb(247,158,158)"/><path d="M146.8356572120503,-60.80787773634197L142.46179749761106,-59.65807823537959L142.52894094067386,-58.88147119092721zM146.8356572120503,-60.80787773634197L142.52894094067386,-58.88147119092721L146.90813593907865,-60.03184020206586z" style="fill:rgb(84,228,192)"/><path d="M146.90813593907865,-60.03184020206586L142.52894094067386,-58.88147119092721L142.55508045723386,-58.2333625610805zM146.90813593907865,-60.03184020206586L142.55508045723386,-58.2333625610805L146.93989459670814,-59.38452781096104z" style="fill:rgb(85,235,181)"/><path d="M146.93989459670814,-59.38452781096104L142.55508045723386,-58.2333625610805L142.53979186220334,-57.72079517021625zM146.93989459670814,-59.38452781096104L142.53979186220334,-57.72079517021625L146.93044178219768,-58.8729537459202z" style="fill:rgb(87,240,169)"/><path d="M146.93044178219768,-58.8729537459202L142.53979186220334,-57.72079517021625L142.48305495675163,-57.34949516574252zM146.93044178219768,-58.8729537459202L142.48305495675163,-57.34949516574252L146.8797102927562,-58.502858284762965z" style="fill:rgb(89,245,157)"/><path d="M146.8797102927562,-58.502858284762965L142.48305495675163,-57.34949516574252L142.38529857826143,-57.123830003144214zM146.8797102927562,-58.502858284762965L142.38529857826143,-57.123830003144214L146.78804551812433,-58.27858088435166z" style="fill:rgb(91,248,145)"/><path d="M146.78804551812433,-58.27858088435166L142.38529857826143,-57.123830003144214L142.24734490812753,-57.046718384233586zM146.78804551812433,-58.27858088435166L142.24734490812753,-57.046718384233586L146.65620750099146,-58.203033219964915z" style="fill:rgb(94,250,133)"/><path d="M153.67980012962644,-15.287354971523941L149.09667702705272,-14.134178170207292L184.25330160808474,81.7768268493425z" style="fill:rgb(127,37,217)"/><path d="M154.12810923194084,-12.121778561168332L146.72330784090641,-61.70439074770069L146.8356572120503,-60.80787773634197z" style="fill:rgb(247,158,158)"/><path d="M158.10509427294173,-36.59424545205949L-228.66687091224918,40.16217992196064L-214.35012735669008,58.90933429185875z" style="fill:rgb(127,37,217)"/><path d="M154.0499124704222,-12.337479013888073L146.8356572120503,-60.80787773634197L146.90813593907865,-60.03184020206586zM153.93358249355384,-12.65842351479726L146.90813593907865,-60.03184020206586L146.93989459670814,-59.38452781096104z" style="fill:rgb(247,158,158)"/><path d="M125.07896649586209,-180.01860178807925L141.66624606335378,-32.37905610169095L146.34992896360828,-33.5800293698834z" style="fill:rgb(83,212,212)"/><path d="M153.78022673388617,-13.08150824266072L146.93989459670814,-59.38452781096104L146.93044178219768,-58.8729537459202z" style="fill:rgb(247,158,158)"/><path d="M199.5752149694893,81.7015787988052L165.7123667169325,-14.894096203489855L149.57397130430786,-10.846564929541785z" style="fill:rgb(127,37,217)"/><path d="M146.34992896360828,-33.5800293698834L146.35504674985856,-33.56589772555548L125.08357977747647,-180.00487645986288zM153.59133127835236,-13.60263129909744L146.93044178219768,-58.8729537459202L146.8797102927562,-58.502858284762965zM153.36873668238073,-14.216725224097086L146.8797102927562,-58.502858284762965L146.78804551812433,-58.27858088435166zM153.1146066179855,-14.917800406376855L146.78804551812433,-58.27858088435166L146.65620750099146,-58.203033219964915zM152.83143609643398,-15.698994953647103L146.65620750099146,-58.203033219964915L146.48538616458714,-58.277622721628696zM152.52201466695243,-16.552624846142916L146.48538616458714,-58.277622721628696L146.2771754253009,-58.50223052471289zM137.74050392873926,-59.34072706952349L145.87286732147106,-36.86432649696111L125.42954979230117,-177.60503101841044zM152.1893914500659,-17.470259503066345L146.2771754253009,-58.50223052471289L146.03356934902652,-58.87515186722399zM151.83686616732703,-18.442782790990282L146.03356934902652,-58.87515186722399L145.75694778166888,-59.39313878009305z" style="fill:rgb(247,158,158)"/><path d="M-228.66687091224918,40.16217992196064L149.67758355300526,-62.48138547098237L-227.97244941295105,36.87852695215927z" style="fill:rgb(83,212,212)"/><path d="M151.46797424304967,-19.460489403540567L145.75694778166888,-59.39313878009305L145.4500821189293,-60.05135651401987zM151.08639928501822,-20.51315733203861L145.4500821189293,-60.05135651401987L145.1160499569519,-60.84346073801824zM150.69601706208383,-21.590155993623554L145.1160499569519,-60.84346073801824L144.75828410687302,-61.76160407685378zM150.30077473812014,-22.680541317099003L144.75828410687302,-61.76160407685378L144.38045855976145,-62.79653501519719zM154.12810923194084,-12.121778561168332L154.1673908037291,-12.013404907103956L146.72330784090641,-61.70439074770069zM149.90472082649157,-23.77316714656816L144.38045855976145,-62.79653501519719L143.98651692504555,-63.93766014923703zM154.0499124704222,-12.337479013888073L154.12810923194084,-12.121778561168332L146.8356572120503,-60.80787773634197z" style="fill:rgb(247,158,158)"/><path d="M149.57397130430786,-10.846564929541785L141.66624606335378,-32.37905610169095L-204.53285965160865,56.392029560698106z" style="fill:rgb(127,37,217)"/><path d="M153.93358249355384,-12.65842351479726L154.0499124704222,-12.337479013888073L146.90813593907865,-60.03184020206586zM149.51192493867953,-24.856791146850643L143.98651692504555,-63.93766014923703L143.580587824367,-65.17317465876478zM153.78022673388617,-13.08150824266072L153.93358249355384,-12.65842351479726L146.93989459670814,-59.38452781096104zM149.12645673942285,-25.92019807515416L143.580587824367,-65.17317465876478L143.16696302953144,-66.4901737511853zM153.59133127835236,-13.60263129909744L153.78022673388617,-13.08150824266072L146.93044178219768,-58.8729537459202zM148.75233933550527,-26.952322255578213L143.16696302953144,-66.4901737511853L142.75004577536353,-67.87479244628477zM153.36873668238073,-14.216725224097086L153.59133127835236,-13.60263129909744L146.8797102927562,-58.502858284762965zM146.35504674985856,-33.56589772555548L139.33586597794448,-82.04856501213027L139.15073899286006,-83.16246093089221zM148.39347000314976,-27.94234874909148L142.75004577536353,-67.87479244628477L142.33425455162293,-69.31236572985404zM146.39594170809363,-33.453067098869106L139.55833817833366,-80.836992735474L139.33586597794448,-82.04856501213027zM148.05364231996833,-28.879850757556724L142.33425455162293,-69.31236572985404L141.9240570128175,-70.78759564065642zM153.1146066179855,-14.917800406376855L153.36873668238073,-14.216725224097086L146.78804551812433,-58.27858088435166zM146.477304569709,-33.2286370022934L139.81585844747565,-79.54037729301615L139.55833817833366,-80.836992735474zM147.73645598027187,-29.75490748690574L141.9240570128175,-70.78759564065642L141.52383583828748,-72.2847393494043zM149.67758355300526,-62.48138547098237L150.17875149184124,-59.204579524710994L211.44760727094382,115.56825871547433zM146.5982163787491,-32.895046792368326L140.10577382542667,-78.17235407004914L139.81585844747565,-79.54037729301615z" style="fill:rgb(247,158,158)"/><path d="M118.091952971548,-199.3901290261021L132.9846539808414,-58.089466010398255L137.74050392873926,-59.34072706952349z" style="fill:rgb(83,212,212)"/><path d="M147.44527453668152,-30.55820889247518L141.52383583828748,-72.2847393494043L141.13787329587578,-73.787789898216zM146.75739097514762,-32.45592081492269L140.42505594644499,-76.74740027846568L140.10577382542667,-78.17235407004914zM147.1832260555162,-31.281164242776853L141.13787329587578,-73.787789898216L140.7703120462687,-75.28065900349947zM146.95310414621446,-31.916012629851004L140.7703120462687,-75.28065900349947L140.42505594644499,-76.74740027846568zM152.83143609643398,-15.698994953647103L153.1146066179855,-14.917800406376855L146.65620750099146,-58.203033219964915zM152.52201466695243,-16.552624846142916L152.83143609643398,-15.698994953647103L146.48538616458714,-58.277622721628696zM152.1893914500659,-17.470259503066345L152.52201466695243,-16.552624846142916L146.2771754253009,-58.50223052471289zM151.83686616732703,-18.442782790990282L152.1893914500659,-17.470259503066345L146.03356934902652,-58.87515186722399zM151.46797424304967,-19.460489403540567L151.83686616732703,-18.442782790990282L145.75694778166888,-59.39313878009305zM151.08639928501822,-20.51315733203861L151.46797424304967,-19.460489403540567L145.4500821189293,-60.05135651401987zM150.69601706208383,-21.590155993623554L151.08639928501822,-20.51315733203861L145.1160499569519,-60.84346073801824zM150.30077473812014,-22.680541317099003L150.69601706208383,-21.590155993623554L144.75828410687302,-61.76160407685378zM149.90472082649157,-23.77316714656816L150.30077473812014,-22.680541317099003L144.38045855976145,-62.79653501519719z" style="fill:rgb(247,158,158)"/><path d="M154.17230521333815,-11.999833840448938L153.67980012962644,-15.287354971523941L149.09667702705272,-14.134178170207292zM154.17230521333815,-11.999833840448938L149.09667702705272,-14.134178170207292L149.57397130430786,-10.846564929541785z" style="fill:rgb(83,212,212)"/><path d="M149.51192493867953,-24.856791146850643L149.90472082649157,-23.77316714656816L143.98651692504555,-63.93766014923703zM149.12645673942285,-25.92019807515416L149.51192493867953,-24.856791146850643L143.580587824367,-65.17317465876478zM148.75233933550527,-26.952322255578213L149.12645673942285,-25.92019807515416L143.16696302953144,-66.4901737511853zM148.39347000314976,-27.94234874909148L148.75233933550527,-26.952322255578213L142.75004577536353,-67.87479244628477zM148.05364231996833,-28.879850757556724L148.39347000314976,-27.94234874909148L142.33425455162293,-69.31236572985404zM147.73645598027187,-29.75490748690574L148.05364231996833,-28.879850757556724L141.9240570128175,-70.78759564065642zM147.44527453668152,-30.55820889247518L147.73645598027187,-29.75490748690574L141.52383583828748,-72.2847393494043zM147.1832260555162,-31.281164242776853L147.44527453668152,-30.55820889247518L141.13787329587578,-73.787789898216zM141.20496615437176,-35.663606860480854L149.57397130430786,-10.846564929541785L149.09667702705272,-14.134178170207292zM146.95310414621446,-31.916012629851004L147.1832260555162,-31.281164242776853L140.7703120462687,-75.28065900349947zM146.75739097514762,-32.45592081492269L146.95310414621446,-31.916012629851004L140.42505594644499,-76.74740027846568zM146.35504674985856,-33.56589772555548L146.39594170809363,-33.453067098869106L139.33586597794448,-82.04856501213027zM146.5982163787491,-32.895046792368326L146.75739097514762,-32.45592081492269L140.10577382542667,-78.17235407004914zM146.39594170809363,-33.453067098869106L146.477304569709,-33.2286370022934L139.55833817833366,-80.836992735474zM146.477304569709,-33.2286370022934L146.5982163787491,-32.895046792368326L139.81585844747565,-79.54037729301615z" style="fill:rgb(247,158,158)"/><path d="M158.10509427294173,-36.59424545205949L150.17875149184124,-59.204579524710994L-228.66687091224918,40.16217992196064zM146.34992896360828,-33.5800293698834L149.57397130430786,-10.846564929541785L154.17230521333815,-11.999833840448938zM165.7123667169325,-14.894096203489855L146.34992896360828,-33.5800293698834L154.17230521333815,-11.999833840448938z" style="fill:rgb(127,37,217)"/><path d="M141.20496615437176,-35.663606860480854L141.66624606335378,-32.37905610169095L149.57397130430786,-10.846564929541785z" style="fill:rgb(247,158,158)"/><path d="M-228.66687091224918,40.16217992196064L150.17875149184124,-59.204579524710994L149.67758355300526,-62.48138547098237z" style="fill:rgb(83,212,212)"/><path d="M146.34992896360828,-33.5800293698834L141.66624606335378,-32.37905610169095L149.57397130430786,-10.846564929541785zM165.7123667169325,-14.894096203489855L158.10509427294173,-36.59424545205949L146.34992896360828,-33.5800293698834zM137.74050392873926,-59.34072706952349L141.20496615437176,-35.663606860480854L145.87286732147106,-36.86432649696111zM137.74050392873926,-59.34072706952349L132.9846539808414,-58.089466010398255L141.20496615437176,-35.663606860480854z" style="fill:rgb(127,37,217)"/></svg>
