solid JSxCAD
facet normal 0 1 0
outer loop
vertex 260 144 90
vertex -260 144 96
vertex 260 144 96
endloop
endfacet
facet normal 0 1 0
outer loop
vertex -260 144 96
vertex 260 144 90
vertex -260 144 90
endloop
endfacet
facet normal 0 -1 0
outer loop
vertex -260 -150 96
vertex 260 -150 90
vertex 260 -150 96
endloop
endfacet
facet normal 0 -1 0
outer loop
vertex 260 -150 90
vertex -260 -150 96
vertex -260 -150 90
endloop
endfacet
facet normal 0 0 1
outer loop
vertex -260 144 96
vertex 260 -150 96
vertex 260 144 96
endloop
endfacet
facet normal 0 0 1
outer loop
vertex 260 -150 96
vertex -260 144 96
vertex -260 -150 96
endloop
endfacet
facet normal 0 0 -1
outer loop
vertex 260 -150 90
vertex -260 144 90
vertex 260 144 90
endloop
endfacet
facet normal 0 0 -1
outer loop
vertex -260 144 90
vertex 260 -150 90
vertex -260 -150 90
endloop
endfacet
facet normal -1 0 0
outer loop
vertex -260 -150 90
vertex -260 144 96
vertex -260 144 90
endloop
endfacet
facet normal -1 0 0
outer loop
vertex -260 144 96
vertex -260 -150 90
vertex -260 -150 96
endloop
endfacet
facet normal 1 0 0
outer loop
vertex 260 -150 90
vertex 260 144 96
vertex 260 -150 96
endloop
endfacet
facet normal 1 0 0
outer loop
vertex 260 144 96
vertex 260 -150 90
vertex 260 144 90
endloop
endfacet
facet normal 0 1 0
outer loop
vertex -260 144 0
vertex 260 144 6
vertex 260 144 0
endloop
endfacet
facet normal 0 1 0
outer loop
vertex 260 144 6
vertex -260 144 0
vertex -260 144 6
endloop
endfacet
facet normal 0 -1 0
outer loop
vertex -260 -150 6
vertex 260 -150 0
vertex 260 -150 6
endloop
endfacet
facet normal 0 -1 0
outer loop
vertex 260 -150 0
vertex -260 -150 6
vertex -260 -150 0
endloop
endfacet
facet normal 0 0 1
outer loop
vertex -260 -150 6
vertex 260 144 6
vertex -260 144 6
endloop
endfacet
facet normal 0 0 1
outer loop
vertex 260 144 6
vertex -260 -150 6
vertex 260 -150 6
endloop
endfacet
facet normal 0 0 -1
outer loop
vertex 260 -150 0
vertex -260 144 0
vertex 260 144 0
endloop
endfacet
facet normal 0 0 -1
outer loop
vertex -260 144 0
vertex 260 -150 0
vertex -260 -150 0
endloop
endfacet
facet normal -1 0 0
outer loop
vertex -260 -150 0
vertex -260 144 6
vertex -260 144 0
endloop
endfacet
facet normal -1 0 0
outer loop
vertex -260 144 6
vertex -260 -150 0
vertex -260 -150 6
endloop
endfacet
facet normal 1 0 0
outer loop
vertex 260 -150 6
vertex 260 144 0
vertex 260 144 6
endloop
endfacet
facet normal 1 0 0
outer loop
vertex 260 144 0
vertex 260 -150 6
vertex 260 -150 0
endloop
endfacet
facet normal 1 0 0
outer loop
vertex 260 144 360
vertex 260 150 0
vertex 260 150 360
endloop
endfacet
facet normal 1 0 0
outer loop
vertex 260 144 96
vertex 260 150 0
vertex 260 144 360
endloop
endfacet
facet normal 1 0 0
outer loop
vertex 260 144 90
vertex 260 150 0
vertex 260 144 96
endloop
endfacet
facet normal 1 0 0
outer loop
vertex 260 144 6
vertex 260 150 0
vertex 260 144 90
endloop
endfacet
facet normal 1 0 0
outer loop
vertex 260 150 0
vertex 260 144 6
vertex 260 144 0
endloop
endfacet
facet normal 0 -1 0
outer loop
vertex -260 144 360
vertex 260 144 0
vertex 260 144 360
endloop
endfacet
facet normal 0 -1 0
outer loop
vertex -260 144 96
vertex 260 144 0
vertex -260 144 360
endloop
endfacet
facet normal 0 -1 0
outer loop
vertex -260 144 90
vertex 260 144 0
vertex -260 144 96
endloop
endfacet
facet normal 0 -1 0
outer loop
vertex 260 144 0
vertex -260 144 90
vertex -260 144 0
endloop
endfacet
facet normal 0 1 0
outer loop
vertex 260 150 0
vertex -260 150 360
vertex 260 150 360
endloop
endfacet
facet normal 0 1 0
outer loop
vertex -260 150 360
vertex 260 150 0
vertex -260 150 0
endloop
endfacet
facet normal 0 0 -1
outer loop
vertex 260 144 0
vertex -260 150 0
vertex 260 150 0
endloop
endfacet
facet normal 0 0 -1
outer loop
vertex -260 150 0
vertex 260 144 0
vertex -260 144 0
endloop
endfacet
facet normal -1 0 0
outer loop
vertex -260 144 0
vertex -260 150 360
vertex -260 150 0
endloop
endfacet
facet normal -1 0 0
outer loop
vertex -260 144 0
vertex -260 144 360
vertex -260 150 360
endloop
endfacet
facet normal 0 0 1
outer loop
vertex -260 150 360
vertex 260 144 360
vertex 260 150 360
endloop
endfacet
facet normal 0 0 1
outer loop
vertex 260 144 360
vertex -260 150 360
vertex -260 144 360
endloop
endfacet
facet normal 0 -1 0
outer loop
vertex -260 -156 360
vertex 260 -156 0
vertex 260 -156 360
endloop
endfacet
facet normal 0 -1 0
outer loop
vertex 260 -156 0
vertex -260 -156 360
vertex -260 -156 0
endloop
endfacet
facet normal 0 1 0
outer loop
vertex 260 -150 96
vertex 260 -150 0
vertex -260 -150 0
endloop
endfacet
facet normal 0 1 0
outer loop
vertex -260 -150 0
vertex 260 -150 360
vertex 260 -150 96
endloop
endfacet
facet normal 0 1 0
outer loop
vertex -260 -150 0
vertex -260 -150 360
vertex 260 -150 360
endloop
endfacet
facet normal 0 0 -1
outer loop
vertex 260 -156 0
vertex -260 -150 0
vertex 260 -150 0
endloop
endfacet
facet normal 0 0 -1
outer loop
vertex -260 -150 0
vertex 260 -156 0
vertex -260 -156 0
endloop
endfacet
facet normal -1 0 0
outer loop
vertex -260 -150 96
vertex -260 -156 360
vertex -260 -150 360
endloop
endfacet
facet normal -1 0 0
outer loop
vertex -260 -150 90
vertex -260 -156 360
vertex -260 -150 96
endloop
endfacet
facet normal -1 0 0
outer loop
vertex -260 -150 6
vertex -260 -156 360
vertex -260 -150 90
endloop
endfacet
facet normal -1 0 0
outer loop
vertex -260 -150 0
vertex -260 -156 360
vertex -260 -150 6
endloop
endfacet
facet normal -1 0 0
outer loop
vertex -260 -156 360
vertex -260 -150 0
vertex -260 -156 0
endloop
endfacet
facet normal 0 0 1
outer loop
vertex -260 -150 360
vertex 260 -156 360
vertex 260 -150 360
endloop
endfacet
facet normal 0 0 1
outer loop
vertex 260 -156 360
vertex -260 -150 360
vertex -260 -156 360
endloop
endfacet
facet normal 1 0 0
outer loop
vertex 260 -156 360
vertex 260 -150 6
vertex 260 -150 360
endloop
endfacet
facet normal 1 0 0
outer loop
vertex 260 -156 360
vertex 260 -150 0
vertex 260 -150 6
endloop
endfacet
facet normal 1 0 0
outer loop
vertex 260 -150 0
vertex 260 -156 360
vertex 260 -156 0
endloop
endfacet
facet normal 1 0 0
outer loop
vertex -279 -150 100
vertex -279 150 360
vertex -279 -150 360
endloop
endfacet
facet normal 1 0 0
outer loop
vertex -279 150 360
vertex -279 -150 100
vertex -279 150 100
endloop
endfacet
facet normal -1 0 0
outer loop
vertex -285 150 100
vertex -285 -150 360
vertex -285 150 360
endloop
endfacet
facet normal -1 0 0
outer loop
vertex -285 -150 360
vertex -285 150 100
vertex -285 -150 100
endloop
endfacet
facet normal 0 0 -1
outer loop
vertex -279 -150 100
vertex -285 150 100
vertex -279 150 100
endloop
endfacet
facet normal 0 0 -1
outer loop
vertex -285 150 100
vertex -279 -150 100
vertex -285 -150 100
endloop
endfacet
facet normal 0 -1 0
outer loop
vertex -285 -150 360
vertex -279 -150 100
vertex -279 -150 360
endloop
endfacet
facet normal 0 -1 0
outer loop
vertex -279 -150 100
vertex -285 -150 360
vertex -285 -150 100
endloop
endfacet
facet normal 0 0 1
outer loop
vertex -285 150 360
vertex -279 -150 360
vertex -279 150 360
endloop
endfacet
facet normal 0 0 1
outer loop
vertex -279 -150 360
vertex -285 150 360
vertex -285 -150 360
endloop
endfacet
facet normal 0 1 0
outer loop
vertex -285 150 100
vertex -279 150 360
vertex -279 150 100
endloop
endfacet
facet normal 0 1 0
outer loop
vertex -279 150 360
vertex -285 150 100
vertex -285 150 360
endloop
endfacet
facet normal 1 0 0
outer loop
vertex 266 -150 100
vertex 266 150 360
vertex 266 -150 360
endloop
endfacet
facet normal 1 0 0
outer loop
vertex 266 150 360
vertex 266 -150 100
vertex 266 150 100
endloop
endfacet
facet normal -1 0 0
outer loop
vertex 260 150 360
vertex 260 -150 100
vertex 260 -150 360
endloop
endfacet
facet normal -1 0 0
outer loop
vertex 260 -150 100
vertex 260 150 360
vertex 260 150 100
endloop
endfacet
facet normal 0 0 -1
outer loop
vertex 260 -150 100
vertex 266 150 100
vertex 266 -150 100
endloop
endfacet
facet normal 0 0 -1
outer loop
vertex 266 150 100
vertex 260 -150 100
vertex 260 150 100
endloop
endfacet
facet normal 0 -1 0
outer loop
vertex 260 -150 100
vertex 266 -150 360
vertex 260 -150 360
endloop
endfacet
facet normal 0 -1 0
outer loop
vertex 266 -150 360
vertex 260 -150 100
vertex 266 -150 100
endloop
endfacet
facet normal 0 0 1
outer loop
vertex 260 144 360
vertex 266 150 360
vertex 260 150 360
endloop
endfacet
facet normal 0 0 1
outer loop
vertex 260 -150 360
vertex 266 150 360
vertex 260 144 360
endloop
endfacet
facet normal 0 0 1
outer loop
vertex 266 150 360
vertex 260 -150 360
vertex 266 -150 360
endloop
endfacet
facet normal 0 1 0
outer loop
vertex 266 150 100
vertex 260 150 360
vertex 266 150 360
endloop
endfacet
facet normal 0 1 0
outer loop
vertex 260 150 360
vertex 266 150 100
vertex 260 150 100
endloop
endfacet
endsolid JSxCAD
