<?xml version="1.0" encoding="UTF-8"?>
<!-- Generated by jsxcad -->
<!DOCTYPE svg PUBLIC "-//W3C//DTD SVG 1.1 Tiny//EN" "http://www.w3.org/Graphics/SVG/1.1/DTD/svg11-tiny.dtd">
<svg viewBox="-250 -250 500 500" width="500" height="500" xmlns="http://www.w3.org/2000/svg"><path d="M-104.42344737324879,26.56809390684092L-104.18034383701183,24.082467090778284L-107.31624821771871,24.891796680035313zM-104.42344737324879,26.56809390684092L-107.31624821771871,24.891796680035313L-107.56646968465955,27.377328736897635z" style="fill:rgb(83,212,212)"/><path d="M-116.82868162439057,9.860486159131472L-107.56646968465955,27.377328736897635L-107.31624821771871,24.891796680035313z" style="fill:rgb(247,158,158)"/><path d="M-107.56646968465955,27.377328736897635L-121.86836085102325,13.594875026700082L-112.27161796129039,28.58876348071537z" style="fill:rgb(127,37,217)"/><path d="M-116.82868162439057,9.860486159131472L-117.10511859313681,12.347287511262255L-107.56646968465955,27.377328736897635z" style="fill:rgb(247,158,158)"/><path d="M-107.56646968465955,27.377328736897635L-117.10511859313681,12.347287511262255L-121.86836085102325,13.594875026700082zM184.8881552957942,-29.720304497808435L-112.27161796129039,28.58876348071537L-102.95082302856761,43.15153098400921zM166.7722550125131,-43.256691197235455L-113.92320241128306,11.513878866224008L-104.42344737324879,26.56809390684092z" style="fill:rgb(127,37,217)"/><path d="M-118.2162383134646,167.5934430999805L-95.19737901148594,41.18859686578543L-104.42344737324879,26.56809390684092z" style="fill:rgb(247,158,158)"/><path d="M184.8881552957942,-29.720304497808435L179.38616373803941,-46.504391714819064L-112.27161796129039,28.58876348071537z" style="fill:rgb(127,37,217)"/><path d="M-121.76158514136011,168.38219878496125L-104.42344737324879,26.56809390684092L-107.56646968465955,27.377328736897635z" style="fill:rgb(83,212,212)"/><path d="M-104.18034383701183,24.082467090778284L-113.65405841442255,9.027037908079587L-129.57198515985007,156.1059130425556z" style="fill:rgb(247,158,158)"/><path d="M166.7722550125131,-43.256691197235455L160.91214056684876,-60.47103723391194L-113.92320241128306,11.513878866224008z" style="fill:rgb(127,37,217)"/><path d="M-113.65405841442255,9.027037908079587L-116.82868162439057,9.860486159131472L-133.17617686227481,156.92064536100003z" style="fill:rgb(83,212,212)"/><path d="M173.7090009163827,-63.822788816611535L-174.45425941477063,-68.56506446832887L-121.86836085102325,13.594875026700082z" style="fill:rgb(127,37,217)"/><path d="M170.36853658630844,-44.18262443804324L169.9443301770649,-46.664924469634386L166.3573578580362,-45.73917879255293zM170.36853658630844,-44.18262443804324L166.3573578580362,-45.73917879255293L166.7722550125131,-43.256691197235455z" style="fill:rgb(83,212,212)"/><path d="M160.50548425569022,-62.949315034200175L166.7722550125131,-43.256691197235455L166.3573578580362,-45.73917879255293z" style="fill:rgb(247,158,158)"/><path d="M179.38616373803941,-46.504391714819064L164.56045746541832,-61.42660313302334L170.36853658630844,-44.18262443804324z" style="fill:rgb(127,37,217)"/><path d="M-118.2162383134646,167.5934430999805L-107.56687803458539,181.8182489737195L-95.19737901148594,41.18859686578543zM160.50548425569022,-62.949315034200175L160.91214056684876,-60.47103723391194L166.7722550125131,-43.256691197235455z" style="fill:rgb(247,158,158)"/><path d="M179.38616373803941,-46.504391714819064L173.7090009163827,-63.822788816611535L164.56045746541832,-61.42660313302334z" style="fill:rgb(127,37,217)"/><path d="M-121.76158514136011,168.38219878496125L-118.2162383134646,167.5934430999805L-104.42344737324879,26.56809390684092zM-169.3787374678228,-70.02019081379606L-165.56418741073034,-73.46743766751459L-168.94698545585354,-72.4955527485072zM-169.3787374678228,-70.02019081379606L-165.98766458917686,-70.99240133839157L-165.56418741073034,-73.46743766751459z" style="fill:rgb(83,212,212)"/><path d="M-104.18034383701183,24.082467090778284L-129.57198515985007,156.1059130425556L-118.52935783163981,170.7949578463322zM-180.3853705676378,-90.57019057790436L-169.3787374678228,-70.02019081379606L-168.94698545585354,-72.4955527485072z" style="fill:rgb(247,158,158)"/><path d="M-169.3787374678228,-70.02019081379606L-185.9965607117733,-86.59868015403217L-174.45425941477063,-68.56506446832887z" style="fill:rgb(127,37,217)"/><path d="M-180.3853705676378,-90.57019057790436L-180.85385259478906,-88.10150461650953L-169.3787374678228,-70.02019081379606z" style="fill:rgb(247,158,158)"/><path d="M-169.3787374678228,-70.02019081379606L-180.85385259478906,-88.10150461650953L-185.9965607117733,-86.59868015403217z" style="fill:rgb(127,37,217)"/><path d="M-113.65405841442255,9.027037908079587L-133.17617686227481,156.92064536100003L-129.57198515985007,156.1059130425556z" style="fill:rgb(83,212,212)"/><path d="M-172.47421972676463,-36.37931837092106L-165.67191870505255,-73.6386433328703L-165.9911575819458,-74.14597639089226zM-172.7542649177554,-38.740820522202235L-165.9911575819458,-74.14597639089226L-166.5102120707409,-74.97082593921594zM-172.4253123707192,-34.20069493818853L-165.56418741073034,-73.46743766751459L-165.67191870505255,-73.6386433328703zM-173.25450299845954,-41.1972152759224L-166.5102120707409,-74.97082593921594L-167.20992930919329,-76.08281359644349zM-173.95624406988327,-43.65740425631307L-167.20992930919329,-76.08281359644349L-168.06444615541736,-77.4407743402615zM-174.8335372897518,-46.03019016600561L-168.06444615541736,-77.4407743402615L-169.0418833254226,-78.99409623202818zM128.27401643431637,-202.42409503971106L184.8881552957942,-29.720304497808435L184.43391316337244,-32.20514961251776zM-175.85412990895105,-48.227302174683075L-169.0418833254226,-78.99409623202818L-170.10553241756512,-80.68443383079607zM-176.98046524613642,-50.16632972910172L-170.10553241756512,-80.68443383079607L-171.21511108287007,-82.44774466053117zM194.6640333674567,97.98569530731986L175.99780038696917,-27.469539587419003L170.36853658630844,-44.18262443804324zM-178.1708224849746,-51.7736065987014L-171.21511108287007,-82.44774466053117L-172.3281620580612,-84.21660512250692zM-179.38080878086163,-52.986890378398016L-172.3281620580612,-84.21660512250692L-173.4017759590792,-85.92275278877815z" style="fill:rgb(247,158,158)"/><path d="M-118.2162383134646,167.5934430999805L-111.06402446484033,182.58154794144335L-107.56687803458539,181.8182489737195z" style="fill:rgb(127,37,217)"/><path d="M-180.56469695367565,-53.757832020179045L-173.4017759590792,-85.92275278877815L-174.39409791594682,-87.49972443692761z" style="fill:rgb(247,158,158)"/><path d="M190.53173164836372,98.90503423017014L170.36853658630844,-44.18262443804324L166.7722550125131,-43.256691197235455z" style="fill:rgb(83,212,212)"/><path d="M-181.6771916794513,-54.05405376830036L-174.39409791594682,-87.49972443692761L-175.2661537589655,-88.88558834912797z" style="fill:rgb(247,158,158)"/><path d="M173.7090009163827,-63.822788816611535L142.37790945885644,-159.39958781752384L-174.45425941477063,-68.56506446832887z" style="fill:rgb(127,37,217)"/><path d="M-173.25450299845954,-41.1972152759224L-172.7542649177554,-38.740820522202235L-166.5102120707409,-74.97082593921594zM-172.7542649177554,-38.740820522202235L-172.47421972676463,-36.37931837092106L-165.9911575819458,-74.14597639089226zM-173.95624406988327,-43.65740425631307L-173.25450299845954,-41.1972152759224L-167.20992930919329,-76.08281359644349zM-190.32864593087479,71.26984128872998L-113.92320241128306,11.513878866224008L-165.98766458917686,-70.99240133839157zM-172.47421972676463,-36.37931837092106L-172.4253123707192,-34.20069493818853L-165.67191870505255,-73.6386433328703zM-174.8335372897518,-46.03019016600561L-173.95624406988327,-43.65740425631307L-168.06444615541736,-77.4407743402615zM-182.67508982637543,-53.8608289502156L-175.2661537589655,-88.88558834912797L-175.98342957671022,-90.02548472976517zM-172.4253123707192,-34.20069493818853L-172.61015792903507,-32.28686432302619L-165.56418741073034,-73.46743766751459zM-175.85412990895105,-48.227302174683075L-174.8335372897518,-46.03019016600561L-169.0418833254226,-78.99409623202818zM-183.51901949458167,-53.1821396166645L-175.98342957671022,-90.02548472976517L-176.51737009190893,-90.87399053994844z" style="fill:rgb(247,158,158)"/><path d="M-118.2162383134646,167.5934430999805L-121.76158514136011,168.38219878496125L-111.06402446484033,182.58154794144335z" style="fill:rgb(127,37,217)"/><path d="M-176.98046524613642,-50.16632972910172L-175.85412990895105,-48.227302174683075L-170.10553241756512,-80.68443383079607zM-184.17502365386667,-52.04104107038804L-176.51737009190893,-90.87399053994844L-176.8465554796561,-91.39713531298587z" style="fill:rgb(247,158,158)"/><path d="M-188.18493437429373,-49.470135259092736L-176.95777960280407,-91.57388202037545L-180.3853705676378,-90.57019057790436z" style="fill:rgb(83,212,212)"/><path d="M-184.61621757966654,-50.479254830175044L-176.8465554796561,-91.39713531298587L-176.95777960280407,-91.57388202037545zM-178.1708224849746,-51.7736065987014L-176.98046524613642,-50.16632972910172L-171.21511108287007,-82.44774466053117zM-179.38080878086163,-52.986890378398016L-178.1708224849746,-51.7736065987014L-172.3281620580612,-84.21660512250692z" style="fill:rgb(247,158,158)"/><path d="M128.58137952419466,-155.44418153181962L-177.41776911241277,-89.10561114005452L-165.98766458917686,-70.99240133839157z" style="fill:rgb(127,37,217)"/><path d="M-180.56469695367565,-53.757832020179045L-179.38080878086163,-52.986890378398016L-173.4017759590792,-85.92275278877815z" style="fill:rgb(247,158,158)"/><path d="M-118.52935783163981,170.7949578463322L-118.2162383134646,167.5934430999805L-121.76158514136011,168.38219878496125z" style="fill:rgb(83,212,212)"/><path d="M169.9443301770649,-46.664924469634386L164.14422219258987,-63.904607754268525L189.0033930654583,84.09135588593456z" style="fill:rgb(247,158,158)"/><path d="M-118.52935783163981,170.7949578463322L-121.76158514136011,168.38219878496125L-122.08380338259381,171.58290374119485z" style="fill:rgb(83,212,212)"/><path d="M-181.6771916794513,-54.05405376830036L-180.56469695367565,-53.757832020179045L-174.39409791594682,-87.49972443692761z" style="fill:rgb(247,158,158)"/><path d="M-173.25450299845954,-41.1972152759224L-176.7607301365908,-40.21707909725586L-176.2620188879846,-37.76260847609856z" style="fill:rgb(93,135,250)"/><path d="M-173.95624406988327,-43.65740425631307L-177.46239307181722,-42.67488240753473L-176.7607301365908,-40.21707909725586zM-173.95624406988327,-43.65740425631307L-176.7607301365908,-40.21707909725586L-173.25450299845954,-41.1972152759224z" style="fill:rgb(99,111,250)"/><path d="M-173.25450299845954,-41.1972152759224L-176.2620188879846,-37.76260847609856L-172.7542649177554,-38.740820522202235z" style="fill:rgb(93,135,250)"/><path d="M-172.7542649177554,-38.740820522202235L-176.2620188879846,-37.76260847609856L-175.9849142479777,-35.40250261470189z" style="fill:rgb(89,159,244)"/><path d="M-174.8335372897518,-46.03019016600561L-178.34105949575644,-45.04491612479822L-177.46239307181722,-42.67488240753473zM-174.8335372897518,-46.03019016600561L-177.46239307181722,-42.67488240753473L-173.95624406988327,-43.65740425631307z" style="fill:rgb(106,87,246)"/><path d="M-172.7542649177554,-38.740820522202235L-175.9849142479777,-35.40250261470189L-172.47421972676463,-36.37931837092106z" style="fill:rgb(89,159,244)"/><path d="M-182.67508982637543,-53.8608289502156L-181.6771916794513,-54.05405376830036L-175.2661537589655,-88.88558834912797z" style="fill:rgb(247,158,158)"/><path d="M-175.85412990895105,-48.227302174683075L-178.34105949575644,-45.04491612479822L-174.8335372897518,-46.03019016600561z" style="fill:rgb(114,65,238)"/><path d="M-172.47421972676463,-36.37931837092106L-175.9849142479777,-35.40250261470189L-175.940196024451,-33.224697048470766z" style="fill:rgb(85,182,234)"/><path d="M-175.85412990895105,-48.227302174683075L-179.36442701329912,-47.23899112123012L-178.34105949575644,-45.04491612479822z" style="fill:rgb(114,65,238)"/><path d="M-172.47421972676463,-36.37931837092106L-175.940196024451,-33.224697048470766L-172.4253123707192,-34.20069493818853z" style="fill:rgb(85,182,234)"/><path d="M-176.98046524613642,-50.16632972910172L-179.36442701329912,-47.23899112123012L-175.85412990895105,-48.227302174683075z" style="fill:rgb(123,46,225)"/><path d="M164.14422219258987,-63.904607754268525L160.50548425569022,-62.949315034200175L184.78939489576896,85.04394163139034z" style="fill:rgb(83,212,212)"/><path d="M-172.4253123707192,-34.20069493818853L-175.940196024451,-33.224697048470766L-176.13038569314077,-31.311074976131987z" style="fill:rgb(84,202,220)"/><path d="M-176.98046524613642,-50.16632972910172L-180.49483842653945,-49.1748219935094L-179.36442701329912,-47.23899112123012z" style="fill:rgb(123,46,225)"/><path d="M-183.51901949458167,-53.1821396166645L-182.67508982637543,-53.8608289502156L-175.98342957671022,-90.02548472976517z" style="fill:rgb(247,158,158)"/><path d="M-172.4253123707192,-34.20069493818853L-176.13038569314077,-31.311074976131987L-172.61015792903507,-32.28686432302619z" style="fill:rgb(84,202,220)"/><path d="M-122.08380338259381,171.58290374119485L-138.5700548803713,158.13994128868688L-127.4034265301742,172.7621426954437z" style="fill:rgb(127,37,217)"/><path d="M-133.17617686227481,156.92064536100003L-122.08380338259381,171.58290374119485L-121.76158514136011,168.38219878496125z" style="fill:rgb(247,158,158)"/><path d="M-178.1708224849746,-51.7736065987014L-180.49483842653945,-49.1748219935094L-176.98046524613642,-50.16632972910172zM-178.1708224849746,-51.7736065987014L-181.69044450153632,-50.77885568904027L-180.49483842653945,-49.1748219935094z" style="fill:rgb(131,29,208)"/><path d="M-184.17502365386667,-52.04104107038804L-183.51901949458167,-53.1821396166645L-176.51737009190893,-90.87399053994844zM-190.32864593087479,71.26984128872998L-129.22393554891443,152.8899920172663L-113.92320241128306,11.513878866224008z" style="fill:rgb(247,158,158)"/><path d="M-129.57198515985007,156.1059130425556L-122.08380338259381,171.58290374119485L-118.52935783163981,170.7949578463322z" style="fill:rgb(127,37,217)"/><path d="M-179.38080878086163,-52.986890378398016L-181.69044450153632,-50.77885568904027L-178.1708224849746,-51.7736065987014zM-179.38080878086163,-52.986890378398016L-182.9066008044189,-51.98897699565255L-181.69044450153632,-50.77885568904027z" style="fill:rgb(140,16,189)"/><path d="M-184.61621757966654,-50.479254830175044L-184.17502365386667,-52.04104107038804L-176.8465554796561,-91.39713531298587z" style="fill:rgb(247,158,158)"/><path d="M-188.18493437429373,-49.470135259092736L-184.61621757966654,-50.479254830175044L-176.95777960280407,-91.57388202037545z" style="fill:rgb(83,212,212)"/><path d="M-180.56469695367565,-53.757832020179045L-182.9066008044189,-51.98897699565255L-179.38080878086163,-52.986890378398016zM-180.56469695367565,-53.757832020179045L-184.09741080738584,-52.75694384143639L-182.9066008044189,-51.98897699565255z" style="fill:rgb(148,8,167)"/><path d="M-133.17617686227481,156.92064536100003L-121.76158514136011,168.38219878496125L-132.81877406287154,153.7054990275727z" style="fill:rgb(247,158,158)"/><path d="M-122.08380338259381,171.58290374119485L-133.17617686227481,156.92064536100003L-138.5700548803713,158.13994128868688z" style="fill:rgb(127,37,217)"/><path d="M-181.6771916794513,-54.05405376830036L-184.09741080738584,-52.75694384143639L-180.56469695367565,-53.757832020179045z" style="fill:rgb(155,4,143)"/><path d="M-129.57198515985007,156.1059130425556L-133.17617686227481,156.92064536100003L-122.08380338259381,171.58290374119485z" style="fill:rgb(127,37,217)"/><path d="M-181.6771916794513,-54.05405376830036L-185.217300177394,-53.05051049428434L-184.09741080738584,-52.75694384143639z" style="fill:rgb(155,4,143)"/><path d="M135.45005562640836,-180.53327967942792L-197.9200453741697,-105.22789049581326L-185.9965607117733,-86.59868015403217z" style="fill:rgb(127,37,217)"/><path d="M-169.3787374678228,-70.02019081379606L-190.32864593087479,71.26984128872998L-165.98766458917686,-70.99240133839157z" style="fill:rgb(83,212,212)"/><path d="M-182.67508982637543,-53.8608289502156L-185.217300177394,-53.05051049428434L-181.6771916794513,-54.05405376830036zM-182.67508982637543,-53.8608289502156L-186.22280602886468,-52.85505759244901L-185.217300177394,-53.05051049428434z" style="fill:rgb(161,4,119)"/><path d="M211.44760727094382,115.56825871547433L-127.4034265301742,172.7621426954437L-116.60045532940737,186.90813444113286z" style="fill:rgb(127,37,217)"/><path d="M194.6640333674567,97.98569530731986L200.6555794570725,114.54523355781525L175.99780038696917,-27.469539587419003z" style="fill:rgb(247,158,158)"/><path d="M-197.39960232979396,-107.68887066903501L-197.9200453741697,-105.22789049581326L128.27401643431637,-202.42409503971106z" style="fill:rgb(83,212,212)"/><path d="M128.58137952419466,-155.44418153181962L121.43478040250747,-176.43765273908528L-177.41776911241277,-89.10561114005452z" style="fill:rgb(127,37,217)"/><path d="M128.27401643431637,-202.42409503971106L184.43391316337244,-32.20514961251776L127.90820418351528,-204.81585993474152z" style="fill:rgb(247,158,158)"/><path d="M190.53173164836372,98.90503423017014L194.6640333674567,97.98569530731986L170.36853658630844,-44.18262443804324z" style="fill:rgb(83,212,212)"/><path d="M191.076170695893,102.16260881673243L-129.57198515985007,156.1059130425556L-118.52935783163981,170.7949578463322z" style="fill:rgb(127,37,217)"/><path d="M128.58137952419466,-155.44418153181962L132.1499479714152,-159.00145778804048L128.22850175320312,-157.87481837999601zM128.58137952419466,-155.44418153181962L132.51395997529255,-156.57163494481983L132.1499479714152,-159.00145778804048z" style="fill:rgb(83,212,212)"/><path d="M169.9443301770649,-46.664924469634386L189.0033930654583,84.09135588593456L195.22082540410008,101.24383771166043zM-218.03333500390812,34.26353487912471L-177.41776911241277,-89.10561114005452L-189.22622449138348,-107.81839594721437zM121.09568682945371,-178.8521786564387L128.58137952419466,-155.44418153181962L128.22850175320312,-157.87481837999601z" style="fill:rgb(247,158,158)"/><path d="M-190.32864593087479,71.26984128872998L-132.81877406287154,153.7054990275727L-129.22393554891443,152.8899920172663zM135.45005562640836,-180.53327967942792L128.27401643431637,-202.42409503971106L-197.9200453741697,-105.22789049581326zM142.37790945885644,-159.39958781752384L125.42954979230117,-177.60503101841044L132.51395997529255,-156.57163494481983z" style="fill:rgb(127,37,217)"/><path d="M-189.22622449138348,-107.81839594721437L-192.70846603102999,-106.78079260793149L-222.01518821365107,35.31116307538026z" style="fill:rgb(83,212,212)"/><path d="M211.44760727094382,115.56825871547433L205.61802892902807,98.93902154238229L-127.4034265301742,172.7621426954437z" style="fill:rgb(127,37,217)"/><path d="M-197.39960232979396,-107.68887066903501L128.27401643431637,-202.42409503971106L127.90820418351528,-204.81585993474152z" style="fill:rgb(83,212,212)"/><path d="M121.09568682945371,-178.8521786564387L121.43478040250747,-176.43765273908528L128.58137952419466,-155.44418153181962z" style="fill:rgb(247,158,158)"/><path d="M164.14422219258987,-63.904607754268525L184.78939489576896,85.04394163139034L189.0033930654583,84.09135588593456z" style="fill:rgb(83,212,212)"/><path d="M137.4483654885344,-122.61261392871108L132.08317035649137,-159.19994008092675L131.88528416981765,-159.78812524721644zM136.89144162547805,-125.0920710782657L131.88528416981765,-159.78812524721644L131.5635107293813,-160.74452443151927zM137.89865323897837,-120.37007269488528L132.1499479714152,-159.00145778804048L132.08317035649137,-159.19994008092675zM136.24874508055288,-127.71617741418318L131.5635107293813,-160.74452443151927L131.12967074088172,-162.03403215098925zM135.54410634418673,-130.38785093437016L131.12967074088172,-162.03403215098925L130.59978362887176,-163.6090418035148z" style="fill:rgb(247,158,158)"/><path d="M142.37790945885644,-159.39958781752384L135.45005562640836,-180.53327967942792L125.42954979230117,-177.60503101841044z" style="fill:rgb(127,37,217)"/><path d="M134.803520081446,-133.00836593876937L130.59978362887176,-163.6090418035148L129.99353405178104,-165.41099451792098zM134.05434828586857,-135.4805934594831L129.99353405178104,-165.41099451792098L129.33365793990794,-167.37234238084886zM133.32441399841113,-137.7121532996077L129.33365793990794,-167.37234238084886L128.64514085455943,-169.4188438248354z" style="fill:rgb(247,158,158)"/><path d="M-169.3787374678228,-70.02019081379606L-194.19211160444462,72.24194506410078L-190.32864593087479,71.26984128872998z" style="fill:rgb(83,212,212)"/><path d="M132.64104057007026,-139.61859038976L128.64514085455943,-169.4188438248354L127.95427846351856,-171.47228609139407z" style="fill:rgb(247,158,158)"/><path d="M-182.30835546566158,24.39479988899952L-186.0168718500521,25.370963602575L-186.47924633672116,27.14936613414061zM-182.30835546566158,24.39479988899952L-186.47924633672116,27.14936613414061L-182.76375829873083,26.172961993509375z" style="fill:rgb(84,220,202)"/><path d="M132.03017291271647,-141.12644233710114L127.95427846351856,-171.47228609139407L127.28775231641923,-173.4533991746559z" style="fill:rgb(247,158,158)"/><path d="M-182.76375829873083,26.172961993509375L-186.47924633672116,27.14936613414061L-187.17085543952905,28.522634930023187z" style="fill:rgb(85,234,182)"/><path d="M194.6640333674567,97.98569530731986L196.58999603567634,115.43260166675188L200.6555794570725,114.54523355781525z" style="fill:rgb(127,37,217)"/><path d="M-182.76375829873083,26.172961993509375L-187.17085543952905,28.522634930023187L-183.44759064755704,27.545342172872015z" style="fill:rgb(85,234,182)"/><path d="M131.51540487725526,-142.17605400606536L127.28775231641923,-173.4533991746559L126.67156073340308,-175.2849230640375z" style="fill:rgb(247,158,158)"/><path d="M191.076170695893,102.16260881673243L184.78939489576896,85.04394163139034L-129.57198515985007,156.1059130425556z" style="fill:rgb(127,37,217)"/><path d="M-183.44759064755704,27.545342172872015L-187.17085543952905,28.522634930023187L-188.06698386320397,29.435985773138825z" style="fill:rgb(89,244,159)"/><path d="M131.11701648458538,-142.7240823852971L126.67156073340308,-175.2849230640375L126.12992345615295,-176.8948381883161zM136.24874508055288,-127.71617741418318L136.89144162547805,-125.0920710782657L131.5635107293813,-160.74452443151927z" style="fill:rgb(247,158,158)"/><path d="M-183.44759064755704,27.545342172872015L-188.06698386320397,29.435985773138825L-184.33549114358027,28.457183591090413z" style="fill:rgb(89,244,159)"/><path d="M136.89144162547805,-125.0920710782657L137.4483654885344,-122.61261392871108L131.88528416981765,-159.78812524721644zM135.54410634418673,-130.38785093437016L136.24874508055288,-127.71617741418318L131.12967074088172,-162.03403215098925zM137.4483654885344,-122.61261392871108L137.89865323897837,-120.37007269488528L132.08317035649137,-159.19994008092675zM134.803520081446,-133.00836593876937L135.54410634418673,-130.38785093437016L130.59978362887176,-163.6090418035148zM130.85120585980195,-142.74566085856773L126.12992345615295,-176.8948381883161L125.6843431456093,-178.21923135267065zM153.67980012962644,-15.287354971523941L164.56045746541832,-61.42660313302334L132.51395997529255,-156.57163494481983z" style="fill:rgb(247,158,158)"/><path d="M-184.33549114358027,28.457183591090413L-188.06698386320397,29.435985773138825L-189.13491808301583,29.851199047292543z" style="fill:rgb(93,250,135)"/><path d="M137.89865323897837,-120.37007269488528L138.2251564884374,-118.44878650245911L132.1499479714152,-159.00145778804048zM134.05434828586857,-135.4805934594831L134.803520081446,-133.00836593876937L129.99353405178104,-165.41099451792098z" style="fill:rgb(247,158,158)"/><path d="M-184.33549114358027,28.457183591090413L-189.13491808301583,29.851199047292543L-185.39499594763714,28.870316730547238z" style="fill:rgb(93,250,135)"/><path d="M130.72927030486352,-142.23591152723853L125.6843431456093,-178.21923135267065L125.35261627279904,-179.20521434771354z" style="fill:rgb(247,158,158)"/><path d="M194.6640333674567,97.98569530731986L190.53173164836372,98.90503423017014L196.58999603567634,115.43260166675188z" style="fill:rgb(127,37,217)"/><path d="M133.32441399841113,-137.7121532996077L134.05434828586857,-135.4805934594831L129.33365793990794,-167.37234238084886zM130.75705058189718,-141.21070204689352L125.35261627279904,-179.20521434771354L125.14807965006977,-179.8131883858954z" style="fill:rgb(247,158,158)"/><path d="M126.75906282603411,-138.52598719499144L125.07896649586209,-180.01860178807925L121.09568682945371,-178.8521786564387z" style="fill:rgb(83,212,212)"/><path d="M130.93448398988656,-139.7066683767479L125.14807965006977,-179.8131883858954L125.07896649586209,-180.01860178807925zM132.64104057007026,-139.61859038976L133.32441399841113,-137.7121532996077L128.64514085455943,-169.4188438248354zM132.03017291271647,-141.12644233710114L132.64104057007026,-139.61859038976L127.95427846351856,-171.47228609139407z" style="fill:rgb(247,158,158)"/><path d="M199.5752149694893,81.7015787988052L-200.5595718293439,76.96743949861404L-138.5700548803713,158.13994128868688zM-190.32864593087479,71.26984128872998L-194.19211160444462,72.24194506410078L-132.81877406287154,153.7054990275727z" style="fill:rgb(127,37,217)"/><path d="M131.51540487725526,-142.17605400606536L132.03017291271647,-141.12644233710114L127.28775231641923,-173.4533991746559z" style="fill:rgb(247,158,158)"/><path d="M195.22082540410008,101.24383771166043L194.6640333674567,97.98569530731986L190.53173164836372,98.90503423017014z" style="fill:rgb(83,212,212)"/><path d="M-191.01719275194498,74.37072742014512L-182.30835546566158,24.39479988899952L-182.76375829873083,26.172961993509375z" style="fill:rgb(247,158,158)"/><path d="M195.22082540410008,101.24383771166043L190.53173164836372,98.90503423017014L191.076170695893,102.16260881673243z" style="fill:rgb(83,212,212)"/><path d="M131.11701648458538,-142.7240823852971L131.51540487725526,-142.17605400606536L126.67156073340308,-175.2849230640375z" style="fill:rgb(247,158,158)"/><path d="M136.24874508055288,-127.71617741418318L132.16007273315822,-126.57322609804476L132.8007892783203,-123.95130834299871z" style="fill:rgb(93,135,250)"/><path d="M135.54410634418673,-130.38785093437016L131.45541055723942,-129.24208072900888L132.16007273315822,-126.57322609804476z" style="fill:rgb(99,111,250)"/><path d="M-191.39859134431714,73.86338101368011L-182.76375829873083,26.172961993509375L-183.44759064755704,27.545342172872015z" style="fill:rgb(247,158,158)"/><path d="M135.54410634418673,-130.38785093437016L132.16007273315822,-126.57322609804476L136.24874508055288,-127.71617741418318z" style="fill:rgb(99,111,250)"/><path d="M136.24874508055288,-127.71617741418318L132.8007892783203,-123.95130834299871L136.89144162547805,-125.0920710782657z" style="fill:rgb(93,135,250)"/><path d="M136.89144162547805,-125.0920710782657L132.8007892783203,-123.95130834299871L133.35380946530321,-121.47334104572754z" style="fill:rgb(89,159,244)"/><path d="M134.803520081446,-133.00836593876937L130.7128300279814,-131.8592783091054L131.45541055723942,-129.24208072900888zM134.803520081446,-133.00836593876937L131.45541055723942,-129.24208072900888L135.54410634418673,-130.38785093437016z" style="fill:rgb(106,87,246)"/><path d="M136.89144162547805,-125.0920710782657L133.35380946530321,-121.47334104572754L137.4483654885344,-122.61261392871108z" style="fill:rgb(89,159,244)"/><path d="M130.85120585980195,-142.74566085856773L131.11701648458538,-142.7240823852971L126.12992345615295,-176.8948381883161z" style="fill:rgb(247,158,158)"/><path d="M134.05434828586857,-135.4805934594831L130.7128300279814,-131.8592783091054L134.803520081446,-133.00836593876937z" style="fill:rgb(114,65,238)"/><path d="M137.4483654885344,-122.61261392871108L133.35380946530321,-121.47334104572754L133.79840933727186,-119.2315369963763z" style="fill:rgb(85,182,234)"/><path d="M134.05434828586857,-135.4805934594831L129.95973038991602,-134.3277744568879L130.7128300279814,-131.8592783091054z" style="fill:rgb(114,65,238)"/><path d="M-192.01882466619693,73.0383589855656L-183.44759064755704,27.545342172872015L-184.33549114358027,28.457183591090413z" style="fill:rgb(247,158,158)"/><path d="M137.4483654885344,-122.61261392871108L133.79840933727186,-119.2315369963763L137.89865323897837,-120.37007269488528z" style="fill:rgb(85,182,234)"/><path d="M133.32441399841113,-137.7121532996077L129.95973038991602,-134.3277744568879L134.05434828586857,-135.4805934594831z" style="fill:rgb(123,46,225)"/><path d="M137.89865323897837,-120.37007269488528L133.79840933727186,-119.2315369963763L134.11764661376716,-117.31020805767221z" style="fill:rgb(84,202,220)"/><path d="M133.32441399841113,-137.7121532996077L129.22407709380047,-136.5553364348987L129.95973038991602,-134.3277744568879z" style="fill:rgb(123,46,225)"/><path d="M184.25330160808474,81.7768268493425L191.076170695893,102.16260881673243L190.53173164836372,98.90503423017014zM130.72927030486352,-142.23591152723853L130.85120585980195,-142.74566085856773L125.6843431456093,-178.21923135267065z" style="fill:rgb(247,158,158)"/><path d="M137.89865323897837,-120.37007269488528L134.11764661376716,-117.31020805767221L138.2251564884374,-118.44878650245911z" style="fill:rgb(84,202,220)"/><path d="M-192.8551595581924,71.92583801327176L-184.33549114358027,28.457183591090413L-185.39499594763714,28.870316730547238z" style="fill:rgb(247,158,158)"/><path d="M132.64104057007026,-139.61859038976L129.22407709380047,-136.5553364348987L133.32441399841113,-137.7121532996077zM132.64104057007026,-139.61859038976L128.53343060520567,-138.4576552453643L129.22407709380047,-136.5553364348987z" style="fill:rgb(131,29,208)"/><path d="M130.75705058189718,-141.21070204689352L130.72927030486352,-142.23591152723853L125.35261627279904,-179.20521434771354z" style="fill:rgb(247,158,158)"/><path d="M189.0033930654583,84.09135588593456L191.076170695893,102.16260881673243L195.22082540410008,101.24383771166043z" style="fill:rgb(127,37,217)"/><path d="M-193.8768646602031,70.56677170991522L-185.39499594763714,28.870316730547238L-186.58667938726202,28.765090051020035zM-218.03333500390812,34.26353487912471L-203.92176592284707,53.11294422431299L-177.41776911241277,-89.10561114005452zM153.67980012962644,-15.287354971523941L188.4545300382709,80.8237685222813L164.56045746541832,-61.42660313302334z" style="fill:rgb(247,158,158)"/><path d="M132.03017291271647,-141.12644233710114L128.53343060520567,-138.4576552453643L132.64104057007026,-139.61859038976zM132.03017291271647,-141.12644233710114L127.91396907772584,-139.96142339889718L128.53343060520567,-138.4576552453643z" style="fill:rgb(140,16,189)"/><path d="M205.61802892902807,98.93902154238229L189.0033930654583,84.09135588593456L195.22082540410008,101.24383771166043z" style="fill:rgb(127,37,217)"/><path d="M130.93448398988656,-139.7066683767479L130.75705058189718,-141.21070204689352L125.14807965006977,-179.8131883858954z" style="fill:rgb(247,158,158)"/><path d="M126.75906282603411,-138.52598719499144L130.93448398988656,-139.7066683767479L125.07896649586209,-180.01860178807925z" style="fill:rgb(83,212,212)"/><path d="M-195.04600831604571,69.0115690493771L-186.58667938726202,28.765090051020035L-187.86530222890238,28.141697390061733z" style="fill:rgb(247,158,158)"/><path d="M131.51540487725526,-142.17605400606536L127.91396907772584,-139.96142339889718L132.03017291271647,-141.12644233710114zM131.51540487725526,-142.17605400606536L127.38960040529312,-141.00712911108502L127.91396907772584,-139.96142339889718z" style="fill:rgb(148,8,167)"/><path d="M184.25330160808474,81.7768268493425L184.78939489576896,85.04394163139034L191.076170695893,102.16260881673243zM-196.3188387474093,67.31842534329778L-187.86530222890238,28.141697390061733L-189.18157663954756,27.02074883137177z" style="fill:rgb(247,158,158)"/><path d="M131.11701648458538,-142.7240823852971L127.38960040529312,-141.00712911108502L131.51540487725526,-142.17605400606536z" style="fill:rgb(155,4,143)"/><path d="M189.0033930654583,84.09135588593456L184.78939489576896,85.04394163139034L191.076170695893,102.16260881673243z" style="fill:rgb(127,37,217)"/><path d="M131.11701648458538,-142.7240823852971L126.98099726208193,-141.5516065982361L127.38960040529312,-141.00712911108502z" style="fill:rgb(155,4,143)"/><path d="M-197.647259897818,65.55134425254354L-189.18157663954756,27.02074883137177L-190.48404517393917,25.443017826079842zM-191.01719275194498,74.37072742014512L-190.8884959640579,74.54191648312897L-182.30835546566158,24.39479988899952z" style="fill:rgb(247,158,158)"/><path d="M130.85120585980195,-142.74566085856773L126.98099726208193,-141.5516065982361L131.11701648458538,-142.7240823852971z" style="fill:rgb(161,4,119)"/><path d="M205.61802892902807,98.93902154238229L199.5752149694893,81.7015787988052L189.0033930654583,84.09135588593456z" style="fill:rgb(127,37,217)"/><path d="M-191.39859134431714,73.86338101368011L-191.01719275194498,74.37072742014512L-182.76375829873083,26.172961993509375z" style="fill:rgb(247,158,158)"/><path d="M128.58137952419466,-155.44418153181962L153.67980012962644,-15.287354971523941L132.51395997529255,-156.57163494481983z" style="fill:rgb(83,212,212)"/><path d="M-198.98048663211364,63.77784665650377L-190.48404517393917,25.443017826079842L-191.7211277265959,23.468235444012443z" style="fill:rgb(247,158,158)"/><path d="M130.85120585980195,-142.74566085856773L126.70470938631789,-141.5701290917976L126.98099726208193,-141.5516065982361z" style="fill:rgb(161,4,119)"/><path d="M-208.46579253481318,57.40049548111923L-195.17476562394504,6.1771601862445475L-198.93706961626634,7.188587152103728z" style="fill:rgb(83,212,212)"/><path d="M-192.01882466619693,73.0383589855656L-191.39859134431714,73.86338101368011L-183.44759064755704,27.545342172872015zM-200.267089085287,62.066414577332374L-191.7211277265959,23.468235444012443L-192.84346444823169,21.17294561471599zM-204.53285965160865,56.392029560698106L-195.41228507365867,8.306456133073908L-195.17476562394504,6.1771601862445475zM-192.8551595581924,71.92583801327176L-192.01882466619693,73.0383589855656L-184.33549114358027,28.457183591090413zM-201.4568085568404,60.48384000642345L-192.84346444823169,21.17294561471599L-193.80592441302727,18.647480611601zM-204.39933630544115,56.569642414636526L-195.3888790516475,10.716656792194133L-195.41228507365867,8.306456133073908z" style="fill:rgb(247,158,158)"/><path d="M-189.22622449138348,-107.81839594721437L-222.01518821365107,35.31116307538026L-218.03333500390812,34.26353487912471z" style="fill:rgb(83,212,212)"/><path d="M-202.50276428874568,59.09248569096224L-193.80592441302727,18.647480611601L-194.56978722636106,15.992160280505807zM-204.00418607082298,57.09527974497782L-195.10446295762304,13.312925219294113L-195.3888790516475,10.716656792194133zM-203.36337371419447,57.9476759333883L-194.56978722636106,15.992160280505807L-195.10446295762304,13.312925219294113zM-193.8768646602031,70.56677170991522L-192.8551595581924,71.92583801327176L-185.39499594763714,28.870316730547238zM-195.04600831604571,69.0115690493771L-193.8768646602031,70.56677170991522L-186.58667938726202,28.765090051020035zM-196.3188387474093,67.31842534329778L-195.04600831604571,69.0115690493771L-187.86530222890238,28.141697390061733zM-197.647259897818,65.55134425254354L-196.3188387474093,67.31842534329778L-189.18157663954756,27.02074883137177z" style="fill:rgb(247,158,158)"/><path d="M-194.76275303732837,75.51358930335874L-190.32864593087479,71.26984128872998L-194.19211160444462,72.24194506410078z" style="fill:rgb(83,212,212)"/><path d="M-198.98048663211364,63.77784665650377L-197.647259897818,65.55134425254354L-190.48404517393917,25.443017826079842z" style="fill:rgb(247,158,158)"/><path d="M-194.76275303732837,75.51358930335874L-190.8884959640579,74.54191648312897L-190.32864593087479,71.26984128872998z" style="fill:rgb(83,212,212)"/><path d="M-200.267089085287,62.066414577332374L-198.98048663211364,63.77784665650377L-191.7211277265959,23.468235444012443zM-201.4568085568404,60.48384000642345L-200.267089085287,62.066414577332374L-192.84346444823169,21.17294561471599zM-202.50276428874568,59.09248569096224L-201.4568085568404,60.48384000642345L-193.80592441302727,18.647480611601z" style="fill:rgb(247,158,158)"/><path d="M-208.46579253481318,57.40049548111923L-204.53285965160865,56.392029560698106L-195.17476562394504,6.1771601862445475z" style="fill:rgb(83,212,212)"/><path d="M-203.36337371419447,57.9476759333883L-202.50276428874568,59.09248569096224L-194.56978722636106,15.992160280505807zM-204.00418607082298,57.09527974497782L-203.36337371419447,57.9476759333883L-195.10446295762304,13.312925219294113zM-204.53285965160865,56.392029560698106L-204.39933630544115,56.569642414636526L-195.41228507365867,8.306456133073908zM-204.39933630544115,56.569642414636526L-204.00418607082298,57.09527974497782L-195.3888790516475,10.716656792194133z" style="fill:rgb(247,158,158)"/><path d="M-194.76275303732837,75.51358930335874L-214.35012735669008,58.90933429185875L-200.5595718293439,76.96743949861404z" style="fill:rgb(127,37,217)"/><path d="M-208.46579253481318,57.40049548111923L-194.76275303732837,75.51358930335874L-194.19211160444462,72.24194506410078z" style="fill:rgb(247,158,158)"/><path d="M-204.53285965160865,56.392029560698106L-194.76275303732837,75.51358930335874L-190.8884959640579,74.54191648312897z" style="fill:rgb(127,37,217)"/><path d="M-208.46579253481318,57.40049548111923L-194.19211160444462,72.24194506410078L-207.84358386104913,54.12175246494159z" style="fill:rgb(247,158,158)"/><path d="M-194.76275303732837,75.51358930335874L-208.46579253481318,57.40049548111923L-214.35012735669008,58.90933429185875zM-204.53285965160865,56.392029560698106L-208.46579253481318,57.40049548111923L-194.76275303732837,75.51358930335874z" style="fill:rgb(127,37,217)"/><path d="M150.17875149184124,-59.204579524710994L211.44760727094382,115.56825871547433L210.8536965736946,112.31937766082018zM137.74050392873926,-59.34072706952349L125.42954979230117,-177.60503101841044L118.091952971548,-199.3901290261021z" style="fill:rgb(247,158,158)"/><path d="M153.67980012962644,-15.287354971523941L184.25330160808474,81.7768268493425L188.4545300382709,80.8237685222813zM-218.03333500390812,34.26353487912471L-207.84358386104913,54.12175246494159L-203.92176592284707,53.11294422431299z" style="fill:rgb(127,37,217)"/><path d="M118.091952971548,-199.3901290261021L114.03301066126434,-198.1806789677704L132.9846539808414,-58.089466010398255z" style="fill:rgb(83,212,212)"/><path d="M199.5752149694893,81.7015787988052L165.7123667169325,-14.894096203489855L-200.5595718293439,76.96743949861404zM-218.03333500390812,34.26353487912471L-222.01518821365107,35.31116307538026L-207.84358386104913,54.12175246494159z" style="fill:rgb(127,37,217)"/><path d="M128.58137952419466,-155.44418153181962L149.09667702705272,-14.134178170207292L153.67980012962644,-15.287354971523941z" style="fill:rgb(83,212,212)"/><path d="M149.57397130430786,-10.846564929541785L-204.53285965160865,56.392029560698106L-190.8884959640579,74.54191648312897z" style="fill:rgb(127,37,217)"/><path d="M146.65256085835108,-62.19494827290853L142.28610736894208,-61.045598202642644L142.4961769000192,-59.30300053028504zM146.65256085835108,-62.19494827290853L142.4961769000192,-59.30300053028504L146.87232739930485,-60.453024856813734z" style="fill:rgb(84,220,202)"/><path d="M146.87232739930485,-60.453024856813734L142.4961769000192,-59.30300053028504L142.55421002696818,-58.02493042230628zM146.87232739930485,-60.453024856813734L142.55421002696818,-58.02493042230628L146.9411902761694,-59.17644057569608z" style="fill:rgb(85,234,182)"/><path d="M146.9411902761694,-59.17644057569608L142.55421002696818,-58.02493042230628L142.4568859218187,-57.26316821831132zM146.9411902761694,-59.17644057569608L142.4568859218187,-57.26316821831132L146.85542578741925,-58.41693953030685z" style="fill:rgb(89,244,159)"/><path d="M146.85542578741925,-58.41693953030685L142.4568859218187,-57.26316821831132L142.2067046472799,-57.050854891309996zM146.85542578741925,-58.41693953030685L142.2067046472799,-57.050854891309996L146.61709725033205,-58.207586581941115z" style="fill:rgb(93,250,135)"/><path d="M153.67980012962644,-15.287354971523941L149.09667702705272,-14.134178170207292L184.25330160808474,81.7768268493425z" style="fill:rgb(127,37,217)"/><path d="M154.09864564316192,-12.203039988676714L146.65256085835108,-62.19494827290853L146.87232739930485,-60.453024856813734z" style="fill:rgb(247,158,158)"/><path d="M158.10509427294173,-36.59424545205949L-228.66687091224918,40.16217992196064L-214.35012735669008,58.90933429185875z" style="fill:rgb(127,37,217)"/><path d="M153.88033913298366,-12.805309626700454L146.87232739930485,-60.453024856813734L146.9411902761694,-59.17644057569608zM153.52528597260832,-13.784811157024043L146.9411902761694,-59.17644057569608L146.85542578741925,-58.41693953030685zM153.04642736216974,-15.105875186917658L146.85542578741925,-58.41693953030685L146.61709725033205,-58.207586581941115zM152.46132246341324,-16.720071712268172L146.61709725033205,-58.207586581941115L146.23413283401973,-58.56093225376516zM137.74050392873926,-59.34072706952349L145.87286732147106,-36.86432649696111L125.42954979230117,-177.60503101841044zM151.79158185261093,-18.567730881647197L146.23413283401973,-58.56093225376516L145.72019022214187,-59.46785964446657zM151.06221891560938,-20.579869188319638L145.72019022214187,-59.46785964446657L145.0943482460103,-60.897242081225585z" style="fill:rgb(247,158,158)"/><path d="M-227.97244941295105,36.87852695215927L-228.66687091224918,40.16217992196064L150.17875149184124,-59.204579524710994z" style="fill:rgb(83,212,212)"/><path d="M150.30077473812014,-22.680541317099003L145.0943482460103,-60.897242081225585L144.38045855976145,-62.79653501519719zM154.09864564316192,-12.203039988676714L154.17230521333815,-11.999833840448938L146.65256085835108,-62.19494827290853z" style="fill:rgb(247,158,158)"/><path d="M149.57397130430786,-10.846564929541785L141.66624606335378,-32.37905610169095L-204.53285965160865,56.392029560698106z" style="fill:rgb(127,37,217)"/><path d="M153.88033913298366,-12.805309626700454L154.09864564316192,-12.203039988676714L146.87232739930485,-60.453024856813734zM149.5363004406146,-24.78954094849548L144.38045855976145,-62.79653501519719L143.60622667401523,-65.09343223548794z" style="fill:rgb(247,158,158)"/><path d="M141.66624606335378,-32.37905610169095L139.07277451081862,-83.67913094787376L134.62946278419062,-82.4846301748379z" style="fill:rgb(83,212,212)"/><path d="M153.52528597260832,-13.784811157024043L153.88033913298366,-12.805309626700454L146.9411902761694,-59.17644057569608zM148.79834279279777,-26.82538854146037L143.60622667401523,-65.09343223548794L142.80218138063083,-67.69850957727549zM146.34992896360828,-33.5800293698834L139.42873327026555,-81.52979601049836L139.07277451081862,-83.67913094787376zM150.17875149184124,-59.204579524710994L210.8536965736946,112.31937766082018L149.67758355300526,-62.48138547098237zM153.04642736216974,-15.105875186917658L153.52528597260832,-13.784811157024043L146.85542578741925,-58.41693953030685zM148.1157494319616,-28.708533990411933L142.80218138063083,-67.69850957727549L142.00034915715634,-70.50884075625204zM146.42660891901866,-33.36849664435034L139.92093708657833,-79.03497229021045L139.42873327026555,-81.52979601049836zM147.51546046874432,-30.364593252543493L142.00034915715634,-70.50884075625204L141.23280280492028,-73.4123486484316z" style="fill:rgb(247,158,158)"/><path d="M118.091952971548,-199.3901290261021L132.9846539808414,-58.089466010398255L137.74050392873926,-59.34072706952349z" style="fill:rgb(83,212,212)"/><path d="M146.6535079562862,-32.742510117329914L140.53032052849758,-76.2928052668997L139.92093708657833,-79.03497229021045zM147.0214258034408,-31.72751951385762L141.23280280492028,-73.4123486484316L140.53032052849758,-76.2928052668997zM152.46132246341324,-16.720071712268172L153.04642736216974,-15.105875186917658L146.61709725033205,-58.207586581941115zM151.79158185261093,-18.567730881647197L152.46132246341324,-16.720071712268172L146.23413283401973,-58.56093225376516zM151.06221891560938,-20.579869188319638L151.79158185261093,-18.567730881647197L145.72019022214187,-59.46785964446657zM150.30077473812014,-22.680541317099003L151.06221891560938,-20.579869188319638L145.0943482460103,-60.897242081225585z" style="fill:rgb(247,158,158)"/><path d="M149.57397130430786,-10.846564929541785L153.67980012962644,-15.287354971523941L149.09667702705272,-14.134178170207292z" style="fill:rgb(83,212,212)"/><path d="M149.5363004406146,-24.78954094849548L150.30077473812014,-22.680541317099003L144.38045855976145,-62.79653501519719z" style="fill:rgb(247,158,158)"/><path d="M149.57397130430786,-10.846564929541785L154.17230521333815,-11.999833840448938L153.67980012962644,-15.287354971523941z" style="fill:rgb(83,212,212)"/><path d="M148.79834279279777,-26.82538854146037L149.5363004406146,-24.78954094849548L143.60622667401523,-65.09343223548794zM148.1157494319616,-28.708533990411933L148.79834279279777,-26.82538854146037L142.80218138063083,-67.69850957727549zM147.51546046874432,-30.364593252543493L148.1157494319616,-28.708533990411933L142.00034915715634,-70.50884075625204z" style="fill:rgb(247,158,158)"/><path d="M141.66624606335378,-32.37905610169095L146.34992896360828,-33.5800293698834L139.07277451081862,-83.67913094787376z" style="fill:rgb(83,212,212)"/><path d="M147.0214258034408,-31.72751951385762L147.51546046874432,-30.364593252543493L141.23280280492028,-73.4123486484316zM141.20496615437176,-35.663606860480854L149.57397130430786,-10.846564929541785L149.09667702705272,-14.134178170207292zM146.6535079562862,-32.742510117329914L147.0214258034408,-31.72751951385762L140.53032052849758,-76.2928052668997zM146.34992896360828,-33.5800293698834L146.42660891901866,-33.36849664435034L139.42873327026555,-81.52979601049836zM146.42660891901866,-33.36849664435034L146.6535079562862,-32.742510117329914L139.92093708657833,-79.03497229021045z" style="fill:rgb(247,158,158)"/><path d="M158.10509427294173,-36.59424545205949L150.17875149184124,-59.204579524710994L-228.66687091224918,40.16217992196064zM146.34992896360828,-33.5800293698834L149.57397130430786,-10.846564929541785L154.17230521333815,-11.999833840448938zM165.7123667169325,-14.894096203489855L146.34992896360828,-33.5800293698834L154.17230521333815,-11.999833840448938z" style="fill:rgb(127,37,217)"/><path d="M-227.97244941295105,36.87852695215927L150.17875149184124,-59.204579524710994L149.67758355300526,-62.48138547098237z" style="fill:rgb(83,212,212)"/><path d="M141.20496615437176,-35.663606860480854L141.66624606335378,-32.37905610169095L149.57397130430786,-10.846564929541785z" style="fill:rgb(247,158,158)"/><path d="M146.34992896360828,-33.5800293698834L141.66624606335378,-32.37905610169095L149.57397130430786,-10.846564929541785zM165.7123667169325,-14.894096203489855L158.10509427294173,-36.59424545205949L146.34992896360828,-33.5800293698834zM137.74050392873926,-59.34072706952349L141.20496615437176,-35.663606860480854L145.87286732147106,-36.86432649696111zM137.74050392873926,-59.34072706952349L132.9846539808414,-58.089466010398255L141.20496615437176,-35.663606860480854z" style="fill:rgb(127,37,217)"/></svg>
