<?xml version="1.0" encoding="UTF-8"?>
<!-- Generated by jsxcad -->
<!DOCTYPE svg PUBLIC "-//W3C//DTD SVG 1.1 Tiny//EN" "http://www.w3.org/Graphics/SVG/1.1/DTD/svg11-tiny.dtd">
<svg viewBox="-250 -250 500 500" width="500" height="500" xmlns="http://www.w3.org/2000/svg"><path d="M-129.24832713629672,51.27276037682369L-120.25063866676498,1.4868321595187257L-123.45833646166525,2.336539048867778zM-120.56366764426748,178.1149899107076L16.30120507184124,6.040967532004328L-106.64679451601546,37.376962848919334zM-129.24832713629672,51.27276037682369L-125.89502130577415,50.42505801864022L-120.25063866676498,1.4868321595187257z" style="fill:rgb(83,212,212)"/><path d="M18.503782941964733,147.5302802089393L17.461126581253517,8.35184167037535L16.30120507184124,6.040967532004328z" style="fill:rgb(247,158,158)"/><path d="M49.64694879815083,-2.4579260347651526L16.30120507184124,6.040967532004328L18.503782941964733,147.5302802089393zM-145.63647144921802,145.14567281988008L-123.45833646166525,2.336539048867778L-128.26006719821575,3.608499444075621z" style="fill:rgb(83,212,212)"/><path d="M-124.34180095912768,52.75061833107618L-129.24832713629672,51.27276037682369L-127.6885694545859,53.59434844583163zM-124.34180095912768,52.75061833107618L-125.89502130577415,50.42505801864022L-129.24832713629672,51.27276037682369z" style="fill:rgb(127,37,217)"/><path d="M57.64364558419856,141.49837897021143L50.741344009320606,-0.10900598945963408L49.64694879815083,-2.4579260347651526zM-143.02934282229458,134.44953004029207L-120.25063866676498,1.4868321595187257L-125.78492348827317,-7.283324193749811z" style="fill:rgb(247,158,158)"/><path d="M-146.68577713161892,135.29920720990705L-125.78492348827317,-7.283324193749811L-129.01508827231135,-6.419232320787357zM-136.579766346371,143.06450989822665L-1.741865355458033,-29.90567967720384L-120.25063866676498,1.4868321595187257z" style="fill:rgb(83,212,212)"/><path d="M-133.4197703072893,86.52923640765454L-127.6885694545859,53.59434844583163L-129.24832713629672,51.27276037682369zM-124.34180095912768,52.75061833107618L-125.89502130577415,50.42505801864022L-129.9618289580739,85.6853115346049z" style="fill:rgb(247,158,158)"/><path d="M-125.89502130577415,50.42505801864022L-129.24832713629672,51.27276037682369L-133.4197703072893,86.52923640765454z" style="fill:rgb(83,212,212)"/><path d="M-143.02934299858373,134.44953020587795L-125.78492348825954,-7.283325322479113L-135.93394379057432,-23.36642715361827z" style="fill:rgb(247,158,158)"/><path d="M56.41768648420132,139.1919892764703L182.70785114935754,-36.37141571282798L49.64694879815083,-2.4579260347651526z" style="fill:rgb(83,212,212)"/><path d="M-102.95082302856761,43.15153098400921L184.8881552957942,-29.720304497808435L128.27401643431637,-202.42409503971106z" style="fill:rgb(127,37,217)"/><path d="M-133.4197703072893,86.52923640765454L-131.79969992687737,88.84025935308888L-127.6885694545859,53.59434844583163zM-124.34180095912768,52.75061833107618L-129.9618289580739,85.6853115346049L-128.34870566459696,88.00040613046116z" style="fill:rgb(247,158,158)"/><path d="M-125.89502130577415,50.42505801864022L-133.4197703072893,86.52923640765454L-129.9618289580739,85.6853115346049zM-154.89537116659466,118.59956983171197L-135.93394379057432,-23.36642715361827L-139.20511974355594,-22.47564250524827zM-120.56366764426748,178.1149899107076L18.503782941964733,147.5302802089393L16.30120507184124,6.040967532004328z" style="fill:rgb(83,212,212)"/><path d="M-1.9865397829356064,112.13599781505769L-0.5001106241988957,-27.43177030275177L-1.741865355458033,-29.90567967720384z" style="fill:rgb(247,158,158)"/><path d="M-129.9618289580739,85.6853115346049L-131.79969992687737,88.84025935308888L-128.34870566459696,88.00040613046116zM-129.9618289580739,85.6853115346049L-133.4197703072893,86.52923640765454L-131.79969992687737,88.84025935308888z" style="fill:rgb(127,37,217)"/><path d="M32.61802056973397,-39.007476347405024L-1.741865355458033,-29.90567967720384L-1.9865397829356064,112.13599781505769z" style="fill:rgb(83,212,212)"/><path d="M127.90820418351528,-204.81585993474152L184.8881552957942,-29.720304497808435L184.43391316337244,-32.20514961251776zM18.503782941964733,147.5302802089393L19.814455419078342,149.79429489051324L17.461126581253517,8.35184167037535zM183.52863204278103,-33.86759285169384L182.70785114935754,-36.37141571282798L208.5490360640077,105.73418334949737zM38.570009732303504,105.61527368255376L33.7902911326263,-36.49140903934961L32.61802056973397,-39.007476347405024z" style="fill:rgb(247,158,158)"/><path d="M-102.95082302856761,43.15153098400921L128.27401643431637,-202.42409503971106L-197.9200453741697,-105.22789049581326z" style="fill:rgb(127,37,217)"/><path d="M164.91838361613884,-23.09115279321614L160.68524788529064,-72.93198873926877L157.0022996839097,-71.95639194949341zM-145.63647144921802,145.14567281988008L-140.20749023214984,143.89813161959742L-123.45833646166525,2.336539048867778z" style="fill:rgb(83,212,212)"/><path d="M-177.68478449194552,-43.90694503446847L-171.17262630917594,-79.20896139104845L-171.3457242397492,-79.48327364238872zM-177.77602657794236,-45.09628365075696L-171.3457242397492,-79.48327364238872L-171.5738838413435,-79.84484524559116zM-177.65661062046675,-42.772089220528585L-171.05626851294207,-79.02458328469882L-171.17262630917594,-79.20896139104845zM-177.92933367037787,-46.32823465886335L-171.5738838413435,-79.84484524559116L-171.8548622882936,-80.29010994117745zM-177.69188280096768,-41.70310239423299L-170.9978092348204,-78.93193955380004L-171.05626851294207,-79.02458328469882zM-178.14312168287867,-47.59055685857487L-171.8548622882936,-80.29010994117745L-172.1859016826114,-80.81470567705574z" style="fill:rgb(247,158,158)"/><path d="M49.64694879815083,-2.4579260347651526L18.503782941964733,147.5302802089393L56.41768648420132,139.1919892764703z" style="fill:rgb(83,212,212)"/><path d="M-178.41523134039173,-48.870744466293075L-172.1859016826114,-80.81470567705574L-172.56374226728283,-81.41346011799028zM-178.74294498332043,-50.1561294504485L-172.56374226728283,-81.41346011799028L-172.98464370165112,-82.0804612461538zM-179.12301680538332,-51.43400130417279L-172.98464370165112,-82.0804612461538L-173.44442931097188,-82.80908579727458zM-179.55171341607334,-52.69171983758111L-173.44442931097188,-82.80908579727458L-173.93852790695686,-83.59207964666126zM-180.02481858005166,-53.91682448960428L-173.93852790695686,-83.59207964666126L-174.46199320470782,-84.42161765002436zM57.64364558419856,141.49837897021143L49.64694879815083,-2.4579260347651526L56.41768648420132,139.1919892764703zM-143.02934282229458,134.44953004029207L-136.579766346371,143.06450989822665L-120.25063866676498,1.4868321595187257zM-180.5376981090095,-55.09713132043237L-174.46199320470782,-84.42161765002436L-175.00957460150192,-85.28937980405408zM-181.08533026661715,-56.22087850593512L-175.00957460150192,-85.28937980405408L-175.5757597475895,-86.18660463563735zM-181.66232092197066,-57.27677642145863L-175.5757597475895,-86.18660463563735L-176.15480027642568,-87.10419342216568zM-182.26299197985202,-58.25417087068031L-176.15480027642568,-87.10419342216568L-176.7408085176824,-88.03283191728157zM-182.88137284987604,-59.14311531981313L-176.7408085176824,-88.03283191728157L-177.32776240774095,-88.9629803491073z" style="fill:rgb(247,158,158)"/><path d="M-140.20749023214984,143.89813161959742L-129.9618289580739,85.6853115346049L-133.4197703072893,86.52923640765454zM37.24421470963393,103.12106883810898L157.0022996839097,-71.95639194949341L32.61802056973397,-39.007476347405024z" style="fill:rgb(83,212,212)"/><path d="M-183.5113543924821,-59.93446459200608L-177.32776240774095,-88.9629803491073L-177.90965956261255,-89.88511455559271zM-184.1466269132856,-60.61998838259051L-177.90965956261255,-89.88511455559271L-178.48047351097924,-90.78966573996873z" style="fill:rgb(247,158,158)"/><path d="M-146.68577713161892,135.29920720990705L-143.02934282229458,134.44953004029207L-125.78492348827317,-7.283324193749811z" style="fill:rgb(83,212,212)"/><path d="M-184.7807979855572,-61.1924403292564L-178.48047351097924,-90.78966573996873L-179.0342679351604,-91.66727460461277zM-185.40746317737302,-61.64565914665L-179.0342679351604,-91.66727460461277L-179.56527869125918,-92.50876809639496z" style="fill:rgb(247,158,158)"/><path d="M19.814455419078342,149.79429489051324L-120.56366764426748,178.1149899107076L-118.95756248524775,180.22690975088287z" style="fill:rgb(127,37,217)"/><path d="M-186.0202384162955,-61.97463388734706L-179.56527869125918,-92.50876809639496L-180.0679405716578,-93.30533392786093zM-186.61283146538602,-62.17555845666423L-180.0679405716578,-93.30533392786093L-180.5369624420988,-94.04859428561079zM-178.14312168287867,-47.59055685857487L-177.92933367037787,-46.32823465886335L-171.8548622882936,-80.29010994117745zM-178.41523134039173,-48.870744466293075L-178.14312168287867,-47.59055685857487L-172.1859016826114,-80.81470567705574zM-177.92933367037787,-46.32823465886335L-177.77602657794236,-45.09628365075696L-171.5738838413435,-79.84484524559116zM-178.74294498332043,-50.1561294504485L-178.41523134039173,-48.870744466293075L-172.56374226728283,-81.41346011799028zM-177.77602657794236,-45.09628365075696L-177.68478449194552,-43.90694503446847L-171.3457242397492,-79.48327364238872zM-179.12301680538332,-51.43400130417279L-178.74294498332043,-50.1561294504485L-172.98464370165112,-82.0804612461538zM-177.68478449194552,-43.90694503446847L-177.65661062046675,-42.772089220528585L-171.17262630917594,-79.20896139104845zM-179.55171341607334,-52.69171983758111L-179.12301680538332,-51.43400130417279L-173.44442931097188,-82.80908579727458zM-187.1791129579169,-62.245911894654355L-180.5369624420988,-94.04859428561079L-180.96739177377657,-94.7306942404372zM-177.65661062046675,-42.772089220528585L-177.69188280096768,-41.70310239423299L-171.05626851294207,-79.02458328469882zM-180.02481858005166,-53.91682448960428L-179.55171341607334,-52.69171983758111L-173.93852790695686,-83.59207964666126zM-177.69188280096768,-41.70310239423299L-177.7904084809478,-40.71077463631789L-170.9978092348204,-78.93193955380004zM-187.71317479960481,-62.184478737897344L-180.96739177377657,-94.7306942404372L-181.3546622441508,-95.34439253307491zM-180.5376981090095,-55.09713132043237L-180.02481858005166,-53.91682448960428L-174.46199320470782,-84.42161765002436zM-181.08533026661715,-56.22087850593512L-180.5376981090095,-55.09713132043237L-175.00957460150192,-85.28937980405408zM-188.20939066788574,-61.99139924756256L-181.3546622441508,-95.34439253307491L-181.69464855845916,-95.88316594579759zM-181.66232092197066,-57.27677642145863L-181.08533026661715,-56.22087850593512L-175.5757597475895,-86.18660463563735z" style="fill:rgb(247,158,158)"/><path d="M164.91838361613884,-23.09115279321614L168.7944838331641,-24.071010166679436L160.68524788529064,-72.93198873926877z" style="fill:rgb(83,212,212)"/><path d="M-188.66249391186622,-61.66817948862408L-181.69464855845916,-95.88316594579759L-181.98372426978568,-96.34126632306847zM-189.06762657131296,-61.21770219215367L-181.98372426978568,-96.34126632306847L-182.2187975884002,-96.713785739924zM-182.26299197985202,-58.25417087068031L-181.66232092197066,-57.27677642145863L-176.15480027642568,-87.10419342216568zM-189.42040195337725,-60.64419910467075L-182.2187975884002,-96.713785739924L-182.39734612342588,-96.99674006476329zM-182.88137284987604,-59.14311531981313L-182.26299197985202,-58.25417087068031L-176.7408085176824,-88.03283191728157zM-189.71697029360806,-59.95325006946613L-182.39734612342588,-96.99674006476329L-182.5174668856938,-97.18708065735613zM-189.95402443747645,-59.15171392232574L-182.5174668856938,-97.18708065735613L-182.57784669235534,-97.28277280117608zM-183.5113543924821,-59.93446459200608L-182.88137284987604,-59.14311531981313L-177.32776240774095,-88.9629803491073zM-184.1466269132856,-60.61998838259051L-183.5113543924821,-59.93446459200608L-177.90965956261255,-89.88511455559271zM-184.7807979855572,-61.1924403292564L-184.1466269132856,-60.61998838259051L-178.48047351097924,-90.78966573996873zM-143.02934299858373,134.44953020587795L-135.93394379057432,-23.36642715361827L-154.89537116659466,118.59956983171197zM-196.2701934994792,63.333467680824526L-135.93394379057432,-23.36642715361827L-170.99048196048622,-78.920336164035zM-185.40746317737302,-61.64565914665L-184.7807979855572,-61.1924403292564L-179.0342679351604,-91.66727460461277z" style="fill:rgb(247,158,158)"/><path d="M-136.579766346371,143.06450989822665L-1.9865397829356064,112.13599781505769L-1.741865355458033,-29.90567967720384z" style="fill:rgb(83,212,212)"/><path d="M-186.0202384162955,-61.97463388734706L-185.40746317737302,-61.64565914665L-179.56527869125918,-92.50876809639496z" style="fill:rgb(247,158,158)"/><path d="M-178.74294498332043,-50.1561294504485L-182.27005577548152,-49.16058390887242L-181.9426664487337,-47.87636891928263z" style="fill:rgb(97,120,251)"/><path d="M-186.61283146538602,-62.17555845666423L-186.0202384162955,-61.97463388734706L-180.0679405716578,-93.30533392786093z" style="fill:rgb(247,158,158)"/><path d="M-178.41523134039173,-48.870744466293075L-181.9426664487337,-47.87636891928263L-181.67127130297305,-46.59721745635189z" style="fill:rgb(94,133,250)"/><path d="M-179.12301680538332,-51.43400130417279L-182.65019653137114,-50.43717299935802L-182.27005577548152,-49.16058390887242z" style="fill:rgb(100,108,250)"/><path d="M-178.14312168287867,-47.59055685857487L-181.67127130297305,-46.59721745635189L-181.45858114132676,-45.33578767999215z" style="fill:rgb(91,145,248)"/><path d="M-179.55171341607334,-52.69171983758111L-183.0793546791178,-51.69350320909321L-182.65019653137114,-50.43717299935802z" style="fill:rgb(104,95,248)"/><path d="M-178.74294498332043,-50.1561294504485L-181.9426664487337,-47.87636891928263L-178.41523134039173,-48.870744466293075z" style="fill:rgb(97,120,251)"/><path d="M-179.12301680538332,-51.43400130417279L-182.27005577548152,-49.16058390887242L-178.74294498332043,-50.1561294504485z" style="fill:rgb(100,108,250)"/><path d="M-178.41523134039173,-48.870744466293075L-181.67127130297305,-46.59721745635189L-178.14312168287867,-47.59055685857487z" style="fill:rgb(94,133,250)"/><path d="M-179.55171341607334,-52.69171983758111L-182.65019653137114,-50.43717299935802L-179.12301680538332,-51.43400130417279z" style="fill:rgb(104,95,248)"/><path d="M-177.92933367037787,-46.32823465886335L-181.45858114132676,-45.33578767999215L-181.30674470149307,-44.104586779062195z" style="fill:rgb(89,157,245)"/><path d="M-180.02481858005166,-53.91682448960428L-183.55330969885637,-52.91712731502219L-183.0793546791178,-51.69350320909321z" style="fill:rgb(108,83,245)"/><path d="M19.814455419078342,149.79429489051324L18.503782941964733,147.5302802089393L-120.56366764426748,178.1149899107076z" style="fill:rgb(127,37,217)"/><path d="M-178.14312168287867,-47.59055685857487L-181.45858114132676,-45.33578767999215L-177.92933367037787,-46.32823465886335z" style="fill:rgb(91,145,248)"/><path d="M-180.02481858005166,-53.91682448960428L-183.0793546791178,-51.69350320909321L-179.55171341607334,-52.69171983758111z" style="fill:rgb(108,83,245)"/><path d="M-177.77602657794236,-45.09628365075696L-181.30674470149307,-44.104586779062195L-181.21733186273252,-42.91584373684475z" style="fill:rgb(87,169,240)"/><path d="M-177.92933367037787,-46.32823465886335L-181.30674470149307,-44.104586779062195L-177.77602657794236,-45.09628365075696z" style="fill:rgb(89,157,245)"/><path d="M-180.5376981090095,-55.09713132043237L-184.06741858067898,-54.09588039298909L-183.55330969885637,-52.91712731502219z" style="fill:rgb(112,72,241)"/><path d="M-187.1791129579169,-62.245911894654355L-186.61283146538602,-62.17555845666423L-180.5369624420988,-94.04859428561079z" style="fill:rgb(247,158,158)"/><path d="M-180.5376981090095,-55.09713132043237L-183.55330969885637,-52.91712731502219L-180.02481858005166,-53.91682448960428z" style="fill:rgb(112,72,241)"/><path d="M-140.20749023214984,143.89813161959742L-136.579766346371,143.06450989822665L-129.9618289580739,85.6853115346049z" style="fill:rgb(83,212,212)"/><path d="M-177.77602657794236,-45.09628365075696L-181.21733186273252,-42.91584373684475L-177.68478449194552,-43.90694503446847z" style="fill:rgb(87,169,240)"/><path d="M-177.68478449194552,-43.90694503446847L-181.21733186273252,-42.91584373684475L-181.1913282111569,-41.78142311039192z" style="fill:rgb(85,181,235)"/><path d="M-181.08533026661715,-56.22087850593512L-184.61664838964893,-55.21800084338669L-184.06741858067898,-54.09588039298909zM-181.08533026661715,-56.22087850593512L-184.06741858067898,-54.09588039298909L-180.5376981090095,-55.09713132043237z" style="fill:rgb(116,61,236)"/><path d="M-177.68478449194552,-43.90694503446847L-181.1913282111569,-41.78142311039192L-177.65661062046675,-42.772089220528585z" style="fill:rgb(85,181,235)"/><path d="M-187.71317479960481,-62.184478737897344L-187.1791129579169,-62.245911894654355L-180.96739177377657,-94.7306942404372z" style="fill:rgb(247,158,158)"/><path d="M-177.65661062046675,-42.772089220528585L-181.1913282111569,-41.78142311039192L-181.22909050145805,-40.71270921725037z" style="fill:rgb(84,192,228)"/><path d="M-181.66232092197066,-57.27677642145863L-185.19558928570783,-56.27222978132773L-184.61664838964893,-55.21800084338669zM-181.66232092197066,-57.27677642145863L-184.61664838964893,-55.21800084338669L-181.08533026661715,-56.22087850593512z" style="fill:rgb(120,51,229)"/><path d="M-154.89537116659466,118.59956983171197L-139.20511974355594,-22.47564250524827L-158.60433672969037,119.47918580771997z" style="fill:rgb(83,212,212)"/><path d="M-177.65661062046675,-42.772089220528585L-181.22909050145805,-40.71270921725037L-177.69188280096768,-41.70310239423299z" style="fill:rgb(84,192,228)"/><path d="M-177.69188280096768,-41.70310239423299L-181.22909050145805,-40.71270921725037L-181.33040213903277,-39.72048429121366z" style="fill:rgb(84,202,220)"/><path d="M-182.26299197985202,-58.25417087068031L-185.79854431112344,-57.24792937054684L-185.19558928570783,-56.27222978132773zM-182.26299197985202,-58.25417087068031L-185.19558928570783,-56.27222978132773L-181.66232092197066,-57.27677642145863z" style="fill:rgb(125,41,221)"/><path d="M-188.20939066788574,-61.99139924756256L-187.71317479960481,-62.184478737897344L-181.3546622441508,-95.34439253307491z" style="fill:rgb(247,158,158)"/><path d="M-177.69188280096768,-41.70310239423299L-181.33040213903277,-39.72048429121366L-177.7904084809478,-40.71077463631789z" style="fill:rgb(84,202,220)"/><path d="M-182.88137284987604,-59.14311531981313L-186.41952064484408,-58.13515488763424L-185.79854431112344,-57.24792937054684zM-182.88137284987604,-59.14311531981313L-185.79854431112344,-57.24792937054684L-182.26299197985202,-58.25417087068031z" style="fill:rgb(129,33,213)"/><path d="M56.41768648420132,139.1919892764703L208.5490360640077,105.73418334949737L182.70785114935754,-36.37141571282798z" style="fill:rgb(83,212,212)"/><path d="M-188.66249391186622,-61.66817948862408L-188.20939066788574,-61.99139924756256L-181.69464855845916,-95.88316594579759z" style="fill:rgb(247,158,158)"/><path d="M-183.5113543924821,-59.93446459200608L-186.41952064484408,-58.13515488763424L-182.88137284987604,-59.14311531981313zM-183.5113543924821,-59.93446459200608L-187.052383815389,-58.92479834015306L-186.41952064484408,-58.13515488763424z" style="fill:rgb(134,25,203)"/><path d="M-189.06762657131296,-61.21770219215367L-188.66249391186622,-61.66817948862408L-181.98372426978568,-96.34126632306847z" style="fill:rgb(247,158,158)"/><path d="M-184.1466269132856,-60.61998838259051L-187.052383815389,-58.92479834015306L-183.5113543924821,-59.93446459200608zM-184.1466269132856,-60.61998838259051L-187.69079584071605,-59.60863168588492L-187.052383815389,-58.92479834015306z" style="fill:rgb(138,18,193)"/><path d="M-189.42040195337725,-60.64419910467075L-189.06762657131296,-61.21770219215367L-182.2187975884002,-96.713785739924z" style="fill:rgb(247,158,158)"/><path d="M169.72084807403442,-21.383186697050828L164.91838361613884,-23.09115279321614L165.85366608131773,-20.408262659316453z" style="fill:rgb(127,37,217)"/><path d="M-189.71697029360806,-59.95325006946613L-189.42040195337725,-60.64419910467075L-182.39734612342588,-96.99674006476329z" style="fill:rgb(247,158,158)"/><path d="M-184.7807979855572,-61.1924403292564L-187.69079584071605,-59.60863168588492L-184.1466269132856,-60.61998838259051zM-184.7807979855572,-61.1924403292564L-188.32833337523573,-60.17942583338444L-187.69079584071605,-59.60863168588492z" style="fill:rgb(142,13,182)"/><path d="M-189.95402443747645,-59.15171392232574L-189.71697029360806,-59.95325006946613L-182.5174668856938,-97.18708065735613z" style="fill:rgb(247,158,158)"/><path d="M169.72084807403442,-21.383186697050828L168.7944838331641,-24.071010166679436L164.91838361613884,-23.09115279321614z" style="fill:rgb(127,37,217)"/><path d="M-185.40746317737302,-61.64565914665L-188.32833337523573,-60.17942583338444L-184.7807979855572,-61.1924403292564zM-185.40746317737302,-61.64565914665L-188.95855863470504,-60.63105168126869L-188.32833337523573,-60.17942583338444z" style="fill:rgb(146,9,171)"/><path d="M184.29578219638321,69.32972231873136L169.92092577515595,-75.37848161740912L160.68524788529064,-72.93198873926877z" style="fill:rgb(83,212,212)"/><path d="M-1.9865397829356064,112.13599781505769L-0.5701746898494411,114.58258394554088L-0.5001106241988957,-27.43177030275177zM194.9514016889136,66.88114333967061L170.80211285870146,-72.69038997478792L169.92092577515595,-75.37848161740912z" style="fill:rgb(247,158,158)"/><path d="M-186.0202384162955,-61.97463388734706L-188.95855863470504,-60.63105168126869L-185.40746317737302,-61.64565914665zM-186.0202384162955,-61.97463388734706L-189.5750521111902,-60.95849494111895L-188.95855863470504,-60.63105168126869z" style="fill:rgb(150,6,159)"/><path d="M-186.61283146538602,-62.17555845666423L-189.5750521111902,-60.95849494111895L-186.0202384162955,-61.97463388734706zM-186.61283146538602,-62.17555845666423L-190.17148411536027,-61.157985781498255L-189.5750521111902,-60.95849494111895z" style="fill:rgb(154,4,146)"/><path d="M-187.1791129579169,-62.245911894654355L-190.17148411536027,-61.157985781498255L-186.61283146538602,-62.17555845666423zM-187.1791129579169,-62.245911894654355L-190.74168659335342,-61.22699856757166L-190.17148411536027,-61.157985781498255z" style="fill:rgb(157,3,134)"/><path d="M-200.15922848830152,64.32152606321509L-170.99048196048622,-78.920336164035L-174.40129642560922,-77.93423151142223z" style="fill:rgb(83,212,212)"/><path d="M-187.71317479960481,-62.184478737897344L-190.74168659335342,-61.22699856757166L-187.1791129579169,-62.245911894654355zM-187.71317479960481,-62.184478737897344L-191.27971155299667,-61.164347473709164L-190.74168659335342,-61.22699856757166z" style="fill:rgb(160,4,121)"/><path d="M-196.27890457264107,63.32183977115049L-170.99048196048622,-78.920336164035L-170.9978092348204,-78.93193955380004zM180.64324989129045,59.23476853358834L160.68524788529064,-72.93198873926877L157.29140963539666,-83.00819762023113zM183.52863204278103,-33.86759285169384L208.5490360640077,105.73418334949737L209.41710424351535,108.21454537864754z" style="fill:rgb(247,158,158)"/><path d="M56.41768648420132,139.1919892764703L18.503782941964733,147.5302802089393L19.814455419078342,149.79429489051324z" style="fill:rgb(127,37,217)"/><path d="M-197.39960232979396,-107.68887066903501L-197.9200453741697,-105.22789049581326L128.27401643431637,-202.42409503971106zM32.61802056973397,-39.007476347405024L-1.9865397829356064,112.13599781505769L37.24421470963393,103.12106883810898zM176.35563049817728,60.2311200659852L157.29140963539666,-83.00819762023113L153.5781900263254,-82.01488762939812z" style="fill:rgb(83,212,212)"/><path d="M56.41768648420132,139.1919892764703L19.814455419078342,149.79429489051324L57.64364558419856,141.49837897021143z" style="fill:rgb(127,37,217)"/><path d="M38.570009732303504,105.61527368255376L32.61802056973397,-39.007476347405024L37.24421470963393,103.12106883810898zM170.65467691443152,12.318441858823096L165.85366608131773,-20.408262659316453L164.91838361613884,-23.09115279321614zM169.72084807403442,-21.383186697050828L168.7944838331641,-24.071010166679436L174.67118940455086,11.33819235239933z" style="fill:rgb(247,158,158)"/><path d="M168.7944838331641,-24.071010166679436L164.91838361613884,-23.09115279321614L170.65467691443152,12.318441858823096z" style="fill:rgb(83,212,212)"/><path d="M-143.02934282229458,134.44953004029207L-140.20749023214984,143.89813161959742L-136.579766346371,143.06450989822665z" style="fill:rgb(127,37,217)"/><path d="M127.90820418351528,-204.81585993474152L128.27401643431637,-202.42409503971106L184.8881552957942,-29.720304497808435zM180.64324989119402,59.23476297396688L157.29141036661113,-83.00819800660275L151.05696582243806,-101.51804255731105z" style="fill:rgb(247,158,158)"/><path d="M-177.7904084809478,-40.71077463631789L-181.33040213903277,-39.72048429121366L-191.76670434721743,17.91394102774256z" style="fill:rgb(83,212,212)"/><path d="M-143.02934282229458,134.44953004029207L-146.68577713161892,135.29920720990705L-140.20749023214984,143.89813161959742z" style="fill:rgb(127,37,217)"/><path d="M-196.2701934994792,63.333467680824526L-154.89537116659466,118.59956983171197L-135.93394379057432,-23.36642715361827z" style="fill:rgb(247,158,158)"/><path d="M-0.5701746898494411,114.58258394554088L-145.63647144921802,145.14567281988008L-143.90552914165272,147.42175589587237z" style="fill:rgb(127,37,217)"/><path d="M170.65467691443152,12.318441858823096L171.60744877001727,15.00207626352751L165.85366608131773,-20.408262659316453z" style="fill:rgb(247,158,158)"/><path d="M-210.08871312523115,44.875495618103464L-182.58541601527943,-97.29475963127375L-186.0417424381299,-96.27605202141079z" style="fill:rgb(83,212,212)"/><path d="M169.72084807403442,-21.383186697050828L174.67118940455086,11.33819235239933L175.61438371046455,14.026934445033895zM-210.08871312523115,44.875495618103464L-182.57784669235534,-97.28277280117608L-182.58541601527943,-97.29475963127375z" style="fill:rgb(247,158,158)"/><path d="M168.7944838331641,-24.071010166679436L170.65467691443152,12.318441858823096L174.67118940455086,11.33819235239933z" style="fill:rgb(83,212,212)"/><path d="M209.41710424351535,108.21454537864754L56.41768648420132,139.1919892764703L57.64364558419856,141.49837897021143zM-154.89537116659466,118.59956983171197L-146.68577740255864,135.29920745962258L-143.02934299858373,134.44953020587795z" style="fill:rgb(127,37,217)"/><path d="M173.90820106745787,40.62032095818585L151.05696582243806,-101.51804255731105L147.2882789504913,-100.49177855578965z" style="fill:rgb(83,212,212)"/><path d="M-218.03333500390812,34.26353487912471L-182.58541601527943,-97.29475963127375L-189.22622449138348,-107.81839594721437z" style="fill:rgb(247,158,158)"/><path d="M-154.89537116659466,118.59956983171197L-158.60433672969037,119.47918580771997L-146.68577740255864,135.29920745962258zM-0.5701746898494411,114.58258394554088L-1.9865397829356064,112.13599781505769L-145.63647144921802,145.14567281988008z" style="fill:rgb(127,37,217)"/><path d="M-189.22622449138348,-107.81839594721437L-192.70846603102999,-106.78079260793149L-222.01518821365107,35.31116307538026zM37.24421470963393,103.12106883810898L180.04851514928657,70.30571049716244L157.0022996839097,-71.95639194949341z" style="fill:rgb(83,212,212)"/><path d="M174.67118940455086,11.33819235239933L171.60744877001727,15.00207626352751L175.61438371046455,14.026934445033895z" style="fill:rgb(127,37,217)"/><path d="M-177.7904084809478,-40.71077463631789L-191.76670434721743,17.91394102774256L-188.03288150459073,16.92242826796179zM-197.39960232979396,-107.68887066903501L128.27401643431637,-202.42409503971106L127.90820418351528,-204.81585993474152z" style="fill:rgb(83,212,212)"/><path d="M174.67118940455086,11.33819235239933L170.65467691443152,12.318441858823096L171.60744877001727,15.00207626352751zM209.41710424351535,108.21454537864754L208.5490360640077,105.73418334949737L56.41768648420132,139.1919892764703z" style="fill:rgb(127,37,217)"/><path d="M134.3604173772177,-131.45492652071144L129.30251797052554,-166.1063270877774L129.19523326328064,-166.4248278106215zM134.09500502387718,-132.69334003768807L129.19523326328064,-166.4248278106215L129.0538285134143,-166.84466800629724zM134.59578322882473,-130.285971486774L129.3746209279538,-165.89225135141345L129.30251797052554,-166.1063270877774zM133.80220638776345,-133.9888526386023L129.0538285134143,-166.84466800629724L128.87967696889203,-167.36172425189218zM134.79869110902249,-129.1981903999815L129.41084824089504,-165.78468316044237L129.3746209279538,-165.89225135141345zM133.48494467675943,-135.32861655037414L128.87967696889203,-167.36172425189218L128.6744835644434,-167.97093703144932zM194.9514016889136,66.88114333967061L195.8929444140019,69.57144139657746L170.80211285870146,-72.69038997478792zM133.14636662291477,-136.69937070204224L128.6744835644434,-167.97093703144932L128.44026117325927,-168.66632383181664z" style="fill:rgb(247,158,158)"/><path d="M37.24421470963393,103.12106883810898L-1.9865397829356064,112.13599781505769L-0.5701746898494411,114.58258394554088z" style="fill:rgb(127,37,217)"/><path d="M132.78982414421577,-138.08760810591932L128.44026117325927,-168.66632383181664L128.17932301909156,-169.44103946604986z" style="fill:rgb(247,158,158)"/><path d="M184.29578219638321,69.32972231873136L194.9514016889136,66.88114333967061L169.92092577515595,-75.37848161740912z" style="fill:rgb(83,212,212)"/><path d="M132.41883338080552,-139.47962020858532L128.17932301909156,-169.44103946604986L127.89425193715459,-170.2874010094705zM132.03704484702394,-140.86170222700446L127.89425193715459,-170.2874010094705L127.58787511428582,-171.19703448010438zM131.64821989740165,-142.2202015290698L127.58787511428582,-171.19703448010438L127.2632537882464,-172.16083699727844z" style="fill:rgb(247,158,158)"/><path d="M37.24421470963393,103.12106883810898L-0.5701746898494411,114.58258394554088L38.570009732303504,105.61527368255376z" style="fill:rgb(127,37,217)"/><path d="M180.64324989129045,59.23476853358834L184.29578219638321,69.32972231873136L160.68524788529064,-72.93198873926877zM131.25618013775653,-143.5416603174744L127.2632537882464,-172.16083699727844L126.92362681626201,-173.16915710589439zM130.864811794796,-144.81296044946117L126.92362681626201,-173.16915710589439L126.57242649501136,-174.21186165744592zM130.47800435068172,-146.02138499411302L126.57242649501136,-174.21186165744592L126.21321580315478,-175.27835620006937z" style="fill:rgb(247,158,158)"/><path d="M-200.15922848830152,64.32152606321509L-196.2701934994792,63.333467680824526L-170.99048196048622,-78.920336164035z" style="fill:rgb(83,212,212)"/><path d="M-196.27890457264107,63.32183977115049L-196.2701934994792,63.333467680824526L-170.99048196048622,-78.920336164035zM130.09959649729245,-147.15477954879293L126.21321580315478,-175.27835620006937L125.84963421422104,-176.35781981734047z" style="fill:rgb(247,158,158)"/><path d="M-188.03288150459073,16.92242826796179L-191.76670434721743,17.91394102774256L-192.0153688118335,18.828702262716643z" style="fill:rgb(84,220,202)"/><path d="M129.7333860146888,-148.20166316233934L125.84963421422104,-176.35781981734047L125.48540633417906,-177.43919948285003z" style="fill:rgb(247,158,158)"/><path d="M-188.03288150459073,16.92242826796179L-192.0153688118335,18.828702262716643L-188.27789056342564,17.837040453115602z" style="fill:rgb(84,220,202)"/><path d="M180.04851514928657,70.30571049716244L174.67118940455086,11.33819235239933L170.65467691443152,12.318441858823096z" style="fill:rgb(83,212,212)"/><path d="M-188.27789056342564,17.837040453115602L-192.0153688118335,18.828702262716643L-192.32734912323465,19.63773327644687z" style="fill:rgb(84,228,192)"/><path d="M129.38306740689623,-149.15131880017518L125.48540633417906,-177.43919948285003L125.12427493262237,-178.51137728949692z" style="fill:rgb(247,158,158)"/><path d="M-188.27789056342564,17.837040453115602L-192.32734912323465,19.63773327644687L-188.5859874475953,18.645745998176007z" style="fill:rgb(84,228,192)"/><path d="M-188.5859874475953,18.645745998176007L-192.32734912323465,19.63773327644687L-192.69969419560317,20.332543025791907z" style="fill:rgb(85,235,181)"/><path d="M129.0522040019716,-149.99391210898457L125.12427493262237,-178.51137728949692L124.76997704082439,-179.56327705113569z" style="fill:rgb(247,158,158)"/><path d="M-188.5859874475953,18.645745998176007L-192.69969419560317,20.332543025791907L-188.9542586632195,19.3400549298826z" style="fill:rgb(85,235,181)"/><path d="M176.35563049817728,60.2311200659852L180.64324989129045,59.23476853358834L157.29140963539666,-83.00819762023113z" style="fill:rgb(83,212,212)"/><path d="M128.74420317348384,-150.72061377747923L124.76997704082439,-179.56327705113569L124.42620341411256,-180.58392901575422z" style="fill:rgb(247,158,158)"/><path d="M-188.9542586632195,19.3400549298826L-192.69969419560317,20.332543025791907L-193.12886991670746,20.905692036453612zM-188.9542586632195,19.3400549298826L-193.12886991670746,20.905692036453612L-189.37921137370978,19.912531962208266z" style="fill:rgb(87,240,169)"/><path d="M128.46223555835104,-151.32365937026034L124.42620341411256,-180.58392901575422L124.09652501947586,-181.5627265524475z" style="fill:rgb(247,158,158)"/><path d="M-196.2701934994792,63.333467680824526L-158.60432629245065,119.47918580771997L-154.89537116659466,118.59956983171197z" style="fill:rgb(127,37,217)"/><path d="M-189.37921137370978,19.912531962208266L-193.12886991670746,20.905692036453612L-193.61073039653203,21.350935956544355z" style="fill:rgb(89,245,157)"/><path d="M128.20927493874146,-151.79646276290754L124.09652501947586,-181.5627265524475L123.78441783552078,-182.48936144678063z" style="fill:rgb(247,158,158)"/><path d="M-189.37921137370978,19.912531962208266L-193.61073039653203,21.350935956544355L-189.8567422318987,20.35693857296755z" style="fill:rgb(89,245,157)"/><path d="M-189.8567422318987,20.35693857296755L-193.61073039653203,21.350935956544355L-194.14057327720312,21.663238022833326z" style="fill:rgb(91,248,145)"/><path d="M127.98800449250538,-152.13371137296573L123.78441783552078,-182.48936144678063L123.49316876921945,-183.35408903829781zM133.48494467675943,-135.32861655037414L133.80220638776345,-133.9888526386023L128.87967696889203,-167.36172425189218zM133.14636662291477,-136.69937070204224L133.48494467675943,-135.32861655037414L128.6744835644434,-167.97093703144932zM133.80220638776345,-133.9888526386023L134.09500502387718,-132.69334003768807L129.0538285134143,-166.84466800629724zM132.78982414421577,-138.08760810591932L133.14636662291477,-136.69937070204224L128.44026117325927,-168.66632383181664zM134.09500502387718,-132.69334003768807L134.3604173772177,-131.45492652071144L129.19523326328064,-166.4248278106215z" style="fill:rgb(247,158,158)"/><path d="M-189.8567422318987,20.35693857296755L-194.14057327720312,21.663238022833326L-190.3821917938959,20.66824532292372z" style="fill:rgb(91,248,145)"/><path d="M132.41883338080552,-139.47962020858532L132.78982414421577,-138.08760810591932L128.17932301909156,-169.44103946604986zM134.3604173772177,-131.45492652071144L134.59578322882473,-130.285971486774L129.30251797052554,-166.1063270877774zM132.03704484702394,-140.86170222700446L132.41883338080552,-139.47962020858532L127.89425193715459,-170.2874010094705zM127.80081680676142,-152.33141877202232L123.49316876921945,-183.35408903829781L123.22586622299698,-184.14770777481476z" style="fill:rgb(247,158,158)"/><path d="M-190.3821917938959,20.66824532292372L-194.14057327720312,21.663238022833326L-194.713170461429,21.838887321883632z" style="fill:rgb(94,250,133)"/><path d="M134.59578322882473,-130.285971486774L134.79869110902249,-129.1981903999815L129.3746209279538,-165.89225135141345zM131.64821989740165,-142.2202015290698L132.03704484702394,-140.86170222700446L127.58787511428582,-171.19703448010438zM134.79869110902249,-129.1981903999815L134.96705948661912,-128.20259883482032L129.41084824089504,-165.78468316044237z" style="fill:rgb(247,158,158)"/><path d="M-190.3821917938959,20.66824532292372L-194.713170461429,21.838887321883632L-190.95037879731615,20.842750576323272z" style="fill:rgb(94,250,133)"/><path d="M127.64975238522436,-152.386986853281L123.22586622299698,-184.14770777481476L122.98533481177688,-184.86182569352889zM131.25618013775653,-143.5416603174744L131.64821989740165,-142.2202015290698L127.2632537882464,-172.16083699727844zM130.864811794796,-144.81296044946117L131.25618013775653,-143.5416603174744L126.92362681626201,-173.16915710589439zM127.53652942427568,-152.299263026867L122.98533481177688,-184.86182569352889L122.7741560434895,-185.48881938616236zM130.47800435068172,-146.02138499411302L130.864811794796,-144.81296044946117L126.57242649501136,-174.21186165744592zM127.46246867005057,-152.06859398088784L122.7741560434895,-185.48881938616236L122.59458815658961,-186.02194749948094zM127.42847993279494,-151.69679835622546L122.59458815658961,-186.02194749948094L122.44854631943674,-186.45552250643013zM130.09959649729245,-147.15477954879293L130.47800435068172,-146.02138499411302L126.21321580315478,-175.27835620006937zM127.43509722027088,-151.18720931144978L122.44854631943674,-186.45552250643013L122.33762589385171,-186.78484924250827zM129.7333860146888,-148.20166316233934L130.09959649729245,-147.15477954879293L125.84963421422104,-176.35781981734047zM127.48238226900379,-150.5446577033323L122.33762589385171,-186.78484924250827L122.26300567200308,-187.0064086073159zM127.56997398588068,-149.7754233151343L122.26300567200308,-187.0064086073159L122.22548340992222,-187.11779233497455zM129.38306740689623,-149.15131880017518L129.7333860146888,-148.20166316233934L125.48540633417906,-177.43919948285003z" style="fill:rgb(247,158,158)"/><path d="M195.8929444140019,69.57144139657746L37.24421470963393,103.12106883810898L38.570009732303504,105.61527368255376z" style="fill:rgb(127,37,217)"/><path d="M129.0522040019716,-149.99391210898457L129.38306740689623,-149.15131880017518L125.12427493262237,-178.51137728949692zM128.74420317348384,-150.72061377747923L129.0522040019716,-149.99391210898457L124.76997704082439,-179.56327705113569zM180.64324989119402,59.23476297396688L151.05696582243806,-101.51804255731105L173.90820106745787,40.62032095818585zM-196.34840695323103,63.228998991454056L-188.03288150459073,16.92242826796179L-188.27789056342564,17.837040453115602zM150.27059736869177,-24.709775931627085L151.0569756635975,-101.51804255731105L129.41538111087254,-165.77121139760214zM128.46223555835104,-151.32365937026034L128.74420317348384,-150.72061377747923L124.42620341411256,-180.58392901575422zM-196.4867495462927,63.044221967541894L-188.27789056342564,17.837040453115602L-188.5859874475953,18.645745998176007zM128.20927493874146,-151.79646276290754L128.46223555835104,-151.32365937026034L124.09652501947586,-181.5627265524475z" style="fill:rgb(247,158,158)"/><path d="M-210.08871312523115,44.875495618103464L-186.0417424381299,-96.27605202141079L-214.0368328747651,45.90117657132123z" style="fill:rgb(83,212,212)"/><path d="M-196.69256593337872,62.76929957897516L-188.5859874475953,18.645745998176007L-188.9542586632195,19.3400549298826zM-210.08871312523115,44.875495618103464L-210.07967053601567,44.8875661999536L-182.57784669235534,-97.28277280117608z" style="fill:rgb(247,158,158)"/><path d="M132.78982414421577,-138.08760810591932L128.67194206201486,-136.92530940856489L129.02810044091888,-135.53844087453362z" style="fill:rgb(97,120,251)"/><path d="M127.98800449250538,-152.13371137296573L128.20927493874146,-151.79646276290754L123.78441783552078,-182.48936144678063zM-196.96387439807052,62.40689334391279L-188.9542586632195,19.3400549298826L-189.37921137370978,19.912531962208266z" style="fill:rgb(247,158,158)"/><path d="M133.14636662291477,-136.69937070204224L129.02810044091888,-135.53844087453362L129.3657565822525,-134.16887171778427z" style="fill:rgb(94,133,250)"/><path d="M132.41883338080552,-139.47962020858532L128.3007926700919,-138.31581260689993L128.67194206201486,-136.92530940856489z" style="fill:rgb(100,108,250)"/><path d="M133.48494467675943,-135.32861655037414L129.3657565822525,-134.16887171778427L129.68156665099974,-132.8301077989323z" style="fill:rgb(91,145,248)"/><path d="M132.03704484702394,-140.86170222700446L127.91830420439696,-139.69622762178022L128.3007926700919,-138.31581260689993z" style="fill:rgb(104,95,248)"/><path d="M132.78982414421577,-138.08760810591932L129.02810044091888,-135.53844087453362L133.14636662291477,-136.69937070204224z" style="fill:rgb(97,120,251)"/><path d="M132.41883338080552,-139.47962020858532L128.67194206201486,-136.92530940856489L132.78982414421577,-138.08760810591932z" style="fill:rgb(100,108,250)"/><path d="M133.14636662291477,-136.69937070204224L129.3657565822525,-134.16887171778427L133.48494467675943,-135.32861655037414z" style="fill:rgb(94,133,250)"/><path d="M132.03704484702394,-140.86170222700446L128.3007926700919,-138.31581260689993L132.41883338080552,-139.47962020858532z" style="fill:rgb(104,95,248)"/><path d="M133.80220638776345,-133.9888526386023L129.68156665099974,-132.8301077989323L129.97239836950925,-131.53540132773958z" style="fill:rgb(89,157,245)"/><path d="M131.64821989740165,-142.2202015290698L127.5282359630453,-141.05293062720978L127.91830420439696,-139.69622762178022z" style="fill:rgb(108,83,245)"/><path d="M133.48494467675943,-135.32861655037414L129.68156665099974,-132.8301077989323L133.80220638776345,-133.9888526386023z" style="fill:rgb(91,145,248)"/><path d="M131.64821989740165,-142.2202015290698L127.91830420439696,-139.69622762178022L132.03704484702394,-140.86170222700446z" style="fill:rgb(108,83,245)"/><path d="M134.09500502387718,-132.69334003768807L129.97239836950925,-131.53540132773958L130.23534596227546,-130.29759096108717z" style="fill:rgb(87,169,240)"/><path d="M133.80220638776345,-133.9888526386023L129.97239836950925,-131.53540132773958L134.09500502387718,-132.69334003768807z" style="fill:rgb(89,157,245)"/><path d="M-197.29802595264263,61.96055330249968L-189.37921137370978,19.912531962208266L-189.8567422318987,20.35693857296755z" style="fill:rgb(247,158,158)"/><path d="M131.25618013775653,-143.5416603174744L127.13445159769881,-142.3724787549011L127.5282359630453,-141.05293062720978z" style="fill:rgb(112,72,241)"/><path d="M127.80081680676142,-152.33141877202232L127.98800449250538,-152.13371137296573L123.49316876921945,-183.35408903829781z" style="fill:rgb(247,158,158)"/><path d="M131.25618013775653,-143.5416603174744L127.5282359630453,-141.05293062720978L131.64821989740165,-142.2202015290698z" style="fill:rgb(112,72,241)"/><path d="M180.04851514928657,70.30571049716244L184.29578219638321,69.32972231873136L174.67118940455086,11.33819235239933z" style="fill:rgb(83,212,212)"/><path d="M134.09500502387718,-132.69334003768807L130.23534596227546,-130.29759096108717L134.3604173772177,-131.45492652071144z" style="fill:rgb(87,169,240)"/><path d="M134.3604173772177,-131.45492652071144L130.23534596227546,-130.29759096108717L130.46777334616874,-129.12902000361944z" style="fill:rgb(85,181,235)"/><path d="M130.864811794796,-144.81296044946117L126.7408222821294,-143.6417728786164L127.13445159769881,-142.3724787549011zM130.864811794796,-144.81296044946117L127.13445159769881,-142.3724787549011L131.25618013775653,-143.5416603174744z" style="fill:rgb(116,61,236)"/><path d="M-197.69176250914398,61.43462331808844L-189.8567422318987,20.35693857296755L-190.3821917938959,20.66824532292372z" style="fill:rgb(247,158,158)"/><path d="M134.3604173772177,-131.45492652071144L130.46777334616874,-129.12902000361944L134.59578322882473,-130.285971486774z" style="fill:rgb(85,181,235)"/><path d="M134.59578322882473,-130.285971486774L130.46777334616874,-129.12902000361944L130.6672973187046,-128.0414323219928z" style="fill:rgb(84,192,228)"/><path d="M127.64975238522436,-152.386986853281L127.80081680676142,-152.33141877202232L123.22586622299698,-184.14770777481476z" style="fill:rgb(247,158,158)"/><path d="M130.47800435068172,-146.02138499411302L126.35126928181923,-144.8481147176898L126.7408222821294,-143.6417728786164zM130.47800435068172,-146.02138499411302L126.7408222821294,-143.6417728786164L130.864811794796,-144.81296044946117z" style="fill:rgb(120,51,229)"/><path d="M134.59578322882473,-130.285971486774L130.6672973187046,-128.0414323219928L134.79869110902249,-129.1981903999815z" style="fill:rgb(84,192,228)"/><path d="M173.90820106745787,40.62032095818585L147.2882789504913,-100.49177855578965L169.54637646715855,41.65477472570979z" style="fill:rgb(83,212,212)"/><path d="M134.79869110902249,-129.1981903999815L130.6672973187046,-128.0414323219928L130.83186822119785,-127.04580821578979z" style="fill:rgb(84,202,220)"/><path d="M-198.1412296883903,60.834251838052374L-190.3821917938959,20.66824532292372L-190.95037879731615,20.842750576323272z" style="fill:rgb(247,158,158)"/><path d="M130.09959649729245,-147.15477954879293L125.96964804526648,-145.97937163464982L126.35126928181923,-144.8481147176898z" style="fill:rgb(125,41,221)"/><path d="M-218.03333500390812,34.26353487912471L-210.08871312523115,44.875495618103464L-182.58541601527943,-97.29475963127375z" style="fill:rgb(247,158,158)"/><path d="M130.09959649729245,-147.15477954879293L126.35126928181923,-144.8481147176898L130.47800435068172,-146.02138499411302z" style="fill:rgb(125,41,221)"/><path d="M127.53652942427568,-152.299263026867L127.64975238522436,-152.386986853281L122.98533481177688,-184.86182569352889z" style="fill:rgb(247,158,158)"/><path d="M134.79869110902249,-129.1981903999815L130.83186822119785,-127.04580821578979L134.96705948661912,-128.20259883482032z" style="fill:rgb(84,202,220)"/><path d="M129.7333860146888,-148.20166316233934L125.5998196970066,-147.02407288315786L125.96964804526648,-145.97937163464982zM129.7333860146888,-148.20166316233934L125.96964804526648,-145.97937163464982L130.09959649729245,-147.15477954879293z" style="fill:rgb(129,33,213)"/><path d="M-198.64200655459646,60.16534854465153L-190.95037879731615,20.842750576323272L-191.5556350280905,20.87811817925733zM127.46246867005057,-152.06859398088784L127.53652942427568,-152.299263026867L122.7741560434895,-185.48881938616236z" style="fill:rgb(247,158,158)"/><path d="M129.38306740689623,-149.15131880017518L125.5998196970066,-147.02407288315786L129.7333860146888,-148.20166316233934zM129.38306740689623,-149.15131880017518L125.24547929135433,-147.97155320537544L125.5998196970066,-147.02407288315786z" style="fill:rgb(134,25,203)"/><path d="M-199.1891475446878,59.43451098253565L-191.5556350280905,20.87811817925733L-192.19186757619016,20.773444220852344zM127.42847993279494,-151.69679835622546L127.46246867005057,-152.06859398088784L122.59458815658961,-186.02194749948094z" style="fill:rgb(247,158,158)"/><path d="M-196.2701934994792,63.333467680824526L-200.15922848830152,64.32152606321509L-158.60432629245065,119.47918580771997z" style="fill:rgb(127,37,217)"/><path d="M129.0522040019716,-149.99391210898457L125.24547929135433,-147.97155320537544L129.38306740689623,-149.15131880017518zM129.0522040019716,-149.99391210898457L124.9102428286266,-148.81197079837838L125.24547929135433,-147.97155320537544z" style="fill:rgb(138,18,193)"/><path d="M127.43509722027088,-151.18720931144978L127.42847993279494,-151.69679835622546L122.44854631943674,-186.45552250643013zM-199.7772359290431,58.64897151418153L-192.19186757619016,20.773444220852344L-192.85262172180197,20.529246736730805zM127.48238226900379,-150.5446577033323L127.43509722027088,-151.18720931144978L122.33762589385171,-186.78484924250827z" style="fill:rgb(247,158,158)"/><path d="M128.74420317348384,-150.72061377747923L124.9102428286266,-148.81197079837838L129.0522040019716,-149.99391210898457zM128.74420317348384,-150.72061377747923L124.59755778812753,-149.53652618209807L124.9102428286266,-148.81197079837838z" style="fill:rgb(142,13,182)"/><path d="M-200.40041112747997,57.81656484603275L-192.85262172180197,20.529246736730805L-193.53112516802918,20.14754210858989zM127.56997398588068,-149.7754233151343L127.48238226900379,-150.5446577033323L122.26300567200308,-187.0064086073159z" style="fill:rgb(247,158,158)"/><path d="M195.8929444140019,69.57144139657746L194.9514016889136,66.88114333967061L37.24421470963393,103.12106883810898z" style="fill:rgb(127,37,217)"/><path d="M128.46223555835104,-151.32365937026034L124.59755778812753,-149.53652618209807L128.74420317348384,-150.72061377747923z" style="fill:rgb(146,9,171)"/><path d="M-201.05244332635587,56.94561183810844L-193.53112516802918,20.14754210858989L-194.2203742012042,19.631784012264536z" style="fill:rgb(247,158,158)"/><path d="M128.46223555835104,-151.32365937026034L124.3106436002336,-150.1374692363916L124.59755778812753,-149.53652618209807z" style="fill:rgb(146,9,171)"/><path d="M-189.22622449138348,-107.81839594721437L-222.01518821365107,35.31116307538026L-218.03333500390812,34.26353487912471z" style="fill:rgb(83,212,212)"/><path d="M-201.7267826563555,56.04486736891413L-194.2203742012042,19.631784012264536L-194.91321154551477,18.98688376256245z" style="fill:rgb(247,158,158)"/><path d="M128.20927493874146,-151.79646276290754L124.3106436002336,-150.1374692363916L128.46223555835104,-151.32365937026034zM128.20927493874146,-151.79646276290754L124.05252053856088,-150.60826518539983L124.3106436002336,-150.1374692363916z" style="fill:rgb(150,6,159)"/><path d="M-202.41659816903817,55.12345834973082L-194.91321154551477,18.98688376256245L-195.6023656167271,18.219190021572654z" style="fill:rgb(247,158,158)"/><path d="M127.98800449250538,-152.13371137296573L124.05252053856088,-150.60826518539983L128.20927493874146,-151.79646276290754zM127.98800449250538,-152.13371137296573L123.82592596954284,-150.94359320533772L124.05252053856088,-150.60826518539983z" style="fill:rgb(154,4,146)"/><path d="M-196.34840695323103,63.228998991454056L-196.27890457264107,63.32183977115049L-188.03288150459073,16.92242826796179zM-203.11488774423657,54.1907417660813L-195.6023656167271,18.219190021572654L-196.2805783663826,17.336382293659174zM-196.4867495462927,63.044221967541894L-196.34840695323103,63.228998991454056L-188.27789056342564,17.837040453115602zM-196.69256593337872,62.76929957897516L-196.4867495462927,63.044221967541894L-188.5859874475953,18.645745998176007z" style="fill:rgb(247,158,158)"/><path d="M127.80081680676142,-152.33141877202232L123.82592596954284,-150.94359320533772L127.98800449250538,-152.13371137296573zM127.80081680676142,-152.33141877202232L123.63329325007082,-151.13948500309223L123.82592596954284,-150.94359320533772z" style="fill:rgb(157,3,134)"/><path d="M-203.81447239156057,53.25625845762967L-196.2805783663826,17.336382293659174L-196.94063136675186,16.34746223625596zM-196.96387439807052,62.40689334391279L-196.69256593337872,62.76929957897516L-188.9542586632195,19.3400549298826z" style="fill:rgb(247,158,158)"/><path d="M-116.60045532940737,186.90813444113286L211.44760727094382,115.56825871547433L150.17875149184124,-59.204579524710994z" style="fill:rgb(127,37,217)"/><path d="M-204.50820353894156,52.329620583905395L-196.94063136675186,16.34746223625596L-197.5755271829289,15.262607111226474zM-197.29802595264263,61.96055330249968L-196.96387439807052,62.40689334391279L-189.37921137370978,19.912531962208266z" style="fill:rgb(247,158,158)"/><path d="M145.6504101281123,-23.53595588101005L129.41538111087254,-165.77121139760214L125.45557143366892,-164.62638559438838z" style="fill:rgb(83,212,212)"/><path d="M127.64975238522436,-152.386986853281L123.63329325007082,-151.13948500309223L127.80081680676142,-152.33141877202232zM127.64975238522436,-152.386986853281L123.47675148098426,-151.19338465666024L123.63329325007082,-151.13948500309223z" style="fill:rgb(160,4,121)"/><path d="M-205.18888133533576,51.4204116673249L-197.5755271829289,15.262607111226474L-198.17846046438893,14.09311857138799zM-197.69176250914398,61.43462331808844L-197.29802595264263,61.96055330249968L-189.8567422318987,20.35693857296755zM150.2656044275589,-24.723589693563596L129.41538111087254,-165.77121139760214L129.41084824089504,-165.78468316044237zM-205.84942402460092,50.53809641525744L-198.17846046438893,14.09311857138799L-198.74295167270438,12.851254911401817zM-198.1412296883903,60.834251838052374L-197.69176250914398,61.43462331808844L-190.3821917938959,20.66824532292372zM-210.07967053601567,44.8875661999536L-201.22134142107276,-0.4558396461846543L-201.09464497138848,-1.5604135980026388zM-206.48293115327314,49.691877683290144L-198.74295167270438,12.851254911401817L-199.26294428937163,11.550113294110776zM-210.00753657884007,44.98392039144155L-201.27757831695402,0.7305800817403267L-201.22134142107276,-0.4558396461846543zM-198.64200655459646,60.16534854465153L-198.1412296883903,60.834251838052374L-190.95037879731615,20.842750576323272zM-207.082750078925,48.890680407782405L-199.26294428937163,11.550113294110776L-199.7328502521435,10.203507461964806zM-209.8640406704148,45.175583498665866L-201.26262142220563,1.9864720461921195L-201.27757831695402,0.7305800817403267zM-207.6425400105306,48.14294151010715L-199.7328502521435,10.203507461964806L-200.14761195709033,8.825740536690516zM-209.65075838017492,45.460479557940666L-201.17647194594076,3.29861383899141L-201.26262142220563,1.9864720461921195zM-208.15636647036627,47.45660738868296L-200.14761195709033,8.825740536690516L-200.5027907147409,7.431514813450807zM-209.36998115969416,45.83552882065453L-201.01993686466832,4.653149317142328L-201.17647194594076,3.29861383899141zM-208.61874950732303,46.83898647706765L-200.5027907147409,7.431514813450807L-200.79459528042293,6.035687485112652zM-209.02473939530492,46.29668639344475L-200.79459528042293,6.035687485112652L-201.01993686466832,4.653149317142328zM-199.1891475446878,59.43451098253565L-198.64200655459646,60.16534854465153L-191.5556350280905,20.87811817925733zM-199.7772359290431,58.64897151418153L-199.1891475446878,59.43451098253565L-192.19186757619016,20.773444220852344zM-200.40041112747997,57.81656484603275L-199.7772359290431,58.64897151418153L-192.85262172180197,20.529246736730805zM-201.05244332635587,56.94561183810844L-200.40041112747997,57.81656484603275L-193.53112516802918,20.14754210858989zM-201.7267826563555,56.04486736891413L-201.05244332635587,56.94561183810844L-194.2203742012042,19.631784012264536zM-202.41659816903817,55.12345834973082L-201.7267826563555,56.04486736891413L-194.91321154551477,18.98688376256245z" style="fill:rgb(247,158,158)"/><path d="M180.64324989129045,59.23476853358834L180.04851514928657,70.30571049716244L184.29578219638321,69.32972231873136z" style="fill:rgb(127,37,217)"/><path d="M-203.11488774423657,54.1907417660813L-202.41659816903817,55.12345834973082L-195.6023656167271,18.219190021572654zM-203.81447239156057,53.25625845762967L-203.11488774423657,54.1907417660813L-196.2805783663826,17.336382293659174z" style="fill:rgb(247,158,158)"/><path d="M134.96705948661912,-128.20259883482032L130.83186822119785,-127.04580821578979L139.00791684610607,-69.92296692314233z" style="fill:rgb(83,212,212)"/><path d="M-204.50820353894156,52.329620583905395L-203.81447239156057,53.25625845762967L-196.94063136675186,16.34746223625596z" style="fill:rgb(247,158,158)"/><path d="M180.64324989129045,59.23476853358834L176.35563049817728,60.2311200659852L180.04851514928657,70.30571049716244z" style="fill:rgb(127,37,217)"/><path d="M-205.18888133533576,51.4204116673249L-204.50820353894156,52.329620583905395L-197.5755271829289,15.262607111226474zM150.27059736869177,-24.709775931627085L173.90821239734478,40.62032095818585L151.0569756635975,-101.51804255731105zM-205.84942402460092,50.53809641525744L-205.18888133533576,51.4204116673249L-198.17846046438893,14.09311857138799zM-206.48293115327314,49.691877683290144L-205.84942402460092,50.53809641525744L-198.74295167270438,12.851254911401817zM-207.082750078925,48.890680407782405L-206.48293115327314,49.691877683290144L-199.26294428937163,11.550113294110776zM-207.6425400105306,48.14294151010715L-207.082750078925,48.890680407782405L-199.7328502521435,10.203507461964806zM-208.15636647036627,47.45660738868296L-207.6425400105306,48.14294151010715L-200.14761195709033,8.825740536690516zM-208.61874950732303,46.83898647706765L-208.15636647036627,47.45660738868296L-200.5027907147409,7.431514813450807zM-209.02473939530492,46.29668639344475L-208.61874950732303,46.83898647706765L-200.79459528042293,6.035687485112652zM-210.07967053601567,44.8875661999536L-210.00753657884007,44.98392039144155L-201.22134142107276,-0.4558396461846543zM-209.36998115969416,45.83552882065453L-209.02473939530492,46.29668639344475L-201.01993686466832,4.653149317142328zM-210.00753657884007,44.98392039144155L-209.8640406704148,45.175583498665866L-201.27757831695402,0.7305800817403267zM-209.65075838017492,45.460479557940666L-209.36998115969416,45.83552882065453L-201.17647194594076,3.29861383899141zM-209.8640406704148,45.175583498665866L-209.65075838017492,45.460479557940666L-201.26262142220563,1.9864720461921195z" style="fill:rgb(247,158,158)"/><path d="M-210.08871312523115,44.875495618103464L-200.15922848830152,64.32152606321509L-196.2701934994792,63.333467680824526z" style="fill:rgb(127,37,217)"/><path d="M142.32238838264925,-46.67721468396173L122.22078890823991,-187.1317449200582L118.1979298309284,-185.94605980659205z" style="fill:rgb(83,212,212)"/><path d="M142.32238838264925,-46.67721468396173L122.22548340992222,-187.11779233497455L122.22078890823991,-187.1317449200582z" style="fill:rgb(247,158,158)"/><path d="M173.90820106745787,40.62032095818585L176.35563049817728,60.2311200659852L180.64324989119402,59.23476297396688z" style="fill:rgb(127,37,217)"/><path d="M149.67758355300526,-62.48138547098237L211.44760727094382,115.56825871547433L210.8536965736946,112.31937766082018z" style="fill:rgb(247,158,158)"/><path d="M-210.08871312523115,44.875495618103464L-214.0368328747651,45.90117657132123L-200.15922848830152,64.32152606321509zM-116.60045532940737,186.90813444113286L150.17875149184124,-59.204579524710994L-228.66687091224918,40.16217992196064z" style="fill:rgb(127,37,217)"/><path d="M137.74050392873926,-59.34072706952349L122.22078890823991,-187.1317449200582L118.091952971548,-199.3901290261021z" style="fill:rgb(247,158,158)"/><path d="M173.90820106745787,40.62032095818585L169.54637646715855,41.65477472570979L176.35563049817728,60.2311200659852z" style="fill:rgb(127,37,217)"/><path d="M118.091952971548,-199.3901290261021L114.03301066126434,-198.1806789677704L132.9846539808414,-58.089466010398255zM134.96705948661912,-128.20259883482032L139.00791684610607,-69.92296692314233L143.41039871213437,-71.09204567204264z" style="fill:rgb(83,212,212)"/><path d="M-218.03333500390812,34.26353487912471L-214.0368328747651,45.90117657132123L-210.08871312523115,44.875495618103464zM-218.03333500390812,34.26353487912471L-222.01518821365107,35.31116307538026L-214.0368328747651,45.90117657132123z" style="fill:rgb(127,37,217)"/><path d="M145.6504101281123,-23.53595588101005L150.27059736869177,-24.709775931627085L129.41538111087254,-165.77121139760214z" style="fill:rgb(83,212,212)"/><path d="M150.2656044275589,-24.723589693563596L150.27059736869177,-24.709775931627085L129.41538111087254,-165.77121139760214z" style="fill:rgb(247,158,158)"/><path d="M143.41039871213437,-71.09204567204264L139.00791684610607,-69.92296692314233L139.11236930667997,-69.0290664864107zM143.41039871213437,-71.09204567204264L139.11236930667997,-69.0290664864107L143.51995058333478,-70.19852310423744z" style="fill:rgb(84,220,202)"/><path d="M143.51995058333478,-70.19852310423744L139.11236930667997,-69.0290664864107L139.1760124262441,-68.25723122766335zM143.51995058333478,-70.19852310423744L139.1760124262441,-68.25723122766335L143.5890249191964,-69.42729769126223z" style="fill:rgb(84,228,192)"/><path d="M143.5890249191964,-69.42729769126223L139.1760124262441,-68.25723122766335L139.19805158456407,-67.61565561978993zM143.5890249191964,-69.42729769126223L139.19805158456407,-67.61565561978993L143.61676888356584,-68.78655084591308z" style="fill:rgb(85,235,181)"/><path d="M143.61676888356584,-68.78655084591308L139.19805158456407,-67.61565561978993L139.1781186810289,-67.11133032422285zM143.61676888356584,-68.78655084591308L139.1781186810289,-67.11133032422285L143.6027623894551,-68.2832684276385z" style="fill:rgb(87,240,169)"/><path d="M150.27059736869177,-24.709775931627085L169.5463746243563,41.6547742740952L173.90821239734478,40.62032095818585z" style="fill:rgb(127,37,217)"/><path d="M143.6027623894551,-68.2832684276385L139.1781186810289,-67.11133032422285L139.1162384504944,-66.74989221306075zM143.6027623894551,-68.2832684276385L139.1162384504944,-66.74989221306075L143.54696923483928,-67.92308311831911z" style="fill:rgb(89,245,157)"/><path d="M143.54696923483928,-67.92308311831911L139.1162384504944,-66.74989221306075L139.01286558170526,-66.53563730109433zM143.54696923483928,-67.92308311831911L139.01286558170526,-66.53563730109433L143.44978267585654,-67.71026813971221z" style="fill:rgb(91,248,145)"/><path d="M143.44978267585654,-67.71026813971221L139.01286558170526,-66.53563730109433L138.86887613485416,-66.47137350896236zM143.44978267585654,-67.71026813971221L138.86887613485416,-66.47137350896236L143.3120157203846,-67.64762393778025z" style="fill:rgb(94,250,133)"/><path d="M150.22569732313784,-24.83389170883356L143.41039871213437,-71.09204567204264L143.51995058333478,-70.19852310423744zM150.14626390144122,-25.053436920233533L143.51995058333478,-70.19852310423744L143.5890249191964,-69.42729769126223zM150.02806184831073,-25.380105466189395L143.5890249191964,-69.42729769126223L143.61676888356584,-68.78655084591308z" style="fill:rgb(247,158,158)"/><path d="M142.32238838264925,-46.67721468396173L118.1979298309284,-185.94605980659205L137.61604846123942,-45.45455600180323z" style="fill:rgb(83,212,212)"/><path d="M142.32238838264925,-46.67721468396173L142.32758916195831,-46.66282466319431L122.22548340992222,-187.11779233497455zM149.87225577479836,-25.81073758974776L143.61676888356584,-68.78655084591308L143.6027623894551,-68.2832684276385zM149.6803430287865,-26.341154818353886L143.6027623894551,-68.2832684276385L143.54696923483928,-67.92308311831911zM149.45418758289102,-26.966209577060972L143.54696923483928,-67.92308311831911L143.44978267585654,-67.71026813971221z" style="fill:rgb(247,158,158)"/><path d="M-227.97244941295105,36.87852695215927L-228.66687091224918,40.16217992196064L150.17875149184124,-59.204579524710994z" style="fill:rgb(83,212,212)"/><path d="M149.1959924642925,-27.679803148787325L143.44978267585654,-67.71026813971221L143.3120157203846,-67.64762393778025zM137.74050392873926,-59.34072706952349L142.32238838264925,-46.67721468396173L122.22078890823991,-187.1317449200582zM148.90829179047836,-28.474953155322236L143.3120157203846,-67.64762393778025L143.13491593096177,-67.73644313548391zM148.59391374483977,-29.343834943601195L143.13491593096177,-67.73644313548391L142.920139148163,-67.9764479852628z" style="fill:rgb(247,158,158)"/><path d="M150.27059736869177,-24.709775931627085L145.6504101281123,-23.53595588101005L169.5463746243563,41.6547742740952z" style="fill:rgb(127,37,217)"/><path d="M148.25596263624894,-30.277877906561283L142.920139148163,-67.9764479852628L142.669744894208,-68.36582539989628zM147.89779561316072,-31.26780203608327L142.669744894208,-68.36582539989628L142.3861933104522,-68.90111911715964zM147.52297289531296,-32.30372307124962L142.3861933104522,-68.90111911715964L142.07229200092928,-69.57735626067243zM149.67758355300526,-62.48138547098237L150.17875149184124,-59.204579524710994L211.44760727094382,115.56825871547433z" style="fill:rgb(247,158,158)"/><path d="M118.091952971548,-199.3901290261021L132.9846539808414,-58.089466010398255L137.74050392873926,-59.34072706952349z" style="fill:rgb(83,212,212)"/><path d="M147.13527325046158,-33.37525290881546L142.07229200092928,-69.57735626067243L141.73122622902653,-70.38800433259432zM146.73861680572443,-34.47155508092709L141.73122622902653,-70.38800433259432L141.36649112318804,-71.32501353899768zM150.22569732313784,-24.83389170883356L150.2656044275589,-24.723589693563596L143.41039871213437,-71.09204567204264zM146.3370192717889,-35.58150181496678L141.36649112318804,-71.32501353899768L140.98183445474407,-72.3789417498656zM150.14626390144122,-25.053436920233533L150.22569732313784,-24.83389170883356L143.51995058333478,-70.19852310423744zM150.02806184831073,-25.380105466189395L150.14626390144122,-25.053436920233533L143.5890249191964,-69.42729769126223zM145.93459235327637,-36.69373472352206L140.98183445474407,-72.3789417498656L140.58127309922654,-73.53898938615801zM149.87225577479836,-25.81073758974776L150.02806184831073,-25.380105466189395L143.61676888356584,-68.78655084591308zM145.53547123033843,-37.796823336835814L140.58127309922654,-73.53898938615801L140.16900729415963,-74.79317319229382zM149.6803430287865,-26.341154818353886L149.87225577479836,-25.81073758974776L143.6027623894551,-68.2832684276385zM145.14379295581486,-38.87934632552971L140.16900729415963,-74.79317319229382L139.74939801530806,-76.12835198208789zM149.45418758289102,-26.966209577060972L149.6803430287865,-26.341154818353886L143.54696923483928,-67.92308311831911zM144.76364060792588,-39.93002598312628L139.74939801530806,-76.12835198208789L139.3269143694686,-77.53048652600718zM149.1959924642925,-27.679803148787325L149.45418758289102,-26.966209577060972L143.44978267585654,-67.71026813971221zM142.32758916195831,-46.66282466319431L135.89059570106465,-91.80618999370128L135.70713388033892,-92.92045777002124zM144.3989799996848,-40.93787172340483L139.3269143694686,-77.53048652600718L138.9060378428641,-78.98471452052448zM142.36915916971213,-46.547955984449004L136.11210073195087,-90.59227534077408L135.89059570106465,-91.80618999370128zM148.90829179047836,-28.474953155322236L149.1959924642925,-27.679803148787325L143.3120157203846,-67.64762393778025zM144.05366648017406,-41.892254886198074L138.9060378428641,-78.98471452052448L138.4912880189346,-80.47555170367667zM142.45182443716524,-46.319474755793316L136.36939892433332,-89.2913511628149L136.11210073195087,-90.59227534077408zM143.73135489738956,-42.783080016345636L138.4912880189346,-80.47555170367667L138.08710303846945,-81.98708453202441zM142.57469843857004,-45.97985862518421L136.65984121724279,-87.91710912692035L136.36939892433332,-89.2913511628149zM143.43547471471388,-43.60085409803193L138.08710303846945,-81.98708453202441L137.69781953902697,-83.50313926450409zM142.73645974334642,-45.532804175198564L136.98035921006687,-86.48407574047205L136.65984121724279,-87.91710912692035zM143.1691750507579,-44.33684700262099L137.69781953902697,-83.50313926450409L137.32758206741474,-85.00750024453602zM142.93533248070844,-44.98315281530422L137.32758206741474,-85.00750024453602L136.98035921006687,-86.48407574047205zM148.59391374483977,-29.343834943601195L148.90829179047836,-28.474953155322236L143.13491593096177,-67.73644313548391zM148.25596263624894,-30.277877906561283L148.59391374483977,-29.343834943601195L142.920139148163,-67.9764479852628zM147.89779561316072,-31.26780203608327L148.25596263624894,-30.277877906561283L142.669744894208,-68.36582539989628zM147.52297289531296,-32.30372307124962L147.89779561316072,-31.26780203608327L142.3861933104522,-68.90111911715964zM147.13527325046158,-33.37525290881546L147.52297289531296,-32.30372307124962L142.07229200092928,-69.57735626067243zM146.73861680572443,-34.47155508092709L147.13527325046158,-33.37525290881546L141.73122622902653,-70.38800433259432zM146.3370192717889,-35.58150181496678L146.73861680572443,-34.47155508092709L141.36649112318804,-71.32501353899768zM145.93459235327637,-36.69373472352206L146.3370192717889,-35.58150181496678L140.98183445474407,-72.3789417498656zM145.53547123033843,-37.796823336835814L145.93459235327637,-36.69373472352206L140.58127309922654,-73.53898938615801zM145.14379295581486,-38.87934632552971L145.53547123033843,-37.796823336835814L140.16900729415963,-74.79317319229382zM144.76364060792588,-39.93002598312628L145.14379295581486,-38.87934632552971L139.74939801530806,-76.12835198208789zM144.3989799996848,-40.93787172340483L144.76364060792588,-39.93002598312628L139.3269143694686,-77.53048652600718zM144.05366648017406,-41.892254886198074L144.3989799996848,-40.93787172340483L138.9060378428641,-78.98471452052448zM143.73135489738956,-42.783080016345636L144.05366648017406,-41.892254886198074L138.4912880189346,-80.47555170367667zM143.43547471471388,-43.60085409803193L143.73135489738956,-42.783080016345636L138.08710303846945,-81.98708453202441zM143.1691750507579,-44.33684700262099L143.43547471471388,-43.60085409803193L137.69781953902697,-83.50313926450409zM142.93533248070844,-44.98315281530422L143.1691750507579,-44.33684700262099L137.32758206741474,-85.00750024453602zM142.73645974334642,-45.532804175198564L142.93533248070844,-44.98315281530422L136.98035921006687,-86.48407574047205zM142.32758916195831,-46.66282466319431L142.36915916971213,-46.547955984449004L135.89059570106465,-91.80618999370128zM142.57469843857004,-45.97985862518421L142.73645974334642,-45.532804175198564L136.65984121724279,-87.91710912692035zM142.36915916971213,-46.547955984449004L142.45182443716524,-46.319474755793316L136.11210073195087,-90.59227534077408zM142.45182443716524,-46.319474755793316L142.57469843857004,-45.97985862518421L136.36939892433332,-89.2913511628149z" style="fill:rgb(247,158,158)"/><path d="M-227.97244941295105,36.87852695215927L150.17875149184124,-59.204579524710994L149.67758355300526,-62.48138547098237z" style="fill:rgb(83,212,212)"/><path d="M142.32238838264925,-46.67721468396173L145.6504101281123,-23.53595588101005L150.27059736869177,-24.709775931627085zM142.32238838264925,-46.67721468396173L137.61604846123942,-45.45455600180323L145.6504101281123,-23.53595588101005zM137.74050392873926,-59.34072706952349L137.61604846123942,-45.45455600180323L142.32238838264925,-46.67721468396173zM137.74050392873926,-59.34072706952349L132.9846539808414,-58.089466010398255L137.61604846123942,-45.45455600180323z" style="fill:rgb(127,37,217)"/></svg>
