<?xml version="1.0" encoding="UTF-8"?>
<!-- Generated by jsxcad -->
<!DOCTYPE svg PUBLIC "-//W3C//DTD SVG 1.1 Tiny//EN" "http://www.w3.org/Graphics/SVG/1.1/DTD/svg11-tiny.dtd">
<svg viewBox="-250 -250 500 500" width="500" height="500" xmlns="http://www.w3.org/2000/svg"><path d="M-77.05127766696614,29.83389520353251L-75.53907416074843,29.554978963228102L-76.87247388967103,27.348669132725792zM-77.05127766696614,29.83389520353251L-75.71439335813871,32.03990662623584L-75.53907416074843,29.554978963228102z" style="fill:rgb(247,158,158)"/><path d="M-75.71439335813871,32.03990662623584L-43.846123371431254,21.47818563922406L-75.53907416074843,29.554978963228102z" style="fill:rgb(83,212,212)"/><path d="M-43.948700252635234,23.964096930357062L-75.71439335813871,32.03990662623584L-73.49916844392703,35.695291384316484zM-43.948700252635234,23.964096930357062L-73.49916844392703,35.695291384316484L-41.8317590764259,27.67809316173479z" style="fill:rgb(127,37,217)"/><path d="M-77.05127766696614,29.83389520353251L-45.12053897107303,19.23647826343175L-76.87247388967103,27.348669132725792z" style="fill:rgb(83,212,212)"/><path d="M-43.948700252635234,23.964096930357062L-77.05127766696614,29.83389520353251L-75.71439335813871,32.03990662623584z" style="fill:rgb(127,37,217)"/><path d="M-75.71439335813871,32.03990662623584L-43.948700252635234,23.964096930357062L-43.846123371431254,21.47818563922406z" style="fill:rgb(83,212,212)"/><path d="M-125.78492348827314,-7.2833241937498086L-98.30241202702528,41.97469675483141L-95.1973790114859,41.18859686578542z" style="fill:rgb(127,37,217)"/><path d="M-77.05127766696614,29.83389520353251L-45.22632983782566,21.722609527504257L-45.12053897107303,19.23647826343175z" style="fill:rgb(83,212,212)"/><path d="M-43.948700252635234,23.964096930357062L-45.22632983782566,21.722609527504257L-77.05127766696614,29.83389520353251z" style="fill:rgb(127,37,217)"/><path d="M-45.12053897107303,19.23647826343175L-43.948700252635234,23.964096930357062L-43.846123371431254,21.47818563922406zM-45.12053897107303,19.23647826343175L-45.22632983782566,21.722609527504257L-43.948700252635234,23.964096930357062z" style="fill:rgb(247,158,158)"/><path d="M-63.72293230734844,-10.728088084579927L-77.05127766696614,29.83389520353251L-45.22632983782566,21.722609527504257zM-125.78492348827314,-7.2833241937498086L-129.01508827231132,-6.419232320787357L-98.30241202702528,41.97469675483141z" style="fill:rgb(127,37,217)"/><path d="M16.262489271007794,3.553942667721298L17.46112658125351,8.351841670375347L17.419748265155107,5.864877707041632zM16.262489271007794,3.553942667721298L16.301205071841235,6.040967532004327L17.46112658125351,8.351841670375347z" style="fill:rgb(247,158,158)"/><path d="M17.46112658125351,8.351841670375347L50.62011835454871,-2.5960736653940106L17.419748265155107,5.864877707041632z" style="fill:rgb(83,212,212)"/><path d="M50.741344009320585,-0.10900598945963401L17.46112658125351,8.351841670375347L19.382866483097157,12.180462588822182zM-63.72293230734844,-10.728088084579927L-96.40049143049623,-2.094566736667526L-77.05127766696614,29.83389520353251zM50.741344009320585,-0.10900598945963401L19.382866483097157,12.180462588822182L52.55442786331506,3.7824600856776347z" style="fill:rgb(127,37,217)"/><path d="M17.46112658125351,8.351841670375347L50.741344009320585,-0.10900598945963401L50.62011835454871,-2.5960736653940106z" style="fill:rgb(83,212,212)"/><path d="M-97.82941926291925,-4.452460583644745L-96.16974315835947,-4.581611024732971L-97.59472285435051,-6.9394537673524805zM-97.82941926291925,-4.452460583644745L-96.40049143049623,-2.094566736667526L-96.16974315835947,-4.581611024732971z" style="fill:rgb(247,158,158)"/><path d="M-96.40049143049623,-2.094566736667526L-63.56914419329661,-13.214821624013991L-96.16974315835947,-4.581611024732971zM-129.01508827229037,-6.419234012486558L-125.48234605960282,-9.770223441457905L-128.7049957080324,-8.906165048223615zM-97.82941926291925,-4.452460583644745L-64.93182336059667,-15.611785177688432L-97.59472285435051,-6.9394537673524805z" style="fill:rgb(83,212,212)"/><path d="M-63.72293230734844,-10.728088084579927L-97.82941926291925,-4.452460583644745L-96.40049143049623,-2.094566736667526z" style="fill:rgb(127,37,217)"/><path d="M-129.01508827229037,-6.419234012486558L-125.78492348825951,-7.28332532247911L-125.48234605960282,-9.770223441457905zM-96.40049143049623,-2.094566736667526L-63.72293230734844,-10.728088084579927L-63.56914419329661,-13.214821624013991z" style="fill:rgb(83,212,212)"/><path d="M-192.70846603102993,-106.78079260793145L-102.95082302856757,43.15153098400919L-98.30241202702528,41.97469675483141z" style="fill:rgb(127,37,217)"/><path d="M-97.82941926291925,-4.452460583644745L-65.08926651821038,-13.125199983417144L-64.93182336059667,-15.611785177688432z" style="fill:rgb(83,212,212)"/><path d="M-63.72293230734844,-10.728088084579927L-65.08926651821038,-13.125199983417144L-97.82941926291925,-4.452460583644745z" style="fill:rgb(127,37,217)"/><path d="M-64.93182336059667,-15.611785177688432L-63.72293230734844,-10.728088084579927L-63.56914419329661,-13.214821624013991zM-139.20511058291603,-22.475642505248267L-129.01508827231132,-6.419232320787357L-128.70499570804634,-8.906163923135125z" style="fill:rgb(247,158,158)"/><path d="M33.79029113262629,-36.4914090393496L16.301205071841235,6.040967532004327L49.64694879815082,-2.457926034765152z" style="fill:rgb(127,37,217)"/><path d="M-64.93182336059667,-15.611785177688432L-65.08926651821038,-13.125199983417144L-63.72293230734844,-10.728088084579927z" style="fill:rgb(247,158,158)"/><path d="M-164.8692833210163,-115.07604797122605L-95.1973790114859,41.18859686578542L-73.49916844392703,35.695291384316484z" style="fill:rgb(127,37,217)"/><path d="M-129.2483271362967,51.27276037682368L-120.25063866676494,1.4868321595187253L-123.45833646166523,2.3365390488677775z" style="fill:rgb(83,212,212)"/><path d="M-139.20511058291603,-22.475642505248267L-128.70499570804634,-8.906163923135125L-138.8654120261356,-24.96140081625627zM114.15033009571523,-18.898026884635275L114.83518098585334,-18.96096706075623L113.87270640223089,-21.384149640999535zM114.15033009571523,-18.898026884635275L115.11451039003117,-16.474631404270283L114.83518098585334,-18.96096706075623z" style="fill:rgb(247,158,158)"/><path d="M-120.56366764426745,178.11498991070758L16.301205071841235,6.040967532004327L-106.64679451601543,37.37696284891933zM115.11451039003117,-16.474631404270283L149.65311979040197,-27.834149440363007L114.83518098585334,-18.96096706075623z" style="fill:rgb(83,212,212)"/><path d="M150.02019622938155,-25.34872539429805L115.11451039003117,-16.474631404270283L116.71171695431313,-12.460159810705195zM33.79029113262629,-36.4914090393496L-0.5001106241988956,-27.431770302751765L16.301205071841235,6.040967532004327zM150.02019622938155,-25.34872539429805L116.71171695431313,-12.460159810705195L151.4972044947717,-21.26675795398869z" style="fill:rgb(127,37,217)"/><path d="M114.15033009571523,-18.898026884635275L148.76280728845722,-30.29809838604876L113.87270640223089,-21.384149640999535z" style="fill:rgb(83,212,212)"/><path d="M150.02019622938155,-25.34872539429805L114.15033009571523,-18.898026884635275L115.11451039003117,-16.474631404270283z" style="fill:rgb(127,37,217)"/><path d="M115.11451039003117,-16.474631404270283L150.02019622938155,-25.34872539429805L149.65311979040197,-27.834149440363007zM114.15033009571523,-18.898026884635275L149.12854274697628,-27.81298891202343L148.76280728845722,-30.29809838604876z" style="fill:rgb(83,212,212)"/><path d="M150.02019622938155,-25.34872539429805L149.12854274697628,-27.81298891202343L114.15033009571523,-18.898026884635275z" style="fill:rgb(127,37,217)"/><path d="M148.76280728845722,-30.29809838604876L150.02019622938155,-25.34872539429805L149.65311979040197,-27.834149440363007zM148.76280728845722,-30.29809838604876L149.12854274697628,-27.81298891202343L150.02019622938155,-25.34872539429805zM-1.7375851179691282,-32.390498202962L-0.5001106241988956,-27.431770302751765L-0.49888455116127145,-29.91693086922526zM-1.7375851179691282,-32.390498202962L-1.7418653554580326,-29.905679677203835L-0.5001106241988956,-27.431770302751765z" style="fill:rgb(247,158,158)"/><path d="M-0.5001106241988956,-27.431770302751765L33.706750081881566,-38.975180893879L-0.49888455116127145,-29.91693086922526zM-129.2483271362967,51.27276037682368L-125.89502130577412,50.425058018640215L-120.25063866676494,1.4868321595187253zM-0.5001106241988956,-27.431770302751765L33.79029113262629,-36.4914090393496L33.706750081881566,-38.975180893879z" style="fill:rgb(83,212,212)"/><path d="M-60.15389108605672,-146.27813648725487L-41.8317590764259,27.67809316173479L19.382866483097157,12.180462588822182zM136.1983357987931,-63.54795919654499L114.15033009571523,-18.898026884635275L149.12854274697628,-27.81298891202343z" style="fill:rgb(127,37,217)"/><path d="M18.50378294196473,147.53028020893925L17.46112658125351,8.351841670375347L16.301205071841235,6.040967532004327z" style="fill:rgb(247,158,158)"/><path d="M-170.9904819604862,-78.92033616403499L-139.20511058291603,-22.475642505248267L-135.9339437905743,-23.366427153618265z" style="fill:rgb(127,37,217)"/><path d="M18.553922128063657,150.75112704444854L49.5280704960164,-4.944964395581627L16.262489271007794,3.553942667721298zM-145.63647144921796,145.14567281988002L-123.45833646166523,2.3365390488677775L-128.26006719821572,3.60849944407562z" style="fill:rgb(83,212,212)"/><path d="M-124.34180095912764,52.75061833107617L-129.2483271362967,51.27276037682368L-127.68856945458585,53.594348445831606zM136.1983357987931,-63.54795919654499L100.17268058845092,-54.02985644850765L114.15033009571523,-18.898026884635275zM157.2914096353966,-83.00819762023112L172.4521050528803,-26.57188219911436L175.99780038696915,-27.469539587419zM-124.34180095912764,52.75061833107617L-125.89502130577412,50.425058018640215L-129.2483271362967,51.27276037682368zM-129.24993361541186,-125.68955789391784L-97.82941926291925,-4.452460583644745L-65.08926651821038,-13.125199983417144z" style="fill:rgb(127,37,217)"/><path d="M50.62011835454871,-2.5960736653940106L49.5280704960164,-4.944964395581627L56.57198967580477,142.42015355309948zM-143.02934282229455,134.44953004029205L-120.25063866676494,1.4868321595187253L-125.78492348827314,-7.2833241937498086zM99.13875149656863,-56.628559067810166L99.92100114142947,-56.50987335801205L98.8890804107486,-59.10789924951283zM99.13875149656863,-56.628559067810166L100.17268058845092,-54.02985644850765L99.92100114142947,-56.50987335801205z" style="fill:rgb(247,158,158)"/><path d="M-146.6857771316189,135.29920720990702L-125.78492348827314,-7.2833241937498086L-129.01508827231132,-6.419232320787357zM100.17268058845092,-54.02985644850765L135.8531780940113,-66.0253417599711L99.92100114142947,-56.50987335801205zM-136.57976634637095,143.0645098982266L-1.7418653554580326,-29.905679677203835L-120.25063866676494,1.4868321595187253z" style="fill:rgb(83,212,212)"/><path d="M-192.70846603102993,-106.78079260793145L-197.9200453741696,-105.22789049581323L-102.95082302856757,43.15153098400919z" style="fill:rgb(127,37,217)"/><path d="M-133.41977030728924,86.52923640765451L-127.68856945458585,53.594348445831606L-129.2483271362967,51.27276037682368z" style="fill:rgb(247,158,158)"/><path d="M99.13875149656863,-56.628559067810166L134.89805893326488,-68.66864512968641L98.8890804107486,-59.10789924951283z" style="fill:rgb(83,212,212)"/><path d="M136.1983357987931,-63.54795919654499L99.13875149656863,-56.628559067810166L100.17268058845092,-54.02985644850765z" style="fill:rgb(127,37,217)"/><path d="M-124.34180095912764,52.75061833107617L-125.89502130577412,50.425058018640215L-129.96182895807388,85.68531153460488z" style="fill:rgb(247,158,158)"/><path d="M-125.89502130577412,50.425058018640215L-129.2483271362967,51.27276037682368L-133.41977030728924,86.52923640765451zM100.17268058845092,-54.02985644850765L136.1983357987931,-63.54795919654499L135.8531780940113,-66.0253417599711z" style="fill:rgb(83,212,212)"/><path d="M-170.9904819604862,-78.92033616403499L-174.40129642560916,-77.9342315114222L-139.20511058291603,-22.475642505248267zM-164.8692833210163,-115.07604797122605L-189.2262244913834,-107.81839594721433L-95.1973790114859,41.18859686578542z" style="fill:rgb(127,37,217)"/><path d="M56.4176864842013,139.19198927647025L182.7078511493575,-36.371415712827975L49.64694879815082,-2.457926034765152zM99.13875149656863,-56.628559067810166L135.24161004455357,-66.19206680084191L134.89805893326488,-68.66864512968641z" style="fill:rgb(83,212,212)"/><path d="M136.1983357987931,-63.54795919654499L135.24161004455357,-66.19206680084191L99.13875149656863,-56.628559067810166z" style="fill:rgb(127,37,217)"/><path d="M134.89805893326488,-68.66864512968641L136.1983357987931,-63.54795919654499L135.8531780940113,-66.0253417599711z" style="fill:rgb(247,158,158)"/><path d="M50.367997550685764,-179.21039069141636L52.55442786331506,3.7824600856776347L116.71171695431313,-12.460159810705195zM157.2914096353966,-83.00819762023112L153.57819002632536,-82.0148876293981L172.4521050528803,-26.57188219911436z" style="fill:rgb(127,37,217)"/><path d="M134.89805893326488,-68.66864512968641L135.24161004455357,-66.19206680084191L136.1983357987931,-63.54795919654499zM-125.48234605960282,-9.770223441457905L-135.60195074317792,-25.852088157960903L-155.3287073077817,121.84400105255024zM-133.41977030728924,86.52923640765451L-131.7996999268773,88.84025935308885L-127.68856945458585,53.594348445831606zM-124.34180095912764,52.75061833107617L-129.96182895807388,85.68531153460488L-128.34870566459693,88.00040613046114z" style="fill:rgb(247,158,158)"/><path d="M-125.89502130577412,50.425058018640215L-133.41977030728924,86.52923640765451L-129.96182895807388,85.68531153460488zM-135.60195074317792,-25.852088157960903L-138.86542116439048,-24.961403100822125L-159.04762502328722,122.72297468902624zM-120.56366764426745,178.11498991070758L18.50378294196473,147.53028020893925L16.301205071841235,6.040967532004327z" style="fill:rgb(83,212,212)"/><path d="M-22.577500218501328,-157.47478804022805L-1.7418653554580326,-29.905679677203835L32.618020569733964,-39.00747634740502z" style="fill:rgb(127,37,217)"/><path d="M-174.40129642560916,-77.9342315114222L-170.55114061585664,-81.39259449512659L-173.95358472844154,-80.40685107189734zM-174.40129642560916,-77.9342315114222L-170.9904819604862,-78.92033616403499L-170.55114061585664,-81.39259449512659z" style="fill:rgb(83,212,212)"/><path d="M-1.986539782935606,112.13599781505766L-0.5001106241988956,-27.431770302751765L-1.7418653554580326,-29.905679677203835z" style="fill:rgb(247,158,158)"/><path d="M-129.96182895807388,85.68531153460488L-131.7996999268773,88.84025935308885L-128.34870566459693,88.00040613046114z" style="fill:rgb(127,37,217)"/><path d="M153.57819002632536,-82.0148876293981L156.88579588787331,-85.47891575933076L153.18250062942764,-84.48597858426567z" style="fill:rgb(83,212,212)"/><path d="M-129.96182895807388,85.68531153460488L-133.41977030728924,86.52923640765451L-131.7996999268773,88.84025935308885zM-60.15389108605672,-146.27813648725487L-129.24993361541186,-125.68955789391784L-41.8317590764259,27.67809316173479z" style="fill:rgb(127,37,217)"/><path d="M153.57819002632536,-82.0148876293981L157.29141036661105,-83.00819800660273L156.88579588787331,-85.47891575933076z" style="fill:rgb(83,212,212)"/><path d="M-129.24993361541186,-125.68955789391784L-164.8692833210163,-115.07604797122605L-97.82941926291925,-4.452460583644745zM114.0330106612643,-198.18067896777032L151.4972044947717,-21.26675795398869L172.4521050528803,-26.57188219911436z" style="fill:rgb(127,37,217)"/><path d="M-1.9921363683611608,115.38500522271454L32.537190308492995,-41.49079849432272L-1.7375851179691282,-32.390498202962z" style="fill:rgb(83,212,212)"/><path d="M-186.04174243812986,-96.27605202141078L-174.40129642560916,-77.9342315114222L-173.95358472844154,-80.40685107189734zM18.50378294196473,147.53028020893925L19.814455419078335,149.79429489051319L17.46112658125351,8.351841670375347zM183.52863204278097,-33.86759285169384L182.7078511493575,-36.371415712827975L208.54903606400765,105.73418334949734zM128.27401643431637,-202.424095039711L184.88815529579412,-29.720304497808424L184.4339131633724,-32.20514961251775z" style="fill:rgb(247,158,158)"/><path d="M128.27401643431637,-202.424095039711L175.99780038696915,-27.469539587419L184.88815529579412,-29.720304497808424z" style="fill:rgb(127,37,217)"/><path d="M147.28827895063029,-100.49176872356078L153.57819002632536,-82.0148876293981L153.18250062942764,-84.48597858426567zM-186.04174243812986,-96.27605202141078L-173.95358472844154,-80.40685107189734L-185.55634258301203,-98.74122734621187zM33.706750081881566,-38.975180893879L32.537190308492995,-41.49079849432272L37.35016184142629,106.37602571555124z" style="fill:rgb(247,158,158)"/><path d="M164.91838361613878,-23.091152793216132L160.68524788529064,-72.93198873926876L157.00229968390968,-71.9563919494934zM-145.63647144921796,145.14567281988002L-140.2074902321498,143.8981316195974L-123.45833646166523,2.3365390488677775z" style="fill:rgb(83,212,212)"/><path d="M-177.68478449194546,-43.90694503446846L-170.7327031733544,-81.68110795964263L-170.90524951539422,-81.9553237595521zM-177.7760265779423,-45.096283650756945L-170.90524951539422,-81.9553237595521L-171.1326799071269,-82.31676048074549zM-177.65661062046672,-42.77208922052858L-170.6167165617032,-81.49679797912734L-170.7327031733544,-81.68110795964263zM-177.92933367037782,-46.32823465886334L-171.1326799071269,-82.31676048074549L-171.41276158406504,-82.76186391675954zM-177.69188280096762,-41.70310239423298L-170.5584445252483,-81.40419360780561L-170.6167165617032,-81.49679797912734zM-178.14312168287864,-47.59055685857486L-171.41276158406504,-82.76186391675954L-171.74274276801464,-83.2862623741357zM-178.41523134039167,-48.870744466293054L-171.74274276801464,-83.2862623741357L-172.11937376984545,-83.88478972848344zM147.28827895063029,-100.49176872356078L153.18250062942764,-84.48597858426567L146.90257065277558,-102.95501430003405zM-178.7429449833204,-50.156129450448496L-172.11937376984545,-83.88478972848344L-172.53892823780305,-84.55153675086663zM-179.1230168053833,-51.43400130417278L-172.53892823780305,-84.55153675086663L-172.9972401049324,-85.27987130981653zM-179.55171341607328,-52.69171983758109L-172.9972401049324,-85.27987130981653L-173.48975326704556,-86.06257086754174zM-180.02481858005157,-53.91682448960426L-173.48975326704556,-86.06257086754174L-174.01153697080076,-86.89178377895516zM-180.53769810900948,-55.097131320432354L-174.01153697080076,-86.89178377895516L-174.55735717718727,-87.75919279815153z" style="fill:rgb(247,158,158)"/><path d="M18.553922128063657,150.75112704444854L56.57198967580477,142.42015355309948L49.5280704960164,-4.944964395581627z" style="fill:rgb(83,212,212)"/><path d="M-181.0853302666171,-56.220878505935104L-174.55735717718727,-87.75919279815153L-175.1217182025056,-88.65605848114018zM-143.02934282229455,134.44953004029205L-136.57976634637095,143.0645098982266L-120.25063866676494,1.4868321595187253zM-181.6623209219706,-57.27677642145861L-175.1217182025056,-88.65605848114018L-175.69889244151764,-89.57328667691307zM50.62011835454871,-2.5960736653940106L56.57198967580477,142.42015355309948L57.800897712004655,144.72455114737798zM-182.262991979852,-58.254170870680305L-175.69889244151764,-89.57328667691307L-176.28300864141357,-90.5015363590821z" style="fill:rgb(247,158,158)"/><path d="M-85.87963501785228,176.119465758009L-120.87915046057188,181.30537298106236L-119.26807917150576,183.41500105041337z" style="fill:rgb(127,37,217)"/><path d="M-182.881372849876,-59.14311531981311L-176.28300864141357,-90.5015363590821L-176.8680641059041,-91.43131041380447zM-183.51135439248208,-59.93446459200606L-176.8680641059041,-91.43131041380447L-177.4480783772193,-92.35305102930481z" style="fill:rgb(247,158,158)"/><path d="M-189.2262244913834,-107.81839594721433L-186.04174243812986,-96.27605202141078L-182.58541601527938,-97.29475963127372z" style="fill:rgb(127,37,217)"/><path d="M-184.14662691328556,-60.6199883825905L-177.4480783772193,-92.35305102930481L-178.01704128129393,-93.25723077379592z" style="fill:rgb(247,158,158)"/><path d="M-140.2074902321498,143.8981316195974L-129.96182895807388,85.68531153460488L-133.41977030728924,86.52923640765451zM37.244214709633916,103.12106883810894L157.00229968390968,-71.9563919494934L32.618020569733964,-39.00747634740502z" style="fill:rgb(83,212,212)"/><path d="M-184.78079798555717,-61.192440329256385L-178.01704128129393,-93.25723077379592L-178.56903923072917,-94.13445733687094z" style="fill:rgb(247,158,158)"/><path d="M-85.87963501785228,176.119465758009L-87.42165453535489,173.97376918478264L-120.87915046057188,181.30537298106236z" style="fill:rgb(127,37,217)"/><path d="M-185.40746317737296,-61.645659146649976L-178.56903923072917,-94.13445733687094L-179.09832369582253,-94.97559918409269z" style="fill:rgb(247,158,158)"/><path d="M-146.6857771316189,135.29920720990702L-143.02934282229455,134.44953004029205L-125.78492348827314,-7.2833241937498086z" style="fill:rgb(83,212,212)"/><path d="M-87.42165453535489,173.97376918478264L-85.65415005821913,172.9234966746557L-87.19155325640637,170.77554458580659zM-87.42165453535489,173.97376918478264L-85.87963501785228,176.119465758009L-85.65415005821913,172.9234966746557zM-186.02023841629546,-61.97463388734704L-179.09832369582253,-94.97559918409269L-179.5993512015242,-95.77182077804446z" style="fill:rgb(247,158,158)"/><path d="M-189.2262244913834,-107.81839594721433L-192.70846603102993,-106.78079260793145L-186.04174243812986,-96.27605202141078z" style="fill:rgb(127,37,217)"/><path d="M-186.612831465386,-62.17555845666422L-179.5993512015242,-95.77182077804446L-180.06684564023018,-96.5147569061134z" style="fill:rgb(247,158,158)"/><path d="M90.06727076011605,-191.0395983538559L99.13875149656863,-56.628559067810166L135.24161004455357,-66.19206680084191z" style="fill:rgb(127,37,217)"/><path d="M-85.87963501785228,176.119465758009L-49.77053894730621,165.0542441092136L-85.65415005821913,172.9234966746557z" style="fill:rgb(83,212,212)"/><path d="M19.814455419078335,149.79429489051319L-120.56366764426745,178.11498991070758L-118.95756248524772,180.22690975088284z" style="fill:rgb(127,37,217)"/><path d="M-187.17911295791686,-62.24591189465434L-180.06684564023018,-96.5147569061134L-180.49587182291737,-97.19654731484678zM-178.14312168287864,-47.59055685857486L-177.92933367037782,-46.32823465886334L-171.41276158406504,-82.76186391675954zM-178.41523134039167,-48.870744466293054L-178.14312168287864,-47.59055685857486L-171.74274276801464,-83.2862623741357zM-177.92933367037782,-46.32823465886334L-177.7760265779423,-45.096283650756945L-171.1326799071269,-82.31676048074549zM-178.7429449833204,-50.156129450448496L-178.41523134039167,-48.870744466293054L-172.11937376984545,-83.88478972848344zM-177.7760265779423,-45.096283650756945L-177.68478449194546,-43.90694503446846L-170.90524951539422,-81.9553237595521zM-179.1230168053833,-51.43400130417278L-178.7429449833204,-50.156129450448496L-172.53892823780305,-84.55153675086663zM-177.68478449194546,-43.90694503446846L-177.65661062046672,-42.77208922052858L-170.7327031733544,-81.68110795964263zM-187.71317479960473,-62.18447873789732L-180.49587182291737,-97.19654731484678L-180.88187826650284,-97.80997383902084zM-179.55171341607328,-52.69171983758109L-179.1230168053833,-51.43400130417278L-172.9972401049324,-85.27987130981653zM-177.65661062046672,-42.77208922052858L-177.69188280096762,-41.70310239423298L-170.6167165617032,-81.49679797912734zM-180.02481858005157,-53.91682448960426L-179.55171341607328,-52.69171983758109L-173.48975326704556,-86.06257086754174zM-188.20939066788569,-61.99139924756254L-180.88187826650284,-97.80997383902084L-181.22075393481447,-98.34851697651271zM-177.69188280096762,-41.70310239423298L-177.79040848094775,-40.71077463631788L-170.5584445252483,-81.40419360780561zM-180.53769810900948,-55.097131320432354L-180.02481858005157,-53.91682448960426L-174.01153697080076,-86.89178377895516z" style="fill:rgb(247,158,158)"/><path d="M-87.42165453535489,173.97376918478264L-51.23236422786541,162.86714761272066L-87.19155325640637,170.77554458580659z" style="fill:rgb(83,212,212)"/><path d="M-49.90275028150252,168.25834028154165L-87.42165453535489,173.97376918478264L-85.87963501785228,176.119465758009z" style="fill:rgb(127,37,217)"/><path d="M-188.66249391186614,-61.668179488624055L-181.22075393481447,-98.34851697651271L-181.50888586421513,-98.80641286606358zM-181.0853302666171,-56.220878505935104L-180.53769810900948,-55.097131320432354L-174.55735717718727,-87.75919279815153zM-189.0676265713129,-61.21770219215365L-181.50888586421513,-98.80641286606358L-181.74319014567888,-99.17876468463591zM-181.6623209219706,-57.27677642145861L-181.0853302666171,-56.220878505935104L-175.1217182025056,-88.65605848114018z" style="fill:rgb(247,158,158)"/><path d="M-85.87963501785228,176.119465758009L-49.90275028150252,168.25834028154165L-49.77053894730621,165.0542441092136z" style="fill:rgb(83,212,212)"/><path d="M-189.4204019533772,-60.644199104670726L-181.74319014567888,-99.17876468463591L-181.9211550439104,-99.46159168247995zM-182.262991979852,-58.254170870680305L-181.6623209219706,-57.27677642145861L-175.69889244151764,-89.57328667691307z" style="fill:rgb(247,158,158)"/><path d="M164.91838361613878,-23.091152793216132L168.79448383316404,-24.07101016667943L160.68524788529064,-72.93198873926876z" style="fill:rgb(83,212,212)"/><path d="M-189.71697029360803,-59.953250069466115L-181.9211550439104,-99.46159168247995L-182.04088231983982,-99.65184603492011zM-189.95402443747636,-59.15171392232572L-182.04088231983982,-99.65184603492011L-182.1010645081439,-99.74749486373301zM-182.881372849876,-59.14311531981311L-182.262991979852,-58.254170870680305L-176.28300864141357,-90.5015363590821z" style="fill:rgb(247,158,158)"/><path d="M50.367997550685764,-179.21039069141636L-22.577500218501328,-157.47478804022805L52.55442786331506,3.7824600856776347zM-22.577500218501328,-157.47478804022805L-60.15389108605672,-146.27813648725487L-1.7418653554580326,-29.905679677203835z" style="fill:rgb(127,37,217)"/><path d="M-125.48234605960282,-9.770223441457905L-155.3287073077817,121.84400105255024L-143.42259191134048,137.68166839316302zM-183.51135439248208,-59.93446459200606L-182.881372849876,-59.14311531981311L-176.8680641059041,-91.43131041380447z" style="fill:rgb(247,158,158)"/><path d="M-87.42165453535489,173.97376918478264L-51.36879928363196,166.0734359298795L-51.23236422786541,162.86714761272066z" style="fill:rgb(83,212,212)"/><path d="M-49.90275028150252,168.25834028154165L-51.36879928363196,166.0734359298795L-87.42165453535489,173.97376918478264z" style="fill:rgb(127,37,217)"/><path d="M-51.23236422786541,162.86714761272066L-49.90275028150252,168.25834028154165L-49.77053894730621,165.0542441092136zM-184.14662691328556,-60.6199883825905L-183.51135439248208,-59.93446459200606L-177.4480783772193,-92.35305102930481zM-184.78079798555717,-61.192440329256385L-184.14662691328556,-60.6199883825905L-178.01704128129393,-93.25723077379592zM-51.23236422786541,162.86714761272066L-51.36879928363196,166.0734359298795L-49.90275028150252,168.25834028154165zM-185.40746317737296,-61.645659146649976L-184.78079798555717,-61.192440329256385L-178.56903923072917,-94.13445733687094zM-196.27019349947912,63.33346768082451L-135.9339437905743,-23.366427153618265L-170.9904819604862,-78.92033616403499zM-186.02023841629546,-61.97463388734704L-185.40746317737296,-61.645659146649976L-179.09832369582253,-94.97559918409269z" style="fill:rgb(247,158,158)"/><path d="M-136.57976634637095,143.0645098982266L-1.986539782935606,112.13599781505766L-1.7418653554580326,-29.905679677203835z" style="fill:rgb(83,212,212)"/><path d="M-186.612831465386,-62.17555845666422L-186.02023841629546,-61.97463388734704L-179.5993512015242,-95.77182077804446z" style="fill:rgb(247,158,158)"/><path d="M-178.7429449833204,-50.156129450448496L-182.27005577548147,-49.160583908872404L-181.94266644873363,-47.87636891928261z" style="fill:rgb(97,120,251)"/><path d="M-178.41523134039167,-48.870744466293054L-181.94266644873363,-47.87636891928261L-181.671271302973,-46.59721745635188z" style="fill:rgb(94,133,250)"/><path d="M-179.1230168053833,-51.43400130417278L-182.65019653137105,-50.43717299935801L-182.27005577548147,-49.160583908872404z" style="fill:rgb(100,108,250)"/><path d="M-187.17911295791686,-62.24591189465434L-186.612831465386,-62.17555845666422L-180.06684564023018,-96.5147569061134z" style="fill:rgb(247,158,158)"/><path d="M-178.14312168287864,-47.59055685857486L-181.671271302973,-46.59721745635188L-181.4585811413267,-45.33578767999214z" style="fill:rgb(91,145,248)"/><path d="M-179.55171341607328,-52.69171983758109L-183.07935467911776,-51.6935032090932L-182.65019653137105,-50.43717299935801z" style="fill:rgb(104,95,248)"/><path d="M-178.7429449833204,-50.156129450448496L-181.94266644873363,-47.87636891928261L-178.41523134039167,-48.870744466293054z" style="fill:rgb(97,120,251)"/><path d="M-179.1230168053833,-51.43400130417278L-182.27005577548147,-49.160583908872404L-178.7429449833204,-50.156129450448496z" style="fill:rgb(100,108,250)"/><path d="M-178.41523134039167,-48.870744466293054L-181.671271302973,-46.59721745635188L-178.14312168287864,-47.59055685857486z" style="fill:rgb(94,133,250)"/><path d="M-179.55171341607328,-52.69171983758109L-182.65019653137105,-50.43717299935801L-179.1230168053833,-51.43400130417278z" style="fill:rgb(104,95,248)"/><path d="M-177.92933367037782,-46.32823465886334L-181.4585811413267,-45.33578767999214L-181.30674470149305,-44.10458677906219z" style="fill:rgb(89,157,245)"/><path d="M-180.02481858005157,-53.91682448960426L-183.5533096988563,-52.91712731502217L-183.07935467911776,-51.6935032090932z" style="fill:rgb(108,83,245)"/><path d="M19.814455419078335,149.79429489051319L18.50378294196473,147.53028020893925L-120.56366764426745,178.11498991070758z" style="fill:rgb(127,37,217)"/><path d="M-178.14312168287864,-47.59055685857486L-181.4585811413267,-45.33578767999214L-177.92933367037782,-46.32823465886334z" style="fill:rgb(91,145,248)"/><path d="M-180.02481858005157,-53.91682448960426L-183.07935467911776,-51.6935032090932L-179.55171341607328,-52.69171983758109z" style="fill:rgb(108,83,245)"/><path d="M-177.7760265779423,-45.096283650756945L-181.30674470149305,-44.10458677906219L-181.21733186273244,-42.915843736844735z" style="fill:rgb(87,169,240)"/><path d="M-177.92933367037782,-46.32823465886334L-181.30674470149305,-44.10458677906219L-177.7760265779423,-45.096283650756945z" style="fill:rgb(89,157,245)"/><path d="M-180.53769810900948,-55.097131320432354L-184.06741858067895,-54.09588039298907L-183.5533096988563,-52.91712731502217zM-180.53769810900948,-55.097131320432354L-183.5533096988563,-52.91712731502217L-180.02481858005157,-53.91682448960426z" style="fill:rgb(112,72,241)"/><path d="M-187.71317479960473,-62.18447873789732L-187.17911295791686,-62.24591189465434L-180.49587182291737,-97.19654731484678z" style="fill:rgb(247,158,158)"/><path d="M-140.2074902321498,143.8981316195974L-136.57976634637095,143.0645098982266L-129.96182895807388,85.68531153460488z" style="fill:rgb(83,212,212)"/><path d="M-177.7760265779423,-45.096283650756945L-181.21733186273244,-42.915843736844735L-177.68478449194546,-43.90694503446846z" style="fill:rgb(87,169,240)"/><path d="M-177.68478449194546,-43.90694503446846L-181.21733186273244,-42.915843736844735L-181.19132821115687,-41.78142311039191z" style="fill:rgb(85,181,235)"/><path d="M-181.0853302666171,-56.220878505935104L-184.6166483896489,-55.21800084338668L-184.06741858067895,-54.09588039298907zM-181.0853302666171,-56.220878505935104L-184.06741858067895,-54.09588039298907L-180.53769810900948,-55.097131320432354z" style="fill:rgb(116,61,236)"/><path d="M-177.68478449194546,-43.90694503446846L-181.19132821115687,-41.78142311039191L-177.65661062046672,-42.77208922052858z" style="fill:rgb(85,181,235)"/><path d="M-177.65661062046672,-42.77208922052858L-181.19132821115687,-41.78142311039191L-181.229090501458,-40.71270921725036z" style="fill:rgb(84,192,228)"/><path d="M-181.6623209219706,-57.27677642145861L-185.19558928570777,-56.27222978132771L-184.6166483896489,-55.21800084338668z" style="fill:rgb(120,51,229)"/><path d="M-188.20939066788569,-61.99139924756254L-187.71317479960473,-62.18447873789732L-180.88187826650284,-97.80997383902084z" style="fill:rgb(247,158,158)"/><path d="M-181.6623209219706,-57.27677642145861L-184.6166483896489,-55.21800084338668L-181.0853302666171,-56.220878505935104z" style="fill:rgb(120,51,229)"/><path d="M19.868009761976587,153.01308223592594L-51.36879928363196,166.0734359298795L-49.90275028150252,168.25834028154165z" style="fill:rgb(127,37,217)"/><path d="M-177.65661062046672,-42.77208922052858L-181.229090501458,-40.71270921725036L-177.69188280096762,-41.70310239423298z" style="fill:rgb(84,192,228)"/><path d="M-177.69188280096762,-41.70310239423298L-181.229090501458,-40.71270921725036L-181.3304021390327,-39.720484291213644z" style="fill:rgb(84,202,220)"/><path d="M211.44760727094376,115.56825871547429L-119.26807917150576,183.41500105041337L-116.60045532940732,186.9081344411328z" style="fill:rgb(127,37,217)"/><path d="M-182.262991979852,-58.254170870680305L-185.7985443111234,-57.24792937054683L-185.19558928570777,-56.27222978132771zM-182.262991979852,-58.254170870680305L-185.19558928570777,-56.27222978132771L-181.6623209219706,-57.27677642145861z" style="fill:rgb(125,41,221)"/><path d="M-188.66249391186614,-61.668179488624055L-188.20939066788569,-61.99139924756254L-181.22075393481447,-98.34851697651271z" style="fill:rgb(247,158,158)"/><path d="M129.4153811108725,-165.7712113976021L147.28827895063029,-100.49176872356078L151.05697566359748,-101.51804255731103z" style="fill:rgb(127,37,217)"/><path d="M-177.69188280096762,-41.70310239423298L-181.3304021390327,-39.720484291213644L-177.79040848094775,-40.71077463631788z" style="fill:rgb(84,202,220)"/><path d="M-182.881372849876,-59.14311531981311L-186.41952064484406,-58.13515488763423L-185.7985443111234,-57.24792937054683zM-182.881372849876,-59.14311531981311L-185.7985443111234,-57.24792937054683L-182.262991979852,-58.254170870680305z" style="fill:rgb(129,33,213)"/><path d="M56.4176864842013,139.19198927647025L208.54903606400765,105.73418334949734L182.7078511493575,-36.371415712827975zM-135.60195074317792,-25.852088157960903L-159.04762502328722,122.72297468902624L-155.3287073077817,121.84400105255024z" style="fill:rgb(83,212,212)"/><path d="M-189.0676265713129,-61.21770219215365L-188.66249391186614,-61.668179488624055L-181.50888586421513,-98.80641286606358z" style="fill:rgb(247,158,158)"/><path d="M-183.51135439248208,-59.93446459200606L-186.41952064484406,-58.13515488763423L-182.881372849876,-59.14311531981311zM-183.51135439248208,-59.93446459200606L-187.0523838153889,-58.92479834015304L-186.41952064484406,-58.13515488763423z" style="fill:rgb(134,25,203)"/><path d="M-189.4204019533772,-60.644199104670726L-189.0676265713129,-61.21770219215365L-181.74319014567888,-99.17876468463591z" style="fill:rgb(247,158,158)"/><path d="M-184.14662691328556,-60.6199883825905L-187.0523838153889,-58.92479834015304L-183.51135439248208,-59.93446459200606zM-184.14662691328556,-60.6199883825905L-187.69079584071602,-59.60863168588491L-187.0523838153889,-58.92479834015304z" style="fill:rgb(138,18,193)"/><path d="M-189.71697029360803,-59.953250069466115L-189.4204019533772,-60.644199104670726L-181.9211550439104,-99.46159168247995z" style="fill:rgb(247,158,158)"/><path d="M169.72084807403434,-21.38318669705082L164.91838361613878,-23.091152793216132L165.8536660813177,-20.40826265931645z" style="fill:rgb(127,37,217)"/><path d="M-189.95402443747636,-59.15171392232572L-189.71697029360803,-59.953250069466115L-182.04088231983982,-99.65184603492011z" style="fill:rgb(247,158,158)"/><path d="M-184.78079798555717,-61.192440329256385L-187.69079584071602,-59.60863168588491L-184.14662691328556,-60.6199883825905zM-184.78079798555717,-61.192440329256385L-188.3283333752357,-60.17942583338443L-187.69079584071602,-59.60863168588491z" style="fill:rgb(142,13,182)"/><path d="M169.72084807403434,-21.38318669705082L168.79448383316404,-24.07101016667943L164.91838361613878,-23.091152793216132z" style="fill:rgb(127,37,217)"/><path d="M-185.40746317737296,-61.645659146649976L-188.3283333752357,-60.17942583338443L-184.78079798555717,-61.192440329256385zM-185.40746317737296,-61.645659146649976L-188.95855863470496,-60.631051681268666L-188.3283333752357,-60.17942583338443z" style="fill:rgb(146,9,171)"/><path d="M184.29578219638316,69.32972231873133L169.92092577515592,-75.37848161740911L160.68524788529064,-72.93198873926876z" style="fill:rgb(83,212,212)"/><path d="M-1.986539782935606,112.13599781505766L-0.5701746898494411,114.58258394554083L-0.5001106241988956,-27.431770302751765z" style="fill:rgb(247,158,158)"/><path d="M19.868009761976587,153.01308223592594L18.553922128063657,150.75112704444854L-51.36879928363196,166.0734359298795z" style="fill:rgb(127,37,217)"/><path d="M194.95140168891353,66.8811433396706L170.80211285870143,-72.6903899747879L169.92092577515592,-75.37848161740911z" style="fill:rgb(247,158,158)"/><path d="M-186.02023841629546,-61.97463388734704L-188.95855863470496,-60.631051681268666L-185.40746317737296,-61.645659146649976zM-186.02023841629546,-61.97463388734704L-189.57505211119013,-60.95849494111893L-188.95855863470496,-60.631051681268666z" style="fill:rgb(150,6,159)"/><path d="M-186.612831465386,-62.17555845666422L-189.57505211119013,-60.95849494111893L-186.02023841629546,-61.97463388734704zM-186.612831465386,-62.17555845666422L-190.1714841153602,-61.15798578149823L-189.57505211119013,-60.95849494111893z" style="fill:rgb(154,4,146)"/><path d="M-187.17911295791686,-62.24591189465434L-190.1714841153602,-61.15798578149823L-186.612831465386,-62.17555845666422zM-187.17911295791686,-62.24591189465434L-190.7416865933534,-61.22699856757165L-190.1714841153602,-61.15798578149823z" style="fill:rgb(157,3,134)"/><path d="M18.50378294196473,147.53028020893925L19.868009761976587,153.01308223592594L19.814455419078335,149.79429489051319z" style="fill:rgb(247,158,158)"/><path d="M-200.15922848830144,64.32152606321506L-170.9904819604862,-78.92033616403499L-174.40129642560916,-77.9342315114222z" style="fill:rgb(83,212,212)"/><path d="M-196.8610007023444,66.59722690427256L-170.55114061585664,-81.39259449512659L-170.5584445252483,-81.40419360780561z" style="fill:rgb(247,158,158)"/><path d="M-187.71317479960473,-62.18447873789732L-190.7416865933534,-61.22699856757165L-187.17911295791686,-62.24591189465434zM-187.71317479960473,-62.18447873789732L-191.27971155299662,-61.16434747370914L-190.7416865933534,-61.22699856757165z" style="fill:rgb(160,4,121)"/><path d="M18.50378294196473,147.53028020893925L18.553922128063657,150.75112704444854L19.868009761976587,153.01308223592594zM180.6432498912904,59.23476853358832L160.68524788529064,-72.93198873926876L157.2914096353966,-83.00819762023112z" style="fill:rgb(247,158,158)"/><path d="M-197.9200453741696,-105.22789049581323L127.90820418351522,-204.81585993474147L-197.3996023297939,-107.68887066903497zM19.868009761976587,153.01308223592594L57.643645584198545,141.4983789702114L19.814455419078335,149.79429489051319z" style="fill:rgb(83,212,212)"/><path d="M183.52863204278097,-33.86759285169384L208.54903606400765,105.73418334949734L209.41710424351533,108.21454537864753z" style="fill:rgb(247,158,158)"/><path d="M114.0330106612643,-198.18067896777032L90.06727076011605,-191.0395983538559L151.4972044947717,-21.26675795398869z" style="fill:rgb(127,37,217)"/><path d="M176.35563049817722,60.23112006598518L157.2914096353966,-83.00819762023112L153.57819002632536,-82.0148876293981zM-1.9921363683611608,115.38500522271454L37.35016184142629,106.37602571555124L32.537190308492995,-41.49079849432272z" style="fill:rgb(83,212,212)"/><path d="M57.800897712004655,144.72455114737798L18.553922128063657,150.75112704444854L19.868009761976587,153.01308223592594z" style="fill:rgb(127,37,217)"/><path d="M19.868009761976587,153.01308223592594L57.800897712004655,144.72455114737798L57.643645584198545,141.4983789702114z" style="fill:rgb(83,212,212)"/><path d="M170.65467691443146,12.31844185882309L165.8536660813177,-20.40826265931645L164.91838361613878,-23.091152793216132zM33.706750081881566,-38.975180893879L37.35016184142629,106.37602571555124L38.67943575314223,108.86864125943097z" style="fill:rgb(247,158,158)"/><path d="M-109.84165204114387,142.77672437708785L-146.03215402323596,148.36865532722808L-144.29551341590295,150.64270067538868z" style="fill:rgb(127,37,217)"/><path d="M169.72084807403434,-21.38318669705082L168.79448383316404,-24.07101016667943L174.67118940455083,11.338192352399327z" style="fill:rgb(247,158,158)"/><path d="M168.79448383316404,-24.07101016667943L164.91838361613878,-23.091152793216132L170.65467691443146,12.31844185882309z" style="fill:rgb(83,212,212)"/><path d="M209.1406299915059,108.9874737216885L-144.29551341590295,150.64270067538868L-120.87915046057188,181.30537298106236zM90.06727076011605,-191.0395983538559L50.367997550685764,-179.21039069141636L99.13875149656863,-56.628559067810166z" style="fill:rgb(127,37,217)"/><path d="M128.27401643431637,-202.424095039711L184.4339131633724,-32.20514961251775L127.90820418351522,-204.81585993474147z" style="fill:rgb(247,158,158)"/><path d="M128.27401643431637,-202.424095039711L118.09195297154797,-199.39012902610207L175.99780038696915,-27.469539587419zM-143.02934282229455,134.44953004029205L-140.2074902321498,143.8981316195974L-136.57976634637095,143.0645098982266zM57.800897712004655,144.72455114737798L56.57198967580477,142.42015355309948L18.553922128063657,150.75112704444854zM129.4153811108725,-165.7712113976021L125.45557143366887,-164.62638559438832L147.28827895063029,-100.49176872356078z" style="fill:rgb(127,37,217)"/><path d="M-177.79040848094775,-40.71077463631788L-181.3304021390327,-39.720484291213644L-191.7667043472174,17.913941027742556z" style="fill:rgb(83,212,212)"/><path d="M-109.84165204114387,142.77672437708785L-111.5049415186688,140.4622826092582L-146.03215402323596,148.36865532722808zM-143.02934282229455,134.44953004029205L-146.6857771316189,135.29920720990702L-140.2074902321498,143.8981316195974z" style="fill:rgb(127,37,217)"/><path d="M-196.27019349947912,63.33346768082451L-154.89537116659463,118.59956983171193L-135.9339437905743,-23.366427153618265zM-111.5049415186688,140.4622826092582L-109.54217145979159,139.54886468687002L-111.20014527237922,137.23245987818274zM-111.5049415186688,140.4622826092582L-109.84165204114387,142.77672437708785L-109.54217145979159,139.54886468687002z" style="fill:rgb(247,158,158)"/><path d="M-109.84165204114387,142.77672437708785L-72.49163659166197,131.0603182906718L-109.54217145979159,139.54886468687002z" style="fill:rgb(83,212,212)"/><path d="M-0.5701746898494411,114.58258394554083L-145.63647144921796,145.14567281988002L-143.90552914165266,147.4217558958723z" style="fill:rgb(127,37,217)"/><path d="M-147.08870060240122,138.53064366961587L-143.02934299858367,134.44953020587792L-146.68577740255859,135.29920745962252zM-111.5049415186688,140.4622826092582L-74.0692061833788,128.70005209761254L-111.20014527237922,137.23245987818274z" style="fill:rgb(83,212,212)"/><path d="M156.88579588787331,-85.47891575933076L150.66103415562714,-103.98080619859476L174.43595976544387,43.90305937594135z" style="fill:rgb(247,158,158)"/><path d="M-72.69169394513823,134.29520276783134L-111.5049415186688,140.4622826092582L-109.84165204114387,142.77672437708785z" style="fill:rgb(127,37,217)"/><path d="M-147.08870060240122,138.53064366961587L-143.42259191134048,137.68166839316302L-143.02934299858367,134.44953020587792zM-182.10860905920956,-99.75946648726394L-185.55634258301203,-98.74122734621187L-214.68293247929134,49.182489463463156z" style="fill:rgb(83,212,212)"/><path d="M131.4174538781648,128.63896816212318L56.57198967580477,142.42015355309948L57.800897712004655,144.72455114737798z" style="fill:rgb(127,37,217)"/><path d="M170.65467691443146,12.31844185882309L171.6074487700172,15.002076263527504L165.8536660813177,-20.40826265931645zM-210.72354779890676,48.15709638873297L-182.1010645081439,-99.74749486373301L-182.10860905920956,-99.75946648726394z" style="fill:rgb(247,158,158)"/><path d="M-109.84165204114387,142.77672437708785L-72.69169394513823,134.29520276783134L-72.49163659166197,131.0603182906718z" style="fill:rgb(83,212,212)"/><path d="M169.72084807403434,-21.38318669705082L174.67118940455083,11.338192352399327L175.6143837104645,14.02693444503389z" style="fill:rgb(247,158,158)"/><path d="M211.44760727094376,115.56825871547429L210.00958161726103,111.46620580978735L-119.26807917150576,183.41500105041337z" style="fill:rgb(127,37,217)"/><path d="M168.79448383316404,-24.07101016667943L170.65467691443146,12.31844185882309L174.67118940455083,11.338192352399327zM-111.5049415186688,140.4622826092582L-74.27414848121096,131.93682528589204L-74.0692061833788,128.70005209761254z" style="fill:rgb(83,212,212)"/><path d="M-72.69169394513823,134.29520276783134L-74.27414848121096,131.93682528589204L-111.5049415186688,140.4622826092582zM209.41710424351533,108.21454537864753L56.4176864842013,139.19198927647025L57.643645584198545,141.4983789702114z" style="fill:rgb(127,37,217)"/><path d="M-74.0692061833788,128.70005209761254L-72.69169394513823,134.29520276783134L-72.49163659166197,131.0603182906718z" style="fill:rgb(247,158,158)"/><path d="M150.66103415562714,-103.98080619859476L146.90257099863575,-102.95501454267142L170.06036312081696,44.93724563434451z" style="fill:rgb(83,212,212)"/><path d="M-147.0887004207811,138.53064349869155L-164.61267621353278,124.03829448723303L-152.57496822923468,139.80112525408882z" style="fill:rgb(127,37,217)"/><path d="M-159.04761415722714,122.72297438091417L-147.0887004207811,138.53064349869155L-146.6857771316189,135.29920720990702zM-74.0692061833788,128.70005209761254L-74.27414848121096,131.93682528589204L-72.69169394513823,134.29520276783134z" style="fill:rgb(247,158,158)"/><path d="M-155.3287073077817,121.84400105255024L-147.08870060240122,138.53064366961587L-143.42259191134048,137.68166839316302zM131.4174538781648,128.63896816212318L130.35900976375385,126.25105353396049L56.57198967580477,142.42015355309948z" style="fill:rgb(127,37,217)"/><path d="M-218.03333500390806,34.263534879124705L-182.58541601527938,-97.29475963127372L-189.2262244913834,-107.81839594721433z" style="fill:rgb(247,158,158)"/><path d="M125.45557143366887,-164.62638559438832L129.05715860022758,-168.19417527300902L125.10863807960845,-167.05022413179825zM125.45557143366887,-164.62638559438832L129.4153811108725,-165.7712113976021L129.05715860022758,-168.19417527300902z" style="fill:rgb(83,212,212)"/><path d="M-0.5701746898494411,114.58258394554083L-1.986539782935606,112.13599781505766L-145.63647144921796,145.14567281988002z" style="fill:rgb(127,37,217)"/><path d="M-159.04761415722714,122.72297438091417L-146.6857771316189,135.29920720990702L-158.6043262924506,119.47918580771993z" style="fill:rgb(247,158,158)"/><path d="M-189.2262244913834,-107.81839594721433L-192.70846603102993,-106.78079260793145L-222.01518821365102,35.31116307538025z" style="fill:rgb(83,212,212)"/><path d="M130.35900976375385,126.25105353396049L131.0535268066411,125.39963510650612L129.99707212265983,123.00989023124zM130.35900976375385,126.25105353396049L131.4174538781648,128.63896816212318L131.0535268066411,125.39963510650612z" style="fill:rgb(247,158,158)"/><path d="M37.244214709633916,103.12106883810894L180.04851514928652,70.30571049716242L157.00229968390968,-71.9563919494934z" style="fill:rgb(83,212,212)"/><path d="M-147.0887004207811,138.53064349869155L-159.04761415722714,122.72297438091417L-164.61267621353278,124.03829448723303zM-0.5717767758429836,117.82987844447572L-74.27414848121096,131.93682528589204L-72.69169394513823,134.29520276783134zM174.67118940455083,11.338192352399327L171.6074487700172,15.002076263527504L175.6143837104645,14.02693444503389zM-155.3287073077817,121.84400105255024L-159.04762502328722,122.72297468902624L-147.08870060240122,138.53064366961587z" style="fill:rgb(127,37,217)"/><path d="M-177.79040848094775,-40.71077463631788L-191.7667043472174,17.913941027742556L-188.03288150459068,16.922428267961788zM131.4174538781648,128.63896816212318L170.99091407484423,116.64138055730481L131.0535268066411,125.39963510650612z" style="fill:rgb(83,212,212)"/><path d="M174.67118940455083,11.338192352399327L170.65467691443146,12.31844185882309L171.6074487700172,15.002076263527504z" style="fill:rgb(127,37,217)"/><path d="M-197.9200453741696,-105.22789049581323L128.27401643431637,-202.424095039711L127.90820418351522,-204.81585993474147z" style="fill:rgb(83,212,212)"/><path d="M118.19792983092836,-185.946059806592L125.45557143366887,-164.62638559438832L125.10863807960845,-167.05022413179825z" style="fill:rgb(247,158,158)"/><path d="M130.35900976375385,126.25105353396049L170.02951859898633,114.20567479762856L129.99707212265983,123.00989023124z" style="fill:rgb(83,212,212)"/><path d="M171.4702965549501,119.88722458205159L130.35900976375385,126.25105353396049L131.4174538781648,128.63896816212318z" style="fill:rgb(127,37,217)"/><path d="M131.4174538781648,128.63896816212318L171.4702965549501,119.88722458205159L170.99091407484423,116.64138055730481z" style="fill:rgb(83,212,212)"/><path d="M209.41710424351533,108.21454537864753L208.54903606400765,105.73418334949734L56.4176864842013,139.19198927647025zM-0.5717767758429836,117.82987844447572L-1.9921363683611608,115.38500522271454L-74.27414848121096,131.93682528589204z" style="fill:rgb(127,37,217)"/><path d="M130.35900976375385,126.25105353396049L170.50746507195416,117.45324442758087L170.02951859898633,114.20567479762856z" style="fill:rgb(83,212,212)"/><path d="M171.4702965549501,119.88722458205159L170.50746507195416,117.45324442758087L130.35900976375385,126.25105353396049z" style="fill:rgb(127,37,217)"/><path d="M118.19792983092836,-185.946059806592L125.10863807960845,-167.05022413179825L117.86530540792877,-188.3526243884911zM170.02951859898633,114.20567479762856L171.4702965549501,119.88722458205159L170.99091407484423,116.64138055730481z" style="fill:rgb(247,158,158)"/><path d="M195.52745204129658,70.1550950175641L-152.57496822923468,139.80112525408882L-146.03215402323596,148.36865532722808z" style="fill:rgb(127,37,217)"/><path d="M170.02951859898633,114.20567479762856L170.50746507195416,117.45324442758087L171.4702965549501,119.88722458205159zM-1.986539782935606,112.13599781505766L-0.5717767758429836,117.82987844447572L-0.5701746898494411,114.58258394554083zM134.36041737721763,-131.4549265207114L128.94450879722834,-168.52902340616794L128.83742689256616,-168.84728940816308zM134.09500502387712,-132.69334003768802L128.83742689256616,-168.84728940816308L128.69629020583773,-169.26680648706179zM134.5957832288247,-130.28597148677397L129.01647560209273,-168.3151122214575L128.94450879722834,-168.52902340616794zM133.80220638776342,-133.98885263860228L128.69629020583773,-169.26680648706179L128.52246878370434,-169.78345279731658zM134.79869110902243,-129.19819039998146L129.05263429160593,-168.2076367048342L129.01647560209273,-168.3151122214575zM133.4849446767594,-135.3286165503741L128.52246878370434,-169.78345279731658L128.31766471367152,-170.39220341233067zM133.1463666229147,-136.6993707020422L128.31766471367152,-170.39220341233067L128.08388746266195,-171.0870487761831zM132.78982414421571,-138.0876081059193L128.08388746266195,-171.0870487761831L127.82344627615943,-171.86115882416175zM-1.986539782935606,112.13599781505766L-1.9921363683611608,115.38500522271454L-0.5717767758429836,117.82987844447572zM132.4188333808055,-139.4796202085853L127.82344627615943,-171.86115882416175L127.53891933960129,-172.70685586528464z" style="fill:rgb(247,158,158)"/><path d="M-0.5717767758429836,117.82987844447572L38.5700097323035,105.61527368255375L-0.5701746898494411,114.58258394554083z" style="fill:rgb(83,212,212)"/><path d="M210.00958161726103,111.46620580978735L170.50746507195416,117.45324442758087L171.4702965549501,119.88722458205159z" style="fill:rgb(127,37,217)"/><path d="M132.0370448470239,-140.8617022270044L127.53891933960129,-172.70685586528464L127.23312838945688,-173.61577124037876zM194.95140168891353,66.8811433396706L195.89294441400182,69.57144139657744L170.80211285870143,-72.6903899747879zM131.64821989740162,-142.22020152906975L127.23312838945688,-173.61577124037876L126.90912921255645,-174.57880878437848z" style="fill:rgb(247,158,158)"/><path d="M184.29578219638316,69.32972231873133L194.95140168891353,66.8811433396706L169.92092577515592,-75.37848161740911z" style="fill:rgb(83,212,212)"/><path d="M131.2561801377565,-143.54166031747434L126.90912921255645,-174.57880878437848L126.57015469114089,-175.58633445912355zM130.86481179479597,-144.81296044946112L126.57015469114089,-175.58633445912355L126.21963069847286,-176.62818091510397z" style="fill:rgb(247,158,158)"/><path d="M38.67943575314223,108.86864125943097L-1.9921363683611608,115.38500522271454L-0.5717767758429836,117.82987844447572z" style="fill:rgb(127,37,217)"/><path d="M130.47800435068172,-146.021384994113L126.21963069847286,-176.62818091510397L125.86111348783436,-177.6938244426843zM180.6432498912904,59.23476853358832L184.29578219638316,69.32972231873133L160.68524788529064,-72.93198873926876z" style="fill:rgb(247,158,158)"/><path d="M-0.5717767758429836,117.82987844447572L38.67943575314223,108.86864125943097L38.5700097323035,105.61527368255375z" style="fill:rgb(83,212,212)"/><path d="M130.0995964972924,-147.1547795487929L125.86111348783436,-177.6938244426843L125.49823560779905,-178.7724108143875z" style="fill:rgb(247,158,158)"/><path d="M210.00958161726103,111.46620580978735L209.1406299915059,108.9874737216885L170.50746507195416,117.45324442758087z" style="fill:rgb(127,37,217)"/><path d="M129.73338601468876,-148.20166316233932L125.49823560779905,-178.7724108143875L125.13471449077038,-179.8529063139695z" style="fill:rgb(247,158,158)"/><path d="M-200.15922848830144,64.32152606321506L-196.27019349947912,63.33346768082451L-170.9904819604862,-78.92033616403499z" style="fill:rgb(83,212,212)"/><path d="M129.38306740689617,-149.15131880017512L125.13471449077038,-179.8529063139695L124.77428593873584,-180.92420264937238z" style="fill:rgb(247,158,158)"/><path d="M209.1406299915059,108.9874737216885L196.47017443626157,72.84425686658322L-144.29551341590295,150.64270067538868z" style="fill:rgb(127,37,217)"/><path d="M-188.03288150459068,16.922428267961788L-191.7667043472174,17.913941027742556L-192.0153688118334,18.82870226271664z" style="fill:rgb(84,220,202)"/><path d="M38.67943575314223,108.86864125943097L37.35016184142629,106.37602571555124L-1.9921363683611608,115.38500522271454zM118.09195297154797,-199.39012902610207L118.19792983092836,-185.946059806592L122.22078890823987,-187.13174492005814z" style="fill:rgb(127,37,217)"/><path d="M129.05220400197157,-149.99391210898455L124.77428593873584,-180.92420264937238L124.42067869748153,-181.9752106031745zM-196.8610007023444,66.59722690427256L-196.85225685558177,66.60885024824763L-170.55114061585664,-81.39259449512659z" style="fill:rgb(247,158,158)"/><path d="M-188.03288150459068,16.922428267961788L-192.0153688118334,18.82870226271664L-188.2778905634256,17.837040453115595z" style="fill:rgb(84,220,202)"/><path d="M180.04851514928652,70.30571049716242L174.67118940455083,11.338192352399327L170.65467691443146,12.31844185882309z" style="fill:rgb(83,212,212)"/><path d="M-188.2778905634256,17.837040453115595L-192.0153688118334,18.82870226271664L-192.32734912323457,19.637733276446863z" style="fill:rgb(84,228,192)"/><path d="M128.7442031734838,-150.7206137774792L124.42067869748153,-181.9752106031745L124.077577133883,-182.9950342050917z" style="fill:rgb(247,158,158)"/><path d="M-188.2778905634256,17.837040453115595L-192.32734912323457,19.637733276446863L-188.58598744759524,18.645745998176z" style="fill:rgb(84,228,192)"/><path d="M-188.58598744759524,18.645745998176L-192.32734912323457,19.637733276446863L-192.69969419560312,20.3325430257919z" style="fill:rgb(85,235,181)"/><path d="M128.46223555835098,-151.3236593702603L124.077577133883,-182.9950342050917L123.74854507411797,-183.97301318685786z" style="fill:rgb(247,158,158)"/><path d="M-188.58598744759524,18.645745998176L-192.69969419560312,20.3325430257919L-188.9542586632194,19.340054929882594z" style="fill:rgb(85,235,181)"/><path d="M176.35563049817722,60.23112006598518L180.6432498912904,59.23476853358832L157.2914096353966,-83.00819762023112z" style="fill:rgb(83,212,212)"/><path d="M176.880297465316,63.507691391276225L-155.32870691710409,121.84400074635415L-143.4225917340806,137.68166822312725z" style="fill:rgb(127,37,217)"/><path d="M-188.9542586632194,19.340054929882594L-192.69969419560312,20.3325430257919L-193.1288699167074,20.90569203645361z" style="fill:rgb(87,240,169)"/><path d="M128.20927493874143,-151.79646276290748L123.74854507411797,-183.97301318685786L123.4370505271588,-184.8988682110047z" style="fill:rgb(247,158,158)"/><path d="M118.09195297154797,-199.39012902610207L114.0330106612643,-198.18067896777032L118.19792983092836,-185.946059806592z" style="fill:rgb(127,37,217)"/><path d="M-188.9542586632194,19.340054929882594L-193.1288699167074,20.90569203645361L-189.37921137370975,19.912531962208263z" style="fill:rgb(87,240,169)"/><path d="M127.98800449250535,-152.13371137296568L123.4370505271588,-184.8988682110047L123.14637463789762,-185.76284386661285z" style="fill:rgb(247,158,158)"/><path d="M-196.27019349947912,63.33346768082451L-158.6043262924506,119.47918580771993L-154.89537116659463,118.59956983171193z" style="fill:rgb(127,37,217)"/><path d="M-189.37921137370975,19.912531962208263L-193.1288699167074,20.90569203645361L-193.61073039653198,21.350935956544348z" style="fill:rgb(89,245,157)"/><path d="M127.80081680676136,-152.33141877202226L123.14637463789762,-185.76284386661285L122.87959946290582,-186.55581033676856z" style="fill:rgb(247,158,158)"/><path d="M-189.37921137370975,19.912531962208263L-193.61073039653198,21.350935956544348L-189.85674223189864,20.356938572967543z" style="fill:rgb(89,245,157)"/><path d="M133.4849446767594,-135.3286165503741L133.80220638776342,-133.98885263860228L128.52246878370434,-169.78345279731658zM133.1463666229147,-136.6993707020422L133.4849446767594,-135.3286165503741L128.31766471367152,-170.39220341233067zM133.80220638776342,-133.98885263860228L134.09500502387712,-132.69334003768802L128.69629020583773,-169.26680648706179zM132.78982414421571,-138.0876081059193L133.1463666229147,-136.6993707020422L128.08388746266195,-171.0870487761831zM134.09500502387712,-132.69334003768802L134.36041737721763,-131.4549265207114L128.83742689256616,-168.84728940816308zM132.4188333808055,-139.4796202085853L132.78982414421571,-138.0876081059193L127.82344627615943,-171.86115882416175z" style="fill:rgb(247,158,158)"/><path d="M-189.85674223189864,20.356938572967543L-193.61073039653198,21.350935956544348L-194.14057327720303,21.66323802283332z" style="fill:rgb(91,248,145)"/><path d="M134.36041737721763,-131.4549265207114L134.5957832288247,-130.28597148677397L128.94450879722834,-168.52902340616794zM127.64975238522433,-152.38698685328094L122.87959946290582,-186.55581033676856L122.63954316294587,-187.26931949825442zM132.0370448470239,-140.8617022270044L132.4188333808055,-139.4796202085853L127.53891933960129,-172.70685586528464zM134.5957832288247,-130.28597148677397L134.79869110902243,-129.19819039998146L129.01647560209273,-168.3151122214575zM131.64821989740162,-142.22020152906975L132.0370448470239,-140.8617022270044L127.23312838945688,-173.61577124037876z" style="fill:rgb(247,158,158)"/><path d="M-189.85674223189864,20.356938572967543L-194.14057327720303,21.66323802283332L-190.38219179389588,20.668245322923713z" style="fill:rgb(91,248,145)"/><path d="M127.53652942427566,-152.29926302686698L122.63954316294587,-187.26931949825442L122.42878186217527,-187.895776281964zM134.79869110902243,-129.19819039998146L134.9670594866191,-128.2025988348203L129.05263429160593,-168.2076367048342zM131.2561801377565,-143.54166031747434L131.64821989740162,-142.22020152906975L126.90912921255645,-174.57880878437848z" style="fill:rgb(247,158,158)"/><path d="M-190.38219179389588,20.668245322923713L-194.14057327720303,21.66323802283332L-194.71317046142892,21.838887321883625z" style="fill:rgb(94,250,133)"/><path d="M127.46246867005051,-152.0685939808878L122.42878186217527,-187.895776281964L122.24956969185396,-188.42844688541214zM130.86481179479597,-144.81296044946112L131.2561801377565,-143.54166031747434L126.57015469114089,-175.58633445912355z" style="fill:rgb(247,158,158)"/><path d="M-190.38219179389588,20.668245322923713L-194.71317046142892,21.838887321883625L-190.9503787973161,20.84275057632327z" style="fill:rgb(94,250,133)"/><path d="M127.42847993279491,-151.69679835622543L122.24956969185396,-188.42844688541214L122.10381779873578,-188.86164930099483zM130.47800435068172,-146.021384994113L130.86481179479597,-144.81296044946112L126.21963069847286,-176.62818091510397z" style="fill:rgb(247,158,158)"/><path d="M114.93730804348479,91.458602669752L37.35016184142629,106.37602571555124L38.67943575314223,108.86864125943097z" style="fill:rgb(127,37,217)"/><path d="M127.43509722027085,-151.18720931144972L122.10381779873578,-188.86164930099483L121.99311722805972,-189.19069164648894zM130.0995964972924,-147.1547795487929L130.47800435068172,-146.021384994113L125.86111348783436,-177.6938244426843zM127.48238226900374,-150.54465770333223L121.99311722805972,-189.19069164648894L121.91864521496969,-189.4120596910228zM127.56997398588067,-149.77542331513425L121.91864521496969,-189.4120596910228L121.88119782309752,-189.52334763227094zM129.73338601468876,-148.20166316233932L130.0995964972924,-147.1547795487929L125.49823560779905,-178.7724108143875zM156.88579588787331,-85.47891575933076L174.43595976544387,43.90305937594135L181.18122197441681,62.51171004111113zM129.38306740689617,-149.15131880017512L129.73338601468876,-148.20166316233932L125.13471449077038,-179.8529063139695zM129.05220400197157,-149.99391210898455L129.38306740689617,-149.15131880017512L124.77428593873584,-180.92420264937238z" style="fill:rgb(247,158,158)"/><path d="M195.89294441400182,69.57144139657744L37.244214709633916,103.12106883810894L38.5700097323035,105.61527368255375z" style="fill:rgb(127,37,217)"/><path d="M128.7442031734838,-150.7206137774792L129.05220400197157,-149.99391210898455L124.42067869748153,-181.9752106031745zM128.46223555835098,-151.3236593702603L128.7442031734838,-150.7206137774792L124.077577133883,-182.9950342050917zM150.27059736869174,-24.709775931627078L151.05697566359748,-101.51804255731103L129.4153811108725,-165.7712113976021zM128.20927493874143,-151.79646276290748L128.46223555835098,-151.3236593702603L123.74854507411797,-183.97301318685786z" style="fill:rgb(247,158,158)"/><path d="M114.93730804348479,91.458602669752L113.79076949921968,88.87193579074295L37.35016184142629,106.37602571555124z" style="fill:rgb(127,37,217)"/><path d="M-196.93076358257304,66.5044277484444L-188.03288150459068,16.922428267961788L-188.2778905634256,17.837040453115595zM127.98800449250535,-152.13371137296568L128.20927493874143,-151.79646276290748L123.4370505271588,-184.8988682110047zM-197.06962688730275,66.31972306524692L-188.2778905634256,17.837040453115595L-188.58598744759524,18.645745998176z" style="fill:rgb(247,158,158)"/><path d="M132.78982414421571,-138.0876081059193L128.6719420620148,-136.92530940856483L129.02810044091885,-135.53844087453356z" style="fill:rgb(97,120,251)"/><path d="M133.1463666229147,-136.6993707020422L129.02810044091885,-135.53844087453356L129.36575658225243,-134.16887171778424z" style="fill:rgb(94,133,250)"/><path d="M132.4188333808055,-139.4796202085853L128.30079267009188,-138.31581260689987L128.6719420620148,-136.92530940856483z" style="fill:rgb(100,108,250)"/><path d="M-197.27621930741185,66.04490272232162L-188.58598744759524,18.645745998176L-188.9542586632194,19.340054929882594z" style="fill:rgb(247,158,158)"/><path d="M133.4849446767594,-135.3286165503741L129.36575658225243,-134.16887171778424L129.68156665099968,-132.83010779893223z" style="fill:rgb(91,145,248)"/><path d="M127.80081680676136,-152.33141877202226L127.98800449250535,-152.13371137296568L123.14637463789762,-185.76284386661285z" style="fill:rgb(247,158,158)"/><path d="M132.0370448470239,-140.8617022270044L127.9183042043969,-139.69622762178017L128.30079267009188,-138.31581260689987z" style="fill:rgb(104,95,248)"/><path d="M132.78982414421571,-138.0876081059193L129.02810044091885,-135.53844087453356L133.1463666229147,-136.6993707020422z" style="fill:rgb(97,120,251)"/><path d="M132.4188333808055,-139.4796202085853L128.6719420620148,-136.92530940856483L132.78982414421571,-138.0876081059193z" style="fill:rgb(100,108,250)"/><path d="M133.1463666229147,-136.6993707020422L129.36575658225243,-134.16887171778424L133.4849446767594,-135.3286165503741z" style="fill:rgb(94,133,250)"/><path d="M-182.10860905920956,-99.75946648726394L-214.68293247929134,49.182489463463156L-210.72354779890676,48.15709638873297z" style="fill:rgb(83,212,212)"/><path d="M132.0370448470239,-140.8617022270044L128.30079267009188,-138.31581260689987L132.4188333808055,-139.4796202085853z" style="fill:rgb(104,95,248)"/><path d="M133.80220638776342,-133.98885263860228L129.68156665099968,-132.83010779893223L129.9723983695092,-131.53540132773952z" style="fill:rgb(89,157,245)"/><path d="M131.64821989740162,-142.22020152906975L127.52823596304528,-141.05293062720972L127.9183042043969,-139.69622762178017z" style="fill:rgb(108,83,245)"/><path d="M133.4849446767594,-135.3286165503741L129.68156665099968,-132.83010779893223L133.80220638776342,-133.98885263860228z" style="fill:rgb(91,145,248)"/><path d="M131.64821989740162,-142.22020152906975L127.9183042043969,-139.69622762178017L132.0370448470239,-140.8617022270044z" style="fill:rgb(108,83,245)"/><path d="M-210.72354779890676,48.15709638873297L-210.71447246361657,48.16916410291487L-182.1010645081439,-99.74749486373301z" style="fill:rgb(247,158,158)"/><path d="M134.09500502387712,-132.69334003768802L129.9723983695092,-131.53540132773952L130.23534596227543,-130.29759096108714z" style="fill:rgb(87,169,240)"/><path d="M133.80220638776342,-133.98885263860228L129.9723983695092,-131.53540132773952L134.09500502387712,-132.69334003768802z" style="fill:rgb(89,157,245)"/><path d="M-197.54854988560163,65.68264271970743L-188.9542586632194,19.340054929882594L-189.37921137370975,19.912531962208263z" style="fill:rgb(247,158,158)"/><path d="M131.2561801377565,-143.54166031747434L127.13445159769879,-142.37247875490107L127.52823596304528,-141.05293062720972zM131.2561801377565,-143.54166031747434L127.52823596304528,-141.05293062720972L131.64821989740162,-142.22020152906975z" style="fill:rgb(112,72,241)"/><path d="M127.64975238522433,-152.38698685328094L127.80081680676136,-152.33141877202226L122.87959946290582,-186.55581033676856z" style="fill:rgb(247,158,158)"/><path d="M180.04851514928652,70.30571049716242L184.29578219638316,69.32972231873133L174.67118940455083,11.338192352399327z" style="fill:rgb(83,212,212)"/><path d="M134.09500502387712,-132.69334003768802L130.23534596227543,-130.29759096108714L134.36041737721763,-131.4549265207114z" style="fill:rgb(87,169,240)"/><path d="M134.36041737721763,-131.4549265207114L130.23534596227543,-130.29759096108714L130.4677733461687,-129.1290200036194z" style="fill:rgb(85,181,235)"/><path d="M130.86481179479597,-144.81296044946112L126.74082228212937,-143.64177287861634L127.13445159769879,-142.37247875490107zM130.86481179479597,-144.81296044946112L127.13445159769879,-142.37247875490107L131.2561801377565,-143.54166031747434z" style="fill:rgb(116,61,236)"/><path d="M-197.88396217820443,65.23646962872469L-189.37921137370975,19.912531962208263L-189.85674223189864,20.356938572967543z" style="fill:rgb(247,158,158)"/><path d="M134.36041737721763,-131.4549265207114L130.4677733461687,-129.1290200036194L134.5957832288247,-130.28597148677397z" style="fill:rgb(85,181,235)"/><path d="M134.5957832288247,-130.28597148677397L130.4677733461687,-129.1290200036194L130.66729731870458,-128.04143232199277z" style="fill:rgb(84,192,228)"/><path d="M130.47800435068172,-146.021384994113L126.3512692818192,-144.84811471768978L126.74082228212937,-143.64177287861634z" style="fill:rgb(120,51,229)"/><path d="M127.53652942427566,-152.29926302686698L127.64975238522433,-152.38698685328094L122.63954316294587,-187.26931949825442z" style="fill:rgb(247,158,158)"/><path d="M130.47800435068172,-146.021384994113L126.74082228212937,-143.64177287861634L130.86481179479597,-144.81296044946112z" style="fill:rgb(120,51,229)"/><path d="M113.79076949921968,88.87193579074295L114.60609213727402,88.19485531944085L113.46196739264424,85.60680251705467zM113.79076949921968,88.87193579074295L114.93730804348479,91.458602669752L114.60609213727402,88.19485531944085z" style="fill:rgb(247,158,158)"/><path d="M134.5957832288247,-130.28597148677397L130.66729731870458,-128.04143232199277L134.79869110902243,-129.19819039998146z" style="fill:rgb(84,192,228)"/><path d="M-198.27918420667493,64.71074095193326L-189.85674223189864,20.356938572967543L-190.38219179389588,20.668245322923713z" style="fill:rgb(247,158,158)"/><path d="M134.79869110902243,-129.19819039998146L130.66729731870458,-128.04143232199277L130.83186822119782,-127.04580821578973z" style="fill:rgb(84,202,220)"/><path d="M130.0995964972924,-147.1547795487929L125.96964804526642,-145.9793716346498L126.3512692818192,-144.84811471768978z" style="fill:rgb(125,41,221)"/><path d="M-218.03333500390806,34.263534879124705L-210.0887131252311,44.87549561810345L-182.58541601527938,-97.29475963127372z" style="fill:rgb(247,158,158)"/><path d="M130.0995964972924,-147.1547795487929L126.3512692818192,-144.84811471768978L130.47800435068172,-146.021384994113z" style="fill:rgb(125,41,221)"/><path d="M127.46246867005051,-152.0685939808878L127.53652942427566,-152.29926302686698L122.42878186217527,-187.895776281964z" style="fill:rgb(247,158,158)"/><path d="M134.79869110902243,-129.19819039998146L130.83186822119782,-127.04580821578973L134.9670594866191,-128.2025988348203z" style="fill:rgb(84,202,220)"/><path d="M114.93730804348479,91.458602669752L156.01781707117738,78.70712200291757L114.60609213727402,88.19485531944085z" style="fill:rgb(83,212,212)"/><path d="M-198.730348653159,64.11060277231624L-190.38219179389588,20.668245322923713L-190.9503787973161,20.84275057632327z" style="fill:rgb(247,158,158)"/><path d="M195.52745204129658,70.1550950175641L191.97195137871896,60.012852202151095L-152.57496822923468,139.80112525408882z" style="fill:rgb(127,37,217)"/><path d="M129.73338601468876,-148.20166316233932L125.59981969700657,-147.02407288315783L125.96964804526642,-145.9793716346498zM129.73338601468876,-148.20166316233932L125.96964804526642,-145.9793716346498L130.0995964972924,-147.1547795487929z" style="fill:rgb(129,33,213)"/><path d="M127.42847993279491,-151.69679835622543L127.46246867005051,-152.0685939808878L122.24956969185396,-188.42844688541214z" style="fill:rgb(247,158,158)"/><path d="M150.66103415562714,-103.98080619859476L170.06036312081696,44.93724563434451L174.43595976544387,43.90305937594135z" style="fill:rgb(83,212,212)"/><path d="M129.38306740689617,-149.15131880017512L125.59981969700657,-147.02407288315783L129.73338601468876,-148.20166316233932zM129.38306740689617,-149.15131880017512L125.2454792913543,-147.9715532053754L125.59981969700657,-147.02407288315783z" style="fill:rgb(134,25,203)"/><path d="M-199.23301847941545,63.441945107001075L-190.9503787973161,20.84275057632327L-191.55563502809048,20.878118179257328zM127.43509722027085,-151.18720931144972L127.42847993279491,-151.69679835622543L122.10381779873578,-188.86164930099483z" style="fill:rgb(247,158,158)"/><path d="M-196.27019349947912,63.33346768082451L-200.15922848830144,64.32152606321506L-158.6043262924506,119.47918580771993z" style="fill:rgb(127,37,217)"/><path d="M129.05220400197157,-149.99391210898455L125.2454792913543,-147.9715532053754L129.38306740689617,-149.15131880017512zM129.05220400197157,-149.99391210898455L124.91024282862655,-148.81197079837833L125.2454792913543,-147.9715532053754z" style="fill:rgb(138,18,193)"/><path d="M-199.78222788201327,62.71137822603838L-191.55563502809048,20.878118179257328L-192.1918675761901,20.773444220852337zM127.48238226900374,-150.54465770333223L127.43509722027085,-151.18720931144972L121.99311722805972,-189.19069164648894z" style="fill:rgb(247,158,158)"/><path d="M113.79076949921968,88.87193579074295L154.9758289745919,76.06722834588057L113.46196739264424,85.60680251705467z" style="fill:rgb(83,212,212)"/><path d="M156.47321407541887,81.97575133413162L113.79076949921968,88.87193579074295L114.93730804348479,91.458602669752z" style="fill:rgb(127,37,217)"/><path d="M127.56997398588067,-149.77542331513425L127.48238226900374,-150.54465770333223L121.91864521496969,-189.4120596910228z" style="fill:rgb(247,158,158)"/><path d="M128.7442031734838,-150.7206137774792L124.91024282862655,-148.81197079837833L129.05220400197157,-149.99391210898455z" style="fill:rgb(142,13,182)"/><path d="M-200.37254662592517,61.926127441143464L-192.1918675761901,20.773444220852337L-192.85262172180188,20.529246736730798z" style="fill:rgb(247,158,158)"/><path d="M128.7442031734838,-150.7206137774792L124.59755778812749,-149.53652618209804L124.91024282862655,-148.81197079837833z" style="fill:rgb(142,13,182)"/><path d="M114.93730804348479,91.458602669752L156.47321407541887,81.97575133413162L156.01781707117738,78.70712200291757z" style="fill:rgb(83,212,212)"/><path d="M195.89294441400182,69.57144139657744L194.95140168891353,66.8811433396706L37.244214709633916,103.12106883810894z" style="fill:rgb(127,37,217)"/><path d="M-200.99808605786126,61.09402190770209L-192.85262172180188,20.529246736730798L-193.53112516802915,20.147542108589885z" style="fill:rgb(247,158,158)"/><path d="M128.46223555835098,-151.3236593702603L124.59755778812749,-149.53652618209804L128.7442031734838,-150.7206137774792zM128.46223555835098,-151.3236593702603L124.31064360023356,-150.13746923639155L124.59755778812749,-149.53652618209804z" style="fill:rgb(146,9,171)"/><path d="M-189.2262244913834,-107.81839594721433L-222.01518821365102,35.31116307538025L-218.03333500390806,34.263534879124705z" style="fill:rgb(83,212,212)"/><path d="M-201.65259318845906,60.223378856246995L-193.53112516802915,20.147542108589885L-194.22037420120415,19.63178401226453z" style="fill:rgb(247,158,158)"/><path d="M128.20927493874143,-151.79646276290748L124.31064360023356,-150.13746923639155L128.46223555835098,-151.3236593702603zM128.20927493874143,-151.79646276290748L124.05252053856084,-150.60826518539977L124.31064360023356,-150.13746923639155z" style="fill:rgb(150,6,159)"/><path d="M-202.3294979771316,59.32295634223256L-194.22037420120415,19.63178401226453L-194.9132115455147,18.986883762562446z" style="fill:rgb(247,158,158)"/><path d="M113.79076949921968,88.87193579074295L155.42942844917135,79.3371191766938L154.9758289745919,76.06722834588057z" style="fill:rgb(83,212,212)"/><path d="M156.47321407541887,81.97575133413162L155.42942844917135,79.3371191766938L113.79076949921968,88.87193579074295z" style="fill:rgb(127,37,217)"/><path d="M127.98800449250535,-152.13371137296568L124.05252053856084,-150.60826518539977L128.20927493874143,-151.79646276290748zM127.98800449250535,-152.13371137296568L123.8259259695428,-150.94359320533766L124.05252053856084,-150.60826518539977z" style="fill:rgb(154,4,146)"/><path d="M154.9758289745919,76.06722834588057L156.47321407541887,81.97575133413162L156.01781707117738,78.70712200291757zM-203.02194382998755,58.401860886355514L-194.9132115455147,18.986883762562446L-195.60236561672704,18.21919002157265z" style="fill:rgb(247,158,158)"/><path d="M127.80081680676136,-152.33141877202226L123.8259259695428,-150.94359320533766L127.98800449250535,-152.13371137296568zM127.80081680676136,-152.33141877202226L123.63329325007078,-151.13948500309218L123.8259259695428,-150.94359320533766z" style="fill:rgb(157,3,134)"/><path d="M-203.7228956078294,57.469460930202786L-195.60236561672704,18.21919002157265L-196.28057836638254,17.336382293659167zM154.9758289745919,76.06722834588057L155.42942844917135,79.3371191766938L156.47321407541887,81.97575133413162zM-196.93076358257304,66.5044277484444L-196.8610007023444,66.59722690427256L-188.03288150459068,16.922428267961788zM-204.4251557699071,56.535296332602876L-196.28057836638254,17.336382293659167L-196.94063136675177,16.347462236255954zM-197.06962688730275,66.31972306524692L-196.93076358257304,66.5044277484444L-188.2778905634256,17.837040453115595z" style="fill:rgb(247,158,158)"/><path d="M145.65041012811227,-23.535955881010043L129.4153811108725,-165.7712113976021L125.45557143366887,-164.62638559438832z" style="fill:rgb(83,212,212)"/><path d="M127.64975238522433,-152.38698685328094L123.63329325007078,-151.13948500309218L127.80081680676136,-152.33141877202226z" style="fill:rgb(160,4,121)"/><path d="M150.75148160292517,-21.437130628290095L129.05715860022758,-168.19417527300902L129.05263429160593,-168.2076367048342z" style="fill:rgb(247,158,158)"/><path d="M127.64975238522433,-152.38698685328094L123.47675148098423,-151.19338465666019L123.63329325007078,-151.13948500309218z" style="fill:rgb(160,4,121)"/><path d="M-197.27621930741185,66.04490272232162L-197.06962688730275,66.31972306524692L-188.58598744759524,18.645745998176zM-205.12153958529404,55.60895695695437L-196.94063136675177,16.347462236255954L-197.57552718292888,15.26260711122647zM-197.54854988560163,65.68264271970743L-197.27621930741185,66.04490272232162L-188.9542586632194,19.340054929882594zM-205.80482831341294,54.70004810268268L-197.57552718292888,15.26260711122647L-198.17846046438885,14.093118571387986zM-197.88396217820443,65.23646962872469L-197.54854988560163,65.68264271970743L-189.37921137370975,19.912531962208263zM-206.4679039389606,53.818007083480055L-198.17846046438885,14.093118571387986L-198.74295167270432,12.851254911401812zM-198.27918420667493,64.71074095193326L-197.88396217820443,65.23646962872469L-189.85674223189864,20.356938572967543z" style="fill:rgb(247,158,158)"/><path d="M185.414790940295,41.308181696423745L-206.58739198824858,69.07427788596328L-164.61267621353278,124.03829448723303z" style="fill:rgb(127,37,217)"/><path d="M-210.71447246361657,48.16916410291487L-201.22134142107274,-0.45583964618465417L-201.09464497138842,-1.5604135980026381z" style="fill:rgb(247,158,158)"/><path d="M196.47017443626157,72.84425686658322L155.42942844917135,79.3371191766938L156.47321407541887,81.97575133413162z" style="fill:rgb(127,37,217)"/><path d="M-207.1038480321856,52.97205901713672L-198.74295167270432,12.851254911401812L-199.26294428937155,11.550113294110773zM-210.64205899824103,48.26549118443196L-201.27757831695396,0.7305800817403266L-201.22134142107274,-0.45583964618465417zM-207.70597522267104,52.17110254943093L-199.26294428937155,11.550113294110773L-199.73285025214344,10.203507461964803zM-198.730348653159,64.11060277231624L-198.27918420667493,64.71074095193326L-190.38219179389588,20.668245322923713zM-210.49800720850197,48.45709741675452L-201.26262142220557,1.986472046192119L-201.27757831695396,0.7305800817403266zM-208.26792201861124,51.423590119135675L-199.73285025214344,10.203507461964803L-200.14761195709028,8.825740536690512zM-210.283898986487,48.74191553204684L-201.1764719459407,3.2986138389914093L-201.26262142220557,1.986472046192119zM-208.7837282236263,50.737460354067714L-200.14761195709028,8.825740536690512L-200.50279071474083,7.431514813450805zM-210.00203503221667,49.11685490807918L-201.01993686466827,4.653149317142327L-201.1764719459407,3.2986138389914093zM-209.24789665797726,50.12002419592745L-200.50279071474083,7.431514813450805L-200.79459528042287,6.03568748511265z" style="fill:rgb(247,158,158)"/><path d="M176.880297465316,63.507691391276225L170.06036312086334,44.93724847247897L-155.32870691710409,121.84400074635415z" style="fill:rgb(127,37,217)"/><path d="M-209.655457904271,49.57788531106921L-200.79459528042287,6.03568748511265L-201.01993686466827,4.653149317142327zM-199.23301847941545,63.441945107001075L-198.730348653159,64.11060277231624L-190.9503787973161,20.84275057632327zM-199.78222788201327,62.71137822603838L-199.23301847941545,63.441945107001075L-191.55563502809048,20.878118179257328zM-200.37254662592517,61.926127441143464L-199.78222788201327,62.71137822603838L-192.1918675761901,20.773444220852337z" style="fill:rgb(247,158,158)"/><path d="M196.47017443626157,72.84425686658322L195.52745204129658,70.1550950175641L155.42942844917135,79.3371191766938z" style="fill:rgb(127,37,217)"/><path d="M-200.99808605786126,61.09402190770209L-200.37254662592517,61.926127441143464L-192.85262172180188,20.529246736730798zM-201.65259318845906,60.223378856246995L-200.99808605786126,61.09402190770209L-193.53112516802915,20.147542108589885z" style="fill:rgb(247,158,158)"/><path d="M180.6432498912904,59.23476853358832L180.04851514928652,70.30571049716242L184.29578219638316,69.32972231873133z" style="fill:rgb(127,37,217)"/><path d="M-202.3294979771316,59.32295634223256L-201.65259318845906,60.223378856246995L-194.22037420120415,19.63178401226453zM-203.02194382998755,58.401860886355514L-202.3294979771316,59.32295634223256L-194.9132115455147,18.986883762562446z" style="fill:rgb(247,158,158)"/><path d="M134.9670594866191,-128.2025988348203L130.83186822119782,-127.04580821578973L139.007916846106,-69.92296692314228z" style="fill:rgb(83,212,212)"/><path d="M-203.7228956078294,57.469460930202786L-203.02194382998755,58.401860886355514L-195.60236561672704,18.21919002157265z" style="fill:rgb(247,158,158)"/><path d="M180.6432498912904,59.23476853358832L176.35563049817722,60.23112006598518L180.04851514928652,70.30571049716242z" style="fill:rgb(127,37,217)"/><path d="M-200.75222389958736,67.59651767610697L-196.27019349947912,63.33346768082451L-200.15922848830144,64.32152606321506z" style="fill:rgb(83,212,212)"/><path d="M-204.4251557699071,56.535296332602876L-203.7228956078294,57.469460930202786L-196.28057836638254,17.336382293659167zM150.27059736869174,-24.709775931627078L173.90821239734473,40.620320958185836L151.05697566359748,-101.51804255731103zM-205.12153958529404,55.60895695695437L-204.4251557699071,56.535296332602876L-196.94063136675177,16.347462236255954z" style="fill:rgb(247,158,158)"/><path d="M-200.75222389958736,67.59651767610697L-196.85225685558177,66.60885024824763L-196.27019349947912,63.33346768082451z" style="fill:rgb(83,212,212)"/><path d="M-205.80482831341294,54.70004810268268L-205.12153958529404,55.60895695695437L-197.57552718292888,15.26260711122647zM-206.4679039389606,53.818007083480055L-205.80482831341294,54.70004810268268L-198.17846046438885,14.093118571387986zM-207.1038480321856,52.97205901713672L-206.4679039389606,53.818007083480055L-198.74295167270432,12.851254911401812zM-207.70597522267104,52.17110254943093L-207.1038480321856,52.97205901713672L-199.26294428937155,11.550113294110773z" style="fill:rgb(247,158,158)"/><path d="M176.880297465316,63.507691391276225L180.64324989119396,59.23476297396686L176.35563049817722,60.23112006598518z" style="fill:rgb(83,212,212)"/><path d="M-208.26792201861124,51.423590119135675L-207.70597522267104,52.17110254943093L-199.73285025214344,10.203507461964803zM-208.7837282236263,50.737460354067714L-208.26792201861124,51.423590119135675L-200.14761195709028,8.825740536690512z" style="fill:rgb(247,158,158)"/><path d="M176.880297465316,63.507691391276225L181.18122197441681,62.51171004111113L180.64324989119396,59.23476297396686z" style="fill:rgb(83,212,212)"/><path d="M-209.24789665797726,50.12002419592745L-208.7837282236263,50.737460354067714L-200.50279071474083,7.431514813450805zM-209.655457904271,49.57788531106921L-209.24789665797726,50.12002419592745L-200.79459528042287,6.03568748511265z" style="fill:rgb(247,158,158)"/><path d="M121.87651233772144,-189.537287675496L117.86530540792877,-188.3526243884911L138.06970392451402,-42.17232874096392z" style="fill:rgb(83,212,212)"/><path d="M-210.00203503221667,49.11685490807918L-209.655457904271,49.57788531106921L-201.01993686466827,4.653149317142327zM-210.71447246361657,48.16916410291487L-210.64205899824103,48.26549118443196L-201.22134142107274,-0.45583964618465417zM-210.283898986487,48.74191553204684L-210.00203503221667,49.11685490807918L-201.1764719459407,3.2986138389914093zM-210.64205899824103,48.26549118443196L-210.49800720850197,48.45709741675452L-201.27757831695396,0.7305800817403266zM-210.49800720850197,48.45709741675452L-210.283898986487,48.74191553204684L-201.26262142220557,1.986472046192119zM142.79208791224073,-43.39531839687063L121.88119782309752,-189.52334763227094L121.87651233772144,-189.537287675496z" style="fill:rgb(247,158,158)"/><path d="M-200.75222389958736,67.59651767610697L-220.60671712854187,50.716607336912475L-206.58739198824858,69.07427788596328z" style="fill:rgb(127,37,217)"/><path d="M-214.68293247929134,49.182489463463156L-200.75222389958736,67.59651767610697L-200.15922848830144,64.32152606321506z" style="fill:rgb(247,158,158)"/><path d="M-210.72354779890676,48.15709638873297L-200.75222389958736,67.59651767610697L-196.85225685558177,66.60885024824763z" style="fill:rgb(127,37,217)"/><path d="M170.06036312086334,44.93724847247897L176.880297465316,63.507691391276225L176.35563049817722,60.23112006598518zM150.17875149184115,-59.20457952471097L211.44760727094376,115.56825871547429L210.85369657369452,112.31937766082015zM-214.68293247929134,49.182489463463156L-200.15922848830144,64.32152606321506L-214.03683287476503,45.901176571321216z" style="fill:rgb(247,158,158)"/><path d="M174.43595976544387,43.90305937594135L176.880297465316,63.507691391276225L181.18122197441681,62.51171004111113zM-200.75222389958736,67.59651767610697L-214.68293247929134,49.182489463463156L-220.60671712854187,50.716607336912475zM191.97195137871896,60.012852202151095L174.43596922609277,43.90306173903082L181.1812200340176,62.511709372743766zM-210.72354779890676,48.15709638873297L-214.68293247929134,49.182489463463156L-200.75222389958736,67.59651767610697z" style="fill:rgb(127,37,217)"/><path d="M137.74050392873923,-59.340727069523474L122.22078890823987,-187.13174492005814L118.09195297154797,-199.39012902610207zM170.06036312086334,44.93724847247897L176.35563049817722,60.23112006598518L169.54637462435625,41.65477427409519z" style="fill:rgb(247,158,158)"/><path d="M118.09195297154797,-199.39012902610207L114.0330106612643,-198.18067896777032L132.98465398084133,-58.08946601039823z" style="fill:rgb(83,212,212)"/><path d="M174.43595976544387,43.90305937594135L170.06036312081696,44.93724563434451L176.880297465316,63.507691391276225z" style="fill:rgb(127,37,217)"/><path d="M134.9670594866191,-128.2025988348203L139.007916846106,-69.92296692314228L143.4103987121343,-71.09204567204262z" style="fill:rgb(83,212,212)"/><path d="M191.97195137871896,60.012852202151095L185.414790940295,41.308181696423745L174.43596922609277,43.90306173903082zM-218.03333500390806,34.263534879124705L-214.03683287476503,45.901176571321216L-210.0887131252311,44.87549561810345zM-218.03333500390806,34.263534879124705L-222.01518821365102,35.31116307538025L-214.03683287476503,45.901176571321216zM146.12083801850326,-20.249333335992496L-210.72354779890676,48.15709638873297L-196.85225685558177,66.60885024824763z" style="fill:rgb(127,37,217)"/><path d="M145.65041012811227,-23.535955881010043L150.27059736869174,-24.709775931627078L129.4153811108725,-165.7712113976021z" style="fill:rgb(83,212,212)"/><path d="M143.4103987121343,-71.09204567204262L139.007916846106,-69.92296692314228L139.1123693066799,-69.02906648641067zM143.4103987121343,-71.09204567204262L139.1123693066799,-69.02906648641067L143.51995058333472,-70.19852310423741z" style="fill:rgb(84,220,202)"/><path d="M150.75148160292517,-21.437130628290095L150.75648437253565,-21.423314920407673L129.05715860022758,-168.19417527300902z" style="fill:rgb(247,158,158)"/><path d="M143.51995058333472,-70.19852310423741L139.1123693066799,-69.02906648641067L139.17601242624403,-68.25723122766331zM143.51995058333472,-70.19852310423741L139.17601242624403,-68.25723122766331L143.58902491919636,-69.42729769126221z" style="fill:rgb(84,228,192)"/><path d="M185.414790940295,41.308181696423745L162.39058564143002,-24.36965829807413L-206.58739198824858,69.07427788596328z" style="fill:rgb(127,37,217)"/><path d="M143.58902491919636,-69.42729769126221L139.17601242624403,-68.25723122766331L139.19805158456404,-67.61565561978992zM143.58902491919636,-69.42729769126221L139.19805158456404,-67.61565561978992L143.6167688835658,-68.78655084591306z" style="fill:rgb(85,235,181)"/><path d="M143.6167688835658,-68.78655084591306L139.19805158456404,-67.61565561978992L139.17811868102888,-67.11133032422282zM143.6167688835658,-68.78655084591306L139.17811868102888,-67.11133032422282L143.60276238945505,-68.28326842763848z" style="fill:rgb(87,240,169)"/><path d="M150.27059736869174,-24.709775931627078L169.54637462435625,41.65477427409519L173.90821239734473,40.620320958185836z" style="fill:rgb(127,37,217)"/><path d="M143.60276238945505,-68.28326842763848L139.17811868102888,-67.11133032422282L139.11623845049436,-66.74989221306073zM143.60276238945505,-68.28326842763848L139.11623845049436,-66.74989221306073L143.54696923483922,-67.9230831183191z" style="fill:rgb(89,245,157)"/><path d="M143.54696923483922,-67.9230831183191L139.11623845049436,-66.74989221306073L139.01286558170523,-66.5356373010943zM143.54696923483922,-67.9230831183191L139.01286558170523,-66.5356373010943L143.4497826758565,-67.71026813971218z" style="fill:rgb(91,248,145)"/><path d="M143.4497826758565,-67.71026813971218L139.01286558170523,-66.5356373010943L138.86887613485413,-66.47137350896234zM143.4497826758565,-67.71026813971218L138.86887613485413,-66.47137350896234L143.31201572038455,-67.64762393778024z" style="fill:rgb(94,250,133)"/><path d="M154.6448063056818,-46.46490011914782L-228.66687091224912,40.16217992196063L-220.60671712854187,50.716607336912475z" style="fill:rgb(127,37,217)"/><path d="M150.7114941249085,-21.547449489866906L143.4103987121343,-71.09204567204262L143.51995058333472,-70.19852310423741zM150.6319041193559,-21.767024493388664L143.51995058333472,-70.19852310423741L143.58902491919636,-69.42729769126221zM150.51347059743148,-22.093738931009202L143.58902491919636,-69.42729769126221L143.6167688835658,-68.78655084591306z" style="fill:rgb(247,158,158)"/><path d="M121.87651233772144,-189.537287675496L138.06970392451402,-42.17232874096392L142.79208791224073,-43.39531839687063z" style="fill:rgb(83,212,212)"/><path d="M150.3573567761799,-22.52443716959334L143.6167688835658,-68.78655084591306L143.60276238945505,-68.28326842763848zM142.79208791224073,-43.39531839687063L142.79729962355424,-43.38092751727389L121.88119782309752,-189.52334763227094z" style="fill:rgb(247,158,158)"/><path d="M-228.66687091224912,40.16217992196063L149.67758355300518,-62.48138547098234L-227.972449412951,36.878526952159255z" style="fill:rgb(83,212,212)"/><path d="M150.16506264886894,-23.054933392406515L143.60276238945505,-68.28326842763848L143.54696923483922,-67.9230831183191zM149.93846078316443,-23.68008252116985L143.54696923483922,-67.9230831183191L143.4497826758565,-67.71026813971218zM137.74050392873923,-59.340727069523474L142.3223883826492,-46.67721468396171L122.22078890823987,-187.13174492005814zM149.67975294737602,-24.393786631323774L143.4497826758565,-67.71026813971218L143.31201572038455,-67.64762393778024zM149.39147965332756,-25.189065118752804L143.31201572038455,-67.64762393778024L143.13491593096174,-67.7364431354839z" style="fill:rgb(247,158,158)"/><path d="M150.27059736869174,-24.709775931627078L145.65041012811227,-23.535955881010043L169.54637462435625,41.65477427409519z" style="fill:rgb(127,37,217)"/><path d="M149.07647429699645,-26.058093235905023L143.13491593096174,-67.7364431354839L142.92013914816292,-67.97644798526277zM148.73784699997398,-26.99229692844747L142.92013914816292,-67.97644798526277L142.66974489420792,-68.36582539989625zM148.37896124326704,-27.982397219351384L142.66974489420792,-68.36582539989625L142.38619331045217,-68.90111911715961zM150.17875149184115,-59.20457952471097L210.85369657369452,112.31937766082015L149.67758355300518,-62.48138547098234zM148.003385778076,-29.018509307266424L142.38619331045217,-68.90111911715961L142.07229200092922,-69.57735626067242z" style="fill:rgb(247,158,158)"/><path d="M118.09195297154797,-199.39012902610207L132.98465398084133,-58.08946601039823L137.74050392873923,-59.340727069523474z" style="fill:rgb(83,212,212)"/><path d="M147.6148998006246,-30.09024252890241L142.07229200092922,-69.57735626067242L141.7312262290265,-70.3880043325943zM147.21744151783588,-31.186761117398547L141.7312262290265,-70.3880043325943L141.366491123188,-71.32501353899765zM146.8150277105079,-32.29693401179271L141.366491123188,-71.32501353899765L140.98183445474402,-72.37894174986556zM150.7114941249085,-21.547449489866906L150.75148160292517,-21.437130628290095L143.4103987121343,-71.09204567204262zM146.41178011532878,-33.40940102480034L140.98183445474402,-72.37894174986556L140.58127309922648,-73.53898938615798zM150.6319041193559,-21.767024493388664L150.7114941249085,-21.547449489866906L143.51995058333472,-70.19852310423741z" style="fill:rgb(247,158,158)"/><path d="M146.12083801850326,-20.249333335992496L138.06970392451402,-42.17232874096392L-210.72354779890676,48.15709638873297z" style="fill:rgb(127,37,217)"/><path d="M150.51347059743148,-22.093738931009202L150.6319041193559,-21.767024493388664L143.58902491919636,-69.42729769126221zM146.0118423656077,-34.51273230391684L140.58127309922648,-73.53898938615798L140.1690072941596,-74.79317319229379zM150.3573567761799,-22.52443716959334L150.51347059743148,-22.093738931009202L143.6167688835658,-68.78655084591306zM145.61935666739421,-35.59549366078675L140.1690072941596,-74.79317319229379L139.749398015308,-76.12835198208786zM150.16506264886894,-23.054933392406515L150.3573567761799,-22.52443716959334L143.60276238945505,-68.28326842763848zM145.2384249471432,-36.64641618832835L139.749398015308,-76.12835198208786L139.3269143694685,-77.53048652600715zM149.93846078316443,-23.68008252116985L150.16506264886894,-23.054933392406515L143.54696923483922,-67.9230831183191zM142.79729962355424,-43.38092751727389L135.8905957010646,-91.80618999370125L135.70713388033886,-92.92045777002122zM144.87301115557116,-37.65450339350539L139.3269143694685,-77.53048652600715L138.90603784286404,-78.98471452052445zM142.83895705808027,-43.2660242939694L136.11210073195085,-90.59227534077405L135.8905957010646,-91.80618999370125zM144.52698235513458,-38.60911492712141L138.90603784286404,-78.98471452052445L138.49128801893457,-80.47555170367664zM149.67975294737602,-24.393786631323774L149.93846078316443,-23.68008252116985L143.4497826758565,-67.71026813971218zM142.92179607010937,-43.03748073759713L136.36939892433327,-89.29135116281486L136.11210073195085,-90.59227534077405zM144.20399793149392,-39.50016010041899L138.49128801893457,-80.47555170367664L138.08710303846942,-81.98708453202438zM143.04492812697958,-42.69777554289568L136.65984121724273,-87.91710912692031L136.36939892433327,-89.29135116281486zM143.90750507904224,-40.318145377683344L138.08710303846942,-81.98708453202438L137.6978195390269,-83.50313926450406zM143.20702877822936,-42.25059784492367L136.98035921006684,-86.48407574047202L136.65984121724273,-87.91710912692031zM143.640649663721,-41.054328179941066L137.6978195390269,-83.50313926450406L137.32758206741468,-85.007500244536zM143.40631810863718,-41.700800338727234L137.32758206741468,-85.007500244536L136.98035921006684,-86.48407574047202zM149.39147965332756,-25.189065118752804L149.67975294737602,-24.393786631323774L143.31201572038455,-67.64762393778024zM149.07647429699645,-26.058093235905023L149.39147965332756,-25.189065118752804L143.13491593096174,-67.7364431354839zM148.73784699997398,-26.99229692844747L149.07647429699645,-26.058093235905023L142.92013914816292,-67.97644798526277zM148.37896124326704,-27.982397219351384L148.73784699997398,-26.99229692844747L142.66974489420792,-68.36582539989625zM148.003385778076,-29.018509307266424L148.37896124326704,-27.982397219351384L142.38619331045217,-68.90111911715961zM147.6148998006246,-30.09024252890241L148.003385778076,-29.018509307266424L142.07229200092922,-69.57735626067242zM147.21744151783588,-31.186761117398547L147.6148998006246,-30.09024252890241L141.7312262290265,-70.3880043325943zM146.8150277105079,-32.29693401179271L147.21744151783588,-31.186761117398547L141.366491123188,-71.32501353899765z" style="fill:rgb(247,158,158)"/><path d="M146.12083801850326,-20.249333335992496L150.27059736869174,-24.709775931627078L145.65041012811227,-23.535955881010043z" style="fill:rgb(83,212,212)"/><path d="M146.41178011532878,-33.40940102480034L146.8150277105079,-32.29693401179271L140.98183445474402,-72.37894174986556zM146.0118423656077,-34.51273230391684L146.41178011532878,-33.40940102480034L140.58127309922648,-73.53898938615798z" style="fill:rgb(247,158,158)"/><path d="M146.12083801850326,-20.249333335992496L150.75648437253565,-21.423314920407673L150.27059736869174,-24.709775931627078z" style="fill:rgb(83,212,212)"/><path d="M145.61935666739421,-35.59549366078675L146.0118423656077,-34.51273230391684L140.1690072941596,-74.79317319229379zM145.2384249471432,-36.64641618832835L145.61935666739421,-35.59549366078675L139.749398015308,-76.12835198208786z" style="fill:rgb(247,158,158)"/><path d="M154.6448063056818,-46.46490011914782L150.17875149184115,-59.20457952471097L-228.66687091224912,40.16217992196063z" style="fill:rgb(127,37,217)"/><path d="M144.87301115557116,-37.65450339350539L145.2384249471432,-36.64641618832835L139.3269143694685,-77.53048652600715zM144.52698235513458,-38.60911492712141L144.87301115557116,-37.65450339350539L138.90603784286404,-78.98471452052445zM144.20399793149392,-39.50016010041899L144.52698235513458,-38.60911492712141L138.49128801893457,-80.47555170367664zM143.90750507904224,-40.318145377683344L144.20399793149392,-39.50016010041899L138.08710303846942,-81.98708453202438z" style="fill:rgb(247,158,158)"/><path d="M-228.66687091224912,40.16217992196063L150.17875149184115,-59.20457952471097L149.67758355300518,-62.48138547098234z" style="fill:rgb(83,212,212)"/><path d="M143.640649663721,-41.054328179941066L143.90750507904224,-40.318145377683344L137.6978195390269,-83.50313926450406zM143.40631810863718,-41.700800338727234L143.640649663721,-41.054328179941066L137.32758206741468,-85.007500244536zM143.20702877822936,-42.25059784492367L143.40631810863718,-41.700800338727234L136.98035921006684,-86.48407574047202zM142.79729962355424,-43.38092751727389L142.83895705808027,-43.2660242939694L135.8905957010646,-91.80618999370125zM143.04492812697958,-42.69777554289568L143.20702877822936,-42.25059784492367L136.65984121724273,-87.91710912692031zM142.83895705808027,-43.2660242939694L142.92179607010937,-43.03748073759713L136.11210073195085,-90.59227534077405zM142.92179607010937,-43.03748073759713L143.04492812697958,-42.69777554289568L136.36939892433327,-89.29135116281486zM138.06970392451402,-42.17232874096392L146.12083801850326,-20.249333335992496L145.65041012811227,-23.535955881010043z" style="fill:rgb(247,158,158)"/><path d="M142.79208791224073,-43.39531839687063L146.12083801850326,-20.249333335992496L150.75648437253565,-21.423314920407673zM162.39058564143002,-24.36965829807413L142.79208791224073,-43.39531839687063L150.75648437253565,-21.423314920407673z" style="fill:rgb(127,37,217)"/><path d="M138.06970392451402,-42.17232874096392L145.65041012811227,-23.535955881010043L137.61604846123936,-45.45455600180321z" style="fill:rgb(247,158,158)"/><path d="M142.79208791224073,-43.39531839687063L138.06970392451402,-42.17232874096392L146.12083801850326,-20.249333335992496zM162.39058564143002,-24.36965829807413L154.6448063056818,-46.46490011914782L142.79208791224073,-43.39531839687063zM137.74050392873923,-59.340727069523474L137.61604846123936,-45.45455600180321L142.3223883826492,-46.67721468396171zM137.74050392873923,-59.340727069523474L132.98465398084133,-58.08946601039823L137.61604846123936,-45.45455600180321z" style="fill:rgb(127,37,217)"/></svg>
