<?xml version="1.0" encoding="UTF-8"?>
<!-- Generated by jsxcad -->
<!DOCTYPE svg PUBLIC "-//W3C//DTD SVG 1.1 Tiny//EN" "http://www.w3.org/Graphics/SVG/1.1/DTD/svg11-tiny.dtd">
<svg viewBox="-250 -250 500 500" width="500" height="500" xmlns="http://www.w3.org/2000/svg"><path d="M-62.132202703522104,107.79995105216976L59.645680861299326,-107.58945848822847L-62.13091756385354,-107.58945848822842zM59.645680861299326,-107.58945848822847L-62.132202703522104,107.79995105216976L59.64691459538128,107.79995105216972z" style="fill:rgb(127,127,254)"/><path d="M59.50489666679459,107.54352979093943L61.96247167303529,-111.7725530303339L59.50366880064288,-107.33304782187228z" style="fill:rgb(0,127,127)"/><path d="M-61.98298833400307,-107.33304782187224L-64.54430800336625,-101.01528388328525L-61.98426736124431,107.54352979093946zM-64.54430800336625,-101.01528388328525L-61.98298833400307,-107.33304782187224L-64.5442413260785,-111.77255303033384z" style="fill:rgb(255,127,127)"/><path d="M61.96247167303529,-111.7725530303339L59.50489666679459,107.54352979093943L61.96253568323154,-101.01528388328529zM61.96253568323154,-101.01528388328529L59.50489666679459,107.54352979093943L61.96255104569832,-98.43353598083142z" style="fill:rgb(0,127,127)"/><path d="M-61.98426736124431,107.54352979093946L-64.54430800336625,-101.01528388328525L-64.54432400593582,-98.43353598083138z" style="fill:rgb(255,127,127)"/><path d="M61.96255104569832,-98.43353598083142L59.50489666679459,107.54352979093943L61.96373909953631,101.2255127803524z" style="fill:rgb(0,127,127)"/><path d="M-61.98426736124431,107.54352979093946L-64.54432400593582,-98.43353598083138L-64.54556156201691,101.22551278035245z" style="fill:rgb(255,127,127)"/><path d="M61.96373909953631,101.2255127803524L59.50489666679459,107.54352979093943L61.96375446259984,103.80736096753614z" style="fill:rgb(0,127,127)"/><path d="M-61.98426736124431,107.54352979093946L-64.54556156201691,101.22551278035245L-64.54557756520809,103.80736096753618z" style="fill:rgb(255,127,127)"/><path d="M61.96375446259984,103.80736096753614L59.50489666679459,107.54352979093943L61.96380311235123,111.98322200650402z" style="fill:rgb(0,127,127)"/><path d="M-61.98426736124431,107.54352979093946L-64.54557756520809,103.80736096753618L-64.54562824203248,111.98322200650406z" style="fill:rgb(255,127,127)"/><path d="M-64.43911616188304,111.7986010666553L61.860224466655424,-111.58794001789163L-64.43773381943281,-111.58794001789158zM61.860224466655424,-111.58794001789163L-64.43911616188304,111.7986010666553L61.86155151540778,111.79860106665524zM61.96253568323154,-101.01528388328529L64.54432400593575,-98.43353598083142L64.5443080033662,-101.01528388328529zM-67.12609696617325,-98.43353598083138L-64.54430800336625,-101.01528388328525L-67.12608032350091,-101.01528388328525zM64.54432400593575,-98.43353598083142L61.96253568323154,-101.01528388328529L61.96255104569832,-98.43353598083142zM-64.54430800336625,-101.01528388328525L-67.12609696617325,-98.43353598083138L-64.54432400593582,-98.43353598083138zM61.96373909953631,101.2255127803524L64.54557756520816,103.80736096753614L64.545561562017,101.2255127803524zM-67.12740066781642,103.80736096753618L-64.54556156201691,101.22551278035245L-67.1273840244976,101.22551278035245zM64.54557756520816,103.80736096753614L61.96373909953631,101.2255127803524L61.96375446259984,103.80736096753614zM-64.54556156201691,101.22551278035245L-67.12740066781642,103.80736096753618L-64.54557756520809,103.80736096753618z" style="fill:rgb(127,127,254)"/><path d="M-64.5442413260785,-111.77255303033384L-66.18524864662764,-103.58609090391543L-64.54430800336625,-101.01528388328525z" style="fill:rgb(255,127,127)"/><path d="M-64.54430800336625,-101.01528388328525L-68.83265859249273,-103.58609090391543L-67.12608032350091,-101.01528388328525z" style="fill:rgb(127,0,127)"/><path d="M66.18526547322243,-100.93870663341494L64.5443080033662,-101.01528388328529L64.54432400593575,-98.43353598083142z" style="fill:rgb(0,127,127)"/><path d="M-64.54430800336625,-101.01528388328525L-66.1852654732225,-100.93870663341488L-64.54432400593582,-98.43353598083138z" style="fill:rgb(255,127,127)"/><path d="M67.12609696617318,-98.43353598083142L66.18526547322243,-100.93870663341494L64.54432400593575,-98.43353598083142zM-64.54432400593582,-98.43353598083138L-68.83267609215139,-100.93870663341488L-67.12609696617325,-98.43353598083138z" style="fill:rgb(127,0,127)"/><path d="M-64.54432400593582,-98.43353598083138L-66.18656675580637,103.79642093014378L-64.54556156201691,101.22551278035245z" style="fill:rgb(255,127,127)"/><path d="M64.545561562017,101.2255127803524L68.8340294260387,103.79642093014373L67.12738402449767,101.2255127803524zM-67.1273840244976,101.22551278035245L-66.18656675580637,103.79642093014378L-64.54556156201691,101.22551278035245z" style="fill:rgb(127,254,127)"/><path d="M66.18658358307152,106.44391064941934L64.545561562017,101.2255127803524L64.54557756520816,103.80736096753614z" style="fill:rgb(0,127,127)"/><path d="M-64.54556156201691,101.22551278035245L-66.18658358307144,106.4439106494194L-64.54557756520809,103.80736096753618z" style="fill:rgb(255,127,127)"/><path d="M-67.12740066781642,103.80736096753618L-66.18658358307144,106.4439106494194L-64.54557756520809,103.80736096753618z" style="fill:rgb(127,254,127)"/><path d="M-64.54557756520809,103.80736096753618L-66.18663686946732,114.82763697494659L-64.54562824203248,111.98322200650406zM-66.18524864662764,-103.58609090391543L-64.5442413260785,-111.77255303033384L-66.18517853590784,-114.61684420825948z" style="fill:rgb(255,127,127)"/><path d="M-68.83265859249273,-103.58609090391543L-64.54430800336625,-101.01528388328525L-66.18524864662764,-103.58609090391543z" style="fill:rgb(127,0,127)"/><path d="M64.5443080033662,-101.01528388328529L66.18526547322243,-100.93870663341494L66.18524864662757,-103.58609090391548z" style="fill:rgb(0,127,127)"/><path d="M-66.1852654732225,-100.93870663341488L-64.54430800336625,-101.01528388328525L-66.18524864662764,-103.58609090391543z" style="fill:rgb(255,127,127)"/><path d="M66.18526547322243,-100.93870663341494L67.12609696617318,-98.43353598083142L68.83267609215132,-100.93870663341494zM-68.83267609215139,-100.93870663341488L-64.54432400593582,-98.43353598083138L-66.1852654732225,-100.93870663341488z" style="fill:rgb(127,0,127)"/><path d="M-66.18656675580637,103.79642093014378L-64.54432400593582,-98.43353598083138L-66.1852654732225,-100.93870663341488z" style="fill:rgb(255,127,127)"/><path d="M68.8340294260387,103.79642093014373L64.545561562017,101.2255127803524L66.18656675580645,103.79642093014373zM-66.18656675580637,103.79642093014378L-67.1273840244976,101.22551278035245L-68.83402942603863,103.79642093014378z" style="fill:rgb(127,254,127)"/><path d="M64.545561562017,101.2255127803524L66.18658358307152,106.44391064941934L66.18656675580645,103.79642093014373z" style="fill:rgb(0,127,127)"/><path d="M-66.18658358307144,106.4439106494194L-64.54556156201691,101.22551278035245L-66.18656675580637,103.79642093014378z" style="fill:rgb(255,127,127)"/><path d="M-66.18658358307144,106.4439106494194L-67.12740066781642,103.80736096753618L-68.83404692639431,106.4439106494194z" style="fill:rgb(127,254,127)"/><path d="M-66.18663686946732,114.82763697494659L-64.54557756520809,103.80736096753618L-66.18658358307144,106.4439106494194z" style="fill:rgb(255,127,127)"/><path d="M66.18526547322243,-100.93870663341494L68.83265859249268,-103.58609090391548L66.18524864662757,-103.58609090391548zM-68.83267609215139,-100.93870663341488L-66.18524864662764,-103.58609090391543L-68.83265859249273,-103.58609090391543zM68.83265859249268,-103.58609090391548L66.18526547322243,-100.93870663341494L68.83267609215132,-100.93870663341494zM-66.18524864662764,-103.58609090391543L-68.83267609215139,-100.93870663341488L-66.1852654732225,-100.93870663341488zM66.18658358307152,106.44391064941934L68.8340294260387,103.79642093014373L66.18656675580645,103.79642093014373zM-68.83404692639431,106.4439106494194L-66.18656675580637,103.79642093014378L-68.83402942603863,103.79642093014378zM68.8340294260387,103.79642093014373L66.18658358307152,106.44391064941934L68.83404692639438,106.44391064941934zM-66.18656675580637,103.79642093014378L-68.83404692639431,106.4439106494194L-66.18658358307144,106.4439106494194z" style="fill:rgb(127,127,254)"/><path d="M64.54432400593575,-98.43353598083142L-70.20122317353413,-107.06973541987911L-64.54432400593582,-98.43353598083138z" style="fill:rgb(127,0,127)"/><path d="M-70.2026871660737,110.08834293768888L64.545561562017,101.2255127803524L-64.54556156201691,101.22551278035245z" style="fill:rgb(127,254,127)"/><path d="M61.96253568323154,-101.01528388328529L69.42082756087608,-125.23902900626769L61.96247167303529,-111.7725530303339z" style="fill:rgb(0,127,127)"/><path d="M64.5443080033662,-101.01528388328529L69.42090790818196,-113.18693306125014L61.96253568323154,-101.01528388328529z" style="fill:rgb(127,0,127)"/><path d="M69.42241847214962,113.39766320624177L61.96255104569832,-98.43353598083142L61.96373909953631,101.2255127803524z" style="fill:rgb(0,127,127)"/><path d="M61.96375446259984,103.80736096753614L72.31503932955198,116.2902962646632L64.54557756520816,103.80736096753614z" style="fill:rgb(127,254,127)"/><path d="M69.42249882313818,125.45031155164924L61.96375446259984,103.80736096753614L61.96380311235123,111.98322200650402z" style="fill:rgb(0,127,127)"/><path d="M-72.31336204257931,-125.23902900626763L-66.18524864662764,-103.58609090391543L-66.18517853590784,-114.61684420825948zM-66.18524864662764,-103.58609090391543L-72.31510294076885,125.45031155164929L-66.1852654732225,-100.93870663341488zM-66.1852654732225,-100.93870663341488L-72.31510294076885,125.45031155164929L-66.18656675580637,103.79642093014378zM-66.18656675580637,103.79642093014378L-72.31510294076885,125.45031155164929L-66.18658358307144,106.4439106494194zM-66.18658358307144,106.4439106494194L-72.31510294076885,125.45031155164929L-66.18663686946732,114.82763697494659z" style="fill:rgb(255,127,127)"/><path d="M23.165830562940076,-107.06973541987915L64.54432400593575,-98.43353598083142L70.20122317353405,-107.06973541987915zM-23.634984886082645,-107.06973541987912L64.54432400593575,-98.43353598083142L23.165830562940076,-107.06973541987915zM-70.20122317353413,-107.06973541987911L64.54432400593575,-98.43353598083142L-23.634984886082645,-107.06973541987912z" style="fill:rgb(127,0,127)"/><path d="M64.545561562017,101.2255127803524L-70.2026871660737,110.08834293768888L70.20268716607377,110.08834293768882z" style="fill:rgb(127,254,127)"/><path d="M69.42082756087608,-125.23902900626769L61.96253568323154,-101.01528388328529L69.42090790818196,-113.18693306125014z" style="fill:rgb(0,127,127)"/><path d="M69.42090790818196,-113.18693306125014L64.5443080033662,-101.01528388328529L72.31344573768955,-113.18693306125014z" style="fill:rgb(127,0,127)"/><path d="M61.96255104569832,-98.43353598083142L69.42241847214962,113.39766320624177L69.42092719156307,-110.29442588321247z" style="fill:rgb(0,127,127)"/><path d="M72.31503932955198,116.2902962646632L61.96375446259984,103.80736096753614L69.4224377563699,116.2902962646632z" style="fill:rgb(127,254,127)"/><path d="M61.96375446259984,103.80736096753614L69.42249882313818,125.45031155164924L69.4224377563699,116.2902962646632z" style="fill:rgb(0,127,127)"/><path d="M-23.634984886082645,-107.06973541987912L23.165824316017034,-109.87775470301757L-23.634978512646942,-109.87775470301754zM23.165824316017034,-109.87775470301757L-23.634984886082645,-107.06973541987912L23.165830562940076,-107.06973541987915z" style="fill:rgb(127,127,254)"/><path d="M23.165830562940076,-107.06973541987915L24.10381039983902,-109.88106590643845L23.165824316017034,-109.87775470301757z" style="fill:rgb(123,127,254)"/><path d="M70.20122317353405,-107.06973541987915L24.103816899896167,-107.07296208367636L23.165830562940076,-107.06973541987915z" style="fill:rgb(127,0,127)"/><path d="M24.10381039983902,-109.88106590643845L23.165830562940076,-107.06973541987915L24.103816899896167,-107.07296208367636z" style="fill:rgb(123,127,254)"/><path d="M24.103816899896167,-107.07296208367636L70.20122317353405,-107.06973541987915L70.20333670876184,-107.07296208367637z" style="fill:rgb(127,0,127)"/><path d="M-23.635484149227135,112.89648085472209L23.166313668526996,110.08834293768884L-23.635477775522162,110.08834293768886zM23.166313668526996,110.08834293768884L-23.635484149227135,112.89648085472209L23.166319915713967,112.89648085472207z" style="fill:rgb(127,127,254)"/><path d="M-23.634978512646942,-109.87775470301754L-24.570275877889646,-107.07939835144502L-23.634984886082645,-107.06973541987912z" style="fill:rgb(140,127,254)"/><path d="M-23.634984886082645,-107.06973541987912L-70.20755260465918,-107.07939835144502L-70.20122317353413,-107.06973541987911z" style="fill:rgb(127,0,127)"/><path d="M24.10431958160104,110.09165428100437L70.20268716607377,110.08834293768882L23.166313668526996,110.08834293768884z" style="fill:rgb(127,254,127)"/><path d="M23.166319915713967,112.89648085472207L24.10431958160104,110.09165428100437L23.166313668526996,110.08834293768884z" style="fill:rgb(123,127,254)"/><path d="M70.20268716607377,110.08834293768882L24.10431958160104,110.09165428100437L70.2048007894561,110.09165428100435z" style="fill:rgb(127,254,127)"/><path d="M24.10431958160104,110.09165428100437L23.166319915713967,112.89648085472207L24.10432608193282,112.89987674480484z" style="fill:rgb(123,127,254)"/><path d="M-70.20901686120425,110.09825946010965L-23.635477775522162,110.08834293768886L-70.2026871660737,110.08834293768888z" style="fill:rgb(127,254,127)"/><path d="M-23.635477775522162,110.08834293768886L-24.570794944827465,112.90665057043448L-23.635484149227135,112.89648085472209zM-24.570275877889646,-107.07939835144502L-23.634978512646942,-109.87775470301754L-24.570269251644973,-109.88767080648147z" style="fill:rgb(140,127,254)"/><path d="M-70.20755260465918,-107.07939835144502L-23.634984886082645,-107.06973541987912L-24.570275877889646,-107.07939835144502z" style="fill:rgb(127,0,127)"/><path d="M24.103816899896167,-107.07296208367636L25.03231010641863,-109.89754342763288L24.10381039983902,-109.88106590643845z" style="fill:rgb(106,127,253)"/><path d="M70.20333670876184,-107.07296208367637L25.032316857874946,-107.08901891086269L24.103816899896167,-107.07296208367636z" style="fill:rgb(127,0,127)"/><path d="M-23.635477775522162,110.08834293768886L-70.20901686120425,110.09825946010965L-24.570788318302824,110.09825946010963z" style="fill:rgb(127,254,127)"/><path d="M-24.570794944827465,112.90665057043448L-23.635477775522162,110.08834293768886L-24.570788318302824,110.09825946010963z" style="fill:rgb(140,127,254)"/><path d="M24.10431958160104,110.09165428100437L70.21531880051873,110.1081324984182L70.2048007894561,110.09165428100435z" style="fill:rgb(127,254,127)"/><path d="M24.10432608193282,112.89987674480484L25.032838981527913,110.10813249841821L24.10431958160104,110.09165428100437zM25.03231010641863,-109.89754342763288L24.103816899896167,-107.07296208367636L25.032316857874946,-107.08901891086269z" style="fill:rgb(106,127,253)"/><path d="M25.032316857874946,-107.08901891086269L70.20333670876184,-107.07296208367637L70.21385428110203,-107.0890189108627z" style="fill:rgb(127,0,127)"/><path d="M70.21531880051873,110.1081324984182L24.10431958160104,110.09165428100437L25.032838981527913,110.10813249841821z" style="fill:rgb(127,254,127)"/><path d="M25.032838981527913,110.10813249841821L24.10432608193282,112.89987674480484L25.03284573326952,112.91677569177844z" style="fill:rgb(106,127,253)"/><path d="M-24.570269251644973,-109.88767080648147L-25.487917397126903,-107.10178135150991L-24.570275877889646,-107.07939835144502z" style="fill:rgb(157,127,251)"/><path d="M-24.570275877889646,-107.07939835144502L-70.22221395834016,-107.1017813515099L-70.20755260465918,-107.07939835144502z" style="fill:rgb(127,0,127)"/><path d="M-70.22367882651314,110.12122987254175L-24.570788318302824,110.09825946010963L-70.20901686120425,110.09825946010965z" style="fill:rgb(127,254,127)"/><path d="M-24.570788318302824,110.09825946010963L-25.488455962430344,112.93020747418934L-24.570794944827465,112.90665057043448zM-25.487917397126903,-107.10178135150991L-24.570269251644973,-109.88767080648147L-25.487910521972292,-109.9106402483062z" style="fill:rgb(157,127,251)"/><path d="M-70.22221395834016,-107.1017813515099L-24.570275877889646,-107.07939835144502L-25.487917397126903,-107.10178135150991z" style="fill:rgb(127,0,127)"/><path d="M-24.570788318302824,110.09825946010963L-70.22367882651314,110.12122987254175L-25.48844908698518,110.12122987254173z" style="fill:rgb(127,254,127)"/><path d="M-25.488455962430344,112.93020747418934L-24.570788318302824,110.09825946010963L-25.48844908698518,110.12122987254173z" style="fill:rgb(157,127,251)"/><path d="M25.032316857874946,-107.08901891086269L25.935072842203187,-109.92690619800398L25.03231010641863,-109.89754342763288z" style="fill:rgb(89,127,249)"/><path d="M70.21385428110203,-107.0890189108627L25.935079839010513,-107.11763200891616L25.032316857874946,-107.08901891086269z" style="fill:rgb(127,0,127)"/><path d="M25.935620936878752,110.13749650970357L70.21531880051873,110.1081324984182L25.032838981527913,110.10813249841821z" style="fill:rgb(127,254,127)"/><path d="M25.03284573326952,112.91677569177844L25.935620936878752,110.13749650970357L25.032838981527913,110.10813249841821zM25.935072842203187,-109.92690619800398L25.032316857874946,-107.08901891086269L25.935079839010513,-107.11763200891616z" style="fill:rgb(89,127,249)"/><path d="M25.935079839010513,-107.11763200891616L70.21385428110203,-107.0890189108627L70.23259648497348,-107.11763200891617z" style="fill:rgb(127,0,127)"/><path d="M70.21531880051873,110.1081324984182L25.935620936878752,110.13749650970357L70.23406178635183,110.13749650970355z" style="fill:rgb(127,254,127)"/><path d="M25.935620936878752,110.13749650970357L25.03284573326952,112.91677569177844L25.935627933981817,112.94688943874729z" style="fill:rgb(89,127,249)"/><path d="M-25.487910521972292,-109.9106402483062L-26.371840531996604,-107.13650297549202L-25.487917397126903,-107.10178135150991z" style="fill:rgb(173,127,246)"/><path d="M-25.487917397126903,-107.10178135150991L-70.24495738004879,-107.13650297549201L-70.22221395834016,-107.1017813515099z" style="fill:rgb(127,0,127)"/><path d="M-70.24642319726212,110.15686272022667L-25.48844908698518,110.12122987254173L-70.22367882651314,110.12122987254175z" style="fill:rgb(127,254,127)"/><path d="M-25.48844908698518,110.12122987254173L-26.372397955272827,112.96675011642651L-25.488455962430344,112.93020747418934zM-26.371840531996604,-107.13650297549202L-25.487910521972292,-109.9106402483062L-26.37183341610711,-109.94627158993555z" style="fill:rgb(173,127,246)"/><path d="M-70.24495738004879,-107.13650297549201L-25.487917397126903,-107.10178135150991L-26.371840531996604,-107.13650297549202z" style="fill:rgb(127,0,127)"/><path d="M-25.48844908698518,110.12122987254173L-70.24642319726212,110.15686272022667L-26.372390839082517,110.15686272022666z" style="fill:rgb(127,254,127)"/><path d="M-26.372397955272827,112.96675011642651L-25.48844908698518,110.12122987254173L-26.372390839082517,110.15686272022666z" style="fill:rgb(173,127,246)"/><path d="M25.935079839010513,-107.11763200891616L26.79627075446269,-109.96865205865788L25.935072842203187,-109.92690619800398z" style="fill:rgb(73,127,243)"/><path d="M70.23259648497348,-107.11763200891617L26.796277986348173,-107.15831203976228L25.935079839010513,-107.11763200891616z" style="fill:rgb(127,0,127)"/><path d="M26.796837263982493,110.17924413516965L70.23406178635183,110.13749650970355L25.935620936878752,110.13749650970357z" style="fill:rgb(127,254,127)"/><path d="M25.935627933981817,112.94688943874729L26.796837263982493,110.17924413516965L25.935620936878752,110.13749650970357zM26.79627075446269,-109.96865205865788L25.935079839010513,-107.11763200891616L26.796277986348173,-107.15831203976228z" style="fill:rgb(73,127,243)"/><path d="M26.796277986348173,-107.15831203976228L70.23259648497348,-107.11763200891617L70.25924279325474,-107.1583120397623z" style="fill:rgb(127,0,127)"/><path d="M70.23406178635183,110.13749650970355L26.796837263982493,110.17924413516965L70.26070920672886,110.17924413516964z" style="fill:rgb(127,254,127)"/><path d="M26.796837263982493,110.17924413516965L25.935627933981817,112.94688943874729L26.796844496173765,112.98970298413929z" style="fill:rgb(73,127,243)"/><path d="M-26.37183341610711,-109.94627158993555L-27.20652542758173,-107.18296556054432L-26.371840531996604,-107.13650297549202z" style="fill:rgb(188,127,239)"/><path d="M-26.371840531996604,-107.13650297549202L-70.27539138757281,-107.1829655605443L-70.24495738004879,-107.13650297549201z" style="fill:rgb(127,0,127)"/><path d="M-70.24642319726212,110.15686272022667L-27.207093398198673,110.20454465593399L-26.372390839082517,110.15686272022666z" style="fill:rgb(127,254,127)"/><path d="M-26.372390839082517,110.15686272022666L-27.207100742801607,113.01564948965351L-26.372397955272827,112.96675011642651zM-27.20652542758173,-107.18296556054432L-26.37183341610711,-109.94627158993555L-27.2065180832894,-109.99395150955846z" style="fill:rgb(188,127,239)"/><path d="M-70.27539138757281,-107.1829655605443L-26.371840531996604,-107.13650297549202L-27.20652542758173,-107.18296556054432z" style="fill:rgb(127,0,127)"/><path d="M-27.207093398198673,110.20454465593399L-70.24642319726212,110.15686272022667L-70.276858475221,110.204544655934z" style="fill:rgb(127,254,127)"/><path d="M-27.207100742801607,113.01564948965351L-26.372390839082517,110.15686272022666L-27.207093398198673,110.20454465593399z" style="fill:rgb(188,127,239)"/><path d="M26.796277986348173,-107.15831203976228L27.600762406239586,-110.02206052956376L26.79627075446269,-109.96865205865788z" style="fill:rgb(58,127,234)"/><path d="M70.25924279325474,-107.1583120397623L27.60076985885885,-107.21035691823337L26.796277986348173,-107.15831203976228z" style="fill:rgb(127,0,127)"/><path d="M-66.18524864662764,-103.58609090391543L-72.31336204257931,-125.23902900626763L-72.31510294076885,125.45031155164929z" style="fill:rgb(255,127,127)"/><path d="M27.601346206939244,110.23265486490239L70.26070920672886,110.17924413516964L26.796837263982493,110.17924413516965z" style="fill:rgb(127,254,127)"/><path d="M26.796844496173765,112.98970298413929L27.601346206939244,110.23265486490239L26.796837263982493,110.17924413516965zM27.600762406239586,-110.02206052956376L26.796277986348173,-107.15831203976228L27.60076985885885,-107.21035691823337z" style="fill:rgb(58,127,234)"/><path d="M27.60076985885885,-107.21035691823337L70.25924279325474,-107.1583120397623L70.29333332483391,-107.21035691823339z" style="fill:rgb(127,0,127)"/><path d="M70.26070920672886,110.17924413516964L27.601346206939244,110.23265486490239L70.29480116170696,110.23265486490237z" style="fill:rgb(127,254,127)"/><path d="M27.601346206939244,110.23265486490239L26.796844496173765,112.98970298413929L27.60135365987378,113.04447742165121z" style="fill:rgb(58,127,234)"/><path d="M-27.2065180832894,-109.99395150955846L-27.977266629386072,-107.24036937766081L-27.20652542758173,-107.18296556054432z" style="fill:rgb(203,127,230)"/><path d="M-27.20652542758173,-107.18296556054432L-70.31299214095456,-107.2403693776608L-70.27539138757281,-107.1829655605443z" style="fill:rgb(127,0,127)"/><path d="M-70.3144607989657,110.26345496342856L-27.207093398198673,110.20454465593399L-70.276858475221,110.204544655934z" style="fill:rgb(127,254,127)"/><path d="M-27.207093398198673,110.20454465593399L-27.977858559419012,113.07606392273203L-27.207100742801607,113.01564948965351zM-27.977266629386072,-107.24036937766081L-27.2065180832894,-109.99395150955846L-27.97725907299437,-110.05285932500536z" style="fill:rgb(203,127,230)"/><path d="M-70.31299214095456,-107.2403693776608L-27.20652542758173,-107.18296556054432L-27.977266629386072,-107.24036937766081z" style="fill:rgb(127,0,127)"/><path d="M-27.207093398198673,110.20454465593399L-70.3144607989657,110.26345496342856L-27.97785100270757,110.26345496342854z" style="fill:rgb(127,254,127)"/><path d="M-27.977858559419012,113.07606392273203L-27.207093398198673,110.20454465593399L-27.97785100270757,110.26345496342854z" style="fill:rgb(203,127,230)"/><path d="M27.60076985885885,-107.21035691823337L28.334339209237093,-110.08621309159739L27.600762406239586,-110.02206052956376z" style="fill:rgb(45,127,224)"/><path d="M70.29333332483391,-107.21035691823339L28.3343468643899,-107.27287157628255L27.60076985885885,-107.21035691823337z" style="fill:rgb(127,0,127)"/><path d="M28.33493887540247,110.29681014161577L70.29480116170696,110.23265486490237L27.601346206939244,110.23265486490239z" style="fill:rgb(127,254,127)"/><path d="M27.60135365987378,113.04447742165121L28.33493887540247,110.29681014161577L27.601346206939244,110.23265486490239zM28.334339209237093,-110.08621309159739L27.60076985885885,-107.21035691823337L28.3343468643899,-107.27287157628255z" style="fill:rgb(45,127,224)"/><path d="M28.3343468643899,-107.27287157628255L70.29333332483391,-107.21035691823339L70.33428179060024,-107.27287157628257z" style="fill:rgb(127,0,127)"/><path d="M70.29480116170696,110.23265486490237L28.33493887540247,110.29681014161577L70.33575133812778,110.29681014161575z" style="fill:rgb(127,254,127)"/><path d="M28.33493887540247,110.29681014161577L27.60135365987378,113.04447742165121L28.334946530879314,113.11027074097109z" style="fill:rgb(45,127,224)"/><path d="M-27.97725907299437,-110.05285932500536L-28.670420518708337,-107.30772332584519L-27.977266629386072,-107.24036937766081z" style="fill:rgb(216,127,219)"/><path d="M-27.977266629386072,-107.24036937766081L-70.35711044740495,-107.30772332584517L-70.31299214095456,-107.2403693776608z" style="fill:rgb(127,0,127)"/><path d="M-70.3144607989657,110.26345496342856L-28.67101974599704,110.33257653223959L-27.97785100270757,110.26345496342854z" style="fill:rgb(127,254,127)"/><path d="M-27.97785100270757,110.26345496342854L-28.671027494789822,113.14695033585961L-27.977858559419012,113.07606392273203zM-28.670420518708337,-107.30772332584519L-27.97725907299437,-110.05285932500536L-28.670412770243644,-110.12197796810828z" style="fill:rgb(216,127,219)"/><path d="M-70.35711044740495,-107.30772332584517L-27.977266629386072,-107.24036937766081L-28.670420518708337,-107.30772332584519z" style="fill:rgb(127,0,127)"/><path d="M-28.67101974599704,110.33257653223959L-70.3144607989657,110.26345496342856L-70.35858094905001,110.3325765322396z" style="fill:rgb(127,254,127)"/><path d="M-28.671027494789822,113.14695033585961L-27.97785100270757,110.26345496342854L-28.67101974599704,110.33257653223959z" style="fill:rgb(216,127,219)"/><path d="M28.3343468643899,-107.27287157628255L28.983978770543906,-110.15999942712713L28.334339209237093,-110.08621309159739z" style="fill:rgb(32,127,213)"/><path d="M70.33428179060024,-107.27287157628257L28.983986606454927,-107.34477404423835L28.3343468643899,-107.27287157628255z" style="fill:rgb(127,0,127)"/><path d="M28.98459259640741,110.37059960144298L70.33575133812778,110.29681014161575L28.33493887540247,110.29681014161577z" style="fill:rgb(127,254,127)"/><path d="M28.334946530879314,113.11027074097109L28.98459259640741,110.37059960144298L28.33493887540247,110.29681014161577zM28.983978770543906,-110.15999942712713L28.3343468643899,-107.27287157628255L28.983986606454927,-107.34477404423835z" style="fill:rgb(32,127,213)"/><path d="M28.983986606454927,-107.34477404423835L70.33428179060024,-107.27287157628257L70.38137947679868,-107.34477404423836z" style="fill:rgb(127,0,127)"/><path d="M70.33575133812778,110.29681014161575L28.98459259640741,110.37059960144298L70.38285099310114,110.37059960144296z" style="fill:rgb(127,254,127)"/><path d="M28.98459259640741,110.37059960144298L28.334946530879314,113.11027074097109L28.98460043265034,113.18594422791097z" style="fill:rgb(32,127,213)"/><path d="M-28.670412770243644,-110.12197796810828L-29.27363815214699,-107.3838611789431L-28.670420518708337,-107.30772332584519z" style="fill:rgb(227,127,206)"/><path d="M-28.670420518708337,-107.30772332584519L-70.40698240333326,-107.38386117894309L-70.35711044740495,-107.30772332584517z" style="fill:rgb(127,0,127)"/><path d="M-70.35858094905001,110.3325765322396L-29.274250420712633,110.41071253080902L-28.67101974599704,110.33257653223959z" style="fill:rgb(127,254,127)"/><path d="M-28.67101974599704,110.33257653223959L-29.2742583381463,113.22708133942328L-28.671027494789822,113.14695033585961zM-29.27363815214699,-107.3838611789431L-28.670412770243644,-110.12197796810828L-29.273630235048792,-110.20011065720608z" style="fill:rgb(227,127,206)"/><path d="M-70.40698240333326,-107.38386117894309L-28.670420518708337,-107.30772332584519L-29.27363815214699,-107.3838611789431z" style="fill:rgb(127,0,127)"/><path d="M-29.274250420712633,110.41071253080902L-70.35858094905001,110.3325765322396L-70.40845499044072,110.41071253080904z" style="fill:rgb(127,254,127)"/><path d="M-29.2742583381463,113.22708133942328L-28.67101974599704,110.33257653223959L-29.274250420712633,110.41071253080902z" style="fill:rgb(227,127,206)"/><path d="M28.983986606454927,-107.34477404423835L29.538064450978464,-110.24213701007069L28.983978770543906,-110.15999942712713z" style="fill:rgb(22,127,199)"/><path d="M70.38137947679868,-107.34477404423836L29.538072442637002,-107.42481454069912L28.983986606454927,-107.34477404423835z" style="fill:rgb(127,0,127)"/><path d="M29.538690477329112,110.45274066475665L70.38285099310114,110.37059960144296L28.98459259640741,110.37059960144298z" style="fill:rgb(127,254,127)"/><path d="M28.98460043265034,113.18594422791097L29.538690477329112,110.45274066475665L28.98459259640741,110.37059960144298zM29.538064450978464,-110.24213701007069L28.983986606454927,-107.34477404423835L29.538072442637002,-107.42481454069912z" style="fill:rgb(22,127,199)"/><path d="M29.538072442637002,-107.42481454069912L70.38137947679868,-107.34477404423836L70.43380774932744,-107.42481454069913z" style="fill:rgb(127,0,127)"/><path d="M70.38285099310114,110.37059960144296L29.538690477329112,110.45274066475665L70.43528145878388,110.45274066475663z" style="fill:rgb(127,254,127)"/><path d="M29.538690477329112,110.45274066475665L28.98460043265034,113.18594422791097L29.5386984693264,113.2701825554285z" style="fill:rgb(22,127,199)"/><path d="M-29.273630235048792,-110.20011065720608L-29.776089900536974,-107.46745769498378L-29.27363815214699,-107.3838611789431z" style="fill:rgb(237,127,192)"/><path d="M-29.27363815214699,-107.3838611789431L-70.46173994631758,-107.46745769498376L-70.40698240333326,-107.38386117894309z" style="fill:rgb(127,0,127)"/><path d="M-70.46321482488672,110.49650293853676L-29.274250420712633,110.41071253080902L-70.40845499044072,110.41071253080904z" style="fill:rgb(127,254,127)"/><path d="M-29.274250420712633,110.41071253080902L-29.776721222013848,113.3150621881484L-29.2742583381463,113.22708133942328zM-29.776089900536974,-107.46745769498378L-29.273630235048792,-110.20011065720608L-29.776081841286913,-110.28589742855667z" style="fill:rgb(237,127,192)"/><path d="M-70.46173994631758,-107.46745769498376L-29.27363815214699,-107.3838611789431L-29.776089900536974,-107.46745769498378z" style="fill:rgb(127,0,127)"/><path d="M-29.274250420712633,110.41071253080902L-70.46321482488672,110.49650293853676L-29.776713162422045,110.49650293853675z" style="fill:rgb(127,254,127)"/><path d="M-29.776721222013848,113.3150621881484L-29.274250420712633,110.41071253080902L-29.776713162422045,110.49650293853675z" style="fill:rgb(237,127,192)"/><path d="M29.538072442637002,-107.42481454069912L29.986598603038612,-110.33119675811407L29.538064450978464,-110.24213701007069z" style="fill:rgb(13,127,185)"/><path d="M70.43380774932744,-107.42481454069913L29.986606722598083,-107.51160046981461L29.538072442637002,-107.42481454069912z" style="fill:rgb(127,0,127)"/><path d="M29.98723464851565,110.54180418940767L70.43528145878388,110.45274066475663L29.538690477329112,110.45274066475665z" style="fill:rgb(127,254,127)"/><path d="M29.5386984693264,113.2701825554285L29.98723464851565,110.54180418940767L29.538690477329112,110.45274066475665zM29.986598603038612,-110.33119675811407L29.538072442637002,-107.42481454069912L29.986606722598083,-107.51160046981461z" style="fill:rgb(13,127,185)"/><path d="M29.986606722598083,-107.51160046981461L70.43380774932744,-107.42481454069913L70.49065442750315,-107.51160046981462z" style="fill:rgb(127,0,127)"/><path d="M70.43528145878388,110.45274066475663L29.98723464851565,110.54180418940767L70.49213051678751,110.54180418940766z" style="fill:rgb(127,254,127)"/><path d="M29.98723464851565,110.54180418940767L29.5386984693264,113.2701825554285L29.987242768419566,113.3615200918556z" style="fill:rgb(13,127,185)"/><path d="M-29.776081841286913,-110.28589742855667L-30.16865502910616,-107.5570507127559L-29.776089900536974,-107.46745769498378z" style="fill:rgb(244,127,177)"/><path d="M-29.776089900536974,-107.46745769498378L-70.5204253288443,-107.55705071275588L-70.46173994631758,-107.46745769498376z" style="fill:rgb(127,0,127)"/><path d="M-70.52190266522287,110.58844722218976L-29.776713162422045,110.49650293853675L-70.46321482488672,110.49650293853676z" style="fill:rgb(127,254,127)"/><path d="M-29.776713162422045,110.49650293853675L-30.1692952066166,113.40935403649134L-29.776721222013848,113.3150621881484zM-30.16865502910616,-107.5570507127559L-29.776081841286913,-110.28589742855667L-30.168646856802926,-110.37783781185135z" style="fill:rgb(244,127,177)"/><path d="M-70.5204253288443,-107.55705071275588L-29.776089900536974,-107.46745769498378L-30.16865502910616,-107.5570507127559z" style="fill:rgb(127,0,127)"/><path d="M-29.776713162422045,110.49650293853675L-70.52190266522287,110.58844722218976L-30.16928703396654,110.58844722218974z" style="fill:rgb(127,254,127)"/><path d="M-30.1692952066166,113.40935403649134L-29.776713162422045,110.49650293853675L-30.16928703396654,110.58844722218974z" style="fill:rgb(244,127,177)"/><path d="M29.986606722598083,-107.51160046981461L30.32138656081239,-110.42561674135365L29.986598603038612,-110.33119675811407z" style="fill:rgb(7,127,169)"/><path d="M70.49065442750315,-107.51160046981462L30.321394778042936,-107.60360977992637L29.986606722598083,-107.51160046981461z" style="fill:rgb(127,0,127)"/><path d="M30.322030257362943,110.63622817988492L70.49213051678751,110.54180418940766L29.98723464851565,110.54180418940767z" style="fill:rgb(127,254,127)"/><path d="M29.987242768419566,113.3615200918556L30.322030257362943,110.63622817988492L29.98723464851565,110.54180418940767zM30.32138656081239,-110.42561674135365L29.986606722598083,-107.51160046981461L30.321394778042936,-107.60360977992637z" style="fill:rgb(7,127,169)"/><path d="M30.321394778042936,-107.60360977992637L70.49065442750315,-107.51160046981462L70.5509225342619,-107.60360977992639z" style="fill:rgb(127,0,127)"/><path d="M70.49213051678751,110.54180418940766L30.322030257362943,110.63622817988492L70.5524011487057,110.63622817988491z" style="fill:rgb(127,254,127)"/><path d="M30.322030257362943,110.63622817988492L29.987242768419566,113.3615200918556L30.32203847494239,113.45835496008569z" style="fill:rgb(7,127,169)"/><path d="M-30.168646856802926,-110.37783781185135L-30.444102824877962,-107.65106949368403L-30.16865502910616,-107.5570507127559z" style="fill:rgb(250,127,161)"/><path d="M-30.16865502910616,-107.5570507127559L-70.58200968285612,-107.65106949368402L-70.5204253288443,-107.55705071275588z" style="fill:rgb(127,0,127)"/><path d="M-70.58348960065666,110.68493342151845L-30.16928703396654,110.58844722218974L-70.52190266522287,110.58844722218976z" style="fill:rgb(127,254,127)"/><path d="M-30.16928703396654,110.58844722218974L-30.444749411551367,113.50830376688268L-30.1692952066166,113.40935403649134zM-30.444102824877962,-107.65106949368403L-30.168646856802926,-110.37783781185135L-30.444094570757546,-110.47431991465791z" style="fill:rgb(250,127,161)"/><path d="M-70.58200968285612,-107.65106949368402L-30.16865502910616,-107.5570507127559L-30.444102824877962,-107.65106949368403z" style="fill:rgb(127,0,127)"/><path d="M-30.16928703396654,110.58844722218974L-70.58348960065666,110.68493342151845L-30.444741157080337,110.68493342151845z" style="fill:rgb(127,254,127)"/><path d="M-30.444749411551367,113.50830376688268L-30.16928703396654,110.58844722218974L-30.444741157080337,110.68493342151845z" style="fill:rgb(250,127,161)"/><path d="M30.321394778042936,-107.60360977992637L30.53619343524038,-110.52373451986443L30.32138656081239,-110.42561674135365z" style="fill:rgb(2,127,152)"/><path d="M70.5509225342619,-107.60360977992639L30.53620171803071,-107.6992224755126L30.321394778042936,-107.60360977992637z" style="fill:rgb(127,0,127)"/><path d="M30.53684226742601,110.73435012619852L70.5524011487057,110.63622817988491L30.322030257362943,110.63622817988492z" style="fill:rgb(127,254,127)"/><path d="M30.32203847494239,113.45835496008569L30.53684226742601,110.73435012619852L30.322030257362943,110.63622817988492zM30.53619343524038,-110.52373451986443L30.321394778042936,-107.60360977992637L30.53620171803071,-107.6992224755126z" style="fill:rgb(2,127,152)"/><path d="M30.53620171803071,-107.6992224755126L70.5509225342619,-107.60360977992639L70.61355093717117,-107.69922247551261z" style="fill:rgb(127,0,127)"/><path d="M70.5524011487057,110.63622817988491L30.53684226742601,110.73435012619852L70.6150321779544,110.7343501261985z" style="fill:rgb(127,254,127)"/><path d="M30.53684226742601,110.73435012619852L30.32203847494239,113.45835496008569L30.536850550568317,113.55898220214794z" style="fill:rgb(2,127,152)"/><path d="M-30.444094570757546,-110.47431991465791L-30.597234686932083,-107.74785318923556L-30.444102824877962,-107.65106949368403z" style="fill:rgb(253,127,144)"/><path d="M-30.444102824877962,-107.65106949368403L-70.64540511630653,-107.74785318923554L-70.58200968285612,-107.65106949368402z" style="fill:rgb(127,0,127)"/><path d="M-70.58348960065666,110.68493342151845L-30.597876806137947,110.78425710126915L-30.444741157080337,110.68493342151845z" style="fill:rgb(127,254,127)"/><path d="M-30.444741157080337,110.68493342151845L-30.597885109580048,113.6101634256308L-30.444749411551367,113.50830376688268zM-30.597234686932083,-107.74785318923556L-30.444094570757546,-110.47431991465791L-30.597226383842997,-110.57363937368021z" style="fill:rgb(253,127,144)"/><path d="M-70.64540511630653,-107.74785318923554L-30.444102824877962,-107.65106949368403L-30.597234686932083,-107.74785318923556z" style="fill:rgb(127,0,127)"/><path d="M-30.597876806137947,110.78425710126915L-70.58348960065666,110.68493342151845L-70.64688769379755,110.78425710126916z" style="fill:rgb(127,254,127)"/><path d="M-30.597885109580048,113.6101634256308L-30.444741157080337,110.68493342151845L-30.597876806137947,110.78425710126915z" style="fill:rgb(253,127,144)"/><path d="M30.53620171803071,-107.6992224755126L30.626878674547946,-110.62381403659943L30.53619343524038,-110.52373451986443z" style="fill:rgb(0,127,136)"/><path d="M70.61355093717117,-107.69922247551261L30.62688698945147,-107.79674682347364L30.53620171803071,-107.6992224755126z" style="fill:rgb(127,0,127)"/><path d="M30.627530022332806,110.83443389787608L70.6150321779544,110.7343501261985L30.53684226742601,110.73435012619852z" style="fill:rgb(127,254,127)"/><path d="M30.536850550568317,113.55898220214794L30.627530022332806,110.83443389787608L30.53684226742601,110.73435012619852zM30.626878674547946,-110.62381403659943L30.53620171803071,-107.6992224755126L30.62688698945147,-107.79674682347364z" style="fill:rgb(0,127,136)"/><path d="M30.62688698945147,-107.79674682347364L70.61355093717117,-107.69922247551261L70.67743151411884,-107.79674682347364z" style="fill:rgb(127,0,127)"/><path d="M70.6150321779544,110.7343501261985L30.627530022332806,110.83443389787608L70.67891543615258,110.83443389787607z" style="fill:rgb(127,254,127)"/><path d="M30.627530022332806,110.83443389787608L30.536850550568317,113.55898220214794L30.627538337590007,113.6616213598733z" style="fill:rgb(0,127,136)"/><path d="M-30.597226383842997,-110.57363937368021L-30.624989178441368,-107.84568480871164L-30.597234686932083,-107.74785318923556z" style="fill:rgb(255,127,127)"/><path d="M-30.597234686932083,-107.74785318923556L-70.7094869628045,-107.84568480871162L-70.64540511630653,-107.74785318923554z" style="fill:rgb(127,0,127)"/><path d="M-70.71097223121055,110.88465621038485L-30.597876806137947,110.78425710126915L-70.64688769379755,110.78425710126916z" style="fill:rgb(127,254,127)"/><path d="M-30.597876806137947,110.78425710126915L-30.625640781622778,113.71312597216371L-30.597885109580048,113.6101634256308zM-30.624989178441368,-107.84568480871164L-30.597226383842997,-110.57363937368021L-30.62498086028212,-110.67403421251649z" style="fill:rgb(255,127,127)"/><path d="M-70.7094869628045,-107.84568480871162L-30.597234686932083,-107.74785318923556L-30.624989178441368,-107.84568480871164z" style="fill:rgb(127,0,127)"/><path d="M-30.597876806137947,110.78425710126915L-70.71097223121055,110.88465621038485L-30.625632463109564,110.88465621038483z" style="fill:rgb(127,254,127)"/><path d="M-30.625640781622778,113.71312597216371L-30.597876806137947,110.78425710126915L-30.625632463109564,110.88465621038483z" style="fill:rgb(255,127,127)"/><path d="M70.7414277748986,-107.89444778208595L30.62688698945147,-107.79674682347364L70.67743151411884,-107.79674682347364z" style="fill:rgb(127,0,127)"/><path d="M30.592143790051697,110.93469891897412L70.67891543615258,110.83443389787607L30.627530022332806,110.83443389787608z" style="fill:rgb(127,254,127)"/><path d="M30.62688698945147,-107.79674682347364L70.7414277748986,-107.89444778208595L30.591500918539445,-107.89444778208593z" style="fill:rgb(127,0,127)"/><path d="M70.67891543615258,110.83443389787607L30.592143790051697,110.93469891897412L70.74291438546963,110.9346989189741z" style="fill:rgb(127,254,127)"/><path d="M-30.624989178441368,-107.84568480871164L-70.77311170164943,-107.94281857716723L-70.7094869628045,-107.84568480871162z" style="fill:rgb(127,0,127)"/><path d="M-70.77459964418955,110.9843391578837L-30.625632463109564,110.88465621038483L-70.71097223121055,110.88465621038485z" style="fill:rgb(127,254,127)"/><path d="M-70.77311170164943,-107.94281857716723L-30.624989178441368,-107.84568480871164L-30.52653076276648,-107.94281857716724z" style="fill:rgb(127,0,127)"/><path d="M-30.625632463109564,110.88465621038483L-70.77459964418955,110.9843391578837L-30.527172556275758,110.98433915788368z" style="fill:rgb(127,254,127)"/><path d="M70.80439501027702,-107.99057776191097L30.591500918539445,-107.89444778208593L70.7414277748986,-107.89444778208595z" style="fill:rgb(127,0,127)"/><path d="M30.592143790051697,110.93469891897412L70.80588426853008,111.03335173626206L70.74291438546963,110.9346989189741z" style="fill:rgb(127,254,127)"/><path d="M30.591500918539445,-107.89444778208593L70.80439501027702,-107.99057776191097L30.430332248093595,-107.99057776191096z" style="fill:rgb(127,0,127)"/><path d="M70.80588426853008,111.03335173626206L30.592143790051697,110.93469891897412L30.430972301912853,111.03335173626208z" style="fill:rgb(127,254,127)"/><path d="M-30.52653076276648,-107.94281857716724L-70.83513837433269,-108.03751263127047L-70.77311170164943,-107.94281857716723z" style="fill:rgb(127,0,127)"/><path d="M-70.77459964418955,110.9843391578837L-30.30392700459083,111.08151836678347L-30.527172556275758,110.98433915788368z" style="fill:rgb(127,254,127)"/><path d="M-70.83513837433269,-108.03751263127047L-30.52653076276648,-107.94281857716724L-30.303289346160042,-108.03751263127049z" style="fill:rgb(127,0,127)"/><path d="M-30.30392700459083,111.08151836678347L-70.77459964418955,110.9843391578837L-70.83662892615587,111.08151836678347z" style="fill:rgb(127,254,127)"/><path d="M70.86520102622806,-108.08340828006038L30.430332248093595,-107.99057776191096L70.80439501027702,-107.99057776191097z" style="fill:rgb(127,0,127)"/><path d="M30.430972301912853,111.03335173626208L70.8666928435228,111.128618504227L70.80588426853008,111.03335173626206z" style="fill:rgb(127,254,127)"/><path d="M30.430332248093595,-107.99057776191096L70.86520102622806,-108.08340828006038L30.145938220460714,-108.08340828006037z" style="fill:rgb(127,0,127)"/><path d="M70.8666928435228,111.128618504227L30.430972301912853,111.03335173626208L30.14657283704763,111.12861850422702z" style="fill:rgb(127,254,127)"/><path d="M-30.303289346160042,-108.03751263127049L-70.89444765044742,-108.12805812659167L-70.83513837433269,-108.03751263127047z" style="fill:rgb(127,0,127)"/><path d="M-70.89594069937847,111.17444014529683L-30.30392700459083,111.08151836678347L-70.83662892615587,111.08151836678347z" style="fill:rgb(127,254,127)"/><path d="M-70.89444765044742,-108.12805812659167L-30.303289346160042,-108.03751263127049L-29.958945781028163,-108.12805812659168z" style="fill:rgb(127,0,127)"/><path d="M-30.30392700459083,111.08151836678347L-70.89594069937847,111.17444014529683L-29.95957672143962,111.17444014529681z" style="fill:rgb(127,254,127)"/><path d="M70.9227464709089,-108.1712609927124L30.145938220460714,-108.08340828006037L70.86520102622806,-108.08340828006038z" style="fill:rgb(127,0,127)"/><path d="M29.743747030508334,111.21877683203138L70.8666928435228,111.128618504227L30.14657283704763,111.12861850422702z" style="fill:rgb(127,254,127)"/><path d="M30.145938220460714,-108.08340828006037L70.9227464709089,-108.1712609927124L29.743120385373302,-108.17126099271239z" style="fill:rgb(127,0,127)"/><path d="M70.8666928435228,111.128618504227L29.743747030508334,111.21877683203138L70.92424071204636,111.21877683203137z" style="fill:rgb(127,254,127)"/><path d="M-29.958945781028163,-108.12805812659168L-70.94996634879452,-108.21281667315871L-70.89444765044742,-108.12805812659167z" style="fill:rgb(127,0,127)"/><path d="M-70.95146173713204,111.26142310487897L-29.95957672143962,111.17444014529681L-70.89594069937847,111.17444014529683z" style="fill:rgb(127,254,127)"/><path d="M-70.94996634879452,-108.21281667315871L-29.958945781028163,-108.12805812659168L-29.49939865201902,-108.21281667315873z" style="fill:rgb(127,0,127)"/><path d="M-29.95957672143962,111.17444014529681L-70.95146173713204,111.26142310487897L-29.500020400822788,111.26142310487897z" style="fill:rgb(127,254,127)"/><path d="M70.975984697171,-108.25253801854556L29.743120385373302,-108.17126099271239L70.9227464709089,-108.1712609927124z" style="fill:rgb(127,0,127)"/><path d="M29.743747030508334,111.21877683203138L70.97748118248111,111.3021869027962L70.92424071204636,111.21877683203137z" style="fill:rgb(127,254,127)"/><path d="M29.743120385373302,-108.17126099271239L70.975984697171,-108.25253801854556L29.228852931490234,-108.25253801854555z" style="fill:rgb(127,0,127)"/><path d="M70.97748118248111,111.3021869027962L29.743747030508334,111.21877683203138L29.229469204011615,111.30218690279621z" style="fill:rgb(127,254,127)"/><path d="M-29.49939865201902,-108.21281667315873L-71.00068262907429,-108.29024352810629L-70.94996634879452,-108.21281667315871z" style="fill:rgb(127,0,127)"/><path d="M-71.00218015605807,111.34088196159378L-29.500020400822788,111.26142310487897L-70.95146173713204,111.26142310487897z" style="fill:rgb(127,254,127)"/><path d="M-71.00068262907429,-108.29024352810629L-29.49939865201902,-108.21281667315873L-28.932675249826037,-108.2902435281063z" style="fill:rgb(127,0,127)"/><path d="M-29.500020400822788,111.26142310487897L-71.00218015605807,111.34088196159378L-28.9332854899011,111.34088196159377z" style="fill:rgb(127,254,127)"/><path d="M71.02394599912284,-108.32575893989149L29.228852931490234,-108.25253801854555L70.975984697171,-108.25253801854556z" style="fill:rgb(127,0,127)"/><path d="M28.612783547965,111.37732944586944L70.97748118248111,111.3021869027962L29.229469204011615,111.30218690279621z" style="fill:rgb(127,254,127)"/><path d="M29.228852931490234,-108.25253801854555L71.02394599912284,-108.32575893989149L28.612179869956265,-108.32575893989147z" style="fill:rgb(127,0,127)"/><path d="M70.97748118248111,111.3021869027962L28.612783547965,111.37732944586944L71.02544450760719,111.37732944586942z" style="fill:rgb(127,254,127)"/><path d="M-28.932675249826037,-108.2902435281063L-71.0456684227992,-108.35892184020302L-71.00068262907429,-108.29024352810629z" style="fill:rgb(127,0,127)"/><path d="M-71.00218015605807,111.34088196159378L-28.26939229329377,111.41136267941633L-28.9332854899011,111.34088196159377z" style="fill:rgb(127,254,127)"/><path d="M-71.0456684227992,-108.35892184020302L-28.932675249826037,-108.2902435281063L-28.268795677802927,-108.35892184020304z" style="fill:rgb(127,0,127)"/><path d="M-28.26939229329377,111.41136267941633L-71.00218015605807,111.34088196159378L-71.04716784806031,111.41136267941634z" style="fill:rgb(127,254,127)"/><path d="M71.06575035947945,-108.38958026368837L28.612179869956265,-108.32575893989147L71.02394599912284,-108.32575893989149z" style="fill:rgb(127,0,127)"/><path d="M28.612783547965,111.37732944586944L71.06725063253165,111.44282570857858L71.02544450760719,111.37732944586942z" style="fill:rgb(127,254,127)"/><path d="M28.612179869956265,-108.32575893989147L71.06575035947945,-108.38958026368837L27.904060424264177,-108.38958026368836z" style="fill:rgb(127,0,127)"/><path d="M71.06725063253165,111.44282570857858L28.612783547965,111.37732944586944L27.90464950845301,111.4428257085786z" style="fill:rgb(127,254,127)"/><path d="M-28.268795677802927,-108.35892184020304L-71.08409819028473,-108.41759128552431L-71.0456684227992,-108.35892184020302z" style="fill:rgb(127,0,127)"/><path d="M-71.08559923812913,111.4715718574919L-28.26939229329377,111.41136267941633L-71.04716784806031,111.41136267941634z" style="fill:rgb(127,254,127)"/><path d="M-71.08409819028473,-108.41759128552431L-28.268795677802927,-108.35892184020304L-27.519609449698336,-108.41759128552432z" style="fill:rgb(127,0,127)"/><path d="M-28.26939229329377,111.41136267941633L-71.08559923812913,111.4715718574919L-27.520190567719002,111.47157185749188z" style="fill:rgb(127,254,127)"/><path d="M71.10062822945207,-108.44282714544613L27.904060424264177,-108.38958026368836L71.06575035947945,-108.38958026368837z" style="fill:rgb(127,0,127)"/><path d="M27.117747992977765,111.4974700128333L71.06725063253165,111.44282570857858L27.90464950845301,111.4428257085786z" style="fill:rgb(127,254,127)"/><path d="M27.904060424264177,-108.38958026368836L71.10062822945207,-108.44282714544613L27.117175239800684,-108.44282714544612z" style="fill:rgb(127,0,127)"/><path d="M71.06725063253165,111.44282570857858L27.117747992977765,111.4974700128333L71.10212997549856,111.49747001283329z" style="fill:rgb(127,254,127)"/><path d="M-27.519609449698336,-108.41759128552432L-71.1152638267824,-108.46517082414863L-71.08409819028473,-108.41759128552431z" style="fill:rgb(127,0,127)"/><path d="M-71.116766191148,111.52040008413223L-27.520190567719002,111.47157185749188L-71.08559923812913,111.4715718574919z" style="fill:rgb(127,254,127)"/><path d="M-71.1152638267824,-108.46517082414863L-27.519609449698336,-108.41759128552432L-26.698576908289795,-108.46517082414864z" style="fill:rgb(127,0,127)"/><path d="M-27.520190567719002,111.47157185749188L-71.116766191148,111.52040008413223L-26.69914093615665,111.52040008413222z" style="fill:rgb(127,254,127)"/><path d="M71.12793740013153,-108.48451914622522L27.117175239800684,-108.44282714544612L71.10062822945207,-108.44282714544613z" style="fill:rgb(127,0,127)"/><path d="M27.117747992977765,111.4974700128333L71.12944030002853,111.54025618814417L71.10212997549856,111.49747001283329z" style="fill:rgb(127,254,127)"/><path d="M27.117175239800684,-108.44282714544612L71.12793740013153,-108.48451914622522L26.26570606215926,-108.48451914622521z" style="fill:rgb(127,0,127)"/><path d="M71.12944030002853,111.54025618814417L27.117747992977765,111.4974700128333L26.26626104418716,111.54025618814418z" style="fill:rgb(127,254,127)"/><path d="M-26.698576908289795,-108.46517082414864L-71.13858950115522,-108.50078135386921L-71.1152638267824,-108.46517082414863z" style="fill:rgb(127,0,127)"/><path d="M-71.14009285123831,111.55694518512311L-26.69914093615665,111.52040008413222L-71.116766191148,111.52040008413223z" style="fill:rgb(127,254,127)"/><path d="M-71.13858950115522,-108.50078135386921L-26.698576908289795,-108.46517082414864L-25.820525881300785,-108.50078135386923z" style="fill:rgb(127,0,127)"/><path d="M-26.69914093615665,111.52040008413222L-71.14009285123831,111.55694518512311L-25.82107153858747,111.5569451851231z" style="fill:rgb(127,254,127)"/><path d="M71.14717084025025,-108.51388219828664L26.26570606215926,-108.48451914622521L71.12793740013153,-108.48451914622522z" style="fill:rgb(127,0,127)"/><path d="M25.365594634636143,111.57038985136627L71.12944030002853,111.54025618814417L26.26626104418716,111.54025618814418z" style="fill:rgb(127,254,127)"/><path d="M26.26570606215926,-108.48451914622521L71.14717084025025,-108.51388219828664L25.365058537939472,-108.51388219828662z" style="fill:rgb(127,0,127)"/><path d="M71.12944030002853,111.54025618814417L25.365594634636143,111.57038985136627L71.14867455305283,111.57038985136626z" style="fill:rgb(127,254,127)"/><path d="M-25.820525881300785,-108.50078135386923L-71.15364232935798,-108.52376200504031L-71.13858950115522,-108.50078135386921z" style="fill:rgb(127,0,127)"/><path d="M-71.15514631572876,111.58052894627606L-25.82107153858747,111.5569451851231L-71.14009285123831,111.55694518512311z" style="fill:rgb(127,254,127)"/><path d="M-71.15364232935798,-108.52376200504031L-25.820525881300785,-108.50078135386923L-24.901375377568588,-108.52376200504033z" style="fill:rgb(127,0,127)"/><path d="M-25.82107153858747,111.5569451851231L-71.15514631572876,111.58052894627606L-24.901901722081003,111.58052894627605z" style="fill:rgb(127,254,127)"/><path d="M71.15797313800793,-108.53037370627914L25.365058537939472,-108.51388219828662L71.14717084025025,-108.51388219828664z" style="fill:rgb(127,0,127)"/><path d="M25.365594634636143,111.57038985136627L71.1594773074684,111.58731416670194L71.14867455305283,111.57038985136626z" style="fill:rgb(127,254,127)"/><path d="M25.365058537939472,-108.51388219828662L71.15797313800793,-108.53037370627914L24.431584535670765,-108.53037370627914zM-24.901375377568588,-108.52376200504033L-71.16014467608481,-108.53368892109292L-71.15364232935798,-108.52376200504031z" style="fill:rgb(127,0,127)"/><path d="M71.1594773074684,111.58731416670194L25.365594634636143,111.57038985136627L24.432100981568706,111.58731416670196zM-71.16164893735339,111.59071638687227L-24.901901722081003,111.58052894627605L-71.15514631572876,111.58052894627606z" style="fill:rgb(127,254,127)"/><path d="M-71.16014467608481,-108.53368892109292L-24.901375377568588,-108.52376200504033L-23.95782962005118,-108.53368892109293zM71.16014467608473,-108.53368892109297L24.431584535670765,-108.53037370627914L71.15797313800793,-108.53037370627914zM24.431584535670765,-108.53037370627914L71.16014467608473,-108.53368892109297L23.482266830672,-108.53368892109296z" style="fill:rgb(127,0,127)"/><path d="M-24.901901722081003,111.58052894627605L-71.16164893735339,111.59071638687227L-23.958336066958193,111.59071638687226zM23.482763224610768,111.59071638687223L71.1594773074684,111.58731416670194L24.432100981568706,111.58731416670196zM71.1594773074684,111.58731416670194L23.482763224610768,111.59071638687223L71.16164893735348,111.59071638687222z" style="fill:rgb(127,254,127)"/><path d="M72.31346582454486,-110.29442588321247L23.482266830672,-108.53368892109296L71.16014467608473,-108.53368892109297zM72.31346582454486,-110.29442588321247L-23.95782962005118,-108.53368892109293L23.482266830672,-108.53368892109296zM-23.95782962005118,-108.53368892109293L-72.31346582454493,-110.29442588321241L-71.16014467608481,-108.53368892109292z" style="fill:rgb(127,0,127)"/><path d="M23.482763224610768,111.59071638687223L-72.31501924182243,113.39766320624183L71.16164893735348,111.59071638687222zM-23.958336066958193,111.59071638687226L-72.31501924182243,113.39766320624183L23.482763224610768,111.59071638687223zM-72.31501924182243,113.39766320624183L-23.958336066958193,111.59071638687226L-71.16164893735339,111.59071638687227z" style="fill:rgb(127,254,127)"/><path d="M-72.31346582454493,-110.29442588321241L-23.95782962005118,-108.53368892109293L72.31346582454486,-110.29442588321247z" style="fill:rgb(127,0,127)"/><path d="M71.16164893735348,111.59071638687222L-72.31501924182243,113.39766320624183L72.31501924182251,113.39766320624177z" style="fill:rgb(127,254,127)"/><path d="M69.42090790818196,-113.18693306125014L72.31336204257926,-125.23902900626769L69.42082756087608,-125.23902900626769zM72.31336204257926,-125.23902900626769L69.42090790818196,-113.18693306125014L72.31344573768955,-113.18693306125014zM-72.31346582454493,-110.29442588321241L72.31344573768955,-113.18693306125014L-72.31344573768963,-113.18693306125009zM72.31344573768955,-113.18693306125014L-72.31346582454493,-110.29442588321241L72.31346582454486,-110.29442588321247zM-75.20770705839962,125.45031155164929L-72.31336204257931,-125.23902900626763L-75.20589652428248,-125.23902900626763zM69.42241847214962,113.39766320624177L72.31346582454486,-110.29442588321247L69.42092719156307,-110.29442588321247zM72.31346582454486,-110.29442588321247L69.42241847214962,113.39766320624177L72.31501924182251,113.39766320624177zM-72.31336204257931,-125.23902900626763L-75.20770705839962,125.45031155164929L-72.31510294076885,125.45031155164929zM-72.31503932955191,116.29029626466325L72.31501924182251,113.39766320624177L-72.31501924182243,113.39766320624183zM72.31501924182251,113.39766320624177L-72.31503932955191,116.29029626466325L72.31503932955198,116.2902962646632zM69.42249882313818,125.45031155164924L72.31503932955198,116.2902962646632L69.4224377563699,116.2902962646632zM72.31503932955198,116.2902962646632L69.42249882313818,125.45031155164924L72.31510294076894,125.45031155164924z" style="fill:rgb(127,127,254)"/><path d="M72.31346582454486,-110.29442588321247L74.37952106697104,-116.42378442664207L72.31344573768955,-113.18693306125014z" style="fill:rgb(0,127,127)"/><path d="M-72.31344573768963,-113.18693306125009L-74.37954231803113,-113.44863601237236L-72.31346582454493,-110.29442588321241z" style="fill:rgb(255,127,127)"/><path d="M75.20600445752665,-110.29442588321247L74.37954231803106,-113.44863601237242L72.31346582454486,-110.29442588321247zM-72.31346582454493,-110.29442588321241L-77.35472401075238,-113.44863601237236L-75.20600445752673,-110.29442588321241z" style="fill:rgb(127,0,127)"/><path d="M72.31501924182251,113.39766320624177L77.35643320092382,116.63465745009135L75.20762001149541,113.39766320624177zM-75.20762001149532,113.39766320624183L-74.38118577011899,116.63465745009141L-72.31501924182243,113.39766320624183z" style="fill:rgb(127,254,127)"/><path d="M72.31503932955198,116.2902962646632L74.38118577011907,116.63465745009135L72.31501924182251,113.39766320624177z" style="fill:rgb(0,127,127)"/><path d="M-72.31501924182243,113.39766320624183L-74.38120702213024,119.60993904067065L-72.31503932955191,116.29029626466325zM-74.37954231803113,-113.44863601237236L-72.31344573768963,-113.18693306125009L-74.37952106697112,-116.42378442664202z" style="fill:rgb(255,127,127)"/><path d="M74.37952106697104,-116.42378442664207L72.31346582454486,-110.29442588321247L74.37954231803106,-113.44863601237242z" style="fill:rgb(0,127,127)"/><path d="M74.37954231803106,-113.44863601237242L75.20600445752665,-110.29442588321247L77.35472401075229,-113.44863601237242zM-77.35472401075238,-113.44863601237236L-72.31346582454493,-110.29442588321241L-74.37954231803113,-113.44863601237236z" style="fill:rgb(127,0,127)"/><path d="M77.35643320092382,116.63465745009135L72.31501924182251,113.39766320624177L74.38118577011907,116.63465745009135zM-74.38118577011899,116.63465745009141L-75.20762001149532,113.39766320624183L-77.35643320092373,116.63465745009141z" style="fill:rgb(127,254,127)"/><path d="M-74.38120702213024,119.60993904067065L-72.31501924182243,113.39766320624183L-74.38118577011899,116.63465745009141z" style="fill:rgb(255,127,127)"/><path d="M74.38118577011907,116.63465745009135L72.31503932955198,116.2902962646632L74.38120702213033,119.60993904067061z" style="fill:rgb(0,127,127)"/><path d="M74.37954231803106,-113.44863601237242L77.35470190964988,-116.42378442664207L74.37952106697104,-116.42378442664207zM-77.35472401075238,-113.44863601237236L-74.37952106697112,-116.42378442664202L-77.35470190964996,-116.42378442664202zM77.35470190964988,-116.42378442664207L74.37954231803106,-113.44863601237242L77.35472401075229,-113.44863601237242zM-74.37952106697112,-116.42378442664202L-77.35472401075238,-113.44863601237236L-74.37954231803113,-113.44863601237236zM74.38120702213033,119.60993904067061L77.35643320092382,116.63465745009135L74.38118577011907,116.63465745009135zM-77.35645530301545,119.60993904067065L-74.38118577011899,116.63465745009141L-77.35643320092373,116.63465745009141zM77.35643320092382,116.63465745009135L74.38120702213033,119.60993904067061L77.35645530301554,119.60993904067061zM-74.38118577011899,116.63465745009141L-77.35645530301545,119.60993904067065L-74.38120702213024,119.60993904067065z" style="fill:rgb(127,127,254)"/></svg>
