<?xml version="1.0" encoding="UTF-8"?>
<!-- Generated by jsxcad -->
<!DOCTYPE svg PUBLIC "-//W3C//DTD SVG 1.1 Tiny//EN" "http://www.w3.org/Graphics/SVG/1.1/DTD/svg11-tiny.dtd">
<svg viewBox="-250 -250 500 500" width="500" height="500" xmlns="http://www.w3.org/2000/svg"><path d="M-72.5165401993637,125.79946946829281L69.61419800550637,-125.58817008859585L-72.51478958906922,-125.5881700885958zM69.61419800550637,-125.58817008859585L-72.5165401993637,125.79946946829281L69.61587859138923,125.79946946829276z" style="fill:rgb(127,127,254)"/><path d="M69.42249882313816,125.45031155164921L72.79072811363005,-131.32357170138508L69.42082756087605,-125.23902900626763zM72.79072811363005,-131.32357170138508L69.42249882313816,125.45031155164921L72.79081645088459,-118.68643661329708zM72.79081645088459,-118.68643661329708L69.42249882313816,125.45031155164921L72.79083765185757,-115.65351962811519zM72.79083765185757,-115.65351962811519L69.42249882313816,125.45031155164921L72.79247723117668,118.89741190298608zM72.79247723117668,118.89741190298608L69.42249882313816,125.45031155164921L72.7924984331171,121.9304672865868zM72.7924984331171,121.9304672865868L69.42249882313816,125.45031155164921L72.79256557267666,131.5351543242957z" style="fill:rgb(0,127,127)"/><path d="M-80.93090049532204,-140.17609573237362L-72.31510294076882,125.45031155164926L-72.31336204257931,-125.23902900626757z" style="fill:rgb(255,127,127)"/><path d="M-75.6786384709227,131.2804398330666L72.64966258807246,-131.06887005674372L-75.67673186257556,-131.06887005674366zM72.64966258807246,-131.06887005674372L-75.6786384709227,131.2804398330666L72.65149293208586,131.28043983306654zM72.79083765185757,-115.65351962811519L75.82376713633812,-118.68643661329708L72.79081645088459,-118.68643661329708zM75.82376713633812,-118.68643661329708L72.79083765185757,-115.65351962811519L75.82378922068499,-115.65351962811519zM72.79247723117668,118.89741190298608L75.82551920116366,121.9304672865868L75.82549711580903,118.89741190298608zM75.82551920116366,121.9304672865868L72.79247723117668,118.89741190298608L72.7924984331171,121.9304672865868z" style="fill:rgb(127,127,254)"/><path d="M-72.31510294076882,125.45031155164926L-80.93090049532204,-140.17609573237362L-80.93100532681825,-126.6877764850558zM-72.31510294076882,125.45031155164926L-80.93100532681825,-126.6877764850558L-80.93103048641775,-123.45057466611894zM-72.31510294076882,125.45031155164926L-80.93103048641775,-123.45057466611894L-80.9329762094949,126.89912918976937zM-72.31510294076882,125.45031155164926L-80.9329762094949,126.89912918976937L-80.93300137031981,130.1364886793947zM-72.31510294076882,125.45031155164926L-80.93300137031981,130.1364886793947L-80.93308104636863,140.38814034271138z" style="fill:rgb(255,127,127)"/><path d="M75.82378922068499,-115.65351962811519L-85.58767006582116,-130.5597111262205L-75.82378922068507,-115.65351962811513z" style="fill:rgb(127,0,127)"/><path d="M-85.58984614101271,134.19489211895942L75.82549711580903,118.89741190298608L-75.82549711580896,118.89741190298614z" style="fill:rgb(127,254,127)"/><path d="M72.79081645088459,-118.68643661329708L83.30479252689064,-150.30729920913532L72.79072811363005,-131.32357170138508z" style="fill:rgb(0,127,127)"/><path d="M75.82376713633812,-118.68643661329708L83.30490822648085,-135.8448503606525L72.79081645088459,-118.68643661329708z" style="fill:rgb(127,0,127)"/><path d="M83.30708343859433,136.05666517449865L72.79083765185757,-115.65351962811519L72.79247723117668,118.89741190298608z" style="fill:rgb(0,127,127)"/><path d="M72.7924984331171,121.9304672865868L86.77824084166039,139.5278401436384L75.82551920116366,121.9304672865868z" style="fill:rgb(127,254,127)"/><path d="M83.3071991445482,150.51990947954312L72.7924984331171,121.9304672865868L72.79256557267666,131.5351543242957z" style="fill:rgb(0,127,127)"/><path d="M-84.16827170587445,-123.45057466611894L-80.93100532681825,-126.6877764850558L-84.16824553989096,-126.6877764850558zM-80.93100532681825,-126.6877764850558L-84.16827170587445,-123.45057466611894L-80.93103048641775,-123.45057466611894zM-84.17032142513261,130.1364886793947L-80.9329762094949,126.89912918976937L-84.17029525787468,126.89912918976937zM-80.9329762094949,126.89912918976937L-84.17032142513261,130.1364886793947L-80.93300137031981,130.1364886793947z" style="fill:rgb(127,127,254)"/><path d="M-80.93090049532204,-140.17609573237362L-83.52768944314572,-130.75591495430953L-80.93100532681825,-126.6877764850558z" style="fill:rgb(255,127,127)"/><path d="M-80.93100532681825,-126.6877764850558L-86.86879702087154,-130.75591495430953L-84.16824553989096,-126.6877764850558z" style="fill:rgb(127,0,127)"/><path d="M80.93103048641765,-123.45057466611901L83.52768944314563,-130.7559149543096L80.93100532681815,-126.68777648505586z" style="fill:rgb(0,127,127)"/><path d="M-80.93100532681825,-126.6877764850558L-83.52771624314569,-127.41484827454497L-80.93103048641775,-123.45057466611894z" style="fill:rgb(255,127,127)"/><path d="M84.16827170587436,-123.45057466611901L83.52771624314559,-127.41484827454502L80.93103048641765,-123.45057466611901zM-80.93103048641775,-123.45057466611894L-86.86882489287152,-127.41484827454497L-84.16827170587445,-123.45057466611894z" style="fill:rgb(127,0,127)"/><path d="M-80.93103048641775,-123.45057466611894L-83.52978882856776,130.9674689799919L-80.9329762094949,126.89912918976937z" style="fill:rgb(255,127,127)"/><path d="M80.93297620949498,126.89912918976931L86.87098038171057,130.96746897999185L84.17029525787478,126.89912918976931zM-84.17029525787468,126.89912918976937L-83.52978882856776,130.9674689799919L-80.9329762094949,126.89912918976937z" style="fill:rgb(127,254,127)"/><path d="M80.9330013703199,130.13648867939463L83.52978882856786,130.96746897999185L80.93297620949498,126.89912918976931z" style="fill:rgb(0,127,127)"/><path d="M-80.9329762094949,126.89912918976937L-83.52981562991492,134.30870361067187L-80.93300137031981,130.1364886793947z" style="fill:rgb(255,127,127)"/><path d="M-84.17032142513261,130.1364886793947L-83.52981562991492,134.30870361067187L-80.93300137031981,130.1364886793947z" style="fill:rgb(127,254,127)"/><path d="M-80.93300137031981,130.1364886793947L-83.52990050096109,144.88929408651077L-80.93308104636863,140.38814034271138z" style="fill:rgb(255,127,127)"/><path d="M28.243232430871846,-130.55971112622055L75.82378922068499,-115.65351962811519L85.58767006582107,-130.55971112622055zM-28.815214279675562,-130.55971112622052L75.82378922068499,-115.65351962811519L28.243232430871846,-130.55971112622055zM-85.58767006582116,-130.5597111262205L75.82378922068499,-115.65351962811519L-28.815214279675562,-130.55971112622052z" style="fill:rgb(127,0,127)"/><path d="M75.82549711580903,118.89741190298608L28.243950517920887,134.1948921189594L85.5898461410128,134.19489211895936zM75.82549711580903,118.89741190298608L-28.815946909420948,134.19489211895942L28.243950517920887,134.1948921189594zM75.82549711580903,118.89741190298608L-85.58984614101271,134.19489211895942L-28.815946909420948,134.19489211895942z" style="fill:rgb(127,254,127)"/><path d="M-83.52768944314572,-130.75591495430953L-80.93090049532204,-140.17609573237362L-83.52757777666429,-144.6770030425381z" style="fill:rgb(255,127,127)"/><path d="M-86.86879702087154,-130.75591495430953L-80.93100532681825,-126.6877764850558L-83.52768944314572,-130.75591495430953z" style="fill:rgb(127,0,127)"/><path d="M-83.52771624314569,-127.41484827454497L-80.93100532681825,-126.6877764850558L-83.52768944314572,-130.75591495430953z" style="fill:rgb(255,127,127)"/><path d="M83.52768944314563,-130.7559149543096L80.93103048641765,-123.45057466611901L83.52771624314559,-127.41484827454502z" style="fill:rgb(0,127,127)"/><path d="M83.52771624314559,-127.41484827454502L84.16827170587436,-123.45057466611901L86.86882489287142,-127.41484827454502zM-86.86882489287152,-127.41484827454497L-80.93103048641775,-123.45057466611894L-83.52771624314569,-127.41484827454497z" style="fill:rgb(127,0,127)"/><path d="M-83.52978882856776,130.9674689799919L-80.93103048641775,-123.45057466611894L-83.52771624314569,-127.41484827454497z" style="fill:rgb(255,127,127)"/><path d="M86.87098038171057,130.96746897999185L80.93297620949498,126.89912918976931L83.52978882856786,130.96746897999185zM-83.52978882856776,130.9674689799919L-84.17029525787468,126.89912918976937L-86.87098038171047,130.9674689799919z" style="fill:rgb(127,254,127)"/><path d="M-83.52981562991492,134.30870361067187L-80.9329762094949,126.89912918976937L-83.52978882856776,130.9674689799919z" style="fill:rgb(255,127,127)"/><path d="M83.52978882856786,130.96746897999185L80.9330013703199,130.13648867939463L83.52981562991502,134.3087036106718z" style="fill:rgb(0,127,127)"/><path d="M-83.52981562991492,134.30870361067187L-84.17032142513261,130.1364886793947L-86.87100825511152,134.30870361067187z" style="fill:rgb(127,254,127)"/><path d="M-83.52990050096109,144.88929408651077L-80.93300137031981,130.1364886793947L-83.52981562991492,134.30870361067187z" style="fill:rgb(255,127,127)"/><path d="M83.30479252689064,-150.30729920913532L72.79081645088459,-118.68643661329708L83.30490822648085,-135.8448503606525z" style="fill:rgb(0,127,127)"/><path d="M83.30490822648085,-135.8448503606525L75.82376713633812,-118.68643661329708L86.77594606925089,-135.8448503606525z" style="fill:rgb(127,0,127)"/><path d="M72.79083765185757,-115.65351962811519L83.30708343859433,136.05666517449865L83.30493599443031,-132.37385665928048z" style="fill:rgb(0,127,127)"/><path d="M86.77824084166039,139.5278401436384L72.7924984331171,121.9304672865868L83.30711120799396,139.5278401436384z" style="fill:rgb(127,254,127)"/><path d="M72.7924984331171,121.9304672865868L83.3071991445482,150.51990947954312L83.30711120799396,139.5278401436384z" style="fill:rgb(0,127,127)"/><path d="M83.52771624314559,-127.41484827454502L86.86879702087145,-130.7559149543096L83.52768944314563,-130.7559149543096zM-86.86882489287152,-127.41484827454497L-83.52768944314572,-130.75591495430953L-86.86879702087154,-130.75591495430953zM86.86879702087145,-130.7559149543096L83.52771624314559,-127.41484827454502L86.86882489287142,-127.41484827454502zM-83.52768944314572,-130.75591495430953L-86.86882489287152,-127.41484827454497L-83.52771624314569,-127.41484827454497zM83.52981562991502,134.3087036106718L86.87098038171057,130.96746897999185L83.52978882856786,130.96746897999185zM-86.87100825511152,134.30870361067187L-83.52978882856776,130.9674689799919L-86.87098038171047,130.9674689799919zM86.87098038171057,130.96746897999185L83.52981562991502,134.3087036106718L86.8710082551116,134.3087036106718zM-83.52978882856776,130.9674689799919L-86.87100825511152,134.30870361067187L-83.52981562991492,134.30870361067187z" style="fill:rgb(127,127,254)"/><path d="M-83.52757777666429,-144.6770030425381L-86.77833244223763,150.51990947954317L-83.52768944314572,-130.75591495430953zM-83.52768944314572,-130.75591495430953L-86.77833244223763,150.51990947954317L-83.52771624314569,-127.41484827454497zM-83.52771624314569,-127.41484827454497L-86.77833244223763,150.51990947954317L-83.52978882856776,130.9674689799919zM-83.52978882856776,130.9674689799919L-86.77833244223763,150.51990947954317L-83.52981562991492,134.30870361067187zM-83.52981562991492,134.30870361067187L-86.77833244223763,150.51990947954317L-83.52990050096109,144.88929408651077z" style="fill:rgb(255,127,127)"/><path d="M-28.815214279675562,-130.55971112622052L28.243223145502586,-133.98317386282412L-28.815204806259036,-133.9831738628241zM28.243223145502586,-133.98317386282412L-28.815214279675562,-130.55971112622052L28.243232430871846,-130.55971112622055z" style="fill:rgb(127,127,254)"/><path d="M28.243232430871846,-130.55971112622055L29.3869874308374,-133.98809563748088L28.243223145502586,-133.98317386282412z" style="fill:rgb(123,127,254)"/><path d="M85.58767006582107,-130.55971112622055L29.38699709259038,-130.56450724169926L28.243232430871846,-130.55971112622055z" style="fill:rgb(127,0,127)"/><path d="M29.3869874308374,-133.98809563748088L28.243232430871846,-130.55971112622055L29.38699709259038,-130.56450724169926z" style="fill:rgb(123,127,254)"/><path d="M29.38699709259038,-130.56450724169926L85.58767006582107,-130.55971112622055L85.59081162616259,-130.5645072416993z" style="fill:rgb(127,0,127)"/><path d="M-28.81595638332543,137.6185311927205L28.243950517920887,134.1948921189594L-28.815946909420948,134.19489211895942zM28.243950517920887,134.1948921189594L-28.81595638332543,137.6185311927205L28.243959803768426,137.61853119272047z" style="fill:rgb(127,127,254)"/><path d="M-28.815204806259036,-133.9831738628241L-29.95609089313062,-130.5740743039758L-28.815214279675562,-130.55971112622052z" style="fill:rgb(140,127,254)"/><path d="M-28.815214279675562,-130.55971112622052L-85.59707826081032,-130.5740743039758L-85.58767006582116,-130.5597111262205z" style="fill:rgb(127,0,127)"/><path d="M29.387744287397993,134.1998141471336L85.5898461410128,134.19489211895936L28.243950517920887,134.1948921189594z" style="fill:rgb(127,254,127)"/><path d="M28.243959803768426,137.61853119272047L29.387744287397993,134.1998141471336L28.243950517920887,134.1948921189594z" style="fill:rgb(123,127,254)"/><path d="M85.5898461410128,134.19489211895936L29.387744287397993,134.1998141471336L85.59298786110828,134.1998141471336z" style="fill:rgb(127,254,127)"/><path d="M29.387744287397993,134.1998141471336L28.243959803768426,137.61853119272047L29.387753949648665,137.6235788930183z" style="fill:rgb(123,127,254)"/><path d="M-85.58984614101271,134.19489211895942L-29.956852613504395,134.20963237407375L-28.815946909420948,134.19489211895942z" style="fill:rgb(127,254,127)"/><path d="M-28.815946909420948,134.19489211895942L-29.956862463590507,137.63364780471431L-28.81595638332543,137.6185311927205zM-29.95609089313062,-130.5740743039758L-28.815204806259036,-133.9831738628241L-29.9560810435519,-133.9979133586887z" style="fill:rgb(140,127,254)"/><path d="M-85.59707826081032,-130.5740743039758L-28.815214279675562,-130.55971112622052L-29.95609089313062,-130.5740743039758z" style="fill:rgb(127,0,127)"/><path d="M29.38699709259038,-130.56450724169926L30.520001897839734,-134.0125888003054L29.3869874308374,-133.98809563748088z" style="fill:rgb(106,127,253)"/><path d="M85.59081162616259,-130.5645072416993L30.52001193393418,-130.58837506287085L29.38699709259038,-130.56450724169926z" style="fill:rgb(127,0,127)"/><path d="M-29.956852613504395,134.20963237407375L-85.58984614101271,134.19489211895942L-85.59925481444292,134.20963237407378z" style="fill:rgb(127,254,127)"/><path d="M-29.956862463590507,137.63364780471431L-28.815946909420948,134.19489211895942L-29.956852613504395,134.20963237407375z" style="fill:rgb(140,127,254)"/><path d="M30.52078807856407,134.22430857172355L85.59298786110828,134.1998141471336L29.387744287397993,134.1998141471336z" style="fill:rgb(127,254,127)"/><path d="M29.387753949648665,137.6235788930183L30.52078807856407,134.22430857172355L29.387744287397993,134.1998141471336zM30.520001897839734,-134.0125888003054L29.38699709259038,-130.56450724169926L30.52001193393418,-130.58837506287085z" style="fill:rgb(106,127,253)"/><path d="M30.52001193393418,-130.58837506287085L85.59081162616259,-130.5645072416993L85.6064455700833,-130.5883750628709z" style="fill:rgb(127,0,127)"/><path d="M85.59298786110828,134.1998141471336L30.52078807856407,134.22430857172355L85.60862260013009,134.22430857172355z" style="fill:rgb(127,254,127)"/><path d="M30.52078807856407,134.22430857172355L29.387753949648665,137.6235788930183L30.520798115175584,137.64869872369178z" style="fill:rgb(106,127,253)"/><path d="M-29.9560810435519,-133.9979133586887L-31.076302355628748,-130.60734703047103L-29.95609089313062,-130.5740743039758z" style="fill:rgb(157,127,251)"/><path d="M-29.95609089313062,-130.5740743039758L-85.61887262303446,-130.607347030471L-85.59707826081032,-130.5740743039758z" style="fill:rgb(127,0,127)"/><path d="M-85.59925481444292,134.20963237407378L-31.077092761827195,134.24377861175108L-29.956852613504395,134.20963237407375z" style="fill:rgb(127,254,127)"/><path d="M-29.956852613504395,134.20963237407375L-31.07710298286032,137.6686658842574L-29.956862463590507,137.63364780471431zM-31.076302355628748,-130.60734703047103L-29.9560810435519,-133.9979133586887L-31.076292135122255,-134.03205783722086z" style="fill:rgb(157,127,251)"/><path d="M-85.61887262303446,-130.607347030471L-29.95609089313062,-130.5740743039758L-31.076302355628748,-130.60734703047103z" style="fill:rgb(127,0,127)"/><path d="M-31.077092761827195,134.24377861175108L-85.59925481444292,134.20963237407378L-85.62105028519179,134.24377861175108z" style="fill:rgb(127,254,127)"/><path d="M-31.07710298286032,137.6686658842574L-29.956852613504395,134.20963237407375L-31.077092761827195,134.24377861175108z" style="fill:rgb(157,127,251)"/><path d="M30.52001193393418,-130.58837506287085L31.622522677373,-134.0562393478034L30.520001897839734,-134.0125888003054z" style="fill:rgb(89,127,249)"/><path d="M85.6064455700833,-130.5883750628709L31.622533079401077,-130.6309111562845L30.52001193393418,-130.58837506287085z" style="fill:rgb(127,0,127)"/><path d="M31.623337523633914,134.26796136845118L85.60862260013009,134.22430857172355L30.52078807856407,134.22430857172355z" style="fill:rgb(127,254,127)"/><path d="M30.520798115175584,137.64869872369178L31.623337523633914,134.26796136845118L30.52078807856407,134.22430857172355zM31.622522677373,-134.0562393478034L30.52001193393418,-130.58837506287085L31.622533079401077,-130.6309111562845z" style="fill:rgb(89,127,249)"/><path d="M31.622533079401077,-130.6309111562845L85.6064455700833,-130.5883750628709L85.63430763986557,-130.63091115628453z" style="fill:rgb(127,0,127)"/><path d="M85.60862260013009,134.22430857172355L31.623337523633914,134.26796136845118L85.63648608726372,134.26796136845118z" style="fill:rgb(127,254,127)"/><path d="M31.623337523633914,134.26796136845118L30.520798115175584,137.64869872369178L31.62334792619808,137.69346608935814z" style="fill:rgb(89,127,249)"/><path d="M-31.076292135122255,-134.03205783722086L-32.15631464648582,-130.65896736865676L-31.076302355628748,-130.60734703047103z" style="fill:rgb(173,127,246)"/><path d="M-31.076302355628748,-130.60734703047103L-85.65268507145869,-130.65896736865676L-85.61887262303446,-130.607347030471z" style="fill:rgb(127,0,127)"/><path d="M-85.62105028519179,134.24377861175108L-32.157132845119534,134.29675414310844L-31.077092761827195,134.24377861175108z" style="fill:rgb(127,254,127)"/><path d="M-31.077092761827195,134.24377861175108L-32.15714342554697,137.72299401811614L-31.07710298286032,137.6686658842574zM-32.15631464648582,-130.65896736865676L-31.076292135122255,-134.03205783722086L-32.15630406660374,-134.08503063849957z" style="fill:rgb(173,127,246)"/><path d="M-85.65268507145869,-130.65896736865676L-31.076302355628748,-130.60734703047103L-32.15631464648582,-130.65896736865676z" style="fill:rgb(127,0,127)"/><path d="M-32.157132845119534,134.29675414310844L-85.62105028519179,134.24377861175108L-85.65486445397423,134.29675414310847z" style="fill:rgb(127,254,127)"/><path d="M-32.15714342554697,137.72299401811614L-31.077092761827195,134.24377861175108L-32.157132845119534,134.29675414310844z" style="fill:rgb(173,127,246)"/><path d="M31.622533079401077,-130.6309111562845L32.67529620057346,-134.11830733123176L31.622522677373,-134.0562393478034z" style="fill:rgb(73,127,243)"/><path d="M85.63430763986557,-130.63091115628453L32.67530695387731,-130.69139446504275L31.622533079401077,-130.6309111562845z" style="fill:rgb(127,0,127)"/><path d="M32.67613856414695,134.33003255138493L85.63648608726372,134.26796136845118L31.623337523633914,134.26796136845118z" style="fill:rgb(127,254,127)"/><path d="M31.62334792619808,137.69346608935814L32.67613856414695,134.33003255138493L31.623337523633914,134.26796136845118zM32.67529620057346,-134.11830733123176L31.622533079401077,-130.6309111562845L32.67530695387731,-130.69139446504275z" style="fill:rgb(73,127,243)"/><path d="M32.67530695387731,-130.69139446504275L85.63430763986557,-130.63091115628453L85.67392552750039,-130.69139446504275z" style="fill:rgb(127,0,127)"/><path d="M85.63648608726372,134.26796136845118L32.67613856414695,134.33003255138493L85.6761059910659,134.3300325513849z" style="fill:rgb(127,254,127)"/><path d="M32.67613856414695,134.33003255138493L31.62334792619808,137.69346608935814L32.67614931800526,137.75712211034113z" style="fill:rgb(73,127,243)"/><path d="M-32.15630406660374,-134.08503063849957L-33.177234569846604,-130.72805436315298L-32.15631464648582,-130.65896736865676z" style="fill:rgb(188,127,239)"/><path d="M-32.15631464648582,-130.65896736865676L-85.69793856107711,-130.72805436315295L-85.65268507145869,-130.65896736865676z" style="fill:rgb(127,0,127)"/><path d="M-85.65486445397423,134.29675414310847L-33.17807919121165,134.3676548860698L-32.157132845119534,134.29675414310844z" style="fill:rgb(127,254,127)"/><path d="M-32.157132845119534,134.29675414310844L-33.17809011332129,137.79570504067246L-32.15714342554697,137.72299401811614zM-33.177234569846604,-130.72805436315298L-32.15630406660374,-134.08503063849957L-33.17722364830025,-134.15592772592495z" style="fill:rgb(188,127,239)"/><path d="M-85.69793856107711,-130.72805436315295L-32.15631464648582,-130.65896736865676L-33.177234569846604,-130.72805436315298z" style="fill:rgb(127,0,127)"/><path d="M-33.17807919121165,134.3676548860698L-85.65486445397423,134.29675414310847L-85.70012024712754,134.3676548860698z" style="fill:rgb(127,254,127)"/><path d="M-33.17809011332129,137.79570504067246L-32.157132845119534,134.29675414310844L-33.17807919121165,134.3676548860698z" style="fill:rgb(188,127,239)"/><path d="M32.67530695387731,-130.69139446504275L33.65987424987033,-134.19773041228132L32.67529620057346,-134.11830733123176z" style="fill:rgb(58,127,234)"/><path d="M85.67392552750039,-130.69139446504275L33.659885333749465,-130.7687897737023L32.67530695387731,-130.69139446504275z" style="fill:rgb(127,0,127)"/><path d="M33.660742509180444,134.40945972872586L85.6761059910659,134.3300325513849L32.67613856414695,134.33003255138493z" style="fill:rgb(127,254,127)"/><path d="M32.67614931800526,137.75712211034113L33.660742509180444,134.40945972872586L32.67613856414695,134.33003255138493z" style="fill:rgb(58,127,234)"/><path d="M-86.77833244223763,150.51990947954317L-83.52757777666429,-144.6770030425381L-86.77582554884451,-150.30729920913527z" style="fill:rgb(255,127,127)"/><path d="M33.65987424987033,-134.19773041228132L32.67530695387731,-130.69139446504275L33.659885333749465,-130.7687897737023z" style="fill:rgb(58,127,234)"/><path d="M33.659885333749465,-130.7687897737023L85.67392552750039,-130.69139446504275L85.72462114427283,-130.7687897737023z" style="fill:rgb(127,0,127)"/><path d="M85.6761059910659,134.3300325513849L33.660742509180444,134.40945972872586L85.72680418911513,134.40945972872584z" style="fill:rgb(127,254,127)"/><path d="M33.660742509180444,134.40945972872586L32.67614931800526,137.75712211034113L33.660753593631426,137.83857726924452z" style="fill:rgb(58,127,234)"/><path d="M-33.17722364830025,-134.15592772592495L-34.12112818637942,-130.8134284309969L-33.177234569846604,-130.72805436315298z" style="fill:rgb(203,127,230)"/><path d="M-33.177234569846604,-130.72805436315298L-85.7538604392979,-130.8134284309969L-85.69793856107711,-130.72805436315295z" style="fill:rgb(127,0,127)"/><path d="M-85.70012024712754,134.3676548860698L-34.12199740410463,134.45527029134013L-33.17807919121165,134.3676548860698z" style="fill:rgb(127,254,127)"/><path d="M-33.17807919121165,134.3676548860698L-34.122008644279035,137.88555749419103L-33.17809011332129,137.79570504067246zM-34.12112818637942,-130.8134284309969L-33.17722364830025,-134.15592772592495L-34.121116946785065,-134.2435386112092z" style="fill:rgb(203,127,230)"/><path d="M-85.7538604392979,-130.8134284309969L-33.177234569846604,-130.72805436315298L-34.12112818637942,-130.8134284309969z" style="fill:rgb(127,0,127)"/><path d="M-34.12199740410463,134.45527029134013L-85.70012024712754,134.3676548860698L-85.75604497361621,134.45527029134016z" style="fill:rgb(127,254,127)"/><path d="M-34.122008644279035,137.88555749419103L-33.17807919121165,134.3676548860698L-34.12199740410463,134.45527029134013z" style="fill:rgb(203,127,230)"/><path d="M33.659885333749465,-130.7687897737023L34.55891042983427,-134.29315325901567L33.65987424987033,-134.19773041228132z" style="fill:rgb(45,127,224)"/><path d="M85.72462114427283,-130.7687897737023L34.5589218178431,-130.8617763536959L33.659885333749465,-130.7687897737023z" style="fill:rgb(127,0,127)"/><path d="M34.55980251325959,134.5048875001536L85.72680418911513,134.40945972872584L33.660742509180444,134.40945972872586z" style="fill:rgb(127,254,127)"/><path d="M33.660753593631426,137.83857726924452L34.55980251325959,134.5048875001536L33.660742509180444,134.40945972872586zM34.55891042983427,-134.29315325901567L33.659885333749465,-130.7687897737023L34.5589218178431,-130.8617763536959z" style="fill:rgb(45,127,224)"/><path d="M34.5589218178431,-130.8617763536959L85.72462114427283,-130.7687897737023L85.78552938413875,-130.8617763536959z" style="fill:rgb(127,0,127)"/><path d="M85.72680418911513,134.40945972872584L34.55980251325959,134.5048875001536L85.78771553227507,134.50488750015356z" style="fill:rgb(127,254,127)"/><path d="M34.55980251325959,134.5048875001536L33.660753593631426,137.83857726924452L34.55981390185636,137.9364415588869z" style="fill:rgb(45,127,224)"/><path d="M-34.121116946785065,-134.2435386112092L-34.971318719638354,-130.91362644309382L-34.12112818637942,-130.8134284309969z" style="fill:rgb(216,127,219)"/><path d="M-34.12112818637942,-130.8134284309969L-85.81949232462273,-130.91362644309382L-85.7538604392979,-130.8134284309969z" style="fill:rgb(127,0,127)"/><path d="M-85.75604497361621,134.45527029134016L-34.9722102773695,134.55809881967264L-34.12199740410463,134.45527029134013z" style="fill:rgb(127,254,127)"/><path d="M-34.12199740410463,134.45527029134013L-34.97222180643097,137.9910115012596L-34.122008644279035,137.88555749419103zM-34.971318719638354,-130.91362644309382L-34.121116946785065,-134.2435386112092L-34.97130719117229,-134.34636183096575z" style="fill:rgb(216,127,219)"/><path d="M-85.81949232462273,-130.91362644309382L-34.12112818637942,-130.8134284309969L-34.971318719638354,-130.91362644309382z" style="fill:rgb(127,0,127)"/><path d="M-34.9722102773695,134.55809881967264L-85.75604497361621,134.45527029134016L-85.82168020413859,134.55809881967267z" style="fill:rgb(127,254,127)"/><path d="M-34.97222180643097,137.9910115012596L-34.12199740410463,134.45527029134013L-34.9722102773695,134.55809881967264z" style="fill:rgb(216,127,219)"/><path d="M34.5589218178431,-130.8617763536959L35.35646585498491,-134.40293591658494L34.55891042983427,-134.29315325901567z" style="fill:rgb(32,127,213)"/><path d="M85.78552938413875,-130.8617763536959L35.35647751532481,-130.96875612032892L34.5589218178431,-130.8617763536959z" style="fill:rgb(127,0,127)"/><path d="M35.35737927157396,134.6146758278411L85.78771553227507,134.50488750015356L34.55980251325959,134.5048875001536z" style="fill:rgb(127,254,127)"/><path d="M34.55981390185636,137.9364415588869L35.35737927157396,134.6146758278411L34.55980251325959,134.5048875001536zM35.35646585498491,-134.40293591658494L34.5589218178431,-130.8617763536959L35.35647751532481,-130.96875612032892z" style="fill:rgb(32,127,213)"/><path d="M35.35647751532481,-130.96875612032892L85.78552938413875,-130.8617763536959L85.85560346673581,-130.96875612032898z" style="fill:rgb(127,0,127)"/><path d="M85.78771553227507,134.50488750015356L35.35737927157396,134.6146758278411L85.85779318789544,134.6146758278411z" style="fill:rgb(127,254,127)"/><path d="M35.35737927157396,134.6146758278411L34.55981390185636,137.9364415588869L35.35739093251636,138.0490330670488z" style="fill:rgb(32,127,213)"/><path d="M-34.97130719117229,-134.34636183096575L-35.71266887490631,-131.0269249482035L-34.971318719638354,-130.91362644309382z" style="fill:rgb(227,127,206)"/><path d="M-34.971318719638354,-130.91362644309382L-85.89370531886496,-131.02692494820346L-85.81949232462273,-130.91362644309382z" style="fill:rgb(127,0,127)"/><path d="M-85.82168020413859,134.55809881967267L-35.713580119940275,134.67437177542172L-34.9722102773695,134.55809881967264z" style="fill:rgb(127,254,127)"/><path d="M-34.9722102773695,134.55809881967264L-35.71359190358579,138.11025320687253L-34.97222180643097,137.9910115012596zM-35.71266887490631,-131.0269249482035L-34.97130719117229,-134.34636183096575L-35.712657091869886,-134.46262877917079z" style="fill:rgb(227,127,206)"/><path d="M-85.89370531886496,-131.02692494820346L-34.971318719638354,-130.91362644309382L-35.71266887490631,-131.0269249482035z" style="fill:rgb(127,0,127)"/><path d="M-35.713580119940275,134.67437177542172L-85.82168020413859,134.55809881967267L-85.89589698403285,134.67437177542172z" style="fill:rgb(127,254,127)"/><path d="M-35.71359190358579,138.11025320687253L-34.9722102773695,134.55809881967264L-35.713580119940275,134.67437177542172z" style="fill:rgb(227,127,206)"/><path d="M35.35647751532481,-130.96875612032892L36.03827646032027,-134.52518194039982L35.35646585498491,-134.40293591658494z" style="fill:rgb(22,127,199)"/><path d="M85.85560346673581,-130.96875612032898L36.03828835631882,-131.0878810476767L35.35647751532481,-130.96875612032892z" style="fill:rgb(127,0,127)"/><path d="M36.03920833732908,134.73692817093757L85.85779318789544,134.6146758278411L35.35737927157396,134.6146758278411z" style="fill:rgb(127,254,127)"/><path d="M35.35739093251636,138.0490330670488L36.03920833732908,134.73692817093757L35.35737927157396,134.6146758278411zM36.03827646032027,-134.52518194039982L35.35647751532481,-130.96875612032892L36.03828835631882,-131.0878810476767z" style="fill:rgb(22,127,199)"/><path d="M36.03828835631882,-131.0878810476767L85.85560346673581,-130.96875612032898L85.93363289473938,-131.08788104767672z" style="fill:rgb(127,0,127)"/><path d="M85.85779318789544,134.6146758278411L36.03920833732908,134.73692817093757L85.9358265979924,134.73692817093757z" style="fill:rgb(127,254,127)"/><path d="M36.03920833732908,134.73692817093757L35.35739093251636,138.0490330670488L36.039220233942864,138.17440682929941z" style="fill:rgb(22,127,199)"/><path d="M-35.712657091869886,-134.46262877917079L-36.33185519593482,-131.15136314022612L-35.71266887490631,-131.0269249482035z" style="fill:rgb(237,127,192)"/><path d="M-35.71266887490631,-131.0269249482035L-85.97521505122337,-131.15136314022612L-85.89370531886496,-131.02692494820346z" style="fill:rgb(127,0,127)"/><path d="M-85.89589698403285,134.67437177542172L-36.33278311988771,134.80207687664847L-35.713580119940275,134.67437177542172z" style="fill:rgb(127,254,127)"/><path d="M-35.713580119940275,134.67437177542172L-36.332795119214765,138.2412189503402L-35.71359190358579,138.11025320687253zM-36.33185519593482,-131.15136314022612L-35.712657091869886,-134.46262877917079L-36.331843197228594,-134.5903272761984z" style="fill:rgb(237,127,192)"/><path d="M-85.97521505122337,-131.15136314022612L-35.71266887490631,-131.0269249482035L-36.33185519593482,-131.15136314022612z" style="fill:rgb(127,0,127)"/><path d="M-36.33278311988771,134.80207687664847L-85.89589698403285,134.67437177542172L-85.97741087802535,134.8020768766485z" style="fill:rgb(127,254,127)"/><path d="M-36.332795119214765,138.2412189503402L-35.713580119940275,134.67437177542172L-36.33278311988771,134.80207687664847z" style="fill:rgb(237,127,192)"/><path d="M36.03828835631882,-131.0878810476767L36.59201516915283,-134.6577755403418L36.03827646032027,-134.52518194039982z" style="fill:rgb(13,127,185)"/><path d="M85.93363289473938,-131.08788104767672L36.592027259833046,-131.2170893644531L36.03828835631882,-131.0878810476767z" style="fill:rgb(127,0,127)"/><path d="M36.59296229663811,134.8695286315503L85.9358265979924,134.73692817093757L36.03920833732908,134.73692817093757z" style="fill:rgb(127,254,127)"/><path d="M36.039220233942864,138.17440682929941L36.59296229663811,134.8695286315503L36.03920833732908,134.73692817093757zM36.59201516915283,-134.6577755403418L36.03828835631882,-131.0878810476767L36.592027259833046,-131.2170893644531z" style="fill:rgb(13,127,185)"/><path d="M36.592027259833046,-131.2170893644531L85.93363289473938,-131.08788104767672L86.01826716294704,-131.2170893644531z" style="fill:rgb(127,0,127)"/><path d="M85.9358265979924,134.73692817093757L36.59296229663811,134.8695286315503L86.02046518944965,134.8695286315503z" style="fill:rgb(127,254,127)"/><path d="M36.59296229663811,134.8695286315503L36.039220233942864,138.17440682929941L36.59297438794424,138.31039292341003z" style="fill:rgb(13,127,185)"/><path d="M-36.331843197228594,-134.5903272761984L-36.817602214962506,-131.28477475015757L-36.33185519593482,-131.15136314022612z" style="fill:rgb(244,127,177)"/><path d="M-36.33185519593482,-131.15136314022612L-86.06260256820876,-131.28477475015757L-85.97521505122337,-131.15136314022612z" style="fill:rgb(127,0,127)"/><path d="M-85.97741087802535,134.8020768766485L-36.81854350080732,134.93899098419868L-36.33278311988771,134.80207687664847z" style="fill:rgb(127,254,127)"/><path d="M-36.33278311988771,134.80207687664847L-36.81855567292226,138.38162883002323L-36.332795119214765,138.2412189503402zM-36.817602214962506,-131.28477475015757L-36.331843197228594,-134.5903272761984L-36.817590043478,-134.72723429635286z" style="fill:rgb(244,127,177)"/><path d="M-86.06260256820876,-131.28477475015757L-36.33185519593482,-131.15136314022612L-36.817602214962506,-131.28477475015757z" style="fill:rgb(127,0,127)"/><path d="M-36.81854350080732,134.93899098419868L-85.97741087802535,134.8020768766485L-86.06480286113107,134.9389909841987z" style="fill:rgb(127,254,127)"/><path d="M-36.81855567292226,138.38162883002323L-36.33278311988771,134.80207687664847L-36.81854350080732,134.93899098419868z" style="fill:rgb(244,127,177)"/><path d="M36.592027259833046,-131.2170893644531L37.007519644810614,-134.79840100199573L36.59201516915283,-134.6577755403418z" style="fill:rgb(7,127,169)"/><path d="M86.01826716294704,-131.2170893644531L37.00753188554124,-131.3541244793933L36.592027259833046,-131.2170893644531z" style="fill:rgb(127,0,127)"/><path d="M37.00847852656995,135.01016137684027L86.02046518944965,134.8695286315503L36.59296229663811,134.8695286315503z" style="fill:rgb(127,254,127)"/><path d="M36.59297438794424,138.31039292341003L37.00847852656995,135.01016137684027L36.59296229663811,134.8695286315503zM37.007519644810614,-134.79840100199573L36.592027259833046,-131.2170893644531L37.00753188554124,-131.3541244793933z" style="fill:rgb(7,127,169)"/><path d="M37.00753188554124,-131.3541244793933L86.01826716294704,-131.2170893644531L86.10802815481716,-131.3541244793933z" style="fill:rgb(127,0,127)"/><path d="M86.02046518944965,134.8695286315503L37.00847852656995,135.01016137684027L86.1102307711008,135.01016137684024z" style="fill:rgb(127,254,127)"/><path d="M37.00847852656995,135.01016137684027L36.59297438794424,138.31039292341003L37.00849076793491,138.45461638734434z" style="fill:rgb(7,127,169)"/><path d="M-36.817590043478,-134.72723429635286L-37.16090884106899,-131.42482932992422L-36.817602214962506,-131.28477475015757z" style="fill:rgb(250,127,161)"/><path d="M-36.817602214962506,-131.28477475015757L-86.15434137545746,-131.42482932992417L-86.06260256820876,-131.28477475015757z" style="fill:rgb(127,0,127)"/><path d="M-86.06480286113107,134.9389909841987L-37.161859916706135,135.08272246924176L-36.81854350080732,134.93899098419868z" style="fill:rgb(127,254,127)"/><path d="M-36.81854350080732,134.93899098419868L-37.16187221541683,138.52903015262282L-36.81855567292226,138.38162883002323zM-37.16090884106899,-131.42482932992422L-36.817590043478,-134.72723429635286L-37.16089654299595,-134.87095833334996z" style="fill:rgb(250,127,161)"/><path d="M-86.15434137545746,-131.42482932992417L-36.817602214962506,-131.28477475015757L-37.16090884106899,-131.42482932992422z" style="fill:rgb(127,0,127)"/><path d="M-37.161859916706135,135.08272246924176L-86.06480286113107,134.9389909841987L-86.15654636176369,135.08272246924176z" style="fill:rgb(127,254,127)"/><path d="M-37.16187221541683,138.52903015262282L-36.81854350080732,134.93899098419868L-37.161859916706135,135.08272246924176z" style="fill:rgb(250,127,161)"/><path d="M37.00753188554124,-131.3541244793933L37.27699017738547,-134.94458995951516L37.007519644810614,-134.79840100199573z" style="fill:rgb(2,127,152)"/><path d="M86.10802815481716,-131.3541244793933L37.277002520608484,-131.4965810471808L37.00753188554124,-131.3541244793933z" style="fill:rgb(127,0,127)"/><path d="M37.27795708794815,135.15635791420826L86.1102307711008,135.01016137684024L37.00847852656995,135.01016137684027z" style="fill:rgb(127,254,127)"/><path d="M37.00849076793491,138.45461638734434L37.27795708794815,135.15635791420826L37.00847852656995,135.01016137684027zM37.27699017738547,-134.94458995951516L37.00753188554124,-131.3541244793933L37.277002520608484,-131.4965810471808z" style="fill:rgb(2,127,152)"/><path d="M37.277002520608484,-131.4965810471808L86.10802815481716,-131.3541244793933L86.20134031665681,-131.49658104718083z" style="fill:rgb(127,0,127)"/><path d="M86.1102307711008,135.01016137684024L37.27795708794815,135.15635791420826L86.20354770937975,135.15635791420826z" style="fill:rgb(127,254,127)"/><path d="M37.27795708794815,135.15635791420826L37.00849076793491,138.45461638734434L37.27796943181151,138.6045457015007z" style="fill:rgb(2,127,152)"/><path d="M-37.16089654299595,-134.87095833334996L-37.35522824297262,-131.56905898488483L-37.16090884106899,-131.42482932992422z" style="fill:rgb(253,127,144)"/><path d="M-37.16090884106899,-131.42482932992422L-86.24881494810342,-131.56905898488483L-86.15434137545746,-131.42482932992417z" style="fill:rgb(127,0,127)"/><path d="M-86.15654636176369,135.08272246924176L-37.35618534030623,135.2307386474776L-37.161859916706135,135.08272246924176z" style="fill:rgb(127,254,127)"/><path d="M-37.161859916706135,135.08272246924176L-37.35619771688606,138.68082556785262L-37.16187221541683,138.52903015262282zM-37.35522824297262,-131.56905898488483L-37.16089654299595,-134.87095833334996L-37.35521586703519,-135.01896683321738z" style="fill:rgb(253,127,144)"/><path d="M-86.24881494810342,-131.56905898488483L-37.16090884106899,-131.42482932992422L-37.35522824297262,-131.56905898488483z" style="fill:rgb(127,0,127)"/><path d="M-37.35618534030623,135.2307386474776L-86.15654636176369,135.08272246924176L-86.2510247729312,135.23073864747764z" style="fill:rgb(127,254,127)"/><path d="M-37.35619771688606,138.68082556785262L-37.161859916706135,135.08272246924176L-37.35618534030623,135.2307386474776z" style="fill:rgb(253,127,144)"/><path d="M37.277002520608484,-131.4965810471808L37.39516177684974,-135.0937607595788L37.27699017738547,-134.94458995951516z" style="fill:rgb(0,127,136)"/><path d="M86.20134031665681,-131.49658104718083L37.39517417287914,-131.64194332739095L37.277002520608484,-131.4965810471808z" style="fill:rgb(127,0,127)"/><path d="M37.396132824044926,135.30553645719075L86.20354770937975,135.15635791420826L37.27795708794815,135.15635791420826z" style="fill:rgb(127,254,127)"/><path d="M37.27796943181151,138.6045457015007L37.396132824044926,135.30553645719075L37.27795708794815,135.15635791420826zM37.39516177684974,-135.0937607595788L37.277002520608484,-131.4965810471808L37.39517417287914,-131.64194332739095z" style="fill:rgb(0,127,136)"/><path d="M37.39517417287914,-131.64194332739095L86.20134031665681,-131.49658104718083L86.29655578356729,-131.64194332739098z" style="fill:rgb(127,0,127)"/><path d="M86.20354770937975,135.15635791420826L37.396132824044926,135.30553645719075L86.29876805548822,135.30553645719075z" style="fill:rgb(127,254,127)"/><path d="M37.396132824044926,135.30553645719075L37.27796943181151,138.6045457015007L37.39614522071811,138.75753315972008z" style="fill:rgb(0,127,136)"/><path d="M-37.35521586703519,-135.01896683321738L-37.39660521706777,-131.71490840112776L-37.35522824297262,-131.56905898488483z" style="fill:rgb(255,127,127)"/><path d="M-37.35522824297262,-131.56905898488483L-86.34434949974992,-131.71490840112773L-86.24881494810342,-131.56905898488483z" style="fill:rgb(127,0,127)"/><path d="M-86.2510247729312,135.23073864747764L-37.39756443588396,135.3804171197352L-37.35618534030623,135.2307386474776z" style="fill:rgb(127,254,127)"/><path d="M-37.35618534030623,135.2307386474776L-37.397576839897816,138.83432571989468L-37.35619771688606,138.68082556785262zM-37.39660521706777,-131.71490840112776L-37.35521586703519,-135.01896683321738L-37.39659281369844,-135.16863753231726z" style="fill:rgb(255,127,127)"/><path d="M-86.34434949974992,-131.71490840112773L-37.35522824297262,-131.56905898488483L-37.39660521706777,-131.71490840112776z" style="fill:rgb(127,0,127)"/><path d="M-37.39756443588396,135.3804171197352L-86.2510247729312,135.23073864747764L-86.34656422283066,135.3804171197352z" style="fill:rgb(127,254,127)"/><path d="M-37.397576839897816,138.83432571989468L-37.35618534030623,135.2307386474776L-37.39756443588396,135.3804171197352z" style="fill:rgb(255,127,127)"/><path d="M86.39198182748734,-131.78762708850397L37.39517417287914,-131.64194332739095L86.29655578356729,-131.64194332739098z" style="fill:rgb(127,0,127)"/><path d="M37.396132824044926,135.30553645719075L86.3941989948016,135.45504492952924L86.29876805548822,135.30553645719075z" style="fill:rgb(127,254,127)"/><path d="M37.39517417287914,-131.64194332739095L86.39198182748734,-131.78762708850397L37.35944374546249,-131.78762708850397z" style="fill:rgb(127,0,127)"/><path d="M86.3941989948016,135.45504492952924L37.396132824044926,135.30553645719075L37.36040253973719,135.45504492952927z" style="fill:rgb(127,254,127)"/><path d="M-37.39660521706777,-131.71490840112776L-86.43924047275478,-131.85977528730615L-86.34434949974992,-131.71490840112773z" style="fill:rgb(127,0,127)"/><path d="M-86.34656422283066,135.3804171197352L-37.28475160200861,135.5290872754963L-37.39756443588396,135.3804171197352z" style="fill:rgb(127,254,127)"/><path d="M-86.43924047275478,-131.85977528730615L-37.39660521706777,-131.71490840112776L-37.2837942257698,-131.85977528730615z" style="fill:rgb(127,0,127)"/><path d="M-37.28475160200861,135.5290872754963L-86.34656422283066,135.3804171197352L-86.44146006645903,135.52908727549632z" style="fill:rgb(127,254,127)"/><path d="M86.4859107603952,-131.93102526012697L37.35944374546249,-131.78762708850397L86.39198182748734,-131.78762708850397z" style="fill:rgb(127,0,127)"/><path d="M37.36040253973719,135.45504492952927L86.4881327515842,135.60220781589115L86.3941989948016,135.45504492952924z" style="fill:rgb(127,254,127)"/><path d="M37.35944374546249,-131.78762708850397L86.4859107603952,-131.93102526012697L37.16993837509384,-131.93102526012694z" style="fill:rgb(127,0,127)"/><path d="M86.4881327515842,135.60220781589115L37.36040253973719,135.45504492952927L37.17089334307468,135.60220781589115z" style="fill:rgb(127,254,127)"/><path d="M-37.2837942257698,-131.85977528730615L-86.53178442635937,-132.0010590571822L-86.43924047275478,-131.85977528730615z" style="fill:rgb(127,0,127)"/><path d="M-86.44146006645903,135.52908727549632L-37.01926990451676,135.6740802535166L-37.28475160200861,135.5290872754963z" style="fill:rgb(127,254,127)"/><path d="M-86.53178442635937,-132.0010590571822L-37.2837942257698,-131.85977528730615L-37.01831832747113,-132.00105905718226z" style="fill:rgb(127,0,127)"/><path d="M-37.01926990451676,135.6740802535166L-86.44146006645903,135.52908727549632L-86.53400877537096,135.6740802535166z" style="fill:rgb(127,254,127)"/><path d="M86.57665090233887,-132.06955521085362L37.16993837509384,-131.93102526012694L86.4859107603952,-131.93102526012697z" style="fill:rgb(127,0,127)"/><path d="M37.17089334307468,135.60220781589115L86.57887755861519,135.74437468095053L86.4881327515842,135.60220781589115z" style="fill:rgb(127,254,127)"/><path d="M37.16993837509384,-131.93102526012694L86.57665090233887,-132.06955521085362L36.82956277045392,-132.06955521085362z" style="fill:rgb(127,0,127)"/><path d="M86.57887755861519,135.74437468095053L37.17089334307468,135.60220781589115L36.83050998631693,135.74437468095056z" style="fill:rgb(127,254,127)"/><path d="M-37.01831832747113,-132.00105905718226L-86.62030761213056,-132.13620445480197L-86.53178442635937,-132.0010590571822z" style="fill:rgb(127,0,127)"/><path d="M-86.53400877537096,135.6740802535166L-36.60540367916753,135.81277371234646L-37.01926990451676,135.6740802535166z" style="fill:rgb(127,254,127)"/><path d="M-86.62030761213056,-132.13620445480197L-37.01831832747113,-132.00105905718226L-36.6044617779235,-132.136204454802z" style="fill:rgb(127,0,127)"/><path d="M-36.60540367916753,135.81277371234646L-86.53400877537096,135.6740802535166L-86.62253651460694,135.81277371234646z" style="fill:rgb(127,254,127)"/><path d="M86.66255713284563,-132.20070539008304L36.82956277045392,-132.06955521085362L86.57665090233887,-132.06955521085362z" style="fill:rgb(127,0,127)"/><path d="M36.83050998631693,135.74437468095056L86.66478821019881,135.87896803577115L86.57887755861519,135.74437468095053z" style="fill:rgb(127,254,127)"/><path d="M36.82956277045392,-132.06955521085362L86.66255713284563,-132.20070539008304L36.34397986496202,-132.20070539008304z" style="fill:rgb(127,0,127)"/><path d="M86.66478821019881,135.87896803577115L36.83050998631693,135.74437468095056L36.34491551967945,135.87896803577118z" style="fill:rgb(127,254,127)"/><path d="M-36.6044617779235,-132.136204454802L-86.70320287651005,-132.26275789238744L-86.62030761213056,-132.13620445480197z" style="fill:rgb(127,0,127)"/><path d="M-86.62253651460694,135.81277371234646L-36.05016823656952,135.94264964736502L-36.60540367916753,135.81277371234646z" style="fill:rgb(127,254,127)"/><path d="M-86.70320287651005,-132.26275789238744L-36.6044617779235,-132.136204454802L-36.049239734480985,-132.26275789238744z" style="fill:rgb(127,0,127)"/><path d="M-36.05016823656952,135.94264964736502L-86.62253651460694,135.81277371234646L-86.70543604718303,135.94264964736504z" style="fill:rgb(127,254,127)"/><path d="M86.74206092460635,-132.3220811794446L36.34397986496202,-132.20070539008304L86.66255713284563,-132.20070539008304z" style="fill:rgb(127,0,127)"/><path d="M36.34491551967945,135.87896803577118L86.74429609744814,136.0035303930846L86.66478821019881,135.87896803577115z" style="fill:rgb(127,254,127)"/><path d="M36.34397986496202,-132.20070539008304L86.74206092460635,-132.3220811794446L35.72153246703376,-132.3220811794446z" style="fill:rgb(127,0,127)"/><path d="M86.74429609744814,136.0035303930846L36.34491551967945,135.87896803577118L35.72245294088914,136.00353039308465z" style="fill:rgb(127,254,127)"/><path d="M-36.049239734480985,-132.26275789238744L-86.77597499419835,-132.37385665928042L-86.70320287651005,-132.26275789238744z" style="fill:rgb(127,0,127)"/><path d="M-86.77821191520233,136.0566651744987L-36.05016823656952,135.94264964736502L-86.70543604718303,135.94264964736504z" style="fill:rgb(127,254,127)"/><path d="M-86.77597499419835,-132.37385665928042L-36.049239734480985,-132.26275789238744L-35.389302719927834,-132.37385665928042zM86.77597499419825,-132.37385665928048L35.72153246703376,-132.3220811794446L86.74206092460635,-132.3220811794446z" style="fill:rgb(127,0,127)"/><path d="M-36.05016823656952,135.94264964736502L-86.77821191520233,136.0566651744987L-35.39021498941915,136.05666517449868zM35.72245294088914,136.00353039308465L86.77821191520243,136.05666517449865L86.74429609744814,136.0035303930846z" style="fill:rgb(127,254,127)"/><path d="M35.72153246703376,-132.3220811794446L86.77597499419825,-132.37385665928048L35.367276378008356,-132.37385665928045z" style="fill:rgb(127,0,127)"/><path d="M86.77821191520243,136.05666517449865L35.72245294088914,136.00353039308465L35.368188079702286,136.05666517449865z" style="fill:rgb(127,254,127)"/><path d="M83.30490822648085,-135.8448503606525L86.77582554884441,-150.30729920913532L83.30479252689064,-150.30729920913532zM86.77582554884441,-150.30729920913532L83.30490822648085,-135.8448503606525L86.77594606925089,-135.8448503606525zM-86.77597499419835,-132.37385665928042L-35.38929092364759,-135.84485036065246L-86.77594606925099,-135.84485036065243zM35.367276378008356,-132.37385665928045L86.77594606925089,-135.8448503606525L35.36726458907014,-135.8448503606525zM-35.38929092364759,-135.84485036065246L-86.77597499419835,-132.37385665928042L-35.389302719927834,-132.37385665928042zM86.77594606925089,-135.8448503606525L35.367276378008356,-132.37385665928045L86.77597499419825,-132.37385665928048zM-90.24946573992712,150.51990947954317L-86.77582554884451,-150.30729920913527L-90.24685857079828,-150.30729920913527zM83.30708343859433,136.05666517449865L86.77597499419825,-132.37385665928048L83.30493599443031,-132.37385665928048zM86.77597499419825,-132.37385665928048L83.30708343859433,136.05666517449865L86.77821191520243,136.05666517449865zM-86.77582554884451,-150.30729920913527L-90.24946573992712,150.51990947954317L-86.77833244223763,150.51990947954317zM-86.77824084166029,139.52784014363846L-35.39021498941915,136.05666517449868L-86.77821191520233,136.0566651744987zM35.36819986925617,139.52784014363843L86.77821191520243,136.05666517449865L35.368188079702286,136.05666517449865zM-35.39021498941915,136.05666517449868L-86.77824084166029,139.52784014363846L-35.390226786315424,139.52784014363846zM86.77821191520243,136.05666517449865L35.36819986925617,139.52784014363843L86.77824084166039,139.5278401436384zM83.3071991445482,150.51990947954312L86.77824084166039,139.5278401436384L83.30711120799396,139.5278401436384zM86.77824084166039,139.5278401436384L83.3071991445482,150.51990947954312L86.77833244223771,150.51990947954312z" style="fill:rgb(127,127,254)"/></svg>
