<?xml version="1.0" encoding="UTF-8"?>
<!-- Generated by jsxcad -->
<!DOCTYPE svg PUBLIC "-//W3C//DTD SVG 1.1 Tiny//EN" "http://www.w3.org/Graphics/SVG/1.1/DTD/svg11-tiny.dtd">
<svg viewBox="-250 -250 500 500" width="500" height="500" xmlns="http://www.w3.org/2000/svg"><path d="M-62.731073561163406,108.83799387727156L60.22057298719326,-108.62745816517142L-62.72976352832639,-108.62745816517136zM60.22057298719326,-108.62745816517142L-62.731073561163406,108.83799387727156L60.22183061871693,108.83799387727151z" style="fill:rgb(127,127,254)"/><path d="M60.077065094832335,108.57661168006186L62.58312408672064,-112.89317544953555L60.075813502346875,-108.36608687178081zM62.58312408672064,-112.89317544953555L60.077065094832335,108.57661168006186L62.583189385667076,-102.0281562499632zM62.583189385667076,-102.0281562499632L60.077065094832335,108.57661168006186L62.583205057434505,-99.42054826831917zM62.583205057434505,-99.42054826831917L60.077065094832335,108.57661168006186L62.58441703122257,102.2384246878216zM62.58441703122257,102.2384246878216L60.077065094832335,108.57661168006186L62.58443270360484,104.84613497330088zM62.58443270360484,104.84613497330088L60.077065094832335,108.57661168006186L62.58448233286716,113.1038928269278z" style="fill:rgb(0,127,127)"/><path d="M-65.08351430448174,112.91555785274448L62.478820009870255,-112.70484864316961L-65.08210417694826,-112.70484864316957zM62.478820009870255,-112.70484864316961L-65.08351430448174,112.91555785274448L62.48017373230254,112.91555785274444zM62.583205057434505,-99.42054826831917L65.19082227673654,-102.0281562499632L62.583189385667076,-102.0281562499632zM65.19082227673654,-102.0281562499632L62.583205057434505,-99.42054826831917L65.19083860149428,-99.42054826831917zM62.58443270360484,104.84613497330088L65.19210107419019,102.2384246878216L62.58441703122257,102.2384246878216zM65.19210107419019,102.2384246878216L62.58443270360484,104.84613497330088L65.19211739958838,104.84613497330088z" style="fill:rgb(127,127,254)"/><path d="M-73.1258618384722,-126.64736199285697L-62.58027614045028,108.5766116800619L-62.578972398278076,-108.36608687178077z" style="fill:rgb(255,127,127)"/><path d="M65.19083860149428,-99.42054826831917L-68.93078713343297,-105.130203055627L-65.19083860149435,-99.42054826831911z" style="fill:rgb(127,0,127)"/><path d="M-68.932198616969,108.09791086747268L65.19210107419019,102.2384246878216L-65.19210107419012,102.23842468782165z" style="fill:rgb(127,254,127)"/><path d="M27.572314853373136,-105.13020305562704L65.19083860149428,-99.42054826831917L68.93078713343289,-105.13020305562705zM-3.845649751078484e-14,-105.13020305562704L65.19083860149428,-99.42054826831917L27.572314853373136,-105.13020305562704zM-68.93078713343297,-105.130203055627L65.19083860149428,-99.42054826831917L-3.845649751078484e-14,-105.13020305562704z" style="fill:rgb(127,0,127)"/><path d="M65.19210107419019,102.2384246878216L27.57287944678765,108.09791086747263L68.93219861696907,108.09791086747262zM65.19210107419019,102.2384246878216L3.273149570958558e-14,108.09791086747265L27.57287944678765,108.09791086747263zM65.19210107419019,102.2384246878216L-68.932198616969,108.09791086747268L3.273149570958558e-14,108.09791086747265z" style="fill:rgb(127,254,127)"/><path d="M62.583189385667076,-102.0281562499632L70.20082736493325,-126.647361992857L62.58312408672064,-112.89317544953555z" style="fill:rgb(0,127,127)"/><path d="M65.19082227673654,-102.0281562499632L70.200909527919,-114.45985237760226L62.583189385667076,-102.0281562499632z" style="fill:rgb(127,0,127)"/><path d="M70.20245422784802,114.67063823058672L62.583205057434505,-99.42054826831917L62.58441703122257,102.2384246878216z" style="fill:rgb(0,127,127)"/><path d="M62.58443270360484,104.84613497330088L73.12757702902192,117.59577350833895L65.19211739958838,104.84613497330088z" style="fill:rgb(127,254,127)"/><path d="M70.20253639464201,126.85871272946206L62.58443270360484,104.84613497330088L62.58448233286716,113.1038928269278z" style="fill:rgb(0,127,127)"/><path d="M-3.845649751078484e-14,-105.13020305562704L27.57230755274765,-107.8874059606339L-3.920599808161208e-14,-107.88740596063388zM27.57230755274765,-107.8874059606339L-3.845649751078484e-14,-105.13020305562704L27.572314853373136,-105.13020305562704zM3.3481030874347866e-14,110.85522815133352L27.57287944678765,108.09791086747263L3.273149570958558e-14,108.09791086747265zM27.57287944678765,108.09791086747263L3.3481030874347866e-14,110.85522815133352L27.572886747715998,110.8552281513335z" style="fill:rgb(127,127,254)"/><path d="M27.572314853373136,-105.13020305562704L27.645507608108353,-108.17410617889682L27.57230755274765,-107.8874059606339zM-3.845649751078484e-14,-105.13020305562704L-3.603627129669823e-14,-108.1741061788968L-3.920599808161208e-14,-107.88740596063388z" style="fill:rgb(0,127,127)"/><path d="M68.93078713343289,-105.13020305562705L27.645514947549273,-105.40958341646288L27.572314853373136,-105.13020305562704zM-3.845649751078484e-14,-105.13020305562704L-69.1137873688733,-105.40958341646284L-68.93078713343297,-105.130203055627zM27.572314853373136,-105.13020305562704L-3.528478020195874e-14,-105.40958341646287L-3.845649751078484e-14,-105.13020305562704z" style="fill:rgb(127,0,127)"/><path d="M-68.932198616969,108.09791086747268L3.609227489699394e-14,108.38462299489493L3.273149570958558e-14,108.09791086747265zM27.64608254278477,108.38462299489491L68.93219861696907,108.09791086747262L27.57287944678765,108.09791086747263zM3.609227489699394e-14,108.38462299489493L27.57287944678765,108.09791086747263L3.273149570958558e-14,108.09791086747265z" style="fill:rgb(127,254,127)"/><path d="M27.572886747715998,110.8552281513335L27.64608254278477,108.38462299489491L27.57287944678765,108.09791086747263zM3.3481030874347866e-14,110.85522815133352L3.609227489699394e-14,108.38462299489493L3.273149570958558e-14,108.09791086747265zM27.645507608108353,-108.17410617889682L27.572314853373136,-105.13020305562704L27.645514947549273,-105.40958341646288zM-3.603627129669823e-14,-108.1741061788968L-3.845649751078484e-14,-105.13020305562704L-3.528478020195874e-14,-105.40958341646287z" style="fill:rgb(0,127,127)"/><path d="M27.645514947549273,-105.40958341646288L68.93078713343289,-105.13020305562705L69.11378736887323,-105.4095834164629zM-69.1137873688733,-105.40958341646284L-3.845649751078484e-14,-105.13020305562704L-3.528478020195874e-14,-105.40958341646287zM-3.528478020195874e-14,-105.40958341646287L27.572314853373136,-105.13020305562704L27.645514947549273,-105.40958341646288z" style="fill:rgb(127,0,127)"/><path d="M3.609227489699394e-14,108.38462299489493L-68.932198616969,108.09791086747268L-69.11520635696179,108.38462299489495zM68.93219861696907,108.09791086747262L27.64608254278477,108.38462299489491L69.11520635696188,108.3846229948949zM27.57287944678765,108.09791086747263L3.609227489699394e-14,108.38462299489493L27.64608254278477,108.38462299489491z" style="fill:rgb(127,254,127)"/><path d="M27.64608254278477,108.38462299489491L27.572886747715998,110.8552281513335L27.64608988253097,111.14926074431047zM3.609227489699394e-14,108.38462299489493L3.3481030874347866e-14,110.85522815133352L3.684380076963044e-14,111.14926074431048z" style="fill:rgb(0,127,127)"/><path d="M-3.528478020195874e-14,-105.40958341646287L27.645507608108353,-108.17410617889682L-3.603627129669821e-14,-108.1741061788968zM27.645507608108353,-108.17410617889682L-3.528478020195874e-14,-105.40958341646287L27.645514947549273,-105.40958341646288zM3.684380076963044e-14,111.14926074431048L27.64608254278477,108.38462299489491L3.609227489699394e-14,108.38462299489493zM27.64608254278477,108.38462299489491L3.684380076963044e-14,111.14926074431048L27.64608988253097,111.14926074431047z" style="fill:rgb(127,127,254)"/><path d="M-62.58027614045028,108.5766116800619L-73.1258618384722,-126.64736199285697L-73.12764207775201,126.85871272946208z" style="fill:rgb(255,127,127)"/><path d="M73.12596796569188,-111.53484582489902L27.645514947549273,-105.40958341646288L69.11378736887323,-105.4095834164629zM73.12596796569188,-111.53484582489902L-3.528478020195874e-14,-105.40958341646287L27.645514947549273,-105.40958341646288zM-3.528478020195874e-14,-105.40958341646287L-73.12596796569196,-111.53484582489897L-69.1137873688733,-105.40958341646284z" style="fill:rgb(127,0,127)"/><path d="M27.64608254278477,108.38462299489491L73.1275564873417,114.67063823058672L69.11520635696188,108.3846229948949zM3.609227489699394e-14,108.38462299489493L73.1275564873417,114.67063823058672L27.64608254278477,108.38462299489491zM-69.11520635696179,108.38462299489495L73.1275564873417,114.67063823058672L3.609227489699394e-14,108.38462299489493z" style="fill:rgb(127,254,127)"/><path d="M70.20082736493325,-126.647361992857L62.583189385667076,-102.0281562499632L70.200909527919,-114.45985237760226z" style="fill:rgb(0,127,127)"/><path d="M70.200909527919,-114.45985237760226L65.19082227673654,-102.0281562499632L73.12594742491562,-114.45985237760226z" style="fill:rgb(127,0,127)"/><path d="M62.583205057434505,-99.42054826831917L70.20245422784802,114.67063823058672L70.2009292470642,-111.53484582489902z" style="fill:rgb(0,127,127)"/><path d="M73.12757702902192,117.59577350833895L62.58443270360484,104.84613497330088L70.20247394786104,117.59577350833895z" style="fill:rgb(127,254,127)"/><path d="M62.58443270360484,104.84613497330088L70.20253639464201,126.85871272946206L70.20247394786104,117.59577350833895z" style="fill:rgb(0,127,127)"/><path d="M-73.12596796569196,-111.53484582489897L-3.528478020195874e-14,-105.40958341646287L73.12596796569188,-111.53484582489902z" style="fill:rgb(127,0,127)"/><path d="M73.1275564873417,114.67063823058672L-69.11520635696179,108.38462299489495L-73.12755648734162,114.67063823058676z" style="fill:rgb(127,254,127)"/><path d="M70.200909527919,-114.45985237760226L73.12586183847213,-126.647361992857L70.20082736493325,-126.647361992857zM73.12586183847213,-126.647361992857L70.200909527919,-114.45985237760226L73.12594742491562,-114.45985237760226zM-73.12596796569196,-111.53484582489897L73.12594742491562,-114.45985237760226L-73.12594742491571,-114.4598523776022zM73.12594742491562,-114.45985237760226L-73.12596796569196,-111.53484582489897L73.12596796569188,-111.53484582489902zM-76.05274776086209,126.85871272946208L-73.1258618384722,-126.64736199285697L-76.05089631201109,-126.64736199285697zM70.20245422784802,114.67063823058672L73.12596796569188,-111.53484582489902L70.2009292470642,-111.53484582489902zM73.12596796569188,-111.53484582489902L70.20245422784802,114.67063823058672L73.1275564873417,114.67063823058672zM-73.1258618384722,-126.64736199285697L-76.05274776086209,126.85871272946208L-73.12764207775201,126.85871272946208zM-73.12757702902185,117.59577350833901L73.1275564873417,114.67063823058672L-73.12755648734162,114.67063823058676zM73.1275564873417,114.67063823058672L-73.12757702902185,117.59577350833901L73.12757702902192,117.59577350833895zM70.20253639464201,126.85871272946206L73.12757702902192,117.59577350833895L70.20247394786104,117.59577350833895zM73.12757702902192,117.59577350833895L70.20253639464201,126.85871272946206L73.12764207775209,126.85871272946206z" style="fill:rgb(127,127,254)"/><path d="M-4.177723880041217e-14,-114.21072676367369L-3.915715029474921e-14,-117.5442325073574L-4.259141175403094e-14,-117.20584217282395z" style="fill:rgb(0,127,127)"/><path d="M29.951491358869394,-114.2107267636737L-3.8340627933033937e-14,-114.54047753495007L-4.177723880041217e-14,-114.21072676367369z" style="fill:rgb(127,0,127)"/><path d="M3.9213289321080965e-14,117.75515592645242L29.952157593220168,117.41675032092752L3.555352961290546e-14,117.41675032092753z" style="fill:rgb(127,254,127)"/><path d="M3.636774338822962e-14,120.4120006999879L3.9213289321080965e-14,117.75515592645242L3.555352961290546e-14,117.41675032092753zM-3.915715029474921e-14,-117.5442325073574L-4.177723880041217e-14,-114.21072676367369L-3.8340627933033937e-14,-114.54047753495007z" style="fill:rgb(0,127,127)"/><path d="M-3.8340627933033937e-14,-114.54047753495007L29.951491358869394,-114.2107267636737L30.037888940431213,-114.54047753495009z" style="fill:rgb(127,0,127)"/><path d="M29.952157593220168,117.41675032092752L3.9213289321080965e-14,117.75515592645242L30.038559023986004,117.7551559264524z" style="fill:rgb(127,254,127)"/><path d="M3.9213289321080965e-14,117.75515592645242L3.636774338822962e-14,120.4120006999879L4.0029852740394436e-14,120.7590466485657z" style="fill:rgb(0,127,127)"/><path d="M-3.8340627933033937e-14,-114.54047753495007L30.03788027575345,-117.54423250735742L-3.915715029474921e-14,-117.5442325073574zM30.03788027575345,-117.54423250735742L-3.8340627933033937e-14,-114.54047753495007L30.037888940431213,-114.54047753495009zM4.0029852740394436e-14,120.7590466485657L30.038559023986004,117.7551559264524L3.9213289321080965e-14,117.75515592645242zM30.038559023986004,117.7551559264524L4.0029852740394436e-14,120.7590466485657L30.038567689055355,120.75904664856569z" style="fill:rgb(127,127,254)"/></svg>
