<?xml version="1.0" encoding="UTF-8"?>
<!-- Generated by jsxcad -->
<!DOCTYPE svg PUBLIC "-//W3C//DTD SVG 1.1 Tiny//EN" "http://www.w3.org/Graphics/SVG/1.1/DTD/svg11-tiny.dtd">
<svg viewBox="-250 -250 500 500" width="500" height="500" xmlns="http://www.w3.org/2000/svg"><path d="M-43.20401438606793,-17.85374538595758L141.33723377352166,188.8288959569658L112.84137595843913,-59.14790279701618z" style="fill:rgb(83,212,212)"/><path d="M112.84137595843913,-59.14790279701618L142.41484520168706,191.15683953261572L113.76434186173691,-56.74749279371522zM-125.28507225304133,-167.96860017306483L-52.07137953886937,230.6388409328495L-41.98803250105138,-15.629887944786509z" style="fill:rgb(247,158,158)"/><path d="M-62.07762025837432,-52.37095443811327L124.43477751721088,152.31485748922287L98.49635889263637,-96.45584723658648z" style="fill:rgb(83,212,212)"/><path d="M98.49635889263637,-96.45584723658648L125.60651832330922,154.84613494612404L99.48288160026149,-93.89014887553623z" style="fill:rgb(247,158,158)"/><path d="M141.33723377352166,188.8288959569658L-43.20401438606793,-17.85374538595758L-53.60645770038355,228.5223151536589z" style="fill:rgb(83,212,212)"/><path d="M142.41484520168706,191.15683953261572L112.84137595843913,-59.14790279701618L141.33723377352166,188.8288959569658z" style="fill:rgb(247,158,158)"/><path d="M124.43477751721088,152.31485748922287L-62.07762025837432,-52.37095443811327L-77.63338795127451,195.39464990936986zM-165.29983499448466,81.60961071427904L-125.28507225304133,-167.96860017306483L-128.70977715184367,-166.91223803287292z" style="fill:rgb(83,212,212)"/><path d="M-52.07137953886937,230.6388409328495L141.33723377352166,188.8288959569658L-53.60645770038355,228.5223151536589z" style="fill:rgb(127,37,217)"/><path d="M125.60651832330922,154.84613494612404L98.49635889263637,-96.45584723658648L124.43477751721088,152.31485748922287zM70.19561927275684,23.36524805251249L117.06921441708654,-57.61995601573239L53.933045119622875,-223.24866842162004z" style="fill:rgb(247,158,158)"/><path d="M141.33723377352166,188.8288959569658L-52.07137953886937,230.6388409328495L142.41484520168706,191.15683953261572z" style="fill:rgb(127,37,217)"/><path d="M-52.07137953886937,230.6388409328495L-125.28507225304133,-167.96860017306483L-160.94153973340534,80.53168967479877zM117.06921441708654,-57.61995601573239L70.19561927275684,23.36524805251249L146.5813433149751,190.31100324794735z" style="fill:rgb(247,158,158)"/><path d="M-75.97084353588407,197.68692978200983L124.43477751721088,152.31485748922287L-77.63338795127451,195.39464990936986z" style="fill:rgb(127,37,217)"/><path d="M65.30370773591993,24.575149854645367L53.933045119622875,-223.24866842162004L50.18828489818681,-222.09358395764357z" style="fill:rgb(83,212,212)"/><path d="M-160.94153973340534,80.53168967479877L-55.85262043450369,231.40646643197888L-52.07137953886937,230.6388409328495zM124.43477751721088,152.31485748922287L-75.97084353588407,197.68692978200983L125.60651832330922,154.84613494612404z" style="fill:rgb(127,37,217)"/><path d="M-125.28507225304133,-167.96860017306483L-165.29983499448466,81.60961071427904L-160.94153973340534,80.53168967479877z" style="fill:rgb(83,212,212)"/><path d="M70.19561927275684,23.36524805251249L142.41484520168706,191.15683953261572L146.5813433149751,190.31100324794735zM-55.85262043450369,231.40646643197888L-160.94153973340534,80.53168967479877L-165.29983499448466,81.60961071427904z" style="fill:rgb(127,37,217)"/><path d="M53.933045119622875,-223.24866842162004L65.30370773591993,24.575149854645367L70.19561927275684,23.36524805251249z" style="fill:rgb(83,212,212)"/><path d="M142.41484520168706,191.15683953261572L70.19561927275684,23.36524805251249L65.30370773591993,24.575149854645367z" style="fill:rgb(127,37,217)"/></svg>
