<?xml version="1.0" encoding="UTF-8"?>
<!-- Generated by jsxcad -->
<!DOCTYPE svg PUBLIC "-//W3C//DTD SVG 1.1 Tiny//EN" "http://www.w3.org/Graphics/SVG/1.1/DTD/svg11-tiny.dtd">
<svg viewBox="-250 -250 500 500" width="500" height="500" xmlns="http://www.w3.org/2000/svg"><path d="M-74.82637680219251,33.50524379212265L-42.99961980770987,22.967203608651108L-74.6533659992244,31.02052721567331z" style="fill:rgb(83,212,212)"/><path d="M-41.83175907642591,27.678093161734804L-74.82637680219251,33.50524379212265L-73.49916844392706,35.6952913843165z" style="fill:rgb(127,37,217)"/><path d="M-122.18998918161023,9.218552573979503L-102.49937670089889,42.963950495707074L-102.26347147036172,40.46890805135033z" style="fill:rgb(247,158,158)"/><path d="M-74.82637680219251,33.50524379212265L-43.100069128335605,25.452956075501977L-42.99961980770987,22.967203608651108z" style="fill:rgb(83,212,212)"/><path d="M-41.83175907642591,27.678093161734804L-43.100069128335605,25.452956075501977L-74.82637680219251,33.50524379212265zM-102.49937670089889,42.963950495707074L-124.60767892238685,12.275527572189027L-104.57237275879315,43.48880503569663z" style="fill:rgb(127,37,217)"/><path d="M-43.100069128335605,25.452956075501977L-41.73447869490285,25.19259706211538L-42.99961980770987,22.967203608651108zM-43.100069128335605,25.452956075501977L-41.83175907642591,27.678093161734804L-41.73447869490285,25.19259706211538zM-122.18998918161023,9.218552573979503L-122.48068183807618,11.717320322231501L-102.49937670089889,42.963950495707074z" style="fill:rgb(247,158,158)"/><path d="M-102.49937670089889,42.963950495707074L-122.48068183807618,11.717320322231501L-124.60767892238685,12.275527572189027z" style="fill:rgb(127,37,217)"/><path d="M-124.60767892238685,12.275527572189027L-122.18998918161023,9.218552573979503L-124.31209802749026,9.776787490759421zM-124.60767892238685,12.275527572189027L-122.48068183807618,11.717320322231501L-122.18998918161023,9.218552573979503z" style="fill:rgb(83,212,212)"/><path d="M175.00290891399084,-27.296112372404128L-119.2858613257453,10.87887270080629L-99.3857964597738,42.175628849983624z" style="fill:rgb(127,37,217)"/><path d="M-95.4514528048777,-0.5285340563099933L-62.66412509667732,-11.62287361725393L-95.22331821631512,-3.0155983403127515z" style="fill:rgb(83,212,212)"/><path d="M-61.45946557026647,-6.757024641258105L-95.4514528048777,-0.5285340563099933L-94.03321468191047,1.811721875652264z" style="fill:rgb(127,37,217)"/><path d="M-95.4514528048777,-0.5285340563099933L-62.81549440234781,-9.136057518396493L-62.66412509667732,-11.62287361725393z" style="fill:rgb(83,212,212)"/><path d="M-61.45946557026647,-6.757024641258105L-62.81549440234781,-9.136057518396493L-95.4514528048777,-0.5285340563099933z" style="fill:rgb(127,37,217)"/><path d="M-62.81549440234781,-9.136057518396493L-61.31169795772246,-9.243943217135786L-62.66412509667732,-11.62287361725393zM-62.81549440234781,-9.136057518396493L-61.45946557026647,-6.757024641258105L-61.31169795772246,-9.243943217135786z" style="fill:rgb(247,158,158)"/><path d="M115.75484698635661,-14.86517863084635L150.244399573931,-26.197802910179014L115.47439003018047,-17.35164181228839z" style="fill:rgb(83,212,212)"/><path d="M150.61236103098713,-23.712181534787458L115.75484698635661,-14.86517863084635L116.71171695431315,-12.460159810705196z" style="fill:rgb(127,37,217)"/><path d="M-119.2858613257453,10.87887270080629L162.46879458968135,-65.66287705971672L-119.00252224238676,8.38006755679425z" style="fill:rgb(83,212,212)"/><path d="M150.61236103098713,-23.712181534787458L116.71171695431315,-12.460159810705196L151.49720449477172,-21.266757953988694z" style="fill:rgb(127,37,217)"/><path d="M115.75484698635661,-14.86517863084635L150.61236103098713,-23.712181534787458L150.244399573931,-26.197802910179014z" style="fill:rgb(83,212,212)"/><path d="M150.244399573931,-26.197802910179014L151.49720449477172,-21.266757953988694L151.1279288757419,-23.752647866195524zM150.244399573931,-26.197802910179014L150.61236103098713,-23.712181534787458L151.49720449477172,-21.266757953988694z" style="fill:rgb(247,158,158)"/><path d="M20.68455445851149,151.29727494404978L18.231534989970747,9.886702290039624L-104.33182267895454,40.99386795821189z" style="fill:rgb(83,212,212)"/><path d="M-195.60553137611777,-105.91754820478108L-123.95587671879086,9.410423278781257L-123.661026471908,6.911558219671949z" style="fill:rgb(247,158,158)"/><path d="M175.00290891399084,-27.296112372404128L162.88341913731998,-63.17349378817956L-119.2858613257453,10.87887270080629zM-123.95587671879086,9.410423278781257L-198.4432399636541,-102.75390919484597L-126.08683449436842,9.971134089250752z" style="fill:rgb(127,37,217)"/><path d="M18.231534989970747,9.886702290039624L21.98421872315846,153.5422643362536L19.38286648309716,12.180462588822186z" style="fill:rgb(247,158,158)"/><path d="M20.740366004217304,154.51467783627524L51.34542917136001,-1.0359958627189512L18.18839503745201,7.399792863547712z" style="fill:rgb(83,212,212)"/><path d="M162.46879458968135,-65.66287705971672L175.00290891399084,-27.296112372404128L174.57186660778075,-29.79321583874013z" style="fill:rgb(247,158,158)"/><path d="M-119.2858613257453,10.87887270080629L162.88341913731998,-63.17349378817956L162.46879458968135,-65.66287705971672z" style="fill:rgb(83,212,212)"/><path d="M52.42933809046089,1.2953992489967279L51.34542917136001,-1.0359958627189512L58.616674389953445,146.25426847092146zM172.261363645609,-68.238875602276L184.5292294975643,-29.708057506598177L184.07369855826758,-32.204829985470795z" style="fill:rgb(247,158,158)"/><path d="M184.5292294975643,-29.708057506598177L166.56002442865545,-64.13837850909894L178.57025109120855,-28.199316345673026z" style="fill:rgb(127,37,217)"/><path d="M100.85924655212196,-52.30421510714592L136.48741094314238,-64.27012594409752L100.60623982527197,-54.78465933738077z" style="fill:rgb(83,212,212)"/><path d="M136.83362908088753,-61.792222326331L100.85924655212196,-52.30421510714592L101.88505796823887,-49.72591429508936z" style="fill:rgb(127,37,217)"/><path d="M162.46879458968135,-65.66287705971672L162.88341913731998,-63.17349378817956L175.00290891399084,-27.296112372404128z" style="fill:rgb(247,158,158)"/><path d="M136.83362908088753,-61.792222326331L101.88505796823887,-49.72591429508936L137.78278822211504,-59.16905273507202z" style="fill:rgb(127,37,217)"/><path d="M100.85924655212196,-52.30421510714592L136.83362908088753,-61.792222326331L136.48741094314238,-64.27012594409752z" style="fill:rgb(83,212,212)"/><path d="M172.261363645609,-68.238875602276L172.70200530002955,-65.75027537686532L184.5292294975643,-29.708057506598177zM136.48741094314238,-64.27012594409752L137.78278822211504,-59.16905273507202L137.43499526558256,-61.64770141375075z" style="fill:rgb(247,158,158)"/><path d="M184.5292294975643,-29.708057506598177L172.70200530002955,-65.75027537686532L166.56002442865545,-64.13837850909894z" style="fill:rgb(127,37,217)"/><path d="M20.68455445851149,151.29727494404978L-104.33182267895454,40.99386795821189L-117.89119016023825,181.62914535788784z" style="fill:rgb(83,212,212)"/><path d="M161.9865313174672,-65.82855088162573L-192.63717698592328,-104.48044597028465L-120.75509842997401,8.568213571246519z" style="fill:rgb(127,37,217)"/><path d="M136.48741094314238,-64.27012594409752L136.83362908088753,-61.792222326331L137.78278822211504,-59.16905273507202z" style="fill:rgb(247,158,158)"/><path d="M0.3699332196453679,116.20649431429236L0.3245450432758778,-25.788834561123963L-125.78707794620342,7.47229030792626zM166.56002442865545,-64.13837850909894L172.261363645609,-68.238875602276L166.1356708342299,-66.62747196744995zM166.56002442865545,-64.13837850909894L172.70200530002955,-65.75027537686532L172.261363645609,-68.238875602276z" style="fill:rgb(83,212,212)"/><path d="M-195.60553137611777,-105.91754820478108L-196.12291942160476,-103.4438993051249L-123.95587671879086,9.410423278781257z" style="fill:rgb(247,158,158)"/><path d="M-123.95587671879086,9.410423278781257L-196.12291942160476,-103.4438993051249L-198.4432399636541,-102.75390919484597z" style="fill:rgb(127,37,217)"/><path d="M209.99325735892637,109.86082470500554L184.07369855826758,-32.204829985470795L51.468207645989565,1.4510773561382473z" style="fill:rgb(83,212,212)"/><path d="M0.3245450432758778,-25.788834561123963L1.7739350472386717,118.63171421801155L1.5567864506332423,-23.33387837701175z" style="fill:rgb(247,158,158)"/><path d="M0.3709708378486227,119.45263884536996L34.48344289379164,-37.30458502859604L0.32375060734168476,-28.274206584897833z" style="fill:rgb(83,212,212)"/><path d="M18.231534989970747,9.886702290039624L20.68455445851149,151.29727494404978L21.98421872315846,153.5422643362536zM184.8881552957942,-29.720304497808435L184.07369855826758,-32.204829985470795L209.99325735892637,109.86082470500554zM35.64398946249184,-34.80835500607431L34.48344289379164,-37.30458502859604L39.56168855882914,110.52301237025648z" style="fill:rgb(247,158,158)"/><path d="M20.740366004217304,154.51467783627524L58.616674389953445,146.25426847092146L51.34542917136001,-1.0359958627189512z" style="fill:rgb(83,212,212)"/><path d="M52.42933809046089,1.2953992489967279L58.616674389953445,146.25426847092146L59.83513206033681,148.5390896665181z" style="fill:rgb(247,158,158)"/><path d="M-83.32648967316909,179.67212447128244L-118.1984209770352,184.8156871494289L-116.60045532940737,186.90813444113286zM-83.32648967316909,179.67212447128244L-84.85585914756032,177.54403022972653L-118.1984209770352,184.8156871494289z" style="fill:rgb(127,37,217)"/><path d="M-84.85585914756032,177.54403022972653L-83.10860401857244,176.47995140851404L-84.63342799573199,174.3495937495215zM-84.85585914756032,177.54403022972653L-83.32648967316909,179.67212447128244L-83.10860401857244,176.47995140851404z" style="fill:rgb(247,158,158)"/><path d="M0.3699332196453679,116.20649431429236L-125.78707794620342,7.47229030792626L-142.75644961057995,148.93273729806737z" style="fill:rgb(83,212,212)"/><path d="M21.98421872315846,153.5422643362536L-117.89119016023825,181.62914535788784L-116.29811639509632,183.72394914744197z" style="fill:rgb(127,37,217)"/><path d="M-118.77800065575916,175.04268171105542L-118.46575096937599,171.84557723699706L-121.99363938007504,172.6266797120727zM-84.85585914756032,177.54403022972653L-48.800031594212015,166.5062564638277L-84.63342799573199,174.3495937495215z" style="fill:rgb(83,212,212)"/><path d="M-47.475536044672616,171.87569959599597L-84.85585914756032,177.54403022972653L-83.32648967316909,179.67212447128244z" style="fill:rgb(127,37,217)"/><path d="M-118.77800065575916,175.04268171105542L-121.99363938007504,172.6266797120727L-122.31489825131426,175.8229621602854zM-196.12291942160476,-103.4438993051249L-195.60553137611777,-105.91754820478108L-197.9200453741697,-105.22789049581326zM209.99325735892637,109.86082470500554L51.468207645989565,1.4510773561382473L58.45747415362107,143.02942970247372zM-196.12291942160476,-103.4438993051249L-197.9200453741697,-105.22789049581326L-198.4432399636541,-102.75390919484597zM-84.85585914756032,177.54403022972653L-48.92944952864641,169.70888122515242L-48.800031594212015,166.5062564638277z" style="fill:rgb(83,212,212)"/><path d="M-47.475536044672616,171.87569959599597L-48.92944952864641,169.70888122515242L-84.85585914756032,177.54403022972653z" style="fill:rgb(127,37,217)"/><path d="M-48.92944952864641,169.70888122515242L-47.35027496910692,168.67529656031525L-48.800031594212015,166.5062564638277zM-48.92944952864641,169.70888122515242L-47.475536044672616,171.87569959599597L-47.35027496910692,168.67529656031525zM-138.64250888883333,150.64307950043633L-122.31489825131426,175.8229621602854L-121.99363938007504,172.6266797120727zM117.41491092052678,-199.1883866053782L161.9865313174672,-65.82855088162573L161.57320132955923,-68.31712715352224z" style="fill:rgb(247,158,158)"/><path d="M-122.31489825131426,175.8229621602854L-141.4206876367908,154.4071657910328L-124.66929673178359,176.34236259006914z" style="fill:rgb(127,37,217)"/><path d="M196.5177498718796,71.35673755041955L171.38721189418018,-70.90550567452003L34.56877648385145,-34.82052878865132z" style="fill:rgb(83,212,212)"/><path d="M21.98421872315846,153.5422643362536L20.68455445851149,151.29727494404978L-117.89119016023825,181.62914535788784z" style="fill:rgb(127,37,217)"/><path d="M128.27401643431637,-202.42409503971106L171.82667361281864,-68.41774797833207L171.38721189418018,-70.90550567452003z" style="fill:rgb(247,158,158)"/><path d="M171.82667361281864,-68.41774797833207L121.82830406500669,-197.9924274790526L165.67119545740476,-66.79808123937495zM22.043387061802974,156.75757391995967L-48.92944952864641,169.70888122515242L-47.475536044672616,171.87569959599597z" style="fill:rgb(127,37,217)"/><path d="M-138.64250888883333,150.64307950043633L-139.01687305796705,153.86107662774083L-122.31489825131426,175.8229621602854z" style="fill:rgb(247,158,158)"/><path d="M-122.31489825131426,175.8229621602854L-139.01687305796705,153.86107662774083L-141.4206876367908,154.4071657910328z" style="fill:rgb(127,37,217)"/><path d="M0.3245450432758778,-25.788834561123963L0.3699332196453679,116.20649431429236L1.7739350472386717,118.63171421801155z" style="fill:rgb(247,158,158)"/><path d="M22.043387061802974,156.75757391995967L20.740366004217304,154.51467783627524L-48.92944952864641,169.70888122515242z" style="fill:rgb(127,37,217)"/><path d="M172.261363645609,-68.238875602276L171.38721189418018,-70.90550567452003L196.5177498718796,71.35673755041955z" style="fill:rgb(247,158,158)"/><path d="M210.58631386525835,113.1113827107292L-124.66929673178359,176.34236259006914L-118.1984209770352,184.8156871494289zM161.9865313174672,-65.82855088162573L117.75079743844863,-196.77989890345435L-192.63717698592328,-104.48044597028465z" style="fill:rgb(127,37,217)"/><path d="M20.740366004217304,154.51467783627524L21.98421872315846,153.5422643362536L20.68455445851149,151.29727494404978zM20.740366004217304,154.51467783627524L22.043387061802974,156.75757391995967L21.98421872315846,153.5422643362536zM184.8881552957942,-29.720304497808435L209.99325735892637,109.86082470500554L210.8536965736946,112.31937766082018z" style="fill:rgb(247,158,158)"/><path d="M0.3709708378486227,119.45263884536996L39.56168855882914,110.52301237025648L34.48344289379164,-37.30458502859604z" style="fill:rgb(83,212,212)"/><path d="M59.83513206033681,148.5390896665181L20.740366004217304,154.51467783627524L22.043387061802974,156.75757391995967z" style="fill:rgb(127,37,217)"/><path d="M35.64398946249184,-34.80835500607431L39.56168855882914,110.52301237025648L40.87921477755232,112.99358841608404z" style="fill:rgb(247,158,158)"/><path d="M-107.08841640559667,146.60780526106345L-143.14266432646932,152.1523120203355L-141.4206876367908,154.4071657910328zM59.83513206033681,148.5390896665181L58.616674389953445,146.25426847092146L20.740366004217304,154.51467783627524z" style="fill:rgb(127,37,217)"/><path d="M117.75079743844863,-196.77989890345435L-192.12852575696553,-106.9536012794901L-192.63717698592328,-104.48044597028465z" style="fill:rgb(83,212,212)"/><path d="M-107.08841640559667,146.60780526106345L-108.73753797222606,144.31308813361932L-143.14266432646932,152.1523120203355z" style="fill:rgb(127,37,217)"/><path d="M-108.73753797222606,144.31308813361932L-106.79768364214122,143.3832664926688L-108.4415731309479,141.08654949618978zM-108.73753797222606,144.31308813361932L-107.08841640559667,146.60780526106345L-106.79768364214122,143.3832664926688z" style="fill:rgb(247,158,158)"/><path d="M-107.08841640559667,146.60780526106345L-69.88041197943524,134.96707431335963L-106.79768364214122,143.3832664926688z" style="fill:rgb(83,212,212)"/><path d="M1.7739350472386717,118.63171421801155L-142.75644961057995,148.93273729806737L-141.04008379214568,151.18966323168988zM196.05201770585055,105.5882489961875L-135.40560221917042,153.04069628446513L-118.77800065575916,175.04268171105542z" style="fill:rgb(127,37,217)"/><path d="M-108.73753797222606,144.31308813361932L-71.44445480437841,132.62705634700657L-108.4415731309479,141.08654949618978z" style="fill:rgb(83,212,212)"/><path d="M-70.07243323303106,138.19878544176632L-108.73753797222606,144.31308813361932L-107.08841640559667,146.60780526106345zM133.16930081651032,132.59127112020096L58.616674389953445,146.25426847092146L59.83513206033681,148.5390896665181z" style="fill:rgb(127,37,217)"/><path d="M-107.08841640559667,146.60780526106345L-70.07243323303106,138.19878544176632L-69.88041197943524,134.96707431335963zM196.5177498718796,71.35673755041955L34.56877648385145,-34.82052878865132L39.44996456932621,107.27072733832901zM-108.73753797222606,144.31308813361932L-71.64128195462855,135.86067513949035L-71.44445480437841,132.62705634700657z" style="fill:rgb(83,212,212)"/><path d="M-70.07243323303106,138.19878544176632L-71.64128195462855,135.86067513949035L-108.73753797222606,144.31308813361932zM210.8536965736946,112.31937766082018L58.45747415362107,143.02942970247372L59.67303615586205,145.31625878902713z" style="fill:rgb(127,37,217)"/><path d="M-71.64128195462855,135.86067513949035L-69.88041197943524,134.96707431335963L-71.44445480437841,132.62705634700657zM-71.64128195462855,135.86067513949035L-70.07243323303106,138.19878544176632L-69.88041197943524,134.96707431335963z" style="fill:rgb(247,158,158)"/><path d="M133.16930081651032,132.59127112020096L132.12001361324994,130.22400473855626L58.616674389953445,146.25426847092146z" style="fill:rgb(127,37,217)"/><path d="M117.41491092052678,-199.1883866053782L117.75079743844863,-196.77989890345435L161.9865313174672,-65.82855088162573z" style="fill:rgb(247,158,158)"/><path d="M1.7739350472386717,118.63171421801155L0.3699332196453679,116.20649431429236L-142.75644961057995,148.93273729806737z" style="fill:rgb(127,37,217)"/><path d="M128.27401643431637,-202.42409503971106L128.64192643959595,-200.01858769305264L171.82667361281864,-68.41774797833207zM132.12001361324994,130.22400473855626L132.80211447927576,129.35501568161766L131.75477431755047,126.9858985953648zM132.12001361324994,130.22400473855626L133.16930081651032,132.59127112020096L132.80211447927576,129.35501568161766z" style="fill:rgb(247,158,158)"/><path d="M171.82667361281864,-68.41774797833207L128.64192643959595,-200.01858769305264L121.82830406500669,-197.9924274790526zM1.778897644341381,121.87612204826367L-71.64128195462855,135.86067513949035L-70.07243323303106,138.19878544176632zM210.58631386525835,113.1113827107292L207.09496559050427,103.15208117526646L-124.66929673178359,176.34236259006914z" style="fill:rgb(127,37,217)"/><path d="M132.12001361324994,130.22400473855626L171.62905369302806,118.25809166647592L131.75477431755047,126.9858985953648z" style="fill:rgb(83,212,212)"/><path d="M173.06381494151566,123.91550364643834L132.12001361324994,130.22400473855626L133.16930081651032,132.59127112020096zM210.8536965736946,112.31937766082018L209.99325735892637,109.86082470500554L58.45747415362107,143.02942970247372z" style="fill:rgb(127,37,217)"/><path d="M117.75079743844863,-196.77989890345435L117.41491092052678,-199.1883866053782L-192.12852575696553,-106.9536012794901z" style="fill:rgb(83,212,212)"/><path d="M1.778897644341381,121.87612204826367L0.3709708378486227,119.45263884536996L-71.64128195462855,135.86067513949035z" style="fill:rgb(127,37,217)"/><path d="M132.12001361324994,130.22400473855626L172.10938222403712,121.50277097592532L171.62905369302806,118.25809166647592z" style="fill:rgb(83,212,212)"/><path d="M173.06381494151566,123.91550364643834L172.10938222403712,121.50277097592532L132.12001361324994,130.22400473855626z" style="fill:rgb(127,37,217)"/><path d="M171.62905369302806,118.25809166647592L173.06381494151566,123.91550364643834L172.58208584207466,120.67259371388637zM171.62905369302806,118.25809166647592L172.10938222403712,121.50277097592532L173.06381494151566,123.91550364643834zM0.3709708378486227,119.45263884536996L1.7739350472386717,118.63171421801155L0.3699332196453679,116.20649431429236zM0.3709708378486227,119.45263884536996L1.778897644341381,121.87612204826367L1.7739350472386717,118.63171421801155z" style="fill:rgb(247,158,158)"/><path d="M1.778897644341381,121.87612204826367L40.764075522572206,109.74296151532417L1.7739350472386717,118.63171421801155z" style="fill:rgb(83,212,212)"/><path d="M211.44760727094382,115.56825871547433L172.10938222403712,121.50277097592532L173.06381494151566,123.91550364643834z" style="fill:rgb(127,37,217)"/><path d="M172.261363645609,-68.238875602276L196.5177498718796,71.35673755041955L197.4506771831634,74.02241847151433z" style="fill:rgb(247,158,158)"/><path d="M40.87921477755232,112.99358841608404L0.3709708378486227,119.45263884536996L1.778897644341381,121.87612204826367z" style="fill:rgb(127,37,217)"/><path d="M1.778897644341381,121.87612204826367L40.87921477755232,112.99358841608404L40.764075522572206,109.74296151532417z" style="fill:rgb(83,212,212)"/><path d="M211.44760727094382,115.56825871547433L210.58631386525835,113.1113827107292L172.10938222403712,121.50277097592532zM40.87921477755232,112.99358841608404L39.56168855882914,110.52301237025648L0.3709708378486227,119.45263884536996zM196.05201770585055,105.5882489961875L186.70756152672962,79.86536356044451L-135.40560221917042,153.04069628446513z" style="fill:rgb(127,37,217)"/><path d="M200.18639220245646,104.67616998352288L199.61751705207396,101.42013370570544L195.4954321754501,102.3327842942818z" style="fill:rgb(83,212,212)"/><path d="M116.83442484219403,95.73863461111746L39.56168855882914,110.52301237025648L40.87921477755232,112.99358841608404z" style="fill:rgb(127,37,217)"/><path d="M200.18639220245646,104.67616998352288L195.4954321754501,102.3327842942818L196.05201770585055,105.5882489961875z" style="fill:rgb(83,212,212)"/><path d="M197.4506771831634,74.02241847151433L39.44996456932621,107.27072733832901L40.764075522572206,109.74296151532417zM197.09575421949,74.62877481338737L-197.1907746568368,81.37873332900757L-143.14266432646932,152.1523120203355z" style="fill:rgb(127,37,217)"/><path d="M128.64192643959595,-200.01858769305264L128.27401643431637,-202.42409503971106L121.48044769416055,-200.3998056540177zM128.64192643959595,-200.01858769305264L121.48044769416055,-200.3998056540177L121.82830406500669,-197.9924274790526z" style="fill:rgb(83,212,212)"/><path d="M116.83442484219403,95.73863461111746L115.69820714025364,93.17525766656335L39.56168855882914,110.52301237025648z" style="fill:rgb(127,37,217)"/><path d="M186.16297937570096,76.59572189434071L196.05201770585055,105.5882489961875L195.4954321754501,102.3327842942818zM115.69820714025364,93.17525766656335L116.49925498564782,92.47727553931172L115.36539983157881,89.91244758894193zM115.69820714025364,93.17525766656335L116.83442484219403,95.73863461111746L116.49925498564782,92.47727553931172z" style="fill:rgb(247,158,158)"/><path d="M207.09496559050427,103.15208117526646L190.94631942868313,78.90243574513055L200.18639220245646,104.67616998352288z" style="fill:rgb(127,37,217)"/><path d="M116.83442484219403,95.73863461111746L157.74188024432576,83.07500889907705L116.49925498564782,92.47727553931172zM115.69820714025364,93.17525766656335L156.7093267417911,80.45904535021464L115.36539983157881,89.91244758894193z" style="fill:rgb(83,212,212)"/><path d="M158.20021558618419,86.34145869393052L115.69820714025364,93.17525766656335L116.83442484219403,95.73863461111746z" style="fill:rgb(127,37,217)"/><path d="M116.83442484219403,95.73863461111746L158.20021558618419,86.34145869393052L157.74188024432576,83.07500889907705z" style="fill:rgb(83,212,212)"/><path d="M197.4506771831634,74.02241847151433L196.5177498718796,71.35673755041955L39.44996456932621,107.27072733832901z" style="fill:rgb(127,37,217)"/><path d="M186.16297937570096,76.59572189434071L186.70756152672962,79.86536356044451L196.05201770585055,105.5882489961875z" style="fill:rgb(247,158,158)"/><path d="M115.69820714025364,93.17525766656335L157.16590828047256,83.72681463136988L156.7093267417911,80.45904535021464z" style="fill:rgb(83,212,212)"/><path d="M158.20021558618419,86.34145869393052L157.16590828047256,83.72681463136988L115.69820714025364,93.17525766656335z" style="fill:rgb(127,37,217)"/><path d="M156.7093267417911,80.45904535021464L158.20021558618419,86.34145869393052L157.74188024432576,83.07500889907705z" style="fill:rgb(247,158,158)"/><path d="M207.09496559050427,103.15208117526646L198.02982512795774,77.29325781530994L190.94631942868313,78.90243574513055z" style="fill:rgb(127,37,217)"/><path d="M156.7093267417911,80.45904535021464L157.16590828047256,83.72681463136988L158.20021558618419,86.34145869393052z" style="fill:rgb(247,158,158)"/><path d="M198.02982512795774,77.29325781530994L157.16590828047256,83.72681463136988L158.20021558618419,86.34145869393052z" style="fill:rgb(127,37,217)"/><path d="M-190.7726771238209,79.7778306208084L-190.21618748064074,76.50814206927369L-194.05892775445244,77.46978290715283zM-190.7726771238209,79.7778306208084L-194.05892775445244,77.46978290715283L-194.62609320888515,80.73900919559044z" style="fill:rgb(83,212,212)"/><path d="M198.02982512795774,77.29325781530994L197.09575421949,74.62877481338737L157.16590828047256,83.72681463136988z" style="fill:rgb(127,37,217)"/><path d="M-214.61096174910358,50.33234213682364L-194.62609320888515,80.73900919559044L-194.05892775445244,77.46978290715283z" style="fill:rgb(247,158,158)"/><path d="M-194.62609320888515,80.73900919559044L-217.87882234068337,54.28866318132433L-197.1907746568368,81.37873332900757z" style="fill:rgb(127,37,217)"/><path d="M-214.61096174910358,50.33234213682364L-215.25590253169077,53.61231807623711L-194.62609320888515,80.73900919559044z" style="fill:rgb(247,158,158)"/><path d="M-194.62609320888515,80.73900919559044L-215.25590253169077,53.61231807623711L-217.87882234068337,54.28866318132433z" style="fill:rgb(127,37,217)"/><path d="M150.17875149184124,-59.204579524710994L211.44760727094382,115.56825871547433L210.8536965736946,112.31937766082018z" style="fill:rgb(247,158,158)"/><path d="M197.09575421949,74.62877481338737L167.56657096163582,-9.60486747949585L-197.1907746568368,81.37873332900757zM155.3154764310462,-6.549003560007747L-211.31480002533493,52.59606952102129L-190.7726771238209,79.7778306208084zM156.1541971287348,-42.15929697318751L-228.66687091224918,40.16217992196064L-217.87882234068337,54.28866318132433z" style="fill:rgb(127,37,217)"/><path d="M-228.66687091224918,40.16217992196064L149.67758355300526,-62.48138547098237L-227.97244941295105,36.87852695215927z" style="fill:rgb(83,212,212)"/><path d="M155.3154764310462,-6.549003560007747L143.55901615942724,-38.91151109746723L-211.31480002533493,52.59606952102129z" style="fill:rgb(127,37,217)"/><path d="M150.17875149184124,-59.204579524710994L210.8536965736946,112.31937766082018L149.67758355300526,-62.48138547098237z" style="fill:rgb(247,158,158)"/><path d="M159.90127799853045,-7.692867474435775L159.3925532432232,-10.98069491307669L154.82187836200137,-9.836892511005038zM159.90127799853045,-7.692867474435775L154.82187836200137,-9.836892511005038L155.3154764310462,-6.549003560007747z" style="fill:rgb(83,212,212)"/><path d="M143.08874249416843,-42.19457753907206L155.3154764310462,-6.549003560007747L154.82187836200137,-9.836892511005038z" style="fill:rgb(247,158,158)"/><path d="M167.56657096163582,-9.60486747949585L148.27335089694245,-40.127147822918076L159.90127799853045,-7.692867474435775zM156.1541971287348,-42.15929697318751L150.17875149184124,-59.204579524710994L-228.66687091224918,40.16217992196064z" style="fill:rgb(127,37,217)"/><path d="M-228.66687091224918,40.16217992196064L150.17875149184124,-59.204579524710994L149.67758355300526,-62.48138547098237z" style="fill:rgb(83,212,212)"/><path d="M143.08874249416843,-42.19457753907206L143.55901615942724,-38.91151109746723L155.3154764310462,-6.549003560007747z" style="fill:rgb(247,158,158)"/><path d="M167.56657096163582,-9.60486747949585L156.1541971287348,-42.15929697318751L148.27335089694245,-40.127147822918076z" style="fill:rgb(127,37,217)"/></svg>
