<?xml version="1.0" encoding="UTF-8"?>
<!-- Generated by jsxcad -->
<!DOCTYPE svg PUBLIC "-//W3C//DTD SVG 1.1 Tiny//EN" "http://www.w3.org/Graphics/SVG/1.1/DTD/svg11-tiny.dtd">
<svg viewBox="-250 -250 500 500" width="500" height="500" xmlns="http://www.w3.org/2000/svg"><path d="M18.503782941964733,147.5302802089393L16.30120507184124,6.040967532004328L-106.64679451601546,37.376962848919334zM-1.826213216447987,19.061069711572713L-1.741865355458033,-29.90567967720384L-128.26006719821575,3.608499444075621z" style="fill:rgb(83,212,212)"/><path d="M16.30120507184124,6.040967532004328L19.814455419078342,149.79429489051324L17.461126581253517,8.35184167037535z" style="fill:rgb(247,158,158)"/><path d="M-1.826213216447987,19.061069711572713L-128.26006719821575,3.608499444075621L-134.26754371437056,52.54159591515356zM49.64694879815083,-2.4579260347651526L16.30120507184124,6.040967532004328L18.503782941964733,147.5302802089393z" style="fill:rgb(83,212,212)"/><path d="M-124.34180095912768,52.75061833107618L-129.24832713629672,51.27276037682369L-127.6885694545859,53.59434844583163zM-124.34180095912768,52.75061833107618L-125.89502130577415,50.42505801864022L-129.24832713629672,51.27276037682369z" style="fill:rgb(127,37,217)"/><path d="M57.64364558419856,141.49837897021143L50.741344009320606,-0.10900598945963408L49.64694879815083,-2.4579260347651526zM-143.02934299858373,134.44953020587795L-120.25063866676498,1.4868321595187257L-125.78492348825954,-7.283325322479113z" style="fill:rgb(247,158,158)"/><path d="M-129.0150882722904,-6.41923401248656L-143.02934299858373,134.44953020587795L-125.78492348825954,-7.283325322479113z" style="fill:rgb(83,212,212)"/><path d="M-129.24832713629672,51.27276037682369L-131.79969992687737,88.84025935308888L-127.6885694545859,53.59434844583163z" style="fill:rgb(247,158,158)"/><path d="M-133.4197703072893,86.52923640765454L-129.24832713629672,51.27276037682369L-134.26754371437056,52.54159591515356z" style="fill:rgb(83,212,212)"/><path d="M-124.34180095912768,52.75061833107618L-125.89502130577415,50.42505801864022L-129.9618289580739,85.6853115346049z" style="fill:rgb(247,158,158)"/><path d="M-125.89502130577415,50.42505801864022L-129.24832713629672,51.27276037682369L-133.4197703072893,86.52923640765454z" style="fill:rgb(83,212,212)"/><path d="M-143.02934299858373,134.44953020587795L-125.78492348825954,-7.283325322479113L-135.93394379057432,-23.36642715361827z" style="fill:rgb(247,158,158)"/><path d="M-102.95082302856761,43.15153098400921L184.8881552957942,-29.720304497808435L128.27401643431637,-202.42409503971106z" style="fill:rgb(127,37,217)"/><path d="M18.503782941964733,147.5302802089393L-106.64679451601546,37.376962848919334L-120.56366764426748,178.1149899107076zM-133.4197703072893,86.52923640765454L-134.26754371437056,52.54159591515356L-138.59524882637572,87.79233827611971z" style="fill:rgb(83,212,212)"/><path d="M-129.24832713629672,51.27276037682369L-133.4197703072893,86.52923640765454L-131.79969992687737,88.84025935308888zM-124.34180095912768,52.75061833107618L-129.9618289580739,85.6853115346049L-128.34870566459696,88.00040613046116z" style="fill:rgb(247,158,158)"/><path d="M-125.89502130577415,50.42505801864022L-133.4197703072893,86.52923640765454L-129.9618289580739,85.6853115346049zM-154.89537116659466,118.59956983171197L-135.93394379057432,-23.36642715361827L-139.20511974355594,-22.47564250524827zM208.5490360640077,105.73418334949737L182.70785114935754,-36.37141571282798L49.64694879815083,-2.4579260347651526z" style="fill:rgb(83,212,212)"/><path d="M-1.741865355458033,-29.90567967720384L-0.5701746898494411,114.58258394554088L-0.5001106241988957,-27.43177030275177z" style="fill:rgb(247,158,158)"/><path d="M-129.9618289580739,85.6853115346049L-131.79969992687737,88.84025935308888L-128.34870566459696,88.00040613046116zM-129.9618289580739,85.6853115346049L-133.4197703072893,86.52923640765454L-131.79969992687737,88.84025935308888z" style="fill:rgb(127,37,217)"/><path d="M178.5160318845797,-26.52857047719359L169.92092577515595,-75.37848161740912L32.61802056973397,-39.007476347405024zM-1.887134792309678,54.428079293288874L-1.826213216447987,19.061069711572713L-125.89502130577415,50.42505801864022zM-1.887134792309678,54.428079293288874L-125.89502130577415,50.42505801864022L-129.9618289580739,85.6853115346049zM32.61802056973397,-39.007476347405024L-1.741865355458033,-29.90567967720384L-1.9865397829356064,112.13599781505769z" style="fill:rgb(83,212,212)"/><path d="M127.90820418351528,-204.81585993474152L184.8881552957942,-29.720304497808435L184.43391316337244,-32.20514961251776zM16.30120507184124,6.040967532004328L18.503782941964733,147.5302802089393L19.814455419078342,149.79429489051324zM183.52863204278103,-33.86759285169384L182.70785114935754,-36.37141571282798L208.5490360640077,105.73418334949737z" style="fill:rgb(247,158,158)"/><path d="M178.5160318845797,-26.52857047719359L32.61802056973397,-39.007476347405024L34.21158453236444,9.950890701980823z" style="fill:rgb(83,212,212)"/><path d="M38.570009732303504,105.61527368255376L33.7902911326263,-36.49140903934961L32.61802056973397,-39.007476347405024z" style="fill:rgb(247,158,158)"/><path d="M-102.95082302856761,43.15153098400921L128.27401643431637,-202.42409503971106L-197.9200453741697,-105.22789049581326z" style="fill:rgb(127,37,217)"/><path d="M-177.71164171112352,-44.3471884105402L-171.1000998903821,-79.09404369419221L-171.42493220042562,-79.60881311573401zM-177.98974363274607,-46.720032282835355L-171.42493220042562,-79.60881311573401L-171.95308581022135,-80.44575436848254zM-177.6686370632346,-42.16197209494112L-170.99048196048622,-78.920336164035L-171.1000998903821,-79.09404369419221z" style="fill:rgb(247,158,158)"/><path d="M49.64694879815083,-2.4579260347651526L18.503782941964733,147.5302802089393L56.41768648420132,139.1919892764703z" style="fill:rgb(83,212,212)"/><path d="M-178.49205897541768,-49.19209918375361L-171.95308581022135,-80.44575436848254L-172.6650806390279,-81.57406646440059zM-179.19982158291126,-51.67173814965319L-172.6650806390279,-81.57406646440059L-173.5346107343415,-82.95198677737349zM-180.08684746673507,-54.06705529377908L-173.5346107343415,-82.95198677737349L-174.5292274778527,-84.5281751462292zM57.64364558419856,141.49837897021143L49.64694879815083,-2.4579260347651526L56.41768648420132,139.1919892764703zM-143.02934299858373,134.44953020587795L-136.579766346371,143.06450989822665L-120.25063866676498,1.4868321595187257zM-181.1205982595103,-56.2889701726294L-174.5292274778527,-84.5281751462292L-175.61164165254092,-86.2434446654848zM-182.2629917604321,-58.25417080042484L-175.61164165254092,-86.2434446654848L-176.7408085176824,-88.03283191728157zM-183.47175069126303,-59.8880240275021L-176.7408085176824,-88.03283191728157L-177.87354476272662,-89.8278966852399z" style="fill:rgb(247,158,158)"/><path d="M-129.0150882722904,-6.41923401248656L-146.68577740255864,135.29920745962258L-143.02934299858373,134.44953020587795z" style="fill:rgb(83,212,212)"/><path d="M-184.70181223888753,-61.12728626091019L-177.87354476272662,-89.8278966852399L-178.9661792759953,-91.55936219551198zM-185.90670556184762,-61.922608574519984L-178.9661792759953,-91.55936219551198L-179.9761114123878,-93.15979977750071z" style="fill:rgb(247,158,158)"/><path d="M19.814455419078342,149.79429489051324L-120.56366764426748,178.1149899107076L-118.95756248524775,180.22690975088287z" style="fill:rgb(127,37,217)"/><path d="M-178.49205897541768,-49.19209918375361L-177.98974363274607,-46.720032282835355L-171.95308581022135,-80.44575436848254zM-177.98974363274607,-46.720032282835355L-177.71164171112352,-44.3471884105402L-171.42493220042562,-79.60881311573401zM-179.19982158291126,-51.67173814965319L-178.49205897541768,-49.19209918375361L-172.6650806390279,-81.57406646440059zM-187.04034293002272,-62.24065269845937L-179.9761114123878,-93.15979977750071L-180.86366536760733,-94.56630340162526zM-177.71164171112352,-44.3471884105402L-177.6686370632346,-42.16197209494112L-171.1000998903821,-79.09404369419221zM-180.08684746673507,-54.06705529377908L-179.19982158291126,-51.67173814965319L-173.5346107343415,-82.95198677737349zM-177.6686370632346,-42.16197209494112L-177.86314391398216,-40.24654418200879L-170.99048196048622,-78.920336164035zM-188.05870691721967,-62.06581091416806L-180.86366536760733,-94.56630340162526L-181.59370421588036,-95.72320953175063zM-181.1205982595103,-56.2889701726294L-180.08684746673507,-54.06705529377908L-174.5292274778527,-84.5281751462292zM-182.2629917604321,-58.25417080042484L-181.1205982595103,-56.2889701726294L-175.61164165254092,-86.2434446654848zM-188.92162183070235,-61.40130397232406L-181.59370421588036,-95.72320953175063L-182.1371550895626,-96.58439197377392zM-189.59436994304434,-60.269583046003405L-182.1371550895626,-96.58439197377392L-182.47220833205677,-97.11535904422774z" style="fill:rgb(247,158,158)"/><path d="M208.5490360640077,105.73418334949737L49.64694879815083,-2.4579260347651526L56.41768648420132,139.1919892764703zM-193.6399210933907,-57.68757478753032L-182.58541558565918,-97.29474959729698L-186.0417420005935,-96.27605179474209z" style="fill:rgb(83,212,212)"/><path d="M-183.47175069126303,-59.8880240275021L-182.2629917604321,-58.25417080042484L-176.7408085176824,-88.03283191728157zM-190.04938323382632,-58.71195498527827L-182.47220833205677,-97.11535904422774L-182.58541558565918,-97.29474959729698zM-184.70181223888753,-61.12728626091019L-183.47175069126303,-59.8880240275021L-177.87354476272662,-89.8278966852399zM-143.02934299858373,134.44953020587795L-135.93394379057432,-23.36642715361827L-154.89537116659466,118.59956983171197zM-196.2701934994792,63.333467680824526L-135.93394379057432,-23.36642715361827L-170.99048196048622,-78.920336164035zM-185.90670556184762,-61.922608574519984L-184.70181223888753,-61.12728626091019L-178.9661792759953,-91.55936219551198z" style="fill:rgb(247,158,158)"/><path d="M-178.49205897541768,-49.19209918375361L-182.0193764624039,-48.197444112546705L-181.51860740711882,-45.727320306130345z" style="fill:rgb(93,135,250)"/><path d="M-179.19982158291126,-51.67173814965319L-182.72705823820775,-50.67465724879552L-182.0193764624039,-48.197444112546705z" style="fill:rgb(99,111,250)"/><path d="M-187.04034293002272,-62.24065269845937L-185.90670556184762,-61.922608574519984L-179.9761114123878,-93.15979977750071z" style="fill:rgb(247,158,158)"/><path d="M-179.19982158291126,-51.67173814965319L-182.0193764624039,-48.197444112546705L-178.49205897541768,-49.19209918375361z" style="fill:rgb(99,111,250)"/><path d="M-178.49205897541768,-49.19209918375361L-181.51860740711882,-45.727320306130345L-177.98974363274607,-46.720032282835355z" style="fill:rgb(93,135,250)"/><path d="M-177.98974363274607,-46.720032282835355L-181.51860740711882,-45.727320306130345L-181.2434621480973,-43.35588728372981z" style="fill:rgb(89,159,244)"/><path d="M-180.08684746673507,-54.06705529377908L-183.61549149590215,-53.06717218587949L-182.72705823820775,-50.67465724879552z" style="fill:rgb(106,87,246)"/><path d="M19.814455419078342,149.79429489051324L18.503782941964733,147.5302802089393L-120.56366764426748,178.1149899107076z" style="fill:rgb(127,37,217)"/><path d="M-180.08684746673507,-54.06705529377908L-182.72705823820775,-50.67465724879552L-179.19982158291126,-51.67173814965319z" style="fill:rgb(106,87,246)"/><path d="M-177.98974363274607,-46.720032282835355L-181.2434621480973,-43.35588728372981L-177.71164171112352,-44.3471884105402z" style="fill:rgb(89,159,244)"/><path d="M-181.1205982595103,-56.2889701726294L-183.61549149590215,-53.06717218587949L-180.08684746673507,-54.06705529377908z" style="fill:rgb(114,65,238)"/><path d="M-177.71164171112352,-44.3471884105402L-181.2434621480973,-43.35588728372981L-181.20471747727544,-41.171481094873364z" style="fill:rgb(85,182,234)"/><path d="M-181.1205982595103,-56.2889701726294L-184.65202833040962,-55.285989487246574L-183.61549149590215,-53.06717218587949z" style="fill:rgb(114,65,238)"/><path d="M-177.71164171112352,-44.3471884105402L-181.20471747727544,-41.171481094873364L-177.6686370632346,-42.16197209494112z" style="fill:rgb(85,182,234)"/><path d="M-188.05870691721967,-62.06581091416806L-187.04034293002272,-62.24065269845937L-180.86366536760733,-94.56630340162526z" style="fill:rgb(247,158,158)"/><path d="M-154.89537116659466,118.59956983171197L-139.20511974355594,-22.47564250524827L-158.60433672969037,119.47918580771997z" style="fill:rgb(83,212,212)"/><path d="M-182.2629917604321,-58.25417080042484L-184.65202833040962,-55.285989487246574L-181.1205982595103,-56.2889701726294z" style="fill:rgb(123,46,225)"/><path d="M-177.6686370632346,-42.16197209494112L-181.20471747727544,-41.171481094873364L-181.4046326581565,-39.25624183481648z" style="fill:rgb(84,202,220)"/><path d="M-182.2629917604321,-58.25417080042484L-185.79854408765183,-57.247929301565904L-184.65202833040962,-55.285989487246574z" style="fill:rgb(123,46,225)"/><path d="M-177.6686370632346,-42.16197209494112L-181.4046326581565,-39.25624183481648L-177.86314391398216,-40.24654418200879z" style="fill:rgb(84,202,220)"/><path d="M-188.92162183070235,-61.40130397232406L-188.05870691721967,-62.06581091416806L-181.59370421588036,-95.72320953175063z" style="fill:rgb(247,158,158)"/><path d="M-183.47175069126303,-59.8880240275021L-185.79854408765183,-57.247929301565904L-182.2629917604321,-58.25417080042484zM-183.47175069126303,-59.8880240275021L-187.0125921575136,-58.878464286354586L-185.79854408765183,-57.247929301565904z" style="fill:rgb(131,29,208)"/><path d="M-189.59436994304434,-60.269583046003405L-188.92162183070235,-61.40130397232406L-182.1371550895626,-96.58439197377392z" style="fill:rgb(247,158,158)"/><path d="M-184.70181223888753,-61.12728626091019L-187.0125921575136,-58.878464286354586L-183.47175069126303,-59.8880240275021zM-184.70181223888753,-61.12728626091019L-188.24891553371495,-60.114480742672086L-187.0125921575136,-58.878464286354586z" style="fill:rgb(140,16,189)"/><path d="M169.72084807403442,-21.383186697050828L164.91838361613884,-23.09115279321614L165.85366608131773,-20.408262659316453z" style="fill:rgb(127,37,217)"/><path d="M-1.9865397829356064,112.13599781505769L-1.887134792309678,54.428079293288874L-138.59524882637572,87.79233827611971z" style="fill:rgb(83,212,212)"/><path d="M-190.04938323382632,-58.71195498527827L-189.59436994304434,-60.269583046003405L-182.47220833205677,-97.11535904422774z" style="fill:rgb(247,158,158)"/><path d="M169.72084807403442,-21.383186697050828L168.7944838331641,-24.071010166679436L164.91838361613884,-23.09115279321614z" style="fill:rgb(127,37,217)"/><path d="M-193.6399210933907,-57.68757478753032L-190.04938323382632,-58.71195498527827L-182.58541558565918,-97.29474959729698z" style="fill:rgb(83,212,212)"/><path d="M-185.90670556184762,-61.922608574519984L-188.24891553371495,-60.114480742672086L-184.70181223888753,-61.12728626091019zM-185.90670556184762,-61.922608574519984L-189.4608117501967,-60.906749640168904L-188.24891553371495,-60.114480742672086z" style="fill:rgb(148,8,167)"/><path d="M-1.741865355458033,-29.90567967720384L-1.9865397829356064,112.13599781505769L-0.5701746898494411,114.58258394554088zM194.9514016889136,66.88114333967061L170.80211285870146,-72.69038997478792L169.92092577515595,-75.37848161740912z" style="fill:rgb(247,158,158)"/><path d="M170.65467691443152,12.318441858823096L164.91838361613884,-23.09115279321614L34.21158453236444,9.950890701980823zM170.65467691443152,12.318441858823096L34.21158453236444,9.950890701980823L35.36337738573157,45.33692014298598z" style="fill:rgb(83,212,212)"/><path d="M-187.04034293002272,-62.24065269845937L-189.4608117501967,-60.906749640168904L-185.90670556184762,-61.922608574519984zM-187.04034293002272,-62.24065269845937L-190.60193067254914,-61.2220627503538L-189.4608117501967,-60.906749640168904z" style="fill:rgb(155,4,143)"/><path d="M-1.9865397829356064,112.13599781505769L-138.59524882637572,87.79233827611971L-145.63647144921802,145.14567281988008zM-174.40129642560922,-77.93423151142223L-196.2701934994792,63.333467680824526L-170.99048196048622,-78.920336164035z" style="fill:rgb(83,212,212)"/><path d="M-188.05870691721967,-62.06581091416806L-190.60193067254914,-61.2220627503538L-187.04034293002272,-62.24065269845937zM-188.05870691721967,-62.06581091416806L-191.62797185815828,-61.04492272489048L-190.60193067254914,-61.2220627503538z" style="fill:rgb(161,4,119)"/><path d="M180.64324989119402,59.23476297396688L160.68524788529064,-72.93198873926877L157.29141036661113,-83.00819800660275zM183.52863204278103,-33.86759285169384L208.5490360640077,105.73418334949737L209.41710424351535,108.21454537864754z" style="fill:rgb(247,158,158)"/><path d="M56.41768648420132,139.1919892764703L18.503782941964733,147.5302802089393L19.814455419078342,149.79429489051324z" style="fill:rgb(127,37,217)"/><path d="M-197.39960232979396,-107.68887066903501L-197.9200453741697,-105.22789049581326L128.27401643431637,-202.42409503971106zM32.61802056973397,-39.007476347405024L-1.9865397829356064,112.13599781505769L37.24421470963393,103.12106883810898zM153.5781900263254,-82.01488762939812L180.64324989119402,59.23476297396688L157.29141036661113,-83.00819800660275z" style="fill:rgb(83,212,212)"/><path d="M56.41768648420132,139.1919892764703L19.814455419078342,149.79429489051324L57.64364558419856,141.49837897021143z" style="fill:rgb(127,37,217)"/><path d="M38.570009732303504,105.61527368255376L32.61802056973397,-39.007476347405024L37.24421470963393,103.12106883810898zM170.65467691443152,12.318441858823096L165.85366608131773,-20.408262659316453L164.91838361613884,-23.09115279321614zM169.72084807403442,-21.383186697050828L168.7944838331641,-24.071010166679436L174.67118940455086,11.33819235239933z" style="fill:rgb(247,158,158)"/><path d="M168.7944838331641,-24.071010166679436L164.91838361613884,-23.09115279321614L170.65467691443152,12.318441858823096z" style="fill:rgb(83,212,212)"/><path d="M-143.02934299858373,134.44953020587795L-140.20749023214984,143.89813161959742L-136.579766346371,143.06450989822665z" style="fill:rgb(127,37,217)"/><path d="M127.90820418351528,-204.81585993474152L128.27401643431637,-202.42409503971106L184.8881552957942,-29.720304497808435z" style="fill:rgb(247,158,158)"/><path d="M184.74603474912448,8.879380709625451L178.5160318845797,-26.52857047719359L168.7944838331641,-24.071010166679436z" style="fill:rgb(83,212,212)"/><path d="M180.64324989119402,59.23476297396688L157.29141036661113,-83.00819800660275L151.05696582243806,-101.51804255731105z" style="fill:rgb(247,158,158)"/><path d="M-143.02934299858373,134.44953020587795L-146.68577740255864,135.29920745962258L-140.20749023214984,143.89813161959742z" style="fill:rgb(127,37,217)"/><path d="M-196.2701934994792,63.333467680824526L-154.89537116659466,118.59956983171197L-135.93394379057432,-23.36642715361827z" style="fill:rgb(247,158,158)"/><path d="M-0.5701746898494411,114.58258394554088L-145.63647144921802,145.14567281988008L-143.90552914165272,147.42175589587237z" style="fill:rgb(127,37,217)"/><path d="M170.65467691443152,12.318441858823096L171.60744877001727,15.00207626352751L165.85366608131773,-20.408262659316453zM169.72084807403442,-21.383186697050828L174.67118940455086,11.33819235239933L175.61438371046455,14.026934445033895z" style="fill:rgb(247,158,158)"/><path d="M168.7944838331641,-24.071010166679436L170.65467691443152,12.318441858823096L174.67118940455086,11.33819235239933zM184.74603474912448,8.879380709625451L168.7944838331641,-24.071010166679436L174.67118940455086,11.33819235239933z" style="fill:rgb(83,212,212)"/><path d="M209.41710424351535,108.21454537864754L56.41768648420132,139.1919892764703L57.64364558419856,141.49837897021143zM-154.89537116659466,118.59956983171197L-146.68577740255864,135.29920745962258L-143.02934299858373,134.44953020587795z" style="fill:rgb(127,37,217)"/><path d="M173.90820106745787,40.62032095818585L151.05696582243806,-101.51804255731105L147.2882789504913,-100.49177855578965z" style="fill:rgb(83,212,212)"/><path d="M-218.03333500390812,34.26353487912471L-182.58541558565918,-97.29474959729698L-189.22622449138348,-107.81839594721437z" style="fill:rgb(247,158,158)"/><path d="M-154.89537116659466,118.59956983171197L-158.60433672969037,119.47918580771997L-146.68577740255864,135.29920745962258zM-0.5701746898494411,114.58258394554088L-1.9865397829356064,112.13599781505769L-145.63647144921802,145.14567281988008z" style="fill:rgb(127,37,217)"/><path d="M-189.22622449138348,-107.81839594721437L-192.70846603102999,-106.78079260793149L-222.01518821365107,35.31116307538026z" style="fill:rgb(83,212,212)"/><path d="M174.67118940455086,11.33819235239933L171.60744877001727,15.00207626352751L175.61438371046455,14.026934445033895z" style="fill:rgb(127,37,217)"/><path d="M-197.39960232979396,-107.68887066903501L128.27401643431637,-202.42409503971106L127.90820418351528,-204.81585993474152z" style="fill:rgb(83,212,212)"/><path d="M174.67118940455086,11.33819235239933L170.65467691443152,12.318441858823096L171.60744877001727,15.00207626352751zM209.41710424351535,108.21454537864754L208.5490360640077,105.73418334949737L56.41768648420132,139.1919892764703z" style="fill:rgb(127,37,217)"/><path d="M194.9514016889136,66.88114333967061L184.74603474912448,8.879380709625451L35.36337738573157,45.33692014298598z" style="fill:rgb(83,212,212)"/><path d="M134.2642717985238,-131.91184205644038L129.34745861349654,-165.97289959440317L129.14613779226315,-166.5706007086829zM133.70553779683982,-134.40339076349142L129.14613779226315,-166.5706007086829L128.81879218644156,-167.54246931290612zM134.71405510566078,-129.66338477373992L129.4153809493969,-165.77121119063426L129.34745861349654,-165.97289959440317zM194.9514016889136,66.88114333967061L195.8929444140019,69.57144139657746L170.80211285870146,-72.69038997478792zM133.05878689267877,-137.0453281157685L128.81879218644156,-167.54246931290612L128.37744059484103,-168.85284884449808z" style="fill:rgb(247,158,158)"/><path d="M37.24421470963393,103.12106883810898L-1.9865397829356064,112.13599781505769L-0.5701746898494411,114.58258394554088z" style="fill:rgb(127,37,217)"/><path d="M132.34796191497122,-139.73993724904554L128.37744059484103,-168.85284884449808L127.83834280510506,-170.45340478282537zM131.5993083447375,-142.38767921273885L127.83834280510506,-170.45340478282537L127.22154885339964,-172.28464884382723z" style="fill:rgb(247,158,158)"/><path d="M37.24421470963393,103.12106883810898L-0.5701746898494411,114.58258394554088L38.570009732303504,105.61527368255376z" style="fill:rgb(127,37,217)"/><path d="M180.64324989119402,59.23476297396688L184.29578219638321,69.32972231873136L160.68524788529064,-72.93198873926877zM130.840463468694,-144.89045424292726L127.22154885339964,-172.28464884382723L126.55017367187178,-174.2779225113471z" style="fill:rgb(247,158,158)"/><path d="M194.9514016889136,66.88114333967061L35.36337738573157,45.33692014298598L37.24421470963393,103.12106883810898zM-174.40129642560922,-77.93423151142223L-200.15922848830152,64.32152606321509L-196.2701934994792,63.333467680824526z" style="fill:rgb(83,212,212)"/><path d="M130.09959649729245,-147.15477954879293L126.55017367187178,-174.2779225113471L125.84963389741411,-176.35781937312484z" style="fill:rgb(247,158,158)"/><path d="M-187.93475347689557,16.4283418804674L-191.6668457120652,17.419849092292182L-192.14422250947234,19.196184209142316zM-187.93475347689557,16.4283418804674L-192.14422250947234,19.196184209142316L-188.40507094129313,18.204401751252725z" style="fill:rgb(84,220,202)"/><path d="M129.4044271301992,-149.09499783594603L125.84963389741411,-176.35781937312484L125.14668267521297,-178.44485512174245z" style="fill:rgb(247,158,158)"/><path d="M-188.40507094129313,18.204401751252725L-192.14422250947234,19.196184209142316L-192.85417639747595,20.56209093912899z" style="fill:rgb(85,234,182)"/><path d="M153.5781900263254,-82.01488762939812L176.35563049817728,60.2311200659852L180.64324989119402,59.23476297396688z" style="fill:rgb(83,212,212)"/><path d="M128.7813472159916,-150.636383304988L125.14668267521297,-178.44485512174245L124.46848054467554,-180.45841839952294z" style="fill:rgb(247,158,158)"/><path d="M-188.40507094129313,18.204401751252725L-192.85417639747595,20.56209093912899L-189.10717147817985,19.56937052807041z" style="fill:rgb(85,234,182)"/><path d="M-189.10717147817985,19.56937052807041L-192.85417639747595,20.56209093912899L-193.77139573946516,21.463010931853113z" style="fill:rgb(89,244,159)"/><path d="M-196.2701934994792,63.333467680824526L-158.60433672969037,119.47918580771997L-154.89537116659466,118.59956983171197z" style="fill:rgb(127,37,217)"/><path d="M128.254376113992,-151.71799537700946L124.46848054467554,-180.45841839952294L123.84145341189866,-182.32004446940553z" style="fill:rgb(247,158,158)"/><path d="M-189.10717147817985,19.56937052807041L-193.77139573946516,21.463010931853113L-190.01603962076052,20.468719111718116z" style="fill:rgb(89,244,159)"/><path d="M133.05878689267877,-137.0453281157685L133.70553779683982,-134.40339076349142L128.81879218644156,-167.54246931290612zM133.70553779683982,-134.40339076349142L134.2642717985238,-131.91184205644038L129.14613779226315,-166.5706007086829zM132.34796191497122,-139.73993724904554L133.05878689267877,-137.0453281157685L128.37744059484103,-168.85284884449808zM127.84429782531656,-152.29523971187209L123.84145341189866,-182.32004446940553L123.29028440704377,-183.95644991180788z" style="fill:rgb(247,158,158)"/><path d="M-190.01603962076052,20.468719111718116L-193.77139573946516,21.463010931853113L-194.8623340311403,21.861140304680283z" style="fill:rgb(93,250,135)"/><path d="M134.2642717985238,-131.91184205644038L134.71405510566078,-129.66338477373992L129.34745861349654,-165.97289959440317zM131.5993083447375,-142.38767921273885L132.34796191497122,-139.73993724904554L127.83834280510506,-170.45340478282537z" style="fill:rgb(247,158,158)"/><path d="M-190.01603962076052,20.468719111718116L-194.8623340311403,21.861140304680283L-191.09844234162722,20.864696840393087z" style="fill:rgb(93,250,135)"/><path d="M134.71405510566078,-129.66338477373992L135.03772043722412,-127.74258905383407L129.4153809493969,-165.77121119063426zM127.56775662705729,-152.3420839329451L123.29028440704377,-183.95644991180788L122.83685117731322,-185.30266977770674zM130.840463468694,-144.89045424292726L131.5993083447375,-142.38767921273885L127.22154885339964,-172.28464884382723zM130.09959649729245,-147.15477954879293L130.840463468694,-144.89045424292726L126.55017367187178,-174.2779225113471zM127.43648386472361,-151.85257969698299L122.83685117731322,-185.30266977770674L122.49927117399727,-186.30492242810382zM127.45670206552175,-150.84176785170612L122.49927117399727,-186.30492242810382L122.29112267812535,-186.92291596501337z" style="fill:rgb(247,158,158)"/><path d="M123.42253863891258,-148.14563698321754L122.22078859784622,-187.13174444455126L118.19792953104093,-185.9460593345523z" style="fill:rgb(83,212,212)"/><path d="M129.4044271301992,-149.09499783594603L130.09959649729245,-147.15477954879293L125.84963389741411,-176.35781937312484zM127.62866663220574,-149.34564549677688L122.29112267812535,-186.92291596501337L122.22078859784622,-187.13174444455126z" style="fill:rgb(247,158,158)"/><path d="M195.8929444140019,69.57144139657746L37.24421470963393,103.12106883810898L38.570009732303504,105.61527368255376z" style="fill:rgb(127,37,217)"/><path d="M128.7813472159916,-150.636383304988L129.4044271301992,-149.09499783594603L125.14668267521297,-178.44485512174245zM180.64324989119402,59.23476297396688L151.05696582243806,-101.51804255731105L173.90820106745787,40.62032095818585zM-196.40051925815598,63.159389354065134L-187.93475347689557,16.4283418804674L-188.40507094129313,18.204401751252725zM150.27059736871354,-24.709774422956375L151.05696582243806,-101.51804255731105L129.4153809493969,-165.77121119063426zM128.254376113992,-151.71799537700946L128.7813472159916,-150.636383304988L124.46848054467554,-180.45841839952294zM-196.7867509530094,62.643474236473814L-188.40507094129313,18.204401751252725L-189.10717147817985,19.56937052807041z" style="fill:rgb(247,158,158)"/><path d="M133.05878689267877,-137.0453281157685L128.94065647775716,-135.88407440320944L129.58540855536359,-133.24435460421944z" style="fill:rgb(93,135,250)"/><path d="M132.34796191497122,-139.73993724904554L128.2298311231964,-138.57581712462007L128.94065647775716,-135.88407440320944z" style="fill:rgb(99,111,250)"/><path d="M127.84429782531656,-152.29523971187209L128.254376113992,-151.71799537700946L123.84145341189866,-182.32004446940553z" style="fill:rgb(247,158,158)"/><path d="M132.34796191497122,-139.73993724904554L128.94065647775716,-135.88407440320944L133.05878689267877,-137.0453281157685z" style="fill:rgb(99,111,250)"/><path d="M133.05878689267877,-137.0453281157685L129.58540855536359,-133.24435460421944L133.70553779683982,-134.40339076349142z" style="fill:rgb(93,135,250)"/><path d="M133.70553779683982,-134.40339076349142L129.58540855536359,-133.24435460421944L130.14018085174033,-130.75430375834225z" style="fill:rgb(89,159,244)"/><path d="M131.5993083447375,-142.38767921273885L127.47914403955318,-141.22017532791807L128.2298311231964,-138.57581712462007zM131.5993083447375,-142.38767921273885L128.2298311231964,-138.57581712462007L132.34796191497122,-139.73993724904554z" style="fill:rgb(106,87,246)"/><path d="M-197.41484656489015,61.80452060961384L-189.10717147817985,19.56937052807041L-190.01603962076052,20.468719111718116z" style="fill:rgb(247,158,158)"/><path d="M133.70553779683982,-134.40339076349142L130.14018085174033,-130.75430375834225L134.2642717985238,-131.91184205644038z" style="fill:rgb(89,159,244)"/><path d="M130.840463468694,-144.89045424292726L127.47914403955318,-141.22017532791807L131.5993083447375,-142.38767921273885z" style="fill:rgb(114,65,238)"/><path d="M134.2642717985238,-131.91184205644038L130.14018085174033,-130.75430375834225L130.584183762856,-128.50657311069793z" style="fill:rgb(85,182,234)"/><path d="M130.840463468694,-144.89045424292726L126.71631566560914,-143.71913782505982L127.47914403955318,-141.22017532791807z" style="fill:rgb(114,65,238)"/><path d="M134.2642717985238,-131.91184205644038L130.584183762856,-128.50657311069793L134.71405510566078,-129.66338477373992z" style="fill:rgb(85,182,234)"/><path d="M127.56775662705729,-152.3420839329451L127.84429782531656,-152.29523971187209L123.29028440704377,-183.95644991180788z" style="fill:rgb(247,158,158)"/><path d="M130.09959649729245,-147.15477954879293L126.71631566560914,-143.71913782505982L130.840463468694,-144.89045424292726z" style="fill:rgb(123,46,225)"/><path d="M-198.2617932652632,60.67320733476757L-190.01603962076052,20.468719111718116L-191.09844234162722,20.864696840393087z" style="fill:rgb(247,158,158)"/><path d="M134.71405510566078,-129.66338477373992L130.584183762856,-128.50657311069793L130.9004873393227,-126.5857019421339z" style="fill:rgb(84,202,220)"/><path d="M130.09959649729245,-147.15477954879293L125.9696588741413,-145.97937163464982L126.71631566560914,-143.71913782505982z" style="fill:rgb(123,46,225)"/><path d="M173.90820106745787,40.62032095818585L147.2882789504913,-100.49177855578965L169.54637646715855,41.65477472570979z" style="fill:rgb(83,212,212)"/><path d="M-218.03333500390812,34.26353487912471L-210.0887108491858,44.87549795349244L-182.58541558565918,-97.29474959729698z" style="fill:rgb(247,158,158)"/><path d="M134.71405510566078,-129.66338477373992L130.9004873393227,-126.5857019421339L135.03772043722412,-127.74258905383407z" style="fill:rgb(84,202,220)"/><path d="M127.43648386472361,-151.85257969698299L127.56775662705729,-152.3420839329451L122.83685117731322,-185.30266977770674z" style="fill:rgb(247,158,158)"/><path d="M129.4044271301992,-149.09499783594603L125.9696588741413,-145.97937163464982L130.09959649729245,-147.15477954879293zM129.4044271301992,-149.09499783594603L125.26710109779829,-147.91536880492794L125.9696588741413,-145.97937163464982z" style="fill:rgb(131,29,208)"/><path d="M-199.29647457878002,59.29115847096715L-191.09844234162722,20.864696840393087L-192.31409927162002,20.73824446781727z" style="fill:rgb(247,158,158)"/><path d="M-196.2701934994792,63.333467680824526L-200.15922848830152,64.32152606321509L-158.60433672969037,119.47918580771997z" style="fill:rgb(127,37,217)"/><path d="M127.45670206552175,-150.84176785170612L127.43648386472361,-151.85257969698299L122.49927117399727,-186.30492242810382z" style="fill:rgb(247,158,158)"/><path d="M128.7813472159916,-150.636383304988L125.26710109779829,-147.91536880492794L129.4044271301992,-149.09499783594603zM128.7813472159916,-150.636383304988L124.63529177618534,-149.45256144910712L125.26710109779829,-147.91536880492794z" style="fill:rgb(140,16,189)"/><path d="M-200.4804623998858,57.709625641338L-192.31409927162002,20.73824446781727L-193.61683232982244,20.090313318321027zM127.62866663220574,-149.34564549677688L127.45670206552175,-150.84176785170612L122.29112267812535,-186.92291596501337z" style="fill:rgb(247,158,158)"/><path d="M195.8929444140019,69.57144139657746L194.9514016889136,66.88114333967061L37.24421470963393,103.12106883810898z" style="fill:rgb(127,37,217)"/><path d="M123.42253863891258,-148.14563698321754L127.62866663220574,-149.34564549677688L122.22078859784622,-187.13174444455126z" style="fill:rgb(83,212,212)"/><path d="M128.254376113992,-151.71799537700946L124.63529177618534,-149.45256144910712L128.7813472159916,-150.636383304988z" style="fill:rgb(148,8,167)"/><path d="M-189.22622449138348,-107.81839594721437L-222.01518821365107,35.31116307538026L-218.03333500390812,34.26353487912471z" style="fill:rgb(83,212,212)"/><path d="M128.254376113992,-151.71799537700946L124.09860354583641,-150.53015849683834L124.63529177618534,-149.45256144910712z" style="fill:rgb(148,8,167)"/><path d="M-201.7695227393614,55.98779233022229L-193.61683232982244,20.090313318321027L-194.95647596110769,18.94242888005399zM-196.40051925815598,63.159389354065134L-196.2701934994792,63.333467680824526L-187.93475347689557,16.4283418804674z" style="fill:rgb(247,158,158)"/><path d="M127.84429782531656,-152.29523971187209L124.09860354583641,-150.53015849683834L128.254376113992,-151.71799537700946z" style="fill:rgb(155,4,143)"/><path d="M-203.11488774423657,54.1907417660813L-194.95647596110769,18.94242888005399L-196.28057836640806,17.336383643689167z" style="fill:rgb(247,158,158)"/><path d="M127.84429782531656,-152.29523971187209L123.67815031542665,-151.10375521471886L124.09860354583641,-150.53015849683834z" style="fill:rgb(155,4,143)"/><path d="M-196.7867509530094,62.643474236473814L-196.40051925815598,63.159389354065134L-188.40507094129313,18.204401751252725zM-204.46514344664735,52.387125117735415L-196.28057836640806,17.336383643689167L-197.53670378939896,15.333012622632364zM-197.41484656489015,61.80452060961384L-196.7867509530094,62.643474236473814L-189.10717147817985,19.56937052807041z" style="fill:rgb(247,158,158)"/><path d="M-116.60045532940737,186.90813444113286L211.44760727094382,115.56825871547433L150.17875149184124,-59.204579524710994z" style="fill:rgb(127,37,217)"/><path d="M127.56775662705729,-152.3420839329451L123.67815031542665,-151.10375521471886L127.84429782531656,-152.29523971187209z" style="fill:rgb(161,4,119)"/><path d="M-214.03683287482303,45.90117938886112L-201.00533169921204,-2.078381345603043L-204.79186521663792,-1.0507688370243056zM125.45557127728249,-164.62638538904383L150.27059736871354,-24.709774422956375L129.4153809493969,-165.77121119063426z" style="fill:rgb(83,212,212)"/><path d="M127.56775662705729,-152.3420839329451L123.39097960949077,-151.14742250923356L123.67815031542665,-151.10375521471886z" style="fill:rgb(161,4,119)"/><path d="M-205.76820143955086,50.6465946638534L-197.53670378939896,15.333012622632364L-198.67470953937365,13.010001537290684zM-198.2617932652632,60.67320733476757L-197.41484656489015,61.80452060961384L-190.01603962076052,20.468719111718116zM-210.0887108491858,44.87549795349244L-201.25468284141104,0.053855215586602875L-201.00533169921204,-2.078381345603043zM-206.9731630898226,49.037079453500304L-198.67470953937365,13.010001537290684L-199.64881299190287,10.45880626481889zM-209.95347014259005,45.056143083817396L-201.2386413952102,2.4726643081198616L-201.25468284141104,0.053855215586602875zM-199.29647457878002,59.29115847096715L-198.2617932652632,60.67320733476757L-191.09844234162722,20.864696840393087zM-208.0325320690294,47.62202090603946L-199.64881299190287,10.45880626481889L-200.41980700138598,7.780801914285847zM-209.55323888352183,45.59075534974807L-200.95680466825675,5.082869710629665L-201.2386413952102,2.4726643081198616zM-208.90419169627842,46.45769454826737L-200.41980700138598,7.780801914285847L-200.95680466825675,5.082869710629665zM-200.4804623998858,57.709625641338L-199.29647457878002,59.29115847096715L-192.31409927162002,20.73824446781727zM-201.7695227393614,55.98779233022229L-200.4804623998858,57.709625641338L-193.61683232982244,20.090313318321027zM-203.11488774423657,54.1907417660813L-201.7695227393614,55.98779233022229L-194.95647596110769,18.94242888005399z" style="fill:rgb(247,158,158)"/><path d="M180.64324989119402,59.23476297396688L180.04851514928657,70.30571049716244L184.29578219638321,69.32972231873136z" style="fill:rgb(127,37,217)"/><path d="M-204.46514344664735,52.387125117735415L-203.11488774423657,54.1907417660813L-196.28057836640806,17.336383643689167z" style="fill:rgb(247,158,158)"/><path d="M180.64324989119402,59.23476297396688L176.35563049817728,60.2311200659852L180.04851514928657,70.30571049716244z" style="fill:rgb(127,37,217)"/><path d="M-205.76820143955086,50.6465946638534L-204.46514344664735,52.387125117735415L-197.53670378939896,15.333012622632364zM150.27059736871354,-24.709774422956375L173.90820106745787,40.62032095818585L151.05696582243806,-101.51804255731105zM-206.9731630898226,49.037079453500304L-205.76820143955086,50.6465946638534L-198.67470953937365,13.010001537290684zM-208.0325320690294,47.62202090603946L-206.9731630898226,49.037079453500304L-199.64881299190287,10.45880626481889z" style="fill:rgb(247,158,158)"/><path d="M-214.03683287482303,45.90117938886112L-210.0887108491858,44.87549795349244L-201.00533169921204,-2.078381345603043z" style="fill:rgb(83,212,212)"/><path d="M-208.90419169627842,46.45769454826737L-208.0325320690294,47.62202090603946L-200.41980700138598,7.780801914285847zM-209.55323888352183,45.59075534974807L-208.90419169627842,46.45769454826737L-200.95680466825675,5.082869710629665zM-210.0887108491858,44.87549795349244L-209.95347014259005,45.056143083817396L-201.25468284141104,0.053855215586602875zM-209.95347014259005,45.056143083817396L-209.55323888352183,45.59075534974807L-201.2386413952102,2.4726643081198616z" style="fill:rgb(247,158,158)"/><path d="M-210.0887108491858,44.87549795349244L-200.15922848830152,64.32152606321509L-196.2701934994792,63.333467680824526zM173.90820106745787,40.62032095818585L176.35563049817728,60.2311200659852L180.64324989119402,59.23476297396688z" style="fill:rgb(127,37,217)"/><path d="M149.67758355300526,-62.48138547098237L211.44760727094382,115.56825871547433L210.8536965736946,112.31937766082018z" style="fill:rgb(247,158,158)"/><path d="M-210.0887108491858,44.87549795349244L-214.03683287482303,45.90117938886112L-200.15922848830152,64.32152606321509zM-116.60045532940737,186.90813444113286L150.17875149184124,-59.204579524710994L-228.66687091224918,40.16217992196064z" style="fill:rgb(127,37,217)"/><path d="M137.74050392873926,-59.34072706952349L122.22078859784622,-187.13174444455126L118.091952971548,-199.3901290261021z" style="fill:rgb(247,158,158)"/><path d="M173.90820106745787,40.62032095818585L169.54637646715855,41.65477472570979L176.35563049817728,60.2311200659852z" style="fill:rgb(127,37,217)"/><path d="M118.091952971548,-199.3901290261021L114.03301066126434,-198.1806789677704L132.9846539808414,-58.089466010398255z" style="fill:rgb(83,212,212)"/><path d="M-218.03333500390812,34.26353487912471L-214.03683287482303,45.90117938886112L-210.0887108491858,44.87549795349244zM-218.03333500390812,34.26353487912471L-222.01518821365107,35.31116307538026L-214.03683287482303,45.90117938886112z" style="fill:rgb(127,37,217)"/><path d="M125.45557127728249,-164.62638538904383L145.6504101281334,-23.53595437400006L150.27059736871354,-24.709774422956375z" style="fill:rgb(83,212,212)"/><path d="M143.34081052516308,-71.5817808811776L138.94073875382182,-70.41280841822085L139.14528144782895,-68.6758631012036zM143.34081052516308,-71.5817808811776L139.14528144782895,-68.6758631012036L143.55521218617585,-69.84555870771766z" style="fill:rgb(84,220,202)"/><path d="M143.55521218617585,-69.84555870771766L139.14528144782895,-68.6758631012036L139.19550223542248,-67.41011593894412zM143.55521218617585,-69.84555870771766L139.19550223542248,-67.41011593894412L143.61641927735778,-68.58138347123585z" style="fill:rgb(85,234,182)"/><path d="M143.61641927735778,-68.58138347123585L139.19550223542248,-67.41011593894412L139.08834986118472,-66.66696991210425z" style="fill:rgb(89,244,159)"/><path d="M150.27059736871354,-24.709774422956375L169.54637646715855,41.65477472570979L173.90820106745787,40.62032095818585z" style="fill:rgb(127,37,217)"/><path d="M143.61641927735778,-68.58138347123585L139.08834986118472,-66.66696991210425L143.52100613262667,-67.8405848619259z" style="fill:rgb(89,244,159)"/><path d="M143.52100613262667,-67.8405848619259L139.08834986118472,-66.66696991210425L138.8266728110665,-66.47893291930224zM143.52100613262667,-67.8405848619259L138.8266728110665,-66.47893291930224L143.27137785416934,-67.65561459214777z" style="fill:rgb(93,250,135)"/><path d="M150.19577358942047,-24.916602381950593L143.34081052516308,-71.5817808811776L143.55521218617585,-69.84555870771766zM149.9739696120348,-25.52961139324814L143.55521218617585,-69.84555870771766L143.61641927735778,-68.58138347123585zM149.61324196372712,-26.52658859941046L143.61641927735778,-68.58138347123585L143.52100613262667,-67.8405848619259z" style="fill:rgb(247,158,158)"/><path d="M-227.97244941295105,36.87852695215927L-228.66687091224918,40.16217992196064L150.17875149184124,-59.204579524710994z" style="fill:rgb(83,212,212)"/><path d="M149.1267344468552,-27.871233646424887L143.52100613262667,-67.8405848619259L143.27137785416934,-67.65561459214777zM137.74050392873926,-59.34072706952349L142.32238838269134,-46.67721160446154L122.22078859784622,-187.13174444455126zM148.532249268615,-29.514275229690295L143.27137785416934,-67.65561459214777L142.87583867591212,-68.03816474851199z" style="fill:rgb(247,158,158)"/><path d="M150.27059736871354,-24.709774422956375L145.6504101281334,-23.53595437400006L169.54637646715855,41.65477472570979z" style="fill:rgb(127,37,217)"/><path d="M147.85177451476807,-31.394985065470962L142.87583867591212,-68.03816474851199L142.3485491566056,-68.9780635170016zM147.11070276174775,-33.443158323270595L142.3485491566056,-68.9780635170016L141.70908630295915,-70.442957167277zM149.67758355300526,-62.48138547098237L150.17875149184124,-59.204579524710994L211.44760727094382,115.56825871547433z" style="fill:rgb(247,158,158)"/><path d="M118.091952971548,-199.3901290261021L132.9846539808414,-58.089466010398255L137.74050392873926,-59.34072706952349z" style="fill:rgb(83,212,212)"/><path d="M150.19577358942047,-24.916602381950593L150.27059736871354,-24.709774422956375L143.34081052516308,-71.5817808811776zM146.33701927183174,-35.58149876686286L141.70908630295915,-70.442957167277L140.98183445474407,-72.3789417498656zM149.9739696120348,-25.52961139324814L150.19577358942047,-24.916602381950593L143.55521218617585,-69.84555870771766zM145.56024111919365,-37.728363773799195L140.98183445474407,-72.3789417498656L140.19503257510232,-74.71227050509528zM149.61324196372712,-26.52658859941046L149.9739696120348,-25.52961139324814L143.61641927735778,-68.58138347123585z" style="fill:rgb(247,158,158)"/><path d="M137.6160484612801,-45.45455292576268L135.63027241964096,-93.4365726690499L131.1521588080978,-92.22127176902609z" style="fill:rgb(83,212,212)"/><path d="M144.81039673802587,-39.800811546558364L140.19503257510232,-74.71227050509528L139.37973250153817,-77.35206323724279zM149.1267344468552,-27.871233646424887L149.61324196372712,-26.52658859941046L143.52100613262667,-67.8405848619259zM142.32238838269134,-46.67721160446154L135.9829436124354,-91.28664852372714L135.63027241964096,-93.4365726690499zM144.11677669715255,-41.71785260088731L139.37973250153817,-77.35206323724279L138.56839023084729,-80.1939581004113zM142.40030741607072,-46.461857173639956L136.47458443384838,-88.78383915083982L135.9829436124354,-91.28664852372714zM148.532249268615,-29.514275229690295L149.1267344468552,-27.871233646424887L143.27137785416934,-67.65561459214777zM143.50678669503148,-43.40375180395147L138.56839023084729,-80.1939581004113L137.79350916864092,-83.1245947243246zM142.63088555069646,-45.82456795114336L137.08616353075163,-86.02659286016186L136.47458443384838,-88.78383915083982zM143.00476001425892,-44.79125854914614L137.79350916864092,-83.1245947243246L137.08616353075163,-86.02659286016186zM147.85177451476807,-31.394985065470962L148.532249268615,-29.514275229690295L142.87583867591212,-68.03816474851199zM147.11070276174775,-33.443158323270595L147.85177451476807,-31.394985065470962L142.3485491566056,-68.9780635170016zM146.33701927183174,-35.58149876686286L147.11070276174775,-33.443158323270595L141.70908630295915,-70.442957167277zM145.56024111919365,-37.728363773799195L146.33701927183174,-35.58149876686286L140.98183445474407,-72.3789417498656zM144.81039673802587,-39.800811546558364L145.56024111919365,-37.728363773799195L140.19503257510232,-74.71227050509528zM144.11677669715255,-41.71785260088731L144.81039673802587,-39.800811546558364L139.37973250153817,-77.35206323724279zM143.50678669503148,-43.40375180395147L144.11677669715255,-41.71785260088731L138.56839023084729,-80.1939581004113z" style="fill:rgb(247,158,158)"/><path d="M137.6160484612801,-45.45455292576268L142.32238838269134,-46.67721160446154L135.63027241964096,-93.4365726690499z" style="fill:rgb(83,212,212)"/><path d="M143.00476001425892,-44.79125854914614L143.50678669503148,-43.40375180395147L137.79350916864092,-83.1245947243246zM142.63088555069646,-45.82456795114336L143.00476001425892,-44.79125854914614L137.08616353075163,-86.02659286016186zM142.32238838269134,-46.67721160446154L142.40030741607072,-46.461857173639956L135.9829436124354,-91.28664852372714zM142.40030741607072,-46.461857173639956L142.63088555069646,-45.82456795114336L136.47458443384838,-88.78383915083982z" style="fill:rgb(247,158,158)"/><path d="M-227.97244941295105,36.87852695215927L150.17875149184124,-59.204579524710994L149.67758355300526,-62.48138547098237z" style="fill:rgb(83,212,212)"/><path d="M142.32238838269134,-46.67721160446154L145.6504101281334,-23.53595437400006L150.27059736871354,-24.709774422956375zM142.32238838269134,-46.67721160446154L137.6160484612801,-45.45455292576268L145.6504101281334,-23.53595437400006zM137.74050392873926,-59.34072706952349L137.6160484612801,-45.45455292576268L142.32238838269134,-46.67721160446154zM137.74050392873926,-59.34072706952349L132.9846539808414,-58.089466010398255L137.6160484612801,-45.45455292576268z" style="fill:rgb(127,37,217)"/></svg>
