<?xml version="1.0" encoding="UTF-8"?>
<!-- Generated by jsxcad -->
<!DOCTYPE svg PUBLIC "-//W3C//DTD SVG 1.1 Tiny//EN" "http://www.w3.org/Graphics/SVG/1.1/DTD/svg11-tiny.dtd">
<svg viewBox="-250 -250 500 500" width="500" height="500" xmlns="http://www.w3.org/2000/svg"><path d="M-72.51654019936372,125.79946946829284L72.51478958906915,-125.58817008859587L-72.51478958906924,-125.58817008859583zM72.51478958906915,-125.58817008859587L-72.51654019936372,125.79946946829284L72.5165401993638,125.79946946829278z" style="fill:rgb(127,127,254)"/><path d="M72.31510294076892,125.45031155164924L75.82367511836466,-131.3235717013851L72.31336204257923,-125.23902900626766z" style="fill:rgb(0,127,127)"/><path d="M-72.31336204257931,-125.2390290062676L-75.82376713633822,-118.68643661329706L-72.31510294076885,125.45031155164929zM-75.82376713633822,-118.68643661329706L-72.31336204257931,-125.2390290062676L-75.82367511836475,-131.32357170138505z" style="fill:rgb(255,127,127)"/><path d="M75.82367511836466,-131.3235717013851L72.31510294076892,125.45031155164924L75.82376713633813,-118.68643661329712z" style="fill:rgb(0,127,127)"/><path d="M-72.31510294076885,125.45031155164929L-75.82376713633822,-118.68643661329706L-75.82378922068509,-115.65351962811516z" style="fill:rgb(255,127,127)"/><path d="M75.82376713633813,-118.68643661329712L72.31510294076892,125.45031155164924L75.823789220685,-115.65351962811522z" style="fill:rgb(0,127,127)"/><path d="M-72.31510294076885,125.45031155164929L-75.82378922068509,-115.65351962811516L-75.82558913820479,131.53515432429577z" style="fill:rgb(255,127,127)"/><path d="M75.823789220685,-115.65351962811522L72.31510294076892,125.45031155164924L75.82558913820488,131.53515432429572z" style="fill:rgb(0,127,127)"/><path d="M-75.67863847092272,131.28043983306662L75.67673186257551,-131.06887005674375L-75.6767318625756,-131.0688700567437zM75.67673186257551,-131.06887005674375L-75.67863847092272,131.28043983306662L75.6786384709228,131.28043983306657zM-78.85674078951249,-115.65351962811516L-75.82376713633822,-118.68643661329706L-78.85671782179173,-118.68643661329706zM75.823789220685,-115.65351962811522L78.85671782179166,-118.68643661329712L75.82376713633813,-118.68643661329712zM-75.82376713633822,-118.68643661329706L-78.85674078951249,-115.65351962811516L-75.82378922068509,-115.65351962811516zM78.85671782179166,-118.68643661329712L75.823789220685,-115.65351962811522L78.85674078951241,-115.65351962811522z" style="fill:rgb(127,127,254)"/><path d="M75.82376713633813,-118.68643661329712L78.09835580106673,-135.26635157111593L75.82367511836466,-131.3235717013851z" style="fill:rgb(0,127,127)"/><path d="M-75.82367511836475,-131.32357170138505L-78.09845342286451,-122.25011181333994L-75.82376713633822,-118.68643661329706z" style="fill:rgb(255,127,127)"/><path d="M-75.82376713633822,-118.68643661329706L-81.22239155977907,-122.25011181333994L-78.85671782179173,-118.68643661329706zM78.85671782179166,-118.68643661329712L78.09845342286442,-122.25011181334L75.82376713633813,-118.68643661329712z" style="fill:rgb(127,0,127)"/><path d="M75.82558913820488,131.53515432429572L78.09847685213218,-119.12620942948803L75.823789220685,-115.65351962811522z" style="fill:rgb(0,127,127)"/><path d="M-75.82378922068509,-115.65351962811516L-78.10038638471512,135.478136237962L-75.82558913820479,131.53515432429577z" style="fill:rgb(255,127,127)"/><path d="M-78.10028875808504,122.4612521603712L75.82549711580904,118.8974119029861L-75.82549711580897,118.89741190298615z" style="fill:rgb(127,254,127)"/><path d="M-78.09845342286451,-122.25011181333994L-75.82367511836475,-131.32357170138505L-78.09835580106682,-135.26635157111588z" style="fill:rgb(255,127,127)"/><path d="M78.09835580106673,-135.26635157111593L75.82376713633813,-118.68643661329712L78.09845342286442,-122.25011181334z" style="fill:rgb(0,127,127)"/><path d="M-81.22239155977907,-122.25011181333994L-75.82376713633822,-118.68643661329706L-78.09845342286451,-122.25011181333994zM78.09845342286442,-122.25011181334L78.85671782179166,-118.68643661329712L81.222391559779,-122.25011181334z" style="fill:rgb(127,0,127)"/><path d="M-78.10038638471512,135.478136237962L-75.82378922068509,-115.65351962811516L-78.09847685213226,-119.12620942948797z" style="fill:rgb(255,127,127)"/><path d="M78.09847685213218,-119.12620942948803L75.82558913820488,131.53515432429572L78.10038638471521,135.47813623796193z" style="fill:rgb(0,127,127)"/><path d="M75.82549711580904,118.8974119029861L-78.10028875808504,122.4612521603712L78.10028875808513,122.46125216037116zM78.10028875808513,122.46125216037116L-78.10028875808504,122.4612521603712L-77.2370807688536,122.5224620443624z" style="fill:rgb(127,254,127)"/><path d="M-78.10031218845401,125.58530137110766L-77.2370807688536,122.5224620443624L-78.10028875808504,122.4612521603712z" style="fill:rgb(63,127,237)"/><path d="M78.10028875808513,122.46125216037116L77.23710395184877,125.64807409832102L78.1003121884541,125.5853013711076z" style="fill:rgb(191,127,237)"/><path d="M78.10028875808513,122.46125216037116L-77.2370807688536,122.5224620443624L77.23708076885369,122.52246204436234z" style="fill:rgb(127,254,127)"/><path d="M77.23710395184877,125.64807409832102L78.10028875808513,122.46125216037116L77.23708076885369,122.52246204436234z" style="fill:rgb(191,127,237)"/><path d="M-77.2370807688536,122.5224620443624L-78.10031218845401,125.58530137110766L-77.23710395184868,125.64807409832108z" style="fill:rgb(63,127,237)"/><path d="M-77.31443478956326,122.64506572001918L77.23708076885369,122.52246204436234L-77.2370807688536,122.5224620443624zM77.23708076885369,122.52246204436234L-77.31443478956326,122.64506572001918L77.31443478956335,122.64506572001912zM-78.25680420555265,122.70645969596316L77.31443478956335,122.64506572001912L-77.31443478956326,122.64506572001918zM77.31443478956335,122.64506572001912L-78.25680420555265,122.70645969596316L78.25680420555274,122.7064596959631z" style="fill:rgb(127,254,127)"/><path d="M-83.97664449818681,-145.45538536373573L-78.09845342286451,-122.25011181333994L-78.09835580106682,-135.26635157111588z" style="fill:rgb(255,127,127)"/><path d="M78.09845342286442,-122.25011181334L83.97664449818673,-145.4553853637358L78.09835580106673,-135.26635157111593zM83.97675736859468,-131.45945470769746L78.09845342286442,-122.25011181334L78.09847685213218,-119.12620942948803z" style="fill:rgb(0,127,127)"/><path d="M-78.09845342286451,-122.25011181333994L-83.97678445753783,-128.10042575194487L-78.09847685213226,-119.12620942948797z" style="fill:rgb(255,127,127)"/><path d="M83.97678445753775,-128.10042575194495L78.09847685213218,-119.12620942948803L78.10038638471521,135.47813623796193z" style="fill:rgb(0,127,127)"/><path d="M-78.09847685213226,-119.12620942948797L-83.97899226515223,145.66771981500085L-78.10038638471512,135.478136237962z" style="fill:rgb(255,127,127)"/><path d="M78.25680420555274,122.7064596959631L-78.25680420555265,122.70645969596316L-83.75410762326254,131.31890176010418zM78.25680420555274,122.7064596959631L-83.75410762326254,131.31890176010418L83.75410762326263,131.31890176010413z" style="fill:rgb(127,254,127)"/><path d="M-78.09845342286451,-122.25011181333994L-83.97664449818681,-145.45538536373573L-83.97675736859476,-131.4594547076974z" style="fill:rgb(255,127,127)"/><path d="M83.97664449818673,-145.4553853637358L78.09845342286442,-122.25011181334L83.97675736859468,-131.45945470769746z" style="fill:rgb(0,127,127)"/><path d="M-78.09845342286451,-122.25011181333994L-83.97675736859476,-131.4594547076974L-83.97678445753783,-128.10042575194487z" style="fill:rgb(255,127,127)"/><path d="M83.97675736859468,-131.45945470769746L78.09847685213218,-119.12620942948803L83.97678445753775,-128.10042575194495z" style="fill:rgb(0,127,127)"/><path d="M-78.09847685213226,-119.12620942948797L-83.97678445753783,-128.10042575194487L-83.97899226515223,145.66771981500085z" style="fill:rgb(255,127,127)"/><path d="M83.97678445753775,-128.10042575194495L78.10038638471521,135.47813623796193L83.97899226515231,145.6677198150008z" style="fill:rgb(0,127,127)"/><path d="M-28.19790902768318,134.66910937420667L27.638171793026878,131.31890176010415L-28.197899955814847,131.31890176010418zM27.638171793026878,131.31890176010415L-28.19790902768318,134.66910937420667L27.638180684818686,134.66910937420664z" style="fill:rgb(127,127,254)"/><path d="M28.757410733165138,131.32361491261852L83.75410762326263,131.31890176010413L27.638171793026878,131.31890176010415z" style="fill:rgb(127,254,127)"/><path d="M27.638180684818686,134.66910937420664L28.757410733165138,131.32361491261852L27.638171793026878,131.31890176010415z" style="fill:rgb(123,127,254)"/><path d="M83.75410762326263,131.31890176010413L28.757410733165138,131.32361491261852L83.75711601846952,131.3236149126185z" style="fill:rgb(127,254,127)"/><path d="M28.757410733165138,131.32361491261852L27.638180684818686,134.66910937420664L28.757419985372405,134.67394286564002z" style="fill:rgb(123,127,254)"/><path d="M-83.76311700752942,131.3330164621929L-28.197899955814847,131.31890176010418L-83.75410762326254,131.31890176010418z" style="fill:rgb(127,254,127)"/><path d="M-28.197899955814847,131.31890176010418L-29.314275731225727,134.68358446098222L-28.19790902768318,134.66910937420667z" style="fill:rgb(140,127,254)"/><path d="M-28.197899955814847,131.31890176010418L-83.76311700752942,131.3330164621929L-29.31426629918394,131.33301646219286z" style="fill:rgb(127,254,127)"/><path d="M-29.314275731225727,134.68358446098222L-28.197899955814847,131.31890176010418L-29.31426629918394,131.33301646219286z" style="fill:rgb(140,127,254)"/><path d="M28.757410733165138,131.32361491261852L83.77208719705749,131.34706975919025L83.75711601846952,131.3236149126185z" style="fill:rgb(127,254,127)"/><path d="M28.757419985372405,134.67394286564002L29.86603501592253,131.34706975919028L28.757410733165138,131.32361491261852z" style="fill:rgb(106,127,253)"/><path d="M83.77208719705749,131.34706975919025L28.757410733165138,131.32361491261852L29.86603501592253,131.34706975919028z" style="fill:rgb(127,254,127)"/><path d="M29.86603501592253,131.34706975919028L28.757419985372405,134.67394286564002L29.866044626528332,134.69799657483742z" style="fill:rgb(106,127,253)"/><path d="M-83.7839873499064,131.3657133320803L-29.31426629918394,131.33301646219286L-83.76311700752942,131.3330164621929z" style="fill:rgb(127,254,127)"/><path d="M-29.31426629918394,131.33301646219286L-30.41032054782223,134.71711616614968L-29.314275731225727,134.68358446098222z" style="fill:rgb(157,127,251)"/><path d="M-29.31426629918394,131.33301646219286L-83.7839873499064,131.3657133320803L-30.410310760683576,131.36571333208028z" style="fill:rgb(127,254,127)"/><path d="M-30.41032054782223,134.71711616614968L-29.31426629918394,131.33301646219286L-30.410310760683576,131.36571333208028z" style="fill:rgb(157,127,251)"/><path d="M30.94471574155279,131.38886941386568L83.77208719705749,131.34706975919025L29.86603501592253,131.34706975919028z" style="fill:rgb(127,254,127)"/><path d="M29.866044626528332,134.69799657483742L30.94471574155279,131.38886941386568L29.86603501592253,131.34706975919028z" style="fill:rgb(89,127,249)"/><path d="M-83.79866492918997,131.38870820640622L-30.410310760683576,131.36571333208028L-83.7839873499064,131.3657133320803zM83.77208719705749,131.34706975919025L30.94471574155279,131.38886941386568L83.79866492919007,131.38870820640616z" style="fill:rgb(127,254,127)"/><path d="M30.94471574155279,131.38886941386568L29.866044626528332,134.69799657483742L30.944725702439225,134.74086348233126z" style="fill:rgb(89,127,249)"/><path d="M-30.410310760683576,131.36571333208028L-31.46692128245305,134.76913756780453L-30.41032054782223,134.71711616614968z" style="fill:rgb(173,127,246)"/><path d="M83.79866492919007,131.38870820640616L30.94471574155279,131.38886941386568L83.79655147018319,131.38886941386565zM-30.410310760683576,131.36571333208028L-83.79866492918997,131.38870820640622L-31.466911151348484,131.41643956244738z" style="fill:rgb(127,254,127)"/><path d="M-31.46692128245305,134.76913756780453L-30.410310760683576,131.36571333208028L-31.466911151348484,131.41643956244738z" style="fill:rgb(173,127,246)"/><path d="M-31.466911151348484,131.41643956244738L-83.79866492918997,131.38870820640622L-83.43539626580662,131.41643956244738zM31.974606719159866,131.44830455505885L83.79655147018319,131.38886941386565L30.94471574155279,131.38886941386568z" style="fill:rgb(127,254,127)"/><path d="M30.944725702439225,134.74086348233126L31.974606719159866,131.44830455505885L30.94471574155279,131.38886941386568z" style="fill:rgb(73,127,243)"/><path d="M-83.7986919033579,134.74069815883024L-82.87550024680411,131.45917854015016L-83.79866492918997,131.38870820640622z" style="fill:rgb(63,127,237)"/><path d="M83.79866492919007,131.38870820640616L82.87552693813187,134.81296778167643L83.79869190335799,134.74069815883018z" style="fill:rgb(191,127,237)"/><path d="M83.79655147018319,131.38886941386565L31.974606719159866,131.44830455505885L83.01796174286659,131.44830455505883z" style="fill:rgb(127,254,127)"/><path d="M31.974606719159866,131.44830455505885L30.944725702439225,134.74086348233126L31.974617016220535,134.80181615574043z" style="fill:rgb(73,127,243)"/><path d="M-83.43539626580662,131.41643956244738L-32.095623855703664,131.45917854015016L-31.466911151348484,131.41643956244738z" style="fill:rgb(127,254,127)"/><path d="M82.87552693813187,134.81296778167643L83.79866492919007,131.38870820640616L82.87550024680421,131.4591785401501z" style="fill:rgb(191,127,237)"/><path d="M-82.87550024680411,131.45917854015016L-83.7986919033579,134.74069815883024L-82.87552693813177,134.8129677816765z" style="fill:rgb(63,127,237)"/><path d="M-31.466911151348484,131.41643956244738L-32.46558615463216,134.8387599548532L-31.46692128245305,134.76913756780453z" style="fill:rgb(188,127,239)"/><path d="M-32.095623855703664,131.45917854015016L-83.43539626580662,131.41643956244738L-82.87550024680411,131.45917854015016zM32.11231300917634,131.4591785401501L83.01796174286659,131.44830455505883L31.974606719159866,131.44830455505885zM83.01796174286659,131.44830455505883L32.11231300917634,131.4591785401501L82.87550024680421,131.4591785401501z" style="fill:rgb(127,254,127)"/><path d="M-32.46558615463216,134.8387599548532L-31.466911151348484,131.41643956244738L-32.46557569659294,131.48432856833264z" style="fill:rgb(188,127,239)"/><path d="M-82.89136808918694,131.48432856833267L-32.095623855703664,131.45917854015016L-82.87550024680411,131.45917854015016z" style="fill:rgb(127,254,127)"/><path d="M31.974617016220535,134.80181615574043L32.93765351767565,131.52435689425303L31.974606719159866,131.44830455505885z" style="fill:rgb(58,127,234)"/><path d="M-32.095623855703664,131.45917854015016L-82.89136808918694,131.48432856833267L-32.46557569659294,131.48432856833264zM32.93765351767565,131.52435689425303L82.87550024680421,131.4591785401501L32.11231300917634,131.4591785401501z" style="fill:rgb(127,254,127)"/><path d="M32.93765351767565,131.52435689425303L31.974617016220535,134.80181615574043L32.93766413101655,134.87981030703517z" style="fill:rgb(58,127,234)"/><path d="M82.87550024680421,131.4591785401501L32.93765351767565,131.52435689425303L82.91662305756897,131.524356894253zM-82.94429755707253,131.56822010045724L-32.46557569659294,131.48432856833264L-82.89136808918694,131.48432856833267z" style="fill:rgb(127,254,127)"/><path d="M-32.46557569659294,131.48432856833264L-33.388766001613945,134.92479345388134L-32.46558615463216,134.8387599548532z" style="fill:rgb(203,127,230)"/><path d="M-32.46557569659294,131.48432856833264L-82.94429755707253,131.56822010045724L-33.38875523932587,131.5682201004572z" style="fill:rgb(127,254,127)"/><path d="M-33.388766001613945,134.92479345388134L-32.46557569659294,131.48432856833264L-33.38875523932587,131.5682201004572z" style="fill:rgb(203,127,230)"/><path d="M33.66888129907957,131.60034641201298L82.91662305756897,131.524356894253L32.93765351767565,131.52435689425303z" style="fill:rgb(127,254,127)"/><path d="M32.93766413101655,134.87981030703517L33.81688405203819,131.61572741141555L32.93765351767565,131.52435689425303z" style="fill:rgb(45,127,224)"/><path d="M82.91662305756897,131.524356894253L33.66888129907957,131.60034641201298L82.96456692792223,131.60034641201298zM-82.94429755707253,131.56822010045724L-33.660042145235984,131.60034641201304L-33.38875523932587,131.5682201004572z" style="fill:rgb(127,254,127)"/><path d="M33.81688405203819,131.61572741141555L32.93766413101655,134.87981030703517L33.81689495626525,134.97351374887387z" style="fill:rgb(45,127,224)"/><path d="M-33.660042145235984,131.60034641201304L-82.94429755707253,131.56822010045724L-82.96456692792214,131.60034641201304z" style="fill:rgb(127,254,127)"/><path d="M-33.38875523932587,131.5682201004572L-34.22014624546738,135.02576232570837L-33.388766001613945,134.92479345388134z" style="fill:rgb(216,127,219)"/><path d="M33.81688405203819,131.61572741141555L82.96456692792223,131.60034641201298L33.66888129907957,131.60034641201298zM82.96456692792223,131.60034641201298L33.81688405203819,131.61572741141555L83.18524024280346,131.61572741141552zM-82.96456692792214,131.60034641201304L-34.22013520693764,131.6666751609436L-33.660042145235984,131.60034641201304z" style="fill:rgb(127,254,127)"/><path d="M-34.22014624546738,135.02576232570837L-33.38875523932587,131.5682201004572L-34.22013520693764,131.6666751609436z" style="fill:rgb(216,127,219)"/><path d="M-34.22013520693764,131.6666751609436L-82.96456692792214,131.60034641201304L-83.91619070626203,131.6666751609436zM34.59670809896943,131.7208444740141L83.18524024280346,131.61572741141552L33.81688405203819,131.61572741141555z" style="fill:rgb(127,254,127)"/><path d="M33.81689495626525,134.97351374887387L34.59670809896943,131.7208444740141L33.81688405203819,131.61572741141555z" style="fill:rgb(32,127,213)"/><path d="M-87.33585583583933,-128.10042575194487L-83.97675736859476,-131.4594547076974L-87.33582766333855,-131.4594547076974zM83.97678445753775,-128.10042575194495L87.33582766333846,-131.45945470769746L83.97675736859468,-131.45945470769746zM-83.97675736859476,-131.4594547076974L-87.33585583583933,-128.10042575194487L-83.97678445753783,-128.10042575194487zM87.33582766333846,-131.45945470769746L83.97678445753775,-128.10042575194495L87.33585583583925,-128.10042575194495z" style="fill:rgb(127,127,254)"/><path d="M83.18524024280346,131.61572741141552L34.59670809896943,131.7208444740141L83.97887938873659,131.67104419444073z" style="fill:rgb(127,254,127)"/><path d="M34.59670809896943,131.7208444740141L33.81689495626525,134.97351374887387L34.59671926356684,135.08131472091694z" style="fill:rgb(32,127,213)"/><path d="M-83.91619070626203,131.6666751609436L-34.94491206904499,131.77799893379176L-34.22013520693764,131.6666751609436z" style="fill:rgb(127,254,127)"/><path d="M-34.22013520693764,131.6666751609436L-34.94492335090725,135.1399284813358L-34.22014624546738,135.02576232570837z" style="fill:rgb(227,127,206)"/><path d="M83.97887938873659,131.67104419444073L34.59670809896943,131.7208444740141L84.0106668010713,131.7208444740141zM-34.94491206904499,131.77799893379176L-83.91619070626203,131.6666751609436L-83.97887938873649,131.67104419444078z" style="fill:rgb(127,254,127)"/><path d="M-34.94492335090725,135.1399284813358L-34.22013520693764,131.6666751609436L-34.94491206904499,131.77799893379176z" style="fill:rgb(227,127,206)"/><path d="M-34.94491206904499,131.77799893379176L-83.97887938873649,131.67104419444078L-84.04714837095963,131.77799893379176zM35.26317893069281,131.83789089007306L84.0106668010713,131.7208444740141L34.59670809896943,131.7208444740141z" style="fill:rgb(127,254,127)"/><path d="M34.59671926356684,135.08131472091694L35.26317893069281,131.83789089007306L34.59670809896943,131.7208444740141z" style="fill:rgb(22,127,199)"/><path d="M84.0106668010713,131.7208444740141L35.26317893069281,131.83789089007306L84.08537727903324,131.83789089007306z" style="fill:rgb(127,254,127)"/><path d="M35.26317893069281,131.83789089007306L34.59671926356684,135.08131472091694L35.263190320484895,135.20134963361596z" style="fill:rgb(22,127,199)"/><path d="M-84.12518956348717,131.90026346936293L-34.94491206904499,131.77799893379176L-84.04714837095963,131.77799893379176z" style="fill:rgb(127,254,127)"/><path d="M-34.94491206904499,131.77799893379176L-35.55007325546101,135.26531474562236L-34.94492335090725,135.1399284813358z" style="fill:rgb(237,127,192)"/><path d="M-34.94491206904499,131.77799893379176L-84.12518956348717,131.90026346936293L-35.55006176757086,131.90026346936293z" style="fill:rgb(127,254,127)"/><path d="M-35.55007325546101,135.26531474562236L-34.94491206904499,131.77799893379176L-35.55006176757086,131.90026346936293z" style="fill:rgb(237,127,192)"/><path d="M35.804249618078,131.96483959044392L84.08537727903324,131.83789089007306L35.26317893069281,131.83789089007306z" style="fill:rgb(127,254,127)"/><path d="M35.263190320484895,135.20134963361596L35.804249618078,131.96483959044392L35.26317893069281,131.83789089007306z" style="fill:rgb(13,127,185)"/><path d="M84.08537727903324,131.83789089007306L35.804249618078,131.96483959044392L84.16640836397119,131.9648395904439z" style="fill:rgb(127,254,127)"/><path d="M35.804249618078,131.96483959044392L35.263190320484895,135.20134963361596L35.804261193777116,135.3315396615422z" style="fill:rgb(13,127,185)"/><path d="M-84.2088548824403,132.03133913637822L-35.55006176757086,131.90026346936293L-84.12518956348717,131.90026346936293z" style="fill:rgb(127,254,127)"/><path d="M-35.55006176757086,131.90026346936293L-36.02458015899014,135.399737112332L-35.55007325546101,135.26531474562236z" style="fill:rgb(244,127,177)"/><path d="M-35.55006176757086,131.90026346936293L-84.2088548824403,132.03133913637822L-36.024568506187045,132.0313391363782z" style="fill:rgb(127,254,127)"/><path d="M-36.02458015899014,135.399737112332L-35.55006176757086,131.90026346936293L-36.024568506187045,132.0313391363782z" style="fill:rgb(244,127,177)"/><path d="M36.20999551025302,132.09947233610677L84.16640836397119,131.9648395904439L35.804249618078,131.96483959044392z" style="fill:rgb(127,254,127)"/><path d="M35.804261193777116,135.3315396615422L36.20999551025302,132.09947233610677L35.804249618078,131.96483959044392z" style="fill:rgb(7,127,169)"/><path d="M84.16640836397119,131.9648395904439L36.20999551025302,132.09947233610677L84.25234415864547,132.09947233610674z" style="fill:rgb(127,254,127)"/><path d="M36.20999551025302,132.09947233610677L35.804261193777116,135.3315396615422L36.21000722908487,135.46960992833237z" style="fill:rgb(7,127,169)"/><path d="M-84.29668221459815,132.16893529078015L-36.024568506187045,132.0313391363782L-84.2088548824403,132.03133913637822z" style="fill:rgb(127,254,127)"/><path d="M-36.024568506187045,132.0313391363782L-36.35965742067626,135.54084645137416L-36.02458015899014,135.399737112332z" style="fill:rgb(250,127,161)"/><path d="M-36.024568506187045,132.0313391363782L-84.29668221459815,132.16893529078015L-36.35964564721978,132.16893529078013z" style="fill:rgb(127,254,127)"/><path d="M-36.35965742067626,135.54084645137416L-36.024568506187045,132.0313391363782L-36.35964564721978,132.16893529078013z" style="fill:rgb(250,127,161)"/><path d="M36.47280710431923,132.23942507828627L84.25234415864547,132.09947233610674L36.20999551025302,132.09947233610677z" style="fill:rgb(127,254,127)"/><path d="M36.21000722908487,135.46960992833237L36.47280710431923,132.23942507828627L36.20999551025302,132.09947233610677z" style="fill:rgb(2,127,152)"/><path d="M84.25234415864547,132.09947233610674L36.47280710431923,132.23942507828627L84.34167569576019,132.23942507828627z" style="fill:rgb(127,254,127)"/><path d="M36.47280710431923,132.23942507828627L36.21000722908487,135.46960992833237L36.472818920721686,135.61313602496378z" style="fill:rgb(2,127,152)"/><path d="M-84.29668221459815,132.16893529078015L-36.54891097124937,132.31062663038034L-36.35964564721978,132.16893529078013z" style="fill:rgb(127,254,127)"/><path d="M-36.35964564721978,132.16893529078013L-36.54892281868842,135.6861555363524L-36.35965742067626,135.54084645137416z" style="fill:rgb(253,127,144)"/><path d="M-36.54891097124937,132.31062663038034L-84.29668221459815,132.16893529078015L-84.38712349474181,132.31062663038037z" style="fill:rgb(127,254,127)"/><path d="M-36.54892281868842,135.6861555363524L-36.35964564721978,132.16893529078013L-36.54891097124937,132.31062663038034z" style="fill:rgb(253,127,144)"/><path d="M36.58755751891982,132.38222572404499L84.34167569576019,132.23942507828627L36.47280710431923,132.23942507828627z" style="fill:rgb(127,254,127)"/><path d="M36.472818920721686,135.61313602496378L36.58755751891982,132.38222572404499L36.47280710431923,132.23942507828627z" style="fill:rgb(0,127,136)"/><path d="M84.34167569576019,132.23942507828627L36.58755751891982,132.38222572404499L84.43282504366107,132.38222572404499z" style="fill:rgb(127,254,127)"/><path d="M36.58755751891982,132.38222572404499L36.472818920721686,135.61313602496378L36.58756938530928,135.75958273959913z" style="fill:rgb(0,127,136)"/><path d="M-84.47857612059437,132.45390241159907L-36.54891097124937,132.31062663038034L-84.38712349474181,132.31062663038037z" style="fill:rgb(127,254,127)"/><path d="M-36.54891097124937,132.31062663038034L-36.58853189540631,135.83308951793327L-36.54892281868842,135.6861555363524z" style="fill:rgb(255,127,127)"/><path d="M-36.54891097124937,132.31062663038034L-84.47857612059437,132.45390241159907L-36.58852002227456,132.45390241159905z" style="fill:rgb(127,254,127)"/><path d="M-36.58853189540631,135.83308951793327L-36.54891097124937,132.31062663038034L-36.58852002227456,132.45390241159905z" style="fill:rgb(255,127,127)"/><path d="M36.551725841751136,132.52533535744578L84.43282504366107,132.38222572404499L36.58755751891982,132.38222572404499zM84.43282504366107,132.38222572404499L36.551725841751136,132.52533535744578L84.52417161771548,132.52533535744575zM-84.56940833734154,132.59620621854782L-36.58852002227456,132.45390241159905L-84.47857612059437,132.45390241159907zM-36.58852002227456,132.45390241159905L-84.56940833734154,132.59620621854782L-36.47728046891354,132.59620621854782zM36.551725841751136,132.52533535744578L84.6140808216929,132.66619311104802L84.52417161771548,132.52533535744575zM84.6140808216929,132.66619311104802L36.551725841751136,132.52533535744578L36.36546279220992,132.66619311104802zM-84.56940833734154,132.59620621854782L-36.21670851907193,132.73498379432132L-36.47728046891354,132.59620621854782zM-36.21670851907193,132.73498379432132L-84.56940833734154,132.59620621854782L-84.65798976824344,132.73498379432135zM36.36546279220992,132.66619311104802L84.70093368650355,132.80226259993168L84.6140808216929,132.66619311104802zM84.70093368650355,132.80226259993168L36.36546279220992,132.66619311104802L36.031635797993985,132.8022625999317zM-84.74271875219031,132.86772586983517L-36.21670851907193,132.73498379432132L-84.65798976824344,132.73498379432135zM-36.21670851907193,132.73498379432132L-84.74271875219031,132.86772586983517L-35.81102047584346,132.86772586983514zM35.55580887184826,132.9310776967226L84.70093368650355,132.80226259993168L36.031635797993985,132.8022625999317zM84.70093368650355,132.80226259993168L35.55580887184826,132.9310776967226L84.78315608829938,132.93107769672258zM-84.82205763028175,132.99202344613323L-35.81102047584346,132.86772586983514L-84.74271875219031,132.86772586983517zM-35.81102047584346,132.86772586983514L-84.82205763028175,132.99202344613323L-35.2671018928922,132.9920234461332zM35.55580887184826,132.9310776967226L84.85924745090361,133.05028749873193L84.78315608829938,132.93107769672258zM84.85924745090361,133.05028749873193L35.55580887184826,132.9310776967226L34.94616487819247,133.05028749873196zM-84.89455484373468,133.10560241444406L-35.2671018928922,132.9920234461332L-84.82205763028175,132.99202344613323zM-35.2671018928922,132.9920234461332L-84.89455484373468,133.10560241444406L-34.59440803695188,133.10560241444404zM34.213389699093916,133.15771129017025L84.85924745090361,133.05028749873193L34.94616487819247,133.05028749873196zM84.85924745090361,133.05028749873193L34.213389699093916,133.15771129017025L84.92781582807459,133.15771129017025z" style="fill:rgb(127,254,127)"/><path d="M83.97675736859468,-131.45945470769746L86.77582554884444,-150.30729920913538L83.97664449818673,-145.4553853637358z" style="fill:rgb(0,127,127)"/><path d="M-83.97664449818681,-145.45538536373573L-86.775946069251,-135.84485036065246L-83.97675736859476,-131.4594547076974z" style="fill:rgb(255,127,127)"/><path d="M-83.97675736859476,-131.4594547076974L-90.24698391202104,-135.84485036065246L-87.33582766333855,-131.4594547076974zM87.33582766333846,-131.45945470769746L86.7759460692509,-135.84485036065254L83.97675736859468,-131.45945470769746z" style="fill:rgb(127,0,127)"/><path d="M83.97899226515231,145.6677198150008L86.77597499419828,-132.37385665928053L83.97678445753775,-128.10042575194495z" style="fill:rgb(0,127,127)"/><path d="M-83.97678445753783,-128.10042575194487L-86.77833244223766,150.51990947954323L-83.97899226515223,145.66771981500085z" style="fill:rgb(255,127,127)"/><path d="M-84.89455484373468,133.10560241444406L-33.804807554287656,133.20637455068598L-34.59440803695188,133.10560241444404zM-33.804807554287656,133.20637455068598L-84.89455484373468,133.10560241444406L-84.9588774835675,133.206374550686zM34.213389699093916,133.15771129017025L84.98759665834203,133.2513679247242L84.92781582807459,133.15771129017025zM84.98759665834203,133.2513679247242L34.213389699093916,133.15771129017025L33.37049169918513,133.2513679247242zM-85.0138386683741,133.29248040731355L-33.804807554287656,133.20637455068598L-84.9588774835675,133.206374550686zM-33.804807554287656,133.20637455068598L-85.0138386683741,133.29248040731355L-32.91239106263386,133.29248040731355zM32.43257320386207,133.32952327631256L84.98759665834203,133.2513679247242L33.37049169918513,133.2513679247242zM84.98759665834203,133.2513679247242L32.43257320386207,133.32952327631256L85.03748305272347,133.32952327631256zM-85.0584194472906,133.36232362796528L-32.91239106263386,133.29248040731355L-85.0138386683741,133.29248040731355zM-32.91239106263386,133.29248040731355L-85.0584194472906,133.36232362796528L-31.933211396676416,133.36232362796528zM32.43257320386207,133.32952327631256L85.07655050846984,133.3907289572879L85.03748305272347,133.32952327631256zM85.07655050846984,133.3907289572879L32.43257320386207,133.32952327631256L31.416567808892854,133.3907289572879zM-85.09179059198915,133.41460508825443L-31.933211396676416,133.36232362796528L-85.0584194472906,133.36232362796528zM-31.933211396676416,133.36232362796528L-85.09179059198915,133.41460508825443L-30.88499219162899,133.4146050882544zM30.340906855141437,133.4338407339871L85.07655050846984,133.3907289572879L31.416567808892854,133.3907289572879zM85.07655050846984,133.3907289572879L30.340906855141437,133.4338407339871L85.10406866367215,133.43384073398707zM-85.11332837292616,133.4483476118911L-30.88499219162899,133.4146050882544L-85.09179059198915,133.41460508825443zM-30.88499219162899,133.4146050882544L-85.11332837292616,133.4483476118911L-29.786794745347983,133.44834761189108zM30.340906855141437,133.4338407339871L85.11952528104435,133.45805610132462L85.10406866367215,133.43384073398707zM85.11952528104435,133.45805610132462L30.340906855141437,133.4338407339871L29.22518427424424,133.45805610132462zM-85.12263256753356,133.46292418351555L-29.786794745347983,133.44834761189108L-85.11332837292616,133.4483476118911zM-29.786794745347983,133.44834761189108L-85.12263256753356,133.46292418351555L-28.658647858940647,133.46292418351555zM28.089773852748415,133.46292418351553L85.11952528104435,133.45805610132462L29.22518427424424,133.45805610132462zM85.11952528104435,133.45805610132462L28.089773852748415,133.46292418351553L85.12263256753364,133.4629241835155zM28.089773852748415,133.46292418351553L-86.77821191520238,136.05666517449876L85.12263256753364,133.4629241835155zM-28.658647858940647,133.46292418351555L-86.77821191520238,136.05666517449876L28.089773852748415,133.46292418351553zM-86.77821191520238,136.05666517449876L-28.658647858940647,133.46292418351555L-85.12263256753356,133.46292418351555z" style="fill:rgb(127,254,127)"/><path d="M-86.775946069251,-135.84485036065246L-83.97664449818681,-145.45538536373573L-86.77582554884454,-150.30729920913532z" style="fill:rgb(255,127,127)"/><path d="M86.77582554884444,-150.30729920913538L83.97675736859468,-131.45945470769746L86.7759460692509,-135.84485036065254z" style="fill:rgb(0,127,127)"/><path d="M-90.24698391202104,-135.84485036065246L-83.97675736859476,-131.4594547076974L-86.775946069251,-135.84485036065246zM86.7759460692509,-135.84485036065254L87.33582766333846,-131.45945470769746L90.24698391202094,-135.84485036065254z" style="fill:rgb(127,0,127)"/><path d="M-86.77833244223766,150.51990947954323L-83.97678445753783,-128.10042575194487L-86.77597499419838,-132.37385665928048z" style="fill:rgb(255,127,127)"/><path d="M86.77597499419828,-132.37385665928053L83.97899226515231,145.6677198150008L86.77833244223774,150.51990947954317z" style="fill:rgb(0,127,127)"/><path d="M85.12263256753364,133.4629241835155L-86.77821191520238,136.05666517449876L86.77821191520248,136.05666517449868z" style="fill:rgb(127,254,127)"/><path d="M-90.24698391202104,-135.84485036065246L-86.77582554884454,-150.30729920913532L-90.24685857079831,-150.30729920913532zM86.7759460692509,-135.84485036065254L90.24685857079822,-150.30729920913538L86.77582554884444,-150.30729920913538zM-86.77582554884454,-150.30729920913532L-90.24698391202104,-135.84485036065246L-86.775946069251,-135.84485036065246zM90.24685857079822,-150.30729920913538L86.7759460692509,-135.84485036065254L90.24698391202094,-135.84485036065254zM-90.24946573992715,150.51990947954323L-86.77597499419838,-132.37385665928048L-90.24701399396632,-132.37385665928048zM86.77833244223774,150.51990947954317L90.24701399396622,-132.37385665928053L86.77597499419828,-132.37385665928053zM-86.77597499419838,-132.37385665928048L-90.24946573992715,150.51990947954323L-86.77833244223766,150.51990947954323zM90.24701399396622,-132.37385665928053L86.77833244223774,150.51990947954317L90.24946573992725,150.51990947954317zM-86.7782408416603,139.52784014363849L86.77821191520248,136.05666517449868L-86.77821191520238,136.05666517449876zM86.77821191520248,136.05666517449868L-86.7782408416603,139.52784014363849L86.7782408416604,139.52784014363843z" style="fill:rgb(127,127,254)"/></svg>
