<?xml version="1.0" encoding="UTF-8"?>
<!-- Generated by jsxcad -->
<!DOCTYPE svg PUBLIC "-//W3C//DTD SVG 1.1 Tiny//EN" "http://www.w3.org/Graphics/SVG/1.1/DTD/svg11-tiny.dtd">
<svg viewBox="-250 -250 500 500" width="500" height="500" xmlns="http://www.w3.org/2000/svg"><path d="M-70.92467412950612,-54.333617850482945L-43.51725690572228,-15.22618260178402L-70.23420156520407,-63.94023264107161zM-43.51725690572228,-15.22618260178402L-70.92467412950612,-54.333617850482945L-71.09241183773074,-51.999859556760526z" style="fill:rgb(247,158,158)"/><path d="M-74.12963043436793,-53.450171698274424L-71.09241183773074,-51.999859556760526L-70.92467412950612,-54.333617850482945zM-71.09241183773074,-51.999859556760526L-74.12963043436793,-53.450171698274424L-74.30480686464911,-51.11620759465282z" style="fill:rgb(83,212,212)"/><path d="M-70.23420156520407,-63.94023264107161L-84.68466215876376,-79.1764222617157L-70.92467412950612,-54.333617850482945z" style="fill:rgb(247,158,158)"/><path d="M-84.68466215876376,-79.1764222617157L-74.12963043436793,-53.450171698274424L-70.92467412950612,-54.333617850482945z" style="fill:rgb(127,37,217)"/><path d="M-84.68466215876376,-79.1764222617157L-70.23420156520407,-63.94023264107161L-83.84173008554257,-88.75136828007825z" style="fill:rgb(247,158,158)"/><path d="M-74.12963043436793,-53.450171698274424L-84.68466215876376,-79.1764222617157L-87.95087005379223,-78.25248481948543z" style="fill:rgb(127,37,217)"/><path d="M96.19421808616096,-100.40000238140105L99.92592276562473,-99.04271115616622L99.6800358706876,-101.36086485545766z" style="fill:rgb(83,212,212)"/><path d="M88.4249493790251,-137.88774450696644L99.6800358706876,-101.36086485545766L98.66840209954569,-110.89827762430987z" style="fill:rgb(247,158,158)"/><path d="M99.92592276562473,-99.04271115616622L96.19421808616096,-100.40000238140105L96.43130631287386,-98.08143420000921z" style="fill:rgb(83,212,212)"/><path d="M89.35301447689207,-128.4079038135167L96.19421808616096,-100.40000238140105L99.6800358706876,-101.36086485545766z" style="fill:rgb(127,37,217)"/><path d="M99.6800358706876,-101.36086485545766L88.4249493790251,-137.88774450696644L89.35301447689207,-128.4079038135167z" style="fill:rgb(247,158,158)"/><path d="M-44.73598841191047,-17.44834088023381L143.4246131533025,188.4038808623198L114.49639952107096,-59.58586928543123zM-109.39353517662776,-116.73149592185294L-106.29860834457045,-115.4095655110822L-106.03329619464725,-117.72005060058466z" style="fill:rgb(83,212,212)"/><path d="M96.19421808616096,-100.40000238140105L89.35301447689207,-128.4079038135167L85.79367136199713,-127.40104486224882z" style="fill:rgb(127,37,217)"/><path d="M-106.29860834457045,-115.4095655110822L-109.39353517662776,-116.73149592185294L-109.66702117962568,-114.42051462084063z" style="fill:rgb(83,212,212)"/><path d="M-104.94193965364859,-127.22419683002856L-121.45133091279133,-145.55635426031333L-106.03329619464725,-117.72005060058466zM-43.51725690572228,-15.22618260178402L-71.09241183773074,-51.999859556760526L-88.06729161159501,184.17358535649322z" style="fill:rgb(247,158,158)"/><path d="M-121.45133091279133,-145.55635426031333L-109.39353517662776,-116.73149592185294L-106.03329619464725,-117.72005060058466z" style="fill:rgb(127,37,217)"/><path d="M-121.45133091279133,-145.55635426031333L-104.94193965364859,-127.22419683002856L-120.17158166379342,-154.99299582840723zM143.4246131533025,188.4038808623198L115.41612109019745,-57.183550724368274L114.49639952107096,-59.58586928543123zM72.50245046706618,-179.8403862410931L89.5786563941024,-126.10305306548605L88.4249493790251,-137.88774450696644z" style="fill:rgb(247,158,158)"/><path d="M-109.39353517662776,-116.73149592185294L-121.45133091279133,-145.55635426031333L-124.8787226669747,-144.51977526364524z" style="fill:rgb(127,37,217)"/><path d="M98.66840209954569,-110.89827762430987L148.66770206835926,189.88746470770616L118.72361952284226,-58.05670715943346z" style="fill:rgb(247,158,158)"/><path d="M-63.65203278393015,-51.93870740696003L126.60280288462799,151.85264286208806L100.20160251431025,-96.92401844068677z" style="fill:rgb(83,212,212)"/><path d="M-105.73243010346657,159.90695171102257L-71.09241183773074,-51.999859556760526L-84.88949438523856,-76.849715589387z" style="fill:rgb(247,158,158)"/><path d="M69.61786868436431,-169.39528707900595L73.48251452116408,-168.19793165615582L73.29076216515799,-170.4758124650478z" style="fill:rgb(83,212,212)"/><path d="M60.980604705546455,-210.19818812411012L73.29076216515799,-170.4758124650478L72.50245046706618,-179.8403862410931z" style="fill:rgb(247,158,158)"/><path d="M73.48251452116408,-168.19793165615582L69.61786868436431,-169.39528707900595L69.79984858895699,-167.1166174937726z" style="fill:rgb(83,212,212)"/><path d="M100.20160251431025,-96.92401844068677L127.76897486350727,154.38655843397916L101.18468308793858,-94.35620115351708z" style="fill:rgb(247,158,158)"/><path d="M61.66030444932121,-200.93663268471212L69.61786868436431,-169.39528707900595L73.29076216515799,-170.4758124650478z" style="fill:rgb(127,37,217)"/><path d="M73.29076216515799,-170.4758124650478L60.980604705546455,-210.19818812411012L61.66030444932121,-200.93663268471212z" style="fill:rgb(247,158,158)"/><path d="M143.4246131533025,188.4038808623198L-44.73598841191047,-17.44834088023381L-55.5021793946226,228.9083270018666z" style="fill:rgb(83,212,212)"/><path d="M-43.51725690572228,-15.22618260178402L-88.06729161159501,184.17358535649322L-53.96289527029853,231.02282506106835zM-83.84173008554257,-88.75136828007825L-133.5285064899603,121.72345138737334L-84.88949438523856,-76.849715589387z" style="fill:rgb(247,158,158)"/><path d="M69.61786868436431,-169.39528707900595L61.66030444932121,-200.93663268471212L57.905815406092685,-199.80111688176373z" style="fill:rgb(127,37,217)"/><path d="M-133.5285064899603,121.72345138737334L-83.84173008554257,-88.75136828007825L-104.94193965364859,-127.22419683002856zM89.5786563941024,-126.10305306548605L125.0701299811738,138.00991478691984L99.92592276562473,-99.04271115616622zM115.41612109019745,-57.183550724368274L143.4246131533025,188.4038808623198L144.49705872345956,190.7341425005351z" style="fill:rgb(247,158,158)"/><path d="M126.60280288462799,151.85264286208806L-63.65203278393015,-51.93870740696003L-79.59444431087864,195.81272982806993z" style="fill:rgb(83,212,212)"/><path d="M89.5786563941024,-126.10305306548605L72.50245046706618,-179.8403862410931L112.79255858736964,111.01859163097801zM-153.90283468507403,93.7352176507264L-106.29860834457045,-115.4095655110822L-121.7625366744672,-143.26157395977393zM-71.09241183773074,-51.999859556760526L-105.73243010346657,159.90695171102257L-88.06729161159501,184.17358535649322zM-163.1219121249368,81.07095358960025L-120.17158166379342,-154.99299582840723L-126.9981727946913,-167.44019791986656zM112.79255858736964,111.01859163097801L72.50245046706618,-179.8403862410931L73.29076216515799,-170.4758124650478z" style="fill:rgb(247,158,158)"/><path d="M-130.4198872832758,-166.38475817375632L-163.1219121249368,81.07095358960025L-126.9981727946913,-167.44019791986656z" style="fill:rgb(83,212,212)"/><path d="M112.79255858736964,111.01859163097801L73.29076216515799,-170.4758124650478L73.48251452116408,-168.19793165615582zM148.66770206835926,189.88746470770616L98.66840209954569,-110.89827762430987L125.0701299811738,138.00991478691984z" style="fill:rgb(247,158,158)"/><path d="M-53.96289527029853,231.02282506106835L143.4246131533025,188.4038808623198L-55.5021793946226,228.9083270018666z" style="fill:rgb(127,37,217)"/><path d="M127.76897486350727,154.38655843397916L100.20160251431025,-96.92401844068677L126.60280288462799,151.85264286208806zM-84.88949438523856,-76.849715589387L-133.5285064899603,121.72345138737334L-105.73243010346657,159.90695171102257z" style="fill:rgb(247,158,158)"/><path d="M143.4246131533025,188.4038808623198L-53.96289527029853,231.02282506106835L144.49705872345956,190.7341425005351z" style="fill:rgb(127,37,217)"/><path d="M61.82569309583354,-198.68305317435988L93.39774787885649,68.38053014846056L73.48251452116408,-168.19793165615582z" style="fill:rgb(247,158,158)"/><path d="M-79.97760483095782,183.05582235302964L-85.27546105333668,173.84505592630796L-86.126558639037,174.48690533117468z" style="fill:rgb(127,37,217)"/><path d="M-86.126558639037,174.48690533117468L-85.02890592073737,170.332257351753L-85.87772597064283,170.97484246467414zM-85.02890592073737,170.332257351753L-86.126558639037,174.48690533117468L-85.27546105333668,173.84505592630796z" style="fill:rgb(29,185,185)"/><path d="M55.807993708714186,-223.82699289496418L79.12207370901262,36.99651370954719L60.980604705546455,-210.19818812411012zM125.0701299811738,138.00991478691984L89.5786563941024,-126.10305306548605L112.79255858736964,111.01859163097801z" style="fill:rgb(247,158,158)"/><path d="M-77.92740906965864,198.10274806736209L126.60280288462799,151.85264286208806L-79.59444431087864,195.81272982806993zM-85.27546105333668,173.84505592630796L-79.97760483095782,183.05582235302964L118.84616468818376,129.1330695890032zM-163.1219121249368,81.07095358960025L-57.74055757257302,231.78972408376265L-53.96289527029853,231.02282506106835z" style="fill:rgb(127,37,217)"/><path d="M67.74820850147351,23.970558307111403L55.807993708714186,-223.82699289496418L52.05980963176988,-222.67085233986174z" style="fill:rgb(83,212,212)"/><path d="M-85.27546105333668,173.84505592630796L118.44740329368118,128.26100248888733L-85.84019734379984,173.0564015655451zM-87.25776292686476,172.9105094646368L-103.87089407947573,147.8765990047707L-104.73327175508251,148.5574272046873z" style="fill:rgb(127,37,217)"/><path d="M-106.29860834457045,-115.4095655110822L-153.90283468507403,93.7352176507264L-133.5285064899603,121.72345138737334z" style="fill:rgb(247,158,158)"/><path d="M118.84616468818376,129.1330695890032L-79.97760483095782,183.05582235302964L124.61962914192799,138.77461146401785z" style="fill:rgb(127,37,217)"/><path d="M-104.73327175508251,148.5574272046873L-103.56161250645336,144.33630294223533L-104.4216592770688,145.01780575221065zM-103.56161250645336,144.33630294223533L-104.73327175508251,148.5574272046873L-103.87089407947573,147.8765990047707z" style="fill:rgb(29,185,185)"/><path d="M105.69605723989218,100.37499654901626L-87.25776292686476,172.9105094646368L-85.84019734379984,173.0564015655451zM126.60280288462799,151.85264286208806L-77.92740906965864,198.10274806736209L127.76897486350727,154.38655843397916zM118.44740329368118,128.26100248888733L-85.27546105333668,173.84505592630796L118.84616468818376,129.1330695890032zM-103.87089407947573,147.8765990047707L-87.25776292686476,172.9105094646368L105.69605723989218,100.37499654901626z" style="fill:rgb(127,37,217)"/><path d="M-120.17158166379342,-154.99299582840723L-163.1219121249368,81.07095358960025L-153.90283468507403,93.7352176507264zM119.93318402469438,125.73682778823157L124.61962914192799,138.77461146401785L124.24479907479932,135.22574246231656z" style="fill:rgb(247,158,158)"/><path d="M105.69605723989218,100.37499654901626L-85.84019734379984,173.0564015655451L118.44740329368118,128.26100248888733z" style="fill:rgb(127,37,217)"/><path d="M124.61962914192799,138.77461146401785L119.93318402469438,125.73682778823157L120.29880498760149,129.29403743215485z" style="fill:rgb(247,158,158)"/><path d="M-163.1219121249368,81.07095358960025L-130.4198872832758,-166.38475817375632L-167.47532020494253,82.1476659001326z" style="fill:rgb(83,212,212)"/><path d="M118.84616468818376,129.1330695890032L124.61962914192799,138.77461146401785L120.29880498760149,129.29403743215485z" style="fill:rgb(127,37,217)"/><path d="M112.79255858736964,111.01859163097801L73.48251452116408,-168.19793165615582L93.39774787885649,68.38053014846056z" style="fill:rgb(247,158,158)"/><path d="M-103.87089407947573,147.8765990047707L105.27174948558398,99.44706151433022L-104.46995062068461,147.04001022871313z" style="fill:rgb(127,37,217)"/><path d="M118.4848951540232,125.57572348219948L120.29880498760149,129.29403743215485L119.93318402469438,125.73682778823157z" style="fill:rgb(149,216,216)"/><path d="M118.44740329368118,128.26100248888733L118.4848951540232,125.57572348219948L118.0870015317573,124.70291871481776z" style="fill:rgb(247,158,158)"/><path d="M120.29880498760149,129.29403743215485L118.4848951540232,125.57572348219948L118.84616468818376,129.1330695890032z" style="fill:rgb(149,216,216)"/><path d="M118.4848951540232,125.57572348219948L118.44740329368118,128.26100248888733L118.84616468818376,129.1330695890032z" style="fill:rgb(247,158,158)"/><path d="M-105.93321709940211,146.8852446819974L-130.03561123518682,111.33765016813965L-130.91247315317554,112.07526762537371z" style="fill:rgb(127,37,217)"/><path d="M106.8608327742497,96.96742954289535L119.50342657254166,127.54886117365622L119.13953026451627,123.99018124951232z" style="fill:rgb(247,158,158)"/><path d="M107.19686827158142,100.54627049194556L118.44740329368118,128.26100248888733L119.50342657254166,127.54886117365622zM87.1242285286903,59.760145656575304L-105.93321709940211,146.8852446819974L-104.46995062068461,147.04001022871313zM105.27174948558398,99.44706151433022L-103.87089407947573,147.8765990047707L105.69605723989218,100.37499654901626zM72.64594179210386,22.759216627476395L144.49705872345956,190.7341425005351L148.66770206835926,189.88746470770616z" style="fill:rgb(127,37,217)"/><path d="M-130.91247315317554,112.07526762537371L-129.63264078630795,107.76628197348204L-130.5071060784096,108.5044502328309zM-129.63264078630795,107.76628197348204L-130.91247315317554,112.07526762537371L-130.03561123518682,111.33765016813965z" style="fill:rgb(29,185,185)"/><path d="M-57.74055757257302,231.78972408376265L-163.1219121249368,81.07095358960025L-167.47532020494253,82.1476659001326z" style="fill:rgb(127,37,217)"/><path d="M119.50342657254166,127.54886117365622L106.8608327742497,96.96742954289535L107.19686827158142,100.54627049194556z" style="fill:rgb(247,158,158)"/><path d="M105.69605723989218,100.37499654901626L118.44740329368118,128.26100248888733L107.19686827158142,100.54627049194556zM-130.03561123518682,111.33765016813965L-105.93321709940211,146.8852446819974L87.1242285286903,59.760145656575304z" style="fill:rgb(127,37,217)"/><path d="M105.36466629337609,96.79604323741488L107.19686827158142,100.54627049194556L106.8608327742497,96.96742954289535z" style="fill:rgb(149,216,216)"/><path d="M87.1242285286903,59.760145656575304L-104.46995062068461,147.04001022871313L105.27174948558398,99.44706151433022z" style="fill:rgb(127,37,217)"/><path d="M105.27174948558398,99.44706151433022L105.36466629337609,96.79604323741488L104.94136329328488,95.86750763600732z" style="fill:rgb(247,158,158)"/><path d="M107.19686827158142,100.54627049194556L105.36466629337609,96.79604323741488L105.69605723989218,100.37499654901626z" style="fill:rgb(149,216,216)"/><path d="M-68.19027685507284,83.5497224494616L-132.21256710742773,110.26352280084507L-130.68468160232464,110.43121690232938z" style="fill:rgb(127,37,217)"/><path d="M105.36466629337609,96.79604323741488L105.27174948558398,99.44706151433022L105.69605723989218,100.37499654901626zM93.39774787885649,68.38053014846056L61.82569309583354,-198.68305317435988L79.12207370901262,36.99651370954719z" style="fill:rgb(247,158,158)"/><path d="M-132.21256710742773,110.26352280084507L-68.19027685507284,83.5497224494616L-139.1248288099812,100.63090537109994zM-139.1248288099812,100.63090537109994L-69.69779351910029,83.80181751348387L-139.19150196377169,100.53798173240156zM-139.19150196377169,100.53798173240156L-71.25255562352204,83.91936593035734L-139.34598626729064,100.3226994937219zM-139.34598626729064,100.3226994937219L-72.82746140650757,83.90036793507537L-139.58563894891842,99.98873519259139zM-139.58563894891842,99.98873519259139L-74.39507568208306,83.74514900107808L-139.90635230204012,99.54181082402033zM-139.90635230204012,99.54181082402033L-75.92807624258234,83.45634519053621L-140.3026223907551,98.98958674369224zM-130.03561123518682,111.33765016813965L86.66248839257993,58.750356610467726L-130.68468160232464,110.43121690232938zM-140.3026223907551,98.98958674369224L-77.39967901600134,83.0388754255105L-140.7676352202109,98.341566117998zM-140.7676352202109,98.341566117998L-78.78411203053518,82.49987065487039L-141.29334789337264,97.60895152459038zM-141.29334789337264,97.60895152459038L-80.05698831175845,81.84854789362093L-141.87065065462858,96.80445183586103zM-141.87065065462858,96.80445183586103L-81.19578006071578,81.09611346809469L-142.48946729339116,95.94209193876412zM-142.48946729339116,95.94209193876412L-82.1801410502685,80.25553877337991L-143.138949588027,95.03700408970222zM-143.138949588027,95.03700408970222L-82.99233827712509,79.34141817879059L-143.80765632979296,94.1051356715181zM-71.25255562352204,83.91936593035734L-139.19150196377169,100.53798173240156L-69.69779351910029,83.80181751348387zM-72.82746140650757,83.90036793507537L-139.34598626729064,100.3226994937219L-71.25255562352204,83.91936593035734zM-69.69779351910029,83.80181751348387L-139.1248288099812,100.63090537109994L-68.19027685507284,83.5497224494616zM-74.39507568208306,83.74514900107808L-139.58563894891842,99.98873519259139L-72.82746140650757,83.90036793507537zM-75.92807624258234,83.45634519053621L-139.90635230204012,99.54181082402033L-74.39507568208306,83.74514900107808zM-143.80765632979296,94.1051356715181L-83.61752074051374,78.36969398763516L-144.48369917588624,93.16301726457324zM-77.39967901600134,83.0388754255105L-140.3026223907551,98.98958674369224L-75.92807624258234,83.45634519053621zM-78.78411203053518,82.49987065487039L-140.7676352202109,98.341566117998L-77.39967901600134,83.0388754255105z" style="fill:rgb(127,37,217)"/><path d="M88.40332978090795,56.346513645690905L106.35051896096431,98.68925034643087L106.01647950524708,95.10920638370268z" style="fill:rgb(247,158,158)"/><path d="M-144.48369917588624,93.16301726457324L-84.04404282481154,77.35741585778108L-145.15505944381587,92.22745438842261zM-80.05698831175845,81.84854789362093L-141.29334789337264,97.60895152459038L-78.78411203053518,82.49987065487039zM-145.15505944381587,92.22745438842261L-84.26370267871378,76.3224609888693L-145.80965540375786,91.31523107462424zM-81.19578006071578,81.09611346809469L-141.87065065462858,96.80445183586103L-80.05698831175845,81.84854789362093zM88.69331900017195,59.946519446476835L105.27174948558398,99.44706151433022L106.35051896096431,98.68925034643087z" style="fill:rgb(127,37,217)"/><path d="M-72.59513897672919,80.3115257815643L-71.25255562352204,83.91936593035734L-71.02526169921927,80.3305341438139z" style="fill:rgb(129,217,217)"/><path d="M-74.15771415780452,80.15621626266604L-72.82746140650757,83.90036793507537L-72.59513897672919,80.3115257815643z" style="fill:rgb(146,216,216)"/><path d="M-71.02526169921927,80.3305341438139L-69.69779351910029,83.80181751348387L-69.47543204343576,80.21292162085516z" style="fill:rgb(112,217,217)"/><path d="M-82.1801410502685,80.25553877337991L-142.48946729339116,95.94209193876412L-81.19578006071578,81.09611346809469z" style="fill:rgb(127,37,217)"/><path d="M-75.68575078305444,79.86725544881735L-74.39507568208306,83.74514900107808L-74.15771415780452,80.15621626266604z" style="fill:rgb(163,214,213)"/><path d="M-145.80965540375786,91.31523107462424L-84.2719133604383,75.28320456203704L-146.43568901864347,90.44282321148128z" style="fill:rgb(127,37,217)"/><path d="M-69.47543204343576,80.21292162085516L-68.19027685507284,83.5497224494616L-67.9726686093344,79.96069032393969z" style="fill:rgb(96,214,214)"/><path d="M-77.15255051117465,79.4495666279815L-75.92807624258234,83.45634519053621L-75.68575078305444,79.86725544881735z" style="fill:rgb(179,209,209)"/><path d="M79.12207370901262,36.99651370954719L55.807993708714186,-223.82699289496418L72.64594179210386,22.759216627476395z" style="fill:rgb(247,158,158)"/><path d="M-71.25255562352204,83.91936593035734L-72.59513897672919,80.3115257815643L-72.82746140650757,83.90036793507537z" style="fill:rgb(129,217,217)"/><path d="M-78.5324212769373,78.91026491176751L-77.39967901600134,83.0388754255105L-77.15255051117465,79.4495666279815z" style="fill:rgb(194,204,204)"/><path d="M-69.69779351910029,83.80181751348387L-71.02526169921927,80.3305341438139L-71.25255562352204,83.91936593035734z" style="fill:rgb(112,217,217)"/><path d="M-82.99233827712509,79.34141817879059L-143.138949588027,95.03700408970222L-82.1801410502685,80.25553877337991z" style="fill:rgb(127,37,217)"/><path d="M-72.82746140650757,83.90036793507537L-74.15771415780452,80.15621626266604L-74.39507568208306,83.74514900107808z" style="fill:rgb(146,216,216)"/><path d="M-146.43568901864347,90.44282321148128L-84.0678527473478,74.25824733396851L-147.02179280943017,89.62605546830517z" style="fill:rgb(127,37,217)"/><path d="M-68.19027685507284,83.5497224494616L-69.47543204343576,80.21292162085516L-69.69779351910029,83.80181751348387z" style="fill:rgb(96,214,214)"/><path d="M-74.39507568208306,83.74514900107808L-75.68575078305444,79.86725544881735L-75.92807624258234,83.45634519053621z" style="fill:rgb(163,214,213)"/><path d="M-68.19027685507284,83.5497224494616L-130.68468160232464,110.43121690232938L86.66248839257993,58.750356610467726z" style="fill:rgb(127,37,217)"/><path d="M-75.92807624258234,83.45634519053621L-77.15255051117465,79.4495666279815L-77.39967901600134,83.0388754255105z" style="fill:rgb(179,209,209)"/><path d="M-80.05698831175845,81.84854789362093L-78.5324212769373,78.91026491176751L-79.80105889213732,78.25860117014174z" style="fill:rgb(208,197,197)"/><path d="M-83.61752074051374,78.36969398763516L-143.80765632979296,94.1051356715181L-82.99233827712509,79.34141817879059zM-147.02179280943017,89.62605546830517L-83.65450426873696,73.26603412576978L-147.55726989402928,88.87982762403021z" style="fill:rgb(127,37,217)"/><path d="M-151.85359608491532,78.62449953751589L-151.45290460233204,81.42845798577477L-150.96852082728358,77.83828147565676z" style="fill:rgb(29,185,185)"/><path d="M-77.39967901600134,83.0388754255105L-78.5324212769373,78.91026491176751L-78.78411203053518,82.49987065487039z" style="fill:rgb(194,204,204)"/><path d="M-81.19578006071578,81.09611346809469L-79.80105889213732,78.25860117014174L-80.9360063096882,77.50576146505439z" style="fill:rgb(220,188,188)"/><path d="M-149.24141989230603,86.53287719091531L-151.45290460233204,81.42845798577477L-152.34042086509064,82.21425820358114z" style="fill:rgb(127,37,217)"/><path d="M-78.5324212769373,78.91026491176751L-80.05698831175845,81.84854789362093L-78.78411203053518,82.49987065487039z" style="fill:rgb(208,197,197)"/><path d="M-147.55726989402928,88.87982762403021L-83.03867992199159,72.32452346959083L-148.032315163269,88.2178262391042z" style="fill:rgb(127,37,217)"/><path d="M-151.45290460233204,81.42845798577477L-151.85359608491532,78.62449953751589L-152.34042086509064,82.21425820358114z" style="fill:rgb(29,185,185)"/><path d="M-84.04404282481154,77.35741585778108L-144.48369917588624,93.16301726457324L-83.61752074051374,78.36969398763516z" style="fill:rgb(127,37,217)"/><path d="M-79.80105889213732,78.25860117014174L-81.19578006071578,81.09611346809469L-80.05698831175845,81.84854789362093z" style="fill:rgb(220,188,188)"/><path d="M-82.1801410502685,80.25553877337991L-80.9360063096882,77.50576146505439L-81.91698955506024,76.66475309463061z" style="fill:rgb(231,179,179)"/><path d="M-148.032315163269,88.2178262391042L-82.23090968682494,71.45086610335885L-148.43817275392166,87.65224144352408z" style="fill:rgb(127,37,217)"/><path d="M-82.72633316027944,75.75015782413558L-82.1801410502685,80.25553877337991L-81.91698955506024,76.66475309463061z" style="fill:rgb(240,169,169)"/><path d="M-84.26370267871378,76.3224609888693L-145.15505944381587,92.22745438842261L-84.04404282481154,77.35741585778108z" style="fill:rgb(127,37,217)"/><path d="M-80.9360063096882,77.50576146505439L-82.1801410502685,80.25553877337991L-81.19578006071578,81.09611346809469z" style="fill:rgb(231,179,179)"/><path d="M-148.43817275392166,87.65224144352408L-81.24529987582315,70.66107218193902L-148.76734748643594,87.19352577297529zM-148.76734748643594,87.19352577297529L-80.0993092880653,69.96967133459131L-149.0137355109837,86.85017885113011z" style="fill:rgb(127,37,217)"/><path d="M-83.3492420076562,74.77793611371042L-82.99233827712509,79.34141817879059L-82.72633316027944,75.75015782413558z" style="fill:rgb(247,158,158)"/><path d="M-84.2719133604383,75.28320456203704L-145.80965540375786,91.31523107462424L-84.26370267871378,76.3224609888693zM-149.0137355109837,86.85017885113011L-78.81344869196352,69.38946021474418L-149.17274560740228,86.62858629913913zM-149.17274560740228,86.62858629913913L-77.41089442108868,68.93119300979515L-149.24141989230603,86.53287719091531z" style="fill:rgb(127,37,217)"/><path d="M55.807993708714186,-223.82699289496418L67.74820850147351,23.970558307111403L72.64594179210386,22.759216627476395z" style="fill:rgb(83,212,212)"/><path d="M-82.1801410502685,80.25553877337991L-82.72633316027944,75.75015782413558L-82.99233827712509,79.34141817879059z" style="fill:rgb(240,169,169)"/><path d="M-84.0678527473478,74.25824733396851L-146.43568901864347,90.44282321148128L-84.2719133604383,75.28320456203704z" style="fill:rgb(127,37,217)"/><path d="M-84.04404282481154,77.35741585778108L-83.3492420076562,74.77793611371042L-83.77411411925179,73.76514726778963z" style="fill:rgb(252,146,146)"/><path d="M-82.99233827712509,79.34141817879059L-83.3492420076562,74.77793611371042L-83.61752074051374,78.36969398763516z" style="fill:rgb(247,158,158)"/><path d="M-83.3492420076562,74.77793611371042L-84.04404282481154,77.35741585778108L-83.61752074051374,78.36969398763516z" style="fill:rgb(252,146,146)"/><path d="M-83.65450426873696,73.26603412576978L-147.02179280943017,89.62605546830517L-84.0678527473478,74.25824733396851z" style="fill:rgb(127,37,217)"/><path d="M-84.26370267871378,76.3224609888693L-83.77411411925179,73.76514726778963L-83.99277793824238,72.72966949484857z" style="fill:rgb(254,134,134)"/><path d="M5.744822946798832,65.74600457681763L-67.9726686093344,79.96069032393969L-68.19027685507284,83.5497224494616z" style="fill:rgb(83,212,212)"/><path d="M-83.03867992199159,72.32452346959083L-147.55726989402928,88.87982762403021L-83.65450426873696,73.26603412576978z" style="fill:rgb(127,37,217)"/><path d="M-84.00067142638707,71.68990818430042L-84.26370267871378,76.3224609888693L-83.99277793824238,72.72966949484857z" style="fill:rgb(254,122,122)"/><path d="M-83.77411411925179,73.76514726778963L-84.26370267871378,76.3224609888693L-84.04404282481154,77.35741585778108z" style="fill:rgb(254,134,134)"/><path d="M-82.23090968682494,71.45086610335885L-148.032315163269,88.2178262391042L-83.03867992199159,72.32452346959083z" style="fill:rgb(127,37,217)"/><path d="M-84.26370267871378,76.3224609888693L-84.00067142638707,71.68990818430042L-84.2719133604383,75.28320456203704z" style="fill:rgb(254,122,122)"/><path d="M86.66248839257993,58.750356610467726L-130.03561123518682,111.33765016813965L87.1242285286903,59.760145656575304zM-81.24529987582315,70.66107218193902L-148.43817275392166,87.65224144352408L-82.23090968682494,71.45086610335885zM-80.0993092880653,69.96967133459131L-148.76734748643594,87.19352577297529L-81.24529987582315,70.66107218193902zM-78.81344869196352,69.38946021474418L-149.0137355109837,86.85017885113011L-80.0993092880653,69.96967133459131zM-77.41089442108868,68.93119300979515L-149.17274560740228,86.62858629913913L-78.81344869196352,69.38946021474418z" style="fill:rgb(127,37,217)"/><path d="M106.35051896096431,98.68925034643087L88.40332978090795,56.346513645690905L88.69331900017195,59.946519446476835z" style="fill:rgb(247,158,158)"/><path d="M-67.9726686093344,79.96069032393969L5.744822946798832,65.74600457681763L5.726150380755959,62.14834853154675z" style="fill:rgb(83,212,212)"/><path d="M87.1242285286903,59.760145656575304L105.27174948558398,99.44706151433022L88.69331900017195,59.946519446476835zM-68.19027685507284,83.5497224494616L86.66248839257993,58.750356610467726L5.744822946798832,65.74600457681763z" style="fill:rgb(127,37,217)"/><path d="M5.726150380755959,62.14834853154675L7.235484860674758,65.34930691868749L7.211957707414469,61.75148372028093z" style="fill:rgb(79,211,211)"/><path d="M7.235484860674758,65.34930691868749L8.607273137065071,61.22618031736947L7.211957707414469,61.75148372028093z" style="fill:rgb(64,205,205)"/><path d="M8.635367250805844,64.82422417187273L9.887558826789558,60.58141956341597L8.607273137065071,61.22618031736947z" style="fill:rgb(50,199,199)"/><path d="M7.235484860674758,65.34930691868749L5.726150380755959,62.14834853154675L5.744822946798832,65.74600457681763z" style="fill:rgb(79,211,211)"/><path d="M8.607273137065071,61.22618031736947L7.235484860674758,65.34930691868749L8.635367250805844,64.82422417187273z" style="fill:rgb(64,205,205)"/><path d="M9.919853085261533,64.17972567113544L11.030158896643245,59.82825350182356L9.887558826789558,60.58141956341597z" style="fill:rgb(37,191,191)"/><path d="M9.887558826789558,60.58141956341597L8.635367250805844,64.82422417187273L9.919853085261533,64.17972567113544z" style="fill:rgb(50,199,199)"/><path d="M11.066212550109142,63.42687417013995L12.014696274849749,58.97967003293503L11.030158896643245,59.82825350182356z" style="fill:rgb(26,182,182)"/><path d="M-151.45290460233204,81.42845798577477L-149.24141989230603,86.53287719091531L71.86182645415629,26.382678269263096z" style="fill:rgb(127,37,217)"/><path d="M11.030158896643245,59.82825350182356L9.919853085261533,64.17972567113544L11.066212550109142,63.42687417013995z" style="fill:rgb(37,191,191)"/><path d="M12.014696274849749,58.97967003293503L12.86542068266323,61.64968292575131L12.82342900809137,58.050350300960744z" style="fill:rgb(16,172,172)"/><path d="M12.014696274849749,58.97967003293503L11.066212550109142,63.42687417013995L12.054002370528444,62.5786307168875z" style="fill:rgb(26,182,182)"/><path d="M12.86542068266323,61.64968292575131L13.441584644709557,57.05647820697727L12.82342900809137,58.050350300960744z" style="fill:rgb(9,161,161)"/><path d="M12.86542068266323,61.64968292575131L12.014696274849749,58.97967003293503L12.054002370528444,62.5786307168875z" style="fill:rgb(16,172,172)"/><path d="M-151.45290460233204,81.42845798577477L71.36813334063261,25.30302471014212L-152.14440609692363,80.4627721313097z" style="fill:rgb(127,37,217)"/><path d="M13.441584644709557,57.05647820697727L13.903113331662805,59.6155914716303L13.857640822544871,56.0154644527431z" style="fill:rgb(4,150,150)"/><path d="M13.441584644709557,57.05647820697727L12.86542068266323,61.64968292575131L13.485645161967536,60.65620840823407z" style="fill:rgb(9,161,161)"/><path d="M86.83931565489598,56.160068036161576L88.69331900017195,59.946519446476835L88.40332978090795,56.346513645690905z" style="fill:rgb(149,216,216)"/><path d="M13.903113331662805,59.6155914716303L14.063568261257652,54.94564172543748L13.857640822544871,56.0154644527431z" style="fill:rgb(0,138,138)"/><path d="M13.903113331662805,59.6155914716303L13.441584644709557,57.05647820697727L13.485645161967536,60.65620840823407z" style="fill:rgb(4,150,150)"/><path d="M86.66248839257993,58.750356610467726L86.83931565489598,56.160068036161576L86.37879496312335,55.14989391250107z" style="fill:rgb(247,158,158)"/><path d="M88.69331900017195,59.946519446476835L86.83931565489598,56.160068036161576L87.1242285286903,59.760145656575304z" style="fill:rgb(149,216,216)"/><path d="M71.86182645415629,26.382678269263096L-149.24141989230603,86.53287719091531L-77.41089442108868,68.93119300979515z" style="fill:rgb(127,37,217)"/><path d="M86.83931565489598,56.160068036161576L86.66248839257993,58.750356610467726L87.1242285286903,59.760145656575304z" style="fill:rgb(247,158,158)"/><path d="M14.109766761585893,58.546181463111274L14.055016868364143,53.865998330789154L14.063568261257652,54.94564172543748z" style="fill:rgb(0,126,126)"/><path d="M14.063568261257652,54.94564172543748L13.903113331662805,59.6155914716303L14.109766761585893,58.546181463111274z" style="fill:rgb(0,138,138)"/><path d="M82.87200688450227,47.17361880176268L7.235484860674758,65.34930691868749L5.744822946798832,65.74600457681763zM82.85621364423159,47.138976499284276L8.635367250805844,64.82422417187273L7.235484860674758,65.34930691868749z" style="fill:rgb(127,37,217)"/><path d="M14.055016868364143,53.865998330789154L14.109766761585893,58.546181463111274L14.101237969817651,57.46693458382069z" style="fill:rgb(0,126,126)"/><path d="M82.77760494435279,46.96649400178251L9.919853085261533,64.17972567113544L8.635367250805844,64.82422417187273zM82.63751243522802,46.65910972142178L11.066212550109142,63.42687417013995L9.919853085261533,64.17972567113544zM67.01035825228627,12.370621280747109L-153.72546840288942,80.28410939772023L-152.14440609692363,80.4627721313097zM144.49705872345956,190.7341425005351L72.64594179210386,22.759216627476395L67.74820850147351,23.970558307111403zM82.43833302159689,46.22206810281508L12.054002370528444,62.5786307168875L11.066212550109142,63.42687417013995zM5.744822946798832,65.74600457681763L86.66248839257993,58.750356610467726L82.87200688450227,47.17361880176268zM82.18345957564759,45.66283611602695L12.86542068266323,61.64968292575131L12.054002370528444,62.5786307168875zM81.87726229760074,44.99100169169559L13.485645161967536,60.65620840823407L12.86542068266323,61.64968292575131zM81.5250220608333,44.21812483846609L13.903113331662805,59.6155914716303L13.485645161967536,60.65620840823407zM82.87200688450227,47.17361880176268L86.66248839257993,58.750356610467726L87.77229011436808,57.925631659204385zM-153.72546840288942,80.28410939772023L67.01035825228627,12.370621280747109L-161.44400523108484,69.52790343256834zM81.13281662364491,43.35756641685845L14.109766761585893,58.546181463111274L13.903113331662805,59.6155914716303zM7.235484860674758,65.34930691868749L82.87200688450227,47.17361880176268L82.85621364423159,47.138976499284276zM8.635367250805844,64.82422417187273L82.85621364423159,47.138976499284276L82.77760494435279,46.96649400178251zM9.919853085261533,64.17972567113544L82.77760494435279,46.96649400178251L82.63751243522802,46.65910972142178zM14.109766761585893,58.546181463111274L80.25639327904362,41.43454257229688L14.101237969817651,57.46693458382069zM11.066212550109142,63.42687417013995L82.63751243522802,46.65910972142178L82.43833302159689,46.22206810281508z" style="fill:rgb(127,37,217)"/><path d="M67.01035825228627,12.370621280747109L-160.9212881348398,65.9319017081469L-161.44400523108484,69.52790343256834z" style="fill:rgb(83,212,212)"/><path d="M12.054002370528444,62.5786307168875L82.43833302159689,46.22206810281508L82.18345957564759,45.66283611602695zM14.101237969817651,57.46693458382069L79.7875200939871,40.405759051007706L13.87697292410929,56.39712213680009zM12.86542068266323,61.64968292575131L82.18345957564759,45.66283611602695L81.87726229760074,44.99100169169559zM13.87697292410929,56.39712213680009L79.30913233372294,39.356108238029634L13.440294252115446,55.35596411894532zM13.485645161967536,60.65620840823407L81.87726229760074,44.99100169169559L81.5250220608333,44.21812483846609z" style="fill:rgb(127,37,217)"/><path d="M73.23882928834193,22.97276860225413L87.77229011436808,57.925631659204385L87.48472336863608,54.32485941259797z" style="fill:rgb(247,158,158)"/><path d="M13.440294252115446,55.35596411894532L78.82974665184288,38.30425720816361L12.798391099022838,54.36228525456235zM13.903113331662805,59.6155914716303L81.5250220608333,44.21812483846609L81.13281662364491,43.35756641685845zM71.86182645415629,26.382678269263096L-77.41089442108868,68.93119300979515L-2.500299513087914,50.574763756929286zM12.798391099022838,54.36228525456235L78.35793224583362,37.26902018098838L11.96223175401894,53.43416712816163zM14.109766761585893,58.546181463111274L81.13281662364491,43.35756641685845L80.70746296926853,42.424272198032355zM80.25639327904362,41.43454257229688L14.109766761585893,58.546181463111274L80.70746296926853,42.424272198032355zM11.96223175401894,53.43416712816163L77.90218697540273,36.26904532560946L10.946403592450652,52.58858613953033zM10.946403592450652,52.58858613953033L77.47076774955237,35.322442268157566L9.768881512652605,51.84110418735272zM79.7875200939871,40.405759051007706L14.101237969817651,57.46693458382069L80.25639327904362,41.43454257229688zM9.768881512652605,51.84110418735272L77.07153141072284,34.44645380005114L8.450713460487021,51.20552676635252zM79.30913233372294,39.356108238029634L13.87697292410929,56.39712213680009L79.7875200939871,40.405759051007706zM8.450713460487021,51.20552676635252L76.71179446609548,33.65713106192474L7.015647040272009,50.69365521383997zM7.015647040272009,50.69365521383997L76.39817389623488,32.96899504069557L5.489687852324817,50.31501394233207zM71.36813334063261,25.30302471014212L-151.45290460233204,81.42845798577477L71.86182645415629,26.382678269263096zM78.82974665184288,38.30425720816361L13.440294252115446,55.35596411894532L79.30913233372294,39.356108238029634zM5.489687852324817,50.31501394233207L76.13646573450303,32.394766610440584L3.9006088559360026,50.07667872826578zM-0.9525509163833294,50.23449547196885L75.6898005061204,31.414707495053865L-2.500299513087914,50.574763756929286zM3.9006088559360026,50.07667872826578L75.93152605518704,31.94509976023778L2.2774136394416993,49.98310227502249zM0.6497743469895564,50.036040214332054L75.70608878839587,31.450452971373757L-0.9525509163833294,50.23449547196885zM2.2774136394416993,49.98310227502249L75.78717550117446,31.628358798848602L0.6497743469895564,50.036040214332054zM78.35793224583362,37.26902018098838L12.798391099022838,54.36228525456235L78.82974665184288,38.30425720816361zM77.90218697540273,36.26904532560946L11.96223175401894,53.43416712816163L78.35793224583362,37.26902018098838zM77.47076774955237,35.322442268157566L10.946403592450652,52.58858613953033L77.90218697540273,36.26904532560946zM77.07153141072284,34.44645380005114L9.768881512652605,51.84110418735272L77.47076774955237,35.322442268157566zM76.71179446609548,33.65713106192474L8.450713460487021,51.20552676635252L77.07153141072284,34.44645380005114zM67.01035825228627,12.370621280747109L-152.14440609692363,80.4627721313097L71.36813334063261,25.30302471014212zM76.39817389623488,32.96899504069557L7.015647040272009,50.69365521383997L76.71179446609548,33.65713106192474zM76.13646573450303,32.394766610440584L5.489687852324817,50.31501394233207L76.39817389623488,32.96899504069557z" style="fill:rgb(127,37,217)"/><path d="M87.77229011436808,57.925631659204385L73.23882928834193,22.97276860225413L73.48724047689095,26.58193853262733z" style="fill:rgb(247,158,158)"/><path d="M75.93152605518704,31.94509976023778L3.9006088559360026,50.07667872826578L76.13646573450303,32.394766610440584zM75.78717550117446,31.628358798848602L2.2774136394416993,49.98310227502249L75.93152605518704,31.94509976023778zM75.70608878839587,31.450452971373757L0.6497743469895564,50.036040214332054L75.78717550117446,31.628358798848602zM75.6898005061204,31.414707495053865L-0.9525509163833294,50.23449547196885L75.70608878839587,31.450452971373757zM71.86182645415629,26.382678269263096L-2.500299513087914,50.574763756929286L75.6898005061204,31.414707495053865z" style="fill:rgb(127,37,217)"/><path d="M-160.9212881348398,65.9319017081469L67.01035825228627,12.370621280747109L66.78068025420569,8.759797579212082z" style="fill:rgb(83,212,212)"/><path d="M71.61886217343844,22.773474279221983L73.48724047689095,26.58193853262733L73.23882928834193,22.97276860225413z" style="fill:rgb(149,216,216)"/><path d="M71.86182645415629,26.382678269263096L75.6898005061204,31.414707495053865L73.48724047689095,26.58193853262733z" style="fill:rgb(127,37,217)"/><path d="M71.36813334063261,25.30302471014212L71.61886217343844,22.773474279221983L71.12658247552146,21.693649369844096z" style="fill:rgb(247,158,158)"/><path d="M73.48724047689095,26.58193853262733L71.61886217343844,22.773474279221983L71.86182645415629,26.382678269263096z" style="fill:rgb(149,216,216)"/><path d="M71.61886217343844,22.773474279221983L71.36813334063261,25.30302471014212L71.86182645415629,26.382678269263096zM66.78068025420569,8.759797579212082L72.5024659460884,24.421182472302462L72.25686362360447,20.81167443766096z" style="fill:rgb(247,158,158)"/><path d="M67.01035825228627,12.370621280747109L71.36813334063261,25.30302471014212L72.5024659460884,24.421182472302462z" style="fill:rgb(127,37,217)"/><path d="M72.5024659460884,24.421182472302462L66.78068025420569,8.759797579212082L67.01035825228627,12.370621280747109z" style="fill:rgb(247,158,158)"/></svg>
