<?xml version="1.0" encoding="UTF-8"?>
<!-- Generated by jsxcad -->
<!DOCTYPE svg PUBLIC "-//W3C//DTD SVG 1.1 Tiny//EN" "http://www.w3.org/Graphics/SVG/1.1/DTD/svg11-tiny.dtd">
<svg viewBox="-250 -250 500 500" width="500" height="500" xmlns="http://www.w3.org/2000/svg"><path d="M-74.82637680219247,33.505243792122634L-42.999619807709855,22.967203608651104L-74.65336599922439,31.020527215673308z" style="fill:rgb(83,212,212)"/><path d="M-41.8317590764259,27.67809316173479L-74.82637680219247,33.505243792122634L-73.49916844392703,35.695291384316484z" style="fill:rgb(127,37,217)"/><path d="M-74.82637680219247,33.505243792122634L-43.10006912833559,25.452956075501966L-42.999619807709855,22.967203608651104z" style="fill:rgb(83,212,212)"/><path d="M-41.8317590764259,27.67809316173479L-43.10006912833559,25.452956075501966L-74.82637680219247,33.505243792122634z" style="fill:rgb(127,37,217)"/><path d="M-43.10006912833559,25.452956075501966L-41.73447869490283,25.192597062115375L-42.999619807709855,22.967203608651104zM-43.10006912833559,25.452956075501966L-41.8317590764259,27.67809316173479L-41.73447869490283,25.192597062115375zM-104.98333376400865,56.227894921451586L-102.18102673436366,30.121639627288033L-102.44562396208744,29.70233971046803zM-105.2811568140847,54.04208030447949L-102.44562396208744,29.70233971046803L-102.87576968569024,29.02069518084095zM-104.86736378392786,58.2844708293832L-102.09174181071788,30.263140484330115L-102.18102673436366,30.121639627288033zM-105.74937172804377,51.80863889116458L-102.87576968569024,29.02069518084095L-103.45555343402701,28.101903595632827zM-107.12132909498162,47.52999429360931L-104.1803438370118,24.082467090778277L-104.72842023933613,23.21147310343013zM-106.37044740760021,49.610683318077825L-103.45555343402701,28.101903595632827L-104.16345604162949,26.980096154101116z" style="fill:rgb(247,158,158)"/><path d="M-109.81876330331127,49.75011652532464L-104.42344737324878,26.568093906840915L-107.56646968465952,27.37732873689763z" style="fill:rgb(83,212,212)"/><path d="M-106.61171077936746,48.94214735781685L-104.16345604162949,26.980096154101116L-104.42344737324878,26.568093906840915zM-107.97425089637012,45.64431921707278L-104.72842023933613,23.21147310343013L-105.60677115710273,21.815622907493935zM-108.89761235595002,44.0246710187126L-105.60677115710273,21.815622907493935L-106.52277464656571,20.359922194041165zM-109.85705578001672,42.73286635531843L-106.52277464656571,20.359922194041165L-107.44140592395873,18.900059359709033zM-110.8165624341563,41.81916886955173L-107.44140592395873,18.900059359709033L-108.32720564163309,17.492356182567505zM-111.73976807222357,41.320322639925024L-108.32720564163309,17.492356182567505L-109.1457324514761,16.19157278717893zM-105.74937172804377,51.80863889116458L-105.2811568140847,54.04208030447949L-102.87576968569024,29.02069518084095zM-105.2811568140847,54.04208030447949L-104.98333376400865,56.227894921451586L-102.44562396208744,29.70233971046803zM-106.37044740760021,49.610683318077825L-105.74937172804377,51.80863889116458L-103.45555343402701,28.101903595632827zM-107.12132909498162,47.52999429360931L-106.61171077936746,48.94214735781685L-104.1803438370118,24.082467090778277zM-104.98333376400865,56.227894921451586L-104.86736378392786,58.2844708293832L-102.18102673436366,30.121639627288033z" style="fill:rgb(247,158,158)"/><path d="M-109.81876330331127,49.75011652532464L-106.61171077936746,48.94214735781685L-104.42344737324878,26.568093906840915z" style="fill:rgb(83,212,212)"/><path d="M-106.61171077936746,48.94214735781685L-106.37044740760021,49.610683318077825L-104.16345604162949,26.980096154101116zM-107.97425089637012,45.64431921707278L-107.12132909498162,47.52999429360931L-104.72842023933613,23.21147310343013zM-104.86736378392786,58.2844708293832L-104.9381769933904,60.134444877713946L-102.09174181071788,30.263140484330115zM-112.59123020844828,41.257864620443826L-109.1457324514761,16.19157278717893L-109.86489035003606,15.048707134199482zM-108.89761235595002,44.0246710187126L-107.97425089637012,45.64431921707278L-105.60677115710273,21.815622907493935zM-113.33780116604571,41.6369609885303L-109.86489035003606,15.048707134199482L-110.4562846144956,14.108875184237153zM-109.85705578001672,42.73286635531843L-108.89761235595002,44.0246710187126L-106.52277464656571,20.359922194041165zM-113.94997034831763,42.44579747554366L-110.4562846144956,14.108875184237153L-110.89643475120167,13.409402014626314zM-114.40309562289924,43.65560169864534L-110.89643475120167,13.409402014626314L-111.16777108352257,12.978194790357248zM-110.8165624341563,41.81916886955173L-109.85705578001672,42.73286635531843L-107.44140592395873,18.900059359709033zM-114.67855374338092,45.22138240398029L-111.16777108352257,12.978194790357248L-111.25944472379416,12.83251182290607z" style="fill:rgb(247,158,158)"/><path d="M-105.74937172804377,51.80863889116458L-108.9561042949446,52.61401585711082L-108.48914438836223,54.84585660642731z" style="fill:rgb(93,135,250)"/><path d="M-106.37044740760021,49.610683318077825L-109.5771236855813,50.41795968351951L-108.9561042949446,52.61401585711082z" style="fill:rgb(99,111,250)"/><path d="M-111.73976807222357,41.320322639925024L-110.8165624341563,41.81916886955173L-108.32720564163309,17.492356182567505z" style="fill:rgb(247,158,158)"/><path d="M-106.61171077936746,48.94214735781685L-109.81876330331127,49.75011652532464L-109.5771236855813,50.41795968351951z" style="fill:rgb(106,87,246)"/><path d="M-106.37044740760021,49.610683318077825L-108.9561042949446,52.61401585711082L-105.74937172804377,51.80863889116458z" style="fill:rgb(99,111,250)"/><path d="M-105.74937172804377,51.80863889116458L-108.48914438836223,54.84585660642731L-105.2811568140847,54.04208030447949z" style="fill:rgb(93,135,250)"/><path d="M-106.61171077936746,48.94214735781685L-109.5771236855813,50.41795968351951L-106.37044740760021,49.610683318077825z" style="fill:rgb(106,87,246)"/><path d="M-105.2811568140847,54.04208030447949L-108.48914438836223,54.84585660642731L-108.19375522232306,57.03044409209309z" style="fill:rgb(89,159,244)"/><path d="M-107.12132909498162,47.52999429360931L-110.32917616224033,48.339418103214264L-109.81876330331127,49.75011652532464zM-107.12132909498162,47.52999429360931L-109.81876330331127,49.75011652532464L-106.61171077936746,48.94214735781685z" style="fill:rgb(106,87,246)"/><path d="M-105.2811568140847,54.04208030447949L-108.19375522232306,57.03044409209309L-104.98333376400865,56.227894921451586z" style="fill:rgb(89,159,244)"/><path d="M-107.97425089637012,45.64431921707278L-110.32917616224033,48.339418103214264L-107.12132909498162,47.52999429360931z" style="fill:rgb(114,65,238)"/><path d="M-104.98333376400865,56.227894921451586L-108.19375522232306,57.03044409209309L-108.08131231532074,59.0861991961001z" style="fill:rgb(85,182,234)"/><path d="M-107.97425089637012,45.64431921707278L-111.18444440384934,46.456043013764756L-110.32917616224033,48.339418103214264z" style="fill:rgb(114,65,238)"/><path d="M-104.98333376400865,56.227894921451586L-108.08131231532074,59.0861991961001L-104.86736378392786,58.2844708293832z" style="fill:rgb(85,182,234)"/><path d="M-112.59123020844828,41.257864620443826L-111.73976807222357,41.320322639925024L-109.1457324514761,16.19157278717893z" style="fill:rgb(247,158,158)"/><path d="M-108.89761235595002,44.0246710187126L-111.18444440384934,46.456043013764756L-107.97425089637012,45.64431921707278z" style="fill:rgb(123,46,225)"/><path d="M-104.86736378392786,58.2844708293832L-108.08131231532074,59.0861991961001L-108.15658767263443,60.93579243165205z" style="fill:rgb(84,202,220)"/><path d="M-108.89761235595002,44.0246710187126L-112.11124262163398,44.8387807058473L-111.18444440384934,46.456043013764756z" style="fill:rgb(123,46,225)"/><path d="M-104.86736378392786,58.2844708293832L-108.15658767263443,60.93579243165205L-104.9381769933904,60.134444877713946z" style="fill:rgb(84,202,220)"/><path d="M-109.85705578001672,42.73286635531843L-112.11124262163398,44.8387807058473L-108.89761235595002,44.0246710187126z" style="fill:rgb(131,29,208)"/><path d="M-113.33780116604571,41.6369609885303L-112.59123020844828,41.257864620443826L-109.86489035003606,15.048707134199482z" style="fill:rgb(247,158,158)"/><path d="M-109.85705578001672,42.73286635531843L-113.0750874157518,43.54934124682504L-112.11124262163398,44.8387807058473z" style="fill:rgb(131,29,208)"/><path d="M-110.8165624341563,41.81916886955173L-113.0750874157518,43.54934124682504L-109.85705578001672,42.73286635531843z" style="fill:rgb(140,16,189)"/><path d="M-113.94997034831763,42.44579747554366L-113.33780116604571,41.6369609885303L-110.4562846144956,14.108875184237153z" style="fill:rgb(247,158,158)"/><path d="M-110.8165624341563,41.81916886955173L-114.03980703986093,42.637916271054756L-113.0750874157518,43.54934124682504z" style="fill:rgb(140,16,189)"/><path d="M-114.40309562289924,43.65560169864534L-113.94997034831763,42.44579747554366L-110.89643475120167,13.409402014626314z" style="fill:rgb(247,158,158)"/><path d="M-111.73976807222357,41.320322639925024L-114.03980703986093,42.637916271054756L-110.8165624341563,41.81916886955173z" style="fill:rgb(148,8,167)"/><path d="M-95.45145280487768,-0.5285340563099932L-62.6641250966773,-11.622873617253925L-95.22331821631508,-3.0155983403127506z" style="fill:rgb(83,212,212)"/><path d="M-61.45946557026645,-6.757024641258103L-95.45145280487768,-0.5285340563099932L-94.03321468191045,1.8117218756522635z" style="fill:rgb(127,37,217)"/><path d="M-111.73976807222357,41.320322639925024L-114.96881702759002,42.141144037039226L-114.03980703986093,42.637916271054756z" style="fill:rgb(148,8,167)"/><path d="M-114.67855374338092,45.22138240398029L-114.40309562289924,43.65560169864534L-111.16777108352257,12.978194790357248z" style="fill:rgb(247,158,158)"/><path d="M-117.89119016023821,181.6291453578878L-99.67498519235299,39.811938561339446L-104.33182267895451,40.99386795821188z" style="fill:rgb(83,212,212)"/><path d="M-112.64642612793669,180.48115403530028L-98.30241202702528,41.97469675483141L-99.67498519235299,39.811938561339446z" style="fill:rgb(247,158,158)"/><path d="M-112.59123020844828,41.257864620443826L-114.96881702759002,42.141144037039226L-111.73976807222357,41.320322639925024zM-112.59123020844828,41.257864620443826L-115.82648268764945,42.08049220635355L-114.96881702759002,42.141144037039226z" style="fill:rgb(155,4,143)"/><path d="M-95.45145280487768,-0.5285340563099932L-62.815494402347795,-9.136057518396491L-62.6641250966773,-11.622873617253925z" style="fill:rgb(83,212,212)"/><path d="M-61.45946557026645,-6.757024641258103L-62.815494402347795,-9.136057518396491L-95.45145280487768,-0.5285340563099932z" style="fill:rgb(127,37,217)"/><path d="M-62.815494402347795,-9.136057518396491L-61.311697957722444,-9.243943217135785L-62.6641250966773,-11.622873617253925zM-62.815494402347795,-9.136057518396491L-61.45946557026645,-6.757024641258103L-61.311697957722444,-9.243943217135785zM-115.52099852287118,171.19358830372047L-95.1973790114859,41.18859686578542L-102.09174181071788,30.263140484330115z" style="fill:rgb(247,158,158)"/><path d="M-109.14212039304515,179.71411586415886L18.231534989970744,9.886702290039622L-96.56430163510683,39.0224318461012zM115.7548469863566,-14.865178630846348L150.24439957393096,-26.19780291017901L115.47439003018044,-17.35164181228838z" style="fill:rgb(83,212,212)"/><path d="M150.61236103098707,-23.71218153478745L115.7548469863566,-14.865178630846348L116.71171695431313,-12.460159810705195zM150.61236103098707,-23.71218153478745L116.71171695431313,-12.460159810705195L151.4972044947717,-21.26675795398869z" style="fill:rgb(127,37,217)"/><path d="M115.7548469863566,-14.865178630846348L150.61236103098707,-23.71218153478745L150.24439957393096,-26.19780291017901zM-115.51196356442797,135.88277898770087L-104.9381769933904,60.134444877713946L-108.15658767263443,60.93579243165205z" style="fill:rgb(83,212,212)"/><path d="M150.61236103098707,-23.71218153478745L151.12792887574187,-23.75264786619552L150.24439957393096,-26.19780291017901zM150.61236103098707,-23.71218153478745L151.4972044947717,-21.26675795398869L151.12792887574187,-23.75264786619552zM-129.57198515985004,156.10591304255558L-111.25944472379416,12.83251182290607L-113.65405841442252,9.027037908079585z" style="fill:rgb(247,158,158)"/><path d="M-113.65405841442252,9.027037908079585L-116.82868162439055,9.86048615913147L-133.1761768622748,156.92064536099997z" style="fill:rgb(83,212,212)"/><path d="M18.231534989970744,9.886702290039622L21.984218723158452,153.54226433625357L19.382866483097157,12.180462588822182z" style="fill:rgb(247,158,158)"/><path d="M20.7403660042173,154.5146778362752L51.345429171359996,-1.0359958627189512L18.188395037452004,7.3997928635477095zM-142.7564496105799,148.9327372980673L-121.00021472596028,6.2097877441704386L-125.78707794620337,7.472290307926257z" style="fill:rgb(83,212,212)"/><path d="M-137.3464352449574,147.6957325087625L-119.53412889168901,8.519909335952285L-121.00021472596028,6.2097877441704386zM52.429338090460874,1.2953992489967274L51.345429171359996,-1.0359958627189512L58.61667438995343,146.2542684709214z" style="fill:rgb(247,158,158)"/><path d="M-115.51196356442797,135.88277898770087L-112.08090871124698,135.0923076449953L-104.9381769933904,60.134444877713946z" style="fill:rgb(83,212,212)"/><path d="M-112.64642612793669,180.48115403530028L-111.06402446484032,182.58154794144332L-98.30241202702528,41.97469675483141z" style="fill:rgb(247,158,158)"/><path d="M-117.89119016023821,181.6291453578878L-112.64642612793669,180.48115403530028L-99.67498519235299,39.811938561339446z" style="fill:rgb(83,212,212)"/><path d="M176.1295390187256,-14.045173454028008L171.73777446708064,-40.11738584868267L171.576249130122,-40.59696147424389zM-115.52099852287118,171.19358830372047L-107.56687803458537,181.81824897371948L-95.1973790114859,41.18859686578542zM175.6046798727238,-16.33532084326932L171.576249130122,-40.59696147424389L171.3136421944767,-41.376650536414694zM176.57513782948635,-11.92208617318664L171.7922846406555,-39.95555060842382L171.73777446708064,-40.11738584868267zM175.02020372497137,-18.707119999725123L171.3136421944767,-41.376650536414694L170.95961699809183,-42.42771037049307zM173.76077271449708,-23.343662960515264L169.94433017706484,-46.664924469634364L169.6091069853582,-47.66131167428039zM174.39788191634807,-21.072502644671896L170.95961699809183,-42.42771037049307L170.52732432517803,-43.71119390436804z" style="fill:rgb(247,158,158)"/><path d="M170.5129011021776,-20.87502862774676L170.36853658630838,-44.18262443804322L166.77225501251306,-43.25669119723544zM-133.73142742512923,146.86914250921615L0.3245450432758777,-25.788834561123956L-117.80248088612932,5.366405922743565z" style="fill:rgb(83,212,212)"/><path d="M174.19317944763577,-21.8022173953936L170.52732432517803,-43.71119390436804L170.36853658630838,-44.18262443804322zM173.13255432286846,-25.435987031534715L169.6091069853582,-47.66131167428039L169.07179884049998,-49.25837112318772z" style="fill:rgb(247,158,158)"/><path d="M100.85924655212192,-52.30421510714591L136.48741094314235,-64.2701259440975L100.60623982527194,-54.78465933738076z" style="fill:rgb(83,212,212)"/><path d="M172.53666989572616,-27.27088816940462L169.07179884049998,-49.25837112318772L168.5113337449115,-50.92423788093333z" style="fill:rgb(247,158,158)"/><path d="M136.83362908088748,-61.79222232633098L100.85924655212192,-52.30421510714591L101.88505796823883,-49.725914295089346z" style="fill:rgb(127,37,217)"/><path d="M171.99558301582945,-28.77857140596628L168.5113337449115,-50.92423788093333L167.94915414111716,-52.595195972981614z" style="fill:rgb(247,158,158)"/><path d="M58.45747415362105,143.02942970247366L171.61129153741757,-29.041808488523795L51.468207645989544,1.4510773561382468z" style="fill:rgb(83,212,212)"/><path d="M136.83362908088748,-61.79222232633098L101.88505796823883,-49.725914295089346L137.78278822211502,-59.16905273507201z" style="fill:rgb(127,37,217)"/><path d="M171.52995880434628,-29.900587704233473L167.94915414111716,-52.595195972981614L167.4069650188285,-54.2067682203537z" style="fill:rgb(247,158,158)"/><path d="M100.85924655212192,-52.30421510714591L136.83362908088748,-61.79222232633098L136.48741094314235,-64.2701259440975z" style="fill:rgb(83,212,212)"/><path d="M136.83362908088748,-61.79222232633098L137.43499526558256,-61.647701413750745L136.48741094314235,-64.2701259440975zM136.83362908088748,-61.79222232633098L137.78278822211502,-59.16905273507201L137.43499526558256,-61.647701413750745zM171.15786352436137,-30.592151715738602L167.4069650188285,-54.2067682203537L166.90585670735166,-55.69621163215108zM175.02020372497137,-18.707119999725123L175.6046798727238,-16.33532084326932L171.3136421944767,-41.376650536414694zM175.6046798727238,-16.33532084326932L176.1295390187256,-14.045173454028008L171.576249130122,-40.59696147424389zM174.39788191634807,-21.072502644671896L175.02020372497137,-18.707119999725123L170.95961699809183,-42.42771037049307zM173.76077271449708,-23.343662960515264L174.19317944763577,-21.8022173953936L169.94433017706484,-46.664924469634364zM176.1295390187256,-14.045173454028008L176.57513782948635,-11.92208617318664L171.73777446708064,-40.11738584868267z" style="fill:rgb(247,158,158)"/><path d="M170.5129011021776,-20.87502862774676L174.19317944763577,-21.8022173953936L170.36853658630838,-44.18262443804322z" style="fill:rgb(83,212,212)"/><path d="M174.19317944763577,-21.8022173953936L174.39788191634807,-21.072502644671896L170.52732432517803,-43.71119390436804zM173.13255432286846,-25.435987031534715L173.76077271449708,-23.343662960515264L169.6091069853582,-47.66131167428039zM176.57513782948635,-11.92208617318664L176.92457069487892,-10.045911758952121L171.7922846406555,-39.95555060842382zM170.89408799053723,-30.824099990544983L166.90585670735166,-55.69621163215108L166.4654994715604,-57.00504896501986zM172.53666989572616,-27.27088816940462L173.13255432286846,-25.435987031534715L169.07179884049998,-49.25837112318772zM170.7495266986054,-30.584401580782195L166.4654994715604,-57.00504896501986L166.10334117340665,-58.0815257191437zM171.99558301582945,-28.77857140596628L172.53666989572616,-27.27088816940462L168.5113337449115,-50.92423788093333zM170.73056314827278,-29.879079916355504L166.10334117340665,-58.0815257191437L165.83377267117893,-58.882784049669866zM170.8387517799011,-28.73247777941066L165.83377267117893,-58.882784049669866L165.66755949732297,-59.376777253425345zM171.52995880434628,-29.900587704233473L171.99558301582945,-28.77857140596628L167.94915414111716,-52.595195972981614zM171.07067998907337,-27.18674845317036L165.66755949732297,-59.376777253425345L165.61140545193282,-59.543678105382035z" style="fill:rgb(247,158,158)"/><path d="M175.02020372497137,-18.707119999725123L171.3404713539321,-17.78294827065161L171.92335191615828,-15.412944510121093z" style="fill:rgb(93,135,250)"/><path d="M174.39788191634807,-21.072502644671896L170.71812900155047,-20.14612737153548L171.3404713539321,-17.78294827065161z" style="fill:rgb(99,111,250)"/><path d="M171.15786352436137,-30.592151715738602L171.52995880434628,-29.900587704233473L167.4069650188285,-54.2067682203537z" style="fill:rgb(247,158,158)"/><path d="M174.19317944763577,-21.8022173953936L170.5129011021776,-20.87502862774676L170.71812900155047,-20.14612737153548z" style="fill:rgb(106,87,246)"/><path d="M174.39788191634807,-21.072502644671896L171.3404713539321,-17.78294827065161L175.02020372497137,-18.707119999725123z" style="fill:rgb(99,111,250)"/><path d="M175.02020372497137,-18.707119999725123L171.92335191615828,-15.412944510121093L175.6046798727238,-16.33532084326932z" style="fill:rgb(93,135,250)"/><path d="M174.19317944763577,-21.8022173953936L170.71812900155047,-20.14612737153548L174.39788191634807,-21.072502644671896z" style="fill:rgb(106,87,246)"/><path d="M175.6046798727238,-16.33532084326932L171.92335191615828,-15.412944510121093L172.44505893914075,-13.124120240616378z" style="fill:rgb(89,159,244)"/><path d="M173.76077271449708,-23.343662960515264L170.07938390080912,-22.41475725858155L170.5129011021776,-20.87502862774676zM173.76077271449708,-23.343662960515264L170.5129011021776,-20.87502862774676L174.19317944763577,-21.8022173953936z" style="fill:rgb(106,87,246)"/><path d="M-112.08090871124698,135.0923076449953L-115.51196356442797,135.88277898770087L-115.80405292064879,137.69906398308916z" style="fill:rgb(84,220,202)"/><path d="M175.6046798727238,-16.33532084326932L172.44505893914075,-13.124120240616378L176.1295390187256,-14.045173454028008z" style="fill:rgb(89,159,244)"/><path d="M173.13255432286846,-25.435987031534715L170.07938390080912,-22.41475725858155L173.76077271449708,-23.343662960515264z" style="fill:rgb(114,65,238)"/><path d="M176.1295390187256,-14.045173454028008L172.44505893914075,-13.124120240616378L172.88606021405107,-11.001835593095667z" style="fill:rgb(85,182,234)"/><path d="M173.13255432286846,-25.435987031534715L169.44795616118273,-24.504308443000603L170.07938390080912,-22.41475725858155z" style="fill:rgb(114,65,238)"/><path d="M-112.08090871124698,135.0923076449953L-115.80405292064879,137.69906398308916L-112.36701046741956,136.9087447199281z" style="fill:rgb(84,220,202)"/><path d="M176.1295390187256,-14.045173454028008L172.88606021405107,-11.001835593095667L176.57513782948635,-11.92208617318664z" style="fill:rgb(85,182,234)"/><path d="M170.89408799053723,-30.824099990544983L171.15786352436137,-30.592151715738602L166.90585670735166,-55.69621163215108z" style="fill:rgb(247,158,158)"/><path d="M-109.14212039304515,179.71411586415886L20.684554458511485,151.29727494404975L18.231534989970744,9.886702290039622z" style="fill:rgb(83,212,212)"/><path d="M172.53666989572616,-27.27088816940462L169.44795616118273,-24.504308443000603L173.13255432286846,-25.435987031534715z" style="fill:rgb(123,46,225)"/><path d="M176.57513782948635,-11.92208617318664L172.88606021405107,-11.001835593095667L173.22961751740118,-9.125913174350519z" style="fill:rgb(84,202,220)"/><path d="M172.53666989572616,-27.27088816940462L168.84745889524913,-26.336302120438226L169.44795616118273,-24.504308443000603z" style="fill:rgb(123,46,225)"/><path d="M-112.36701046741956,136.9087447199281L-115.80405292064879,137.69906398308916L-116.28684470548512,139.17384572621845z" style="fill:rgb(85,234,182)"/><path d="M176.57513782948635,-11.92208617318664L173.22961751740118,-9.125913174350519L176.92457069487892,-10.045911758952121z" style="fill:rgb(84,202,220)"/><path d="M-112.36701046741956,136.9087447199281L-116.28684470548512,139.17384572621845L-112.84315825682596,138.38318188071818z" style="fill:rgb(85,234,182)"/><path d="M171.99558301582945,-28.77857140596628L168.84745889524913,-26.336302120438226L172.53666989572616,-27.27088816940462z" style="fill:rgb(131,29,208)"/><path d="M170.7495266986054,-30.584401580782195L170.89408799053723,-30.824099990544983L166.4654994715604,-57.00504896501986z" style="fill:rgb(247,158,158)"/><path d="M171.99558301582945,-28.77857140596628L168.30046700841905,-27.84104874971812L168.84745889524913,-26.336302120438226z" style="fill:rgb(131,29,208)"/><path d="M-112.84315825682596,138.38318188071818L-116.28684470548512,139.17384572621845L-116.94319092442686,140.2490413554062z" style="fill:rgb(89,244,159)"/><path d="M0.3245450432758777,-25.788834561123956L1.773935047238671,118.63171421801151L1.5567864506332418,-23.333878377011743z" style="fill:rgb(247,158,158)"/><path d="M171.52995880434628,-29.900587704233473L168.30046700841905,-27.84104874971812L171.99558301582945,-28.77857140596628z" style="fill:rgb(140,16,189)"/><path d="M170.73056314827278,-29.879079916355504L170.7495266986054,-30.584401580782195L166.10334117340665,-58.0815257191437z" style="fill:rgb(247,158,158)"/><path d="M-112.84315825682596,138.38318188071818L-116.94319092442686,140.2490413554062L-113.49242448285723,139.4575729105113z" style="fill:rgb(89,244,159)"/><path d="M171.52995880434628,-29.900587704233473L167.8278806555711,-28.96021016007399L168.30046700841905,-27.84104874971812z" style="fill:rgb(140,16,189)"/><path d="M-113.49242448285723,139.4575729105113L-116.94319092442686,140.2490413554062L-117.74914745087592,140.88095081498878z" style="fill:rgb(93,250,135)"/><path d="M170.8387517799011,-28.73247777941066L170.73056314827278,-29.879079916355504L165.83377267117893,-58.882784049669866z" style="fill:rgb(247,158,158)"/><path d="M171.15786352436137,-30.592151715738602L167.8278806555711,-28.96021016007399L171.52995880434628,-29.900587704233473zM171.15786352436137,-30.592151715738602L167.44802342647762,-29.64911109768494L167.8278806555711,-28.96021016007399z" style="fill:rgb(148,8,167)"/><path d="M-113.49242448285723,139.4575729105113L-117.74914745087592,140.88095081498878L-114.29113535527334,140.0882167311648z" style="fill:rgb(93,250,135)"/><path d="M171.61129153741757,-29.041808488523795L196.58999603567628,115.43260166675186L172.4521050528803,-26.57188219911436zM171.07067998907337,-27.18674845317036L170.8387517799011,-28.73247777941066L165.66755949732297,-59.376777253425345z" style="fill:rgb(247,158,158)"/><path d="M0.3709708378486226,119.45263884536992L34.483442893791626,-37.30458502859602L0.3237506073416847,-28.274206584897826z" style="fill:rgb(83,212,212)"/><path d="M170.89408799053723,-30.824099990544983L167.44802342647762,-29.64911109768494L171.15786352436137,-30.592151715738602z" style="fill:rgb(155,4,143)"/><path d="M-129.57198515985004,156.10591304255558L-126.7765491127082,159.82443646893236L-111.25944472379416,12.83251182290607z" style="fill:rgb(247,158,158)"/><path d="M170.89408799053723,-30.824099990544983L167.17597642700161,-29.878693165236665L167.44802342647762,-29.64911109768494z" style="fill:rgb(155,4,143)"/><path d="M-115.62415671039975,171.055790252857L-112.08090871124698,135.0923076449953L-112.36701046741956,136.9087447199281z" style="fill:rgb(247,158,158)"/><path d="M199.7702889387326,112.09846054739549L184.07369855826755,-32.20482998547079L175.16448316106127,-29.94362374176417zM-113.65405841442252,9.027037908079585L-133.1761768622748,156.92064536099997L-129.57198515985004,156.10591304255558z" style="fill:rgb(83,212,212)"/><path d="M18.231534989970744,9.886702290039622L20.684554458511485,151.29727494404975L21.984218723158452,153.54226433625357zM184.88815529579412,-29.720304497808424L184.07369855826755,-32.20482998547079L209.99325735892631,109.8608247050055zM-115.92988856532375,170.6474254356405L-112.36701046741956,136.9087447199281L-112.84315825682596,138.38318188071818zM-172.47421972676455,-36.37931837092105L-165.6719187050525,-73.63864333287029L-165.99115758194574,-74.14597639089223zM-172.75426491775534,-38.74082052220222L-165.99115758194574,-74.14597639089223L-166.51021207074086,-74.97082593921593zM-172.42531237071915,-34.20069493818852L-165.56418741073028,-73.46743766751456L-165.6719187050525,-73.63864333287029zM-173.2545029984595,-41.19721527592239L-166.51021207074086,-74.97082593921593L-167.20992930919326,-76.08281359644347zM35.64398946249183,-34.80835500607431L34.483442893791626,-37.30458502859602L39.561688558829125,110.52301237025645zM-116.4269753794931,169.98345040287137L-112.84315825682596,138.38318188071818L-113.49242448285723,139.4575729105113zM-173.9562440698832,-43.65740425631306L-167.20992930919326,-76.08281359644347L-168.0644461554173,-77.44077434026147zM-137.3464352449574,147.6957325087625L-135.6414049221115,149.9589002628911L-119.53412889168901,8.519909335952285zM-174.83353728975175,-46.03019016600559L-168.0644461554173,-77.44077434026147L-169.04188332542253,-78.99409623202816zM-117.09712609319247,169.08827661223629L-113.49242448285723,139.4575729105113L-114.29113535527334,140.0882167311648z" style="fill:rgb(247,158,158)"/><path d="M-142.7564496105799,148.9327372980673L-137.3464352449574,147.6957325087625L-121.00021472596028,6.2097877441704386z" style="fill:rgb(83,212,212)"/><path d="M196.18189381826866,102.18080416741056L175.99780038696915,-27.469539587419L171.7922846406555,-39.95555060842382zM-175.85412990895097,-48.22730217468306L-169.04188332542253,-78.99409623202816L-170.10553241756506,-80.68443383079604z" style="fill:rgb(247,158,158)"/><path d="M-112.64642612793669,180.48115403530028L-116.29811639509629,183.72394914744194L-111.06402446484032,182.58154794144332z" style="fill:rgb(127,37,217)"/><path d="M-117.91558418917444,167.9950408411243L-114.29113535527334,140.0882167311648L-115.20960703495723,140.24782616683262z" style="fill:rgb(247,158,158)"/><path d="M-112.64642612793669,180.48115403530028L-117.89119016023821,181.6291453578878L-116.29811639509629,183.72394914744194z" style="fill:rgb(127,37,217)"/><path d="M-176.9804652461364,-50.166329729101705L-170.10553241756506,-80.68443383079604L-171.21511108287004,-82.44774466053116z" style="fill:rgb(247,158,158)"/><path d="M-121.76158514136007,168.3821987849612L-115.53166740138249,140.14486372127334L-118.99894164250698,140.93992420222582z" style="fill:rgb(83,212,212)"/><path d="M-118.21623831346456,167.59344309998045L-115.20960703495723,140.24782616683262L-115.53166740138249,140.14486372127334z" style="fill:rgb(247,158,158)"/><path d="M20.7403660042173,154.5146778362752L58.61667438995343,146.2542684709214L51.345429171359996,-1.0359958627189512z" style="fill:rgb(83,212,212)"/><path d="M-178.1708224849745,-51.77360659870138L-171.21511108287004,-82.44774466053116L-172.32816205806114,-84.21660512250689zM-115.62415671039975,171.055790252857L-115.52099852287118,171.19358830372047L-112.08090871124698,135.0923076449953zM-119.16697270937935,169.94679207300385L-115.53166740138249,140.14486372127334L-116.2130677075775,139.92701041244544zM52.429338090460874,1.2953992489967274L58.61667438995343,146.2542684709214L59.83513206033679,148.53908966651804zM-115.92988856532375,170.6474254356405L-115.62415671039975,171.055790252857L-112.36701046741956,136.9087447199281zM-179.38080878086157,-52.986890378397995L-172.32816205806114,-84.21660512250689L-173.40177595907912,-85.92275278877813zM-116.4269753794931,169.98345040287137L-115.92988856532375,170.6474254356405L-112.84315825682596,138.38318188071818zM-120.18913157723877,168.5871039506428L-116.2130677075775,139.92701041244544L-117.26295516716941,139.1351433857076z" style="fill:rgb(247,158,158)"/><path d="M-118.21623831346456,167.59344309998045L-111.06402446484032,182.58154794144332L-107.56687803458537,181.81824897371948z" style="fill:rgb(127,37,217)"/><path d="M-180.5646969536756,-53.75783202017902L-173.40177595907912,-85.92275278877813L-174.39409791594676,-87.49972443692758zM-117.09712609319247,169.08827661223629L-116.4269753794931,169.98345040287137L-113.49242448285723,139.4575729105113zM-121.25552012106547,167.16857348593865L-117.26295516716941,139.1351433857076L-118.31836563810839,137.9004585222193z" style="fill:rgb(247,158,158)"/><path d="M39.4499645693262,107.27072733832898L158.5156894687715,-67.51072884087876L34.568776483851444,-34.82052878865131z" style="fill:rgb(83,212,212)"/><path d="M-181.67719167945125,-54.05405376830034L-174.39409791594676,-87.49972443692758L-175.26615375896546,-88.88558834912796zM-117.91558418917444,167.9950408411243L-117.09712609319247,169.08827661223629L-114.29113535527334,140.0882167311648zM-173.2545029984595,-41.19721527592239L-172.75426491775534,-38.74082052220222L-166.51021207074086,-74.97082593921593zM-172.75426491775534,-38.74082052220222L-172.47421972676455,-36.37931837092105L-165.99115758194574,-74.14597639089223zM-173.9562440698832,-43.65740425631306L-173.2545029984595,-41.19721527592239L-167.20992930919326,-76.08281359644347zM-122.3253900278944,165.74542531619954L-118.31836563810839,137.9004585222193L-119.33774531932237,136.2693366111746zM-190.32864593087473,71.26984128872996L-113.92320241128306,11.513878866224006L-165.98766458917683,-70.99240133839156zM-172.47421972676455,-36.37931837092105L-172.42531237071915,-34.20069493818852L-165.6719187050525,-73.63864333287029zM-118.21623831346456,167.59344309998045L-117.91558418917444,167.9950408411243L-115.20960703495723,140.24782616683262zM-174.83353728975175,-46.03019016600559L-173.9562440698832,-43.65740425631306L-168.0644461554173,-77.44077434026147z" style="fill:rgb(247,158,158)"/><path d="M-121.76158514136007,168.3821987849612L-118.21623831346456,167.59344309998045L-115.53166740138249,140.14486372127334z" style="fill:rgb(83,212,212)"/><path d="M-182.67508982637537,-53.86082895021558L-175.26615375896546,-88.88558834912796L-175.9834295767102,-90.02548472976514z" style="fill:rgb(247,158,158)"/><path d="M185.91374240767334,66.43795513223981L176.92457069487892,-10.045911758952121L173.22961751740118,-9.125913174350519z" style="fill:rgb(83,212,212)"/><path d="M-172.42531237071915,-34.20069493818852L-172.61015792903504,-32.28686432302618L-165.56418741073028,-73.46743766751456zM-123.35742475184104,164.37259690842578L-119.33774531932237,136.2693366111746L-120.28057891475254,134.30464820360737zM-175.85412990895097,-48.22730217468306L-174.83353728975175,-46.03019016600559L-169.04188332542253,-78.99409623202816zM-126.7765491127082,159.82443646893236L-122.715265733364,122.47175470657537L-122.61109261279904,120.36550281433198zM-183.51901949458158,-53.182139616664486L-175.9834295767102,-90.02548472976514L-176.51737009190887,-90.87399053994841zM-124.31142946842718,163.1035640630703L-120.28057891475254,134.30464820360737L-121.10921986134007,132.08336661227858z" style="fill:rgb(247,158,158)"/><path d="M-118.21623831346456,167.59344309998045L-121.76158514136007,168.3821987849612L-111.06402446484032,182.58154794144332z" style="fill:rgb(127,37,217)"/><path d="M-126.66958848086759,159.96671847669577L-122.60950257450337,124.79021865511301L-122.715265733364,122.47175470657537zM-176.9804652461364,-50.166329729101705L-175.85412990895097,-48.22730217468306L-170.10553241756506,-80.68443383079604zM-119.16697270937935,169.94679207300385L-118.5293578316398,170.79495784633218L-115.53166740138249,140.14486372127334zM-125.1498961789712,161.9882282846031L-121.10921986134007,132.08336661227858L-121.79050570688175,129.69336513772018zM-184.17502365386662,-52.04104107038802L-176.51737009190887,-90.87399053994841L-176.84655547965605,-91.39713531298584zM-126.35302933066025,160.38781880046042L-122.29726097862155,127.22965643554198L-122.60950257450337,124.79021865511301zM-125.83959881951847,161.07078515285667L-121.79050570688175,129.69336513772018L-122.29726097862155,127.22965643554198z" style="fill:rgb(247,158,158)"/><path d="M-188.18493437429368,-49.470135259092714L-176.95777960280404,-91.57388202037544L-180.38537056763772,-90.57019057790433z" style="fill:rgb(83,212,212)"/><path d="M-184.61621757966648,-50.47925483017503L-176.84655547965605,-91.39713531298584L-176.95777960280404,-91.57388202037544zM-120.18913157723877,168.5871039506428L-119.16697270937935,169.94679207300385L-116.2130677075775,139.92701041244544zM-178.1708224849745,-51.77360659870138L-176.9804652461364,-50.166329729101705L-171.21511108287004,-82.44774466053116z" style="fill:rgb(247,158,158)"/><path d="M-84.8558591475603,177.54403022972647L-48.800031594212,166.50625646382764L-84.63342799573196,174.34959374952143z" style="fill:rgb(83,212,212)"/><path d="M20.684554458511485,151.29727494404975L-109.14212039304515,179.71411586415886L-107.56687803458537,181.81824897371948zM-47.47553604467261,171.87569959599594L-84.8558591475603,177.54403022972647L-83.32648967316908,179.67212447128242z" style="fill:rgb(127,37,217)"/><path d="M-121.25552012106547,167.16857348593865L-120.18913157723877,168.5871039506428L-117.26295516716941,139.1351433857076zM-179.38080878086157,-52.986890378397995L-178.1708224849745,-51.77360659870138L-172.32816205806114,-84.21660512250689zM-122.3253900278944,165.74542531619954L-121.25552012106547,167.16857348593865L-118.31836563810839,137.9004585222193zM-180.5646969536756,-53.75783202017902L-179.38080878086157,-52.986890378397995L-173.40177595907912,-85.92275278877813z" style="fill:rgb(247,158,158)"/><path d="M-84.8558591475603,177.54403022972647L-48.92944952864639,169.70888122515237L-48.800031594212,166.50625646382764z" style="fill:rgb(83,212,212)"/><path d="M-47.47553604467261,171.87569959599594L-48.92944952864639,169.70888122515237L-84.8558591475603,177.54403022972647z" style="fill:rgb(127,37,217)"/><path d="M-123.35742475184104,164.37259690842578L-122.3253900278944,165.74542531619954L-119.33774531932237,136.2693366111746zM-48.92944952864639,169.70888122515237L-47.350274969106906,168.6752965603152L-48.800031594212,166.50625646382764zM-48.92944952864639,169.70888122515237L-47.47553604467261,171.87569959599594L-47.350274969106906,168.6752965603152zM-181.67719167945125,-54.05405376830034L-180.5646969536756,-53.75783202017902L-174.39409791594676,-87.49972443692758zM-124.31142946842718,163.1035640630703L-123.35742475184104,164.37259690842578L-120.28057891475254,134.30464820360737z" style="fill:rgb(247,158,158)"/><path d="M-173.2545029984595,-41.19721527592239L-176.76073013659078,-40.217079097255855L-176.26201888798454,-37.76260847609855z" style="fill:rgb(93,135,250)"/><path d="M-173.9562440698832,-43.65740425631306L-177.46239307181716,-42.67488240753472L-176.76073013659078,-40.217079097255855zM-173.9562440698832,-43.65740425631306L-176.76073013659078,-40.217079097255855L-173.2545029984595,-41.19721527592239z" style="fill:rgb(99,111,250)"/><path d="M-173.2545029984595,-41.19721527592239L-176.26201888798454,-37.76260847609855L-172.75426491775534,-38.74082052220222z" style="fill:rgb(93,135,250)"/><path d="M-172.75426491775534,-38.74082052220222L-176.26201888798454,-37.76260847609855L-175.98491424797768,-35.40250261470188z" style="fill:rgb(89,159,244)"/><path d="M-174.83353728975175,-46.03019016600559L-178.34105949575635,-45.0449161247982L-177.46239307181716,-42.67488240753472zM-174.83353728975175,-46.03019016600559L-177.46239307181716,-42.67488240753472L-173.9562440698832,-43.65740425631306z" style="fill:rgb(106,87,246)"/><path d="M-125.1498961789712,161.9882282846031L-124.31142946842718,163.1035640630703L-121.10921986134007,132.08336661227858z" style="fill:rgb(247,158,158)"/><path d="M-172.75426491775534,-38.74082052220222L-175.98491424797768,-35.40250261470188L-172.47421972676455,-36.37931837092105z" style="fill:rgb(89,159,244)"/><path d="M-133.73142742512923,146.86914250921615L0.3699332196453678,116.20649431429233L0.3245450432758777,-25.788834561123956z" style="fill:rgb(83,212,212)"/><path d="M-182.67508982637537,-53.86082895021558L-181.67719167945125,-54.05405376830034L-175.26615375896546,-88.88558834912796z" style="fill:rgb(247,158,158)"/><path d="M-175.85412990895097,-48.22730217468306L-178.34105949575635,-45.0449161247982L-174.83353728975175,-46.03019016600559z" style="fill:rgb(114,65,238)"/><path d="M-172.47421972676455,-36.37931837092105L-175.98491424797768,-35.40250261470188L-175.94019602445093,-33.22469704847076z" style="fill:rgb(85,182,234)"/><path d="M-175.85412990895097,-48.22730217468306L-179.36442701329906,-47.23899112123011L-178.34105949575635,-45.0449161247982z" style="fill:rgb(114,65,238)"/><path d="M-125.83959881951847,161.07078515285667L-125.1498961789712,161.9882282846031L-121.79050570688175,129.69336513772018zM189.00339306545828,84.09135588593453L165.61140545193282,-59.543678105382035L164.1442221925898,-63.9046077542685z" style="fill:rgb(247,158,158)"/><path d="M-172.47421972676455,-36.37931837092105L-175.94019602445093,-33.22469704847076L-172.42531237071915,-34.20069493818852z" style="fill:rgb(85,182,234)"/><path d="M-126.35302933066025,160.38781880046042L-125.83959881951847,161.07078515285667L-122.29726097862155,127.22965643554198zM-126.7765491127082,159.82443646893236L-126.66958848086759,159.96671847669577L-122.715265733364,122.47175470657537zM-126.66958848086759,159.96671847669577L-126.35302933066025,160.38781880046042L-122.60950257450337,124.79021865511301z" style="fill:rgb(247,158,158)"/><path d="M-176.9804652461364,-50.166329729101705L-179.36442701329906,-47.23899112123011L-175.85412990895097,-48.22730217468306z" style="fill:rgb(123,46,225)"/><path d="M164.1442221925898,-63.9046077542685L160.50548425569016,-62.94931503420016L184.78939489576888,85.04394163139031z" style="fill:rgb(83,212,212)"/><path d="M-172.42531237071915,-34.20069493818852L-175.94019602445093,-33.22469704847076L-176.1303856931407,-31.311074976131984z" style="fill:rgb(84,202,220)"/><path d="M-176.9804652461364,-50.166329729101705L-180.4948384265394,-49.17482199350938L-179.36442701329906,-47.23899112123011z" style="fill:rgb(123,46,225)"/><path d="M-183.51901949458158,-53.182139616664486L-182.67508982637537,-53.86082895021558L-175.9834295767102,-90.02548472976514z" style="fill:rgb(247,158,158)"/><path d="M-172.42531237071915,-34.20069493818852L-176.1303856931407,-31.311074976131984L-172.61015792903504,-32.28686432302618z" style="fill:rgb(84,202,220)"/><path d="M20.684554458511485,151.29727494404975L-107.56687803458537,181.81824897371948L21.984218723158452,153.54226433625357z" style="fill:rgb(127,37,217)"/><path d="M-178.1708224849745,-51.77360659870138L-180.4948384265394,-49.17482199350938L-176.9804652461364,-50.166329729101705zM-178.1708224849745,-51.77360659870138L-181.6904445015363,-50.77885568904026L-180.4948384265394,-49.17482199350938z" style="fill:rgb(131,29,208)"/><path d="M58.45747415362105,143.02942970247366L195.69483441524045,112.99050644476976L171.61129153741757,-29.041808488523795z" style="fill:rgb(83,212,212)"/><path d="M-184.17502365386662,-52.04104107038802L-183.51901949458158,-53.182139616664486L-176.51737009190887,-90.87399053994841zM-190.32864593087473,71.26984128872996L-129.22393554891437,152.88999201726625L-113.92320241128306,11.513878866224006z" style="fill:rgb(247,158,158)"/><path d="M-129.57198515985004,156.10591304255558L-122.08380338259379,171.58290374119483L-118.5293578316398,170.79495784633218z" style="fill:rgb(127,37,217)"/><path d="M-179.38080878086157,-52.986890378397995L-181.6904445015363,-50.77885568904026L-178.1708224849745,-51.77360659870138zM-179.38080878086157,-52.986890378397995L-182.90660080441884,-51.98897699565253L-181.6904445015363,-50.77885568904026z" style="fill:rgb(140,16,189)"/><path d="M-184.61621757966648,-50.47925483017503L-184.17502365386662,-52.04104107038802L-176.84655547965605,-91.39713531298584z" style="fill:rgb(247,158,158)"/><path d="M-188.18493437429368,-49.470135259092714L-184.61621757966648,-50.47925483017503L-176.95777960280404,-91.57388202037544z" style="fill:rgb(83,212,212)"/><path d="M158.5156894687715,-67.51072884087876L182.64788580609823,77.39707275271158L159.4179404190243,-64.86032980593518z" style="fill:rgb(247,158,158)"/><path d="M-180.5646969536756,-53.75783202017902L-182.90660080441884,-51.98897699565253L-179.38080878086157,-52.986890378397995zM-180.5646969536756,-53.75783202017902L-184.09741080738578,-52.756943841436374L-182.90660080441884,-51.98897699565253z" style="fill:rgb(148,8,167)"/><path d="M-181.67719167945125,-54.05405376830034L-184.09741080738578,-52.756943841436374L-180.5646969536756,-53.75783202017902z" style="fill:rgb(155,4,143)"/><path d="M-129.57198515985004,156.10591304255558L-133.1761768622748,156.92064536099997L-122.08380338259379,171.58290374119483z" style="fill:rgb(127,37,217)"/><path d="M-181.67719167945125,-54.05405376830034L-185.21730017739398,-53.05051049428433L-184.09741080738578,-52.756943841436374z" style="fill:rgb(155,4,143)"/><path d="M185.90702148322035,73.78290844181251L171.38721189418015,-70.90550567452001L162.18524115828887,-68.47854755842198z" style="fill:rgb(83,212,212)"/><path d="M0.3245450432758777,-25.788834561123956L0.3699332196453678,116.20649431429233L1.773935047238671,118.63171421801151zM172.26136364560898,-68.23887560227598L171.38721189418015,-70.90550567452001L196.51774987187957,71.35673755041954z" style="fill:rgb(247,158,158)"/><path d="M-169.3787374678227,-70.02019081379603L-190.32864593087473,71.26984128872996L-165.98766458917683,-70.99240133839156z" style="fill:rgb(83,212,212)"/><path d="M-182.67508982637537,-53.86082895021558L-185.21730017739398,-53.05051049428433L-181.67719167945125,-54.05405376830034zM-182.67508982637537,-53.86082895021558L-186.22280602886465,-52.855057592449L-185.21730017739398,-53.05051049428433z" style="fill:rgb(161,4,119)"/><path d="M185.91374240767334,66.43795513223981L189.89142087719972,65.5215482308838L176.92457069487892,-10.045911758952121z" style="fill:rgb(83,212,212)"/><path d="M171.61129153741757,-29.041808488523795L195.69483441524045,112.99050644476976L196.58999603567628,115.43260166675186zM184.88815529579412,-29.720304497808424L209.99325735892631,109.8608247050055L210.85369657369452,112.31937766082015z" style="fill:rgb(247,158,158)"/><path d="M-137.3464352449574,147.6957325087625L-141.04008379214565,151.18966323168985L-135.6414049221115,149.9589002628911zM-137.3464352449574,147.6957325087625L-142.7564496105799,148.9327372980673L-141.04008379214565,151.18966323168985z" style="fill:rgb(127,37,217)"/><path d="M199.7702889387326,112.09846054739549L209.99325735892631,109.8608247050055L184.07369855826755,-32.20482998547079z" style="fill:rgb(83,212,212)"/><path d="M196.18189381826866,102.18080416741056L200.65557945707243,114.54523355781521L175.99780038696915,-27.469539587419z" style="fill:rgb(247,158,158)"/><path d="M0.3709708378486226,119.45263884536992L39.561688558829125,110.52301237025645L34.483442893791626,-37.30458502859602z" style="fill:rgb(83,212,212)"/><path d="M59.83513206033679,148.53908966651804L20.7403660042173,154.5146778362752L22.043387061802967,156.7575739199596z" style="fill:rgb(127,37,217)"/><path d="M35.64398946249183,-34.80835500607431L39.561688558829125,110.52301237025645L40.87921477755231,112.99358841608402z" style="fill:rgb(247,158,158)"/><path d="M59.83513206033679,148.53908966651804L58.61667438995343,146.2542684709214L20.7403660042173,154.5146778362752z" style="fill:rgb(127,37,217)"/><path d="M-108.73753797222604,144.31308813361926L-71.4444548043784,132.62705634700654L-108.44157313094789,141.08654949618975z" style="fill:rgb(83,212,212)"/><path d="M0.3699332196453678,116.20649431429233L-133.73142742512923,146.86914250921615L-132.03398590771047,149.13650277389124zM-70.07243323303106,138.1987854417663L-108.73753797222604,144.31308813361926L-107.08841640559666,146.60780526106342z" style="fill:rgb(127,37,217)"/><path d="M-108.73753797222604,144.31308813361926L-71.64128195462855,135.86067513949033L-71.4444548043784,132.62705634700654z" style="fill:rgb(83,212,212)"/><path d="M195.69483441524045,112.99050644476976L58.45747415362105,143.02942970247366L59.67303615586204,145.3162587890271zM-70.07243323303106,138.1987854417663L-71.64128195462855,135.86067513949033L-108.73753797222604,144.31308813361926z" style="fill:rgb(127,37,217)"/><path d="M-71.64128195462855,135.86067513949033L-69.88041197943521,134.96707431335957L-71.4444548043784,132.62705634700654zM-71.64128195462855,135.86067513949033L-70.07243323303106,138.1987854417663L-69.88041197943521,134.96707431335957z" style="fill:rgb(247,158,158)"/><path d="M189.89142087719972,65.5215482308838L185.91374240767334,66.43795513223981L186.18839076643272,68.25804455259792zM189.89142087719972,65.5215482308838L186.18839076643272,68.25804455259792L190.17411011068342,67.34155861343748z" style="fill:rgb(84,220,202)"/><path d="M190.17411011068342,67.34155861343748L186.18839076643272,68.25804455259792L186.3374951806234,69.69252545556715zM190.17411011068342,67.34155861343748L186.3374951806234,69.69252545556715L190.33219402452013,68.77536088543275z" style="fill:rgb(85,234,182)"/><path d="M190.33219402452013,68.77536088543275L186.3374951806234,69.69252545556715L186.3545723236311,70.68447494792278z" style="fill:rgb(89,244,159)"/><path d="M0.3699332196453678,116.20649431429233L-132.03398590771047,149.13650277389124L1.773935047238671,118.63171421801151z" style="fill:rgb(127,37,217)"/><path d="M-218.03333500390806,34.263534879124705L-177.41776911241274,-89.1056111400545L-189.2262244913834,-107.81839594721433z" style="fill:rgb(247,158,158)"/><path d="M190.33219402452013,68.77536088543275L186.3545723236311,70.68447494792278L190.35885425479734,69.76604706059364z" style="fill:rgb(89,244,159)"/><path d="M39.4499645693262,107.27072733832898L181.6775795265898,74.74998050073913L158.5156894687715,-67.51072884087876z" style="fill:rgb(83,212,212)"/><path d="M190.35885425479734,69.76604706059364L186.3545723236311,70.68447494792278L186.23801157582804,71.19285284563075z" style="fill:rgb(93,250,135)"/><path d="M-190.32864593087473,71.26984128872996L-132.8187740628715,153.70549902757267L-129.22393554891437,152.88999201726625z" style="fill:rgb(127,37,217)"/><path d="M190.35885425479734,69.76604706059364L186.23801157582804,71.19285284563075L190.25211757032423,70.27263365601048z" style="fill:rgb(93,250,135)"/><path d="M195.69483441524045,112.99050644476976L59.67303615586204,145.3162587890271L196.58999603567628,115.43260166675186z" style="fill:rgb(127,37,217)"/><path d="M-192.70846603102993,-106.78079260793145L-218.03333500390806,34.263534879124705L-189.2262244913834,-107.81839594721433zM132.12001361324988,130.22400473855623L171.629053693028,118.25809166647589L131.7547743175504,126.98589859536474z" style="fill:rgb(83,212,212)"/><path d="M173.0638149415156,123.9155036464383L132.12001361324988,130.22400473855623L133.16930081651026,132.59127112020093z" style="fill:rgb(127,37,217)"/><path d="M189.00339306545828,84.09135588593453L190.578914533012,88.43787684872707L165.61140545193282,-59.543678105382035zM196.12381047910844,102.02027349055003L189.89142087719972,65.5215482308838L190.17411011068342,67.34155861343748z" style="fill:rgb(247,158,158)"/><path d="M164.1442221925898,-63.9046077542685L184.78939489576888,85.04394163139031L189.00339306545828,84.09135588593453z" style="fill:rgb(83,212,212)"/><path d="M195.951687563348,101.54454920276326L190.17411011068342,67.34155861343748L190.33219402452013,68.77536088543275zM137.44836548853436,-122.61261392871104L132.08317035649134,-159.1999400809267L131.88528416981762,-159.78812524721639z" style="fill:rgb(247,158,158)"/><path d="M132.12001361324988,130.22400473855623L172.10938222403706,121.50277097592527L171.629053693028,118.25809166647589z" style="fill:rgb(83,212,212)"/><path d="M173.0638149415156,123.9155036464383L172.10938222403706,121.50277097592527L132.12001361324988,130.22400473855623z" style="fill:rgb(127,37,217)"/><path d="M136.89144162547802,-125.09207107826568L131.88528416981762,-159.78812524721639L131.56351072938125,-160.7445244315192zM137.89865323897834,-120.37007269488524L132.14994797141517,-159.00145778804043L132.08317035649134,-159.1999400809267zM136.24874508055285,-127.71617741418312L131.56351072938125,-160.7445244315192L131.1296707408817,-162.03403215098922zM195.6718019561643,100.77097701424772L190.33219402452013,68.77536088543275L190.35885425479734,69.76604706059364zM172.10938222403706,121.50277097592527L172.58208584207463,120.67259371388636L171.629053693028,118.25809166647589zM135.54410634418667,-130.38785093437014L131.1296707408817,-162.03403215098922L130.5997836288717,-163.60904180351474zM172.10938222403706,121.50277097592527L173.0638149415156,123.9155036464383L172.58208584207463,120.67259371388636zM134.80352008144595,-133.00836593876932L130.5997836288717,-163.60904180351474L129.99353405178098,-165.41099451792095zM158.5156894687715,-67.51072884087876L181.6775795265898,74.74998050073913L182.64788580609823,77.39707275271158zM195.29439011013824,99.72790718952398L190.35885425479734,69.76604706059364L190.25211757032423,70.27263365601048zM134.0543482858685,-135.48059345948303L129.99353405178098,-165.41099451792095L129.33365793990788,-167.3723423808488zM194.83340171859916,98.45379625086245L190.25211757032423,70.27263365601048L190.0151445134887,70.27205894119271zM133.32441399841107,-137.71215329960765L129.33365793990788,-167.3723423808488L128.6451408545594,-169.41884382483533zM172.26136364560898,-68.23887560227598L196.51774987187957,71.35673755041954L197.45067718316335,74.0224184715143z" style="fill:rgb(247,158,158)"/><path d="M190.53173164836366,98.90503423017013L189.89993278978278,70.10793190743344L185.87319448172465,71.0312803014103z" style="fill:rgb(83,212,212)"/><path d="M194.66403336745665,97.98569530731982L190.0151445134887,70.27205894119271L189.89993278978278,70.10793190743344z" style="fill:rgb(247,158,158)"/><path d="M185.90702148322035,73.78290844181251L196.51774987187957,71.35673755041954L171.38721189418015,-70.90550567452001zM-169.3787374678227,-70.02019081379603L-194.19211160444456,72.24194506410076L-190.32864593087473,71.26984128872996z" style="fill:rgb(83,212,212)"/><path d="M132.6410405700702,-139.61859038975996L128.6451408545594,-169.41884382483533L127.9542784635185,-171.47228609139398z" style="fill:rgb(247,158,158)"/><path d="M40.87921477755231,112.99358841608402L0.3709708378486226,119.45263884536992L1.7788976443413809,121.87612204826365zM209.99325735892631,109.8608247050055L200.65557945707243,114.54523355781521L210.85369657369452,112.31937766082015zM209.99325735892631,109.8608247050055L199.7702889387326,112.09846054739549L200.65557945707243,114.54523355781521z" style="fill:rgb(127,37,217)"/><path d="M196.12381047910844,102.02027349055003L196.18189381826866,102.18080416741056L189.89142087719972,65.5215482308838z" style="fill:rgb(247,158,158)"/><path d="M-182.30835546566152,24.39479988899951L-186.01687185005207,25.370963602574992L-186.47924633672113,27.149366134140607z" style="fill:rgb(84,220,202)"/><path d="M194.86227964092578,100.25468677329337L189.89993278978278,70.10793190743344L189.65613596535454,69.76061973717121zM195.951687563348,101.54454920276326L196.12381047910844,102.02027349055003L190.17411011068342,67.34155861343748z" style="fill:rgb(247,158,158)"/><path d="M-182.30835546566152,24.39479988899951L-186.47924633672113,27.149366134140607L-182.76375829873078,26.172961993509368z" style="fill:rgb(84,220,202)"/><path d="M132.0301729127164,-141.1264423371011L127.9542784635185,-171.47228609139398L127.2877523164192,-173.45339917465586zM195.6718019561643,100.77097701424772L195.951687563348,101.54454920276326L190.33219402452013,68.77536088543275z" style="fill:rgb(247,158,158)"/><path d="M-182.76375829873078,26.172961993509368L-186.47924633672113,27.149366134140607L-187.17085543952896,28.52263493002318z" style="fill:rgb(85,234,182)"/><path d="M194.2873880707064,98.66867718201215L189.65613596535454,69.76061973717121L189.18826321016908,68.75469759904712z" style="fill:rgb(247,158,158)"/><path d="M194.66403336745665,97.98569530731982L196.58999603567628,115.43260166675186L200.65557945707243,114.54523355781521z" style="fill:rgb(127,37,217)"/><path d="M-182.76375829873078,26.172961993509368L-187.17085543952896,28.52263493002318L-183.44759064755698,27.545342172872008z" style="fill:rgb(85,234,182)"/><path d="M131.51540487725524,-142.17605400606533L127.2877523164192,-173.45339917465586L126.67156073340303,-175.28492306403743zM195.29439011013824,99.72790718952398L195.6718019561643,100.77097701424772L190.35885425479734,69.76604706059364z" style="fill:rgb(247,158,158)"/><path d="M40.87921477755231,112.99358841608402L39.561688558829125,110.52301237025645L0.3709708378486226,119.45263884536992z" style="fill:rgb(127,37,217)"/><path d="M193.68745153519313,97.01359790742724L189.18826321016908,68.75469759904712L188.6291817170211,67.29060820872104z" style="fill:rgb(247,158,158)"/><path d="M-183.44759064755698,27.545342172872008L-187.17085543952896,28.52263493002318L-188.06698386320392,29.435985773138814z" style="fill:rgb(89,244,159)"/><path d="M131.11701648458535,-142.72408238529704L126.67156073340303,-175.28492306403743L126.1299234561529,-176.89483818831604zM194.83340171859916,98.45379625086245L195.29439011013824,99.72790718952398L190.25211757032423,70.27263365601048zM136.24874508055285,-127.71617741418312L136.89144162547802,-125.09207107826568L131.56351072938125,-160.7445244315192z" style="fill:rgb(247,158,158)"/><path d="M-183.44759064755698,27.545342172872008L-188.06698386320392,29.435985773138814L-184.3354911435802,28.457183591090402z" style="fill:rgb(89,244,159)"/><path d="M136.89144162547802,-125.09207107826568L137.44836548853436,-122.61261392871104L131.88528416981762,-159.78812524721639zM135.54410634418667,-130.38785093437014L136.24874508055285,-127.71617741418312L131.1296707408817,-162.03403215098922zM193.0854040646621,95.35269733931736L188.6291817170211,67.29060820872104L188.00047170328287,65.4236095561428zM137.44836548853436,-122.61261392871104L137.89865323897834,-120.37007269488524L132.08317035649134,-159.1999400809267zM194.66403336745665,97.98569530731982L194.83340171859916,98.45379625086245L190.0151445134887,70.27205894119271zM134.80352008144595,-133.00836593876932L135.54410634418667,-130.38785093437014L130.5997836288717,-163.60904180351474z" style="fill:rgb(247,158,158)"/><path d="M190.53173164836366,98.90503423017013L194.66403336745665,97.98569530731982L189.89993278978278,70.10793190743344z" style="fill:rgb(83,212,212)"/><path d="M130.8512058598019,-142.74566085856767L126.1299234561529,-176.89483818831604L125.68434314560928,-178.2192313526706zM153.67980012962636,-15.287354971523934L164.56045746541827,-61.42660313302331L132.51395997529252,-156.57163494481978z" style="fill:rgb(247,158,158)"/><path d="M-184.3354911435802,28.457183591090402L-188.06698386320392,29.435985773138814L-189.13491808301578,29.851199047292532z" style="fill:rgb(93,250,135)"/><path d="M137.89865323897834,-120.37007269488524L138.22515648843734,-118.44878650245907L132.14994797141517,-159.00145778804043zM192.5045039175701,93.75010058980013L188.00047170328287,65.4236095561428L187.3267673785817,63.225927561878585zM134.0543482858685,-135.48059345948303L134.80352008144595,-133.00836593876932L129.99353405178098,-165.41099451792095z" style="fill:rgb(247,158,158)"/><path d="M-184.3354911435802,28.457183591090402L-189.13491808301578,29.851199047292532L-185.39499594763709,28.870316730547227z" style="fill:rgb(93,250,135)"/><path d="M190.578914533012,88.43787684872707L184.22233655057448,50.57815810060773L183.8281047810818,48.426063053210996zM130.72927030486346,-142.2359115272385L125.68434314560928,-178.2192313526706L125.35261627279898,-179.20521434771348zM191.96739090553913,92.26833386003521L187.3267673785817,63.225927561878585L186.63471238444205,60.783934405865z" style="fill:rgb(247,158,158)"/><path d="M194.66403336745665,97.98569530731982L190.53173164836366,98.90503423017013L196.58999603567628,115.43260166675186z" style="fill:rgb(127,37,217)"/><path d="M190.63917783664684,88.60412312743844L184.7212930837739,52.98805388415004L184.22233655057448,50.57815810060773zM133.32441399841107,-137.71215329960765L134.0543482858685,-135.48059345948303L129.33365793990788,-167.3723423808488zM194.86227964092578,100.25468677329337L195.2208254041,101.2438377116604L189.89993278978278,70.10793190743344zM191.4952105831841,90.9657339545418L186.63471238444205,60.783934405865L185.95185907734114,58.19451297492836zM130.75705058189712,-141.21070204689346L125.35261627279898,-179.20521434771348L125.14807965006972,-179.81318838589533zM190.81753959353887,89.09613956191583L185.3054866594105,55.56088933390865L184.7212930837739,52.98805388415004zM191.1067559484152,89.89404169743457L185.95185907734114,58.19451297492836L185.3054866594105,55.56088933390865z" style="fill:rgb(247,158,158)"/><path d="M126.75906282603408,-138.5259871949914L125.07896649586206,-180.01860178807922L121.09568682945367,-178.85217865643864z" style="fill:rgb(83,212,212)"/><path d="M130.93448398988653,-139.70666837674787L125.14807965006972,-179.81318838589533L125.07896649586206,-180.01860178807922zM194.2873880707064,98.66867718201215L194.86227964092578,100.25468677329337L189.65613596535454,69.76061973717121zM132.6410405700702,-139.61859038975996L133.32441399841107,-137.71215329960765L128.6451408545594,-169.41884382483533zM193.68745153519313,97.01359790742724L194.2873880707064,98.66867718201215L189.18826321016908,68.75469759904712zM132.0301729127164,-141.1264423371011L132.6410405700702,-139.61859038975996L127.9542784635185,-171.47228609139398z" style="fill:rgb(247,158,158)"/><path d="M-190.32864593087473,71.26984128872996L-194.19211160444456,72.24194506410076L-132.8187740628715,153.70549902757267z" style="fill:rgb(127,37,217)"/><path d="M193.0854040646621,95.35269733931736L193.68745153519313,97.01359790742724L188.6291817170211,67.29060820872104zM131.51540487725524,-142.17605400606533L132.0301729127164,-141.1264423371011L127.2877523164192,-173.45339917465586z" style="fill:rgb(247,158,158)"/><path d="M181.6775795265898,74.74998050073913L39.4499645693262,107.27072733832898L40.76407552257219,109.74296151532414z" style="fill:rgb(127,37,217)"/><path d="M192.5045039175701,93.75010058980013L193.0854040646621,95.35269733931736L188.00047170328287,65.4236095561428zM-191.01719275194492,74.37072742014509L-182.30835546566152,24.39479988899951L-182.76375829873078,26.172961993509368zM131.11701648458535,-142.72408238529704L131.51540487725524,-142.17605400606533L126.67156073340303,-175.28492306403743zM191.96739090553913,92.26833386003521L192.5045039175701,93.75010058980013L187.3267673785817,63.225927561878585z" style="fill:rgb(247,158,158)"/><path d="M136.24874508055285,-127.71617741418312L132.1600727331582,-126.57322609804473L132.80078927832028,-123.95130834299867z" style="fill:rgb(93,135,250)"/><path d="M135.54410634418667,-130.38785093437014L131.45541055723936,-129.24208072900885L132.1600727331582,-126.57322609804473z" style="fill:rgb(99,111,250)"/><path d="M-191.39859134431708,73.8633810136801L-182.76375829873078,26.172961993509368L-183.44759064755698,27.545342172872008z" style="fill:rgb(247,158,158)"/><path d="M135.54410634418667,-130.38785093437014L132.1600727331582,-126.57322609804473L136.24874508055285,-127.71617741418312z" style="fill:rgb(99,111,250)"/><path d="M136.24874508055285,-127.71617741418312L132.80078927832028,-123.95130834299867L136.89144162547802,-125.09207107826568z" style="fill:rgb(93,135,250)"/><path d="M136.89144162547802,-125.09207107826568L132.80078927832028,-123.95130834299867L133.35380946530316,-121.4733410457275z" style="fill:rgb(89,159,244)"/><path d="M134.80352008144595,-133.00836593876932L130.71283002798137,-131.85927830910538L131.45541055723936,-129.24208072900885zM134.80352008144595,-133.00836593876932L131.45541055723936,-129.24208072900885L135.54410634418667,-130.38785093437014z" style="fill:rgb(106,87,246)"/><path d="M191.4952105831841,90.9657339545418L191.96739090553913,92.26833386003521L186.63471238444205,60.783934405865z" style="fill:rgb(247,158,158)"/><path d="M136.89144162547802,-125.09207107826568L133.35380946530316,-121.4733410457275L137.44836548853436,-122.61261392871104z" style="fill:rgb(89,159,244)"/><path d="M130.8512058598019,-142.74566085856767L131.11701648458535,-142.72408238529704L126.1299234561529,-176.89483818831604z" style="fill:rgb(247,158,158)"/><path d="M134.0543482858685,-135.48059345948303L130.71283002798137,-131.85927830910538L134.80352008144595,-133.00836593876932z" style="fill:rgb(114,65,238)"/><path d="M137.44836548853436,-122.61261392871104L133.35380946530316,-121.4733410457275L133.7984093372718,-119.23153699637626z" style="fill:rgb(85,182,234)"/><path d="M134.0543482858685,-135.48059345948303L129.959730389916,-134.32777445688788L130.71283002798137,-131.85927830910538z" style="fill:rgb(114,65,238)"/><path d="M191.1067559484152,89.89404169743457L191.4952105831841,90.9657339545418L185.95185907734114,58.19451297492836zM-192.01882466619688,73.03835898556557L-183.44759064755698,27.545342172872008L-184.3354911435802,28.457183591090402z" style="fill:rgb(247,158,158)"/><path d="M137.44836548853436,-122.61261392871104L133.7984093372718,-119.23153699637626L137.89865323897834,-120.37007269488524z" style="fill:rgb(85,182,234)"/><path d="M190.81753959353887,89.09613956191583L191.1067559484152,89.89404169743457L185.3054866594105,55.56088933390865zM190.578914533012,88.43787684872707L190.63917783664684,88.60412312743844L184.22233655057448,50.57815810060773zM190.63917783664684,88.60412312743844L190.81753959353887,89.09613956191583L184.7212930837739,52.98805388415004z" style="fill:rgb(247,158,158)"/><path d="M133.32441399841107,-137.71215329960765L129.959730389916,-134.32777445688788L134.0543482858685,-135.48059345948303z" style="fill:rgb(123,46,225)"/><path d="M137.89865323897834,-120.37007269488524L133.7984093372718,-119.23153699637626L134.1176466137671,-117.31020805767218z" style="fill:rgb(84,202,220)"/><path d="M133.32441399841107,-137.71215329960765L129.22407709380045,-136.55533643489863L129.959730389916,-134.32777445688788z" style="fill:rgb(123,46,225)"/><path d="M130.72927030486346,-142.2359115272385L130.8512058598019,-142.74566085856767L125.68434314560928,-178.2192313526706z" style="fill:rgb(247,158,158)"/><path d="M137.89865323897834,-120.37007269488524L134.1176466137671,-117.31020805767218L138.22515648843734,-118.44878650245907z" style="fill:rgb(84,202,220)"/><path d="M-192.85515955819236,71.92583801327173L-184.3354911435802,28.457183591090402L-185.39499594763709,28.870316730547227z" style="fill:rgb(247,158,158)"/><path d="M132.6410405700702,-139.61859038975996L129.22407709380045,-136.55533643489863L133.32441399841107,-137.71215329960765zM132.6410405700702,-139.61859038975996L128.53343060520564,-138.45765524536424L129.22407709380045,-136.55533643489863z" style="fill:rgb(131,29,208)"/><path d="M130.75705058189712,-141.21070204689346L130.72927030486346,-142.2359115272385L125.35261627279898,-179.20521434771348z" style="fill:rgb(247,158,158)"/><path d="M189.00339306545828,84.09135588593453L191.07617069589296,102.1626088167324L195.2208254041,101.2438377116604z" style="fill:rgb(127,37,217)"/><path d="M-193.87686466020304,70.5667717099152L-185.39499594763709,28.870316730547227L-186.58667938726197,28.765090051020028zM-218.03333500390806,34.263534879124705L-203.92176592284702,53.112944224312976L-177.41776911241274,-89.1056111400545zM153.67980012962636,-15.287354971523934L188.4545300382708,80.82376852228127L164.56045746541827,-61.42660313302331z" style="fill:rgb(247,158,158)"/><path d="M132.0301729127164,-141.1264423371011L128.53343060520564,-138.45765524536424L132.6410405700702,-139.61859038975996zM132.0301729127164,-141.1264423371011L127.91396907772581,-139.96142339889718L128.53343060520564,-138.45765524536424z" style="fill:rgb(140,16,189)"/><path d="M130.93448398988653,-139.70666837674787L130.75705058189712,-141.21070204689346L125.14807965006972,-179.81318838589533z" style="fill:rgb(247,158,158)"/><path d="M126.75906282603408,-138.5259871949914L130.93448398988653,-139.70666837674787L125.07896649586206,-180.01860178807922z" style="fill:rgb(83,212,212)"/><path d="M-195.04600831604566,69.01156904937709L-186.58667938726197,28.765090051020028L-187.86530222890235,28.14169739006173z" style="fill:rgb(247,158,158)"/><path d="M181.6775795265898,74.74998050073913L40.76407552257219,109.74296151532414L182.64788580609823,77.39707275271158z" style="fill:rgb(127,37,217)"/><path d="M131.51540487725524,-142.17605400606533L127.91396907772581,-139.96142339889718L132.0301729127164,-141.1264423371011zM131.51540487725524,-142.17605400606533L127.3896004052931,-141.00712911108496L127.91396907772581,-139.96142339889718z" style="fill:rgb(148,8,167)"/><path d="M115.6982071402536,93.17525766656333L156.70932674179105,80.45904535021461L115.36539983157877,89.9124475889419z" style="fill:rgb(83,212,212)"/><path d="M158.20021558618416,86.34145869393049L115.6982071402536,93.17525766656333L116.83442484219398,95.73863461111743z" style="fill:rgb(127,37,217)"/><path d="M-196.31883874740922,67.31842534329775L-187.86530222890235,28.14169739006173L-189.1815766395475,27.020748831371765z" style="fill:rgb(247,158,158)"/><path d="M131.11701648458535,-142.72408238529704L127.3896004052931,-141.00712911108496L131.51540487725524,-142.17605400606533z" style="fill:rgb(155,4,143)"/><path d="M189.00339306545828,84.09135588593453L184.78939489576888,85.04394163139031L191.07617069589296,102.1626088167324z" style="fill:rgb(127,37,217)"/><path d="M131.11701648458535,-142.72408238529704L126.9809972620819,-141.55160659823608L127.3896004052931,-141.00712911108496z" style="fill:rgb(155,4,143)"/><path d="M-197.64725989781795,65.55134425254353L-189.1815766395475,27.020748831371765L-190.48404517393908,25.443017826079835zM-191.01719275194492,74.37072742014509L-190.88849596405785,74.54191648312896L-182.30835546566152,24.39479988899951z" style="fill:rgb(247,158,158)"/><path d="M130.8512058598019,-142.74566085856767L126.9809972620819,-141.55160659823608L131.11701648458535,-142.72408238529704z" style="fill:rgb(161,4,119)"/><path d="M-191.39859134431708,73.8633810136801L-191.01719275194492,74.37072742014509L-182.76375829873078,26.172961993509368z" style="fill:rgb(247,158,158)"/><path d="M128.58137952419463,-155.4441815318196L153.67980012962636,-15.287354971523934L132.51395997529252,-156.57163494481978z" style="fill:rgb(83,212,212)"/><path d="M-198.98048663211358,63.777846656503755L-190.48404517393908,25.443017826079835L-191.72112772659585,23.468235444012436z" style="fill:rgb(247,158,158)"/><path d="M115.6982071402536,93.17525766656333L157.16590828047254,83.72681463136988L156.70932674179105,80.45904535021461z" style="fill:rgb(83,212,212)"/><path d="M130.8512058598019,-142.74566085856767L126.70470938631783,-141.57012909179755L126.9809972620819,-141.55160659823608z" style="fill:rgb(161,4,119)"/><path d="M158.20021558618416,86.34145869393049L157.16590828047254,83.72681463136988L115.6982071402536,93.17525766656333z" style="fill:rgb(127,37,217)"/><path d="M-208.46579253481312,57.40049548111921L-195.17476562394498,6.177160186244546L-198.93706961626629,7.188587152103726z" style="fill:rgb(83,212,212)"/><path d="M-192.01882466619688,73.03835898556557L-191.39859134431708,73.8633810136801L-183.44759064755698,27.545342172872008zM-200.26708908528695,62.06641457733235L-191.72112772659585,23.468235444012436L-192.84346444823163,21.17294561471598zM157.16590828047254,83.72681463136988L157.7418802443257,83.07500889907703L156.70932674179105,80.45904535021461zM157.16590828047254,83.72681463136988L158.20021558618416,86.34145869393049L157.7418802443257,83.07500889907703zM-204.5328596516086,56.39202956069809L-195.41228507365858,8.306456133073906L-195.17476562394498,6.177160186244546zM-192.85515955819236,71.92583801327173L-192.01882466619688,73.03835898556557L-184.3354911435802,28.457183591090402zM-201.45680855684034,60.48384000642343L-192.84346444823163,21.17294561471598L-193.8059244130272,18.647480611600994z" style="fill:rgb(247,158,158)"/><path d="M-192.70846603102993,-106.78079260793145L-222.01518821365102,35.31116307538025L-218.03333500390806,34.263534879124705z" style="fill:rgb(83,212,212)"/><path d="M-204.3993363054411,56.56964241463651L-195.38887905164748,10.716656792194131L-195.41228507365858,8.306456133073906zM-202.50276428874562,59.09248569096222L-193.8059244130272,18.647480611600994L-194.569787226361,15.9921602805058zM-204.00418607082293,57.09527974497781L-195.10446295762299,13.31292521929411L-195.38887905164748,10.716656792194131zM-203.3633737141944,57.947675933388275L-194.569787226361,15.9921602805058L-195.10446295762299,13.31292521929411zM-193.87686466020304,70.5667717099152L-192.85515955819236,71.92583801327173L-185.39499594763709,28.870316730547227zM-195.04600831604566,69.01156904937709L-193.87686466020304,70.5667717099152L-186.58667938726197,28.765090051020028zM-196.31883874740922,67.31842534329775L-195.04600831604566,69.01156904937709L-187.86530222890235,28.14169739006173z" style="fill:rgb(247,158,158)"/><path d="M196.51774987187957,71.35673755041954L186.86670376075205,76.43529184401196L197.45067718316335,74.0224184715143zM196.51774987187957,71.35673755041954L185.90702148322035,73.78290844181251L186.86670376075205,76.43529184401196z" style="fill:rgb(127,37,217)"/><path d="M-197.64725989781795,65.55134425254353L-196.31883874740922,67.31842534329775L-189.1815766395475,27.020748831371765zM-198.98048663211358,63.777846656503755L-197.64725989781795,65.55134425254353L-190.48404517393908,25.443017826079835zM-200.26708908528695,62.06641457733235L-198.98048663211358,63.777846656503755L-191.72112772659585,23.468235444012436zM-201.45680855684034,60.48384000642343L-200.26708908528695,62.06641457733235L-192.84346444823163,21.17294561471598zM-202.50276428874562,59.09248569096222L-201.45680855684034,60.48384000642343L-193.8059244130272,18.647480611600994z" style="fill:rgb(247,158,158)"/><path d="M-208.46579253481312,57.40049548111921L-204.5328596516086,56.39202956069809L-195.17476562394498,6.177160186244546z" style="fill:rgb(83,212,212)"/><path d="M-203.3633737141944,57.947675933388275L-202.50276428874562,59.09248569096222L-194.569787226361,15.9921602805058zM-204.00418607082293,57.09527974497781L-203.3633737141944,57.947675933388275L-195.10446295762299,13.31292521929411zM-204.5328596516086,56.39202956069809L-204.3993363054411,56.56964241463651L-195.41228507365858,8.306456133073906zM-204.3993363054411,56.56964241463651L-204.00418607082293,57.09527974497781L-195.38887905164748,10.716656792194131z" style="fill:rgb(247,158,158)"/><path d="M-204.5328596516086,56.39202956069809L-194.7627530373283,75.51358930335871L-190.88849596405785,74.54191648312896zM-204.5328596516086,56.39202956069809L-208.46579253481312,57.40049548111921L-194.7627530373283,75.51358930335871z" style="fill:rgb(127,37,217)"/><path d="M137.74050392873923,-59.340727069523474L125.42954979230112,-177.6050310184104L118.09195297154797,-199.39012902610207z" style="fill:rgb(247,158,158)"/><path d="M153.67980012962636,-15.287354971523934L184.25330160808468,81.77682684934247L188.4545300382708,80.82376852228127zM-218.03333500390806,34.263534879124705L-207.84358386104904,54.12175246494157L-203.92176592284702,53.112944224312976z" style="fill:rgb(127,37,217)"/><path d="M114.0330106612643,-198.18067896777032L137.74050392873923,-59.340727069523474L118.09195297154797,-199.39012902610207z" style="fill:rgb(83,212,212)"/><path d="M-218.03333500390806,34.263534879124705L-222.01518821365102,35.31116307538025L-207.84358386104904,54.12175246494157z" style="fill:rgb(127,37,217)"/><path d="M128.58137952419463,-155.4441815318196L149.09667702705266,-14.134178170207289L153.67980012962636,-15.287354971523934z" style="fill:rgb(83,212,212)"/><path d="M146.65256085835105,-62.19494827290851L142.28610736894206,-61.04559820264263L142.49617690001915,-59.303000530285026zM146.65256085835105,-62.19494827290851L142.49617690001915,-59.303000530285026L146.87232739930482,-60.45302485681371z" style="fill:rgb(84,220,202)"/><path d="M146.87232739930482,-60.45302485681371L142.49617690001915,-59.303000530285026L142.55421002696815,-58.02493042230626zM146.87232739930482,-60.45302485681371L142.55421002696815,-58.02493042230626L146.94119027616932,-59.17644057569605z" style="fill:rgb(85,234,182)"/><path d="M146.94119027616932,-59.17644057569605L142.55421002696815,-58.02493042230626L142.45688592181867,-57.2631682183113zM146.94119027616932,-59.17644057569605L142.45688592181867,-57.2631682183113L146.85542578741922,-58.41693953030683z" style="fill:rgb(89,244,159)"/><path d="M146.85542578741922,-58.41693953030683L142.45688592181867,-57.2631682183113L142.20670464727985,-57.05085489130998zM146.85542578741922,-58.41693953030683L142.20670464727985,-57.05085489130998L146.61709725033202,-58.207586581941094z" style="fill:rgb(93,250,135)"/><path d="M153.67980012962636,-15.287354971523934L149.09667702705266,-14.134178170207289L184.25330160808468,81.77682684934247z" style="fill:rgb(127,37,217)"/><path d="M154.09864564316183,-12.203039988676709L146.65256085835105,-62.19494827290851L146.87232739930482,-60.45302485681371zM153.8803391329836,-12.805309626700451L146.87232739930482,-60.45302485681371L146.94119027616932,-59.17644057569605zM153.5252859726083,-13.78481115702404L146.94119027616932,-59.17644057569605L146.85542578741922,-58.41693953030683zM153.04642736216968,-15.105875186917652L146.85542578741922,-58.41693953030683L146.61709725033202,-58.207586581941094zM152.46132246341318,-16.720071712268165L146.61709725033202,-58.207586581941094L146.2341328340197,-58.56093225376514zM137.74050392873923,-59.340727069523474L145.87286732147103,-36.8643264969611L125.42954979230112,-177.6050310184104zM151.79158185261088,-18.567730881647194L146.2341328340197,-58.56093225376514L145.7201902221418,-59.46785964446654zM151.06221891560935,-20.579869188319634L145.7201902221418,-59.46785964446654L145.09434824601027,-60.89724208122557zM150.3007747381201,-22.680541317099L145.09434824601027,-60.89724208122557L144.38045855976142,-62.79653501519718zM154.09864564316183,-12.203039988676709L154.17230521333812,-11.999833840448934L146.65256085835105,-62.19494827290851zM153.8803391329836,-12.805309626700451L154.09864564316183,-12.203039988676709L146.87232739930482,-60.45302485681371zM149.53630044061458,-24.78954094849547L144.38045855976142,-62.79653501519718L143.60622667401518,-65.09343223548792z" style="fill:rgb(247,158,158)"/><path d="M141.66624606335373,-32.379056101690935L139.07277451081853,-83.67913094787373L134.6294627841906,-82.48463017483787z" style="fill:rgb(83,212,212)"/><path d="M153.5252859726083,-13.78481115702404L153.8803391329836,-12.805309626700451L146.94119027616932,-59.17644057569605zM148.7983427927977,-26.825388541460363L143.60622667401518,-65.09343223548792L142.80218138063077,-67.69850957727547zM146.34992896360822,-33.580029369883384L139.4287332702655,-81.52979601049833L139.07277451081853,-83.67913094787373zM153.04642736216968,-15.105875186917652L153.5252859726083,-13.78481115702404L146.85542578741922,-58.41693953030683zM148.11574943196158,-28.708533990411926L142.80218138063077,-67.69850957727547L142.00034915715628,-70.508840756252zM146.4266089190186,-33.36849664435032L139.92093708657828,-79.03497229021042L139.4287332702655,-81.52979601049833z" style="fill:rgb(247,158,158)"/><path d="M114.0330106612643,-198.18067896777032L132.98465398084133,-58.08946601039823L137.74050392873923,-59.340727069523474z" style="fill:rgb(83,212,212)"/><path d="M147.51546046874432,-30.364593252543486L142.00034915715628,-70.508840756252L141.23280280492025,-73.41234864843157zM146.65350795628615,-32.7425101173299L140.53032052849753,-76.29280526689968L139.92093708657828,-79.03497229021042zM147.02142580344074,-31.72751951385761L141.23280280492025,-73.41234864843157L140.53032052849753,-76.29280526689968zM152.46132246341318,-16.720071712268165L153.04642736216968,-15.105875186917652L146.61709725033202,-58.207586581941094zM151.79158185261088,-18.567730881647194L152.46132246341318,-16.720071712268165L146.2341328340197,-58.56093225376514zM151.06221891560935,-20.579869188319634L151.79158185261088,-18.567730881647194L145.7201902221418,-59.46785964446654zM150.3007747381201,-22.680541317099L151.06221891560935,-20.579869188319634L145.09434824601027,-60.89724208122557zM149.53630044061458,-24.78954094849547L150.3007747381201,-22.680541317099L144.38045855976142,-62.79653501519718zM148.7983427927977,-26.825388541460363L149.53630044061458,-24.78954094849547L143.60622667401518,-65.09343223548792zM148.11574943196158,-28.708533990411926L148.7983427927977,-26.825388541460363L142.80218138063077,-67.69850957727547zM147.51546046874432,-30.364593252543486L148.11574943196158,-28.708533990411926L142.00034915715628,-70.508840756252z" style="fill:rgb(247,158,158)"/><path d="M141.66624606335373,-32.379056101690935L146.34992896360822,-33.580029369883384L139.07277451081853,-83.67913094787373z" style="fill:rgb(83,212,212)"/><path d="M147.02142580344074,-31.72751951385761L147.51546046874432,-30.364593252543486L141.23280280492025,-73.41234864843157zM146.65350795628615,-32.7425101173299L147.02142580344074,-31.72751951385761L140.53032052849753,-76.29280526689968zM146.34992896360822,-33.580029369883384L146.4266089190186,-33.36849664435032L139.4287332702655,-81.52979601049833zM146.4266089190186,-33.36849664435032L146.65350795628615,-32.7425101173299L139.92093708657828,-79.03497229021042z" style="fill:rgb(247,158,158)"/><path d="M146.34992896360822,-33.580029369883384L149.5739713043078,-10.846564929541781L154.17230521333812,-11.999833840448934zM146.34992896360822,-33.580029369883384L141.66624606335373,-32.379056101690935L149.5739713043078,-10.846564929541781zM137.74050392873923,-59.340727069523474L141.2049661543717,-35.66360686048084L145.87286732147103,-36.8643264969611zM137.74050392873923,-59.340727069523474L132.98465398084133,-58.08946601039823L141.2049661543717,-35.66360686048084z" style="fill:rgb(127,37,217)"/></svg>
