<?xml version="1.0" encoding="UTF-8"?>
<!-- Generated by jsxcad -->
<!DOCTYPE svg PUBLIC "-//W3C//DTD SVG 1.1 Tiny//EN" "http://www.w3.org/Graphics/SVG/1.1/DTD/svg11-tiny.dtd">
<svg viewBox="-250 -250 500 500" width="500" height="500" xmlns="http://www.w3.org/2000/svg"><path d="M18.50378294196473,147.53028020893925L16.301205071841235,6.040967532004327L-106.64679451601543,37.37696284891933z" style="fill:rgb(83,212,212)"/><path d="M16.301205071841235,6.040967532004327L19.814455419078335,149.79429489051319L17.46112658125351,8.351841670375347z" style="fill:rgb(247,158,158)"/><path d="M49.64694879815082,-2.457926034765152L16.301205071841235,6.040967532004327L18.50378294196473,147.53028020893925zM-145.63647144921796,145.14567281988002L-123.45833646166523,2.3365390488677775L-128.26006719821572,3.60849944407562z" style="fill:rgb(83,212,212)"/><path d="M-140.2074902321498,143.8981316195974L-121.98126287769178,4.663958291921076L-123.45833646166523,2.3365390488677775zM57.643645584198545,141.4983789702114L50.741344009320585,-0.10900598945963401L49.64694879815082,-2.457926034765152zM-141.5746860236175,136.39257674952572L-118.77955101227337,3.818054783922355L-124.5378117188796,-5.3070312533639425z" style="fill:rgb(247,158,158)"/><path d="M-145.22465499922924,137.23861939638806L-124.5378117188796,-5.3070312533639425L-127.76292041252208,-4.446191681870936zM-136.57976634637095,143.0645098982266L-1.7418653554580326,-29.905679677203835L-120.25063866676494,1.4868321595187253z" style="fill:rgb(83,212,212)"/><path d="M-141.5746860236175,136.39257674952572L-124.5378117188796,-5.3070312533639425L-134.64832818391903,-21.32911621094164z" style="fill:rgb(247,158,158)"/><path d="M-102.95082302856757,43.15153098400919L184.88815529579412,-29.720304497808424L128.27401643431637,-202.424095039711z" style="fill:rgb(127,37,217)"/><path d="M18.50378294196473,147.53028020893925L-106.64679451601543,37.37696284891933L-120.56366764426745,178.11498991070758zM-153.38949038828898,120.6110381809084L-134.64832818391903,-21.32911621094164L-137.91431533539574,-20.441735282020527zM208.54903606400765,105.73418334949734L182.7078511493575,-36.371415712827975L49.64694879815082,-2.457926034765152z" style="fill:rgb(83,212,212)"/><path d="M-1.7418653554580326,-29.905679677203835L-0.5701746898494411,114.58258394554083L-0.5001106241988956,-27.431770302751765z" style="fill:rgb(247,158,158)"/><path d="M32.618020569733964,-39.00747634740502L-1.7418653554580326,-29.905679677203835L-1.986539782935606,112.13599781505766z" style="fill:rgb(83,212,212)"/><path d="M127.90820418351522,-204.81585993474147L184.88815529579412,-29.720304497808424L184.4339131633724,-32.20514961251775zM16.301205071841235,6.040967532004327L18.50378294196473,147.53028020893925L19.814455419078335,149.79429489051319zM183.52863204278097,-33.86759285169384L182.7078511493575,-36.371415712827975L208.54903606400765,105.73418334949734zM38.5700097323035,105.61527368255375L33.79029113262629,-36.4914090393496L32.618020569733964,-39.00747634740502z" style="fill:rgb(247,158,158)"/><path d="M-102.95082302856757,43.15153098400919L128.27401643431637,-202.424095039711L-197.9200453741696,-105.22789049581323z" style="fill:rgb(127,37,217)"/><path d="M-140.2074902321498,143.8981316195974L-138.48794931594165,146.18055662247406L-121.98126287769178,4.663958291921076z" style="fill:rgb(247,158,158)"/><path d="M-145.63647144921796,145.14567281988002L-140.2074902321498,143.8981316195974L-123.45833646166523,2.3365390488677775z" style="fill:rgb(83,212,212)"/><path d="M-177.41312377757473,-43.89303552209665L-170.81493678200516,-78.6421395451901L-171.13950630804953,-79.15648859184867zM-177.69131806158782,-46.265230490583484L-171.13950630804953,-79.15648859184867L-171.66721437708392,-79.99275440141304zM-177.3697802192911,-41.70818873356604L-170.70540723486695,-78.46857207453104L-170.81493678200516,-78.6421395451901zM-178.193535617176,-48.73640993498556L-171.66721437708392,-79.99275440141304L-172.3786542119324,-81.12015065575062z" style="fill:rgb(247,158,158)"/><path d="M49.64694879815082,-2.457926034765152L18.50378294196473,147.53028020893925L56.4176864842013,139.19198927647025z" style="fill:rgb(83,212,212)"/><path d="M-141.5746860236175,136.39257674952572L-134.8678653463374,145.35116064156398L-118.77955101227337,3.818054783922355zM-178.90093489614165,-51.21493484865734L-172.3786542119324,-81.12015065575062L-173.24746182980445,-82.49695672054786zM-179.7874234145476,-53.608970726116574L-173.24746182980445,-82.49695672054786L-174.24129177687033,-84.07187813581508zM57.643645584198545,141.4983789702114L49.64694879815082,-2.457926034765152L56.4176864842013,139.19198927647025zM-180.82040311278584,-55.82946349853179L-174.24129177687033,-84.07187813581508L-175.3228088367299,-85.78575676348363zM-181.96187824622714,-57.79317262950896L-175.3228088367299,-85.78575676348363L-176.45105945399223,-87.57368146184757z" style="fill:rgb(247,158,158)"/><path d="M-145.22465499922924,137.23861939638806L-141.5746860236175,136.39257674952572L-124.5378117188796,-5.3070312533639425z" style="fill:rgb(83,212,212)"/><path d="M-183.16960457349614,-59.42550020268759L-176.45105945399223,-87.57368146184757L-177.58289374032086,-89.36728605328186z" style="fill:rgb(247,158,158)"/><path d="M37.244214709633916,103.12106883810894L157.00229968390968,-71.9563919494934L32.618020569733964,-39.00747634740502z" style="fill:rgb(83,212,212)"/><path d="M-184.39849731612773,-60.66327995699556L-177.58289374032086,-89.36728605328186L-178.67461859552438,-91.09735067506152zM-185.60218843978302,-61.457200097711684L-178.67461859552438,-91.09735067506152L-179.68372671136254,-92.69647270191227zM-178.193535617176,-48.73640993498556L-177.69131806158782,-46.265230490583484L-171.66721437708392,-79.99275440141304z" style="fill:rgb(247,158,158)"/><path d="M18.50378294196473,147.53028020893925L-120.56366764426745,178.11498991070758L-118.95756248524772,180.22690975088284z" style="fill:rgb(127,37,217)"/><path d="M-177.69131806158782,-46.265230490583484L-177.41312377757473,-43.89303552209665L-171.13950630804953,-79.15648859184867zM-178.90093489614165,-51.21493484865734L-178.193535617176,-48.73640993498556L-172.3786542119324,-81.12015065575062zM-186.73463571458657,-61.773992485585836L-179.68372671136254,-92.69647270191227L-180.57057424018697,-94.10183656234008zM-177.41312377757473,-43.89303552209665L-177.3697802192911,-41.70818873356604L-170.81493678200516,-78.6421395451901zM-179.7874234145476,-53.608970726116574L-178.90093489614165,-51.21493484865734L-173.24746182980445,-82.49695672054786zM-177.3697802192911,-41.70818873356604L-177.56373311807047,-39.7928468947204L-170.70540723486695,-78.46857207453104zM-187.75182791166736,-61.598099957803846L-180.57057424018697,-94.10183656234008L-181.30001641273483,-95.25779667845234zM-180.82040311278584,-55.82946349853179L-179.7874234145476,-53.608970726116574L-174.24129177687033,-84.07187813581508zM-181.96187824622714,-57.79317262950896L-180.82040311278584,-55.82946349853179L-175.3228088367299,-85.78575676348363zM-188.61363521520235,-60.93277685491625L-181.30001641273483,-95.25779667845234L-181.84300282204077,-96.11827413251523zM-189.285444433847,-59.800509071997624L-181.84300282204077,-96.11827413251523L-182.17780120245303,-96.64880627374406z" style="fill:rgb(247,158,158)"/><path d="M-193.3289616976989,-57.21913068915274L-182.29091569748934,-96.82804983508217L-185.74609027157928,-95.81018643064318z" style="fill:rgb(83,212,212)"/><path d="M-183.16960457349614,-59.42550020268759L-181.96187824622714,-57.79317262950896L-176.45105945399223,-87.57368146184757z" style="fill:rgb(247,158,158)"/><path d="M208.54903606400765,105.73418334949734L49.64694879815082,-2.457926034765152L56.4176864842013,139.19198927647025z" style="fill:rgb(83,212,212)"/><path d="M-189.7396657345777,-58.24263756782014L-182.17780120245303,-96.64880627374406L-182.29091569748934,-96.82804983508217zM-141.5746860236175,136.39257674952572L-134.64832818391903,-21.32911621094164L-153.38949038828898,120.6110381809084zM-184.39849731612773,-60.66327995699556L-183.16960457349614,-59.42550020268759L-177.58289374032086,-89.36728605328186zM-195.93129309358108,63.78615874564711L-134.64832818391903,-21.32911621094164L-170.70540723486695,-78.46857207453104zM-185.60218843978302,-61.457200097711684L-184.39849731612773,-60.66327995699556L-178.67461859552438,-91.09735067506152z" style="fill:rgb(247,158,158)"/><path d="M-136.57976634637095,143.0645098982266L-1.986539782935606,112.13599781505766L-1.7418653554580326,-29.905679677203835z" style="fill:rgb(83,212,212)"/><path d="M-178.193535617176,-48.73640993498556L-181.71965289366847,-47.74258042808237L-181.21898052070964,-45.27335269833706z" style="fill:rgb(93,135,250)"/><path d="M-178.90093489614165,-51.21493484865734L-182.4269712992846,-50.218691595131226L-181.71965289366847,-47.74258042808237z" style="fill:rgb(99,111,250)"/><path d="M-186.73463571458657,-61.773992485585836L-185.60218843978302,-61.457200097711684L-179.68372671136254,-92.69647270191227z" style="fill:rgb(247,158,158)"/><path d="M18.50378294196473,147.53028020893925L-118.95756248524772,180.22690975088284L19.814455419078335,149.79429489051319z" style="fill:rgb(127,37,217)"/><path d="M-178.90093489614165,-51.21493484865734L-181.71965289366847,-47.74258042808237L-178.193535617176,-48.73640993498556z" style="fill:rgb(99,111,250)"/><path d="M-178.193535617176,-48.73640993498556L-181.21898052070964,-45.27335269833706L-177.69131806158782,-46.265230490583484z" style="fill:rgb(93,135,250)"/><path d="M-177.69131806158782,-46.265230490583484L-181.21898052070964,-45.27335269833706L-180.94374082858346,-42.90255804355085z" style="fill:rgb(89,159,244)"/><path d="M-179.7874234145476,-53.608970726116574L-183.31484658101616,-52.609918198367325L-182.4269712992846,-50.218691595131226zM-179.7874234145476,-53.608970726116574L-182.4269712992846,-50.218691595131226L-178.90093489614165,-51.21493484865734z" style="fill:rgb(106,87,246)"/><path d="M-153.38949038828898,120.6110381809084L-137.91431533539574,-20.441735282020527L-157.09180186860678,121.48682602492552z" style="fill:rgb(83,212,212)"/><path d="M-177.69131806158782,-46.265230490583484L-180.94374082858346,-42.90255804355085L-177.41312377757473,-43.89303552209665z" style="fill:rgb(89,159,244)"/><path d="M-180.82040311278584,-55.82946349853179L-183.31484658101616,-52.609918198367325L-179.7874234145476,-53.608970726116574z" style="fill:rgb(114,65,238)"/><path d="M-177.41312377757473,-43.89303552209665L-180.94374082858346,-42.90255804355085L-180.90465433723847,-40.718526691672004z" style="fill:rgb(85,182,234)"/><path d="M-180.82040311278584,-55.82946349853179L-184.35065056622014,-54.82732687002716L-183.31484658101616,-52.609918198367325z" style="fill:rgb(114,65,238)"/><path d="M-177.41312377757473,-43.89303552209665L-180.90465433723847,-40.718526691672004L-177.3697802192911,-41.70818873356604z" style="fill:rgb(85,182,234)"/><path d="M-187.75182791166736,-61.598099957803846L-186.73463571458657,-61.773992485585836L-180.57057424018697,-94.10183656234008z" style="fill:rgb(247,158,158)"/><path d="M-181.96187824622714,-57.79317262950896L-184.35065056622014,-54.82732687002716L-180.82040311278584,-55.82946349853179z" style="fill:rgb(123,46,225)"/><path d="M-177.3697802192911,-41.70818873356604L-180.90465433723847,-40.718526691672004L-181.10401190193673,-38.8033746569512z" style="fill:rgb(84,202,220)"/><path d="M-181.96187824622714,-57.79317262950896L-185.49622530913194,-56.78776913688175L-184.35065056622014,-54.82732687002716z" style="fill:rgb(123,46,225)"/><path d="M-177.3697802192911,-41.70818873356604L-181.10401190193673,-38.8033746569512L-177.56373311807047,-39.7928468947204z" style="fill:rgb(84,202,220)"/><path d="M-188.61363521520235,-60.93277685491625L-187.75182791166736,-61.598099957803846L-181.30001641273483,-95.25779667845234z" style="fill:rgb(247,158,158)"/><path d="M-183.16960457349614,-59.42550020268759L-185.49622530913194,-56.78776913688175L-181.96187824622714,-57.79317262950896zM-183.16960457349614,-59.42550020268759L-186.70923732254857,-58.4167877901744L-185.49622530913194,-56.78776913688175z" style="fill:rgb(131,29,208)"/><path d="M-189.285444433847,-59.800509071997624L-188.61363521520235,-60.93277685491625L-181.84300282204077,-96.11827413251523z" style="fill:rgb(247,158,158)"/><path d="M-184.39849731612773,-60.66327995699556L-186.70923732254857,-58.4167877901744L-183.16960457349614,-59.42550020268759z" style="fill:rgb(140,16,189)"/><path d="M180.04851514928652,70.30571049716242L157.91178984819854,-69.28472738245766L157.00229968390968,-71.9563919494934z" style="fill:rgb(247,158,158)"/><path d="M-184.39849731612773,-60.66327995699556L-187.94438781215902,-59.65132123391607L-186.70923732254857,-58.4167877901744z" style="fill:rgb(140,16,189)"/><path d="M-189.7396657345777,-58.24263756782014L-189.285444433847,-59.800509071997624L-182.17780120245303,-96.64880627374406z" style="fill:rgb(247,158,158)"/><path d="M-193.3289616976989,-57.21913068915274L-189.7396657345777,-58.24263756782014L-182.29091569748934,-96.82804983508217z" style="fill:rgb(83,212,212)"/><path d="M-185.60218843978302,-61.457200097711684L-187.94438781215902,-59.65132123391607L-184.39849731612773,-60.66327995699556z" style="fill:rgb(148,8,167)"/><path d="M184.29578219638316,69.32972231873133L169.92092577515592,-75.37848161740911L160.68524788529064,-72.93198873926876z" style="fill:rgb(83,212,212)"/><path d="M-185.60218843978302,-61.457200097711684L-189.15507721193174,-60.44220254848459L-187.94438781215902,-59.65132123391607z" style="fill:rgb(148,8,167)"/><path d="M-1.7418653554580326,-29.905679677203835L-1.986539782935606,112.13599781505766L-0.5701746898494411,114.58258394554083zM170.80211285870143,-72.6903899747879L169.92092577515592,-75.37848161740911L194.95140168891353,66.8811433396706z" style="fill:rgb(247,158,158)"/><path d="M-186.73463571458657,-61.773992485585836L-189.15507721193174,-60.44220254848459L-185.60218843978302,-61.457200097711684zM-186.73463571458657,-61.773992485585836L-190.2950010588502,-60.756268297048265L-189.15507721193174,-60.44220254848459z" style="fill:rgb(155,4,143)"/><path d="M181.46755462642327,61.513002320195376L161.58668854687545,-70.2556461280622L158.05654476213553,-80.73653012314958z" style="fill:rgb(247,158,158)"/><path d="M-174.11509766409733,-77.48325692586015L-195.93129309358108,63.78615874564711L-170.70540723486695,-78.46857207453104z" style="fill:rgb(83,212,212)"/><path d="M-187.75182791166736,-61.598099957803846L-190.2950010588502,-60.756268297048265L-186.73463571458657,-61.773992485585836zM-187.75182791166736,-61.598099957803846L-191.31986533037437,-60.57807144096672L-190.2950010588502,-60.756268297048265z" style="fill:rgb(161,4,119)"/><path d="M177.1890352615786,62.504739885651304L158.05654476213553,-80.73653012314958L154.35014505669253,-79.7472274474676z" style="fill:rgb(83,212,212)"/><path d="M183.52863204278097,-33.86759285169384L208.54903606400765,105.73418334949734L209.41710424351533,108.21454537864753z" style="fill:rgb(247,158,158)"/><path d="M-140.2074902321498,143.8981316195974L-143.90552914165266,147.4217558958723L-138.48794931594165,146.18055662247406zM56.4176864842013,139.19198927647025L18.50378294196473,147.53028020893925L19.814455419078335,149.79429489051319zM-140.2074902321498,143.8981316195974L-145.63647144921796,145.14567281988002L-143.90552914165266,147.4217558958723z" style="fill:rgb(127,37,217)"/><path d="M-197.3996023297939,-107.68887066903497L-197.9200453741696,-105.22789049581323L128.27401643431637,-202.424095039711zM32.618020569733964,-39.00747634740502L-1.986539782935606,112.13599781505766L37.244214709633916,103.12106883810894z" style="fill:rgb(83,212,212)"/><path d="M56.4176864842013,139.19198927647025L19.814455419078335,149.79429489051319L57.643645584198545,141.4983789702114z" style="fill:rgb(127,37,217)"/><path d="M38.5700097323035,105.61527368255375L32.618020569733964,-39.00747634740502L37.244214709633916,103.12106883810894z" style="fill:rgb(247,158,158)"/><path d="M-141.5746860236175,136.39257674952572L-138.48794931594165,146.18055662247406L-134.8678653463374,145.35116064156398z" style="fill:rgb(127,37,217)"/><path d="M181.46755462642327,61.513002320195376L158.05654476213553,-80.73653012314958L151.8474795476725,-99.17105952908214zM127.90820418351522,-204.81585993474147L128.27401643431637,-202.424095039711L184.88815529579412,-29.720304497808424z" style="fill:rgb(247,158,158)"/><path d="M-141.5746860236175,136.39257674952572L-145.22465499922924,137.23861939638806L-138.48794931594165,146.18055662247406z" style="fill:rgb(127,37,217)"/><path d="M-195.93129309358108,63.78615874564711L-153.38949038828898,120.6110381809084L-134.64832818391903,-21.32911621094164z" style="fill:rgb(247,158,158)"/><path d="M-1.986539782935606,112.13599781505766L-136.57976634637095,143.0645098982266L-134.8678653463374,145.35116064156398zM-153.38949038828898,120.6110381809084L-145.22465499922924,137.23861939638806L-141.5746860236175,136.39257674952572z" style="fill:rgb(127,37,217)"/><path d="M174.7640174918645,42.98561661662847L151.8474795476725,-99.17105952908214L148.08580574629698,-98.1489938884634z" style="fill:rgb(83,212,212)"/><path d="M208.54903606400765,105.73418334949734L56.4176864842013,139.19198927647025L57.643645584198545,141.4983789702114zM-153.38949038828898,120.6110381809084L-157.09180186860678,121.48682602492552L-145.22465499922924,137.23861939638806z" style="fill:rgb(127,37,217)"/><path d="M-218.03333500390806,34.263534879124705L-182.29091569748934,-96.82804983508217L-189.2262244913834,-107.81839594721433z" style="fill:rgb(247,158,158)"/><path d="M-1.986539782935606,112.13599781505766L-134.8678653463374,145.35116064156398L-0.5701746898494411,114.58258394554083z" style="fill:rgb(127,37,217)"/><path d="M-189.2262244913834,-107.81839594721433L-192.70846603102993,-106.78079260793145L-222.01518821365102,35.31116307538025zM37.244214709633916,103.12106883810894L180.04851514928652,70.30571049716242L157.00229968390968,-71.9563919494934zM-197.3996023297939,-107.68887066903497L128.27401643431637,-202.424095039711L127.90820418351522,-204.81585993474147z" style="fill:rgb(83,212,212)"/><path d="M208.54903606400765,105.73418334949734L57.643645584198545,141.4983789702114L209.41710424351533,108.21454537864753z" style="fill:rgb(127,37,217)"/><path d="M180.04851514928652,70.30571049716242L181.0277505184414,72.97716225075241L157.91178984819854,-69.28472738245766zM134.44586466611864,-131.38150811679716L129.52417217726284,-165.44822576203256L129.3230367050582,-166.04539705001747zM133.8872334254867,-133.87237117552144L129.3230367050582,-166.04539705001747L128.99597576596145,-167.01642049506214zM134.89566895022745,-129.13338375178984L129.5920458921392,-165.24671257510843L129.52417217726284,-165.44822576203256zM133.2407024087957,-136.51329225142328L128.99597576596145,-167.01642049506214L128.55499793407142,-168.32566983084325zM170.80211285870143,-72.6903899747879L194.95140168891353,66.8811433396706L195.89294441400182,69.57144139657744z" style="fill:rgb(247,158,158)"/><path d="M37.244214709633916,103.12106883810894L-1.986539782935606,112.13599781505766L-0.5701746898494411,114.58258394554083z" style="fill:rgb(127,37,217)"/><path d="M181.46755462642327,61.513002320195376L185.2643046803545,72.00653846389201L161.58668854687545,-70.2556461280622zM132.53022985546505,-139.20658188108834L128.55499793407142,-168.32566983084325L128.01636994865558,-169.92483091632027z" style="fill:rgb(247,158,158)"/><path d="M184.29578219638316,69.32972231873133L194.95140168891353,66.8811433396706L169.92092577515592,-75.37848161740911z" style="fill:rgb(83,212,212)"/><path d="M131.7820487664119,-141.85277993732956L128.01636994865558,-169.92483091632027L127.40012471853701,-171.75447682717297z" style="fill:rgb(247,158,158)"/><path d="M37.244214709633916,103.12106883810894L-0.5701746898494411,114.58258394554083L38.5700097323035,105.61527368255375z" style="fill:rgb(127,37,217)"/><path d="M131.0237564426805,-144.3538074935225L127.40012471853701,-171.75447682717297L126.72933638462433,-173.7460081936741z" style="fill:rgb(247,158,158)"/><path d="M-174.11509766409733,-77.48325692586015L-199.81887122972887,64.77330847916686L-195.93129309358108,63.78615874564711z" style="fill:rgb(83,212,212)"/><path d="M130.28350431801857,-146.61625779030462L126.72933638462433,-173.7460081936741L126.02939949985617,-175.82408399449542z" style="fill:rgb(247,158,158)"/><path d="M-187.6139327699882,16.882603923531402L-191.3446829438878,17.873233007324323L-191.82119953966517,19.64969269680033zM-187.6139327699882,16.882603923531402L-191.82119953966517,19.64969269680033L-188.0833950370599,18.65879037913369z" style="fill:rgb(84,220,202)"/><path d="M129.58902123746114,-148.5545415701021L126.02939949985617,-175.82408399449542L125.32707528903686,-177.90928930965606z" style="fill:rgb(247,158,158)"/><path d="M177.1890352615786,62.504739885651304L181.46755462642327,61.513002320195376L158.05654476213553,-80.73653012314958z" style="fill:rgb(83,212,212)"/><path d="M-188.0833950370599,18.65879037913369L-191.82119953966517,19.64969269680033L-192.53010028728312,21.016026780019892z" style="fill:rgb(85,234,182)"/><path d="M128.96663073847526,-150.0940054020552L125.32707528903686,-177.90928930965606L124.6494584710293,-179.92108361306268z" style="fill:rgb(247,158,158)"/><path d="M-188.0833950370599,18.65879037913369L-192.53010028728312,21.016026780019892L-188.78444895668002,20.024189455172902z" style="fill:rgb(85,234,182)"/><path d="M-195.93129309358108,63.78615874564711L-157.09180186860678,121.48682602492552L-153.38949038828898,120.6110381809084z" style="fill:rgb(127,37,217)"/><path d="M-188.78444895668002,20.024189455172902L-192.53010028728312,21.016026780019892L-193.44609192270573,21.917663890192916z" style="fill:rgb(89,244,159)"/><path d="M128.4403584051199,-151.1737713169196L124.6494584710293,-179.92108361306268L124.0229830622319,-181.78107160490913z" style="fill:rgb(247,158,158)"/><path d="M-188.78444895668002,20.024189455172902L-193.44609192270573,21.917663890192916L-189.692093301175,20.924258522708474z" style="fill:rgb(89,244,159)"/><path d="M133.2407024087957,-136.51329225142328L133.8872334254867,-133.87237117552144L128.99597576596145,-167.01642049506214zM133.8872334254867,-133.87237117552144L134.44586466611864,-131.38150811679716L129.3230367050582,-166.04539705001747zM132.53022985546505,-139.20658188108834L133.2407024087957,-136.51329225142328L128.55499793407142,-168.32566983084325zM128.03096145096373,-151.74934960963714L124.0229830622319,-181.78107160490913L123.47231027200293,-183.41603508956172z" style="fill:rgb(247,158,158)"/><path d="M-189.692093301175,20.924258522708474L-193.44609192270573,21.917663890192916L-194.5357326456742,22.31677592796547z" style="fill:rgb(93,250,135)"/><path d="M134.44586466611864,-131.38150811679716L134.89566895022745,-129.13338375178984L129.52417217726284,-165.44822576203256zM131.7820487664119,-141.85277993732956L132.53022985546505,-139.20658188108834L128.01636994865558,-169.92483091632027z" style="fill:rgb(247,158,158)"/><path d="M-189.692093301175,20.924258522708474L-194.5357326456742,22.31677592796547L-190.7732064477508,21.32122332247811z" style="fill:rgb(93,250,135)"/><path d="M134.89566895022745,-129.13338375178984L135.21950796903928,-127.21255261898278L129.5920458921392,-165.24671257510843zM127.75503595379575,-151.79473157193254L123.47231027200293,-183.41603508956172L123.01927708839808,-184.76106725076926zM131.0237564426805,-144.3538074935225L131.7820487664119,-141.85277993732956L127.40012471853701,-171.75447682717297zM130.28350431801857,-146.61625779030462L131.0237564426805,-144.3538074935225L126.72933638462433,-173.7460081936741zM127.62429941835573,-151.30407245506186L123.01927708839808,-184.76106725076926L122.68199520192475,-185.76243481848257zM127.64495233213036,-150.29241852331458L122.68199520192475,-185.76243481848257L122.47403064653349,-186.3798822458933z" style="fill:rgb(247,158,158)"/><path d="M123.61285451255537,-147.59693562993942L122.40375873946013,-186.58852613367225L118.3825000647674,-185.40388871756412z" style="fill:rgb(83,212,212)"/><path d="M129.58902123746114,-148.5545415701021L130.28350431801857,-146.61625779030462L126.02939949985617,-175.82408399449542zM127.81723184972077,-148.7958471701034L122.47403064653349,-186.3798822458933L122.40375873946013,-186.58852613367225z" style="fill:rgb(247,158,158)"/><path d="M180.04851514928652,70.30571049716242L37.244214709633916,103.12106883810894L38.5700097323035,105.61527368255375z" style="fill:rgb(127,37,217)"/><path d="M181.46755462642327,61.513002320195376L151.8474795476725,-99.17105952908214L174.7640174918645,42.98561661662847zM128.96663073847526,-150.0940054020552L129.58902123746114,-148.5545415701021L125.32707528903686,-177.90928930965606zM150.46519817384512,-24.17194624686407L151.8474795476725,-99.17105952908214L129.5920458921392,-165.24671257510843zM-196.06149824733203,63.6122415157869L-187.6139327699882,16.882603923531402L-188.0833950370599,18.65879037913369zM128.4403584051199,-151.1737713169196L128.96663073847526,-150.0940054020552L124.6494584710293,-179.92108361306268zM-196.44737134192184,63.09680921134438L-188.0833950370599,18.65879037913369L-188.78444895668002,20.024189455172902z" style="fill:rgb(247,158,158)"/><path d="M133.2407024087957,-136.51329225142328L129.12426148784124,-135.35307614028602L129.76878320864355,-132.7143803520889z" style="fill:rgb(93,135,250)"/><path d="M132.53022985546505,-139.20658188108834L128.4137770474192,-138.04352299998624L129.12426148784124,-135.35307614028602z" style="fill:rgb(99,111,250)"/><path d="M128.03096145096373,-151.74934960963714L128.4403584051199,-151.1737713169196L124.0229830622319,-181.78107160490913z" style="fill:rgb(247,158,158)"/><path d="M132.53022985546505,-139.20658188108834L129.12426148784124,-135.35307614028602L133.2407024087957,-136.51329225142328z" style="fill:rgb(99,111,250)"/><path d="M133.2407024087957,-136.51329225142328L129.76878320864355,-132.7143803520889L133.8872334254867,-133.87237117552144z" style="fill:rgb(93,135,250)"/><path d="M133.8872334254867,-133.87237117552144L129.76878320864355,-132.7143803520889L130.32345739187545,-130.22501604002792z" style="fill:rgb(89,159,244)"/><path d="M131.7820487664119,-141.85277993732956L127.6635525485837,-140.6863295287909L128.4137770474192,-138.04352299998624zM131.7820487664119,-141.85277993732956L128.4137770474192,-138.04352299998624L132.53022985546505,-139.20658188108834z" style="fill:rgb(106,87,246)"/><path d="M-197.07486292735362,62.25863279515756L-188.78444895668002,20.024189455172902L-189.692093301175,20.924258522708474z" style="fill:rgb(247,158,158)"/><path d="M133.8872334254867,-133.87237117552144L130.32345739187545,-130.22501604002792L134.44586466611864,-131.38150811679716z" style="fill:rgb(89,159,244)"/><path d="M174.7640174918645,42.98561661662847L148.08580574629698,-98.1489938884634L170.4115943024309,44.01518909426487z" style="fill:rgb(83,212,212)"/><path d="M131.0237564426805,-144.3538074935225L127.6635525485837,-140.6863295287909L131.7820487664119,-141.85277993732956z" style="fill:rgb(114,65,238)"/><path d="M134.44586466611864,-131.38150811679716L130.32345739187545,-130.22501604002792L130.76749548193806,-127.97760684145157z" style="fill:rgb(85,182,234)"/><path d="M131.0237564426805,-144.3538074935225L126.9012920449287,-143.18355069148137L127.6635525485837,-140.6863295287909z" style="fill:rgb(114,65,238)"/><path d="M134.44586466611864,-131.38150811679716L130.76749548193806,-127.97760684145157L134.89566895022745,-129.13338375178984z" style="fill:rgb(85,182,234)"/><path d="M127.75503595379575,-151.79473157193254L128.03096145096373,-151.74934960963714L123.47231027200293,-183.41603508956172z" style="fill:rgb(247,158,158)"/><path d="M130.28350431801857,-146.61625779030462L126.9012920449287,-143.18355069148137L131.0237564426805,-144.3538074935225z" style="fill:rgb(123,46,225)"/><path d="M-197.92104534272733,61.12836275641399L-189.692093301175,20.924258522708474L-190.7732064477508,21.32122332247811z" style="fill:rgb(247,158,158)"/><path d="M134.89566895022745,-129.13338375178984L130.76749548193806,-127.97760684145157L131.08396935741786,-126.05670342607783z" style="fill:rgb(84,202,220)"/><path d="M130.28350431801857,-146.61625779030462L126.15525477032655,-145.44190405996918L126.9012920449287,-143.18355069148137z" style="fill:rgb(123,46,225)"/><path d="M-218.03333500390806,34.263534879124705L-209.73690309698802,45.345432862611936L-182.29091569748934,-96.82804983508217z" style="fill:rgb(247,158,158)"/><path d="M134.89566895022745,-129.13338375178984L131.08396935741786,-126.05670342607783L135.21950796903928,-127.21255261898278z" style="fill:rgb(84,202,220)"/><path d="M127.62429941835573,-151.30407245506186L127.75503595379575,-151.79473157193254L123.01927708839808,-184.76106725076926z" style="fill:rgb(247,158,158)"/><path d="M129.58902123746114,-148.5545415701021L126.15525477032655,-145.44190405996918L130.28350431801857,-146.61625779030462zM129.58902123746114,-148.5545415701021L125.45338924756028,-147.37598346870772L126.15525477032655,-145.44190405996918z" style="fill:rgb(131,29,208)"/><path d="M-198.95474371442688,59.74759715730726L-190.7732064477508,21.32122332247811L-191.98746770297046,21.195988611468533z" style="fill:rgb(247,158,158)"/><path d="M-195.93129309358108,63.78615874564711L-199.81887122972887,64.77330847916686L-157.09180186860678,121.48682602492552zM180.04851514928652,70.30571049716242L38.5700097323035,105.61527368255375L181.0277505184414,72.97716225075241z" style="fill:rgb(127,37,217)"/><path d="M127.64495233213036,-150.29241852331458L127.62429941835573,-151.30407245506186L122.68199520192475,-185.76243481848257z" style="fill:rgb(247,158,158)"/><path d="M128.96663073847526,-150.0940054020552L125.45338924756028,-147.37598346870772L129.58902123746114,-148.5545415701021zM128.96663073847526,-150.0940054020552L124.8222873121704,-148.911260712597L125.45338924756028,-147.37598346870772z" style="fill:rgb(140,16,189)"/><path d="M-200.1376548791354,58.16754121701512L-191.98746770297046,21.195988611468533L-193.28884114026317,20.549466415479426zM127.81723184972077,-148.7958471701034L127.64495233213036,-150.29241852331458L122.47403064653349,-186.3798822458933z" style="fill:rgb(247,158,158)"/><path d="M123.61285451255537,-147.59693562993942L127.81723184972077,-148.7958471701034L122.40375873946013,-186.58852613367225z" style="fill:rgb(83,212,212)"/><path d="M128.4403584051199,-151.1737713169196L124.8222873121704,-148.911260712597L128.96663073847526,-150.0940054020552zM128.4403584051199,-151.1737713169196L124.28629491480568,-149.9870288338583L124.8222873121704,-148.911260712597z" style="fill:rgb(148,8,167)"/><path d="M-201.42549220749086,56.447311758527896L-193.28884114026317,20.549466415479426L-194.627125280588,19.40312570606532z" style="fill:rgb(247,158,158)"/><path d="M-189.2262244913834,-107.81839594721433L-222.01518821365102,35.31116307538025L-218.03333500390806,34.263534879124705z" style="fill:rgb(83,212,212)"/><path d="M-196.06149824733203,63.6122415157869L-195.93129309358108,63.78615874564711L-187.6139327699882,16.882603923531402z" style="fill:rgb(247,158,158)"/><path d="M128.03096145096373,-151.74934960963714L124.28629491480568,-149.9870288338583L128.4403584051199,-151.1737713169196z" style="fill:rgb(155,4,143)"/><path d="M-202.7695995942058,54.651931936403734L-194.627125280588,19.40312570606532L-195.94999012112268,17.798701996567218z" style="fill:rgb(247,158,158)"/><path d="M128.03096145096373,-151.74934960963714L123.86652058494779,-150.5589438303965L124.28629491480568,-149.9870288338583z" style="fill:rgb(155,4,143)"/><path d="M-196.44737134192184,63.09680921134438L-196.06149824733203,63.6122415157869L-188.0833950370599,18.65879037913369zM-204.11861534873788,52.850001400301124L-195.94999012112268,17.798701996567218L-197.20504620754593,15.796966682357548zM-197.07486292735362,62.25863279515756L-196.44737134192184,63.09680921134438L-188.78444895668002,20.024189455172902z" style="fill:rgb(247,158,158)"/><path d="M-116.60045532940732,186.9081344411328L211.44760727094376,115.56825871547429L150.17875149184115,-59.20457952471097z" style="fill:rgb(127,37,217)"/><path d="M127.75503595379575,-151.79473157193254L123.86652058494779,-150.5589438303965L128.03096145096373,-151.74934960963714z" style="fill:rgb(161,4,119)"/><path d="M-213.68352734762175,46.37014778767039L-200.67282457291552,-1.607572974953119L-204.457978790239,-0.5808869839865483zM125.63378743864243,-164.10288080090083L150.46519817384512,-24.17194624686407L129.5920458921392,-165.24671257510843z" style="fill:rgb(83,212,212)"/><path d="M127.75503595379575,-151.79473157193254L123.5799742965076,-150.60117651285108L123.86652058494779,-150.5589438303965z" style="fill:rgb(161,4,119)"/><path d="M-205.42043279750303,51.111101544705264L-197.20504620754593,15.796966682357548L-198.34213487397952,13.475540627373638zM-197.92104534272733,61.12836275641399L-197.07486292735362,62.25863279515756L-189.692093301175,20.924258522708474zM-209.73690309698802,45.345432862611936L-200.92149673655987,0.5245018562858688L-200.67282457291552,-1.607572974953119zM-206.6242618180792,49.50309568897499L-198.34213487397952,13.475540627373638L-199.3155715611457,10.925815108443278zM-209.60178987934296,45.525907699421495L-200.90501147519103,2.9428245534642317L-200.92149673655987,0.5245018562858688zM-198.95474371442688,59.74759715730726L-197.92104534272733,61.12836275641399L-190.7732064477508,21.32122332247811zM-207.68266018368,48.08937277961335L-199.3155715611457,10.925815108443278L-200.08618010016073,8.249105029844104zM-209.2019132498955,46.06001615982569L-200.6230472207335,5.552238004584477L-200.90501147519103,2.9428245534642317zM-208.5534997998756,46.92613895248904L-200.08618010016073,8.249105029844104L-200.6230472207335,5.552238004584477zM-200.1376548791354,58.16754121701512L-198.95474371442688,59.74759715730726L-191.98746770297046,21.195988611468533z" style="fill:rgb(247,158,158)"/><path d="M194.95140168891353,66.8811433396706L185.2643046803545,72.00653846389201L195.89294441400182,69.57144139657744zM194.95140168891353,66.8811433396706L184.29578219638316,69.32972231873133L185.2643046803545,72.00653846389201zM181.46755462642327,61.513002320195376L181.0277505184414,72.97716225075241L185.2643046803545,72.00653846389201z" style="fill:rgb(127,37,217)"/><path d="M-201.42549220749086,56.447311758527896L-200.1376548791354,58.16754121701512L-193.28884114026317,20.549466415479426zM-202.7695995942058,54.651931936403734L-201.42549220749086,56.447311758527896L-194.627125280588,19.40312570606532z" style="fill:rgb(247,158,158)"/><path d="M181.46755462642327,61.513002320195376L177.1890352615786,62.504739885651304L181.0277505184414,72.97716225075241z" style="fill:rgb(127,37,217)"/><path d="M-204.11861534873788,52.850001400301124L-202.7695995942058,54.651931936403734L-195.94999012112268,17.798701996567218zM150.46519817384512,-24.17194624686407L174.7640174918645,42.98561661662847L151.8474795476725,-99.17105952908214zM-205.42043279750303,51.111101544705264L-204.11861534873788,52.850001400301124L-197.20504620754593,15.796966682357548zM-206.6242618180792,49.50309568897499L-205.42043279750303,51.111101544705264L-198.34213487397952,13.475540627373638zM-207.68266018368,48.08937277961335L-206.6242618180792,49.50309568897499L-199.3155715611457,10.925815108443278z" style="fill:rgb(247,158,158)"/><path d="M-213.68352734762175,46.37014778767039L-209.73690309698802,45.345432862611936L-200.67282457291552,-1.607572974953119z" style="fill:rgb(83,212,212)"/><path d="M-208.5534997998756,46.92613895248904L-207.68266018368,48.08937277961335L-200.08618010016073,8.249105029844104zM-209.2019132498955,46.06001615982569L-208.5534997998756,46.92613895248904L-200.6230472207335,5.552238004584477zM-209.73690309698802,45.345432862611936L-209.60178987934296,45.525907699421495L-200.92149673655987,0.5245018562858688zM-209.60178987934296,45.525907699421495L-209.2019132498955,46.06001615982569L-200.90501147519103,2.9428245534642317z" style="fill:rgb(247,158,158)"/><path d="M-209.73690309698802,45.345432862611936L-199.81887122972887,64.77330847916686L-195.93129309358108,63.78615874564711zM174.7640174918645,42.98561661662847L177.1890352615786,62.504739885651304L181.46755462642327,61.513002320195376z" style="fill:rgb(127,37,217)"/><path d="M149.67758355300518,-62.48138547098234L211.44760727094376,115.56825871547429L210.85369657369452,112.31937766082015z" style="fill:rgb(247,158,158)"/><path d="M-209.73690309698802,45.345432862611936L-213.68352734762175,46.37014778767039L-199.81887122972887,64.77330847916686zM174.7640174918645,42.98561661662847L170.4115943024309,44.01518909426487L177.1890352615786,62.504739885651304zM-116.60045532940732,186.9081344411328L150.17875149184115,-59.20457952471097L-228.66687091224912,40.16217992196063z" style="fill:rgb(127,37,217)"/><path d="M137.74050392873923,-59.340727069523474L122.40375873946013,-186.58852613367225L118.09195297154797,-199.39012902610207z" style="fill:rgb(247,158,158)"/><path d="M118.09195297154797,-199.39012902610207L114.0330106612643,-198.18067896777032L132.98465398084133,-58.08946601039823z" style="fill:rgb(83,212,212)"/><path d="M-218.03333500390806,34.263534879124705L-213.68352734762175,46.37014778767039L-209.73690309698802,45.345432862611936zM-218.03333500390806,34.263534879124705L-222.01518821365102,35.31116307538025L-213.68352734762175,46.37014778767039z" style="fill:rgb(127,37,217)"/><path d="M125.63378743864243,-164.10288080090083L145.847124717943,-22.999309426387097L150.46519817384512,-24.17194624686407z" style="fill:rgb(83,212,212)"/><path d="M143.52977590336715,-71.04618704451643L139.13161916735402,-69.87834362817581L139.33648053326388,-68.14106109930474zM143.52977590336715,-71.04618704451643L139.33648053326388,-68.14106109930474L143.74447609733298,-69.3096359981793z" style="fill:rgb(84,220,202)"/><path d="M143.74447609733298,-69.3096359981793L139.33648053326388,-68.14106109930474L139.38715241408445,-66.87460643589831zM143.74447609733298,-69.3096359981793L139.38715241408445,-66.87460643589831L143.80613466081547,-68.04473665501692z" style="fill:rgb(85,234,182)"/><path d="M150.46519817384512,-24.17194624686407L170.4115943024309,44.01518909426487L174.7640174918645,42.98561661662847z" style="fill:rgb(127,37,217)"/><path d="M143.80613466081547,-68.04473665501692L139.38715241408445,-66.87460643589831L139.28056495430965,-66.13038093027114zM143.80613466081547,-68.04473665501692L139.28056495430965,-66.13038093027114L143.7112761535148,-67.30286483071265z" style="fill:rgb(89,244,159)"/><path d="M143.7112761535148,-67.30286483071265L139.28056495430965,-66.13038093027114L139.01954660405025,-65.94095183099378zM143.7112761535148,-67.30286483071265L139.01954660405025,-65.94095183099378L143.46228594428922,-67.11648545850731z" style="fill:rgb(93,250,135)"/><path d="M150.39043780857583,-24.378565581862382L143.52977590336715,-71.04618704451643L143.74447609733298,-69.3096359981793zM150.16886796905902,-24.990955739229474L143.74447609733298,-69.3096359981793L143.80613466081547,-68.04473665501692zM149.80850459466797,-25.98692617021734L143.80613466081547,-68.04473665501692L143.7112761535148,-67.30286483071265zM149.32247854901203,-27.330212189141257L143.7112761535148,-67.30286483071265L143.46228594428922,-67.11648545850731z" style="fill:rgb(247,158,158)"/><path d="M-227.972449412951,36.878526952159255L-228.66687091224912,40.16217992196063L150.17875149184115,-59.20457952471097z" style="fill:rgb(83,212,212)"/><path d="M137.74050392873923,-59.340727069523474L142.52508814420966,-46.11699963771693L122.40375873946013,-186.58852613367225zM148.7285951768282,-28.97159046236768L143.46228594428922,-67.11648545850731L143.0674662927578,-67.49735634912203z" style="fill:rgb(247,158,158)"/><path d="M150.46519817384512,-24.17194624686407L145.847124717943,-22.999309426387097L170.4115943024309,44.01518909426487z" style="fill:rgb(127,37,217)"/><path d="M148.04882255254773,-30.85039325296752L143.0674662927578,-67.49735634912203L142.54095577436638,-68.4353686550712zM147.30850362851737,-32.89648586066801L142.54095577436638,-68.4353686550712L141.90227399759277,-69.89821931828604zM149.67758355300518,-62.48138547098234L150.17875149184115,-59.20457952471097L211.44760727094376,115.56825871547429z" style="fill:rgb(247,158,158)"/><path d="M118.09195297154797,-199.39012902610207L132.98465398084133,-58.08946601039823L137.74050392873923,-59.340727069523474z" style="fill:rgb(83,212,212)"/><path d="M150.39043780857583,-24.378565581862382L150.46519817384512,-24.17194624686407L143.52977590336715,-71.04618704451643zM146.5355954487961,-35.032649823301824L141.90227399759277,-69.89821931828604L141.17577626468497,-71.83210068551062zM150.16886796905902,-24.990955739229474L150.39043780857583,-24.378565581862382L143.74447609733298,-69.3096359981793zM145.75962169882666,-37.17732531872697L141.17577626468497,-71.83210068551062L140.3897061753951,-74.16334275604953zM149.80850459466797,-25.98692617021734L150.16886796905902,-24.990955739229474L143.80613466081547,-68.04473665501692z" style="fill:rgb(247,158,158)"/><path d="M137.82094068993624,-44.89559878195985L135.82672892585538,-92.87974614727327L131.35059820746307,-91.66564161046337z" style="fill:rgb(83,212,212)"/><path d="M145.01053132483048,-39.24765535840533L140.3897061753951,-74.16334275604953L139.575039266932,-76.80114909587077zM149.32247854901203,-27.330212189141257L149.80850459466797,-25.98692617021734L143.7112761535148,-67.30286483071265zM142.52508814420966,-46.11699963771693L136.17958915543684,-90.72984622516037L135.82672892585538,-92.87974614727327zM144.31762135943728,-41.162733856043985L139.575039266932,-76.80114909587077L138.76423864474378,-79.64123813993737zM142.60292697631158,-45.90186686621006L136.67126589651878,-88.22748723514L136.17958915543684,-90.72984622516037zM148.7285951768282,-28.97159046236768L149.32247854901203,-27.330212189141257L143.46228594428922,-67.11648545850731zM143.70826913268712,-42.84690425806699L138.76423864474378,-79.64123813993737L137.98978981938797,-82.57032695531753zM142.83326788175117,-45.26523330103574L137.28271967766048,-85.47109614755455L136.67126589651878,-88.22748723514zM143.20675798492536,-44.232986182639095L137.98978981938797,-82.57032695531753L137.28271967766048,-85.47109614755455zM148.04882255254773,-30.85039325296752L148.7285951768282,-28.97159046236768L143.0674662927578,-67.49735634912203zM147.30850362851737,-32.89648586066801L148.04882255254773,-30.85039325296752L142.54095577436638,-68.4353686550712zM146.5355954487961,-35.032649823301824L147.30850362851737,-32.89648586066801L141.90227399759277,-69.89821931828604zM145.75962169882666,-37.17732531872697L146.5355954487961,-35.032649823301824L141.17577626468497,-71.83210068551062zM145.01053132483048,-39.24765535840533L145.75962169882666,-37.17732531872697L140.3897061753951,-74.16334275604953zM144.31762135943728,-41.162733856043985L145.01053132483048,-39.24765535840533L139.575039266932,-76.80114909587077zM143.70826913268712,-42.84690425806699L144.31762135943728,-41.162733856043985L138.76423864474378,-79.64123813993737z" style="fill:rgb(247,158,158)"/><path d="M137.82094068993624,-44.89559878195985L142.52508814420966,-46.11699963771693L135.82672892585538,-92.87974614727327z" style="fill:rgb(83,212,212)"/><path d="M143.20675798492536,-44.232986182639095L143.70826913268712,-42.84690425806699L137.98978981938797,-82.57032695531753zM142.83326788175117,-45.26523330103574L143.20675798492536,-44.232986182639095L137.28271967766048,-85.47109614755455zM142.52508814420966,-46.11699963771693L142.60292697631158,-45.90186686621006L136.17958915543684,-90.72984622516037zM142.60292697631158,-45.90186686621006L142.83326788175117,-45.26523330103574L136.67126589651878,-88.22748723514z" style="fill:rgb(247,158,158)"/><path d="M-227.972449412951,36.878526952159255L150.17875149184115,-59.20457952471097L149.67758355300518,-62.48138547098234z" style="fill:rgb(83,212,212)"/><path d="M142.52508814420966,-46.11699963771693L145.847124717943,-22.999309426387097L150.46519817384512,-24.17194624686407zM142.52508814420966,-46.11699963771693L137.82094068993624,-44.89559878195985L145.847124717943,-22.999309426387097zM137.74050392873923,-59.340727069523474L137.82094068993624,-44.89559878195985L142.52508814420966,-46.11699963771693zM137.74050392873923,-59.340727069523474L132.98465398084133,-58.08946601039823L137.82094068993624,-44.89559878195985z" style="fill:rgb(127,37,217)"/></svg>
