<?xml version="1.0" encoding="UTF-8"?>
<!-- Generated by jsxcad -->
<!DOCTYPE svg PUBLIC "-//W3C//DTD SVG 1.1 Tiny//EN" "http://www.w3.org/Graphics/SVG/1.1/DTD/svg11-tiny.dtd">
<svg viewBox="-250 -250 500 500" width="500" height="500" xmlns="http://www.w3.org/2000/svg"><path d="M-43.204014386067925,-17.85374538595759L125.49197550480068,50.94020889214689L112.84137595843914,-59.14790279701613z" style="fill:rgb(83,212,212)"/><path d="M112.84137595843914,-59.14790279701613L126.48748994030679,53.34213996578803L113.76434186173692,-56.74749279371517z" style="fill:rgb(247,158,158)"/><path d="M125.49197550480068,50.94020889214689L-43.204014386067925,-17.85374538595759L-47.84635638937754,92.09752775258484zM-62.0776202583743,-52.37095443811328L109.9565788074696,13.457054370831917L98.4963588926364,-96.45584723658641z" style="fill:rgb(83,212,212)"/><path d="M109.9565788074696,13.457054370831917L99.48288160026152,-93.89014887553618L98.4963588926364,-96.45584723658641zM126.48748994030679,53.34213996578803L112.84137595843914,-59.14790279701613L125.49197550480068,50.94020889214689z" style="fill:rgb(247,158,158)"/><path d="M-46.48922904831921,94.30424004288793L125.49197550480068,50.94020889214689L-47.84635638937754,92.09752775258484z" style="fill:rgb(127,37,217)"/><path d="M109.9565788074696,13.457054370831917L-62.0776202583743,-52.37095443811328L-68.98949536429498,57.71843147977767z" style="fill:rgb(83,212,212)"/><path d="M53.93304511962294,-223.24866842161998L130.17353589425355,52.46926012659252L117.06921441708656,-57.61995601573235z" style="fill:rgb(247,158,158)"/><path d="M125.49197550480068,50.94020889214689L-46.48922904831921,94.30424004288793L126.48748994030679,53.34213996578803z" style="fill:rgb(127,37,217)"/><path d="M99.48288160026152,-93.89014887553618L109.9565788074696,13.457054370831917L111.02875892633323,16.043961026003647z" style="fill:rgb(247,158,158)"/><path d="M-67.53243308104882,60.08764346066689L109.9565788074696,13.457054370831917L-68.98949536429498,57.71843147977767zM109.9565788074696,13.457054370831917L-67.53243308104882,60.08764346066689L111.02875892633323,16.043961026003647z" style="fill:rgb(127,37,217)"/><path d="M-47.96529337963263,94.91449324146869L141.3372337735216,188.8288959569658L125.81748324417741,53.77284885288884z" style="fill:rgb(83,212,212)"/><path d="M-160.94153973340536,80.53168967479873L-41.98803250105137,-15.629887944786516L-125.28507225304128,-167.96860017306483zM125.81748324417741,53.77284885288884L142.414845201687,191.15683953261572L126.81478230629942,56.1741088474883z" style="fill:rgb(247,158,158)"/><path d="M61.18400429983893,-113.2914357882036L-46.604523629633654,97.12011555617248L130.51066498255832,55.301471785132875z" style="fill:rgb(127,37,217)"/><path d="M141.3372337735216,188.8288959569658L-47.96529337963263,94.91449324146869L-53.60645770038363,228.52231515365884z" style="fill:rgb(83,212,212)"/><path d="M60.99902060201915,-116.09662237193491L126.48748994030679,53.34213996578803L130.17353589425355,52.46926012659252z" style="fill:rgb(127,37,217)"/><path d="M60.99902060201915,-116.09662237193491L130.51066498255832,55.301471785132875L130.17353589425355,52.46926012659252zM130.17353589425355,52.46926012659252L53.93304511962294,-223.24866842161998L60.99902060201915,-116.09662237193491zM-41.98803250105137,-15.629887944786516L-160.94153973340536,80.53168967479873L-52.071379538869444,230.63884093284946z" style="fill:rgb(247,158,158)"/><path d="M-69.16721634859972,60.54909518926405L124.43477751721085,152.31485748922287L110.25261147042839,16.296250348850833zM50.18828489818688,-222.09358395764352L60.99902060201915,-116.09662237193491L53.93304511962294,-223.24866842161998zM-128.7097771518436,-166.91223803287292L-160.94153973340536,80.53168967479873L-125.28507225304128,-167.96860017306483z" style="fill:rgb(83,212,212)"/><path d="M-46.604523629633654,97.12011555617248L61.18400429983893,-113.2914357882036L-141.29857088390858,-56.36587190391377z" style="fill:rgb(127,37,217)"/><path d="M142.414845201687,191.15683953261572L125.81748324417741,53.77284885288884L141.3372337735216,188.8288959569658zM124.43477751721085,152.31485748922287L111.32692400794555,18.882940740186292L110.25261147042839,16.296250348850833z" style="fill:rgb(247,158,158)"/><path d="M-52.071379538869444,230.63884093284946L141.3372337735216,188.8288959569658L-53.60645770038363,228.52231515365884z" style="fill:rgb(127,37,217)"/><path d="M124.43477751721085,152.31485748922287L-69.16721634859972,60.54909518926405L-77.63338795127459,195.39464990936978z" style="fill:rgb(83,212,212)"/><path d="M61.18400429983893,-113.2914357882036L146.58134331497504,190.31100324794735L130.51066498255832,55.301471785132875z" style="fill:rgb(247,158,158)"/><path d="M141.3372337735216,188.8288959569658L-52.071379538869444,230.63884093284946L142.414845201687,191.15683953261572zM126.48748994030679,53.34213996578803L60.99902060201915,-116.09662237193491L56.75685415466702,-114.90103913238201z" style="fill:rgb(127,37,217)"/><path d="M130.51066498255832,55.301471785132875L60.99902060201915,-116.09662237193491L61.18400429983893,-113.2914357882036z" style="fill:rgb(247,158,158)"/><path d="M60.99902060201915,-116.09662237193491L50.18828489818688,-222.09358395764352L56.75685415466702,-114.90103913238201z" style="fill:rgb(83,212,212)"/><path d="M111.32692400794555,18.882940740186292L124.43477751721085,152.31485748922287L125.60651832330916,154.84613494612407z" style="fill:rgb(247,158,158)"/><path d="M61.18400429983893,-113.2914357882036L-140.8923666598928,-59.19682187255188L-141.29857088390858,-56.36587190391377z" style="fill:rgb(83,212,212)"/><path d="M-75.97084353588413,197.68692978200974L124.43477751721085,152.31485748922287L-77.63338795127459,195.39464990936978zM-160.94153973340536,80.53168967479873L-55.85262043450376,231.4064664319788L-52.071379538869444,230.63884093284946z" style="fill:rgb(127,37,217)"/><path d="M-140.8923666598928,-59.19682187255188L61.18400429983893,-113.2914357882036L60.99902060201915,-116.09662237193491z" style="fill:rgb(83,212,212)"/><path d="M124.43477751721085,152.31485748922287L-75.97084353588413,197.68692978200974L125.60651832330916,154.84613494612407z" style="fill:rgb(127,37,217)"/><path d="M-160.94153973340536,80.53168967479873L-128.7097771518436,-166.91223803287292L-165.29983499448468,81.60961071427897z" style="fill:rgb(83,212,212)"/><path d="M70.19561927275684,23.365248052512513L142.414845201687,191.15683953261572L146.58134331497504,190.31100324794735zM-55.85262043450376,231.4064664319788L-160.94153973340536,80.53168967479873L-165.29983499448468,81.60961071427897z" style="fill:rgb(127,37,217)"/><path d="M146.58134331497504,190.31100324794735L61.18400429983893,-113.2914357882036L70.19561927275684,23.365248052512513z" style="fill:rgb(247,158,158)"/><path d="M56.92879489233175,-112.0951365492333L70.19561927275684,23.365248052512513L61.18400429983893,-113.2914357882036z" style="fill:rgb(83,212,212)"/><path d="M142.414845201687,191.15683953261572L70.19561927275684,23.365248052512513L65.30370773591991,24.575149854645378z" style="fill:rgb(127,37,217)"/><path d="M70.19561927275684,23.365248052512513L56.92879489233175,-112.0951365492333L65.30370773591991,24.575149854645378z" style="fill:rgb(83,212,212)"/></svg>
