<?xml version="1.0" encoding="UTF-8"?>
<!-- Generated by jsxcad -->
<!DOCTYPE svg PUBLIC "-//W3C//DTD SVG 1.1 Tiny//EN" "http://www.w3.org/Graphics/SVG/1.1/DTD/svg11-tiny.dtd">
<svg viewBox="-250 -250 500 500" width="500" height="500" xmlns="http://www.w3.org/2000/svg"><path d="M-73.49916844392705,35.695291384316455L-104.33182267895452,40.99386795821183L-102.95082302856758,43.151530984009156zM-73.49916844392705,35.695291384316455L-74.8263768021925,33.505243792122606L-104.33182267895452,40.99386795821183z" style="fill:rgb(127,37,217)"/><path d="M-74.6533659992244,31.02052721567328L-73.49916844392705,35.695291384316455L-73.3295935097515,33.21090731022879zM-74.6533659992244,31.02052721567328L-74.8263768021925,33.505243792122606L-73.49916844392705,35.695291384316455z" style="fill:rgb(247,158,158)"/><path d="M-74.8263768021925,33.505243792122606L-42.99961544390587,22.96720360865108L-74.6533659992244,31.02052721567328z" style="fill:rgb(83,212,212)"/><path d="M-41.831759076425904,27.67809316173477L-74.8263768021925,33.505243792122606L-73.49916844392705,35.695291384316455z" style="fill:rgb(127,37,217)"/><path d="M-74.8263768021925,33.505243792122606L-43.10006475433753,25.45295607550194L-42.99961544390587,22.96720360865108z" style="fill:rgb(83,212,212)"/><path d="M-41.831759076425904,27.67809316173477L-43.10006475433753,25.45295607550194L-74.8263768021925,33.505243792122606z" style="fill:rgb(127,37,217)"/><path d="M-42.99961544390587,22.96720360865108L-41.831759076425904,27.67809316173477L-41.73447869490285,25.19259706211535zM-42.99961544390587,22.96720360865108L-43.10006475433753,25.45295607550194L-41.831759076425904,27.67809316173477z" style="fill:rgb(247,158,158)"/><path d="M19.382866483097153,12.180462588822184L-43.10006475433753,25.45295607550194L-41.831759076425904,27.67809316173477zM19.382866483097153,12.180462588822184L18.23153498997074,9.886702290039626L-43.10006475433753,25.45295607550194z" style="fill:rgb(127,37,217)"/><path d="M18.23153498997074,9.886702290039626L19.337103952310276,9.693653966367892L18.188395037452,7.399792863547714zM18.23153498997074,9.886702290039626L19.382866483097153,12.180462588822184L19.337103952310276,9.693653966367892z" style="fill:rgb(247,158,158)"/><path d="M-94.03321468190539,1.8117213161811048L-125.78707794620337,7.4722903079262135L-124.31209802749024,9.776787490759377zM184.07369855826755,-32.20482998547072L-124.31209802749024,9.776787490759377L-104.33182267895452,40.99386795821183zM-94.03321468190539,1.8117213161811048L-95.45145280487382,-0.5285344768577378L-125.78707794620337,7.4722903079262135z" style="fill:rgb(127,37,217)"/><path d="M-95.22331821630998,-3.0155988997027534L-94.03321468190539,1.8117213161811048L-93.80897329206745,-0.6753516110759572zM-95.22331821630998,-3.0155988997027534L-95.45145280487382,-0.5285344768577378L-94.03321468190539,1.8117213161811048z" style="fill:rgb(247,158,158)"/><path d="M-61.45946557026311,-6.7570252053396L-93.80897329206745,-0.6753516110759572L-94.03321468190539,1.8117213161811048zM-95.45145280487382,-0.5285344768577378L-62.664120584673576,-11.622874745251915L-95.22331821630998,-3.0155988997027534z" style="fill:rgb(83,212,212)"/><path d="M-61.45946557026311,-6.7570252053396L-95.45145280487382,-0.5285344768577378L-94.03321468190539,1.8117213161811048z" style="fill:rgb(127,37,217)"/><path d="M-61.45946557026311,-6.7570252053396L-61.31169795771912,-9.243943779860919L-93.80897329206745,-0.6753516110759572z" style="fill:rgb(83,212,212)"/><path d="M116.71171695431313,-12.46015981070515L51.468207645989544,1.4510773561382633L52.55442786331506,3.782460085677651z" style="fill:rgb(127,37,217)"/><path d="M-95.45145280487382,-0.5285344768577378L-62.81548987944842,-9.136058083758009L-62.664120584673576,-11.622874745251915z" style="fill:rgb(83,212,212)"/><path d="M-61.45946557026311,-6.7570252053396L-62.81548987944842,-9.136058083758009L-95.45145280487382,-0.5285344768577378z" style="fill:rgb(127,37,217)"/><path d="M-62.664120584673576,-11.622874745251915L-61.45946557026311,-6.7570252053396L-61.31169795771912,-9.243943779860919zM-62.664120584673576,-11.622874745251915L-62.81548987944842,-9.136058083758009L-61.45946557026311,-6.7570252053396z" style="fill:rgb(247,158,158)"/><path d="M116.71171695431313,-12.46015981070515L115.7548469863566,-14.865178630846303L51.468207645989544,1.4510773561382633z" style="fill:rgb(127,37,217)"/><path d="M115.7548469863566,-14.865178630846303L116.42958284569437,-14.946788462844554L115.47439003019302,-17.351640678155114zM115.7548469863566,-14.865178630846303L116.71171695431313,-12.46015981070515L116.42958284569437,-14.946788462844554z" style="fill:rgb(247,158,158)"/><path d="M-117.89119016023827,181.6291453578877L18.23153498997074,9.886702290039626L-104.33182267895452,40.99386795821183z" style="fill:rgb(83,212,212)"/><path d="M1.5567864506332496,-23.333878377011736L-62.81548987944842,-9.136058083758009L-61.45946557026311,-6.7570252053396z" style="fill:rgb(127,37,217)"/><path d="M115.7548469863566,-14.865178630846303L150.24439957396393,-26.19780062296484L115.47439003019302,-17.351640678155114z" style="fill:rgb(83,212,212)"/><path d="M151.4972044947717,-21.266757953988638L115.7548469863566,-14.865178630846303L116.71171695431313,-12.46015981070515zM1.5567864506332496,-23.333878377011736L0.32454504327588635,-25.78883456112395L-62.81548987944842,-9.136058083758009z" style="fill:rgb(127,37,217)"/><path d="M115.7548469863566,-14.865178630846303L150.61236103098707,-23.712181534787398L150.24439957396393,-26.19780062296484z" style="fill:rgb(83,212,212)"/><path d="M151.4972044947717,-21.266757953988638L150.61236103098707,-23.712181534787398L115.7548469863566,-14.865178630846303z" style="fill:rgb(127,37,217)"/><path d="M150.24439957396393,-26.19780062296484L151.4972044947717,-21.266757953988638L151.12792887577498,-23.75264558421866zM150.24439957396393,-26.19780062296484L150.61236103098707,-23.712181534787398L151.4972044947717,-21.266757953988638zM0.32454504327588635,-25.78883456112395L1.5529844089597848,-25.819543084227387L0.3237506073416942,-28.27420658489782zM0.32454504327588635,-25.78883456112395L1.5567864506332496,-23.333878377011736L1.5529844089597848,-25.819543084227387z" style="fill:rgb(247,158,158)"/><path d="M184.88815529579412,-29.720304497808353L150.61236103098707,-23.712181534787398L151.4972044947717,-21.266757953988638z" style="fill:rgb(127,37,217)"/><path d="M35.73199005822639,-32.323897396913864L1.5529844089597848,-25.819543084227387L1.5567864506332496,-23.333878377011736zM35.73199005822639,-32.323897396913864L35.643989462491845,-34.80835500607429L1.5529844089597848,-25.819543084227387z" style="fill:rgb(83,212,212)"/><path d="M184.88815529579412,-29.720304497808353L184.07369855826755,-32.20482998547072L150.61236103098707,-23.712181534787398zM184.07369855826755,-32.20482998547072L172.261363645609,-68.23887560227591L-124.31209802749024,9.776787490759377z" style="fill:rgb(127,37,217)"/><path d="M20.68455445851144,151.29727494404972L19.382866483097153,12.180462588822184L18.23153498997074,9.886702290039626z" style="fill:rgb(247,158,158)"/><path d="M20.74036600421725,154.51467783627518L51.345429171359996,-1.0359958627189338L18.188395037452,7.399792863547714z" style="fill:rgb(83,212,212)"/><path d="M101.8850579682848,-49.72590959748555L34.56877648385145,-34.820528788651295L35.73199005822639,-32.323897396913864z" style="fill:rgb(127,37,217)"/><path d="M52.429338090460874,1.2953992489967447L51.345429171359996,-1.0359958627189338L58.61667438995338,146.2542684709214z" style="fill:rgb(247,158,158)"/><path d="M101.8850579682848,-49.72590959748555L100.85924609609619,-52.30421016146112L34.56877648385145,-34.820528788651295z" style="fill:rgb(127,37,217)"/><path d="M100.85924609609619,-52.30421016146112L101.63007981971593,-52.20697941883269L100.60623982527196,-54.78465933738071zM100.85924609609619,-52.30421016146112L101.8850579682848,-49.72590959748555L101.63007981971593,-52.20697941883269z" style="fill:rgb(247,158,158)"/><path d="M-142.75644961057995,148.93273729806722L0.32454504327588635,-25.78883456112395L-125.78707794620337,7.4722903079262135zM137.78278822211504,-59.16905273507196L101.63007981971593,-52.20697941883269L101.8850579682848,-49.72590959748555zM100.85924609609619,-52.30421016146112L136.48741094320445,-64.27012120657514L100.60623982527196,-54.78465933738071z" style="fill:rgb(83,212,212)"/><path d="M137.78278822211504,-59.16905273507196L100.85924609609619,-52.30421016146112L101.8850579682848,-49.72590959748555z" style="fill:rgb(127,37,217)"/><path d="M137.78278822211504,-59.16905273507196L137.43499526564491,-61.647696687462286L101.63007981971593,-52.20697941883269z" style="fill:rgb(83,212,212)"/><path d="M171.38721189418018,-70.90550567451993L-197.92004537416958,-105.22789049581327L-125.78707794620337,7.4722903079262135z" style="fill:rgb(127,37,217)"/><path d="M58.457474153621,143.02942970247366L184.07369855826755,-32.20482998547072L51.468207645989544,1.4510773561382633zM100.85924609609619,-52.30421016146112L136.83362908088748,-61.792222326330915L136.48741094320445,-64.27012120657514z" style="fill:rgb(83,212,212)"/><path d="M137.78278822211504,-59.16905273507196L136.83362908088748,-61.792222326330915L100.85924609609619,-52.30421016146112z" style="fill:rgb(127,37,217)"/><path d="M136.48741094320445,-64.27012120657514L137.78278822211504,-59.16905273507196L137.43499526564491,-61.647696687462286zM136.48741094320445,-64.27012120657514L136.83362908088748,-61.792222326330915L137.78278822211504,-59.16905273507196z" style="fill:rgb(247,158,158)"/><path d="M172.261363645609,-68.23887560227591L136.83362908088748,-61.792222326330915L137.78278822211504,-59.16905273507196zM172.261363645609,-68.23887560227591L171.38721189418018,-70.90550567451993L136.83362908088748,-61.792222326330915z" style="fill:rgb(127,37,217)"/><path d="M-117.89119016023827,181.6291453578877L20.68455445851144,151.29727494404972L18.23153498997074,9.886702290039626z" style="fill:rgb(83,212,212)"/><path d="M0.3699332196453291,116.20649431429231L1.5567864506332496,-23.333878377011736L0.32454504327588635,-25.78883456112395z" style="fill:rgb(247,158,158)"/><path d="M0.3709708378485828,119.45263884536989L34.48344289379163,-37.30458502859601L0.3237506073416942,-28.27420658489782z" style="fill:rgb(83,212,212)"/><path d="M20.68455445851144,151.29727494404972L21.984218723158403,153.54226433625354L19.382866483097153,12.180462588822184zM184.88815529579412,-29.720304497808353L184.07369855826755,-32.20482998547072L209.9932573589263,109.86082470500556zM35.643989462491845,-34.80835500607429L34.48344289379163,-37.30458502859601L39.56168855882908,110.52301237025645zM127.90820418351531,-204.81585993474138L184.88815529579412,-29.720304497808353L184.4339131633724,-32.20514961251769z" style="fill:rgb(247,158,158)"/><path d="M20.74036600421725,154.51467783627518L58.61667438995338,146.2542684709214L51.345429171359996,-1.0359958627189338z" style="fill:rgb(83,212,212)"/><path d="M52.429338090460874,1.2953992489967447L58.61667438995338,146.2542684709214L59.83513206033674,148.539089666518z" style="fill:rgb(247,158,158)"/><path d="M-83.32648967316914,179.67212447128233L-118.19842097703525,184.81568714942878L-116.6004553294074,186.90813444113274zM-83.32648967316914,179.67212447128233L-84.85585914756032,177.5440302297264L-118.19842097703525,184.81568714942878z" style="fill:rgb(127,37,217)"/><path d="M39.44996456932617,107.27072733832898L171.38721189418018,-70.90550567451993L34.56877648385145,-34.820528788651295z" style="fill:rgb(83,212,212)"/><path d="M-84.633427995732,174.34959374952138L-83.32648967316914,179.67212447128233L-83.10860401857248,176.47995140851395zM-84.633427995732,174.34959374952138L-84.85585914756032,177.5440302297264L-83.32648967316914,179.67212447128233z" style="fill:rgb(247,158,158)"/><path d="M21.984218723158403,153.54226433625354L-117.89119016023827,181.6291453578877L-116.29811639509636,183.72394914744189z" style="fill:rgb(127,37,217)"/><path d="M-84.85585914756032,177.5440302297264L-48.80002664175495,166.5062564638276L-84.633427995732,174.34959374952138z" style="fill:rgb(83,212,212)"/><path d="M-47.47553604467266,171.87569959599588L-84.85585914756032,177.5440302297264L-83.32648967316914,179.67212447128233z" style="fill:rgb(127,37,217)"/><path d="M-84.85585914756032,177.5440302297264L-48.9294445630554,169.7088812251523L-48.80002664175495,166.5062564638276z" style="fill:rgb(83,212,212)"/><path d="M-47.47553604467266,171.87569959599588L-48.9294445630554,169.7088812251523L-84.85585914756032,177.5440302297264z" style="fill:rgb(127,37,217)"/><path d="M-48.80002664175495,166.5062564638276L-47.47553604467266,171.87569959599588L-47.350274969106955,168.67529656031516zM-48.80002664175495,166.5062564638276L-48.9294445630554,169.7088812251523L-47.47553604467266,171.87569959599588z" style="fill:rgb(247,158,158)"/><path d="M-142.75644961057995,148.93273729806722L0.3699332196453291,116.20649431429231L0.32454504327588635,-25.78883456112395z" style="fill:rgb(83,212,212)"/><path d="M21.984218723158403,153.54226433625354L20.68455445851144,151.29727494404972L-117.89119016023827,181.6291453578877zM22.043387061802914,156.75757391995958L-48.9294445630554,169.7088812251523L-47.47553604467266,171.87569959599588z" style="fill:rgb(127,37,217)"/><path d="M58.457474153621,143.02942970247366L209.9932573589263,109.86082470500556L184.07369855826755,-32.20482998547072z" style="fill:rgb(83,212,212)"/><path d="M0.3699332196453291,116.20649431429231L1.7739350472386317,118.63171421801148L1.5567864506332496,-23.333878377011736z" style="fill:rgb(247,158,158)"/><path d="M22.043387061802914,156.75757391995958L20.74036600421725,154.51467783627518L-48.9294445630554,169.7088812251523z" style="fill:rgb(127,37,217)"/><path d="M172.261363645609,-68.23887560227591L171.38721189418018,-70.90550567451993L196.51774987187952,71.35673755041958z" style="fill:rgb(247,158,158)"/><path d="M171.38721189418018,-70.90550567451993L128.2740164343164,-202.42409503971092L-197.92004537416958,-105.22789049581327z" style="fill:rgb(127,37,217)"/><path d="M20.74036600421725,154.51467783627518L21.984218723158403,153.54226433625354L20.68455445851144,151.29727494404972zM20.74036600421725,154.51467783627518L22.043387061802914,156.75757391995958L21.984218723158403,153.54226433625354zM184.88815529579412,-29.720304497808353L209.9932573589263,109.86082470500556L210.8536965736945,112.31937766082021z" style="fill:rgb(247,158,158)"/><path d="M0.3709708378485828,119.45263884536989L39.56168855882908,110.52301237025645L34.48344289379163,-37.30458502859601z" style="fill:rgb(83,212,212)"/><path d="M59.83513206033674,148.539089666518L20.74036600421725,154.51467783627518L22.043387061802914,156.75757391995958z" style="fill:rgb(127,37,217)"/><path d="M-197.92004537416958,-105.22789049581327L127.90820418351531,-204.81585993474138L-197.39960232979388,-107.68887066903503z" style="fill:rgb(83,212,212)"/><path d="M35.643989462491845,-34.80835500607429L39.56168855882908,110.52301237025645L40.87921477755228,112.99358841608402z" style="fill:rgb(247,158,158)"/><path d="M-107.0884164629295,146.60780533949819L-143.14266432646932,152.15231202033536L-141.4206876367908,154.40716579103267zM210.58631386525826,113.11138271072923L-141.4206876367908,154.40716579103267L-118.19842097703525,184.81568714942878zM59.83513206033674,148.539089666518L58.61667438995338,146.2542684709214L20.74036600421725,154.51467783627518zM-107.0884164629295,146.60780533949819L-108.7375380389289,144.31308822208126L-143.14266432646932,152.15231202033536z" style="fill:rgb(127,37,217)"/><path d="M-108.44157318070309,141.0865495608752L-107.0884164629295,146.60780533949819L-106.79768370730912,143.38326658009754zM-108.44157318070309,141.0865495608752L-108.7375380389289,144.31308822208126L-107.0884164629295,146.60780533949819zM127.90820418351531,-204.81585993474138L128.2740164343164,-202.42409503971092L184.88815529579412,-29.720304497808353z" style="fill:rgb(247,158,158)"/><path d="M1.7739350472386317,118.63171421801148L-142.75644961057995,148.93273729806722L-141.04008379214568,151.18966323168976z" style="fill:rgb(127,37,217)"/><path d="M-70.07243327630852,138.19878552705487L-106.79768370730912,143.38326658009754L-107.0884164629295,146.60780533949819zM-108.7375380389289,144.31308822208126L-71.44444970429002,132.62705642884035L-108.44157318070309,141.0865495608752z" style="fill:rgb(83,212,212)"/><path d="M-70.07243327630852,138.19878552705487L-108.7375380389289,144.31308822208126L-107.0884164629295,146.60780533949819z" style="fill:rgb(127,37,217)"/><path d="M-70.07243327630852,138.19878552705487L-69.88041202247581,134.967074396424L-106.79768370730912,143.38326658009754z" style="fill:rgb(83,212,212)"/><path d="M133.16930065099575,132.59127095553433L58.61667438995338,146.2542684709214L59.83513206033674,148.539089666518z" style="fill:rgb(127,37,217)"/><path d="M-108.7375380389289,144.31308822208126L-71.64127688497236,135.86067530761346L-71.44444970429002,132.62705642884035z" style="fill:rgb(83,212,212)"/><path d="M-70.07243327630852,138.19878552705487L-71.64127688497236,135.86067530761346L-108.7375380389289,144.31308822208126zM210.8536965736945,112.31937766082021L58.457474153621,143.02942970247366L59.67303615586199,145.3162587890271z" style="fill:rgb(127,37,217)"/><path d="M-71.44444970429002,132.62705642884035L-70.07243327630852,138.19878552705487L-69.88041202247581,134.967074396424zM-71.44444970429002,132.62705642884035L-71.64127688497236,135.86067530761346L-70.07243327630852,138.19878552705487z" style="fill:rgb(247,158,158)"/><path d="M133.16930065099575,132.59127095553433L132.12001344861184,130.22400457641064L58.61667438995338,146.2542684709214zM1.7739350472386317,118.63171421801148L0.3699332196453291,116.20649431429231L-142.75644961057995,148.93273729806722z" style="fill:rgb(127,37,217)"/><path d="M131.75477431755039,126.98589859536474L133.16930065099575,132.59127095553433L132.80211447927567,129.35501568161763z" style="fill:rgb(247,158,158)"/><path d="M1.77889764434134,121.87612204826364L-71.64127688497236,135.86067530761346L-70.07243327630852,138.19878552705487z" style="fill:rgb(127,37,217)"/><path d="M131.75477431755039,126.98589859536474L132.12001344861184,130.22400457641064L133.16930065099575,132.59127095553433z" style="fill:rgb(247,158,158)"/><path d="M39.44996456932617,107.27072733832898L196.51774987187952,71.35673755041958L171.38721189418018,-70.90550567451993zM132.12001344861184,130.22400457641064L171.62905369302797,118.25809166647592L131.75477431755039,126.98589859536474z" style="fill:rgb(83,212,212)"/><path d="M173.06381450721165,123.9155033357335L132.12001344861184,130.22400457641064L133.16930065099575,132.59127095553433zM210.8536965736945,112.31937766082021L209.9932573589263,109.86082470500556L58.457474153621,143.02942970247366z" style="fill:rgb(127,37,217)"/><path d="M-197.92004537416958,-105.22789049581327L128.2740164343164,-202.42409503971092L127.90820418351531,-204.81585993474138z" style="fill:rgb(83,212,212)"/><path d="M1.77889764434134,121.87612204826364L0.3709708378485828,119.45263884536989L-71.64127688497236,135.86067530761346z" style="fill:rgb(127,37,217)"/><path d="M132.12001344861184,130.22400457641064L172.10938179099264,121.50277067047419L171.62905369302797,118.25809166647592z" style="fill:rgb(83,212,212)"/><path d="M173.06381450721165,123.9155033357335L172.10938179099264,121.50277067047419L132.12001344861184,130.22400457641064z" style="fill:rgb(127,37,217)"/><path d="M171.62905369302797,118.25809166647592L173.06381450721165,123.9155033357335L172.58208584207458,120.67259371388637zM171.62905369302797,118.25809166647592L172.10938179099264,121.50277067047419L173.06381450721165,123.9155033357335zM0.3709708378485828,119.45263884536989L1.7739350472386317,118.63171421801148L0.3699332196453291,116.20649431429231zM0.3709708378485828,119.45263884536989L1.77889764434134,121.87612204826364L1.7739350472386317,118.63171421801148z" style="fill:rgb(247,158,158)"/><path d="M211.44760727094376,115.56825871547434L172.10938179099264,121.50277067047419L173.06381450721165,123.9155033357335z" style="fill:rgb(127,37,217)"/><path d="M172.261363645609,-68.23887560227591L196.51774987187952,71.35673755041958L197.45067718316332,74.02241847151434z" style="fill:rgb(247,158,158)"/><path d="M40.87921477755228,112.99358841608402L1.7739350472386317,118.63171421801148L1.77889764434134,121.87612204826364z" style="fill:rgb(83,212,212)"/><path d="M40.87921477755228,112.99358841608402L0.3709708378485828,119.45263884536989L1.77889764434134,121.87612204826364z" style="fill:rgb(127,37,217)"/><path d="M40.87921477755228,112.99358841608402L40.764075522572156,109.74296151532411L1.7739350472386317,118.63171421801148z" style="fill:rgb(83,212,212)"/><path d="M211.44760727094376,115.56825871547434L210.58631386525826,113.11138271072923L172.10938179099264,121.50277067047419zM210.58631386525826,113.11138271072923L198.02982512795765,77.29325781530997L-141.4206876367908,154.40716579103267zM40.87921477755228,112.99358841608402L39.56168855882908,110.52301237025645L0.3709708378485828,119.45263884536989zM116.83442484219394,95.73863461111745L39.56168855882908,110.52301237025645L40.87921477755228,112.99358841608402zM197.45067718316332,74.02241847151434L39.44996456932617,107.27072733832898L40.764075522572156,109.74296151532411zM116.83442484219394,95.73863461111745L115.69820714025357,93.17525766656334L39.56168855882908,110.52301237025645z" style="fill:rgb(127,37,217)"/><path d="M115.36539923494327,89.91245251044108L116.83442484219394,95.73863461111745L116.49925438471209,92.47727506282527zM115.36539923494327,89.91245251044108L115.69820714025357,93.17525766656334L116.83442484219394,95.73863461111745z" style="fill:rgb(247,158,158)"/><path d="M158.2002147596642,86.34145824338204L116.49925438471209,92.47727506282527L116.83442484219394,95.73863461111745zM115.69820714025357,93.17525766656334L156.70932674179102,80.45904535021464L115.36539923494327,89.91245251044108z" style="fill:rgb(83,212,212)"/><path d="M158.2002147596642,86.34145824338204L115.69820714025357,93.17525766656334L116.83442484219394,95.73863461111745z" style="fill:rgb(127,37,217)"/><path d="M158.2002147596642,86.34145824338204L157.7418802443257,83.07500889907705L116.49925438471209,92.47727506282527z" style="fill:rgb(83,212,212)"/><path d="M197.45067718316332,74.02241847151434L196.51774987187952,71.35673755041958L39.44996456932617,107.27072733832898zM197.0957542194899,74.6287748133874L-228.66687091224912,40.16217992196055L-143.14266432646932,152.15231202033536z" style="fill:rgb(127,37,217)"/><path d="M115.69820714025357,93.17525766656334L157.16590745710872,83.72681419328578L156.70932674179102,80.45904535021464z" style="fill:rgb(83,212,212)"/><path d="M158.2002147596642,86.34145824338204L157.16590745710872,83.72681419328578L115.69820714025357,93.17525766656334z" style="fill:rgb(127,37,217)"/><path d="M156.70932674179102,80.45904535021464L158.2002147596642,86.34145824338204L157.7418802443257,83.07500889907705zM156.70932674179102,80.45904535021464L157.16590745710872,83.72681419328578L158.2002147596642,86.34145824338204z" style="fill:rgb(247,158,158)"/><path d="M198.02982512795765,77.29325781530997L157.16590745710872,83.72681419328578L158.2002147596642,86.34145824338204zM198.02982512795765,77.29325781530997L197.0957542194899,74.6287748133874L157.16590745710872,83.72681419328578z" style="fill:rgb(127,37,217)"/><path d="M149.6775835530052,-62.48138547098228L211.44760727094376,115.56825871547434L210.8536965736945,112.31937766082021z" style="fill:rgb(247,158,158)"/><path d="M197.0957542194899,74.6287748133874L150.17875149184118,-59.204579524710915L-228.66687091224912,40.16217992196055z" style="fill:rgb(127,37,217)"/><path d="M-228.66687091224912,40.16217992196055L149.6775835530052,-62.48138547098228L-227.972449412951,36.87852695215917z" style="fill:rgb(83,212,212)"/><path d="M149.6775835530052,-62.48138547098228L150.17875149184118,-59.204579524710915L211.44760727094376,115.56825871547434z" style="fill:rgb(247,158,158)"/><path d="M-228.66687091224912,40.16217992196055L150.17875149184118,-59.204579524710915L149.6775835530052,-62.48138547098228z" style="fill:rgb(83,212,212)"/></svg>
