<?xml version="1.0" encoding="UTF-8"?>
<!-- Generated by jsxcad -->
<!DOCTYPE svg PUBLIC "-//W3C//DTD SVG 1.1 Tiny//EN" "http://www.w3.org/Graphics/SVG/1.1/DTD/svg11-tiny.dtd">
<svg viewBox="-250 -250 500 500" width="500" height="500" xmlns="http://www.w3.org/2000/svg"><path d="M-71.3244733313657,123.73322022009836L68.46986861023974,-123.52201978125592L-71.32277980233314,-123.52201978125586zM68.46986861023974,-123.52201978125592L-71.3244733313657,123.73322022009836L68.47149439811113,123.7332202200983z" style="fill:rgb(127,127,254)"/><path d="M68.2844115973181,123.39543182808862L71.54052119248944,-129.06625363803906L68.2827946813967,-123.1842474080449zM71.54052119248944,-129.06625363803906L68.2844115973181,123.39543182808862L71.54060652135287,-116.64616345420714zM71.54060652135287,-116.64616345420714L68.2844115973181,123.39543182808862L71.54062700031038,-113.66533740147769zM71.54062700031038,-113.66533740147769L68.2844115973181,123.39543182808862L71.54221074187093,116.85704644148669zM71.54221074187093,116.85704644148669L68.2844115973181,123.39543182808862L71.5422312217469,119.8380061793174zM71.5422312217469,119.8380061793174L68.2844115973181,123.39543182808862L71.54229607476478,129.27772327511212z" style="fill:rgb(0,127,127)"/><path d="M-4.145903206273334e-14,-113.34059459331208L29.72350064771096,-116.31291229136772L-4.226700785617104e-14,-116.31291229136771zM29.72350064771096,-116.31291229136772L-4.145903206273334e-14,-113.34059459331208L29.72350913196696,-113.34059459331209zM2.183382771679867e-14,119.49623097527709L29.724165262434582,116.52378035421911L2.1025814951182042e-14,116.52378035421913zM29.724165262434582,116.52378035421911L2.183382771679867e-14,119.49623097527709L29.724173747069997,119.49623097527707z" style="fill:rgb(127,127,254)"/><path d="M29.72350064771096,-116.31291229136772L-4.113284744910588e-14,-116.42378442664204L-4.226700785617104e-14,-116.31291229136771z" style="fill:rgb(127,0,127)"/><path d="M29.72350913196696,-113.34059459331209L29.751808426788397,-116.42378442664206L29.72350064771096,-116.31291229136772zM29.724173747069997,119.49623097527707L29.752474308047653,116.63465745009137L29.724165262434582,116.52378035421911z" style="fill:rgb(0,127,127)"/><path d="M2.3029063577270752e-14,119.60993904067064L29.724173747069997,119.49623097527707L2.183382771679867e-14,119.49623097527709z" style="fill:rgb(127,254,127)"/><path d="M-4.113284744910588e-14,-116.42378442664204L29.72350064771096,-116.31291229136772L29.751808426788397,-116.42378442664206z" style="fill:rgb(127,0,127)"/><path d="M29.751808426788397,-116.42378442664206L29.72350913196696,-113.34059459331209L29.7518169272124,-113.4486360123724zM29.752474308047653,116.63465745009137L29.724173747069997,119.49623097527707L29.752482808852157,119.60993904067062z" style="fill:rgb(0,127,127)"/><path d="M29.724173747069997,119.49623097527707L2.3029063577270752e-14,119.60993904067064L29.752482808852157,119.60993904067062z" style="fill:rgb(127,254,127)"/><path d="M-3.8783966117617027e-14,-116.42378442664204L29.751773008407348,-128.8202178534682L-4.2912807861725623e-14,-128.8202178534682zM29.751773008407348,-128.8202178534682L-3.8783966117617027e-14,-116.42378442664204L29.751808426788397,-116.42378442664206zM-3.779304263625727e-14,-113.44863601237239L-3.8783966117617027e-14,-116.42378442664204L-4.0324101839261354e-14,-113.44863601237239z" style="fill:rgb(127,127,254)"/><path d="M-4.145903206273334e-14,-113.34059459331208L-3.885803321259598e-14,-116.64616345420711L-4.226700785617104e-14,-116.31291229136771z" style="fill:rgb(0,127,127)"/><path d="M29.72350913196696,-113.34059459331209L-3.804774369228582e-14,-113.66533740147766L-4.145903206273334e-14,-113.34059459331208z" style="fill:rgb(127,0,127)"/><path d="M29.751773008407348,-128.8202178534682L71.40602334743622,129.03167529398308L71.40425522017767,-128.82021785346822zM-74.38127432024599,129.03167529398314L-4.2912807861725623e-14,-128.8202178534682L-74.37943252101851,-128.82021785346817zM71.40602334743622,129.03167529398308L29.751773008407348,-128.8202178534682L29.751808426788397,-116.42378442664206zM-4.2912807861725623e-14,-128.8202178534682L-74.38127432024599,129.03167529398314L-4.113284744910588e-14,-116.42378442664204zM3.884008835882693e-14,116.63465745009138L29.7518169272124,-113.4486360123724L-3.779304263625727e-14,-113.44863601237239zM71.40602334743622,129.03167529398308L29.751808426788397,-116.42378442664206L29.7518169272124,-113.4486360123724zM-3.8783966117617027e-14,-116.42378442664204L-74.38127432024599,129.03167529398314L-4.0324101839261354e-14,-113.44863601237239zM29.7518169272124,-113.4486360123724L3.884008835882693e-14,116.63465745009138L29.752474308047653,116.63465745009137zM71.40602334743622,129.03167529398308L29.7518169272124,-113.4486360123724L29.752474308047653,116.63465745009137zM-4.0324101839261354e-14,-113.44863601237239L-74.38127432024599,129.03167529398314L2.2220280925575523e-14,116.63465745009138zM3.983105619680826e-14,119.60993904067064L3.884008835882693e-14,116.63465745009138L2.3029063577270752e-14,119.60993904067064zM2.2220280925575523e-14,116.63465745009138L-74.38127432024599,129.03167529398314L3.884008835882693e-14,116.63465745009138zM71.40602334743622,129.03167529398308L29.752474308047653,116.63465745009137L29.752482808852157,119.60993904067062zM3.884008835882693e-14,116.63465745009138L-74.38127432024599,129.03167529398314L2.3029063577270752e-14,119.60993904067064zM4.296912475292018e-14,129.0316752939831L29.752482808852157,119.60993904067062L3.983105619680826e-14,119.60993904067064zM71.40602334743622,129.03167529398308L29.752482808852157,119.60993904067062L29.752509728098456,129.0316752939831zM2.3029063577270752e-14,119.60993904067064L-74.38127432024599,129.03167529398314L4.296912475292018e-14,129.0316752939831zM29.752482808852157,119.60993904067062L4.296912475292018e-14,129.0316752939831L29.752509728098456,129.0316752939831z" style="fill:rgb(127,127,254)"/><path d="M3.891415877242801e-14,116.85704644148672L29.724165262434582,116.52378035421911L3.528311058344538e-14,116.52378035421913z" style="fill:rgb(127,254,127)"/><path d="M3.609112657950071e-14,119.49623097527709L3.891415877242801e-14,116.85704644148672L3.528311058344538e-14,116.52378035421913zM-3.885803321259598e-14,-116.64616345420711L-4.145903206273334e-14,-113.34059459331208L-3.804774369228582e-14,-113.66533740147766z" style="fill:rgb(0,127,127)"/><path d="M-3.804774369228582e-14,-113.66533740147766L29.72350913196696,-113.34059459331209L29.808594583462643,-113.66533740147767z" style="fill:rgb(127,0,127)"/><path d="M29.724165262434582,116.52378035421911L3.891415877242801e-14,116.85704644148672L29.80925447577958,116.8570464414867z" style="fill:rgb(127,254,127)"/><path d="M3.891415877242801e-14,116.85704644148672L3.609112657950071e-14,119.49623097527709L3.972448872589517e-14,119.83800617931743z" style="fill:rgb(0,127,127)"/><path d="M71.54062700031038,-113.66533740147769L74.52146512640924,-116.64616345420714L71.54060652135287,-116.64616345420714zM-3.804774369228582e-14,-113.66533740147766L29.80858605056368,-116.64616345420713L-3.885803321259598e-14,-116.64616345420711zM74.52146512640924,-116.64616345420714L71.54062700031038,-113.66533740147769L74.52148645865665,-113.66533740147769zM29.80858605056368,-116.64616345420713L-3.804774369228582e-14,-113.66533740147766L29.808594583462643,-113.66533740147767zM71.5422312217469,119.8380061793174L74.52313618944889,116.85704644148669L71.54221074187093,116.85704644148669zM3.972448872589517e-14,119.83800617931743L29.80925447577958,116.8570464414867L3.891415877242801e-14,116.85704644148672zM74.52313618944889,116.85704644148669L71.5422312217469,119.8380061793174L74.52315752265302,119.8380061793174zM29.80925447577958,116.8570464414867L3.972448872589517e-14,119.83800617931743L29.809263009061233,119.83800617931742z" style="fill:rgb(127,127,254)"/><path d="M-85.07436286816441,-147.35809721454373L-71.12959541387295,123.39543182808865L-71.12791112645498,-123.18424740804484z" style="fill:rgb(255,127,127)"/><path d="M71.54060652135287,-116.64616345420714L81.67138835343773,-147.35809721454382L71.54052119248944,-129.06625363803906z" style="fill:rgb(0,127,127)"/><path d="M74.52146512640924,-116.64616345420714L81.67149956033182,-133.17921814909502L71.54060652135287,-116.64616345420714zM74.52148645865665,-113.66533740147769L-85.07450651044954,-129.77628142776936L-74.52148645865674,-113.66533740147763z" style="fill:rgb(127,0,127)"/><path d="M81.67359030630786,133.39089511889674L71.54062700031038,-113.66533740147769L71.54221074187093,116.85704644148669z" style="fill:rgb(0,127,127)"/><path d="M-85.0766565690706,133.3908951188968L74.52313618944889,116.85704644148669L-74.5231361894488,116.85704644148674zM71.5422312217469,119.8380061793174L85.07668437226461,136.79400606914L74.52315752265302,119.8380061793174z" style="fill:rgb(127,254,127)"/><path d="M81.67370151919856,147.5705387523594L71.5422312217469,119.8380061793174L71.54229607476478,129.27772327511212z" style="fill:rgb(0,127,127)"/><path d="M-71.12959541387295,123.39543182808865L-85.07436286816441,-147.35809721454373L-85.07677241583174,147.57053875235945z" style="fill:rgb(255,127,127)"/><path d="M81.67138835343773,-147.35809721454382L71.54060652135287,-116.64616345420714L81.67149956033182,-133.17921814909502z" style="fill:rgb(0,127,127)"/><path d="M81.67149956033182,-133.17921814909502L74.52146512640924,-116.64616345420714L85.07447870867898,-133.17921814909502zM-85.07450651044954,-129.77628142776936L74.52148645865665,-113.66533740147769L85.07450651044944,-129.77628142776942z" style="fill:rgb(127,0,127)"/><path d="M71.54062700031038,-113.66533740147769L81.67359030630786,133.39089511889674L81.67152625003146,-129.77628142776942z" style="fill:rgb(0,127,127)"/><path d="M74.52313618944889,116.85704644148669L-85.0766565690706,133.3908951188968L85.07665656907069,133.39089511889674zM85.07668437226461,136.79400606914L71.5422312217469,119.8380061793174L81.67361699737403,136.79400606914z" style="fill:rgb(127,254,127)"/><path d="M71.5422312217469,119.8380061793174L81.67370151919856,147.5705387523594L81.67361699737403,136.79400606914z" style="fill:rgb(0,127,127)"/><path d="M81.67149956033182,-133.17921814909502L85.07436286816431,-147.35809721454382L81.67138835343773,-147.35809721454382zM85.07436286816431,-147.35809721454382L81.67149956033182,-133.17921814909502L85.07447870867898,-133.17921814909502zM-85.07450651044954,-129.77628142776936L85.07447870867898,-133.17921814909502L-85.07447870867908,-133.17921814909496zM85.07447870867898,-133.17921814909502L-85.07450651044954,-129.77628142776936L85.07450651044944,-129.77628142776942zM-88.47984331246502,147.57053875235945L-85.07436286816441,-147.35809721454373L-88.47733738289097,-147.35809721454373zM81.67359030630786,133.39089511889674L85.07450651044944,-129.77628142776942L81.67152625003146,-129.77628142776942zM85.07450651044944,-129.77628142776942L81.67359030630786,133.39089511889674L85.07665656907069,133.39089511889674zM-85.07436286816441,-147.35809721454373L-88.47984331246502,147.57053875235945L-85.07677241583174,147.57053875235945zM-85.07668437226451,136.79400606914007L85.07665656907069,133.39089511889674L-85.0766565690706,133.3908951188968zM85.07665656907069,133.39089511889674L-85.07668437226451,136.79400606914007L85.07668437226461,136.79400606914zM81.67370151919856,147.5705387523594L85.07668437226461,136.79400606914L81.67361699737403,136.79400606914zM85.07668437226461,136.79400606914L81.67370151919856,147.5705387523594L85.07677241583184,147.5705387523594z" style="fill:rgb(127,127,254)"/><path d="M-4.746955146110262e-14,-129.7762814277694L-4.451019317784435e-14,-133.61620712976114L-4.8394583465826736e-14,-133.179218149095z" style="fill:rgb(0,127,127)"/><path d="M34.02980260417975,-129.7762814277694L-4.358212719631804e-14,-130.20211352174599L-4.746955146110262e-14,-129.7762814277694z" style="fill:rgb(127,0,127)"/><path d="M4.456659065111754e-14,133.8279065098889L34.0306626276283,133.39089511889674L4.039099659809932e-14,133.39089511889676z" style="fill:rgb(127,254,127)"/><path d="M4.1316081298423777e-14,136.79400606914004L4.4566590651117563e-14,133.8279065098889L4.039099659809932e-14,133.39089511889676zM-4.451019317784435e-14,-133.61620712976114L-4.746955146110262e-14,-129.7762814277694L-4.358212719631804e-14,-130.20211352174599z" style="fill:rgb(0,127,127)"/><path d="M-4.358212719631804e-14,-130.20211352174599L34.02980260417975,-129.7762814277694L34.14137433130136,-130.20211352174599z" style="fill:rgb(127,0,127)"/><path d="M34.0306626276283,133.39089511889674L4.456659065111754e-14,133.8279065098889L34.14224000349394,133.8279065098889z" style="fill:rgb(127,254,127)"/><path d="M4.4566590651117563e-14,133.8279065098889L4.1316081298423777e-14,136.79400606914004L4.549470967441966e-14,137.24217549117958z" style="fill:rgb(0,127,127)"/><path d="M-4.358212719631804e-14,-130.20211352174599L34.14136313755187,-133.61620712976116L-4.451019317784435e-14,-133.61620712976114zM34.14136313755187,-133.61620712976116L-4.358212719631804e-14,-130.20211352174599L34.14137433130136,-130.20211352174599zM4.549470967441966e-14,137.24217549117958L34.14224000349394,133.8279065098889L4.456659065111754e-14,133.8279065098889zM34.14224000349394,133.8279065098889L4.549470967441966e-14,137.24217549117958L34.14225119781841,137.24217549117958z" style="fill:rgb(127,127,254)"/></svg>
