<?xml version="1.0" encoding="UTF-8"?>
<!-- Generated by jsxcad -->
<!DOCTYPE svg PUBLIC "-//W3C//DTD SVG 1.1 Tiny//EN" "http://www.w3.org/Graphics/SVG/1.1/DTD/svg11-tiny.dtd">
<svg viewBox="-250 -250 500 500" width="500" height="500" xmlns="http://www.w3.org/2000/svg"><path d="M-67.6192641819277,117.31085766229401L64.91303235245356,-117.09995428369832L-67.61774203380587,-117.09995428369828zM64.91303235245356,-117.09995428369832L-67.6192641819277,117.31085766229401L64.91449361465067,117.31085766229396z" style="fill:rgb(127,127,254)"/><path d="M64.74631946343484,117.00720988774715L67.66653120180399,-122.07154945321682L64.74486576273705,-116.7963201618587zM67.66653120180399,-122.07154945321682L64.74631946343484,117.00720988774715L67.66660753959012,-110.32401230652522zM67.66660753959012,-110.32401230652522L64.74631946343484,117.00720988774715L67.66662586068442,-107.50459944724103zM67.66662586068442,-107.50459944724103L64.74631946343484,117.00720988774715L67.66804272202754,110.53461943304679zM67.66804272202754,110.53461943304679L64.74631946343484,117.00720988774715L67.66806104389902,113.35415189091661zM67.66806104389902,113.35415189091661L64.74631946343484,117.00720988774715L67.66811906322414,122.28268141374406zM-3.897282662762424e-14,-106.54209828554455L-3.6521430732357556e-14,-109.63074874799729L-3.973238286527581e-14,-109.33629330624836z" style="fill:rgb(0,127,127)"/><path d="M27.94224373272459,-106.54209828554457L-3.575983012630029e-14,-106.82903587021187L-3.897282662762424e-14,-106.54209828554455z" style="fill:rgb(127,0,127)"/><path d="M3.65774546480109e-14,109.84132655882006L27.942823577865788,109.5468587214401L3.317028210444323e-14,109.54685872144012z" style="fill:rgb(127,254,127)"/><path d="M3.392987387053772e-14,112.341171210788L3.65774546480109e-14,109.84132655882006L3.317028210444323e-14,109.54685872144012zM-3.6521430732357556e-14,-109.63074874799729L-3.897282662762424e-14,-106.54209828554455L-3.575983012630029e-14,-106.82903587021187z" style="fill:rgb(0,127,127)"/><path d="M-3.575983012630029e-14,-106.82903587021187L27.94224373272459,-106.54209828554457L28.017423885536633,-106.82903587021188z" style="fill:rgb(127,0,127)"/><path d="M27.942823577865788,109.5468587214401L3.65774546480109e-14,109.84132655882006L28.018006855118795,109.84132655882004z" style="fill:rgb(127,254,127)"/><path d="M3.65774546480109e-14,109.84132655882006L3.392987387053772e-14,112.341171210788L3.7339090973987704e-14,112.64315753821835z" style="fill:rgb(0,127,127)"/><path d="M-3.575983012630029e-14,-106.82903587021187L28.017416347295743,-109.63074874799729L-3.6521430732357556e-14,-109.63074874799729zM28.017416347295743,-109.63074874799729L-3.575983012630029e-14,-106.82903587021187L28.017423885536633,-106.82903587021188zM3.7339090973987704e-14,112.64315753821835L28.018006855118795,109.84132655882004L3.65774546480109e-14,109.84132655882006zM28.018006855118795,109.84132655882004L3.7339090973987704e-14,112.64315753821835L28.018014393677454,112.64315753821833zM-70.36061780876004,122.06253730589512L67.5446109518577,-121.85141566749093L-70.35896974151854,-121.85141566749087zM67.5446109518577,-121.85141566749093L-70.36061780876004,122.06253730589512L67.54619309640971,122.06253730589506zM67.66662586068442,-107.50459944724103L70.48604952040638,-110.32401230652522L67.66660753959012,-110.32401230652522zM70.48604952040638,-110.32401230652522L67.66662586068442,-107.50459944724103L70.4860686048796,-107.50459944724103zM67.66806104389902,113.35415189091661L70.48754450211202,110.53461943304679L67.66804272202754,110.53461943304679zM70.48754450211202,110.53461943304679L67.66806104389902,113.35415189091661L70.4875635873948,113.35415189091661z" style="fill:rgb(127,127,254)"/><path d="M-79.85514617872381,-138.31145490761355L-67.44408277441121,117.0072098877472L-67.44256850285119,-116.79632016185865z" style="fill:rgb(255,127,127)"/><path d="M70.4860686048796,-107.50459944724103L-74.8787283971736,-114.21072676367366L-70.48606860487969,-107.50459944724098z" style="fill:rgb(127,0,127)"/><path d="M-74.88039398305027,117.41675032092753L70.48754450211202,110.53461943304679L-70.48754450211193,110.53461943304684z" style="fill:rgb(127,254,127)"/><path d="M29.951491358869394,-114.2107267636737L70.4860686048796,-107.50459944724103L74.87872839717352,-114.21072676367372zM-4.177723880041217e-14,-114.21072676367369L70.4860686048796,-107.50459944724103L29.951491358869394,-114.2107267636737zM-74.8787283971736,-114.21072676367366L70.4860686048796,-107.50459944724103L-4.177723880041217e-14,-114.21072676367369z" style="fill:rgb(127,0,127)"/><path d="M70.48754450211202,110.53461943304679L29.95215759322016,117.41675032092749L74.88039398305035,117.41675032092748zM70.48754450211202,110.53461943304679L3.555352961290545e-14,117.4167503209275L29.95215759322016,117.41675032092749zM70.48754450211202,110.53461943304679L-74.88039398305027,117.41675032092753L3.555352961290545e-14,117.4167503209275z" style="fill:rgb(127,254,127)"/><path d="M67.66660753959012,-110.32401230652522L76.66094033157478,-138.3114549076136L67.66653120180399,-122.07154945321682z" style="fill:rgb(0,127,127)"/><path d="M70.48604952040638,-110.32401230652522L76.66103831217205,-125.00242371017256L67.66660753959012,-110.32401230652522z" style="fill:rgb(127,0,127)"/><path d="M76.66288039401753,125.21369487392583L67.66662586068442,-107.50459944724103L67.66804272202754,110.53461943304679z" style="fill:rgb(0,127,127)"/><path d="M67.66806104389902,113.35415189091661L79.85719157346695,128.40802093047517L70.4875635873948,113.35415189091661z" style="fill:rgb(127,254,127)"/><path d="M76.66297837957408,138.52339970502393L67.66806104389902,113.35415189091661L67.66811906322414,122.28268141374406z" style="fill:rgb(0,127,127)"/><path d="M-4.177723880041217e-14,-114.21072676367369L29.95148274396413,-117.20584217282396L-4.259141175403094e-14,-117.20584217282395zM29.95148274396413,-117.20584217282396L-4.177723880041217e-14,-114.21072676367369L29.951491358869394,-114.2107267636737zM3.636774338822962e-14,120.4120006999879L29.95215759322016,117.41675032092749L3.555352961290545e-14,117.4167503209275zM29.95215759322016,117.41675032092749L3.636774338822962e-14,120.4120006999879L29.952166208513642,120.41200069998789z" style="fill:rgb(127,127,254)"/><path d="M29.951491358869394,-114.2107267636737L30.03788027575345,-117.54423250735742L29.95148274396413,-117.20584217282396zM-4.177723880041217e-14,-114.21072676367369L-3.915715029474923e-14,-117.5442325073574L-4.259141175403094e-14,-117.20584217282395z" style="fill:rgb(0,127,127)"/><path d="M74.87872839717352,-114.21072676367372L30.037888940431213,-114.54047753495009L29.951491358869394,-114.2107267636737zM-4.177723880041217e-14,-114.21072676367369L-75.09472235107818,-114.54047753495004L-74.8787283971736,-114.21072676367366zM29.951491358869394,-114.2107267636737L-3.8340627933033937e-14,-114.54047753495007L-4.177723880041217e-14,-114.21072676367369z" style="fill:rgb(127,0,127)"/><path d="M-74.88039398305027,117.41675032092753L3.9213289321080965e-14,117.75515592645242L3.555352961290545e-14,117.4167503209275zM30.038559023986004,117.7551559264524L74.88039398305035,117.41675032092748L29.95215759322016,117.41675032092749zM3.9213289321080965e-14,117.75515592645242L29.95215759322016,117.41675032092749L3.555352961290545e-14,117.4167503209275z" style="fill:rgb(127,254,127)"/><path d="M29.952166208513642,120.41200069998789L30.038559023986004,117.7551559264524L29.95215759322016,117.41675032092749zM3.636774338822962e-14,120.4120006999879L3.9213289321080965e-14,117.75515592645242L3.555352961290545e-14,117.4167503209275zM30.03788027575345,-117.54423250735742L29.951491358869394,-114.2107267636737L30.037888940431213,-114.54047753495009zM-3.915715029474923e-14,-117.5442325073574L-4.177723880041217e-14,-114.21072676367369L-3.8340627933033937e-14,-114.54047753495007z" style="fill:rgb(0,127,127)"/><path d="M30.037888940431213,-114.54047753495009L74.87872839717352,-114.21072676367372L75.09472235107809,-114.5404775349501zM-75.09472235107818,-114.54047753495004L-4.177723880041217e-14,-114.21072676367369L-3.8340627933033937e-14,-114.54047753495007zM-3.8340627933033937e-14,-114.54047753495007L29.951491358869394,-114.2107267636737L30.037888940431213,-114.54047753495009z" style="fill:rgb(127,0,127)"/><path d="M3.9213289321080965e-14,117.75515592645242L-74.88039398305027,117.41675032092753L-75.09639755996487,117.75515592645245zM74.88039398305035,117.41675032092748L30.038559023986004,117.7551559264524L75.09639755996496,117.75515592645239zM29.95215759322016,117.41675032092749L3.9213289321080965e-14,117.75515592645242L30.038559023986004,117.7551559264524z" style="fill:rgb(127,254,127)"/><path d="M30.038559023986004,117.7551559264524L29.952166208513642,120.41200069998789L30.03856768905535,120.75904664856566zM3.9213289321080965e-14,117.75515592645242L3.636774338822962e-14,120.4120006999879L4.002985274039443e-14,120.75904664856567z" style="fill:rgb(0,127,127)"/><path d="M-3.8340627933033937e-14,-114.54047753495007L30.03788027575345,-117.54423250735742L-3.915715029474921e-14,-117.5442325073574zM30.03788027575345,-117.54423250735742L-3.8340627933033937e-14,-114.54047753495007L30.037888940431213,-114.54047753495009zM4.002985274039443e-14,120.75904664856567L30.038559023986004,117.7551559264524L3.9213289321080965e-14,117.75515592645242zM30.038559023986004,117.7551559264524L4.002985274039443e-14,120.75904664856567L30.03856768905535,120.75904664856566z" style="fill:rgb(127,127,254)"/><path d="M-67.44408277441121,117.0072098877472L-79.85514617872381,-138.31145490761355L-79.8572691453896,138.52339970502402z" style="fill:rgb(255,127,127)"/><path d="M79.85527273703404,-121.80825116051508L30.037888940431213,-114.54047753495009L75.09472235107809,-114.5404775349501zM79.85527273703404,-121.80825116051508L-3.8340627933033937e-14,-114.54047753495007L30.037888940431213,-114.54047753495009zM-3.8340627933033937e-14,-114.54047753495007L-79.85527273703413,-121.80825116051501L-75.09472235107818,-114.54047753495004z" style="fill:rgb(127,0,127)"/><path d="M30.038559023986004,117.7551559264524L79.85716707710161,125.21369487392583L75.09639755996496,117.75515592645239zM3.9213289321080965e-14,117.75515592645242L79.85716707710161,125.21369487392583L30.038559023986004,117.7551559264524zM-75.09639755996487,117.75515592645245L79.85716707710161,125.21369487392583L3.9213289321080965e-14,117.75515592645242z" style="fill:rgb(127,254,127)"/><path d="M76.66094033157478,-138.3114549076136L67.66660753959012,-110.32401230652522L76.66103831217205,-125.00242371017256z" style="fill:rgb(0,127,127)"/><path d="M76.66103831217205,-125.00242371017256L70.48604952040638,-110.32401230652522L79.85524824184591,-125.00242371017256z" style="fill:rgb(127,0,127)"/><path d="M67.66662586068442,-107.50459944724103L76.66288039401753,125.21369487392583L76.66106182755267,-121.80825116051508z" style="fill:rgb(0,127,127)"/><path d="M79.85719157346695,128.40802093047517L67.66806104389902,113.35415189091661L76.66290391052827,128.40802093047517z" style="fill:rgb(127,254,127)"/><path d="M67.66806104389902,113.35415189091661L76.66297837957408,138.52339970502393L76.66290391052827,128.40802093047517z" style="fill:rgb(0,127,127)"/><path d="M-79.85527273703413,-121.80825116051501L-3.8340627933033937e-14,-114.54047753495007L79.85527273703404,-121.80825116051508z" style="fill:rgb(127,0,127)"/><path d="M79.85716707710161,125.21369487392583L-75.09639755996487,117.75515592645245L-79.85716707710151,125.21369487392589z" style="fill:rgb(127,254,127)"/><path d="M76.66103831217205,-125.00242371017256L79.85514617872373,-138.3114549076136L76.66094033157478,-138.3114549076136zM79.85514617872373,-138.3114549076136L76.66103831217205,-125.00242371017256L79.85524824184591,-125.00242371017256zM-79.85527273703413,-121.80825116051501L79.85524824184591,-125.00242371017256L-79.85524824184598,-125.00242371017251zM79.85524824184591,-125.00242371017256L-79.85527273703413,-121.80825116051501L79.85527273703404,-121.80825116051508zM-83.05155991120517,138.52339970502402L-79.85514617872381,-138.31145490761355L-83.04935202587276,-138.31145490761355zM76.66288039401753,125.21369487392583L79.85527273703404,-121.80825116051508L76.66106182755267,-121.80825116051508zM79.85527273703404,-121.80825116051508L76.66288039401753,125.21369487392583L79.85716707710161,125.21369487392583zM-79.85514617872381,-138.31145490761355L-83.05155991120517,138.52339970502402L-79.8572691453896,138.52339970502402zM-79.85719157346686,128.40802093047523L79.85716707710161,125.21369487392583L-79.85716707710151,125.21369487392589zM79.85716707710161,125.21369487392583L-79.85719157346686,128.40802093047523L79.85719157346695,128.40802093047517zM76.66297837957408,138.52339970502393L79.85719157346695,128.40802093047517L76.66290391052827,128.40802093047517zM79.85719157346695,128.40802093047517L76.66297837957408,138.52339970502393L79.85726914538968,138.52339970502393z" style="fill:rgb(127,127,254)"/><path d="M-4.501621383494949e-14,-123.06766171454068L-4.2202562209963255e-14,-126.68777648505586L-4.589346660121403e-14,-126.2948311236613z" style="fill:rgb(0,127,127)"/><path d="M32.27208565753725,-123.06766171454069L-4.132258126078244e-14,-123.450574666119L-4.501621383494949e-14,-123.06766171454068z" style="fill:rgb(127,0,127)"/><path d="M4.225884421712835e-14,126.89912918976937L32.27285913013605,126.50616471929513L3.830608648671311e-14,126.50616471929513z" style="fill:rgb(127,254,127)"/><path d="M3.918338664541258e-14,129.73349082332075L4.225884421712835e-14,126.89912918976937L3.830608648671311e-14,126.50616471929513zM-4.2202562209963255e-14,-126.68777648505586L-4.501621383494949e-14,-123.06766171454068L-4.132258126078244e-14,-123.450574666119z" style="fill:rgb(0,127,127)"/><path d="M-4.132258126078244e-14,-123.450574666119L32.27208565753725,-123.06766171454069L32.372412194567055,-123.45057466611901z" style="fill:rgb(127,0,127)"/><path d="M32.27285913013605,126.50616471929513L4.225884421712835e-14,126.89912918976937L32.37319048379803,126.89912918976937z" style="fill:rgb(127,254,127)"/><path d="M4.225884421712835e-14,126.89912918976937L3.918338664541258e-14,129.73349082332075L4.3138872853924576e-14,130.1364886793947z" style="fill:rgb(0,127,127)"/><path d="M-4.132258126078244e-14,-123.450574666119L32.37240213072725,-126.68777648505586L-4.2202562209963255e-14,-126.68777648505586zM32.37240213072725,-126.68777648505586L-4.132258126078244e-14,-123.450574666119L32.372412194567055,-123.45057466611901zM4.3138872853924576e-14,130.1364886793947L32.37319048379803,126.89912918976937L4.225884421712835e-14,126.89912918976937zM32.37319048379803,126.89912918976937L4.3138872853924576e-14,130.1364886793947L32.373200548128,130.1364886793947z" style="fill:rgb(127,127,254)"/></svg>
