<?xml version="1.0" encoding="UTF-8"?>
<!-- Generated by jsxcad -->
<!DOCTYPE svg PUBLIC "-//W3C//DTD SVG 1.1 Tiny//EN" "http://www.w3.org/Graphics/SVG/1.1/DTD/svg11-tiny.dtd">
<svg viewBox="-250 -250 500 500" width="500" height="500" xmlns="http://www.w3.org/2000/svg"><path d="M53.39886454804977,-219.65855809029912L-41.63986191687904,-14.345832615980285L116.060234639858,-55.92343891449551z" style="fill:rgb(127,37,217)"/><path d="M115.7935516342839,-58.18721427489486L53.39886454804977,-219.65855809029912L116.060234639858,-55.92343891449551z" style="fill:rgb(247,158,158)"/><path d="M-41.63986191687904,-14.345832615980285L53.39886454804977,-219.65855809029912L-124.09790650272731,-165.05773508410252z" style="fill:rgb(127,37,217)"/><path d="M-42.84501334651654,-16.548533381905045L139.41086550563423,184.7603798984245L111.86749421377655,-57.43586070409866z" style="fill:rgb(83,212,212)"/><path d="M139.41086550563423,184.7603798984245L112.78461910815544,-55.05982519505277L111.86749421377655,-57.43586070409866z" style="fill:rgb(247,158,158)"/><path d="M-127.16948561211075,-166.22731644536856L-124.09790650272731,-165.05773508410252L-123.78447038551194,-167.27041630053625z" style="fill:rgb(83,212,212)"/><path d="M53.39886454804977,-219.65855809029912L115.7935516342839,-58.18721427489486L53.25790697142539,-221.82697275007257z" style="fill:rgb(247,158,158)"/><path d="M-124.09790650272731,-165.05773508410252L-127.16948561211075,-166.22731644536856L-127.49121497317037,-164.0139112366745zM-61.54512744388536,-50.727494732258165L122.66718943783044,148.59326481284631L97.61772660537174,-94.35348924945943zM-124.09790650272731,-165.05773508410252L53.25790697142539,-221.82697275007257L-123.78447038551194,-167.27041630053625z" style="fill:rgb(83,212,212)"/><path d="M122.66718943783044,148.59326481284631L98.59743207009437,-91.8153247083619L97.61772660537174,-94.35348924945943z" style="fill:rgb(247,158,158)"/><path d="M53.25790697142539,-221.82697275007257L-124.09790650272731,-165.05773508410252L53.39886454804977,-219.65855809029912zM139.41086550563423,184.7603798984245L-42.84501334651654,-16.548533381905045L-52.90939268069825,224.12457792404484z" style="fill:rgb(83,212,212)"/><path d="M-158.47365029414877,77.61500063233518L-41.547799438386,-16.615956160243677L-123.78447038551194,-167.27041630053625zM112.78461910815544,-55.05982519505277L139.41086550563423,184.7603798984245L140.47901671005295,187.06761487091387z" style="fill:rgb(247,158,158)"/><path d="M122.66718943783044,148.59326481284631L-61.54512744388536,-50.727494732258165L-76.5833140245707,191.26822857187364z" style="fill:rgb(83,212,212)"/><path d="M-41.547799438386,-16.615956160243677L-158.47365029414877,77.61500063233518L-51.39601550593499,226.22495234359985z" style="fill:rgb(247,158,158)"/><path d="M-162.76791850378274,78.67963430434479L-124.09790650272731,-165.05773508410252L-127.49121497317037,-164.0139112366745z" style="fill:rgb(83,212,212)"/><path d="M-51.39601550593499,226.22495234359985L139.41086550563423,184.7603798984245L-52.90939268069825,224.12457792404484z" style="fill:rgb(127,37,217)"/><path d="M98.59743207009437,-91.8153247083619L122.66718943783044,148.59326481284631L123.82729284887789,151.0991304802319zM69.05624359928223,21.20576713007103L116.060234639858,-55.92343891449551L53.39886454804977,-219.65855809029912z" style="fill:rgb(247,158,158)"/><path d="M139.41086550563423,184.7603798984245L-51.39601550593499,226.22495234359985L140.47901671005295,187.06761487091387z" style="fill:rgb(127,37,217)"/><path d="M116.060234639858,-55.92343891449551L69.05624359928223,21.20576713007103L144.58692526223308,186.22929671126187z" style="fill:rgb(247,158,158)"/><path d="M-74.9460035666723,193.5405925739662L122.66718943783044,148.59326481284631L-76.5833140245707,191.26822857187364zM-158.47365029414877,77.61500063233518L-55.12889069474503,226.98673478474012L-51.39601550593499,226.22495234359985z" style="fill:rgb(127,37,217)"/><path d="M64.24497555747855,22.39857855092852L53.39886454804977,-219.65855809029912L49.69164383602324,-218.5181699012677z" style="fill:rgb(83,212,212)"/><path d="M122.66718943783044,148.59326481284631L-74.9460035666723,193.5405925739662L123.82729284887789,151.0991304802319z" style="fill:rgb(127,37,217)"/><path d="M-124.09790650272731,-165.05773508410252L-162.76791850378274,78.67963430434479L-158.47365029414877,77.61500063233518z" style="fill:rgb(83,212,212)"/><path d="M69.29341790174941,24.854320173158218L-51.53696912103587,229.7006211833006L145.00296366744806,189.7608959171354zM69.05624359928223,21.20576713007103L140.47901671005295,187.06761487091387L144.58692526223308,186.22929671126187z" style="fill:rgb(127,37,217)"/><path d="M69.05624359928223,21.20576713007103L145.00296366744806,189.7608959171354L144.58692526223308,186.22929671126187z" style="fill:rgb(247,158,158)"/><path d="M-55.12889069474503,226.98673478474012L-158.47365029414877,77.61500063233518L-162.76791850378274,78.67963430434479zM-51.53696912103587,229.7006211833006L69.29341790174941,24.854320173158218L-158.98774117742946,81.24417686282301z" style="fill:rgb(127,37,217)"/><path d="M53.39886454804977,-219.65855809029912L64.24497555747855,22.39857855092852L69.05624359928223,21.20576713007103z" style="fill:rgb(83,212,212)"/><path d="M140.47901671005295,187.06761487091387L69.05624359928223,21.20576713007103L64.24497555747855,22.39857855092852z" style="fill:rgb(127,37,217)"/><path d="M145.00296366744806,189.7608959171354L69.05624359928223,21.20576713007103L69.29341790174941,24.854320173158218z" style="fill:rgb(247,158,158)"/><path d="M69.29341790174941,24.854320173158218L-158.47365029414877,77.61500063233518L-158.98774117742946,81.24417686282301zM-158.47365029414877,77.61500063233518L69.29341790174941,24.854320173158218L69.05624359928223,21.20576713007103z" style="fill:rgb(83,212,212)"/></svg>
