<?xml version="1.0" encoding="UTF-8"?>
<!-- Generated by jsxcad -->
<!DOCTYPE svg PUBLIC "-//W3C//DTD SVG 1.1 Tiny//EN" "http://www.w3.org/Graphics/SVG/1.1/DTD/svg11-tiny.dtd">
<svg viewBox="-250 -250 500 500" width="500" height="500" xmlns="http://www.w3.org/2000/svg"><path d="M-72.51654019936372,125.79946946829284L72.51478958906915,-125.58817008859587L-72.51478958906924,-125.58817008859583zM72.51478958906915,-125.58817008859587L-72.51654019936372,125.79946946829284L72.5165401993638,125.79946946829278z" style="fill:rgb(127,127,254)"/><path d="M72.31510294076892,125.45031155164924L76.79289358119526,-133.0035503786914L72.31336204257923,-125.23902900626766z" style="fill:rgb(0,127,127)"/><path d="M-72.31336204257931,-125.2390290062676L-76.79298796665056,-120.20488258837862L-72.31510294076885,125.45031155164929zM-76.79298796665056,-120.20488258837862L-72.31336204257931,-125.2390290062676L-76.79289358119534,-133.00355037869133z" style="fill:rgb(255,127,127)"/><path d="M76.79289358119526,-133.0035503786914L72.31510294076892,125.45031155164924L76.79298796665047,-120.20488258837868z" style="fill:rgb(0,127,127)"/><path d="M-72.31510294076885,125.45031155164929L-76.79298796665056,-120.20488258837862L-76.79301061919433,-117.13319763723766z" style="fill:rgb(255,127,127)"/><path d="M76.79298796665047,-120.20488258837868L72.31510294076892,125.45031155164924L76.79301061919425,-117.13319763723771z" style="fill:rgb(0,127,127)"/><path d="M-72.31510294076885,125.45031155164929L-76.79301061919433,-117.13319763723766L-76.79485684644163,133.21521836030664z" style="fill:rgb(255,127,127)"/><path d="M76.79301061919425,-117.13319763723771L72.31510294076892,125.45031155164924L76.79485684644172,133.21521836030658z" style="fill:rgb(0,127,127)"/><path d="M-75.67863847092272,131.28043983306662L75.67673186257551,-131.06887005674375L-75.6767318625756,-131.0688700567437zM75.67673186257551,-131.06887005674375L-75.67863847092272,131.28043983306662L75.6786384709228,131.28043983306657z" style="fill:rgb(127,127,254)"/><path d="M-76.64403498243688,120.17978790044843L75.82549711580904,118.8974119029861L-75.82549711580897,118.89741190298615zM75.82549711580904,118.8974119029861L-76.64403498243688,120.17978790044843L76.64403498243696,120.17978790044837zM76.64403498243696,120.17978790044837L-76.64403498243688,120.17978790044843L-75.79621531497308,120.23873588311106z" style="fill:rgb(127,254,127)"/><path d="M-76.64405754718898,123.24558556910993L-75.79621531497308,120.23873588311106L-76.64403498243688,120.17978790044843z" style="fill:rgb(63,127,237)"/><path d="M76.64403498243696,120.17978790044837L75.79623764107392,123.30603864225368L76.64405754718906,123.24558556910988z" style="fill:rgb(191,127,237)"/><path d="M76.64403498243696,120.17978790044837L-75.79621531497308,120.23873588311106L75.79621531497317,120.238735883111z" style="fill:rgb(127,254,127)"/><path d="M75.79623764107392,123.30603864225368L76.64403498243696,120.17978790044837L75.79621531497317,120.238735883111z" style="fill:rgb(191,127,237)"/><path d="M-75.79621531497308,120.23873588311106L-76.64405754718898,123.24558556910993L-75.79623764107383,123.30603864225374z" style="fill:rgb(63,127,237)"/><path d="M-75.87070877012107,120.35680565284929L75.79621531497317,120.238735883111L-75.79621531497308,120.23873588311106zM75.79621531497317,120.238735883111L-75.87070877012107,120.35680565284929L75.87070877012115,120.35680565284923zM-76.79476245639232,120.41592761082597L75.87070877012115,120.35680565284923L-75.87070877012107,120.35680565284929zM75.87070877012115,120.35680565284923L-76.79476245639232,120.41592761082597L76.79476245639242,120.41592761082592z" style="fill:rgb(127,254,127)"/><path d="M-79.8647310439621,-117.13319763723766L-76.79298796665056,-120.20488258837862L-79.86470748531657,-120.20488258837862zM76.79301061919425,-117.13319763723771L79.86470748531649,-120.20488258837868L76.79298796665047,-120.20488258837868zM-76.79298796665056,-120.20488258837862L-79.8647310439621,-117.13319763723766L-76.79301061919433,-117.13319763723766zM79.86470748531649,-120.20488258837868L76.79301061919425,-117.13319763723771L79.86473104396201,-117.13319763723771z" style="fill:rgb(127,127,254)"/><path d="M76.79298796665047,-120.20488258837868L79.12699334222765,-137.04932331804307L76.79289358119526,-133.0035503786914z" style="fill:rgb(0,127,127)"/><path d="M-76.79289358119534,-133.00355037869133L-79.1270935525258,-123.86164802453366L-76.79298796665056,-120.20488258837862z" style="fill:rgb(255,127,127)"/><path d="M-76.79298796665056,-120.20488258837862L-82.29217729462682,-123.86164802453366L-79.86470748531657,-120.20488258837862zM79.86470748531649,-120.20488258837868L79.12709355252574,-123.86164802453372L76.79298796665047,-120.20488258837868z" style="fill:rgb(127,0,127)"/><path d="M76.79485684644172,133.21521836030658L79.12711760303503,-120.69660098371833L76.79301061919425,-117.13319763723771z" style="fill:rgb(0,127,127)"/><path d="M-76.79301061919433,-117.13319763723766L-79.12907776869618,137.26120131244443L-76.79485684644163,133.21521836030664z" style="fill:rgb(255,127,127)"/><path d="M76.79476245639242,120.41592761082592L-76.79476245639232,120.41592761082597L-79.12897755337222,124.07286461437917z" style="fill:rgb(127,254,127)"/><path d="M-79.1270935525258,-123.86164802453366L-76.79289358119534,-133.00355037869133L-79.12699334222773,-137.049323318043z" style="fill:rgb(255,127,127)"/><path d="M79.12699334222765,-137.04932331804307L76.79298796665047,-120.20488258837868L79.12709355252574,-123.86164802453372z" style="fill:rgb(0,127,127)"/><path d="M-82.29217729462682,-123.86164802453366L-76.79298796665056,-120.20488258837862L-79.1270935525258,-123.86164802453366zM79.12709355252574,-123.86164802453372L79.86470748531649,-120.20488258837868L82.29217729462675,-123.86164802453372z" style="fill:rgb(127,0,127)"/><path d="M-79.12907776869618,137.26120131244443L-76.79301061919433,-117.13319763723766L-79.12711760303512,-120.69660098371827z" style="fill:rgb(255,127,127)"/><path d="M79.12711760303503,-120.69660098371833L76.79485684644172,133.21521836030658L79.12907776869626,137.26120131244437z" style="fill:rgb(0,127,127)"/><path d="M76.79476245639242,120.41592761082592L-79.12897755337222,124.07286461437917L79.12897755337231,124.07286461437913zM79.12897755337231,124.07286461437913L-79.12897755337222,124.07286461437917L-78.2549155479248,124.13569796901879z" style="fill:rgb(127,254,127)"/><path d="M-79.12900160502682,127.23806237533178L-78.2549155479248,124.13569796901879L-79.12897755337222,124.07286461437917z" style="fill:rgb(63,127,237)"/><path d="M79.12897755337231,124.07286461437913L78.2549393459598,127.3025000250167L79.12900160502691,127.23806237533172z" style="fill:rgb(191,127,237)"/><path d="M79.12897755337231,124.07286461437913L-78.2549155479248,124.13569796901879L78.2549155479249,124.13569796901874z" style="fill:rgb(127,254,127)"/><path d="M78.2549393459598,127.3025000250167L79.12897755337231,124.07286461437913L78.2549155479249,124.13569796901874z" style="fill:rgb(191,127,237)"/><path d="M-78.2549155479248,124.13569796901879L-79.12900160502682,127.23806237533178L-78.2549393459597,127.30250002501676z" style="fill:rgb(63,127,237)"/><path d="M-78.33432280168753,124.2615559541087L78.2549155479249,124.13569796901874L-78.2549155479248,124.13569796901879zM78.2549155479249,124.13569796901874L-78.33432280168753,124.2615559541087L78.33432280168762,124.26155595410864zM-79.2896474447204,124.32458077874992L78.33432280168762,124.26155595410864L-78.33432280168753,124.2615559541087zM78.33432280168762,124.26155595410864L-79.2896474447204,124.32458077874992L79.2896474447205,124.32458077874986z" style="fill:rgb(127,254,127)"/><path d="M-82.81897606893247,-143.4487600763284L-79.1270935525258,-123.86164802453366L-79.12699334222773,-137.049323318043z" style="fill:rgb(255,127,127)"/><path d="M79.12709355252574,-123.86164802453372L82.81897606893239,-143.44876007632848L79.12699334222765,-137.04932331804307zM82.81908584881592,-129.64576931764233L79.12709355252574,-123.86164802453372L79.12711760303503,-120.69660098371833z" style="fill:rgb(0,127,127)"/><path d="M-79.1270935525258,-123.86164802453366L-82.81911219603137,-126.33304609054144L-79.12711760303512,-120.69660098371827z" style="fill:rgb(255,127,127)"/><path d="M82.81911219603127,-126.3330460905415L79.12711760303503,-120.69660098371833L79.12907776869626,137.26120131244437z" style="fill:rgb(0,127,127)"/><path d="M-79.12711760303512,-120.69660098371827L-82.82125955044145,143.66098309946847L-79.12907776869618,137.26120131244443z" style="fill:rgb(255,127,127)"/><path d="M79.2896474447205,124.32458077874986L-79.2896474447204,124.32458077874992L-82.6458647286801,129.58265454991047zM79.2896474447205,124.32458077874986L-82.6458647286801,129.58265454991047L82.64586472868018,129.58265454991042z" style="fill:rgb(127,254,127)"/><path d="M-79.1270935525258,-123.86164802453366L-82.81897606893247,-143.4487600763284L-82.81908584881602,-129.64576931764228z" style="fill:rgb(255,127,127)"/><path d="M82.81897606893239,-143.44876007632848L79.12709355252574,-123.86164802453372L82.81908584881592,-129.64576931764233z" style="fill:rgb(0,127,127)"/><path d="M-79.1270935525258,-123.86164802453366L-82.81908584881602,-129.64576931764228L-82.81911219603137,-126.33304609054144z" style="fill:rgb(255,127,127)"/><path d="M82.81908584881592,-129.64576931764233L79.12711760303503,-120.69660098371833L82.81911219603127,-126.3330460905415z" style="fill:rgb(0,127,127)"/><path d="M-79.12711760303512,-120.69660098371827L-82.81911219603137,-126.33304609054144L-82.82125955044145,143.66098309946847z" style="fill:rgb(255,127,127)"/><path d="M82.81911219603127,-126.3330460905415L79.12907776869626,137.26120131244437L82.82125955044155,143.66098309946844z" style="fill:rgb(0,127,127)"/><path d="M82.64586472868018,129.58265454991042L-82.6458647286801,129.58265454991047L-81.73479626958846,129.65119882351877z" style="fill:rgb(127,254,127)"/><path d="M-82.64589096579711,132.8885313098884L-81.73479626958846,129.65119882351877L-82.6458647286801,129.58265454991047z" style="fill:rgb(63,127,237)"/><path d="M82.64586472868018,129.58265454991042L81.73482223121029,132.9588256947006L82.6458909657972,132.88853130988835z" style="fill:rgb(191,127,237)"/><path d="M82.64586472868018,129.58265454991042L-81.73479626958846,129.65119882351877L81.73479626958854,129.6511988235187z" style="fill:rgb(127,254,127)"/><path d="M81.73482223121029,132.9588256947006L82.64586472868018,129.58265454991042L81.73479626958854,129.6511988235187z" style="fill:rgb(191,127,237)"/><path d="M-81.73479626958846,129.65119882351877L-82.64589096579711,132.8885313098884L-81.73482223121019,132.95882569470066z" style="fill:rgb(63,127,237)"/><path d="M-81.82142670326857,129.78850532026559L81.73479626958854,129.6511988235187L-81.73479626958846,129.65119882351877zM81.73479626958854,129.6511988235187L-81.82142670326857,129.78850532026559L81.82142670326867,129.78850532026553zM-82.8211497647952,129.85726777453053L81.82142670326867,129.78850532026553L-81.82142670326857,129.78850532026559zM81.82142670326867,129.78850532026553L-82.8211497647952,129.85726777453053L82.82114976479528,129.85726777453047z" style="fill:rgb(127,254,127)"/><path d="M-86.13187668387262,-126.33304609054144L-82.81908584881602,-129.64576931764228L-86.13184928276866,-129.64576931764228zM82.81911219603127,-126.3330460905415L86.13184928276856,-129.64576931764233L82.81908584881592,-129.64576931764233zM-82.81908584881602,-129.64576931764228L-86.13187668387262,-126.33304609054144L-82.81911219603137,-126.33304609054144zM86.13184928276856,-129.64576931764233L82.81911219603127,-126.3330460905415L86.13187668387252,-126.3330460905415z" style="fill:rgb(127,127,254)"/><path d="M82.82114976479528,129.85726777453047L-82.8211497647952,129.85726777453053L-83.75410762326254,131.31890176010418zM82.82114976479528,129.85726777453047L-83.75410762326254,131.31890176010418L83.75410762326263,131.31890176010413z" style="fill:rgb(127,254,127)"/><path d="M82.81908584881592,-129.64576931764233L85.54026183602218,-148.16565542953524L82.81897606893239,-143.44876007632848z" style="fill:rgb(0,127,127)"/><path d="M-82.81897606893247,-143.4487600763284L-85.54037894878375,-133.90912852890852L-82.81908584881602,-129.64576931764228z" style="fill:rgb(255,127,127)"/><path d="M-82.81908584881602,-129.64576931764228L-88.96199410673509,-133.90912852890852L-86.13184928276866,-129.64576931764228zM86.13184928276856,-129.64576931764233L85.54037894878367,-133.9091285289086L82.81908584881592,-129.64576931764233z" style="fill:rgb(127,0,127)"/><path d="M82.82125955044155,143.66098309946844L85.54040705589414,-130.487556264038L82.81911219603127,-126.3330460905415z" style="fill:rgb(0,127,127)"/><path d="M-82.81911219603137,-126.33304609054144L-85.54269784749634,148.37814283794944L-82.82125955044145,143.66098309946847z" style="fill:rgb(255,127,127)"/><path d="M-28.19790902768318,134.66910937420667L27.638171793026878,131.31890176010415L-28.197899955814847,131.31890176010418zM27.638171793026878,131.31890176010415L-28.19790902768318,134.66910937420667L27.638180684818686,134.66910937420664z" style="fill:rgb(127,127,254)"/><path d="M28.757410733165138,131.32361491261852L83.75410762326263,131.31890176010413L27.638171793026878,131.31890176010415z" style="fill:rgb(127,254,127)"/><path d="M27.638180684818686,134.66910937420664L28.757410733165138,131.32361491261852L27.638171793026878,131.31890176010415z" style="fill:rgb(123,127,254)"/><path d="M83.75410762326263,131.31890176010413L28.757410733165138,131.32361491261852L83.75711601846952,131.3236149126185z" style="fill:rgb(127,254,127)"/><path d="M28.757410733165138,131.32361491261852L27.638180684818686,134.66910937420664L28.757419985372405,134.67394286564002z" style="fill:rgb(123,127,254)"/><path d="M-83.76311700752942,131.3330164621929L-28.197899955814847,131.31890176010418L-83.75410762326254,131.31890176010418z" style="fill:rgb(127,254,127)"/><path d="M-28.197899955814847,131.31890176010418L-29.314275731225727,134.68358446098222L-28.19790902768318,134.66910937420667z" style="fill:rgb(140,127,254)"/><path d="M-28.197899955814847,131.31890176010418L-83.76311700752942,131.3330164621929L-29.31426629918394,131.33301646219286z" style="fill:rgb(127,254,127)"/><path d="M-29.314275731225727,134.68358446098222L-28.197899955814847,131.31890176010418L-29.31426629918394,131.33301646219286z" style="fill:rgb(140,127,254)"/><path d="M28.757410733165138,131.32361491261852L83.77208719705749,131.34706975919025L83.75711601846952,131.3236149126185z" style="fill:rgb(127,254,127)"/><path d="M28.757419985372405,134.67394286564002L29.86603501592253,131.34706975919028L28.757410733165138,131.32361491261852z" style="fill:rgb(106,127,253)"/><path d="M83.77208719705749,131.34706975919025L28.757410733165138,131.32361491261852L29.86603501592253,131.34706975919028z" style="fill:rgb(127,254,127)"/><path d="M29.86603501592253,131.34706975919028L28.757419985372405,134.67394286564002L29.866044626528332,134.69799657483742z" style="fill:rgb(106,127,253)"/><path d="M-83.7839873499064,131.3657133320803L-29.31426629918394,131.33301646219286L-83.76311700752942,131.3330164621929z" style="fill:rgb(127,254,127)"/><path d="M-29.31426629918394,131.33301646219286L-30.41032054782223,134.71711616614968L-29.314275731225727,134.68358446098222z" style="fill:rgb(157,127,251)"/><path d="M-29.31426629918394,131.33301646219286L-83.7839873499064,131.3657133320803L-30.410310760683576,131.36571333208028z" style="fill:rgb(127,254,127)"/><path d="M-30.41032054782223,134.71711616614968L-29.31426629918394,131.33301646219286L-30.410310760683576,131.36571333208028z" style="fill:rgb(157,127,251)"/><path d="M30.94471574155279,131.38886941386568L83.77208719705749,131.34706975919025L29.86603501592253,131.34706975919028z" style="fill:rgb(127,254,127)"/><path d="M29.866044626528332,134.69799657483742L30.94471574155279,131.38886941386568L29.86603501592253,131.34706975919028z" style="fill:rgb(89,127,249)"/><path d="M83.77208719705749,131.34706975919025L30.94471574155279,131.38886941386568L83.79876782756796,131.38886941386565z" style="fill:rgb(127,254,127)"/><path d="M30.94471574155279,131.38886941386568L29.866044626528332,134.69799657483742L30.944725702439225,134.74086348233126z" style="fill:rgb(89,127,249)"/><path d="M-83.81636579465967,131.41643956244738L-30.410310760683576,131.36571333208028L-83.7839873499064,131.3657133320803z" style="fill:rgb(127,254,127)"/><path d="M-30.410310760683576,131.36571333208028L-31.46692128245305,134.76913756780453L-30.41032054782223,134.71711616614968z" style="fill:rgb(173,127,246)"/><path d="M-30.410310760683576,131.36571333208028L-83.81636579465967,131.41643956244738L-31.466911151348484,131.41643956244738z" style="fill:rgb(127,254,127)"/><path d="M-31.46692128245305,134.76913756780453L-30.410310760683576,131.36571333208028L-31.466911151348484,131.41643956244738z" style="fill:rgb(173,127,246)"/><path d="M31.974606719159866,131.44830455505885L83.79876782756796,131.38886941386565L30.94471574155279,131.38886941386568z" style="fill:rgb(127,254,127)"/><path d="M30.944725702439225,134.74086348233126L31.974606719159866,131.44830455505885L30.94471574155279,131.38886941386568z" style="fill:rgb(73,127,243)"/><path d="M83.79876782756796,131.38886941386565L31.974606719159866,131.44830455505885L83.83670515154412,131.44830455505883z" style="fill:rgb(127,254,127)"/><path d="M31.974606719159866,131.44830455505885L30.944725702439225,134.74086348233126L31.974617016220535,134.80181615574043z" style="fill:rgb(73,127,243)"/><path d="M-83.81636579465967,131.41643956244738L-32.46557569659294,131.48432856833264L-31.466911151348484,131.41643956244738z" style="fill:rgb(127,254,127)"/><path d="M-31.466911151348484,131.41643956244738L-32.46558615463216,134.8387599548532L-31.46692128245305,134.76913756780453z" style="fill:rgb(188,127,239)"/><path d="M-32.46557569659294,131.48432856833264L-83.81636579465967,131.41643956244738L-83.85969920245486,131.48432856833267z" style="fill:rgb(127,254,127)"/><path d="M-32.46558615463216,134.8387599548532L-31.466911151348484,131.41643956244738L-32.46557569659294,131.48432856833264z" style="fill:rgb(188,127,239)"/><path d="M32.93765351767565,131.52435689425303L83.83670515154412,131.44830455505883L31.974606719159866,131.44830455505885z" style="fill:rgb(127,254,127)"/><path d="M31.974617016220535,134.80181615574043L32.93765351767565,131.52435689425303L31.974606719159866,131.44830455505885z" style="fill:rgb(58,127,234)"/><path d="M83.83670515154412,131.44830455505883L32.93765351767565,131.52435689425303L83.88524919759556,131.524356894253z" style="fill:rgb(127,254,127)"/><path d="M32.93765351767565,131.52435689425303L31.974617016220535,134.80181615574043L32.93766413101655,134.87981030703517z" style="fill:rgb(58,127,234)"/><path d="M-83.91324698864963,131.56822010045724L-32.46557569659294,131.48432856833264L-83.85969920245486,131.48432856833267z" style="fill:rgb(127,254,127)"/><path d="M-32.46557569659294,131.48432856833264L-33.388766001613945,134.92479345388134L-32.46558615463216,134.8387599548532z" style="fill:rgb(203,127,230)"/><path d="M-32.46557569659294,131.48432856833264L-83.91324698864963,131.56822010045724L-33.38875523932587,131.5682201004572z" style="fill:rgb(127,254,127)"/><path d="M-33.388766001613945,134.92479345388134L-32.46557569659294,131.48432856833264L-33.38875523932587,131.5682201004572z" style="fill:rgb(203,127,230)"/><path d="M33.81688405203819,131.61572741141555L83.88524919759556,131.524356894253L32.93765351767565,131.52435689425303z" style="fill:rgb(127,254,127)"/><path d="M32.93766413101655,134.87981030703517L33.81688405203819,131.61572741141555L32.93765351767565,131.52435689425303z" style="fill:rgb(45,127,224)"/><path d="M83.88524919759556,131.524356894253L33.81688405203819,131.61572741141555L83.94357080400344,131.61572741141552z" style="fill:rgb(127,254,127)"/><path d="M33.81688405203819,131.61572741141555L32.93766413101655,134.87981030703517L33.81689495626525,134.97351374887387z" style="fill:rgb(45,127,224)"/><path d="M-83.91324698864963,131.56822010045724L-34.22013520693764,131.6666751609436L-33.38875523932587,131.5682201004572z" style="fill:rgb(127,254,127)"/><path d="M-33.38875523932587,131.5682201004572L-34.22014624546738,135.02576232570837L-33.388766001613945,134.92479345388134z" style="fill:rgb(216,127,219)"/><path d="M-34.22013520693764,131.6666751609436L-83.91324698864963,131.56822010045724L-83.97609064396501,131.6666751609436z" style="fill:rgb(127,254,127)"/><path d="M-34.22014624546738,135.02576232570837L-33.38875523932587,131.5682201004572L-34.22013520693764,131.6666751609436z" style="fill:rgb(216,127,219)"/><path d="M34.59670809896943,131.7208444740141L83.94357080400344,131.61572741141552L33.81688405203819,131.61572741141555z" style="fill:rgb(127,254,127)"/><path d="M33.81689495626525,134.97351374887387L34.59670809896943,131.7208444740141L33.81688405203819,131.61572741141555z" style="fill:rgb(32,127,213)"/><path d="M83.94357080400344,131.61572741141552L34.59670809896943,131.7208444740141L84.0106668010713,131.7208444740141z" style="fill:rgb(127,254,127)"/><path d="M34.59670809896943,131.7208444740141L33.81689495626525,134.97351374887387L34.59671926356684,135.08131472091694z" style="fill:rgb(32,127,213)"/><path d="M-83.97609064396501,131.6666751609436L-34.94491206904499,131.77799893379176L-34.22013520693764,131.6666751609436z" style="fill:rgb(127,254,127)"/><path d="M-34.22013520693764,131.6666751609436L-34.94492335090725,135.1399284813358L-34.22014624546738,135.02576232570837z" style="fill:rgb(227,127,206)"/><path d="M-34.94491206904499,131.77799893379176L-83.97609064396501,131.6666751609436L-84.04714837095963,131.77799893379176z" style="fill:rgb(127,254,127)"/><path d="M-34.94492335090725,135.1399284813358L-34.22013520693764,131.6666751609436L-34.94491206904499,131.77799893379176z" style="fill:rgb(227,127,206)"/><path d="M35.26317893069281,131.83789089007306L84.0106668010713,131.7208444740141L34.59670809896943,131.7208444740141z" style="fill:rgb(127,254,127)"/><path d="M34.59671926356684,135.08131472091694L35.26317893069281,131.83789089007306L34.59670809896943,131.7208444740141z" style="fill:rgb(22,127,199)"/><path d="M84.0106668010713,131.7208444740141L35.26317893069281,131.83789089007306L84.08537727903324,131.83789089007306z" style="fill:rgb(127,254,127)"/><path d="M35.26317893069281,131.83789089007306L34.59671926356684,135.08131472091694L35.263190320484895,135.20134963361596z" style="fill:rgb(22,127,199)"/><path d="M-84.12518956348717,131.90026346936293L-34.94491206904499,131.77799893379176L-84.04714837095963,131.77799893379176z" style="fill:rgb(127,254,127)"/><path d="M-34.94491206904499,131.77799893379176L-35.55007325546101,135.26531474562236L-34.94492335090725,135.1399284813358z" style="fill:rgb(237,127,192)"/><path d="M-34.94491206904499,131.77799893379176L-84.12518956348717,131.90026346936293L-35.55006176757086,131.90026346936293z" style="fill:rgb(127,254,127)"/><path d="M-35.55007325546101,135.26531474562236L-34.94491206904499,131.77799893379176L-35.55006176757086,131.90026346936293z" style="fill:rgb(237,127,192)"/><path d="M35.804249618078,131.96483959044392L84.08537727903324,131.83789089007306L35.26317893069281,131.83789089007306z" style="fill:rgb(127,254,127)"/><path d="M35.263190320484895,135.20134963361596L35.804249618078,131.96483959044392L35.26317893069281,131.83789089007306z" style="fill:rgb(13,127,185)"/><path d="M84.08537727903324,131.83789089007306L35.804249618078,131.96483959044392L84.16640836397119,131.9648395904439z" style="fill:rgb(127,254,127)"/><path d="M35.804249618078,131.96483959044392L35.263190320484895,135.20134963361596L35.804261193777116,135.3315396615422z" style="fill:rgb(13,127,185)"/><path d="M-84.2088548824403,132.03133913637822L-35.55006176757086,131.90026346936293L-84.12518956348717,131.90026346936293z" style="fill:rgb(127,254,127)"/><path d="M-35.55006176757086,131.90026346936293L-36.02458015899014,135.399737112332L-35.55007325546101,135.26531474562236z" style="fill:rgb(244,127,177)"/><path d="M-35.55006176757086,131.90026346936293L-84.2088548824403,132.03133913637822L-36.024568506187045,132.0313391363782z" style="fill:rgb(127,254,127)"/><path d="M-36.02458015899014,135.399737112332L-35.55006176757086,131.90026346936293L-36.024568506187045,132.0313391363782z" style="fill:rgb(244,127,177)"/><path d="M36.20999551025302,132.09947233610677L84.16640836397119,131.9648395904439L35.804249618078,131.96483959044392z" style="fill:rgb(127,254,127)"/><path d="M35.804261193777116,135.3315396615422L36.20999551025302,132.09947233610677L35.804249618078,131.96483959044392z" style="fill:rgb(7,127,169)"/><path d="M84.16640836397119,131.9648395904439L36.20999551025302,132.09947233610677L84.25234415864547,132.09947233610674z" style="fill:rgb(127,254,127)"/><path d="M36.20999551025302,132.09947233610677L35.804261193777116,135.3315396615422L36.21000722908487,135.46960992833237z" style="fill:rgb(7,127,169)"/><path d="M-84.29668221459815,132.16893529078015L-36.024568506187045,132.0313391363782L-84.2088548824403,132.03133913637822z" style="fill:rgb(127,254,127)"/><path d="M-36.024568506187045,132.0313391363782L-36.35965742067626,135.54084645137416L-36.02458015899014,135.399737112332z" style="fill:rgb(250,127,161)"/><path d="M-36.024568506187045,132.0313391363782L-84.29668221459815,132.16893529078015L-36.35964564721978,132.16893529078013z" style="fill:rgb(127,254,127)"/><path d="M-36.35965742067626,135.54084645137416L-36.024568506187045,132.0313391363782L-36.35964564721978,132.16893529078013z" style="fill:rgb(250,127,161)"/><path d="M36.47280710431923,132.23942507828627L84.25234415864547,132.09947233610674L36.20999551025302,132.09947233610677z" style="fill:rgb(127,254,127)"/><path d="M36.21000722908487,135.46960992833237L36.47280710431923,132.23942507828627L36.20999551025302,132.09947233610677z" style="fill:rgb(2,127,152)"/><path d="M84.25234415864547,132.09947233610674L36.47280710431923,132.23942507828627L84.34167569576019,132.23942507828627z" style="fill:rgb(127,254,127)"/><path d="M36.47280710431923,132.23942507828627L36.21000722908487,135.46960992833237L36.472818920721686,135.61313602496378z" style="fill:rgb(2,127,152)"/><path d="M-84.29668221459815,132.16893529078015L-36.54891097124937,132.31062663038034L-36.35964564721978,132.16893529078013z" style="fill:rgb(127,254,127)"/><path d="M-36.35964564721978,132.16893529078013L-36.54892281868842,135.6861555363524L-36.35965742067626,135.54084645137416z" style="fill:rgb(253,127,144)"/><path d="M-36.54891097124937,132.31062663038034L-84.29668221459815,132.16893529078015L-84.38712349474181,132.31062663038037z" style="fill:rgb(127,254,127)"/><path d="M-36.54892281868842,135.6861555363524L-36.35964564721978,132.16893529078013L-36.54891097124937,132.31062663038034z" style="fill:rgb(253,127,144)"/><path d="M36.58755751891982,132.38222572404499L84.34167569576019,132.23942507828627L36.47280710431923,132.23942507828627z" style="fill:rgb(127,254,127)"/><path d="M36.472818920721686,135.61313602496378L36.58755751891982,132.38222572404499L36.47280710431923,132.23942507828627z" style="fill:rgb(0,127,136)"/><path d="M84.34167569576019,132.23942507828627L36.58755751891982,132.38222572404499L84.43282504366107,132.38222572404499z" style="fill:rgb(127,254,127)"/><path d="M36.58755751891982,132.38222572404499L36.472818920721686,135.61313602496378L36.58756938530928,135.75958273959913z" style="fill:rgb(0,127,136)"/><path d="M-84.47857612059437,132.45390241159907L-36.54891097124937,132.31062663038034L-84.38712349474181,132.31062663038037z" style="fill:rgb(127,254,127)"/><path d="M-36.54891097124937,132.31062663038034L-36.58853189540631,135.83308951793327L-36.54892281868842,135.6861555363524z" style="fill:rgb(255,127,127)"/><path d="M-36.54891097124937,132.31062663038034L-84.47857612059437,132.45390241159907L-36.58852002227456,132.45390241159905z" style="fill:rgb(127,254,127)"/><path d="M-36.58853189540631,135.83308951793327L-36.54891097124937,132.31062663038034L-36.58852002227456,132.45390241159905z" style="fill:rgb(255,127,127)"/><path d="M36.551725841751136,132.52533535744578L84.43282504366107,132.38222572404499L36.58755751891982,132.38222572404499zM84.43282504366107,132.38222572404499L36.551725841751136,132.52533535744578L84.52417161771548,132.52533535744575zM-84.56940833734154,132.59620621854782L-36.58852002227456,132.45390241159905L-84.47857612059437,132.45390241159907zM-36.58852002227456,132.45390241159905L-84.56940833734154,132.59620621854782L-36.47728046891354,132.59620621854782zM36.551725841751136,132.52533535744578L84.6140808216929,132.66619311104802L84.52417161771548,132.52533535744575zM84.6140808216929,132.66619311104802L36.551725841751136,132.52533535744578L36.36546279220992,132.66619311104802zM-84.56940833734154,132.59620621854782L-36.21670851907193,132.73498379432132L-36.47728046891354,132.59620621854782zM-36.21670851907193,132.73498379432132L-84.56940833734154,132.59620621854782L-84.65798976824344,132.73498379432135z" style="fill:rgb(127,254,127)"/><path d="M-85.54037894878375,-133.90912852890852L-82.81897606893247,-143.4487600763284L-85.54026183602228,-148.1656554295352z" style="fill:rgb(255,127,127)"/><path d="M85.54026183602218,-148.16565542953524L82.81908584881592,-129.64576931764233L85.54037894878367,-133.9091285289086z" style="fill:rgb(0,127,127)"/><path d="M-88.96199410673509,-133.90912852890852L-82.81908584881602,-129.64576931764228L-85.54037894878375,-133.90912852890852zM85.54037894878367,-133.9091285289086L86.13184928276856,-129.64576931764233L88.961994106735,-133.9091285289086z" style="fill:rgb(127,0,127)"/><path d="M-85.54269784749634,148.37814283794944L-82.81911219603137,-126.33304609054144L-85.54040705589424,-130.48755626403795z" style="fill:rgb(255,127,127)"/><path d="M85.54040705589414,-130.487556264038L82.82125955044155,143.66098309946844L85.54269784749643,148.37814283794935z" style="fill:rgb(0,127,127)"/><path d="M36.36546279220992,132.66619311104802L84.70093368650355,132.80226259993168L84.6140808216929,132.66619311104802zM84.70093368650355,132.80226259993168L36.36546279220992,132.66619311104802L36.031635797993985,132.8022625999317zM-84.74271875219031,132.86772586983517L-36.21670851907193,132.73498379432132L-84.65798976824344,132.73498379432135zM-36.21670851907193,132.73498379432132L-84.74271875219031,132.86772586983517L-35.81102047584346,132.86772586983514zM35.55580887184826,132.9310776967226L84.70093368650355,132.80226259993168L36.031635797993985,132.8022625999317zM84.70093368650355,132.80226259993168L35.55580887184826,132.9310776967226L84.78315608829938,132.93107769672258zM-84.82205763028175,132.99202344613323L-35.81102047584346,132.86772586983514L-84.74271875219031,132.86772586983517zM-35.81102047584346,132.86772586983514L-84.82205763028175,132.99202344613323L-35.2671018928922,132.9920234461332zM35.55580887184826,132.9310776967226L84.85924745090361,133.05028749873193L84.78315608829938,132.93107769672258zM84.85924745090361,133.05028749873193L35.55580887184826,132.9310776967226L34.94616487819247,133.05028749873196zM-84.89455484373468,133.10560241444406L-35.2671018928922,132.9920234461332L-84.82205763028175,132.99202344613323zM-35.2671018928922,132.9920234461332L-84.89455484373468,133.10560241444406L-34.59440803695188,133.10560241444404zM34.213389699093916,133.15771129017025L84.85924745090361,133.05028749873193L34.94616487819247,133.05028749873196zM84.85924745090361,133.05028749873193L34.213389699093916,133.15771129017025L84.92781582807459,133.15771129017025zM-84.89455484373468,133.10560241444406L-33.804807554287656,133.20637455068598L-34.59440803695188,133.10560241444404zM-33.804807554287656,133.20637455068598L-84.89455484373468,133.10560241444406L-84.9588774835675,133.206374550686zM34.213389699093916,133.15771129017025L84.98759665834203,133.2513679247242L84.92781582807459,133.15771129017025zM84.98759665834203,133.2513679247242L34.213389699093916,133.15771129017025L33.37049169918513,133.2513679247242zM-85.0138386683741,133.29248040731355L-33.804807554287656,133.20637455068598L-84.9588774835675,133.206374550686zM-33.804807554287656,133.20637455068598L-85.0138386683741,133.29248040731355L-32.91239106263386,133.29248040731355zM32.43257320386207,133.32952327631256L84.98759665834203,133.2513679247242L33.37049169918513,133.2513679247242zM84.98759665834203,133.2513679247242L32.43257320386207,133.32952327631256L85.03748305272347,133.32952327631256zM-85.0584194472906,133.36232362796528L-32.91239106263386,133.29248040731355L-85.0138386683741,133.29248040731355zM-32.91239106263386,133.29248040731355L-85.0584194472906,133.36232362796528L-31.933211396676416,133.36232362796528zM32.43257320386207,133.32952327631256L85.07655050846984,133.3907289572879L85.03748305272347,133.32952327631256zM85.07655050846984,133.3907289572879L32.43257320386207,133.32952327631256L31.416567808892854,133.3907289572879zM-85.09179059198915,133.41460508825443L-31.933211396676416,133.36232362796528L-85.0584194472906,133.36232362796528zM-31.933211396676416,133.36232362796528L-85.09179059198915,133.41460508825443L-30.88499219162899,133.4146050882544zM30.340906855141437,133.4338407339871L85.07655050846984,133.3907289572879L31.416567808892854,133.3907289572879zM85.07655050846984,133.3907289572879L30.340906855141437,133.4338407339871L85.10406866367215,133.43384073398707zM-85.11332837292616,133.4483476118911L-30.88499219162899,133.4146050882544L-85.09179059198915,133.41460508825443zM-30.88499219162899,133.4146050882544L-85.11332837292616,133.4483476118911L-29.786794745347983,133.44834761189108zM30.340906855141437,133.4338407339871L85.11952528104435,133.45805610132462L85.10406866367215,133.43384073398707zM85.11952528104435,133.45805610132462L30.340906855141437,133.4338407339871L29.22518427424424,133.45805610132462zM-85.12263256753356,133.46292418351555L-29.786794745347983,133.44834761189108L-85.11332837292616,133.4483476118911zM-29.786794745347983,133.44834761189108L-85.12263256753356,133.46292418351555L-28.658647858940647,133.46292418351555zM28.089773852748415,133.46292418351553L85.11952528104435,133.45805610132462L29.22518427424424,133.45805610132462zM85.11952528104435,133.45805610132462L28.089773852748415,133.46292418351553L85.12263256753364,133.4629241835155zM28.089773852748415,133.46292418351553L-85.54258072838519,134.1208429721394L85.12263256753364,133.4629241835155zM-28.658647858940647,133.46292418351555L-85.54258072838519,134.1208429721394L28.089773852748415,133.46292418351553zM-85.54258072838519,134.1208429721394L-28.658647858940647,133.46292418351555L-85.12263256753356,133.46292418351555zM85.12263256753364,133.4629241835155L-85.54258072838519,134.1208429721394L85.54258072838529,134.12084297213934zM85.54258072838529,134.12084297213934L-85.54258072838519,134.1208429721394L-84.60114932194483,134.19427773169818z" style="fill:rgb(127,254,127)"/><path d="M-85.54260883694263,137.54259137946585L-84.60114932194483,134.19427773169818L-85.54258072838519,134.1208429721394z" style="fill:rgb(63,127,237)"/><path d="M85.54258072838529,134.12084297213934L84.60117713638871,137.61790111856163L85.54260883694273,137.5425913794658z" style="fill:rgb(191,127,237)"/><path d="M85.54258072838529,134.12084297213934L-84.60114932194483,134.19427773169818L84.60114932194493,134.19427773169812z" style="fill:rgb(127,254,127)"/><path d="M84.60117713638871,137.61790111856163L85.54258072838529,134.12084297213934L84.60114932194493,134.19427773169812z" style="fill:rgb(191,127,237)"/><path d="M-84.60114932194483,134.19427773169818L-85.54260883694263,137.54259137946585L-84.60117713638864,137.61790111856166z" style="fill:rgb(63,127,237)"/><path d="M-84.69396582212678,134.34138894814825L84.60114932194493,134.19427773169812L-84.60114932194483,134.19427773169818zM84.60114932194493,134.19427773169812L-84.69396582212678,134.34138894814825L84.69396582212686,134.3413889481482zM-85.73038244971013,134.4150656703529L84.69396582212686,134.3413889481482L-84.69396582212678,134.34138894814825zM84.69396582212686,134.3413889481482L-85.73038244971013,134.4150656703529L85.73038244971022,134.41506567035285z" style="fill:rgb(127,254,127)"/><path d="M85.54037894878367,-133.9091285289086L86.77582554884444,-150.30729920913538L85.54026183602218,-148.16565542953524z" style="fill:rgb(0,127,127)"/><path d="M-85.54026183602228,-148.1656554295352L-86.77833244223766,150.51990947954323L-85.54037894878375,-133.90912852890852zM-85.54037894878375,-133.90912852890852L-86.77833244223766,150.51990947954323L-85.54040705589424,-130.48755626403795z" style="fill:rgb(255,127,127)"/><path d="M86.77833244223774,150.51990947954317L85.54037894878367,-133.9091285289086L85.54040705589414,-130.487556264038z" style="fill:rgb(0,127,127)"/><path d="M-85.54040705589424,-130.48755626403795L-86.77833244223766,150.51990947954323L-85.54269784749634,148.37814283794944z" style="fill:rgb(255,127,127)"/><path d="M86.77833244223774,150.51990947954317L85.54040705589414,-130.487556264038L85.54269784749643,148.37814283794935z" style="fill:rgb(0,127,127)"/><path d="M85.73038244971022,134.41506567035285L-85.73038244971013,134.4150656703529L-86.77821191520238,136.05666517449876z" style="fill:rgb(127,254,127)"/><path d="M-86.77833244223766,150.51990947954323L-85.54026183602228,-148.1656554295352L-86.77582554884454,-150.30729920913532z" style="fill:rgb(255,127,127)"/><path d="M86.77582554884444,-150.30729920913538L85.54037894878367,-133.9091285289086L86.77833244223774,150.51990947954317z" style="fill:rgb(0,127,127)"/><path d="M85.73038244971022,134.41506567035285L-86.77821191520238,136.05666517449876L86.77821191520248,136.05666517449868z" style="fill:rgb(127,254,127)"/><path d="M-90.24946573992715,150.51990947954323L-86.77582554884454,-150.30729920913532L-90.24685857079831,-150.30729920913532zM86.77833244223774,150.51990947954317L90.24685857079822,-150.30729920913538L86.77582554884444,-150.30729920913538zM-86.77582554884454,-150.30729920913532L-90.24946573992715,150.51990947954323L-86.77833244223766,150.51990947954323zM90.24685857079822,-150.30729920913538L86.77833244223774,150.51990947954317L90.24946573992725,150.51990947954317zM-86.7782408416603,139.52784014363849L86.77821191520248,136.05666517449868L-86.77821191520238,136.05666517449876zM86.77821191520248,136.05666517449868L-86.7782408416603,139.52784014363849L86.7782408416604,139.52784014363843z" style="fill:rgb(127,127,254)"/></svg>
