<?xml version="1.0" encoding="UTF-8"?>
<!-- Generated by jsxcad -->
<!DOCTYPE svg PUBLIC "-//W3C//DTD SVG 1.1 Tiny//EN" "http://www.w3.org/Graphics/SVG/1.1/DTD/svg11-tiny.dtd">
<svg viewBox="-250 -250 500 500" width="500" height="500" xmlns="http://www.w3.org/2000/svg"><path d="M-72.51654019936372,125.79946946829284L69.61419800550638,-125.58817008859587L-72.51478958906924,-125.58817008859583zM69.61419800550638,-125.58817008859587L-72.51654019936372,125.79946946829284L69.61587859138925,125.79946946829278z" style="fill:rgb(127,127,254)"/><path d="M69.42249882313817,125.45031155164924L72.79072811363007,-131.3235717013851L69.42082756087606,-125.23902900626766zM72.79072811363007,-131.3235717013851L69.42249882313817,125.45031155164924L72.7908164508846,-118.68643661329712zM72.7908164508846,-118.68643661329712L69.42249882313817,125.45031155164924L72.79083765185759,-115.65351962811522zM72.79083765185759,-115.65351962811522L69.42249882313817,125.45031155164924L72.79247723117669,118.8974119029861zM72.79247723117669,118.8974119029861L69.42249882313817,125.45031155164924L72.79249843311712,121.93046728658683zM72.79249843311712,121.93046728658683L69.42249882313817,125.45031155164924L72.79256557267668,131.53515432429572z" style="fill:rgb(0,127,127)"/><path d="M-75.67863847092272,131.28043983306662L72.64966258807247,-131.06887005674375L-75.6767318625756,-131.0688700567437zM72.64966258807247,-131.06887005674375L-75.67863847092272,131.28043983306662L72.65149293208589,131.28043983306657zM72.79083765185759,-115.65351962811522L75.82376713633813,-118.68643661329712L72.7908164508846,-118.68643661329712zM75.82376713633813,-118.68643661329712L72.79083765185759,-115.65351962811522L75.823789220685,-115.65351962811522zM72.79249843311712,121.93046728658683L75.82549711580904,118.8974119029861L72.79247723117669,118.8974119029861zM75.82549711580904,118.8974119029861L72.79249843311712,121.93046728658683L75.82551920116367,121.93046728658683z" style="fill:rgb(127,127,254)"/><path d="M72.7908164508846,-118.68643661329712L83.30479252689067,-150.30729920913538L72.79072811363007,-131.3235717013851z" style="fill:rgb(0,127,127)"/><path d="M75.82376713633813,-118.68643661329712L83.30490822648086,-135.84485036065254L72.7908164508846,-118.68643661329712zM75.823789220685,-115.65351962811522L-86.77597499419838,-132.37385665928048L-75.82378922068509,-115.65351962811516z" style="fill:rgb(127,0,127)"/><path d="M83.30708343859436,136.05666517449868L72.79083765185759,-115.65351962811522L72.79247723117669,118.8974119029861z" style="fill:rgb(0,127,127)"/><path d="M-86.77821191520238,136.05666517449876L75.82549711580904,118.8974119029861L-75.82549711580897,118.89741190298615zM72.79249843311712,121.93046728658683L86.7782408416604,139.52784014363843L75.82551920116367,121.93046728658683z" style="fill:rgb(127,254,127)"/><path d="M83.30719914454824,150.51990947954317L72.79249843311712,121.93046728658683L72.79256557267668,131.53515432429572zM80.93103048641767,-123.45057466611904L83.52768944314565,-130.75591495430962L80.93100532681818,-126.68777648505589z" style="fill:rgb(0,127,127)"/><path d="M-80.93100532681827,-126.68777648505583L-83.5277162431457,-127.414848274545L-80.93103048641777,-123.45057466611898z" style="fill:rgb(255,127,127)"/><path d="M84.16827170587437,-123.45057466611904L83.52771624314562,-127.41484827454505L80.93103048641767,-123.45057466611904zM-80.93103048641777,-123.45057466611898L-86.86882489287153,-127.414848274545L-84.16827170587447,-123.45057466611898z" style="fill:rgb(127,0,127)"/><path d="M80.93297620949501,126.89912918976934L86.87098038171058,130.96746897999188L84.1702952578748,126.89912918976934zM-84.17029525787471,126.8991291897694L-83.52978882856777,130.96746897999193L-80.93297620949491,126.8991291897694z" style="fill:rgb(127,254,127)"/><path d="M80.93300137031993,130.13648867939466L83.52978882856787,130.96746897999188L80.93297620949501,126.89912918976934z" style="fill:rgb(0,127,127)"/><path d="M-80.93297620949491,126.8991291897694L-83.52981562991495,134.30870361067193L-80.93300137031983,130.1364886793947zM-83.5277162431457,-127.414848274545L-80.93100532681827,-126.68777648505583L-83.52768944314573,-130.75591495430956z" style="fill:rgb(255,127,127)"/><path d="M83.52768944314565,-130.75591495430962L80.93103048641767,-123.45057466611904L83.52771624314562,-127.41484827454505z" style="fill:rgb(0,127,127)"/><path d="M83.52771624314562,-127.41484827454505L84.16827170587437,-123.45057466611904L86.86882489287143,-127.41484827454505zM-86.86882489287153,-127.414848274545L-80.93103048641777,-123.45057466611898L-83.5277162431457,-127.414848274545z" style="fill:rgb(127,0,127)"/><path d="M86.87098038171058,130.96746897999188L80.93297620949501,126.89912918976934L83.52978882856787,130.96746897999188zM-83.52978882856777,130.96746897999193L-84.17029525787471,126.8991291897694L-86.87098038171048,130.96746897999193z" style="fill:rgb(127,254,127)"/><path d="M-83.52981562991495,134.30870361067193L-80.93297620949491,126.8991291897694L-83.52978882856777,130.96746897999193z" style="fill:rgb(255,127,127)"/><path d="M83.52978882856787,130.96746897999188L80.93300137031993,130.13648867939466L83.52981562991505,134.30870361067187zM83.30479252689067,-150.30729920913538L72.7908164508846,-118.68643661329712L83.30490822648086,-135.84485036065254z" style="fill:rgb(0,127,127)"/><path d="M83.30490822648086,-135.84485036065254L75.82376713633813,-118.68643661329712L86.7759460692509,-135.84485036065254zM-86.77597499419838,-132.37385665928048L75.823789220685,-115.65351962811522L86.77597499419828,-132.37385665928053z" style="fill:rgb(127,0,127)"/><path d="M72.79083765185759,-115.65351962811522L83.30708343859436,136.05666517449868L83.30493599443035,-132.37385665928053z" style="fill:rgb(0,127,127)"/><path d="M75.82549711580904,118.8974119029861L-86.77821191520238,136.05666517449876L86.77821191520248,136.05666517449868zM86.7782408416604,139.52784014363843L72.79249843311712,121.93046728658683L83.30711120799397,139.52784014363843z" style="fill:rgb(127,254,127)"/><path d="M72.79249843311712,121.93046728658683L83.30719914454824,150.51990947954317L83.30711120799397,139.52784014363843z" style="fill:rgb(0,127,127)"/><path d="M83.52771624314562,-127.41484827454505L86.86879702087147,-130.75591495430962L83.52768944314565,-130.75591495430962zM-86.86882489287153,-127.414848274545L-83.52768944314573,-130.75591495430956L-86.86879702087155,-130.75591495430956zM86.86879702087147,-130.75591495430962L83.52771624314562,-127.41484827454505L86.86882489287143,-127.41484827454505zM-83.52768944314573,-130.75591495430956L-86.86882489287153,-127.414848274545L-83.5277162431457,-127.414848274545zM83.52981562991505,134.30870361067187L86.87098038171058,130.96746897999188L83.52978882856787,130.96746897999188zM-86.87100825511155,134.30870361067193L-83.52978882856777,130.96746897999193L-86.87098038171048,130.96746897999193zM86.87098038171058,130.96746897999188L83.52981562991505,134.30870361067187L86.87100825511163,134.30870361067187zM-83.52978882856777,130.96746897999193L-86.87100825511155,134.30870361067193L-83.52981562991495,134.30870361067193zM83.30490822648086,-135.84485036065254L86.77582554884444,-150.30729920913538L83.30479252689067,-150.30729920913538zM86.77582554884444,-150.30729920913538L83.30490822648086,-135.84485036065254L86.7759460692509,-135.84485036065254zM-86.77597499419838,-132.37385665928048L86.7759460692509,-135.84485036065254L-86.775946069251,-135.84485036065246zM86.7759460692509,-135.84485036065254L-86.77597499419838,-132.37385665928048L86.77597499419828,-132.37385665928053zM83.30708343859436,136.05666517449868L86.77597499419828,-132.37385665928053L83.30493599443035,-132.37385665928053zM86.77597499419828,-132.37385665928053L83.30708343859436,136.05666517449868L86.77821191520248,136.05666517449868zM-86.7782408416603,139.52784014363849L86.77821191520248,136.05666517449868L-86.77821191520238,136.05666517449876zM86.77821191520248,136.05666517449868L-86.7782408416603,139.52784014363849L86.7782408416604,139.52784014363843zM83.30719914454824,150.51990947954317L86.7782408416604,139.52784014363843L83.30711120799397,139.52784014363843zM86.7782408416604,139.52784014363843L83.30719914454824,150.51990947954317L86.77833244223774,150.51990947954317z" style="fill:rgb(127,127,254)"/></svg>
