<?xml version="1.0" encoding="UTF-8"?>
<!-- Generated by jsxcad -->
<!DOCTYPE svg PUBLIC "-//W3C//DTD SVG 1.1 Tiny//EN" "http://www.w3.org/Graphics/SVG/1.1/DTD/svg11-tiny.dtd">
<svg viewBox="-250 -250 500 500" width="500" height="500" xmlns="http://www.w3.org/2000/svg"><path d="M-62.132202703522104,107.79995105216976L59.645680861299326,-107.58945848822847L-62.13091756385354,-107.58945848822842zM59.645680861299326,-107.58945848822847L-62.132202703522104,107.79995105216976L59.64691459538128,107.79995105216972z" style="fill:rgb(127,127,254)"/><path d="M59.50489666679459,107.54352979093943L61.96247167303529,-111.7725530303339L59.50366880064288,-107.33304782187228zM61.96247167303529,-111.7725530303339L59.50489666679459,107.54352979093943L61.96253568323154,-101.01528388328529zM61.96253568323154,-101.01528388328529L59.50489666679459,107.54352979093943L61.96255104569832,-98.43353598083142zM61.96255104569832,-98.43353598083142L59.50489666679459,107.54352979093943L61.96373909953631,101.2255127803524zM61.96373909953631,101.2255127803524L59.50489666679459,107.54352979093943L61.96375446259984,103.80736096753614zM61.96375446259984,103.80736096753614L59.50489666679459,107.54352979093943L61.96380311235123,111.98322200650402z" style="fill:rgb(0,127,127)"/><path d="M-64.43911616188304,111.7986010666553L61.860224466655424,-111.58794001789163L-64.43773381943281,-111.58794001789158zM61.860224466655424,-111.58794001789163L-64.43911616188304,111.7986010666553L61.86155151540778,111.79860106665524zM61.96255104569832,-98.43353598083142L64.5443080033662,-101.01528388328529L61.96253568323154,-101.01528388328529zM64.5443080033662,-101.01528388328529L61.96255104569832,-98.43353598083142L64.54432400593575,-98.43353598083142zM61.96373909953631,101.2255127803524L64.54557756520816,103.80736096753614L64.545561562017,101.2255127803524zM64.54557756520816,103.80736096753614L61.96373909953631,101.2255127803524L61.96375446259984,103.80736096753614z" style="fill:rgb(127,127,254)"/><path d="M-72.31336204257931,-125.23902900626763L-61.98426736124431,107.54352979093946L-61.98298833400307,-107.33304782187224z" style="fill:rgb(255,127,127)"/><path d="M64.54432400593575,-98.43353598083142L-68.2083756277653,-104.02732148479332L-64.54432400593582,-98.43353598083138z" style="fill:rgb(127,0,127)"/><path d="M-68.20975768065054,106.96608672824799L64.545561562017,101.2255127803524L-64.54556156201691,101.22551278035245z" style="fill:rgb(127,254,127)"/><path d="M-68.2083756277653,-104.02732148479332L64.54432400593575,-98.43353598083142L68.20837562776525,-104.02732148479338z" style="fill:rgb(127,0,127)"/><path d="M64.545561562017,101.2255127803524L3.602369030821095e-14,106.96608672824796L68.20975768065063,106.96608672824793zM64.545561562017,101.2255127803524L-2.728390307225988,106.96608672824796L3.602369030821095e-14,106.96608672824796zM64.545561562017,101.2255127803524L-68.20975768065054,106.96608672824799L-2.728390307225988,106.96608672824796z" style="fill:rgb(127,254,127)"/><path d="M61.96253568323154,-101.01528388328529L69.42082756087608,-125.23902900626769L61.96247167303529,-111.7725530303339z" style="fill:rgb(0,127,127)"/><path d="M64.5443080033662,-101.01528388328529L69.42090790818196,-113.18693306125014L61.96253568323154,-101.01528388328529z" style="fill:rgb(127,0,127)"/><path d="M61.96373909953631,101.2255127803524L69.42092719156307,-110.29442588321247L61.96255104569832,-98.43353598083142z" style="fill:rgb(0,127,127)"/><path d="M69.4224377563699,116.2902962646632L64.54557756520816,103.80736096753614L61.96375446259984,103.80736096753614z" style="fill:rgb(127,254,127)"/><path d="M69.42249882313818,125.45031155164924L61.96375446259984,103.80736096753614L61.96380311235123,111.98322200650402z" style="fill:rgb(0,127,127)"/><path d="M-2.728334310270377,-106.75562852563496L-3.441830216089052e-14,-104.02732148479335L-3.515994872217634e-14,-106.75562852563496zM-3.441830216089052e-14,-104.02732148479335L-2.728334310270377,-106.75562852563496L-2.7283350251106455,-104.02732148479335zM-2.728390307225988,106.96608672824796L3.676537074215535e-14,109.69450576304554L3.602369030821095e-14,106.96608672824796zM3.676537074215535e-14,109.69450576304554L-2.728390307225988,106.96608672824796L-2.7283910220956,109.69450576304554z" style="fill:rgb(127,127,254)"/><path d="M-2.728334310270377,-106.75562852563496L-2.801742388553702,-106.82903587021187L-2.7283350251106455,-104.02732148479335z" style="fill:rgb(255,127,127)"/><path d="M-3.3629516488947535e-14,-106.82903587021187L-3.515994872217634e-14,-106.75562852563496L-3.441830216089052e-14,-104.02732148479335z" style="fill:rgb(0,127,127)"/><path d="M-2.7283350251106455,-104.02732148479335L-70.04355971384172,-106.82903587021185L-68.2083756277653,-104.02732148479332zM68.20837562776525,-104.02732148479338L-3.3629516488947535e-14,-106.82903587021187L-3.441830216089052e-14,-104.02732148479335zM-3.441830216089052e-14,-104.02732148479335L-2.801742388553702,-106.82903587021187L-2.7283350251106455,-104.02732148479335z" style="fill:rgb(127,0,127)"/><path d="M3.556888448037862e-14,109.84132655882006L68.20975768065063,106.96608672824793L3.602369030821095e-14,106.96608672824796zM-68.20975768065054,106.96608672824799L-2.8018006855118394,109.84132655882006L-2.728390307225988,106.96608672824796zM-2.8018006855118394,109.84132655882006L3.602369030821095e-14,106.96608672824796L-2.728390307225988,106.96608672824796z" style="fill:rgb(127,254,127)"/><path d="M-2.728390307225988,106.96608672824796L-2.8018014393677038,112.64315753821835L-2.7283910220956,109.69450576304554z" style="fill:rgb(255,127,127)"/><path d="M3.946944951081267e-14,112.64315753821835L3.602369030821095e-14,106.96608672824796L3.676537074215535e-14,109.69450576304554z" style="fill:rgb(0,127,127)"/><path d="M-61.98426736124431,107.54352979093946L-72.31336204257931,-125.23902900626763L-72.31510294076885,125.45031155164929zM-2.801742388553702,-106.82903587021187L-2.728334310270377,-106.75562852563496L-2.8017416347296145,-109.63074874799729z" style="fill:rgb(255,127,127)"/><path d="M-3.515994872217634e-14,-106.75562852563496L-3.3629516488947535e-14,-106.82903587021187L-3.439111779177979e-14,-109.63074874799729z" style="fill:rgb(0,127,127)"/><path d="M-70.04355971384172,-106.82903587021185L-2.7283350251106455,-104.02732148479335L-2.801742388553702,-106.82903587021187zM-3.3629516488947535e-14,-106.82903587021187L68.20837562776525,-104.02732148479338L70.04355971384163,-106.8290358702119zM-2.801742388553702,-106.82903587021187L-3.441830216089052e-14,-104.02732148479335L-3.3629516488947535e-14,-106.82903587021187z" style="fill:rgb(127,0,127)"/><path d="M68.20975768065063,106.96608672824793L3.556888448037862e-14,109.84132655882006L70.04501713779695,109.84132655882003zM-2.8018006855118394,109.84132655882006L-68.20975768065054,106.96608672824799L-70.04501713779686,109.84132655882009zM3.602369030821095e-14,106.96608672824796L-2.8018006855118394,109.84132655882006L3.870781248803411e-14,109.84132655882006z" style="fill:rgb(127,254,127)"/><path d="M-2.8018014393677038,112.64315753821835L-2.728390307225988,106.96608672824796L-2.8018006855118394,109.84132655882006z" style="fill:rgb(255,127,127)"/><path d="M3.602369030821095e-14,106.96608672824796L3.946944951081267e-14,112.64315753821835L3.870781248803411e-14,109.84132655882006zM69.42082756087608,-125.23902900626769L61.96253568323154,-101.01528388328529L69.42090790818196,-113.18693306125014z" style="fill:rgb(0,127,127)"/><path d="M69.42090790818196,-113.18693306125014L64.5443080033662,-101.01528388328529L72.31344573768955,-113.18693306125014z" style="fill:rgb(127,0,127)"/><path d="M69.42092719156307,-110.29442588321247L61.96373909953631,101.2255127803524L69.42241847214962,113.39766320624177z" style="fill:rgb(0,127,127)"/><path d="M64.54557756520816,103.80736096753614L69.4224377563699,116.2902962646632L72.31503932955198,116.2902962646632z" style="fill:rgb(127,254,127)"/><path d="M61.96375446259984,103.80736096753614L69.42249882313818,125.45031155164924L69.4224377563699,116.2902962646632z" style="fill:rgb(0,127,127)"/><path d="M-2.8017416347296145,-109.63074874799729L-3.3629516488947535e-14,-106.82903587021187L-3.439111779177979e-14,-109.63074874799729zM-3.3629516488947535e-14,-106.82903587021187L-2.8017416347296145,-109.63074874799729L-2.801742388553702,-106.82903587021187zM-2.8018006855118394,109.84132655882006L3.946944951081267e-14,112.64315753821835L3.870781248803411e-14,109.84132655882006zM3.946944951081267e-14,112.64315753821835L-2.8018006855118394,109.84132655882006L-2.8018014393677038,112.64315753821835z" style="fill:rgb(127,127,254)"/><path d="M72.31346582454486,-110.29442588321247L-3.3629516488947535e-14,-106.82903587021187L70.04355971384163,-106.8290358702119zM72.31346582454486,-110.29442588321247L-2.801742388553702,-106.82903587021187L-3.3629516488947535e-14,-106.82903587021187zM-2.801742388553702,-106.82903587021187L-72.31346582454493,-110.29442588321241L-70.04355971384172,-106.82903587021185z" style="fill:rgb(127,0,127)"/><path d="M3.870781248803411e-14,109.84132655882006L72.31501924182251,113.39766320624177L70.04501713779695,109.84132655882003zM-2.8018006855118394,109.84132655882006L72.31501924182251,113.39766320624177L3.556888448037862e-14,109.84132655882006zM-72.31501924182243,113.39766320624183L-2.8018006855118394,109.84132655882006L-70.04501713779686,109.84132655882009z" style="fill:rgb(127,254,127)"/><path d="M-72.31346582454493,-110.29442588321241L-2.801742388553702,-106.82903587021187L72.31346582454486,-110.29442588321247z" style="fill:rgb(127,0,127)"/><path d="M-2.8018006855118394,109.84132655882006L-72.31501924182243,113.39766320624183L72.31501924182251,113.39766320624177z" style="fill:rgb(127,254,127)"/><path d="M69.42090790818196,-113.18693306125014L72.31336204257926,-125.23902900626769L69.42082756087608,-125.23902900626769zM72.31336204257926,-125.23902900626769L69.42090790818196,-113.18693306125014L72.31344573768955,-113.18693306125014zM-72.31346582454493,-110.29442588321241L72.31344573768955,-113.18693306125014L-72.31344573768963,-113.18693306125009zM72.31344573768955,-113.18693306125014L-72.31346582454493,-110.29442588321241L72.31346582454486,-110.29442588321247zM-75.20770705839962,125.45031155164929L-72.31336204257931,-125.23902900626763L-75.20589652428248,-125.23902900626763zM69.42241847214962,113.39766320624177L72.31346582454486,-110.29442588321247L69.42092719156307,-110.29442588321247zM72.31346582454486,-110.29442588321247L69.42241847214962,113.39766320624177L72.31501924182251,113.39766320624177zM-72.31336204257931,-125.23902900626763L-75.20770705839962,125.45031155164929L-72.31510294076885,125.45031155164929zM-72.31503932955191,116.29029626466325L72.31501924182251,113.39766320624177L-72.31501924182243,113.39766320624183zM72.31501924182251,113.39766320624177L-72.31503932955191,116.29029626466325L72.31503932955198,116.2902962646632zM69.42249882313818,125.45031155164924L72.31503932955198,116.2902962646632L69.4224377563699,116.2902962646632zM72.31503932955198,116.2902962646632L69.42249882313818,125.45031155164924L72.31510294076894,125.45031155164924z" style="fill:rgb(127,127,254)"/><path d="M-3.6491414795175896e-14,-110.29442588321244L-2.9751816927212813,-113.44863601237239L-2.892538632981833,-110.29442588321244z" style="fill:rgb(127,0,127)"/><path d="M-2.975247430804722,116.63465745009138L3.8190143626868563e-14,113.3976632062418L-2.892600769672861,113.3976632062418z" style="fill:rgb(127,254,127)"/><path d="M-2.9751816927212813,-113.44863601237239L-3.6491414795175896e-14,-110.29442588321244L-3.571303121013612e-14,-113.44863601237239z" style="fill:rgb(127,0,127)"/><path d="M3.8190143626868563e-14,113.3976632062418L-2.975247430804722,116.63465745009138L4.110232696951734e-14,116.63465745009138z" style="fill:rgb(127,254,127)"/><path d="M-2.9751808426788826,-116.42378442664204L-3.571303121013612e-14,-113.44863601237239L-3.6521778137414654e-14,-116.42378442664204zM-3.571303121013612e-14,-113.44863601237239L-2.9751808426788826,-116.42378442664204L-2.9751816927212813,-113.44863601237239zM-2.975247430804722,116.63465745009138L4.1911114176100345e-14,119.60993904067064L4.110232696951734e-14,116.63465745009138zM4.1911114176100345e-14,119.60993904067064L-2.975247430804722,116.63465745009138L-2.9752482808851717,119.60993904067064z" style="fill:rgb(127,127,254)"/></svg>
