<?xml version="1.0" encoding="UTF-8"?>
<!-- Generated by jsxcad -->
<!DOCTYPE svg PUBLIC "-//W3C//DTD SVG 1.1 Tiny//EN" "http://www.w3.org/Graphics/SVG/1.1/DTD/svg11-tiny.dtd">
<svg viewBox="-250 -250 500 500" width="500" height="500" xmlns="http://www.w3.org/2000/svg"><path d="M-70.92467412950614,-54.333617850482966L-43.517256905722284,-15.226182601784023L-70.23420156520409,-63.940232641071624zM-43.517256905722284,-15.226182601784023L-70.92467412950614,-54.333617850482966L-71.09241183773075,-51.99985955676053z" style="fill:rgb(247,158,158)"/><path d="M-74.12963043436794,-53.45017169827444L-71.09241183773075,-51.99985955676053L-70.92467412950614,-54.333617850482966zM-71.09241183773075,-51.99985955676053L-74.12963043436794,-53.45017169827444L-74.30480686464914,-51.116207594652835z" style="fill:rgb(83,212,212)"/><path d="M-70.23420156520409,-63.940232641071624L-84.68466215876377,-79.17642226171571L-70.92467412950614,-54.333617850482966z" style="fill:rgb(247,158,158)"/><path d="M-84.68466215876377,-79.17642226171571L-74.12963043436794,-53.45017169827444L-70.92467412950614,-54.333617850482966z" style="fill:rgb(127,37,217)"/><path d="M-84.68466215876377,-79.17642226171571L-70.23420156520409,-63.940232641071624L-83.8417300855426,-88.75136828007828z" style="fill:rgb(247,158,158)"/><path d="M-74.12963043436794,-53.45017169827444L-84.68466215876377,-79.17642226171571L-87.95087005379224,-78.25248481948545z" style="fill:rgb(127,37,217)"/><path d="M99.92592276562476,-99.04271115616626L118.72361952284228,-58.056707159433465L98.66840209954573,-110.89827762430991zM-83.8417300855426,-88.75136828007828L-106.29860834457047,-115.40956551108222L-84.68466215876377,-79.17642226171571zM-106.29860834457047,-115.40956551108222L-83.8417300855426,-88.75136828007828L-104.94193965364863,-127.22419683002859z" style="fill:rgb(247,158,158)"/><path d="M96.19421808616097,-100.40000238140108L99.92592276562476,-99.04271115616626L99.68003587068763,-101.36086485545769zM99.92592276562476,-99.04271115616626L96.19421808616097,-100.40000238140108L96.43130631287387,-98.08143420000923z" style="fill:rgb(83,212,212)"/><path d="M98.66840209954573,-110.89827762430991L89.35301447689208,-128.40790381351673L99.68003587068763,-101.36086485545769z" style="fill:rgb(247,158,158)"/><path d="M89.35301447689208,-128.40790381351673L96.19421808616097,-100.40000238140108L99.68003587068763,-101.36086485545769z" style="fill:rgb(127,37,217)"/><path d="M89.35301447689208,-128.40790381351673L98.66840209954573,-110.89827762430991L88.42494937902512,-137.88774450696647z" style="fill:rgb(247,158,158)"/><path d="M-44.735988411910476,-17.448340880233815L143.42461315330254,188.40388086231985L114.49639952107098,-59.58586928543126zM-109.39353517662778,-116.73149592185295L-106.29860834457047,-115.40956551108222L-106.03329619464728,-117.7200506005847z" style="fill:rgb(83,212,212)"/><path d="M96.19421808616097,-100.40000238140108L89.35301447689208,-128.40790381351673L85.79367136199716,-127.40104486224888z" style="fill:rgb(127,37,217)"/><path d="M-106.29860834457047,-115.40956551108222L-109.39353517662778,-116.73149592185295L-109.6670211796257,-114.42051462084066z" style="fill:rgb(83,212,212)"/><path d="M-104.94193965364863,-127.22419683002859L-121.45133091279138,-145.55635426031338L-106.03329619464728,-117.7200506005847zM-43.517256905722284,-15.226182601784023L-71.09241183773075,-51.99985955676053L-88.06729161159504,184.17358535649328z" style="fill:rgb(247,158,158)"/><path d="M-121.45133091279138,-145.55635426031338L-109.39353517662778,-116.73149592185295L-106.03329619464728,-117.7200506005847z" style="fill:rgb(127,37,217)"/><path d="M-121.45133091279138,-145.55635426031338L-104.94193965364863,-127.22419683002859L-120.17158166379346,-154.9929958284073zM143.42461315330254,188.40388086231985L115.41612109019746,-57.18355072436829L114.49639952107098,-59.58586928543126z" style="fill:rgb(247,158,158)"/><path d="M-109.39353517662778,-116.73149592185295L-121.45133091279138,-145.55635426031338L-124.87872266697471,-144.51977526364527z" style="fill:rgb(127,37,217)"/><path d="M-63.65203278393015,-51.93870740696004L126.60280288462805,151.85264286208812L100.20160251431028,-96.92401844068678z" style="fill:rgb(83,212,212)"/><path d="M-105.7324301034666,159.90695171102263L-71.09241183773075,-51.99985955676053L-84.88949438523858,-76.84971558938702z" style="fill:rgb(247,158,158)"/><path d="M69.61786868436434,-169.395287079006L73.48251452116409,-168.19793165615584L73.290762165158,-170.47581246504782zM73.48251452116409,-168.19793165615584L69.61786868436434,-169.395287079006L69.79984858895699,-167.11661749377262z" style="fill:rgb(83,212,212)"/><path d="M126.60280288462805,151.85264286208812L101.1846830879386,-94.3562011535171L100.20160251431028,-96.92401844068678zM72.50245046706621,-179.84038624109317L61.66030444932123,-200.93663268471218L73.290762165158,-170.47581246504782zM118.72361952284228,-58.056707159433465L99.92592276562476,-99.04271115616626L125.07012998117384,138.0099147869199z" style="fill:rgb(247,158,158)"/><path d="M61.66030444932123,-200.93663268471218L69.61786868436434,-169.395287079006L73.290762165158,-170.47581246504782z" style="fill:rgb(127,37,217)"/><path d="M61.66030444932123,-200.93663268471218L72.50245046706621,-179.84038624109317L60.980604705546476,-210.19818812411017z" style="fill:rgb(247,158,158)"/><path d="M143.42461315330254,188.40388086231985L-44.735988411910476,-17.448340880233815L-55.50217939462262,228.9083270018667z" style="fill:rgb(83,212,212)"/><path d="M-43.517256905722284,-15.226182601784023L-88.06729161159504,184.17358535649328L-53.962895270298546,231.0228250610684z" style="fill:rgb(247,158,158)"/><path d="M69.61786868436434,-169.395287079006L61.66030444932123,-200.93663268471218L57.90581540609271,-199.80111688176382z" style="fill:rgb(127,37,217)"/><path d="M-84.68466215876377,-79.17642226171571L-133.52850648996036,121.72345138737336L-84.88949438523858,-76.84971558938702zM-133.52850648996036,121.72345138737336L-84.68466215876377,-79.17642226171571L-106.29860834457047,-115.40956551108222zM115.41612109019746,-57.18355072436829L143.42461315330254,188.40388086231985L144.49705872345962,190.73414250053517zM112.79255858736968,111.01859163097804L99.92592276562476,-99.04271115616626L89.57865639410244,-126.10305306548611z" style="fill:rgb(247,158,158)"/><path d="M126.60280288462805,151.85264286208812L-63.65203278393015,-51.93870740696004L-79.59444431087867,195.81272982807002z" style="fill:rgb(83,212,212)"/><path d="M-153.90283468507408,93.73521765072644L-106.29860834457047,-115.40956551108222L-121.76253667446723,-143.26157395977395zM-71.09241183773075,-51.99985955676053L-105.7324301034666,159.90695171102263L-88.06729161159504,184.17358535649328zM118.72361952284228,-58.056707159433465L125.07012998117384,138.0099147869199L148.66770206835926,189.88746470770624zM88.42494937902512,-137.88774450696647L93.39774787885653,68.38053014846058L89.35301447689208,-128.40790381351673zM-163.12191212493687,81.07095358960026L-120.17158166379346,-154.9929958284073L-126.99817279469136,-167.44019791986665z" style="fill:rgb(247,158,158)"/><path d="M-167.47532020494262,82.14766590013264L-126.99817279469136,-167.44019791986665L-130.41988728327584,-166.38475817375638z" style="fill:rgb(83,212,212)"/><path d="M93.39774787885653,68.38053014846058L88.42494937902512,-137.88774450696647L72.50245046706621,-179.84038624109317z" style="fill:rgb(247,158,158)"/><path d="M-53.962895270298546,231.0228250610684L143.42461315330254,188.40388086231985L-55.50217939462262,228.9083270018667z" style="fill:rgb(127,37,217)"/><path d="M101.1846830879386,-94.3562011535171L126.60280288462805,151.85264286208812L127.7689748635073,154.3865584339792zM-84.88949438523858,-76.84971558938702L-133.52850648996036,121.72345138737336L-105.7324301034666,159.90695171102263z" style="fill:rgb(247,158,158)"/><path d="M143.42461315330254,188.40388086231985L-53.962895270298546,231.0228250610684L144.49705872345962,190.73414250053517zM-79.97760483095783,183.05582235302967L-85.2754610533367,173.845055926308L-86.12655863903703,174.4869053311747z" style="fill:rgb(127,37,217)"/><path d="M-85.87772597064286,170.9748424646742L-85.2754610533367,173.845055926308L-85.0289059207374,170.33225735175304zM-85.2754610533367,173.845055926308L-85.87772597064286,170.9748424646742L-86.12655863903703,174.4869053311747z" style="fill:rgb(29,185,185)"/><path d="M79.12207370901265,36.9965137095472L73.48251452116409,-168.19793165615584L61.825693095833564,-198.68305317435994zM99.92592276562476,-99.04271115616626L112.79255858736968,111.01859163097804L125.07012998117384,138.0099147869199zM72.64594179210388,22.759216627476402L60.980604705546476,-210.19818812411017L55.80799370871421,-223.82699289496423z" style="fill:rgb(247,158,158)"/><path d="M-77.92740906965867,198.10274806736214L126.60280288462805,151.85264286208812L-79.59444431087867,195.81272982807002zM-85.2754610533367,173.845055926308L-79.97760483095783,183.05582235302967L118.8461646881838,129.13306958900324zM-163.12191212493687,81.07095358960026L-57.74055757257303,231.78972408376274L-53.962895270298546,231.0228250610684z" style="fill:rgb(127,37,217)"/><path d="M52.059809631769895,-222.67085233986182L72.64594179210388,22.759216627476402L55.80799370871421,-223.82699289496423z" style="fill:rgb(83,212,212)"/><path d="M-85.2754610533367,173.845055926308L118.44740329368122,128.26100248888736L-85.84019734379987,173.05640156554514zM-87.25776292686479,172.91050946463685L-103.87089407947578,147.87659900477072L-104.73327175508255,148.55742720468734z" style="fill:rgb(127,37,217)"/><path d="M-106.29860834457047,-115.40956551108222L-153.90283468507408,93.73521765072644L-133.52850648996036,121.72345138737336z" style="fill:rgb(247,158,158)"/><path d="M118.8461646881838,129.13306958900324L-79.97760483095783,183.05582235302967L124.61962914192803,138.77461146401788z" style="fill:rgb(127,37,217)"/><path d="M-104.73327175508255,148.55742720468734L-103.56161250645339,144.3363029422354L-104.42165927706883,145.01780575221068zM-103.56161250645339,144.3363029422354L-104.73327175508255,148.55742720468734L-103.87089407947578,147.87659900477072z" style="fill:rgb(29,185,185)"/><path d="M105.69605723989223,100.37499654901629L-87.25776292686479,172.91050946463685L-85.84019734379987,173.05640156554514zM126.60280288462805,151.85264286208812L-77.92740906965867,198.10274806736214L127.7689748635073,154.3865584339792zM118.44740329368122,128.26100248888736L-85.2754610533367,173.845055926308L118.8461646881838,129.13306958900324z" style="fill:rgb(127,37,217)"/><path d="M89.35301447689208,-128.40790381351673L93.39774787885653,68.38053014846058L112.79255858736968,111.01859163097804z" style="fill:rgb(247,158,158)"/><path d="M-103.87089407947578,147.87659900477072L-87.25776292686479,172.91050946463685L105.69605723989223,100.37499654901629z" style="fill:rgb(127,37,217)"/><path d="M-120.17158166379346,-154.9929958284073L-163.12191212493687,81.07095358960026L-153.90283468507408,93.73521765072644zM124.24479907479936,135.2257424623166L120.29880498760153,129.2940374321549L124.61962914192803,138.77461146401788zM120.29880498760153,129.2940374321549L124.24479907479936,135.2257424623166L119.93318402469444,125.73682778823161z" style="fill:rgb(247,158,158)"/><path d="M105.69605723989223,100.37499654901629L-85.84019734379987,173.05640156554514L118.44740329368122,128.26100248888736zM118.8461646881838,129.13306958900324L124.61962914192803,138.77461146401788L120.29880498760153,129.2940374321549z" style="fill:rgb(127,37,217)"/><path d="M-126.99817279469136,-167.44019791986665L-167.47532020494262,82.14766590013264L-163.12191212493687,81.07095358960026z" style="fill:rgb(83,212,212)"/><path d="M-103.87089407947578,147.87659900477072L105.27174948558402,99.44706151433024L-104.46995062068464,147.0400102287132z" style="fill:rgb(127,37,217)"/><path d="M118.48489515402325,125.57572348219954L120.29880498760153,129.2940374321549L119.93318402469444,125.73682778823161z" style="fill:rgb(149,216,216)"/><path d="M118.44740329368122,128.26100248888736L118.48489515402325,125.57572348219954L118.08700153175732,124.7029187148178z" style="fill:rgb(247,158,158)"/><path d="M120.29880498760153,129.2940374321549L118.48489515402325,125.57572348219954L118.8461646881838,129.13306958900324z" style="fill:rgb(149,216,216)"/><path d="M118.48489515402325,125.57572348219954L118.44740329368122,128.26100248888736L118.8461646881838,129.13306958900324z" style="fill:rgb(247,158,158)"/><path d="M-105.93321709940214,146.88524468199742L-130.03561123518688,111.3376501681397L-130.9124731531756,112.07526762537377z" style="fill:rgb(127,37,217)"/><path d="M119.1395302645163,123.99018124951236L107.19686827158147,100.5462704919456L119.5034265725417,127.54886117365626z" style="fill:rgb(247,158,158)"/><path d="M107.19686827158147,100.5462704919456L118.44740329368122,128.26100248888736L119.5034265725417,127.54886117365626zM87.12422852869032,59.76014565657532L-105.93321709940214,146.88524468199742L-104.46995062068464,147.0400102287132zM105.27174948558402,99.44706151433024L-103.87089407947578,147.87659900477072L105.69605723989223,100.37499654901629zM72.64594179210388,22.759216627476402L144.49705872345962,190.73414250053517L148.66770206835926,189.88746470770624z" style="fill:rgb(127,37,217)"/><path d="M-130.9124731531756,112.07526762537377L-129.632640786308,107.76628197348208L-130.50710607840966,108.50445023283095zM-129.632640786308,107.76628197348208L-130.9124731531756,112.07526762537377L-130.03561123518688,111.3376501681397z" style="fill:rgb(29,185,185)"/><path d="M107.19686827158147,100.5462704919456L119.1395302645163,123.99018124951236L106.86083277424973,96.96742954289537z" style="fill:rgb(247,158,158)"/><path d="M-57.74055757257303,231.78972408376274L-163.12191212493687,81.07095358960026L-167.47532020494262,82.14766590013264zM105.69605723989223,100.37499654901629L118.44740329368122,128.26100248888736L107.19686827158147,100.5462704919456z" style="fill:rgb(127,37,217)"/><path d="M73.48251452116409,-168.19793165615584L79.12207370901265,36.9965137095472L93.39774787885653,68.38053014846058z" style="fill:rgb(247,158,158)"/><path d="M-130.03561123518688,111.3376501681397L-105.93321709940214,146.88524468199742L87.12422852869032,59.76014565657532z" style="fill:rgb(127,37,217)"/><path d="M105.36466629337612,96.7960432374149L107.19686827158147,100.5462704919456L106.86083277424973,96.96742954289537z" style="fill:rgb(149,216,216)"/><path d="M87.12422852869032,59.76014565657532L-104.46995062068464,147.0400102287132L105.27174948558402,99.44706151433024z" style="fill:rgb(127,37,217)"/><path d="M105.27174948558402,99.44706151433024L105.36466629337612,96.7960432374149L104.94136329328491,95.86750763600735z" style="fill:rgb(247,158,158)"/><path d="M107.19686827158147,100.5462704919456L105.36466629337612,96.7960432374149L105.69605723989223,100.37499654901629z" style="fill:rgb(149,216,216)"/><path d="M-68.19027685507287,83.54972244946163L-132.21256710742776,110.2635228008451L-130.68468160232467,110.43121690232941z" style="fill:rgb(127,37,217)"/><path d="M105.36466629337612,96.7960432374149L105.27174948558402,99.44706151433024L105.69605723989223,100.37499654901629z" style="fill:rgb(247,158,158)"/><path d="M-132.21256710742776,110.2635228008451L-68.19027685507287,83.54972244946163L-139.12482880998127,100.63090537109997zM-139.12482880998127,100.63090537109997L-69.6977935191003,83.8018175134839L-139.19150196377174,100.53798173240159zM-139.19150196377174,100.53798173240159L-71.25255562352206,83.91936593035737L-139.3459862672907,100.32269949372194zM-139.3459862672907,100.32269949372194L-72.82746140650757,83.90036793507538L-139.58563894891847,99.98873519259142zM-139.58563894891847,99.98873519259142L-74.3950756820831,83.74514900107812L-139.90635230204018,99.54181082402037zM-139.90635230204018,99.54181082402037L-75.92807624258235,83.45634519053624L-140.30262239075515,98.98958674369229zM-130.03561123518688,111.3376501681397L86.66248839257996,58.75035661046775L-130.68468160232467,110.43121690232941zM-140.30262239075515,98.98958674369229L-77.39967901600137,83.03887542551054L-140.76763522021096,98.34156611799803zM-140.76763522021096,98.34156611799803L-78.78411203053521,82.4998706548704L-141.2933478933727,97.60895152459041zM-141.2933478933727,97.60895152459041L-80.05698831175847,81.84854789362097L-141.87065065462863,96.80445183586107zM-141.87065065462863,96.80445183586107L-81.1957800607158,81.09611346809473L-142.48946729339121,95.94209193876416zM-142.48946729339121,95.94209193876416L-82.18014105026852,80.25553877337994L-143.13894958802706,95.03700408970226zM-143.13894958802706,95.03700408970226L-82.99233827712513,79.34141817879062L-143.80765632979296,94.10513567151813zM-71.25255562352206,83.91936593035737L-139.19150196377174,100.53798173240159L-69.6977935191003,83.8018175134839zM-72.82746140650757,83.90036793507538L-139.3459862672907,100.32269949372194L-71.25255562352206,83.91936593035737zM-69.6977935191003,83.8018175134839L-139.12482880998127,100.63090537109997L-68.19027685507287,83.54972244946163zM-74.3950756820831,83.74514900107812L-139.58563894891847,99.98873519259142L-72.82746140650757,83.90036793507538zM-75.92807624258235,83.45634519053624L-139.90635230204018,99.54181082402037L-74.3950756820831,83.74514900107812zM-143.80765632979296,94.10513567151813L-83.61752074051375,78.36969398763517L-144.48369917588627,93.16301726457327zM-77.39967901600137,83.03887542551054L-140.30262239075515,98.98958674369229L-75.92807624258235,83.45634519053624z" style="fill:rgb(127,37,217)"/><path d="M60.980604705546476,-210.19818812411017L72.64594179210388,22.759216627476402L79.12207370901265,36.9965137095472z" style="fill:rgb(247,158,158)"/><path d="M-78.78411203053521,82.4998706548704L-140.76763522021096,98.34156611799803L-77.39967901600137,83.03887542551054zM-144.48369917588627,93.16301726457327L-84.04404282481158,77.35741585778112L-145.1550594438159,92.22745438842264zM-80.05698831175847,81.84854789362097L-141.2933478933727,97.60895152459041L-78.78411203053521,82.4998706548704z" style="fill:rgb(127,37,217)"/><path d="M106.01647950524712,95.10920638370273L88.693319000172,59.946519446476856L106.35051896096434,98.6892503464309z" style="fill:rgb(247,158,158)"/><path d="M-145.1550594438159,92.22745438842264L-84.2637026787138,76.32246098886931L-145.80965540375792,91.31523107462428zM-81.1957800607158,81.09611346809473L-141.87065065462863,96.80445183586107L-80.05698831175847,81.84854789362097zM88.693319000172,59.946519446476856L105.27174948558402,99.44706151433024L106.35051896096434,98.6892503464309z" style="fill:rgb(127,37,217)"/><path d="M-72.59513897672922,80.31152578156433L-71.25255562352206,83.91936593035737L-71.02526169921929,80.33053414381392z" style="fill:rgb(129,217,217)"/><path d="M-74.15771415780453,80.15621626266606L-72.82746140650757,83.90036793507538L-72.59513897672922,80.31152578156433z" style="fill:rgb(146,216,216)"/><path d="M-71.02526169921929,80.33053414381392L-69.6977935191003,83.8018175134839L-69.47543204343579,80.2129216208552z" style="fill:rgb(112,217,217)"/><path d="M-82.18014105026852,80.25553877337994L-142.48946729339121,95.94209193876416L-81.1957800607158,81.09611346809473z" style="fill:rgb(127,37,217)"/><path d="M-69.6977935191003,83.8018175134839L-67.97266860933442,79.96069032393972L-69.47543204343579,80.2129216208552z" style="fill:rgb(96,214,214)"/><path d="M-75.68575078305447,79.86725544881736L-74.3950756820831,83.74514900107812L-74.15771415780453,80.15621626266606z" style="fill:rgb(163,214,213)"/><path d="M-145.80965540375792,91.31523107462428L-84.27191336043835,75.28320456203707L-146.43568901864353,90.44282321148133z" style="fill:rgb(127,37,217)"/><path d="M-77.15255051117468,79.44956662798153L-75.92807624258235,83.45634519053624L-75.68575078305447,79.86725544881736z" style="fill:rgb(179,209,209)"/><path d="M-71.25255562352206,83.91936593035737L-72.59513897672922,80.31152578156433L-72.82746140650757,83.90036793507538z" style="fill:rgb(129,217,217)"/><path d="M-78.53242127693731,78.91026491176754L-77.39967901600137,83.03887542551054L-77.15255051117468,79.44956662798153z" style="fill:rgb(194,204,204)"/><path d="M-69.6977935191003,83.8018175134839L-71.02526169921929,80.33053414381392L-71.25255562352206,83.91936593035737z" style="fill:rgb(112,217,217)"/><path d="M-82.99233827712513,79.34141817879062L-143.13894958802706,95.03700408970226L-82.18014105026852,80.25553877337994z" style="fill:rgb(127,37,217)"/><path d="M-72.82746140650757,83.90036793507538L-74.15771415780453,80.15621626266606L-74.3950756820831,83.74514900107812z" style="fill:rgb(146,216,216)"/><path d="M-146.43568901864353,90.44282321148133L-84.06785274734781,74.25824733396853L-147.02179280943025,89.62605546830521z" style="fill:rgb(127,37,217)"/><path d="M-67.97266860933442,79.96069032393972L-69.6977935191003,83.8018175134839L-68.19027685507287,83.54972244946163z" style="fill:rgb(96,214,214)"/><path d="M-74.3950756820831,83.74514900107812L-75.68575078305447,79.86725544881736L-75.92807624258235,83.45634519053624z" style="fill:rgb(163,214,213)"/><path d="M-68.19027685507287,83.54972244946163L-130.68468160232467,110.43121690232941L86.66248839257996,58.75035661046775z" style="fill:rgb(127,37,217)"/><path d="M-75.92807624258235,83.45634519053624L-77.15255051117468,79.44956662798153L-77.39967901600137,83.03887542551054z" style="fill:rgb(179,209,209)"/><path d="M-80.05698831175847,81.84854789362097L-78.53242127693731,78.91026491176754L-79.80105889213733,78.25860117014177z" style="fill:rgb(208,197,197)"/><path d="M-83.61752074051375,78.36969398763517L-143.80765632979296,94.10513567151813L-82.99233827712513,79.34141817879062zM-147.02179280943025,89.62605546830521L-83.65450426873699,73.2660341257698L-147.55726989402933,88.87982762403026z" style="fill:rgb(127,37,217)"/><path d="M-151.85359608491538,78.62449953751593L-151.4529046023321,81.42845798577478L-150.9685208272836,77.83828147565679z" style="fill:rgb(29,185,185)"/><path d="M-77.39967901600137,83.03887542551054L-78.53242127693731,78.91026491176754L-78.78411203053521,82.4998706548704z" style="fill:rgb(194,204,204)"/><path d="M-81.1957800607158,81.09611346809473L-79.80105889213733,78.25860117014177L-80.93600630968824,77.50576146505442z" style="fill:rgb(220,188,188)"/><path d="M-149.24141989230606,86.53287719091534L-151.4529046023321,81.42845798577478L-152.34042086509072,82.21425820358118z" style="fill:rgb(127,37,217)"/><path d="M-78.53242127693731,78.91026491176754L-80.05698831175847,81.84854789362097L-78.78411203053521,82.4998706548704z" style="fill:rgb(208,197,197)"/><path d="M-147.55726989402933,88.87982762403026L-83.0386799219916,72.32452346959084L-148.03231516326903,88.21782623910423z" style="fill:rgb(127,37,217)"/><path d="M-151.4529046023321,81.42845798577478L-151.85359608491538,78.62449953751593L-152.34042086509072,82.21425820358118z" style="fill:rgb(29,185,185)"/><path d="M-84.04404282481158,77.35741585778112L-144.48369917588627,93.16301726457327L-83.61752074051375,78.36969398763517z" style="fill:rgb(127,37,217)"/><path d="M-79.80105889213733,78.25860117014177L-81.1957800607158,81.09611346809473L-80.05698831175847,81.84854789362097z" style="fill:rgb(220,188,188)"/><path d="M-82.18014105026852,80.25553877337994L-80.93600630968824,77.50576146505442L-81.91698955506027,76.66475309463063z" style="fill:rgb(231,179,179)"/><path d="M-148.03231516326903,88.21782623910423L-82.23090968682497,71.45086610335886L-148.43817275392172,87.6522414435241z" style="fill:rgb(127,37,217)"/><path d="M-82.72633316027947,75.7501578241356L-82.18014105026852,80.25553877337994L-81.91698955506027,76.66475309463063z" style="fill:rgb(240,169,169)"/><path d="M-84.2637026787138,76.32246098886931L-145.1550594438159,92.22745438842264L-84.04404282481158,77.35741585778112z" style="fill:rgb(127,37,217)"/><path d="M-80.93600630968824,77.50576146505442L-82.18014105026852,80.25553877337994L-81.1957800607158,81.09611346809473z" style="fill:rgb(231,179,179)"/><path d="M-148.43817275392172,87.6522414435241L-81.24529987582318,70.66107218193906L-148.76734748643597,87.1935257729753zM-148.76734748643597,87.1935257729753L-80.09930928806533,69.96967133459135L-149.01373551098376,86.85017885113014z" style="fill:rgb(127,37,217)"/><path d="M-83.34924200765624,74.77793611371045L-82.99233827712513,79.34141817879062L-82.72633316027947,75.7501578241356z" style="fill:rgb(247,158,158)"/><path d="M-84.27191336043835,75.28320456203707L-145.80965540375792,91.31523107462428L-84.2637026787138,76.32246098886931zM-149.01373551098376,86.85017885113014L-78.81344869196353,69.38946021474419L-149.17274560740233,86.62858629913916z" style="fill:rgb(127,37,217)"/><path d="M72.64594179210388,22.759216627476402L52.059809631769895,-222.67085233986182L67.74820850147354,23.970558307111414z" style="fill:rgb(83,212,212)"/><path d="M-149.17274560740233,86.62858629913916L-77.4108944210887,68.93119300979517L-149.24141989230606,86.53287719091534z" style="fill:rgb(127,37,217)"/><path d="M-82.18014105026852,80.25553877337994L-82.72633316027947,75.7501578241356L-82.99233827712513,79.34141817879062z" style="fill:rgb(240,169,169)"/><path d="M-83.77411411925182,73.76514726778964L-83.61752074051375,78.36969398763517L-83.34924200765624,74.77793611371045z" style="fill:rgb(252,146,146)"/><path d="M-84.06785274734781,74.25824733396853L-146.43568901864353,90.44282321148133L-84.27191336043835,75.28320456203707z" style="fill:rgb(127,37,217)"/><path d="M-82.99233827712513,79.34141817879062L-83.34924200765624,74.77793611371045L-83.61752074051375,78.36969398763517z" style="fill:rgb(247,158,158)"/><path d="M-83.99277793824241,72.72966949484858L-84.04404282481158,77.35741585778112L-83.77411411925182,73.76514726778964z" style="fill:rgb(254,134,134)"/><path d="M-83.65450426873699,73.2660341257698L-147.02179280943025,89.62605546830521L-84.06785274734781,74.25824733396853z" style="fill:rgb(127,37,217)"/><path d="M-83.61752074051375,78.36969398763517L-83.77411411925182,73.76514726778964L-84.04404282481158,77.35741585778112z" style="fill:rgb(252,146,146)"/><path d="M5.744822946798835,65.74600457681765L-67.97266860933442,79.96069032393972L-68.19027685507287,83.54972244946163z" style="fill:rgb(83,212,212)"/><path d="M-83.0386799219916,72.32452346959084L-147.55726989402933,88.87982762403026L-83.65450426873699,73.2660341257698z" style="fill:rgb(127,37,217)"/><path d="M-84.00067142638711,71.68990818430046L-84.2637026787138,76.32246098886931L-83.99277793824241,72.72966949484858z" style="fill:rgb(254,122,122)"/><path d="M-84.04404282481158,77.35741585778112L-83.99277793824241,72.72966949484858L-84.2637026787138,76.32246098886931z" style="fill:rgb(254,134,134)"/><path d="M-82.23090968682497,71.45086610335886L-148.03231516326903,88.21782623910423L-83.0386799219916,72.32452346959084z" style="fill:rgb(127,37,217)"/><path d="M-84.2637026787138,76.32246098886931L-84.00067142638711,71.68990818430046L-84.27191336043835,75.28320456203707z" style="fill:rgb(254,122,122)"/><path d="M86.66248839257996,58.75035661046775L-130.03561123518688,111.3376501681397L87.12422852869032,59.76014565657532zM-81.24529987582318,70.66107218193906L-148.43817275392172,87.6522414435241L-82.23090968682497,71.45086610335886zM-80.09930928806533,69.96967133459135L-148.76734748643597,87.1935257729753L-81.24529987582318,70.66107218193906zM-78.81344869196353,69.38946021474419L-149.01373551098376,86.85017885113014L-80.09930928806533,69.96967133459135zM-77.4108944210887,68.93119300979517L-149.17274560740233,86.62858629913916L-78.81344869196353,69.38946021474419z" style="fill:rgb(127,37,217)"/><path d="M88.693319000172,59.946519446476856L106.01647950524712,95.10920638370273L88.40332978090798,56.34651364569093z" style="fill:rgb(247,158,158)"/><path d="M-67.97266860933442,79.96069032393972L5.744822946798835,65.74600457681765L5.7261503807559615,62.14834853154678z" style="fill:rgb(83,212,212)"/><path d="M87.12422852869032,59.76014565657532L105.27174948558402,99.44706151433024L88.693319000172,59.946519446476856zM-68.19027685507287,83.54972244946163L86.66248839257996,58.75035661046775L5.744822946798835,65.74600457681765z" style="fill:rgb(127,37,217)"/><path d="M5.7261503807559615,62.14834853154678L7.23548486067476,65.34930691868752L7.211957707414471,61.75148372028096z" style="fill:rgb(79,211,211)"/><path d="M7.23548486067476,65.34930691868752L8.607273137065075,61.2261803173695L7.211957707414471,61.75148372028096z" style="fill:rgb(64,205,205)"/><path d="M7.23548486067476,65.34930691868752L5.7261503807559615,62.14834853154678L5.744822946798835,65.74600457681765z" style="fill:rgb(79,211,211)"/><path d="M8.607273137065075,61.2261803173695L9.919853085261536,64.17972567113546L9.887558826789562,60.581419563415984z" style="fill:rgb(50,199,199)"/><path d="M8.607273137065075,61.2261803173695L7.23548486067476,65.34930691868752L8.635367250805846,64.82422417187274z" style="fill:rgb(64,205,205)"/><path d="M9.887558826789562,60.581419563415984L11.066212550109146,63.42687417013998L11.03015889664325,59.82825350182359z" style="fill:rgb(37,191,191)"/><path d="M9.919853085261536,64.17972567113546L8.607273137065075,61.2261803173695L8.635367250805846,64.82422417187274z" style="fill:rgb(50,199,199)"/><path d="M11.066212550109146,63.42687417013998L12.014696274849753,58.97967003293505L11.03015889664325,59.82825350182359z" style="fill:rgb(26,182,182)"/><path d="M11.066212550109146,63.42687417013998L9.887558826789562,60.581419563415984L9.919853085261536,64.17972567113546z" style="fill:rgb(37,191,191)"/><path d="M-151.4529046023321,81.42845798577478L-149.24141989230606,86.53287719091534L71.86182645415631,26.382678269263103z" style="fill:rgb(127,37,217)"/><path d="M12.05400237052845,62.57863071688753L12.823429008091374,58.05035030096076L12.014696274849753,58.97967003293505z" style="fill:rgb(16,172,172)"/><path d="M12.014696274849753,58.97967003293505L11.066212550109146,63.42687417013998L12.05400237052845,62.57863071688753z" style="fill:rgb(26,182,182)"/><path d="M12.865420682663235,61.64968292575133L13.441584644709565,57.056478206977296L12.823429008091374,58.05035030096076z" style="fill:rgb(9,161,161)"/><path d="M12.823429008091374,58.05035030096076L12.05400237052845,62.57863071688753L12.865420682663235,61.64968292575133z" style="fill:rgb(16,172,172)"/><path d="M-151.4529046023321,81.42845798577478L71.36813334063264,25.303024710142132L-152.14440609692366,80.46277213130973z" style="fill:rgb(127,37,217)"/><path d="M13.441584644709565,57.056478206977296L13.90311333166281,59.615591471630324L13.857640822544877,56.01546445274312z" style="fill:rgb(4,150,150)"/><path d="M13.441584644709565,57.056478206977296L12.865420682663235,61.64968292575133L13.48564516196754,60.656208408234086z" style="fill:rgb(9,161,161)"/><path d="M86.83931565489603,56.1600680361616L88.693319000172,59.946519446476856L88.40332978090798,56.34651364569093z" style="fill:rgb(149,216,216)"/><path d="M13.90311333166281,59.615591471630324L14.063568261257657,54.945641725437504L13.857640822544877,56.01546445274312z" style="fill:rgb(0,138,138)"/><path d="M13.90311333166281,59.615591471630324L13.441584644709565,57.056478206977296L13.48564516196754,60.656208408234086z" style="fill:rgb(4,150,150)"/><path d="M86.66248839257996,58.75035661046775L86.83931565489603,56.1600680361616L86.3787949631234,55.1498939125011z" style="fill:rgb(247,158,158)"/><path d="M88.693319000172,59.946519446476856L86.83931565489603,56.1600680361616L87.12422852869032,59.76014565657532z" style="fill:rgb(149,216,216)"/><path d="M71.86182645415631,26.382678269263103L-149.24141989230606,86.53287719091534L-77.4108944210887,68.93119300979517z" style="fill:rgb(127,37,217)"/><path d="M86.83931565489603,56.1600680361616L86.66248839257996,58.75035661046775L87.12422852869032,59.76014565657532z" style="fill:rgb(247,158,158)"/><path d="M14.1097667615859,58.5461814631113L14.055016868364147,53.86599833078917L14.063568261257657,54.945641725437504z" style="fill:rgb(0,126,126)"/><path d="M14.063568261257657,54.945641725437504L13.90311333166281,59.615591471630324L14.1097667615859,58.5461814631113z" style="fill:rgb(0,138,138)"/><path d="M82.87200688450231,47.17361880176269L7.23548486067476,65.34930691868752L5.744822946798835,65.74600457681765zM82.85621364423162,47.13897649928429L8.635367250805846,64.82422417187274L7.23548486067476,65.34930691868752z" style="fill:rgb(127,37,217)"/><path d="M14.055016868364147,53.86599833078917L14.1097667615859,58.5461814631113L14.101237969817657,57.4669345838207z" style="fill:rgb(0,126,126)"/><path d="M82.7776049443528,46.96649400178252L9.919853085261536,64.17972567113546L8.635367250805846,64.82422417187274zM82.63751243522805,46.6591097214218L11.066212550109146,63.42687417013998L9.919853085261536,64.17972567113546zM67.0103582522863,12.370621280747114L-153.72546840288948,80.28410939772027L-152.14440609692366,80.46277213130973zM144.49705872345962,190.73414250053517L72.64594179210388,22.759216627476402L67.74820850147354,23.970558307111414zM82.43833302159693,46.2220681028151L12.05400237052845,62.57863071688753L11.066212550109146,63.42687417013998zM5.744822946798835,65.74600457681765L86.66248839257996,58.75035661046775L82.87200688450231,47.17361880176269zM82.18345957564762,45.662836116026966L12.865420682663235,61.64968292575133L12.05400237052845,62.57863071688753zM81.87726229760078,44.99100169169561L13.48564516196754,60.656208408234086L12.865420682663235,61.64968292575133zM81.52502206083334,44.2181248384661L13.90311333166281,59.615591471630324L13.48564516196754,60.656208408234086zM82.87200688450231,47.17361880176269L86.66248839257996,58.75035661046775L87.7722901143681,57.9256316592044zM-153.72546840288948,80.28410939772027L67.0103582522863,12.370621280747114L-161.44400523108487,69.52790343256835zM81.13281662364493,43.357566416858454L14.1097667615859,58.5461814631113L13.90311333166281,59.615591471630324zM7.23548486067476,65.34930691868752L82.87200688450231,47.17361880176269L82.85621364423162,47.13897649928429zM8.635367250805846,64.82422417187274L82.85621364423162,47.13897649928429L82.7776049443528,46.96649400178252zM9.919853085261536,64.17972567113546L82.7776049443528,46.96649400178252L82.63751243522805,46.6591097214218zM14.1097667615859,58.5461814631113L80.25639327904365,41.43454257229689L14.101237969817657,57.4669345838207zM11.066212550109146,63.42687417013998L82.63751243522805,46.6591097214218L82.43833302159693,46.2220681028151z" style="fill:rgb(127,37,217)"/><path d="M67.0103582522863,12.370621280747114L-160.92128813483987,65.93190170814692L-161.44400523108487,69.52790343256835z" style="fill:rgb(83,212,212)"/><path d="M12.05400237052845,62.57863071688753L82.43833302159693,46.2220681028151L82.18345957564762,45.662836116026966zM14.101237969817657,57.4669345838207L79.78752009398713,40.40575905100772L13.876972924109294,56.39712213680011zM12.865420682663235,61.64968292575133L82.18345957564762,45.662836116026966L81.87726229760078,44.99100169169561zM13.876972924109294,56.39712213680011L79.30913233372296,39.35610823802965L13.44029425211545,55.35596411894534zM13.48564516196754,60.656208408234086L81.87726229760078,44.99100169169561L81.52502206083334,44.2181248384661zM13.44029425211545,55.35596411894534L78.82974665184291,38.30425720816363L12.798391099022844,54.362285254562366zM13.90311333166281,59.615591471630324L81.52502206083334,44.2181248384661L81.13281662364493,43.357566416858454zM71.86182645415631,26.382678269263103L-77.4108944210887,68.93119300979517L-2.500299513087915,50.57476375692931z" style="fill:rgb(127,37,217)"/><path d="M87.48472336863611,54.32485941259798L73.48724047689097,26.581938532627337L87.7722901143681,57.9256316592044z" style="fill:rgb(247,158,158)"/><path d="M12.798391099022844,54.362285254562366L78.35793224583365,37.2690201809884L11.962231754018944,53.43416712816165zM14.1097667615859,58.5461814631113L81.13281662364493,43.357566416858454L80.70746296926855,42.42427219803237zM80.25639327904365,41.43454257229689L14.1097667615859,58.5461814631113L80.70746296926855,42.42427219803237zM11.962231754018944,53.43416712816165L77.90218697540274,36.269045325609476L10.946403592450656,52.58858613953035zM10.946403592450656,52.58858613953035L77.47076774955238,35.32244226815758L9.768881512652609,51.84110418735274zM79.78752009398713,40.40575905100772L14.101237969817657,57.4669345838207L80.25639327904365,41.43454257229689zM9.768881512652609,51.84110418735274L77.07153141072286,34.446453800051145L8.450713460487025,51.20552676635254zM79.30913233372296,39.35610823802965L13.876972924109294,56.39712213680011L79.78752009398713,40.40575905100772zM8.450713460487025,51.20552676635254L76.71179446609551,33.657131061924744L7.015647040272012,50.69365521383999zM7.015647040272012,50.69365521383999L76.39817389623491,32.96899504069558L5.489687852324818,50.31501394233209zM71.36813334063264,25.303024710142132L-151.4529046023321,81.42845798577478L71.86182645415631,26.382678269263103zM78.82974665184291,38.30425720816363L13.44029425211545,55.35596411894534L79.30913233372296,39.35610823802965zM5.489687852324818,50.31501394233209L76.13646573450308,32.3947666104406L3.900608855936004,50.0766787282658zM-0.9525509163833299,50.23449547196887L75.68980050612043,31.41470749505388L-2.500299513087915,50.57476375692931zM3.900608855936004,50.0766787282658L75.93152605518705,31.945099760237788L2.2774136394416997,49.98310227502251zM0.6497743469895567,50.036040214332075L75.7060887883959,31.45045297137377L-0.9525509163833299,50.23449547196887zM2.2774136394416997,49.98310227502251L75.78717550117449,31.62835879884861L0.6497743469895567,50.036040214332075zM78.35793224583365,37.2690201809884L12.798391099022844,54.362285254562366L78.82974665184291,38.30425720816363zM77.90218697540274,36.269045325609476L11.962231754018944,53.43416712816165L78.35793224583365,37.2690201809884zM77.47076774955238,35.32244226815758L10.946403592450656,52.58858613953035L77.90218697540274,36.269045325609476zM77.07153141072286,34.446453800051145L9.768881512652609,51.84110418735274L77.47076774955238,35.32244226815758zM76.71179446609551,33.657131061924744L8.450713460487025,51.20552676635254L77.07153141072286,34.446453800051145zM67.0103582522863,12.370621280747114L-152.14440609692366,80.46277213130973L71.36813334063264,25.303024710142132z" style="fill:rgb(127,37,217)"/><path d="M73.48724047689097,26.581938532627337L87.48472336863611,54.32485941259798L73.23882928834196,22.97276860225414z" style="fill:rgb(247,158,158)"/><path d="M76.39817389623491,32.96899504069558L7.015647040272012,50.69365521383999L76.71179446609551,33.657131061924744zM76.13646573450308,32.3947666104406L5.489687852324818,50.31501394233209L76.39817389623491,32.96899504069558zM75.93152605518705,31.945099760237788L3.900608855936004,50.0766787282658L76.13646573450308,32.3947666104406zM75.78717550117449,31.62835879884861L2.2774136394416997,49.98310227502251L75.93152605518705,31.945099760237788zM75.7060887883959,31.45045297137377L0.6497743469895567,50.036040214332075L75.78717550117449,31.62835879884861zM75.68980050612043,31.41470749505388L-0.9525509163833299,50.23449547196887L75.7060887883959,31.45045297137377zM71.86182645415631,26.382678269263103L-2.500299513087915,50.57476375692931L75.68980050612043,31.41470749505388z" style="fill:rgb(127,37,217)"/><path d="M-160.92128813483987,65.93190170814692L67.0103582522863,12.370621280747114L66.78068025420572,8.759797579212085z" style="fill:rgb(83,212,212)"/><path d="M71.61886217343846,22.77347427922199L73.48724047689097,26.581938532627337L73.23882928834196,22.97276860225414z" style="fill:rgb(149,216,216)"/><path d="M71.86182645415631,26.382678269263103L75.68980050612043,31.41470749505388L73.48724047689097,26.581938532627337z" style="fill:rgb(127,37,217)"/><path d="M71.36813334063264,25.303024710142132L71.61886217343846,22.77347427922199L71.12658247552149,21.693649369844103z" style="fill:rgb(247,158,158)"/><path d="M73.48724047689097,26.581938532627337L71.61886217343846,22.77347427922199L71.86182645415631,26.382678269263103z" style="fill:rgb(149,216,216)"/><path d="M71.61886217343846,22.77347427922199L71.36813334063264,25.303024710142132L71.86182645415631,26.382678269263103zM72.2568636236045,20.811674437660972L67.0103582522863,12.370621280747114L72.50246594608845,24.421182472302473z" style="fill:rgb(247,158,158)"/><path d="M67.0103582522863,12.370621280747114L71.36813334063264,25.303024710142132L72.50246594608845,24.421182472302473z" style="fill:rgb(127,37,217)"/><path d="M67.0103582522863,12.370621280747114L72.2568636236045,20.811674437660972L66.78068025420572,8.759797579212085z" style="fill:rgb(247,158,158)"/></svg>
