<?xml version="1.0" encoding="UTF-8"?>
<!-- Generated by jsxcad -->
<!DOCTYPE svg PUBLIC "-//W3C//DTD SVG 1.1 Tiny//EN" "http://www.w3.org/Graphics/SVG/1.1/DTD/svg11-tiny.dtd">
<svg viewBox="-250 -250 500 500" width="500" height="500" xmlns="http://www.w3.org/2000/svg"><path d="M-75.71439335813872,32.03990662623585L-106.64679451601546,37.376962848919334L-105.25580491395971,39.55023749952804zM-75.71439335813872,32.03990662623585L-77.05127766696614,29.833895203532517L-106.64679451601546,37.376962848919334z" style="fill:rgb(127,37,217)"/><path d="M-77.05127766696614,29.833895203532517L-75.53907416074844,29.554978963228105L-76.87247388967104,27.3486691327258zM-77.05127766696614,29.833895203532517L-75.71439335813872,32.03990662623585L-75.53907416074844,29.554978963228105z" style="fill:rgb(247,158,158)"/><path d="M-75.71439335813872,32.03990662623585L-43.84612337143126,21.478185639224062L-75.53907416074844,29.554978963228105zM-77.05127766696614,29.833895203532517L-45.12053897107304,19.236478263431753L-76.87247388967104,27.3486691327258z" style="fill:rgb(83,212,212)"/><path d="M-43.94870025263524,23.964096930357066L-77.05127766696614,29.833895203532517L-75.71439335813872,32.03990662623585z" style="fill:rgb(127,37,217)"/><path d="M-75.71439335813872,32.03990662623585L-43.94870025263524,23.964096930357066L-43.84612337143126,21.478185639224062zM-77.05127766696614,29.833895203532517L-45.226329837825666,21.72260952750426L-45.12053897107304,19.236478263431753z" style="fill:rgb(83,212,212)"/><path d="M-43.94870025263524,23.964096930357066L-45.226329837825666,21.72260952750426L-77.05127766696614,29.833895203532517z" style="fill:rgb(127,37,217)"/><path d="M-45.12053897107304,19.236478263431753L-43.94870025263524,23.964096930357066L-43.84612337143126,21.478185639224062zM-45.12053897107304,19.236478263431753L-45.226329837825666,21.72260952750426L-43.94870025263524,23.964096930357066z" style="fill:rgb(247,158,158)"/><path d="M17.461126581253517,8.35184167037535L-45.226329837825666,21.72260952750426L-43.94870025263524,23.964096930357066zM184.8881552957942,-29.720304497808435L-105.25580491395971,39.55023749952804L-102.95082302856761,43.15153098400921zM17.461126581253517,8.35184167037535L16.30120507184124,6.040967532004328L-45.226329837825666,21.72260952750426z" style="fill:rgb(127,37,217)"/><path d="M16.262489271007798,3.553942667721299L17.461126581253517,8.35184167037535L17.419748265155114,5.864877707041635zM16.262489271007798,3.553942667721299L16.30120507184124,6.040967532004328L17.461126581253517,8.35184167037535z" style="fill:rgb(247,158,158)"/><path d="M17.461126581253517,8.35184167037535L50.620118354548715,-2.596073665394011L17.419748265155114,5.864877707041635zM17.461126581253517,8.35184167037535L50.741344009320606,-0.10900598945963408L50.620118354548715,-2.596073665394011z" style="fill:rgb(83,212,212)"/><path d="M-96.40049143049625,-2.0945667366675265L-128.26006719821575,3.608499444075621L-126.7740575704061,5.930231130692315zM182.70785114935754,-36.37141571282798L-126.7740575704061,5.930231130692315L-106.64679451601546,37.376962848919334zM-96.40049143049625,-2.0945667366675265L-97.82941926291929,-4.452460583644747L-128.26006719821575,3.608499444075621z" style="fill:rgb(127,37,217)"/><path d="M-97.82941926291929,-4.452460583644747L-96.1697431583595,-4.581611024732972L-97.59472285435052,-6.939453767352481zM-97.82941926291929,-4.452460583644747L-96.40049143049625,-2.0945667366675265L-96.1697431583595,-4.581611024732972z" style="fill:rgb(247,158,158)"/><path d="M-96.40049143049625,-2.0945667366675265L-63.56914419329662,-13.214821624013993L-96.1697431583595,-4.581611024732972zM-129.0150882722904,-6.41923401248656L-125.48234605960288,-9.770223441457908L-128.70499570803244,-8.906165048223619zM-97.82941926291929,-4.452460583644747L-64.9318233605967,-15.61178517768844L-97.59472285435052,-6.939453767352481z" style="fill:rgb(83,212,212)"/><path d="M-63.722932307348465,-10.72808808457993L-97.82941926291929,-4.452460583644747L-96.40049143049625,-2.0945667366675265z" style="fill:rgb(127,37,217)"/><path d="M-129.0150882722904,-6.41923401248656L-125.78492348825954,-7.283325322479113L-125.48234605960288,-9.770223441457908z" style="fill:rgb(83,212,212)"/><path d="M115.11451039003119,-16.474631404270287L49.64694879815083,-2.4579260347651526L50.741344009320606,-0.10900598945963408z" style="fill:rgb(127,37,217)"/><path d="M-96.40049143049625,-2.0945667366675265L-63.722932307348465,-10.72808808457993L-63.56914419329662,-13.214821624013993z" style="fill:rgb(83,212,212)"/><path d="M184.8881552957942,-29.720304497808435L183.52863204278103,-33.86759285169384L-105.25580491395971,39.55023749952804z" style="fill:rgb(127,37,217)"/><path d="M-97.82941926291929,-4.452460583644747L-65.0892665182104,-13.125199983417145L-64.9318233605967,-15.61178517768844z" style="fill:rgb(83,212,212)"/><path d="M-63.722932307348465,-10.72808808457993L-65.0892665182104,-13.125199983417145L-97.82941926291929,-4.452460583644747z" style="fill:rgb(127,37,217)"/><path d="M-64.9318233605967,-15.61178517768844L-63.722932307348465,-10.72808808457993L-63.56914419329662,-13.214821624013993z" style="fill:rgb(247,158,158)"/><path d="M-129.01508827231135,-6.419232320787357L-144.10162097667123,-21.142255054667274L-133.8503675394472,-5.125761382964397z" style="fill:rgb(127,37,217)"/><path d="M-139.20511058291606,-22.47564250524827L-129.01508827231135,-6.419232320787357L-128.70499570804637,-8.906163923135127zM-64.9318233605967,-15.61178517768844L-65.0892665182104,-13.125199983417145L-63.722932307348465,-10.72808808457993z" style="fill:rgb(247,158,158)"/><path d="M115.11451039003119,-16.474631404270287L114.15033009571525,-18.89802688463528L49.64694879815083,-2.4579260347651526z" style="fill:rgb(127,37,217)"/><path d="M-129.24832713629672,51.27276037682369L-120.25063866676498,1.4868321595187257L-123.45833646166525,2.336539048867778z" style="fill:rgb(83,212,212)"/><path d="M-139.20511058291606,-22.47564250524827L-128.70499570804637,-8.906163923135127L-138.8654120261356,-24.961400816256276zM114.15033009571525,-18.89802688463528L114.8351809858534,-18.96096706075624L113.87270640223092,-21.384149640999542zM114.15033009571525,-18.89802688463528L115.11451039003119,-16.474631404270287L114.8351809858534,-18.96096706075624z" style="fill:rgb(247,158,158)"/><path d="M-129.01508827231135,-6.419232320787357L-139.20511058291606,-22.47564250524827L-144.10162097667123,-21.142255054667274z" style="fill:rgb(127,37,217)"/><path d="M-120.56366764426748,178.1149899107076L16.30120507184124,6.040967532004328L-106.64679451601546,37.376962848919334z" style="fill:rgb(83,212,212)"/><path d="M-0.5001106241988957,-27.43177030275177L-65.0892665182104,-13.125199983417145L-63.722932307348465,-10.72808808457993z" style="fill:rgb(127,37,217)"/><path d="M115.11451039003119,-16.474631404270287L149.65311979040203,-27.834149440363017L114.8351809858534,-18.96096706075624zM114.15033009571525,-18.89802688463528L148.76280728845725,-30.298098386048768L113.87270640223092,-21.384149640999542z" style="fill:rgb(83,212,212)"/><path d="M150.0201962293816,-25.34872539429806L114.15033009571525,-18.89802688463528L115.11451039003119,-16.474631404270287z" style="fill:rgb(127,37,217)"/><path d="M115.11451039003119,-16.474631404270287L150.0201962293816,-25.34872539429806L149.65311979040203,-27.834149440363017z" style="fill:rgb(83,212,212)"/><path d="M-0.5001106241988957,-27.43177030275177L-1.741865355458033,-29.90567967720384L-65.0892665182104,-13.125199983417145z" style="fill:rgb(127,37,217)"/><path d="M114.15033009571525,-18.89802688463528L149.1285427469763,-27.81298891202344L148.76280728845725,-30.298098386048768z" style="fill:rgb(83,212,212)"/><path d="M150.0201962293816,-25.34872539429806L149.1285427469763,-27.81298891202344L114.15033009571525,-18.89802688463528z" style="fill:rgb(127,37,217)"/><path d="M148.76280728845725,-30.298098386048768L150.0201962293816,-25.34872539429806L149.65311979040203,-27.834149440363017z" style="fill:rgb(247,158,158)"/><path d="M169.92092577515595,-75.37848161740912L-133.8503675394472,-5.125761382964397L-128.26006719821575,3.608499444075621z" style="fill:rgb(127,37,217)"/><path d="M148.76280728845725,-30.298098386048768L149.1285427469763,-27.81298891202344L150.0201962293816,-25.34872539429806zM-1.7375851179691286,-32.39049820296201L-0.5001106241988957,-27.43177030275177L-0.49888455116127167,-29.916930869225272zM-1.7375851179691286,-32.39049820296201L-1.741865355458033,-29.90567967720384L-0.5001106241988957,-27.43177030275177z" style="fill:rgb(247,158,158)"/><path d="M-0.5001106241988957,-27.43177030275177L33.70675008188157,-38.975180893879006L-0.49888455116127167,-29.916930869225272z" style="fill:rgb(83,212,212)"/><path d="M183.52863204278103,-33.86759285169384L149.1285427469763,-27.81298891202344L150.0201962293816,-25.34872539429806z" style="fill:rgb(127,37,217)"/><path d="M-129.24832713629672,51.27276037682369L-125.89502130577415,50.42505801864022L-120.25063866676498,1.4868321595187257zM-0.5001106241988957,-27.43177030275177L33.7902911326263,-36.49140903934961L33.70675008188157,-38.975180893879006z" style="fill:rgb(83,212,212)"/><path d="M183.52863204278103,-33.86759285169384L182.70785114935754,-36.37141571282798L149.1285427469763,-27.81298891202344zM182.70785114935754,-36.37141571282798L170.80211285870146,-72.69038997478792L-126.7740575704061,5.930231130692315zM153.5781900263254,-82.01488762939812L-135.93394379057432,-23.36642715361827L-125.78492348827317,-7.283324193749811z" style="fill:rgb(127,37,217)"/><path d="M18.503782941964733,147.5302802089393L17.461126581253517,8.35184167037535L16.30120507184124,6.040967532004328z" style="fill:rgb(247,158,158)"/><path d="M18.553922128063665,150.7511270444486L49.528070496016404,-4.944964395581628L16.262489271007798,3.553942667721299z" style="fill:rgb(83,212,212)"/><path d="M100.17268058845094,-54.029856448507665L32.61802056973397,-39.007476347405024L33.7902911326263,-36.49140903934961z" style="fill:rgb(127,37,217)"/><path d="M-145.63647144921802,145.14567281988008L-123.45833646166525,2.336539048867778L-128.26006719821575,3.608499444075621z" style="fill:rgb(83,212,212)"/><path d="M-124.34180095912768,52.75061833107618L-129.24832713629672,51.27276037682369L-127.6885694545859,53.59434844583163zM-124.34180095912768,52.75061833107618L-125.89502130577415,50.42505801864022L-129.24832713629672,51.27276037682369z" style="fill:rgb(127,37,217)"/><path d="M50.620118354548715,-2.596073665394011L49.528070496016404,-4.944964395581628L56.57198967580479,142.42015355309954z" style="fill:rgb(247,158,158)"/><path d="M100.17268058845094,-54.029856448507665L99.13875149656866,-56.62855906781017L32.61802056973397,-39.007476347405024z" style="fill:rgb(127,37,217)"/><path d="M-143.02934282229458,134.44953004029207L-120.25063866676498,1.4868321595187257L-125.78492348827317,-7.283324193749811zM99.13875149656866,-56.62855906781017L99.92100114142949,-56.50987335801206L98.88908041074862,-59.10789924951285zM99.13875149656866,-56.62855906781017L100.17268058845094,-54.029856448507665L99.92100114142949,-56.50987335801206z" style="fill:rgb(247,158,158)"/><path d="M-146.68577713161892,135.29920720990705L-125.78492348827317,-7.283324193749811L-129.01508827231135,-6.419232320787357z" style="fill:rgb(83,212,212)"/><path d="M169.92092577515595,-75.37848161740912L166.60324829432483,-85.4991792430977L-133.8503675394472,-5.125761382964397z" style="fill:rgb(127,37,217)"/><path d="M100.17268058845094,-54.029856448507665L135.85317809401133,-66.02534175997111L99.92100114142949,-56.50987335801206zM-136.579766346371,143.06450989822665L-1.741865355458033,-29.90567967720384L-120.25063866676498,1.4868321595187257z" style="fill:rgb(83,212,212)"/><path d="M-133.4197703072893,86.52923640765454L-127.6885694545859,53.59434844583163L-129.24832713629672,51.27276037682369z" style="fill:rgb(247,158,158)"/><path d="M99.13875149656866,-56.62855906781017L134.8980589332649,-68.66864512968642L98.88908041074862,-59.10789924951285z" style="fill:rgb(83,212,212)"/><path d="M136.19833579879312,-63.54795919654499L99.13875149656866,-56.62855906781017L100.17268058845094,-54.029856448507665z" style="fill:rgb(127,37,217)"/><path d="M-124.34180095912768,52.75061833107618L-125.89502130577415,50.42505801864022L-129.9618289580739,85.6853115346049z" style="fill:rgb(247,158,158)"/><path d="M-125.89502130577415,50.42505801864022L-129.24832713629672,51.27276037682369L-133.4197703072893,86.52923640765454zM100.17268058845094,-54.029856448507665L136.19833579879312,-63.54795919654499L135.85317809401133,-66.02534175997111zM56.41768648420132,139.1919892764703L182.70785114935754,-36.37141571282798L49.64694879815083,-2.4579260347651526zM99.13875149656866,-56.62855906781017L135.24161004455362,-66.19206680084194L134.8980589332649,-68.66864512968642z" style="fill:rgb(83,212,212)"/><path d="M136.19833579879312,-63.54795919654499L135.24161004455362,-66.19206680084194L99.13875149656866,-56.62855906781017z" style="fill:rgb(127,37,217)"/><path d="M134.8980589332649,-68.66864512968642L136.19833579879312,-63.54795919654499L135.85317809401133,-66.02534175997111zM134.8980589332649,-68.66864512968642L135.24161004455362,-66.19206680084194L136.19833579879312,-63.54795919654499zM-125.48234605960288,-9.770223441457908L-135.60195074317798,-25.852088157960914L-155.32870730778174,121.84400105255028z" style="fill:rgb(247,158,158)"/><path d="M160.50839287808463,-104.09179513302159L-179.50628486799997,-76.45831956885186L-144.10162097667123,-21.142255054667274zM170.80211285870146,-72.69038997478792L135.24161004455362,-66.19206680084194L136.19833579879312,-63.54795919654499z" style="fill:rgb(127,37,217)"/><path d="M-133.4197703072893,86.52923640765454L-131.79969992687737,88.84025935308888L-127.6885694545859,53.59434844583163z" style="fill:rgb(247,158,158)"/><path d="M153.5781900263254,-82.01488762939812L147.28827895063034,-100.49176872356081L-135.93394379057432,-23.36642715361827z" style="fill:rgb(127,37,217)"/><path d="M-124.34180095912768,52.75061833107618L-129.9618289580739,85.6853115346049L-128.34870566459696,88.00040613046116z" style="fill:rgb(247,158,158)"/><path d="M-125.89502130577415,50.42505801864022L-133.4197703072893,86.52923640765454L-129.9618289580739,85.6853115346049z" style="fill:rgb(83,212,212)"/><path d="M170.80211285870146,-72.69038997478792L169.92092577515595,-75.37848161740912L135.24161004455362,-66.19206680084194z" style="fill:rgb(127,37,217)"/><path d="M-135.60195074317798,-25.852088157960914L-138.8654211643905,-24.96140310082213L-159.04762502328728,122.72297468902629zM-120.56366764426748,178.1149899107076L18.503782941964733,147.5302802089393L16.30120507184124,6.040967532004328zM-174.40129642560922,-77.93423151142223L-170.55114061585667,-81.3925944951266L-173.9535847284416,-80.40685107189738zM-174.40129642560922,-77.93423151142223L-170.99048196048622,-78.920336164035L-170.55114061585667,-81.3925944951266z" style="fill:rgb(83,212,212)"/><path d="M-1.9865397829356064,112.13599781505769L-0.5001106241988957,-27.43177030275177L-1.741865355458033,-29.90567967720384z" style="fill:rgb(247,158,158)"/><path d="M-129.9618289580739,85.6853115346049L-131.79969992687737,88.84025935308888L-128.34870566459696,88.00040613046116z" style="fill:rgb(127,37,217)"/><path d="M153.5781900263254,-82.01488762939812L156.88579588787337,-85.47891575933077L153.1825006294277,-84.4859785842657z" style="fill:rgb(83,212,212)"/><path d="M-129.9618289580739,85.6853115346049L-133.4197703072893,86.52923640765454L-131.79969992687737,88.84025935308888z" style="fill:rgb(127,37,217)"/><path d="M153.5781900263254,-82.01488762939812L157.29141036661113,-83.00819800660275L156.88579588787337,-85.47891575933077zM-1.9921363683611617,115.38500522271458L32.537190308493,-41.490798494322725L-1.7375851179691286,-32.39049820296201z" style="fill:rgb(83,212,212)"/><path d="M-174.40129642560922,-77.93423151142223L-191.21466313918233,-94.75142267171755L-179.50628486799997,-76.45831956885186z" style="fill:rgb(127,37,217)"/><path d="M-186.0417424381299,-96.27605202141079L-174.40129642560922,-77.93423151142223L-173.9535847284416,-80.40685107189738zM18.503782941964733,147.5302802089393L19.814455419078342,149.79429489051324L17.461126581253517,8.35184167037535zM183.52863204278103,-33.86759285169384L182.70785114935754,-36.37141571282798L208.5490360640077,105.73418334949737zM128.27401643431637,-202.42409503971106L184.8881552957942,-29.720304497808435L184.43391316337244,-32.20514961251776zM147.28827895063034,-100.49176872356081L153.5781900263254,-82.01488762939812L153.1825006294277,-84.4859785842657zM-186.0417424381299,-96.27605202141079L-173.9535847284416,-80.40685107189738L-185.55634258301205,-98.74122734621189zM33.70675008188157,-38.975180893879006L32.537190308493,-41.490798494322725L37.3501618414263,106.37602571555128z" style="fill:rgb(247,158,158)"/><path d="M-174.40129642560922,-77.93423151142223L-186.0417424381299,-96.27605202141079L-191.21466313918233,-94.75142267171755zM166.60324829432483,-85.4991792430977L151.0569756635975,-101.51804255731105L157.29140963539666,-83.00819762023113z" style="fill:rgb(127,37,217)"/><path d="M164.91838361613884,-23.09115279321614L160.68524788529064,-72.93198873926877L157.0022996839097,-71.95639194949341zM-145.63647144921802,145.14567281988008L-140.20749023214984,143.89813161959742L-123.45833646166525,2.336539048867778z" style="fill:rgb(83,212,212)"/><path d="M-177.68478449194552,-43.90694503446847L-170.73270317335442,-81.68110795964265L-170.9052495153943,-81.95532375955213zM-177.77602657794236,-45.09628365075696L-170.9052495153943,-81.95532375955213L-171.13267990712694,-82.3167604807455zM-177.65661062046675,-42.772089220528585L-170.61671656170324,-81.49679797912735L-170.73270317335442,-81.68110795964265zM-177.92933367037787,-46.32823465886335L-171.13267990712694,-82.3167604807455L-171.4127615840651,-82.76186391675957zM-177.69188280096768,-41.70310239423299L-170.55844452524838,-81.40419360780564L-170.61671656170324,-81.49679797912735zM-178.14312168287867,-47.59055685857487L-171.4127615840651,-82.76186391675957L-171.74274276801466,-83.28626237413572zM-178.41523134039173,-48.870744466293075L-171.74274276801466,-83.28626237413572L-172.11937376984554,-83.88478972848347zM147.28827895063034,-100.49176872356081L153.1825006294277,-84.4859785842657L146.90257065277564,-102.9550143000341zM-178.74294498332043,-50.1561294504485L-172.11937376984554,-83.88478972848347L-172.53892823780308,-84.55153675086665zM-179.12301680538332,-51.43400130417279L-172.53892823780308,-84.55153675086665L-172.99724010493242,-85.27987130981654zM-179.55171341607334,-52.69171983758111L-172.99724010493242,-85.27987130981654L-173.4897532670456,-86.06257086754175zM-180.02481858005166,-53.91682448960428L-173.4897532670456,-86.06257086754175L-174.01153697080082,-86.89178377895519zM-180.5376981090095,-55.09713132043237L-174.01153697080082,-86.89178377895519L-174.5573571771873,-87.75919279815156z" style="fill:rgb(247,158,158)"/><path d="M18.553922128063665,150.7511270444486L56.57198967580479,142.42015355309954L49.528070496016404,-4.944964395581628z" style="fill:rgb(83,212,212)"/><path d="M-181.08533026661715,-56.22087850593512L-174.5573571771873,-87.75919279815156L-175.12171820250563,-88.65605848114019zM-143.02934282229458,134.44953004029207L-136.579766346371,143.06450989822665L-120.25063866676498,1.4868321595187257zM-181.66232092197066,-57.27677642145863L-175.12171820250563,-88.65605848114019L-175.6988924415177,-89.5732866769131zM50.620118354548715,-2.596073665394011L56.57198967580479,142.42015355309954L57.80089771200468,144.72455114737804z" style="fill:rgb(247,158,158)"/><path d="M166.60324829432483,-85.4991792430977L160.50839287808463,-104.09179513302159L151.0569756635975,-101.51804255731105z" style="fill:rgb(127,37,217)"/><path d="M-182.26299197985202,-58.25417087068031L-175.6988924415177,-89.5732866769131L-176.28300864141366,-90.50153635908212z" style="fill:rgb(247,158,158)"/><path d="M-85.8796350178523,176.11946575800903L-120.87915046057192,181.30537298106242L-119.2680791715058,183.41500105041342z" style="fill:rgb(127,37,217)"/><path d="M-182.88137284987604,-59.14311531981313L-176.28300864141366,-90.50153635908212L-176.86806410590415,-91.4313104138045zM-183.5113543924821,-59.93446459200608L-176.86806410590415,-91.4313104138045L-177.44807837721936,-92.35305102930484zM-184.1466269132856,-60.61998838259051L-177.44807837721936,-92.35305102930484L-178.01704128129396,-93.25723077379594z" style="fill:rgb(247,158,158)"/><path d="M-140.20749023214984,143.89813161959742L-129.9618289580739,85.6853115346049L-133.4197703072893,86.52923640765454zM37.24421470963393,103.12106883810898L157.0022996839097,-71.95639194949341L32.61802056973397,-39.007476347405024z" style="fill:rgb(83,212,212)"/><path d="M-184.7807979855572,-61.1924403292564L-178.01704128129396,-93.25723077379594L-178.56903923072926,-94.13445733687097z" style="fill:rgb(247,158,158)"/><path d="M-85.8796350178523,176.11946575800903L-87.42165453535492,173.9737691847827L-120.87915046057192,181.30537298106242z" style="fill:rgb(127,37,217)"/><path d="M-185.40746317737302,-61.64565914665L-178.56903923072926,-94.13445733687097L-179.09832369582256,-94.9755991840927z" style="fill:rgb(247,158,158)"/><path d="M-146.68577713161892,135.29920720990705L-143.02934282229458,134.44953004029207L-125.78492348827317,-7.283324193749811z" style="fill:rgb(83,212,212)"/><path d="M-87.42165453535492,173.9737691847827L-85.65415005821916,172.92349667465575L-87.19155325640638,170.77554458580659zM-87.42165453535492,173.9737691847827L-85.8796350178523,176.11946575800903L-85.65415005821916,172.92349667465575zM-186.0202384162955,-61.97463388734706L-179.09832369582256,-94.9755991840927L-179.59935120152426,-95.7718207780445zM-186.61283146538602,-62.17555845666423L-179.59935120152426,-95.7718207780445L-180.06684564023024,-96.51475690611342z" style="fill:rgb(247,158,158)"/><path d="M-85.8796350178523,176.11946575800903L-49.77053894730622,165.05424410921364L-85.65415005821916,172.92349667465575z" style="fill:rgb(83,212,212)"/><path d="M19.814455419078342,149.79429489051324L-120.56366764426748,178.1149899107076L-118.95756248524775,180.22690975088287z" style="fill:rgb(127,37,217)"/><path d="M-187.1791129579169,-62.245911894654355L-180.06684564023024,-96.51475690611342L-180.4958718229174,-97.1965473148468zM-178.14312168287867,-47.59055685857487L-177.92933367037787,-46.32823465886335L-171.4127615840651,-82.76186391675957zM-178.41523134039173,-48.870744466293075L-178.14312168287867,-47.59055685857487L-171.74274276801466,-83.28626237413572zM-177.92933367037787,-46.32823465886335L-177.77602657794236,-45.09628365075696L-171.13267990712694,-82.3167604807455zM-178.74294498332043,-50.1561294504485L-178.41523134039173,-48.870744466293075L-172.11937376984554,-83.88478972848347zM-177.77602657794236,-45.09628365075696L-177.68478449194552,-43.90694503446847L-170.9052495153943,-81.95532375955213zM-179.12301680538332,-51.43400130417279L-178.74294498332043,-50.1561294504485L-172.53892823780308,-84.55153675086665zM-177.68478449194552,-43.90694503446847L-177.65661062046675,-42.772089220528585L-170.73270317335442,-81.68110795964265zM-187.71317479960481,-62.184478737897344L-180.4958718229174,-97.1965473148468L-180.88187826650287,-97.80997383902086zM-179.55171341607334,-52.69171983758111L-179.12301680538332,-51.43400130417279L-172.99724010493242,-85.27987130981654zM-177.65661062046675,-42.772089220528585L-177.69188280096768,-41.70310239423299L-170.61671656170324,-81.49679797912735zM-180.02481858005166,-53.91682448960428L-179.55171341607334,-52.69171983758111L-173.4897532670456,-86.06257086754175zM-188.20939066788574,-61.99139924756256L-180.88187826650287,-97.80997383902086L-181.2207539348145,-98.34851697651273zM-177.69188280096768,-41.70310239423299L-177.7904084809478,-40.71077463631789L-170.55844452524838,-81.40419360780564zM-180.5376981090095,-55.09713132043237L-180.02481858005166,-53.91682448960428L-174.01153697080082,-86.89178377895519z" style="fill:rgb(247,158,158)"/><path d="M-87.42165453535492,173.9737691847827L-51.23236422786543,162.86714761272071L-87.19155325640638,170.77554458580659z" style="fill:rgb(83,212,212)"/><path d="M-49.902750281502534,168.2583402815417L-87.42165453535492,173.9737691847827L-85.8796350178523,176.11946575800903z" style="fill:rgb(127,37,217)"/><path d="M-188.66249391186622,-61.66817948862408L-181.2207539348145,-98.34851697651273L-181.50888586421522,-98.80641286606362zM-181.08533026661715,-56.22087850593512L-180.5376981090095,-55.09713132043237L-174.5573571771873,-87.75919279815156zM-189.06762657131296,-61.21770219215367L-181.50888586421522,-98.80641286606362L-181.7431901456789,-99.17876468463592zM-181.66232092197066,-57.27677642145863L-181.08533026661715,-56.22087850593512L-175.12171820250563,-88.65605848114019z" style="fill:rgb(247,158,158)"/><path d="M-85.8796350178523,176.11946575800903L-49.902750281502534,168.2583402815417L-49.77053894730622,165.05424410921364z" style="fill:rgb(83,212,212)"/><path d="M-189.42040195337725,-60.64419910467075L-181.7431901456789,-99.17876468463592L-181.9211550439105,-99.46159168247998zM-182.26299197985202,-58.25417087068031L-181.66232092197066,-57.27677642145863L-175.6988924415177,-89.5732866769131z" style="fill:rgb(247,158,158)"/><path d="M164.91838361613884,-23.09115279321614L168.7944838331641,-24.071010166679436L160.68524788529064,-72.93198873926877z" style="fill:rgb(83,212,212)"/><path d="M-189.71697029360806,-59.95325006946613L-181.9211550439105,-99.46159168247998L-182.04088231983985,-99.65184603492013zM-189.95402443747645,-59.15171392232574L-182.04088231983985,-99.65184603492013L-182.10106450814396,-99.74749486373302zM-182.88137284987604,-59.14311531981313L-182.26299197985202,-58.25417087068031L-176.28300864141366,-90.50153635908212zM-125.48234605960288,-9.770223441457908L-155.32870730778174,121.84400105255028L-143.4225919113405,137.68166839316305zM-183.5113543924821,-59.93446459200608L-182.88137284987604,-59.14311531981313L-176.86806410590415,-91.4313104138045z" style="fill:rgb(247,158,158)"/><path d="M-87.42165453535492,173.9737691847827L-51.36879928363198,166.07343592987957L-51.23236422786543,162.86714761272071z" style="fill:rgb(83,212,212)"/><path d="M-49.902750281502534,168.2583402815417L-51.36879928363198,166.07343592987957L-87.42165453535492,173.9737691847827z" style="fill:rgb(127,37,217)"/><path d="M-51.23236422786543,162.86714761272071L-49.902750281502534,168.2583402815417L-49.77053894730622,165.05424410921364zM-184.1466269132856,-60.61998838259051L-183.5113543924821,-59.93446459200608L-177.44807837721936,-92.35305102930484z" style="fill:rgb(247,158,158)"/><path d="M125.45557143366892,-164.62638559438838L-182.58541601527943,-97.29475963127375L-170.99048196048622,-78.920336164035z" style="fill:rgb(127,37,217)"/><path d="M-184.7807979855572,-61.1924403292564L-184.1466269132856,-60.61998838259051L-178.01704128129396,-93.25723077379594zM-51.23236422786543,162.86714761272071L-51.36879928363198,166.07343592987957L-49.902750281502534,168.2583402815417zM-185.40746317737302,-61.64565914665L-184.7807979855572,-61.1924403292564L-178.56903923072926,-94.13445733687097zM-196.2701934994792,63.333467680824526L-135.93394379057432,-23.36642715361827L-170.99048196048622,-78.920336164035z" style="fill:rgb(247,158,158)"/><path d="M160.50839287808463,-104.09179513302159L139.34788029426088,-168.64282180411712L-179.50628486799997,-76.45831956885186z" style="fill:rgb(127,37,217)"/><path d="M-186.0202384162955,-61.97463388734706L-185.40746317737302,-61.64565914665L-179.09832369582256,-94.9755991840927z" style="fill:rgb(247,158,158)"/><path d="M-136.579766346371,143.06450989822665L-1.9865397829356064,112.13599781505769L-1.741865355458033,-29.90567967720384z" style="fill:rgb(83,212,212)"/><path d="M-186.61283146538602,-62.17555845666423L-186.0202384162955,-61.97463388734706L-179.59935120152426,-95.7718207780445z" style="fill:rgb(247,158,158)"/><path d="M-178.74294498332043,-50.1561294504485L-182.27005577548152,-49.16058390887242L-181.9426664487337,-47.87636891928263z" style="fill:rgb(97,120,251)"/><path d="M-178.41523134039173,-48.870744466293075L-181.9426664487337,-47.87636891928263L-181.67127130297305,-46.59721745635189z" style="fill:rgb(94,133,250)"/><path d="M-179.12301680538332,-51.43400130417279L-182.65019653137114,-50.43717299935802L-182.27005577548152,-49.16058390887242z" style="fill:rgb(100,108,250)"/><path d="M-187.1791129579169,-62.245911894654355L-186.61283146538602,-62.17555845666423L-180.06684564023024,-96.51475690611342z" style="fill:rgb(247,158,158)"/><path d="M-178.14312168287867,-47.59055685857487L-181.67127130297305,-46.59721745635189L-181.45858114132676,-45.33578767999215z" style="fill:rgb(91,145,248)"/><path d="M-179.55171341607334,-52.69171983758111L-183.0793546791178,-51.69350320909321L-182.65019653137114,-50.43717299935802z" style="fill:rgb(104,95,248)"/><path d="M-178.74294498332043,-50.1561294504485L-181.9426664487337,-47.87636891928263L-178.41523134039173,-48.870744466293075z" style="fill:rgb(97,120,251)"/><path d="M-179.12301680538332,-51.43400130417279L-182.27005577548152,-49.16058390887242L-178.74294498332043,-50.1561294504485z" style="fill:rgb(100,108,250)"/><path d="M-178.41523134039173,-48.870744466293075L-181.67127130297305,-46.59721745635189L-178.14312168287867,-47.59055685857487z" style="fill:rgb(94,133,250)"/><path d="M-179.55171341607334,-52.69171983758111L-182.65019653137114,-50.43717299935802L-179.12301680538332,-51.43400130417279z" style="fill:rgb(104,95,248)"/><path d="M-177.92933367037787,-46.32823465886335L-181.45858114132676,-45.33578767999215L-181.30674470149307,-44.104586779062195z" style="fill:rgb(89,157,245)"/><path d="M-180.02481858005166,-53.91682448960428L-183.55330969885637,-52.91712731502219L-183.0793546791178,-51.69350320909321z" style="fill:rgb(108,83,245)"/><path d="M19.814455419078342,149.79429489051324L18.503782941964733,147.5302802089393L-120.56366764426748,178.1149899107076z" style="fill:rgb(127,37,217)"/><path d="M-178.14312168287867,-47.59055685857487L-181.45858114132676,-45.33578767999215L-177.92933367037787,-46.32823465886335z" style="fill:rgb(91,145,248)"/><path d="M-180.02481858005166,-53.91682448960428L-183.0793546791178,-51.69350320909321L-179.55171341607334,-52.69171983758111z" style="fill:rgb(108,83,245)"/><path d="M-177.77602657794236,-45.09628365075696L-181.30674470149307,-44.104586779062195L-181.21733186273252,-42.91584373684475z" style="fill:rgb(87,169,240)"/><path d="M-177.92933367037787,-46.32823465886335L-181.30674470149307,-44.104586779062195L-177.77602657794236,-45.09628365075696z" style="fill:rgb(89,157,245)"/><path d="M-180.5376981090095,-55.09713132043237L-184.06741858067898,-54.09588039298909L-183.55330969885637,-52.91712731502219zM-180.5376981090095,-55.09713132043237L-183.55330969885637,-52.91712731502219L-180.02481858005166,-53.91682448960428z" style="fill:rgb(112,72,241)"/><path d="M-187.71317479960481,-62.184478737897344L-187.1791129579169,-62.245911894654355L-180.4958718229174,-97.1965473148468z" style="fill:rgb(247,158,158)"/><path d="M-140.20749023214984,143.89813161959742L-136.579766346371,143.06450989822665L-129.9618289580739,85.6853115346049z" style="fill:rgb(83,212,212)"/><path d="M-177.77602657794236,-45.09628365075696L-181.21733186273252,-42.91584373684475L-177.68478449194552,-43.90694503446847z" style="fill:rgb(87,169,240)"/><path d="M-177.68478449194552,-43.90694503446847L-181.21733186273252,-42.91584373684475L-181.1913282111569,-41.78142311039192z" style="fill:rgb(85,181,235)"/><path d="M-181.08533026661715,-56.22087850593512L-184.61664838964893,-55.21800084338669L-184.06741858067898,-54.09588039298909zM-181.08533026661715,-56.22087850593512L-184.06741858067898,-54.09588039298909L-180.5376981090095,-55.09713132043237z" style="fill:rgb(116,61,236)"/><path d="M-177.68478449194552,-43.90694503446847L-181.1913282111569,-41.78142311039192L-177.65661062046675,-42.772089220528585z" style="fill:rgb(85,181,235)"/><path d="M-177.65661062046675,-42.772089220528585L-181.1913282111569,-41.78142311039192L-181.22909050145805,-40.71270921725037z" style="fill:rgb(84,192,228)"/><path d="M-181.66232092197066,-57.27677642145863L-185.19558928570783,-56.27222978132773L-184.61664838964893,-55.21800084338669z" style="fill:rgb(120,51,229)"/><path d="M-188.20939066788574,-61.99139924756256L-187.71317479960481,-62.184478737897344L-180.88187826650287,-97.80997383902086z" style="fill:rgb(247,158,158)"/><path d="M-181.66232092197066,-57.27677642145863L-184.61664838964893,-55.21800084338669L-181.08533026661715,-56.22087850593512z" style="fill:rgb(120,51,229)"/><path d="M19.86800976197659,153.01308223592596L-51.36879928363198,166.07343592987957L-49.902750281502534,168.2583402815417z" style="fill:rgb(127,37,217)"/><path d="M-177.65661062046675,-42.772089220528585L-181.22909050145805,-40.71270921725037L-177.69188280096768,-41.70310239423299z" style="fill:rgb(84,192,228)"/><path d="M-177.69188280096768,-41.70310239423299L-181.22909050145805,-40.71270921725037L-181.33040213903277,-39.72048429121366z" style="fill:rgb(84,202,220)"/><path d="M211.44760727094382,115.56825871547433L-119.2680791715058,183.41500105041342L-116.60045532940737,186.90813444113286z" style="fill:rgb(127,37,217)"/><path d="M-182.26299197985202,-58.25417087068031L-185.79854431112344,-57.24792937054684L-185.19558928570783,-56.27222978132773zM-182.26299197985202,-58.25417087068031L-185.19558928570783,-56.27222978132773L-181.66232092197066,-57.27677642145863z" style="fill:rgb(125,41,221)"/><path d="M-188.66249391186622,-61.66817948862408L-188.20939066788574,-61.99139924756256L-181.2207539348145,-98.34851697651273z" style="fill:rgb(247,158,158)"/><path d="M-177.69188280096768,-41.70310239423299L-181.33040213903277,-39.72048429121366L-177.7904084809478,-40.71077463631789z" style="fill:rgb(84,202,220)"/><path d="M-182.88137284987604,-59.14311531981313L-186.41952064484408,-58.13515488763424L-185.79854431112344,-57.24792937054684zM-182.88137284987604,-59.14311531981313L-185.79854431112344,-57.24792937054684L-182.26299197985202,-58.25417087068031z" style="fill:rgb(129,33,213)"/><path d="M56.41768648420132,139.1919892764703L208.5490360640077,105.73418334949737L182.70785114935754,-36.37141571282798zM-135.60195074317798,-25.852088157960914L-159.04762502328728,122.72297468902629L-155.32870730778174,121.84400105255028z" style="fill:rgb(83,212,212)"/><path d="M-189.06762657131296,-61.21770219215367L-188.66249391186622,-61.66817948862408L-181.50888586421522,-98.80641286606362z" style="fill:rgb(247,158,158)"/><path d="M-183.5113543924821,-59.93446459200608L-186.41952064484408,-58.13515488763424L-182.88137284987604,-59.14311531981313zM-183.5113543924821,-59.93446459200608L-187.052383815389,-58.92479834015306L-186.41952064484408,-58.13515488763424z" style="fill:rgb(134,25,203)"/><path d="M-189.42040195337725,-60.64419910467075L-189.06762657131296,-61.21770219215367L-181.7431901456789,-99.17876468463592z" style="fill:rgb(247,158,158)"/><path d="M-184.1466269132856,-60.61998838259051L-187.052383815389,-58.92479834015306L-183.5113543924821,-59.93446459200608zM-184.1466269132856,-60.61998838259051L-187.69079584071605,-59.60863168588492L-187.052383815389,-58.92479834015306z" style="fill:rgb(138,18,193)"/><path d="M-189.71697029360806,-59.95325006946613L-189.42040195337725,-60.64419910467075L-181.9211550439105,-99.46159168247998z" style="fill:rgb(247,158,158)"/><path d="M169.72084807403442,-21.383186697050828L164.91838361613884,-23.09115279321614L165.85366608131773,-20.408262659316453z" style="fill:rgb(127,37,217)"/><path d="M-189.95402443747645,-59.15171392232574L-189.71697029360806,-59.95325006946613L-182.04088231983985,-99.65184603492013z" style="fill:rgb(247,158,158)"/><path d="M-184.7807979855572,-61.1924403292564L-187.69079584071605,-59.60863168588492L-184.1466269132856,-60.61998838259051zM-184.7807979855572,-61.1924403292564L-188.32833337523573,-60.17942583338444L-187.69079584071605,-59.60863168588492z" style="fill:rgb(142,13,182)"/><path d="M169.72084807403442,-21.383186697050828L168.7944838331641,-24.071010166679436L164.91838361613884,-23.09115279321614z" style="fill:rgb(127,37,217)"/><path d="M-185.40746317737302,-61.64565914665L-188.32833337523573,-60.17942583338444L-184.7807979855572,-61.1924403292564zM-185.40746317737302,-61.64565914665L-188.95855863470504,-60.63105168126869L-188.32833337523573,-60.17942583338444z" style="fill:rgb(146,9,171)"/><path d="M184.29578219638321,69.32972231873136L169.92092577515595,-75.37848161740912L160.68524788529064,-72.93198873926877z" style="fill:rgb(83,212,212)"/><path d="M-1.9865397829356064,112.13599781505769L-0.5701746898494411,114.58258394554088L-0.5001106241988957,-27.43177030275177z" style="fill:rgb(247,158,158)"/><path d="M19.86800976197659,153.01308223592596L18.553922128063665,150.7511270444486L-51.36879928363198,166.07343592987957z" style="fill:rgb(127,37,217)"/><path d="M194.9514016889136,66.88114333967061L170.80211285870146,-72.69038997478792L169.92092577515595,-75.37848161740912z" style="fill:rgb(247,158,158)"/><path d="M-186.0202384162955,-61.97463388734706L-188.95855863470504,-60.63105168126869L-185.40746317737302,-61.64565914665zM-186.0202384162955,-61.97463388734706L-189.5750521111902,-60.95849494111895L-188.95855863470504,-60.63105168126869z" style="fill:rgb(150,6,159)"/><path d="M132.31202001233032,-190.1059713398138L-197.9200453741697,-105.22789049581326L-191.21466313918233,-94.75142267171755z" style="fill:rgb(127,37,217)"/><path d="M-186.61283146538602,-62.17555845666423L-189.5750521111902,-60.95849494111895L-186.0202384162955,-61.97463388734706zM-186.61283146538602,-62.17555845666423L-190.17148411536027,-61.157985781498255L-189.5750521111902,-60.95849494111895z" style="fill:rgb(154,4,146)"/><path d="M-187.1791129579169,-62.245911894654355L-190.17148411536027,-61.157985781498255L-186.61283146538602,-62.17555845666423zM-187.1791129579169,-62.245911894654355L-190.74168659335342,-61.22699856757166L-190.17148411536027,-61.157985781498255z" style="fill:rgb(157,3,134)"/><path d="M18.503782941964733,147.5302802089393L19.86800976197659,153.01308223592596L19.814455419078342,149.79429489051324z" style="fill:rgb(247,158,158)"/><path d="M-200.15922848830152,64.32152606321509L-170.99048196048622,-78.920336164035L-174.40129642560922,-77.93423151142223z" style="fill:rgb(83,212,212)"/><path d="M-196.86100070234448,66.59722690427259L-170.55114061585667,-81.3925944951266L-170.55844452524838,-81.40419360780564z" style="fill:rgb(247,158,158)"/><path d="M-187.71317479960481,-62.184478737897344L-190.74168659335342,-61.22699856757166L-187.1791129579169,-62.245911894654355zM-187.71317479960481,-62.184478737897344L-191.27971155299667,-61.164347473709164L-190.74168659335342,-61.22699856757166z" style="fill:rgb(160,4,121)"/><path d="M18.503782941964733,147.5302802089393L18.553922128063665,150.7511270444486L19.86800976197659,153.01308223592596zM180.64324989129045,59.23476853358834L160.68524788529064,-72.93198873926877L157.29140963539666,-83.00819762023113z" style="fill:rgb(247,158,158)"/><path d="M-197.9200453741697,-105.22789049581326L127.90820418351528,-204.81585993474152L-197.39960232979396,-107.68887066903501zM19.86800976197659,153.01308223592596L57.64364558419856,141.49837897021143L19.814455419078342,149.79429489051324z" style="fill:rgb(83,212,212)"/><path d="M183.52863204278103,-33.86759285169384L208.5490360640077,105.73418334949737L209.41710424351535,108.21454537864754z" style="fill:rgb(247,158,158)"/><path d="M176.35563049817728,60.2311200659852L157.29140963539666,-83.00819762023113L153.5781900263254,-82.01488762939812zM-1.9921363683611617,115.38500522271458L37.3501618414263,106.37602571555128L32.537190308493,-41.490798494322725z" style="fill:rgb(83,212,212)"/><path d="M57.80089771200468,144.72455114737804L18.553922128063665,150.7511270444486L19.86800976197659,153.01308223592596z" style="fill:rgb(127,37,217)"/><path d="M19.86800976197659,153.01308223592596L57.80089771200468,144.72455114737804L57.64364558419856,141.49837897021143z" style="fill:rgb(83,212,212)"/><path d="M170.65467691443152,12.318441858823096L165.85366608131773,-20.408262659316453L164.91838361613884,-23.09115279321614zM33.70675008188157,-38.975180893879006L37.3501618414263,106.37602571555128L38.679435753142236,108.86864125943099z" style="fill:rgb(247,158,158)"/><path d="M-109.84165204114389,142.77672437708787L-146.03215402323602,148.36865532722814L-144.29551341590297,150.6427006753887z" style="fill:rgb(127,37,217)"/><path d="M169.72084807403442,-21.383186697050828L168.7944838331641,-24.071010166679436L174.67118940455086,11.33819235239933z" style="fill:rgb(247,158,158)"/><path d="M168.7944838331641,-24.071010166679436L164.91838361613884,-23.09115279321614L170.65467691443152,12.318441858823096z" style="fill:rgb(83,212,212)"/><path d="M209.140629991506,108.98747372168854L-144.29551341590297,150.6427006753887L-120.87915046057192,181.30537298106242z" style="fill:rgb(127,37,217)"/><path d="M128.27401643431637,-202.42409503971106L184.43391316337244,-32.20514961251776L127.90820418351528,-204.81585993474152z" style="fill:rgb(247,158,158)"/><path d="M-143.02934282229458,134.44953004029207L-140.20749023214984,143.89813161959742L-136.579766346371,143.06450989822665zM57.80089771200468,144.72455114737804L56.57198967580479,142.42015355309954L18.553922128063665,150.7511270444486z" style="fill:rgb(127,37,217)"/><path d="M-177.7904084809478,-40.71077463631789L-181.33040213903277,-39.72048429121366L-191.76670434721743,17.91394102774256z" style="fill:rgb(83,212,212)"/><path d="M-109.84165204114389,142.77672437708787L-111.50494151866884,140.46228260925827L-146.03215402323602,148.36865532722814zM-143.02934282229458,134.44953004029207L-146.68577713161892,135.29920720990705L-140.20749023214984,143.89813161959742z" style="fill:rgb(127,37,217)"/><path d="M-196.2701934994792,63.333467680824526L-154.89537116659466,118.59956983171197L-135.93394379057432,-23.36642715361827zM-111.50494151866884,140.46228260925827L-109.54217145979163,139.54886468687008L-111.20014527237925,137.2324598781828zM-111.50494151866884,140.46228260925827L-109.84165204114389,142.77672437708787L-109.54217145979163,139.54886468687008z" style="fill:rgb(247,158,158)"/><path d="M-109.84165204114389,142.77672437708787L-72.491636591662,131.06031829067183L-109.54217145979163,139.54886468687008z" style="fill:rgb(83,212,212)"/><path d="M125.45557143366892,-164.62638559438838L118.1979298309284,-185.94605980659205L-182.58541601527943,-97.29475963127375zM-0.5701746898494411,114.58258394554088L-145.63647144921802,145.14567281988008L-143.90552914165272,147.42175589587237z" style="fill:rgb(127,37,217)"/><path d="M-147.08870060240127,138.53064366961593L-143.02934299858373,134.44953020587795L-146.68577740255864,135.29920745962258zM-111.50494151866884,140.46228260925827L-74.06920618337881,128.70005209761257L-111.20014527237925,137.2324598781828z" style="fill:rgb(83,212,212)"/><path d="M156.88579588787337,-85.47891575933077L150.66103415562716,-103.98080619859478L174.43595976544395,43.903059375941375z" style="fill:rgb(247,158,158)"/><path d="M-72.69169394513823,134.29520276783137L-111.50494151866884,140.46228260925827L-109.84165204114389,142.77672437708787z" style="fill:rgb(127,37,217)"/><path d="M-147.08870060240127,138.53064366961593L-143.4225919113405,137.68166839316305L-143.02934299858373,134.44953020587795zM-182.10860905920958,-99.75946648726394L-185.55634258301205,-98.74122734621189L-214.68293247929142,49.18248946346317z" style="fill:rgb(83,212,212)"/><path d="M131.41745387816482,128.63896816212323L56.57198967580479,142.42015355309954L57.80089771200468,144.72455114737804z" style="fill:rgb(127,37,217)"/><path d="M170.65467691443152,12.318441858823096L171.60744877001727,15.00207626352751L165.85366608131773,-20.408262659316453zM-210.72354779890685,48.157096388732995L-182.10106450814396,-99.74749486373302L-182.10860905920958,-99.75946648726394z" style="fill:rgb(247,158,158)"/><path d="M-109.84165204114389,142.77672437708787L-72.69169394513823,134.29520276783137L-72.491636591662,131.06031829067183z" style="fill:rgb(83,212,212)"/><path d="M169.72084807403442,-21.383186697050828L174.67118940455086,11.33819235239933L175.61438371046455,14.026934445033895z" style="fill:rgb(247,158,158)"/><path d="M211.44760727094382,115.56825871547433L210.00958161726106,111.46620580978735L-119.2680791715058,183.41500105041342z" style="fill:rgb(127,37,217)"/><path d="M168.7944838331641,-24.071010166679436L170.65467691443152,12.318441858823096L174.67118940455086,11.33819235239933zM-111.50494151866884,140.46228260925827L-74.27414848121099,131.9368252858921L-74.06920618337881,128.70005209761257z" style="fill:rgb(83,212,212)"/><path d="M-72.69169394513823,134.29520276783137L-74.27414848121099,131.9368252858921L-111.50494151866884,140.46228260925827zM209.41710424351535,108.21454537864754L56.41768648420132,139.1919892764703L57.64364558419856,141.49837897021143z" style="fill:rgb(127,37,217)"/><path d="M-74.06920618337881,128.70005209761257L-72.69169394513823,134.29520276783137L-72.491636591662,131.06031829067183z" style="fill:rgb(247,158,158)"/><path d="M150.66103415562716,-103.98080619859478L146.90257099863578,-102.95501454267146L170.06036312081702,44.93724563434452z" style="fill:rgb(83,212,212)"/><path d="M-147.08870042078115,138.53064349869157L-164.61267621353284,124.03829448723306L-152.5749682292347,139.80112525408882z" style="fill:rgb(127,37,217)"/><path d="M-159.0476141572272,122.72297438091421L-147.08870042078115,138.53064349869157L-146.68577713161892,135.29920720990705zM-74.06920618337881,128.70005209761257L-74.27414848121099,131.9368252858921L-72.69169394513823,134.29520276783137z" style="fill:rgb(247,158,158)"/><path d="M-155.32870730778174,121.84400105255028L-147.08870060240127,138.53064366961593L-143.4225919113405,137.68166839316305zM131.41745387816482,128.63896816212323L130.3590097637539,126.25105353396052L56.57198967580479,142.42015355309954z" style="fill:rgb(127,37,217)"/><path d="M-218.03333500390812,34.26353487912471L-182.58541601527943,-97.29475963127375L-189.22622449138348,-107.81839594721437z" style="fill:rgb(247,158,158)"/><path d="M125.45557143366892,-164.62638559438838L129.05715860022758,-168.19417527300908L125.10863807960851,-167.0502241317983zM125.45557143366892,-164.62638559438838L129.41538111087254,-165.77121139760214L129.05715860022758,-168.19417527300908z" style="fill:rgb(83,212,212)"/><path d="M-0.5701746898494411,114.58258394554088L-1.9865397829356064,112.13599781505769L-145.63647144921802,145.14567281988008z" style="fill:rgb(127,37,217)"/><path d="M-159.0476141572272,122.72297438091421L-146.68577713161892,135.29920720990705L-158.60432629245065,119.47918580771997z" style="fill:rgb(247,158,158)"/><path d="M-189.22622449138348,-107.81839594721437L-192.70846603102999,-106.78079260793149L-222.01518821365107,35.31116307538026z" style="fill:rgb(83,212,212)"/><path d="M132.31202001233032,-190.1059713398138L128.27401643431637,-202.42409503971106L-197.9200453741697,-105.22789049581326z" style="fill:rgb(127,37,217)"/><path d="M130.3590097637539,126.25105353396052L131.05352680664114,125.39963510650617L129.99707212265986,123.00989023124005zM130.3590097637539,126.25105353396052L131.41745387816482,128.63896816212323L131.05352680664114,125.39963510650617z" style="fill:rgb(247,158,158)"/><path d="M37.24421470963393,103.12106883810898L180.04851514928657,70.30571049716244L157.0022996839097,-71.95639194949341z" style="fill:rgb(83,212,212)"/><path d="M-147.08870042078115,138.53064349869157L-159.0476141572272,122.72297438091421L-164.61267621353284,124.03829448723306zM-0.5717767758429838,117.82987844447577L-74.27414848121099,131.9368252858921L-72.69169394513823,134.29520276783137zM174.67118940455086,11.33819235239933L171.60744877001727,15.00207626352751L175.61438371046455,14.026934445033895zM-155.32870730778174,121.84400105255028L-159.04762502328728,122.72297468902629L-147.08870060240127,138.53064366961593z" style="fill:rgb(127,37,217)"/><path d="M-177.7904084809478,-40.71077463631789L-191.76670434721743,17.91394102774256L-188.03288150459073,16.92242826796179zM131.41745387816482,128.63896816212323L170.9909140748443,116.64138055730486L131.05352680664114,125.39963510650617z" style="fill:rgb(83,212,212)"/><path d="M174.67118940455086,11.33819235239933L170.65467691443152,12.318441858823096L171.60744877001727,15.00207626352751z" style="fill:rgb(127,37,217)"/><path d="M-197.9200453741697,-105.22789049581326L128.27401643431637,-202.42409503971106L127.90820418351528,-204.81585993474152z" style="fill:rgb(83,212,212)"/><path d="M118.1979298309284,-185.94605980659205L125.45557143366892,-164.62638559438838L125.10863807960851,-167.0502241317983z" style="fill:rgb(247,158,158)"/><path d="M130.3590097637539,126.25105353396052L170.02951859898639,114.2056747976286L129.99707212265986,123.00989023124005z" style="fill:rgb(83,212,212)"/><path d="M171.47029655495015,119.88722458205163L130.3590097637539,126.25105353396052L131.41745387816482,128.63896816212323z" style="fill:rgb(127,37,217)"/><path d="M131.41745387816482,128.63896816212323L171.47029655495015,119.88722458205163L170.9909140748443,116.64138055730486z" style="fill:rgb(83,212,212)"/><path d="M209.41710424351535,108.21454537864754L208.5490360640077,105.73418334949737L56.41768648420132,139.1919892764703zM139.34788029426088,-168.64282180411712L122.22078890823991,-187.1317449200582L129.41538111087254,-165.77121139760214zM-0.5717767758429838,117.82987844447577L-1.9921363683611617,115.38500522271458L-74.27414848121099,131.9368252858921z" style="fill:rgb(127,37,217)"/><path d="M130.3590097637539,126.25105353396052L170.50746507195421,117.45324442758091L170.02951859898639,114.2056747976286z" style="fill:rgb(83,212,212)"/><path d="M171.47029655495015,119.88722458205163L170.50746507195421,117.45324442758091L130.3590097637539,126.25105353396052z" style="fill:rgb(127,37,217)"/><path d="M118.1979298309284,-185.94605980659205L125.10863807960851,-167.0502241317983L117.86530540792882,-188.35262438849117zM170.02951859898639,114.2056747976286L171.47029655495015,119.88722458205163L170.9909140748443,116.64138055730486z" style="fill:rgb(247,158,158)"/><path d="M195.52745204129667,70.15509501756411L-152.5749682292347,139.80112525408882L-146.03215402323602,148.36865532722814z" style="fill:rgb(127,37,217)"/><path d="M170.02951859898639,114.2056747976286L170.50746507195421,117.45324442758091L171.47029655495015,119.88722458205163zM-1.9865397829356064,112.13599781505769L-0.5717767758429838,117.82987844447577L-0.5701746898494411,114.58258394554088zM134.3604173772177,-131.45492652071144L128.94450879722837,-168.529023406168L128.83742689256619,-168.84728940816314zM134.09500502387718,-132.69334003768807L128.83742689256619,-168.84728940816314L128.69629020583778,-169.2668064870618zM134.59578322882473,-130.285971486774L129.01647560209275,-168.31511222145755L128.94450879722837,-168.529023406168zM133.80220638776345,-133.9888526386023L128.69629020583778,-169.2668064870618L128.5224687837044,-169.78345279731664zM134.79869110902249,-129.1981903999815L129.05263429160598,-168.20763670483424L129.01647560209275,-168.31511222145755zM133.48494467675943,-135.32861655037414L128.5224687837044,-169.78345279731664L128.31766471367155,-170.3922034123307zM133.14636662291477,-136.69937070204224L128.31766471367155,-170.3922034123307L128.083887462662,-171.08704877618317zM132.78982414421577,-138.08760810591932L128.083887462662,-171.08704877618317L127.82344627615949,-171.8611588241618zM-1.9865397829356064,112.13599781505769L-1.9921363683611617,115.38500522271458L-0.5717767758429838,117.82987844447577z" style="fill:rgb(247,158,158)"/><path d="M139.34788029426088,-168.64282180411712L132.31202001233032,-190.1059713398138L122.22078890823991,-187.1317449200582z" style="fill:rgb(127,37,217)"/><path d="M132.41883338080552,-139.47962020858532L127.82344627615949,-171.8611588241618L127.53891933960135,-172.7068558652847z" style="fill:rgb(247,158,158)"/><path d="M-0.5717767758429838,117.82987844447577L38.570009732303504,105.61527368255376L-0.5701746898494411,114.58258394554088z" style="fill:rgb(83,212,212)"/><path d="M210.00958161726106,111.46620580978735L170.50746507195421,117.45324442758091L171.47029655495015,119.88722458205163z" style="fill:rgb(127,37,217)"/><path d="M132.03704484702394,-140.86170222700446L127.53891933960135,-172.7068558652847L127.23312838945691,-173.61577124037882zM194.9514016889136,66.88114333967061L195.8929444140019,69.57144139657746L170.80211285870146,-72.69038997478792zM131.64821989740165,-142.2202015290698L127.23312838945691,-173.61577124037882L126.90912921255648,-174.57880878437854z" style="fill:rgb(247,158,158)"/><path d="M184.29578219638321,69.32972231873136L194.9514016889136,66.88114333967061L169.92092577515595,-75.37848161740912z" style="fill:rgb(83,212,212)"/><path d="M131.25618013775653,-143.5416603174744L126.90912921255648,-174.57880878437854L126.57015469114091,-175.5863344591236zM130.864811794796,-144.81296044946117L126.57015469114091,-175.5863344591236L126.21963069847291,-176.62818091510402z" style="fill:rgb(247,158,158)"/><path d="M38.679435753142236,108.86864125943099L-1.9921363683611617,115.38500522271458L-0.5717767758429838,117.82987844447577z" style="fill:rgb(127,37,217)"/><path d="M130.47800435068172,-146.02138499411302L126.21963069847291,-176.62818091510402L125.86111348783439,-177.6938244426844zM180.64324989129045,59.23476853358834L184.29578219638321,69.32972231873136L160.68524788529064,-72.93198873926877z" style="fill:rgb(247,158,158)"/><path d="M-0.5717767758429838,117.82987844447577L38.679435753142236,108.86864125943099L38.570009732303504,105.61527368255376z" style="fill:rgb(83,212,212)"/><path d="M130.09959649729245,-147.15477954879293L125.86111348783439,-177.6938244426844L125.49823560779907,-178.77241081438757z" style="fill:rgb(247,158,158)"/><path d="M210.00958161726106,111.46620580978735L209.140629991506,108.98747372168854L170.50746507195421,117.45324442758091z" style="fill:rgb(127,37,217)"/><path d="M129.7333860146888,-148.20166316233934L125.49823560779907,-178.77241081438757L125.13471449077043,-179.85290631396958z" style="fill:rgb(247,158,158)"/><path d="M-200.15922848830152,64.32152606321509L-196.2701934994792,63.333467680824526L-170.99048196048622,-78.920336164035z" style="fill:rgb(83,212,212)"/><path d="M129.38306740689623,-149.15131880017518L125.13471449077043,-179.85290631396958L124.77428593873589,-180.92420264937246z" style="fill:rgb(247,158,158)"/><path d="M209.140629991506,108.98747372168854L196.47017443626166,72.84425686658325L-144.29551341590297,150.6427006753887z" style="fill:rgb(127,37,217)"/><path d="M-188.03288150459073,16.92242826796179L-191.76670434721743,17.91394102774256L-192.0153688118335,18.828702262716643z" style="fill:rgb(84,220,202)"/><path d="M38.679435753142236,108.86864125943099L37.3501618414263,106.37602571555128L-1.9921363683611617,115.38500522271458z" style="fill:rgb(127,37,217)"/><path d="M129.0522040019716,-149.99391210898457L124.77428593873589,-180.92420264937246L124.42067869748158,-181.97521060317456zM-196.86100070234448,66.59722690427259L-196.85225685558186,66.60885024824765L-170.55114061585667,-81.3925944951266z" style="fill:rgb(247,158,158)"/><path d="M-188.03288150459073,16.92242826796179L-192.0153688118335,18.828702262716643L-188.27789056342564,17.837040453115602z" style="fill:rgb(84,220,202)"/><path d="M180.04851514928657,70.30571049716244L174.67118940455086,11.33819235239933L170.65467691443152,12.318441858823096z" style="fill:rgb(83,212,212)"/><path d="M-188.27789056342564,17.837040453115602L-192.0153688118335,18.828702262716643L-192.32734912323465,19.63773327644687z" style="fill:rgb(84,228,192)"/><path d="M128.74420317348384,-150.72061377747923L124.42067869748158,-181.97521060317456L124.07757713388303,-182.99503420509174z" style="fill:rgb(247,158,158)"/><path d="M-188.27789056342564,17.837040453115602L-192.32734912323465,19.63773327644687L-188.5859874475953,18.645745998176007z" style="fill:rgb(84,228,192)"/><path d="M-188.5859874475953,18.645745998176007L-192.32734912323465,19.63773327644687L-192.69969419560317,20.332543025791907z" style="fill:rgb(85,235,181)"/><path d="M128.46223555835104,-151.32365937026034L124.07757713388303,-182.99503420509174L123.74854507411801,-183.9730131868579z" style="fill:rgb(247,158,158)"/><path d="M-188.5859874475953,18.645745998176007L-192.69969419560317,20.332543025791907L-188.9542586632195,19.3400549298826z" style="fill:rgb(85,235,181)"/><path d="M176.35563049817728,60.2311200659852L180.64324989129045,59.23476853358834L157.29140963539666,-83.00819762023113z" style="fill:rgb(83,212,212)"/><path d="M176.88029746531606,63.50769139127625L-155.3287069171041,121.84400074635418L-143.42259173408064,137.68166822312728z" style="fill:rgb(127,37,217)"/><path d="M-188.9542586632195,19.3400549298826L-192.69969419560317,20.332543025791907L-193.12886991670746,20.905692036453612z" style="fill:rgb(87,240,169)"/><path d="M128.20927493874146,-151.79646276290754L123.74854507411801,-183.9730131868579L123.43705052715883,-184.89886821100475z" style="fill:rgb(247,158,158)"/><path d="M-188.9542586632195,19.3400549298826L-193.12886991670746,20.905692036453612L-189.37921137370978,19.912531962208266z" style="fill:rgb(87,240,169)"/><path d="M127.98800449250538,-152.13371137296573L123.43705052715883,-184.89886821100475L123.14637463789764,-185.76284386661288z" style="fill:rgb(247,158,158)"/><path d="M-196.2701934994792,63.333467680824526L-158.60432629245065,119.47918580771997L-154.89537116659466,118.59956983171197z" style="fill:rgb(127,37,217)"/><path d="M-189.37921137370978,19.912531962208266L-193.12886991670746,20.905692036453612L-193.61073039653203,21.350935956544355z" style="fill:rgb(89,245,157)"/><path d="M127.80081680676142,-152.33141877202232L123.14637463789764,-185.76284386661288L122.87959946290586,-186.55581033676862z" style="fill:rgb(247,158,158)"/><path d="M-189.37921137370978,19.912531962208266L-193.61073039653203,21.350935956544355L-189.8567422318987,20.35693857296755z" style="fill:rgb(89,245,157)"/><path d="M133.48494467675943,-135.32861655037414L133.80220638776345,-133.9888526386023L128.5224687837044,-169.78345279731664zM133.14636662291477,-136.69937070204224L133.48494467675943,-135.32861655037414L128.31766471367155,-170.3922034123307zM133.80220638776345,-133.9888526386023L134.09500502387718,-132.69334003768807L128.69629020583778,-169.2668064870618zM132.78982414421577,-138.08760810591932L133.14636662291477,-136.69937070204224L128.083887462662,-171.08704877618317zM134.09500502387718,-132.69334003768807L134.3604173772177,-131.45492652071144L128.83742689256619,-168.84728940816314zM132.41883338080552,-139.47962020858532L132.78982414421577,-138.08760810591932L127.82344627615949,-171.8611588241618z" style="fill:rgb(247,158,158)"/><path d="M-189.8567422318987,20.35693857296755L-193.61073039653203,21.350935956544355L-194.14057327720312,21.663238022833326z" style="fill:rgb(91,248,145)"/><path d="M134.3604173772177,-131.45492652071144L134.59578322882473,-130.285971486774L128.94450879722837,-168.529023406168zM127.64975238522436,-152.386986853281L122.87959946290586,-186.55581033676862L122.63954316294591,-187.26931949825448zM132.03704484702394,-140.86170222700446L132.41883338080552,-139.47962020858532L127.53891933960135,-172.7068558652847zM134.59578322882473,-130.285971486774L134.79869110902249,-129.1981903999815L129.01647560209275,-168.31511222145755zM131.64821989740165,-142.2202015290698L132.03704484702394,-140.86170222700446L127.23312838945691,-173.61577124037882z" style="fill:rgb(247,158,158)"/><path d="M-189.8567422318987,20.35693857296755L-194.14057327720312,21.663238022833326L-190.3821917938959,20.66824532292372z" style="fill:rgb(91,248,145)"/><path d="M127.53652942427568,-152.299263026867L122.63954316294591,-187.26931949825448L122.42878186217531,-187.89577628196406zM134.79869110902249,-129.1981903999815L134.96705948661912,-128.20259883482032L129.05263429160598,-168.20763670483424zM131.25618013775653,-143.5416603174744L131.64821989740165,-142.2202015290698L126.90912921255648,-174.57880878437854z" style="fill:rgb(247,158,158)"/><path d="M-190.3821917938959,20.66824532292372L-194.14057327720312,21.663238022833326L-194.713170461429,21.838887321883632z" style="fill:rgb(94,250,133)"/><path d="M127.46246867005057,-152.06859398088784L122.42878186217531,-187.89577628196406L122.24956969185399,-188.4284468854122zM130.864811794796,-144.81296044946117L131.25618013775653,-143.5416603174744L126.57015469114091,-175.5863344591236z" style="fill:rgb(247,158,158)"/><path d="M-190.3821917938959,20.66824532292372L-194.713170461429,21.838887321883632L-190.95037879731615,20.842750576323272z" style="fill:rgb(94,250,133)"/><path d="M127.42847993279494,-151.69679835622546L122.24956969185399,-188.4284468854122L122.1038177987358,-188.86164930099486zM130.47800435068172,-146.02138499411302L130.864811794796,-144.81296044946117L126.21963069847291,-176.62818091510402z" style="fill:rgb(247,158,158)"/><path d="M114.93730804348483,91.45860266975201L37.3501618414263,106.37602571555128L38.679435753142236,108.86864125943099z" style="fill:rgb(127,37,217)"/><path d="M127.43509722027088,-151.18720931144978L122.1038177987358,-188.86164930099486L121.99311722805976,-189.190691646489zM130.09959649729245,-147.15477954879293L130.47800435068172,-146.02138499411302L125.86111348783439,-177.6938244426844zM127.48238226900379,-150.5446577033323L121.99311722805976,-189.190691646489L121.91864521496973,-189.41205969102285zM127.56997398588068,-149.7754233151343L121.91864521496973,-189.41205969102285L121.88119782309757,-189.523347632271zM129.7333860146888,-148.20166316233934L130.09959649729245,-147.15477954879293L125.49823560779907,-178.77241081438757zM156.88579588787337,-85.47891575933077L174.43595976544395,43.903059375941375L181.1812219744169,62.511710041111165zM129.38306740689623,-149.15131880017518L129.7333860146888,-148.20166316233934L125.13471449077043,-179.85290631396958zM129.0522040019716,-149.99391210898457L129.38306740689623,-149.15131880017518L124.77428593873589,-180.92420264937246z" style="fill:rgb(247,158,158)"/><path d="M195.8929444140019,69.57144139657746L37.24421470963393,103.12106883810898L38.570009732303504,105.61527368255376z" style="fill:rgb(127,37,217)"/><path d="M128.74420317348384,-150.72061377747923L129.0522040019716,-149.99391210898457L124.42067869748158,-181.97521060317456zM128.46223555835104,-151.32365937026034L128.74420317348384,-150.72061377747923L124.07757713388303,-182.99503420509174zM150.27059736869177,-24.709775931627085L151.0569756635975,-101.51804255731105L129.41538111087254,-165.77121139760214zM128.20927493874146,-151.79646276290754L128.46223555835104,-151.32365937026034L123.74854507411801,-183.9730131868579z" style="fill:rgb(247,158,158)"/><path d="M114.93730804348483,91.45860266975201L113.79076949921972,88.87193579074298L37.3501618414263,106.37602571555128z" style="fill:rgb(127,37,217)"/><path d="M-196.93076358257312,66.50442774844443L-188.03288150459073,16.92242826796179L-188.27789056342564,17.837040453115602zM127.98800449250538,-152.13371137296573L128.20927493874146,-151.79646276290754L123.43705052715883,-184.89886821100475zM-197.06962688730283,66.31972306524695L-188.27789056342564,17.837040453115602L-188.5859874475953,18.645745998176007z" style="fill:rgb(247,158,158)"/><path d="M132.78982414421577,-138.08760810591932L128.67194206201486,-136.92530940856489L129.02810044091888,-135.53844087453362z" style="fill:rgb(97,120,251)"/><path d="M133.14636662291477,-136.69937070204224L129.02810044091888,-135.53844087453362L129.3657565822525,-134.16887171778427z" style="fill:rgb(94,133,250)"/><path d="M132.41883338080552,-139.47962020858532L128.3007926700919,-138.31581260689993L128.67194206201486,-136.92530940856489z" style="fill:rgb(100,108,250)"/><path d="M-197.27621930741194,66.04490272232165L-188.5859874475953,18.645745998176007L-188.9542586632195,19.3400549298826z" style="fill:rgb(247,158,158)"/><path d="M133.48494467675943,-135.32861655037414L129.3657565822525,-134.16887171778427L129.68156665099974,-132.8301077989323z" style="fill:rgb(91,145,248)"/><path d="M127.80081680676142,-152.33141877202232L127.98800449250538,-152.13371137296573L123.14637463789764,-185.76284386661288z" style="fill:rgb(247,158,158)"/><path d="M132.03704484702394,-140.86170222700446L127.91830420439696,-139.69622762178022L128.3007926700919,-138.31581260689993z" style="fill:rgb(104,95,248)"/><path d="M132.78982414421577,-138.08760810591932L129.02810044091888,-135.53844087453362L133.14636662291477,-136.69937070204224z" style="fill:rgb(97,120,251)"/><path d="M132.41883338080552,-139.47962020858532L128.67194206201486,-136.92530940856489L132.78982414421577,-138.08760810591932z" style="fill:rgb(100,108,250)"/><path d="M133.14636662291477,-136.69937070204224L129.3657565822525,-134.16887171778427L133.48494467675943,-135.32861655037414z" style="fill:rgb(94,133,250)"/><path d="M-182.10860905920958,-99.75946648726394L-214.68293247929142,49.18248946346317L-210.72354779890685,48.157096388732995z" style="fill:rgb(83,212,212)"/><path d="M132.03704484702394,-140.86170222700446L128.3007926700919,-138.31581260689993L132.41883338080552,-139.47962020858532z" style="fill:rgb(104,95,248)"/><path d="M133.80220638776345,-133.9888526386023L129.68156665099974,-132.8301077989323L129.97239836950925,-131.53540132773958z" style="fill:rgb(89,157,245)"/><path d="M131.64821989740165,-142.2202015290698L127.5282359630453,-141.05293062720978L127.91830420439696,-139.69622762178022z" style="fill:rgb(108,83,245)"/><path d="M133.48494467675943,-135.32861655037414L129.68156665099974,-132.8301077989323L133.80220638776345,-133.9888526386023z" style="fill:rgb(91,145,248)"/><path d="M131.64821989740165,-142.2202015290698L127.91830420439696,-139.69622762178022L132.03704484702394,-140.86170222700446z" style="fill:rgb(108,83,245)"/><path d="M-210.72354779890685,48.157096388732995L-210.71447246361666,48.169164102914884L-182.10106450814396,-99.74749486373302z" style="fill:rgb(247,158,158)"/><path d="M134.09500502387718,-132.69334003768807L129.97239836950925,-131.53540132773958L130.23534596227546,-130.29759096108717z" style="fill:rgb(87,169,240)"/><path d="M133.80220638776345,-133.9888526386023L129.97239836950925,-131.53540132773958L134.09500502387718,-132.69334003768807z" style="fill:rgb(89,157,245)"/><path d="M-197.5485498856017,65.68264271970745L-188.9542586632195,19.3400549298826L-189.37921137370978,19.912531962208266z" style="fill:rgb(247,158,158)"/><path d="M131.25618013775653,-143.5416603174744L127.13445159769881,-142.3724787549011L127.5282359630453,-141.05293062720978zM131.25618013775653,-143.5416603174744L127.5282359630453,-141.05293062720978L131.64821989740165,-142.2202015290698z" style="fill:rgb(112,72,241)"/><path d="M127.64975238522436,-152.386986853281L127.80081680676142,-152.33141877202232L122.87959946290586,-186.55581033676862z" style="fill:rgb(247,158,158)"/><path d="M180.04851514928657,70.30571049716244L184.29578219638321,69.32972231873136L174.67118940455086,11.33819235239933z" style="fill:rgb(83,212,212)"/><path d="M134.09500502387718,-132.69334003768807L130.23534596227546,-130.29759096108717L134.3604173772177,-131.45492652071144z" style="fill:rgb(87,169,240)"/><path d="M134.3604173772177,-131.45492652071144L130.23534596227546,-130.29759096108717L130.46777334616874,-129.12902000361944z" style="fill:rgb(85,181,235)"/><path d="M130.864811794796,-144.81296044946117L126.7408222821294,-143.6417728786164L127.13445159769881,-142.3724787549011zM130.864811794796,-144.81296044946117L127.13445159769881,-142.3724787549011L131.25618013775653,-143.5416603174744z" style="fill:rgb(116,61,236)"/><path d="M-197.88396217820448,65.2364696287247L-189.37921137370978,19.912531962208266L-189.8567422318987,20.35693857296755z" style="fill:rgb(247,158,158)"/><path d="M134.3604173772177,-131.45492652071144L130.46777334616874,-129.12902000361944L134.59578322882473,-130.285971486774z" style="fill:rgb(85,181,235)"/><path d="M134.59578322882473,-130.285971486774L130.46777334616874,-129.12902000361944L130.6672973187046,-128.0414323219928z" style="fill:rgb(84,192,228)"/><path d="M130.47800435068172,-146.02138499411302L126.35126928181923,-144.8481147176898L126.7408222821294,-143.6417728786164z" style="fill:rgb(120,51,229)"/><path d="M127.53652942427568,-152.299263026867L127.64975238522436,-152.386986853281L122.63954316294591,-187.26931949825448z" style="fill:rgb(247,158,158)"/><path d="M130.47800435068172,-146.02138499411302L126.7408222821294,-143.6417728786164L130.864811794796,-144.81296044946117z" style="fill:rgb(120,51,229)"/><path d="M113.79076949921972,88.87193579074298L114.60609213727406,88.19485531944088L113.46196739264427,85.6068025170547zM113.79076949921972,88.87193579074298L114.93730804348483,91.45860266975201L114.60609213727406,88.19485531944088z" style="fill:rgb(247,158,158)"/><path d="M134.59578322882473,-130.285971486774L130.6672973187046,-128.0414323219928L134.79869110902249,-129.1981903999815z" style="fill:rgb(84,192,228)"/><path d="M-198.27918420667498,64.71074095193327L-189.8567422318987,20.35693857296755L-190.3821917938959,20.66824532292372z" style="fill:rgb(247,158,158)"/><path d="M134.79869110902249,-129.1981903999815L130.6672973187046,-128.0414323219928L130.83186822119785,-127.04580821578979z" style="fill:rgb(84,202,220)"/><path d="M130.09959649729245,-147.15477954879293L125.96964804526648,-145.97937163464982L126.35126928181923,-144.8481147176898z" style="fill:rgb(125,41,221)"/><path d="M-218.03333500390812,34.26353487912471L-210.08871312523115,44.875495618103464L-182.58541601527943,-97.29475963127375z" style="fill:rgb(247,158,158)"/><path d="M130.09959649729245,-147.15477954879293L126.35126928181923,-144.8481147176898L130.47800435068172,-146.02138499411302z" style="fill:rgb(125,41,221)"/><path d="M127.46246867005057,-152.06859398088784L127.53652942427568,-152.299263026867L122.42878186217531,-187.89577628196406z" style="fill:rgb(247,158,158)"/><path d="M134.79869110902249,-129.1981903999815L130.83186822119785,-127.04580821578979L134.96705948661912,-128.20259883482032z" style="fill:rgb(84,202,220)"/><path d="M114.93730804348483,91.45860266975201L156.01781707117743,78.7071220029176L114.60609213727406,88.19485531944088z" style="fill:rgb(83,212,212)"/><path d="M-198.73034865315907,64.11060277231626L-190.3821917938959,20.66824532292372L-190.95037879731615,20.842750576323272z" style="fill:rgb(247,158,158)"/><path d="M195.52745204129667,70.15509501756411L191.971951378719,60.012852202151116L-152.5749682292347,139.80112525408882z" style="fill:rgb(127,37,217)"/><path d="M129.7333860146888,-148.20166316233934L125.5998196970066,-147.02407288315786L125.96964804526648,-145.97937163464982zM129.7333860146888,-148.20166316233934L125.96964804526648,-145.97937163464982L130.09959649729245,-147.15477954879293z" style="fill:rgb(129,33,213)"/><path d="M127.42847993279494,-151.69679835622546L127.46246867005057,-152.06859398088784L122.24956969185399,-188.4284468854122z" style="fill:rgb(247,158,158)"/><path d="M150.66103415562716,-103.98080619859478L170.06036312081702,44.93724563434452L174.43595976544395,43.903059375941375z" style="fill:rgb(83,212,212)"/><path d="M129.38306740689623,-149.15131880017518L125.5998196970066,-147.02407288315786L129.7333860146888,-148.20166316233934zM129.38306740689623,-149.15131880017518L125.24547929135433,-147.97155320537544L125.5998196970066,-147.02407288315786z" style="fill:rgb(134,25,203)"/><path d="M-199.2330184794155,63.44194510700109L-190.95037879731615,20.842750576323272L-191.5556350280905,20.87811817925733zM127.43509722027088,-151.18720931144978L127.42847993279494,-151.69679835622546L122.1038177987358,-188.86164930099486z" style="fill:rgb(247,158,158)"/><path d="M-196.2701934994792,63.333467680824526L-200.15922848830152,64.32152606321509L-158.60432629245065,119.47918580771997z" style="fill:rgb(127,37,217)"/><path d="M129.0522040019716,-149.99391210898457L125.24547929135433,-147.97155320537544L129.38306740689623,-149.15131880017518zM129.0522040019716,-149.99391210898457L124.9102428286266,-148.81197079837838L125.24547929135433,-147.97155320537544z" style="fill:rgb(138,18,193)"/><path d="M-199.78222788201333,62.71137822603839L-191.5556350280905,20.87811817925733L-192.19186757619016,20.773444220852344zM127.48238226900379,-150.5446577033323L127.43509722027088,-151.18720931144978L121.99311722805976,-189.190691646489z" style="fill:rgb(247,158,158)"/><path d="M113.79076949921972,88.87193579074298L154.97582897459196,76.0672283458806L113.46196739264427,85.6068025170547z" style="fill:rgb(83,212,212)"/><path d="M156.4732140754189,81.97575133413164L113.79076949921972,88.87193579074298L114.93730804348483,91.45860266975201z" style="fill:rgb(127,37,217)"/><path d="M127.56997398588068,-149.7754233151343L127.48238226900379,-150.5446577033323L121.91864521496973,-189.41205969102285z" style="fill:rgb(247,158,158)"/><path d="M128.74420317348384,-150.72061377747923L124.9102428286266,-148.81197079837838L129.0522040019716,-149.99391210898457z" style="fill:rgb(142,13,182)"/><path d="M-200.37254662592522,61.92612744114348L-192.19186757619016,20.773444220852344L-192.85262172180197,20.529246736730805z" style="fill:rgb(247,158,158)"/><path d="M128.74420317348384,-150.72061377747923L124.59755778812753,-149.53652618209807L124.9102428286266,-148.81197079837838z" style="fill:rgb(142,13,182)"/><path d="M114.93730804348483,91.45860266975201L156.4732140754189,81.97575133413164L156.01781707117743,78.7071220029176z" style="fill:rgb(83,212,212)"/><path d="M195.8929444140019,69.57144139657746L194.9514016889136,66.88114333967061L37.24421470963393,103.12106883810898z" style="fill:rgb(127,37,217)"/><path d="M-200.99808605786131,61.094021907702114L-192.85262172180197,20.529246736730805L-193.53112516802918,20.14754210858989z" style="fill:rgb(247,158,158)"/><path d="M128.46223555835104,-151.32365937026034L124.59755778812753,-149.53652618209807L128.74420317348384,-150.72061377747923zM128.46223555835104,-151.32365937026034L124.3106436002336,-150.1374692363916L124.59755778812753,-149.53652618209807z" style="fill:rgb(146,9,171)"/><path d="M-189.22622449138348,-107.81839594721437L-222.01518821365107,35.31116307538026L-218.03333500390812,34.26353487912471z" style="fill:rgb(83,212,212)"/><path d="M-201.65259318845912,60.22337885624701L-193.53112516802918,20.14754210858989L-194.2203742012042,19.631784012264536z" style="fill:rgb(247,158,158)"/><path d="M128.20927493874146,-151.79646276290754L124.3106436002336,-150.1374692363916L128.46223555835104,-151.32365937026034zM128.20927493874146,-151.79646276290754L124.05252053856088,-150.60826518539983L124.3106436002336,-150.1374692363916z" style="fill:rgb(150,6,159)"/><path d="M-202.32949797713167,59.32295634223258L-194.2203742012042,19.631784012264536L-194.91321154551477,18.98688376256245z" style="fill:rgb(247,158,158)"/><path d="M113.79076949921972,88.87193579074298L155.4294284491714,79.33711917669382L154.97582897459196,76.0672283458806z" style="fill:rgb(83,212,212)"/><path d="M156.4732140754189,81.97575133413164L155.4294284491714,79.33711917669382L113.79076949921972,88.87193579074298z" style="fill:rgb(127,37,217)"/><path d="M127.98800449250538,-152.13371137296573L124.05252053856088,-150.60826518539983L128.20927493874146,-151.79646276290754zM127.98800449250538,-152.13371137296573L123.82592596954284,-150.94359320533772L124.05252053856088,-150.60826518539983z" style="fill:rgb(154,4,146)"/><path d="M154.97582897459196,76.0672283458806L156.4732140754189,81.97575133413164L156.01781707117743,78.7071220029176zM-203.0219438299876,58.401860886355536L-194.91321154551477,18.98688376256245L-195.6023656167271,18.219190021572654z" style="fill:rgb(247,158,158)"/><path d="M127.80081680676142,-152.33141877202232L123.82592596954284,-150.94359320533772L127.98800449250538,-152.13371137296573zM127.80081680676142,-152.33141877202232L123.63329325007082,-151.13948500309223L123.82592596954284,-150.94359320533772z" style="fill:rgb(157,3,134)"/><path d="M-203.72289560782946,57.46946093020281L-195.6023656167271,18.219190021572654L-196.2805783663826,17.336382293659174zM154.97582897459196,76.0672283458806L155.4294284491714,79.33711917669382L156.4732140754189,81.97575133413164zM-196.93076358257312,66.50442774844443L-196.86100070234448,66.59722690427259L-188.03288150459073,16.92242826796179zM-204.42515576990712,56.5352963326029L-196.2805783663826,17.336382293659174L-196.94063136675186,16.34746223625596zM-197.06962688730283,66.31972306524695L-196.93076358257312,66.50442774844443L-188.27789056342564,17.837040453115602z" style="fill:rgb(247,158,158)"/><path d="M145.6504101281123,-23.53595588101005L129.41538111087254,-165.77121139760214L125.45557143366892,-164.62638559438838z" style="fill:rgb(83,212,212)"/><path d="M127.64975238522436,-152.386986853281L123.63329325007082,-151.13948500309223L127.80081680676142,-152.33141877202232z" style="fill:rgb(160,4,121)"/><path d="M150.75148160292522,-21.437130628290106L129.05715860022758,-168.19417527300908L129.05263429160598,-168.20763670483424z" style="fill:rgb(247,158,158)"/><path d="M127.64975238522436,-152.386986853281L123.47675148098426,-151.19338465666024L123.63329325007082,-151.13948500309223z" style="fill:rgb(160,4,121)"/><path d="M-197.27621930741194,66.04490272232165L-197.06962688730283,66.31972306524695L-188.5859874475953,18.645745998176007zM-205.1215395852941,55.60895695695439L-196.94063136675186,16.34746223625596L-197.5755271829289,15.262607111226474zM-197.5485498856017,65.68264271970745L-197.27621930741194,66.04490272232165L-188.9542586632195,19.3400549298826zM-205.804828313413,54.70004810268269L-197.5755271829289,15.262607111226474L-198.17846046438893,14.09311857138799zM-197.88396217820448,65.2364696287247L-197.5485498856017,65.68264271970745L-189.37921137370978,19.912531962208266zM-206.46790393896066,53.81800708348007L-198.17846046438893,14.09311857138799L-198.74295167270438,12.851254911401817zM-198.27918420667498,64.71074095193327L-197.88396217820448,65.2364696287247L-189.8567422318987,20.35693857296755z" style="fill:rgb(247,158,158)"/><path d="M185.41479094029506,41.30818169642375L-206.58739198824864,69.07427788596331L-164.61267621353284,124.03829448723306z" style="fill:rgb(127,37,217)"/><path d="M-210.71447246361666,48.169164102914884L-201.22134142107276,-0.4558396461846543L-201.09464497138848,-1.5604135980026388z" style="fill:rgb(247,158,158)"/><path d="M196.47017443626166,72.84425686658325L155.4294284491714,79.33711917669382L156.4732140754189,81.97575133413164z" style="fill:rgb(127,37,217)"/><path d="M-207.10384803218568,52.972059017136736L-198.74295167270438,12.851254911401817L-199.26294428937163,11.550113294110776zM-210.64205899824114,48.26549118443198L-201.27757831695402,0.7305800817403267L-201.22134142107276,-0.4558396461846543zM-207.7059752226711,52.17110254943094L-199.26294428937163,11.550113294110776L-199.7328502521435,10.203507461964806zM-198.73034865315907,64.11060277231626L-198.27918420667498,64.71074095193327L-190.3821917938959,20.66824532292372zM-210.49800720850203,48.457097416754536L-201.26262142220563,1.9864720461921195L-201.27757831695402,0.7305800817403267zM-208.26792201861133,51.423590119135696L-199.7328502521435,10.203507461964806L-200.14761195709033,8.825740536690516zM-210.2838989864871,48.74191553204685L-201.17647194594076,3.29861383899141L-201.26262142220563,1.9864720461921195zM-208.78372822362635,50.73746035406773L-200.14761195709033,8.825740536690516L-200.5027907147409,7.431514813450807zM-210.00203503221675,49.1168549080792L-201.01993686466832,4.653149317142328L-201.17647194594076,3.29861383899141zM-209.24789665797732,50.12002419592746L-200.5027907147409,7.431514813450807L-200.79459528042293,6.035687485112652z" style="fill:rgb(247,158,158)"/><path d="M176.88029746531606,63.50769139127625L170.06036312086337,44.937248472478984L-155.3287069171041,121.84400074635418z" style="fill:rgb(127,37,217)"/><path d="M-209.6554579042711,49.57788531106923L-200.79459528042293,6.035687485112652L-201.01993686466832,4.653149317142328zM-199.2330184794155,63.44194510700109L-198.73034865315907,64.11060277231626L-190.95037879731615,20.842750576323272zM-199.78222788201333,62.71137822603839L-199.2330184794155,63.44194510700109L-191.5556350280905,20.87811817925733zM-200.37254662592522,61.92612744114348L-199.78222788201333,62.71137822603839L-192.19186757619016,20.773444220852344z" style="fill:rgb(247,158,158)"/><path d="M196.47017443626166,72.84425686658325L195.52745204129667,70.15509501756411L155.4294284491714,79.33711917669382z" style="fill:rgb(127,37,217)"/><path d="M-200.99808605786131,61.094021907702114L-200.37254662592522,61.92612744114348L-192.85262172180197,20.529246736730805zM-201.65259318845912,60.22337885624701L-200.99808605786131,61.094021907702114L-193.53112516802918,20.14754210858989z" style="fill:rgb(247,158,158)"/><path d="M180.64324989129045,59.23476853358834L180.04851514928657,70.30571049716244L184.29578219638321,69.32972231873136z" style="fill:rgb(127,37,217)"/><path d="M-202.32949797713167,59.32295634223258L-201.65259318845912,60.22337885624701L-194.2203742012042,19.631784012264536zM-203.0219438299876,58.401860886355536L-202.32949797713167,59.32295634223258L-194.91321154551477,18.98688376256245z" style="fill:rgb(247,158,158)"/><path d="M134.96705948661912,-128.20259883482032L130.83186822119785,-127.04580821578979L139.00791684610607,-69.92296692314233z" style="fill:rgb(83,212,212)"/><path d="M-203.72289560782946,57.46946093020281L-203.0219438299876,58.401860886355536L-195.6023656167271,18.219190021572654z" style="fill:rgb(247,158,158)"/><path d="M180.64324989129045,59.23476853358834L176.35563049817728,60.2311200659852L180.04851514928657,70.30571049716244z" style="fill:rgb(127,37,217)"/><path d="M-200.75222389958742,67.596517676107L-196.2701934994792,63.333467680824526L-200.15922848830152,64.32152606321509z" style="fill:rgb(83,212,212)"/><path d="M-204.42515576990712,56.5352963326029L-203.72289560782946,57.46946093020281L-196.2805783663826,17.336382293659174zM150.27059736869177,-24.709775931627085L173.90821239734478,40.62032095818585L151.0569756635975,-101.51804255731105zM-205.1215395852941,55.60895695695439L-204.42515576990712,56.5352963326029L-196.94063136675186,16.34746223625596z" style="fill:rgb(247,158,158)"/><path d="M-200.75222389958742,67.596517676107L-196.85225685558186,66.60885024824765L-196.2701934994792,63.333467680824526z" style="fill:rgb(83,212,212)"/><path d="M-205.804828313413,54.70004810268269L-205.1215395852941,55.60895695695439L-197.5755271829289,15.262607111226474zM-206.46790393896066,53.81800708348007L-205.804828313413,54.70004810268269L-198.17846046438893,14.09311857138799zM-207.10384803218568,52.972059017136736L-206.46790393896066,53.81800708348007L-198.74295167270438,12.851254911401817zM-207.7059752226711,52.17110254943094L-207.10384803218568,52.972059017136736L-199.26294428937163,11.550113294110776z" style="fill:rgb(247,158,158)"/><path d="M176.88029746531606,63.50769139127625L180.64324989119402,59.23476297396688L176.35563049817728,60.2311200659852z" style="fill:rgb(83,212,212)"/><path d="M-208.26792201861133,51.423590119135696L-207.7059752226711,52.17110254943094L-199.7328502521435,10.203507461964806zM-208.78372822362635,50.73746035406773L-208.26792201861133,51.423590119135696L-200.14761195709033,8.825740536690516z" style="fill:rgb(247,158,158)"/><path d="M176.88029746531606,63.50769139127625L181.1812219744169,62.511710041111165L180.64324989119402,59.23476297396688z" style="fill:rgb(83,212,212)"/><path d="M-209.24789665797732,50.12002419592746L-208.78372822362635,50.73746035406773L-200.5027907147409,7.431514813450807zM-209.6554579042711,49.57788531106923L-209.24789665797732,50.12002419592746L-200.79459528042293,6.035687485112652z" style="fill:rgb(247,158,158)"/><path d="M121.87651233772148,-189.53728767549606L117.86530540792882,-188.35262438849117L138.06970392451407,-42.17232874096394z" style="fill:rgb(83,212,212)"/><path d="M-210.00203503221675,49.1168549080792L-209.6554579042711,49.57788531106923L-201.01993686466832,4.653149317142328zM-210.71447246361666,48.169164102914884L-210.64205899824114,48.26549118443198L-201.22134142107276,-0.4558396461846543zM-210.2838989864871,48.74191553204685L-210.00203503221675,49.1168549080792L-201.17647194594076,3.29861383899141zM-210.64205899824114,48.26549118443198L-210.49800720850203,48.457097416754536L-201.27757831695402,0.7305800817403267zM-210.49800720850203,48.457097416754536L-210.2838989864871,48.74191553204685L-201.26262142220563,1.9864720461921195zM142.7920879122408,-43.395318396870636L121.88119782309757,-189.523347632271L121.87651233772148,-189.53728767549606z" style="fill:rgb(247,158,158)"/><path d="M-200.75222389958742,67.596517676107L-220.60671712854193,50.71660733691249L-206.58739198824864,69.07427788596331z" style="fill:rgb(127,37,217)"/><path d="M-214.68293247929142,49.18248946346317L-200.75222389958742,67.596517676107L-200.15922848830152,64.32152606321509z" style="fill:rgb(247,158,158)"/><path d="M-210.72354779890685,48.157096388732995L-200.75222389958742,67.596517676107L-196.85225685558186,66.60885024824765z" style="fill:rgb(127,37,217)"/><path d="M170.06036312086337,44.937248472478984L176.88029746531606,63.50769139127625L176.35563049817728,60.2311200659852zM150.17875149184124,-59.204579524710994L211.44760727094382,115.56825871547433L210.8536965736946,112.31937766082018zM-214.68293247929142,49.18248946346317L-200.15922848830152,64.32152606321509L-214.0368328747651,45.90117657132123z" style="fill:rgb(247,158,158)"/><path d="M174.43595976544395,43.903059375941375L176.88029746531606,63.50769139127625L181.1812219744169,62.511710041111165zM-200.75222389958742,67.596517676107L-214.68293247929142,49.18248946346317L-220.60671712854193,50.71660733691249zM191.971951378719,60.012852202151116L174.43596922609282,43.90306173903083L181.18122003401766,62.511709372743795zM-210.72354779890685,48.157096388732995L-214.68293247929142,49.18248946346317L-200.75222389958742,67.596517676107z" style="fill:rgb(127,37,217)"/><path d="M137.74050392873926,-59.34072706952349L122.22078890823991,-187.1317449200582L118.091952971548,-199.3901290261021zM170.06036312086337,44.937248472478984L176.35563049817728,60.2311200659852L169.5463746243563,41.6547742740952z" style="fill:rgb(247,158,158)"/><path d="M118.091952971548,-199.3901290261021L114.03301066126434,-198.1806789677704L132.9846539808414,-58.089466010398255z" style="fill:rgb(83,212,212)"/><path d="M174.43595976544395,43.903059375941375L170.06036312081702,44.93724563434452L176.88029746531606,63.50769139127625z" style="fill:rgb(127,37,217)"/><path d="M134.96705948661912,-128.20259883482032L139.00791684610607,-69.92296692314233L143.41039871213437,-71.09204567204264z" style="fill:rgb(83,212,212)"/><path d="M191.971951378719,60.012852202151116L185.41479094029506,41.30818169642375L174.43596922609282,43.90306173903083zM-218.03333500390812,34.26353487912471L-214.0368328747651,45.90117657132123L-210.08871312523115,44.875495618103464zM-218.03333500390812,34.26353487912471L-222.01518821365107,35.31116307538026L-214.0368328747651,45.90117657132123zM146.1208380185033,-20.249333335992503L-210.72354779890685,48.157096388732995L-196.85225685558186,66.60885024824765z" style="fill:rgb(127,37,217)"/><path d="M145.6504101281123,-23.53595588101005L150.27059736869177,-24.709775931627085L129.41538111087254,-165.77121139760214z" style="fill:rgb(83,212,212)"/><path d="M143.41039871213437,-71.09204567204264L139.00791684610607,-69.92296692314233L139.11236930667997,-69.0290664864107zM143.41039871213437,-71.09204567204264L139.11236930667997,-69.0290664864107L143.51995058333478,-70.19852310423744z" style="fill:rgb(84,220,202)"/><path d="M150.75148160292522,-21.437130628290106L150.7564843725357,-21.42331492040768L129.05715860022758,-168.19417527300908z" style="fill:rgb(247,158,158)"/><path d="M143.51995058333478,-70.19852310423744L139.11236930667997,-69.0290664864107L139.1760124262441,-68.25723122766335zM143.51995058333478,-70.19852310423744L139.1760124262441,-68.25723122766335L143.5890249191964,-69.42729769126223z" style="fill:rgb(84,228,192)"/><path d="M185.41479094029506,41.30818169642375L162.39058564143008,-24.369658298074135L-206.58739198824864,69.07427788596331z" style="fill:rgb(127,37,217)"/><path d="M143.5890249191964,-69.42729769126223L139.1760124262441,-68.25723122766335L139.19805158456407,-67.61565561978993zM143.5890249191964,-69.42729769126223L139.19805158456407,-67.61565561978993L143.61676888356584,-68.78655084591308z" style="fill:rgb(85,235,181)"/><path d="M143.61676888356584,-68.78655084591308L139.19805158456407,-67.61565561978993L139.1781186810289,-67.11133032422285zM143.61676888356584,-68.78655084591308L139.1781186810289,-67.11133032422285L143.6027623894551,-68.2832684276385z" style="fill:rgb(87,240,169)"/><path d="M150.27059736869177,-24.709775931627085L169.5463746243563,41.6547742740952L173.90821239734478,40.62032095818585z" style="fill:rgb(127,37,217)"/><path d="M143.6027623894551,-68.2832684276385L139.1781186810289,-67.11133032422285L139.1162384504944,-66.74989221306075zM143.6027623894551,-68.2832684276385L139.1162384504944,-66.74989221306075L143.54696923483928,-67.92308311831911z" style="fill:rgb(89,245,157)"/><path d="M143.54696923483928,-67.92308311831911L139.1162384504944,-66.74989221306075L139.01286558170526,-66.53563730109433zM143.54696923483928,-67.92308311831911L139.01286558170526,-66.53563730109433L143.44978267585654,-67.71026813971221z" style="fill:rgb(91,248,145)"/><path d="M143.44978267585654,-67.71026813971221L139.01286558170526,-66.53563730109433L138.86887613485416,-66.47137350896236zM143.44978267585654,-67.71026813971221L138.86887613485416,-66.47137350896236L143.3120157203846,-67.64762393778025z" style="fill:rgb(94,250,133)"/><path d="M154.64480630568184,-46.46490011914783L-228.66687091224918,40.16217992196064L-220.60671712854193,50.71660733691249z" style="fill:rgb(127,37,217)"/><path d="M150.71149412490857,-21.547449489866914L143.41039871213437,-71.09204567204264L143.51995058333478,-70.19852310423744zM150.63190411935594,-21.767024493388668L143.51995058333478,-70.19852310423744L143.5890249191964,-69.42729769126223zM150.5134705974315,-22.09373893100921L143.5890249191964,-69.42729769126223L143.61676888356584,-68.78655084591308z" style="fill:rgb(247,158,158)"/><path d="M121.87651233772148,-189.53728767549606L138.06970392451407,-42.17232874096394L142.7920879122408,-43.395318396870636z" style="fill:rgb(83,212,212)"/><path d="M150.35735677617993,-22.524437169593348L143.61676888356584,-68.78655084591308L143.6027623894551,-68.2832684276385zM142.7920879122408,-43.395318396870636L142.7972996235543,-43.3809275172739L121.88119782309757,-189.523347632271z" style="fill:rgb(247,158,158)"/><path d="M-228.66687091224918,40.16217992196064L149.67758355300526,-62.48138547098237L-227.97244941295105,36.87852695215927z" style="fill:rgb(83,212,212)"/><path d="M150.165062648869,-23.05493339240652L143.6027623894551,-68.2832684276385L143.54696923483928,-67.92308311831911zM149.93846078316446,-23.680082521169858L143.54696923483928,-67.92308311831911L143.44978267585654,-67.71026813971221zM137.74050392873926,-59.34072706952349L142.32238838264925,-46.67721468396173L122.22078890823991,-187.1317449200582zM149.67975294737607,-24.393786631323785L143.44978267585654,-67.71026813971221L143.3120157203846,-67.64762393778025zM149.39147965332762,-25.18906511875281L143.3120157203846,-67.64762393778025L143.13491593096177,-67.73644313548391z" style="fill:rgb(247,158,158)"/><path d="M150.27059736869177,-24.709775931627085L145.6504101281123,-23.53595588101005L169.5463746243563,41.6547742740952z" style="fill:rgb(127,37,217)"/><path d="M149.0764742969965,-26.058093235905034L143.13491593096177,-67.73644313548391L142.920139148163,-67.9764479852628zM148.73784699997404,-26.99229692844748L142.920139148163,-67.9764479852628L142.669744894208,-68.36582539989628zM148.3789612432671,-27.98239721935139L142.669744894208,-68.36582539989628L142.3861933104522,-68.90111911715964zM150.17875149184124,-59.204579524710994L210.8536965736946,112.31937766082018L149.67758355300526,-62.48138547098237zM148.00338577807605,-29.018509307266434L142.3861933104522,-68.90111911715964L142.07229200092928,-69.57735626067243z" style="fill:rgb(247,158,158)"/><path d="M118.091952971548,-199.3901290261021L132.9846539808414,-58.089466010398255L137.74050392873926,-59.34072706952349z" style="fill:rgb(83,212,212)"/><path d="M147.61489980062467,-30.090242528902422L142.07229200092928,-69.57735626067243L141.73122622902653,-70.38800433259432zM147.21744151783594,-31.186761117398554L141.73122622902653,-70.38800433259432L141.36649112318804,-71.32501353899768zM146.81502771050796,-32.29693401179272L141.36649112318804,-71.32501353899768L140.98183445474407,-72.3789417498656zM150.71149412490857,-21.547449489866914L150.75148160292522,-21.437130628290106L143.41039871213437,-71.09204567204264zM146.4117801153288,-33.40940102480035L140.98183445474407,-72.3789417498656L140.58127309922654,-73.53898938615801zM150.63190411935594,-21.767024493388668L150.71149412490857,-21.547449489866914L143.51995058333478,-70.19852310423744z" style="fill:rgb(247,158,158)"/><path d="M146.1208380185033,-20.249333335992503L138.06970392451407,-42.17232874096394L-210.72354779890685,48.157096388732995z" style="fill:rgb(127,37,217)"/><path d="M150.5134705974315,-22.09373893100921L150.63190411935594,-21.767024493388668L143.5890249191964,-69.42729769126223zM146.01184236560775,-34.51273230391685L140.58127309922654,-73.53898938615801L140.16900729415963,-74.79317319229382zM150.35735677617993,-22.524437169593348L150.5134705974315,-22.09373893100921L143.61676888356584,-68.78655084591308zM145.61935666739424,-35.595493660786765L140.16900729415963,-74.79317319229382L139.74939801530806,-76.12835198208789zM150.165062648869,-23.05493339240652L150.35735677617993,-22.524437169593348L143.6027623894551,-68.2832684276385zM145.23842494714322,-36.64641618832837L139.74939801530806,-76.12835198208789L139.3269143694686,-77.53048652600718zM149.93846078316446,-23.680082521169858L150.165062648869,-23.05493339240652L143.54696923483928,-67.92308311831911zM142.7972996235543,-43.3809275172739L135.89059570106465,-91.80618999370128L135.70713388033892,-92.92045777002124zM144.87301115557125,-37.65450339350541L139.3269143694686,-77.53048652600718L138.9060378428641,-78.98471452052448zM142.8389570580803,-43.266024293969416L136.11210073195087,-90.59227534077408L135.89059570106465,-91.80618999370128zM144.52698235513463,-38.60911492712142L138.9060378428641,-78.98471452052448L138.4912880189346,-80.47555170367667zM149.67975294737607,-24.393786631323785L149.93846078316446,-23.680082521169858L143.44978267585654,-67.71026813971221zM142.9217960701094,-43.037480737597136L136.36939892433332,-89.2913511628149L136.11210073195087,-90.59227534077408zM144.20399793149397,-39.500160100419L138.4912880189346,-80.47555170367667L138.08710303846945,-81.98708453202441zM143.04492812697964,-42.6977755428957L136.65984121724279,-87.91710912692035L136.36939892433332,-89.2913511628149zM143.90750507904232,-40.31814537768336L138.08710303846945,-81.98708453202441L137.69781953902697,-83.50313926450409zM143.2070287782294,-42.250597844923675L136.98035921006687,-86.48407574047205L136.65984121724279,-87.91710912692035zM143.6406496637211,-41.05432817994108L137.69781953902697,-83.50313926450409L137.32758206741474,-85.00750024453602zM143.40631810863724,-41.700800338727255L137.32758206741474,-85.00750024453602L136.98035921006687,-86.48407574047205zM149.39147965332762,-25.18906511875281L149.67975294737607,-24.393786631323785L143.3120157203846,-67.64762393778025zM149.0764742969965,-26.058093235905034L149.39147965332762,-25.18906511875281L143.13491593096177,-67.73644313548391zM148.73784699997404,-26.99229692844748L149.0764742969965,-26.058093235905034L142.920139148163,-67.9764479852628zM148.3789612432671,-27.98239721935139L148.73784699997404,-26.99229692844748L142.669744894208,-68.36582539989628zM148.00338577807605,-29.018509307266434L148.3789612432671,-27.98239721935139L142.3861933104522,-68.90111911715964zM147.61489980062467,-30.090242528902422L148.00338577807605,-29.018509307266434L142.07229200092928,-69.57735626067243zM147.21744151783594,-31.186761117398554L147.61489980062467,-30.090242528902422L141.73122622902653,-70.38800433259432zM146.81502771050796,-32.29693401179272L147.21744151783594,-31.186761117398554L141.36649112318804,-71.32501353899768z" style="fill:rgb(247,158,158)"/><path d="M146.1208380185033,-20.249333335992503L150.27059736869177,-24.709775931627085L145.6504101281123,-23.53595588101005z" style="fill:rgb(83,212,212)"/><path d="M146.4117801153288,-33.40940102480035L146.81502771050796,-32.29693401179272L140.98183445474407,-72.3789417498656zM146.01184236560775,-34.51273230391685L146.4117801153288,-33.40940102480035L140.58127309922654,-73.53898938615801z" style="fill:rgb(247,158,158)"/><path d="M146.1208380185033,-20.249333335992503L150.7564843725357,-21.42331492040768L150.27059736869177,-24.709775931627085z" style="fill:rgb(83,212,212)"/><path d="M145.61935666739424,-35.595493660786765L146.01184236560775,-34.51273230391685L140.16900729415963,-74.79317319229382zM145.23842494714322,-36.64641618832837L145.61935666739424,-35.595493660786765L139.74939801530806,-76.12835198208789z" style="fill:rgb(247,158,158)"/><path d="M154.64480630568184,-46.46490011914783L150.17875149184124,-59.204579524710994L-228.66687091224918,40.16217992196064z" style="fill:rgb(127,37,217)"/><path d="M144.87301115557125,-37.65450339350541L145.23842494714322,-36.64641618832837L139.3269143694686,-77.53048652600718zM144.52698235513463,-38.60911492712142L144.87301115557125,-37.65450339350541L138.9060378428641,-78.98471452052448zM144.20399793149397,-39.500160100419L144.52698235513463,-38.60911492712142L138.4912880189346,-80.47555170367667zM143.90750507904232,-40.31814537768336L144.20399793149397,-39.500160100419L138.08710303846945,-81.98708453202441z" style="fill:rgb(247,158,158)"/><path d="M-228.66687091224918,40.16217992196064L150.17875149184124,-59.204579524710994L149.67758355300526,-62.48138547098237z" style="fill:rgb(83,212,212)"/><path d="M143.6406496637211,-41.05432817994108L143.90750507904232,-40.31814537768336L137.69781953902697,-83.50313926450409zM143.40631810863724,-41.700800338727255L143.6406496637211,-41.05432817994108L137.32758206741474,-85.00750024453602zM143.2070287782294,-42.250597844923675L143.40631810863724,-41.700800338727255L136.98035921006687,-86.48407574047205zM142.7972996235543,-43.3809275172739L142.8389570580803,-43.266024293969416L135.89059570106465,-91.80618999370128zM143.04492812697964,-42.6977755428957L143.2070287782294,-42.250597844923675L136.65984121724279,-87.91710912692035zM142.8389570580803,-43.266024293969416L142.9217960701094,-43.037480737597136L136.11210073195087,-90.59227534077408zM142.9217960701094,-43.037480737597136L143.04492812697964,-42.6977755428957L136.36939892433332,-89.2913511628149zM138.06970392451407,-42.17232874096394L146.1208380185033,-20.249333335992503L145.6504101281123,-23.53595588101005z" style="fill:rgb(247,158,158)"/><path d="M142.7920879122408,-43.395318396870636L146.1208380185033,-20.249333335992503L150.7564843725357,-21.42331492040768zM162.39058564143008,-24.369658298074135L142.7920879122408,-43.395318396870636L150.7564843725357,-21.42331492040768z" style="fill:rgb(127,37,217)"/><path d="M138.06970392451407,-42.17232874096394L145.6504101281123,-23.53595588101005L137.61604846123942,-45.45455600180323z" style="fill:rgb(247,158,158)"/><path d="M142.7920879122408,-43.395318396870636L138.06970392451407,-42.17232874096394L146.1208380185033,-20.249333335992503zM162.39058564143008,-24.369658298074135L154.64480630568184,-46.46490011914783L142.7920879122408,-43.395318396870636zM137.74050392873926,-59.34072706952349L137.61604846123942,-45.45455600180323L142.32238838264925,-46.67721468396173zM137.74050392873926,-59.34072706952349L132.9846539808414,-58.089466010398255L137.61604846123942,-45.45455600180323z" style="fill:rgb(127,37,217)"/></svg>
