<?xml version="1.0" encoding="UTF-8"?>
<!-- Generated by jsxcad -->
<!DOCTYPE svg PUBLIC "-//W3C//DTD SVG 1.1 Tiny//EN" "http://www.w3.org/Graphics/SVG/1.1/DTD/svg11-tiny.dtd">
<svg viewBox="-250 -250 500 500" width="500" height="500" xmlns="http://www.w3.org/2000/svg"><path d="M-72.51654019936372,125.79946946829284L69.61419800550638,-125.58817008859587L-72.51478958906924,-125.58817008859583zM69.61419800550638,-125.58817008859587L-72.51654019936372,125.79946946829284L69.61587859138925,125.79946946829278z" style="fill:rgb(127,127,254)"/><path d="M69.42249882313817,125.45031155164924L72.79072811363007,-131.3235717013851L69.42082756087606,-125.23902900626766zM72.79072811363007,-131.3235717013851L69.42249882313817,125.45031155164924L72.79256557267668,131.53515432429572z" style="fill:rgb(0,127,127)"/><path d="M-80.93090049532205,-140.17609573237365L-72.31510294076885,125.45031155164929L-72.31336204257931,-125.2390290062676z" style="fill:rgb(255,127,127)"/><path d="M-75.67863847092272,131.28043983306662L72.64966258807247,-131.06887005674375L-75.6767318625756,-131.0688700567437zM72.64966258807247,-131.06887005674375L-75.67863847092272,131.28043983306662L72.65149293208589,131.28043983306657zM72.79083765185759,-115.65351962811522L75.82376713633813,-118.68643661329712L72.7908164508846,-118.68643661329712zM75.82376713633813,-118.68643661329712L72.79083765185759,-115.65351962811522L75.823789220685,-115.65351962811522zM72.79247723117669,118.8974119029861L75.82551920116367,121.93046728658683L75.82549711580904,118.8974119029861zM75.82551920116367,121.93046728658683L72.79247723117669,118.8974119029861L72.79249843311712,121.93046728658683z" style="fill:rgb(127,127,254)"/><path d="M75.823789220685,-115.65351962811522L-80.51421281315776,-122.81423301509366L-75.82378922068509,-115.65351962811516z" style="fill:rgb(127,0,127)"/><path d="M-80.51613854556038,126.2460835130067L75.82549711580904,118.8974119029861L-75.82549711580897,118.89741190298615z" style="fill:rgb(127,254,127)"/><path d="M-72.31510294076885,125.45031155164929L-80.93090049532205,-140.17609573237365L-80.93100532681827,-126.68777648505583zM-72.31510294076885,125.45031155164929L-80.93100532681827,-126.68777648505583L-80.93103048641777,-123.45057466611898zM-72.31510294076885,125.45031155164929L-80.93103048641777,-123.45057466611898L-80.93297620949491,126.8991291897694zM-72.31510294076885,125.45031155164929L-80.93297620949491,126.8991291897694L-80.93300137031983,130.1364886793947zM-72.31510294076885,125.45031155164929L-80.93300137031983,130.1364886793947L-80.93308104636864,140.3881403427114z" style="fill:rgb(255,127,127)"/><path d="M26.569032954418432,-122.8142330150937L75.823789220685,-115.65351962811522L80.51421281315767,-122.81423301509372zM-27.107108921020036,-122.81423301509368L75.823789220685,-115.65351962811522L26.569032954418432,-122.8142330150937zM-80.51421281315776,-122.81423301509366L75.823789220685,-115.65351962811522L-27.107108921020036,-122.81423301509368z" style="fill:rgb(127,0,127)"/><path d="M75.82549711580904,118.8974119029861L26.569668430390784,126.24608351300667L80.51613854556047,126.24608351300665zM75.82549711580904,118.8974119029861L-27.10775726664949,126.2460835130067L26.569668430390784,126.24608351300667zM75.82549711580904,118.8974119029861L-80.51613854556038,126.2460835130067L-27.10775726664949,126.2460835130067z" style="fill:rgb(127,254,127)"/><path d="M72.7908164508846,-118.68643661329712L83.30479252689067,-150.30729920913538L72.79072811363007,-131.3235717013851z" style="fill:rgb(0,127,127)"/><path d="M75.82376713633813,-118.68643661329712L83.30490822648086,-135.84485036065254L72.7908164508846,-118.68643661329712z" style="fill:rgb(127,0,127)"/><path d="M83.30708343859436,136.05666517449868L72.79083765185759,-115.65351962811522L72.79247723117669,118.8974119029861z" style="fill:rgb(0,127,127)"/><path d="M83.30711120799397,139.52784014363843L75.82551920116367,121.93046728658683L72.79249843311712,121.93046728658683z" style="fill:rgb(127,254,127)"/><path d="M83.30719914454824,150.51990947954317L72.79249843311712,121.93046728658683L72.79256557267668,131.53515432429572z" style="fill:rgb(0,127,127)"/><path d="M-27.107108921020036,-122.81423301509368L26.569024737255805,-126.03476253198554L-27.107100537443458,-126.0347625319855zM26.569024737255805,-126.03476253198554L-27.107108921020036,-122.81423301509368L26.569032954418432,-122.8142330150937z" style="fill:rgb(127,127,254)"/><path d="M26.569032954418432,-122.8142330150937L27.644928514099455,-126.03911610251097L26.569024737255805,-126.03476253198554z" style="fill:rgb(123,127,254)"/><path d="M80.51421281315767,-122.81423301509372L27.64493706430844,-122.81847543325125L26.569032954418432,-122.8142330150937z" style="fill:rgb(127,0,127)"/><path d="M27.644928514099455,-126.03911610251097L26.569032954418432,-122.8142330150937L27.64493706430844,-122.81847543325125z" style="fill:rgb(123,127,254)"/><path d="M27.64493706430844,-122.81847543325125L80.51421281315767,-122.81423301509372L80.51699168966618,-122.81847543325127z" style="fill:rgb(127,0,127)"/><path d="M-27.107765650632295,129.46676908065263L26.569668430390784,126.24608351300667L-27.10775726664949,126.2460835130067zM26.569668430390784,126.24608351300667L-27.107765650632295,129.46676908065263L26.56967664795158,129.4667690806526z" style="fill:rgb(127,127,254)"/><path d="M-27.107100537443458,-126.0347625319855L-28.180172697699675,-122.82694180837775L-27.107108921020036,-122.81423301509368z" style="fill:rgb(140,127,254)"/><path d="M-27.107108921020036,-122.81423301509368L-80.52253735020177,-122.82694180837774L-80.51421281315776,-122.81423301509366z" style="fill:rgb(127,0,127)"/><path d="M27.645598296489496,126.25043729448798L80.51613854556047,126.24608351300665L26.569668430390784,126.24608351300667z" style="fill:rgb(127,254,127)"/><path d="M26.56967664795158,129.4667690806526L27.645598296489496,126.25043729448798L26.569668430390784,126.24608351300667z" style="fill:rgb(123,127,254)"/><path d="M80.51613854556047,126.24608351300665L27.645598296489496,126.25043729448798L80.51891755500273,126.25043729448795z" style="fill:rgb(127,254,127)"/><path d="M27.645598296489496,126.25043729448798L26.56967664795158,129.4667690806526L27.64560684711279,129.47123402527407z" style="fill:rgb(123,127,254)"/><path d="M-80.51613854556038,126.2460835130067L-28.180846778470503,126.25912591167813L-27.10775726664949,126.2460835130067z" style="fill:rgb(127,254,127)"/><path d="M-27.10775726664949,126.2460835130067L-28.180855495243392,129.48014448501095L-27.107765650632295,129.46676908065263zM-28.180172697699675,-122.82694180837775L-27.107100537443458,-126.0347625319855L-28.180163981349175,-126.04780429868553z" style="fill:rgb(140,127,254)"/><path d="M-80.52253735020177,-122.82694180837774L-27.107108921020036,-122.81423301509368L-28.180172697699675,-122.82694180837775z" style="fill:rgb(127,0,127)"/><path d="M27.64493706430844,-122.81847543325125L28.710467071469782,-126.06079119578975L27.644928514099455,-126.03911610251097z" style="fill:rgb(106,127,253)"/><path d="M80.51699168966618,-122.81847543325127L28.71047595276148,-122.83959713295954L27.64493706430844,-122.81847543325125z" style="fill:rgb(127,0,127)"/><path d="M-28.180846778470503,126.25912591167813L-80.51613854556038,126.2460835130067L-80.52446348084094,126.25912591167815z" style="fill:rgb(127,254,127)"/><path d="M-28.180855495243392,129.48014448501095L-27.10775726664949,126.2460835130067L-28.180846778470503,126.25912591167813z" style="fill:rgb(140,127,254)"/><path d="M28.711162789295923,126.27211343815975L80.51891755500273,126.25043729448795L27.645598296489496,126.25043729448798z" style="fill:rgb(127,254,127)"/><path d="M27.64560684711279,129.47123402527407L28.711162789295923,126.27211343815975L27.645598296489496,126.25043729448798zM28.710467071469782,-126.06079119578975L27.64493706430844,-122.81847543325125L28.71047595276148,-122.83959713295954z" style="fill:rgb(106,127,253)"/><path d="M28.71047595276148,-122.83959713295954L80.51699168966618,-122.81847543325127L80.53082686407842,-122.83959713295955z" style="fill:rgb(127,0,127)"/><path d="M80.51891755500273,126.25043729448795L28.711162789295923,126.27211343815975L80.53275339131977,126.27211343815972z" style="fill:rgb(127,254,127)"/><path d="M28.711162789295923,126.27211343815975L27.64560684711279,129.47123402527407L28.71117167101805,129.4934636161534z" style="fill:rgb(106,127,253)"/><path d="M-28.180163981349175,-126.04780429868553L-29.233532455210764,-122.8563869145989L-28.180172697699675,-122.82694180837775z" style="fill:rgb(157,127,251)"/><path d="M-28.180172697699675,-122.82694180837775L-80.54182453758644,-122.85638691459889L-80.52253735020177,-122.82694180837774z" style="fill:rgb(127,0,127)"/><path d="M-80.52446348084094,126.25912591167815L-29.234231900258358,126.28934395117444L-28.180846778470503,126.25912591167813z" style="fill:rgb(127,254,127)"/><path d="M-28.180846778470503,126.25912591167813L-29.234240945025586,129.51113406809336L-28.180855495243392,129.48014448501095zM-29.233532455210764,-122.8563869145989L-28.180163981349175,-126.04780429868553L-29.233523410881933,-126.07802087371125z" style="fill:rgb(157,127,251)"/><path d="M-80.54182453758644,-122.85638691459889L-28.180172697699675,-122.82694180837775L-29.233532455210764,-122.8563869145989z" style="fill:rgb(127,0,127)"/><path d="M-29.234231900258358,126.28934395117444L-80.52446348084094,126.25912591167815L-80.54375159106131,126.28934395117447z" style="fill:rgb(127,254,127)"/><path d="M-29.234240945025586,129.51113406809336L-28.180846778470503,126.25912591167813L-29.234231900258358,126.28934395117444z" style="fill:rgb(157,127,251)"/><path d="M28.71047595276148,-122.83959713295954L29.747045458801608,-126.09941934353216L28.710467071469782,-126.06079119578975z" style="fill:rgb(89,127,249)"/><path d="M80.53082686407842,-122.83959713295955L29.74705466356569,-122.87723905341316L28.71047595276148,-122.83959713295954z" style="fill:rgb(127,0,127)"/><path d="M29.74776651590935,126.31074345830152L80.53275339131977,126.27211343815972L28.711162789295923,126.27211343815975z" style="fill:rgb(127,254,127)"/><path d="M28.71117167101805,129.4934636161534L29.74776651590935,126.31074345830152L28.711162789295923,126.27211343815975zM29.747045458801608,-126.09941934353216L28.71047595276148,-122.83959713295954L29.74705466356569,-122.87723905341316z" style="fill:rgb(89,127,249)"/><path d="M29.74705466356569,-122.87723905341316L80.53082686407842,-122.83959713295955L80.55548314372825,-122.87723905341318z" style="fill:rgb(127,0,127)"/><path d="M80.53275339131977,126.27211343815972L29.74776651590935,126.31074345830152L80.55741085086144,126.31074345830152z" style="fill:rgb(127,254,127)"/><path d="M29.74776651590935,126.31074345830152L28.71117167101805,129.4934636161534L29.747775721119684,129.53307995919596z" style="fill:rgb(89,127,249)"/><path d="M-29.233523410881933,-126.07802087371125L-30.24879331989178,-122.90206473655421L-29.233532455210764,-122.8563869145989z" style="fill:rgb(173,127,246)"/><path d="M-29.233532455210764,-122.8563869145989L-80.57174450814992,-122.9020647365542L-80.54182453758644,-122.85638691459889z" style="fill:rgb(127,0,127)"/><path d="M-80.54375159106131,126.28934395117447L-30.249517325056754,126.33622081545754L-29.234231900258358,126.28934395117444z" style="fill:rgb(127,254,127)"/><path d="M-29.234231900258358,126.28934395117444L-30.249526687419486,129.55920781823835L-29.234240945025586,129.51113406809336zM-30.24879331989178,-122.90206473655421L-29.233523410881933,-126.07802087371125L-30.248783957983,-126.12489546548537z" style="fill:rgb(173,127,246)"/><path d="M-80.57174450814992,-122.9020647365542L-29.233532455210764,-122.8563869145989L-30.24879331989178,-122.90206473655421z" style="fill:rgb(127,0,127)"/><path d="M-30.249517325056754,126.33622081545754L-80.54375159106131,126.28934395117447L-80.57367299364557,126.33622081545754z" style="fill:rgb(127,254,127)"/><path d="M-30.249526687419486,129.55920781823835L-29.234231900258358,126.28934395117444L-30.249517325056754,126.33622081545754z" style="fill:rgb(173,127,246)"/><path d="M29.74705466356569,-122.87723905341316L30.736537198969298,-126.15434085846991L29.747045458801608,-126.09941934353216z" style="fill:rgb(73,127,243)"/><path d="M80.55548314372825,-122.87723905341318L30.736546714055322,-122.93075835003431L29.74705466356569,-122.87723905341316z" style="fill:rgb(127,0,127)"/><path d="M30.73728256521855,126.36566763640434L80.55741085086144,126.31074345830152L29.74776651590935,126.31074345830152z" style="fill:rgb(127,254,127)"/><path d="M29.747775721119684,129.53307995919596L30.73728256521855,126.36566763640434L29.74776651590935,126.31074345830152zM30.736537198969298,-126.15434085846991L29.74705466356569,-122.87723905341316L30.736546714055322,-122.93075835003431z" style="fill:rgb(73,127,243)"/><path d="M30.736546714055322,-122.93075835003431L80.55548314372825,-122.87723905341318L80.5905394513834,-122.93075835003432z" style="fill:rgb(127,0,127)"/><path d="M80.55741085086144,126.31074345830152L30.73728256521855,126.36566763640434L80.59246883670923,126.36566763640431z" style="fill:rgb(127,254,127)"/><path d="M30.73728256521855,126.36566763640434L29.747775721119684,129.53307995919596L30.737292080766068,129.5894064916069z" style="fill:rgb(73,127,243)"/><path d="M-30.248783957983,-126.12489546548537L-31.208173897383045,-122.9631964063823L-30.24879331989178,-122.90206473655421z" style="fill:rgb(188,127,239)"/><path d="M-30.24879331989178,-122.90206473655421L-80.61178708643972,-122.96319640638228L-80.57174450814992,-122.9020647365542z" style="fill:rgb(127,0,127)"/><path d="M-80.57367299364557,126.33622081545754L-31.208921236568873,126.39895719225522L-30.249517325056754,126.33622081545754z" style="fill:rgb(127,254,127)"/><path d="M-30.249517325056754,126.33622081545754L-31.20893090067207,129.62354601470497L-30.249526687419486,129.55920781823835zM-31.208173897383045,-122.9631964063823L-30.248783957983,-126.12489546548537L-31.208164233748665,-126.18762879961184z" style="fill:rgb(188,127,239)"/><path d="M-80.61178708643972,-122.96319640638228L-30.24879331989178,-122.90206473655421L-31.208173897383045,-122.9631964063823z" style="fill:rgb(127,0,127)"/><path d="M-31.208921236568873,126.39895719225522L-80.57367299364557,126.33622081545754L-80.61371748927365,126.39895719225522z" style="fill:rgb(127,254,127)"/><path d="M-31.20893090067207,129.62354601470497L-30.249517325056754,126.33622081545754L-31.208921236568873,126.39895719225522z" style="fill:rgb(188,127,239)"/><path d="M30.736546714055322,-122.93075835003431L31.661584828386864,-126.22461708632521L30.736537198969298,-126.15434085846991z" style="fill:rgb(58,127,234)"/><path d="M80.5905394513834,-122.93075835003432L31.66159463529472,-122.99924033363257L30.736546714055322,-122.93075835003431z" style="fill:rgb(127,0,127)"/><path d="M31.662353054570115,126.4359472736705L80.59246883670923,126.36566763640431L30.73728256521855,126.36566763640434z" style="fill:rgb(127,254,127)"/><path d="M30.737292080766068,129.5894064916069L31.662353054570115,126.4359472736705L30.73728256521855,126.36566763640434zM31.661584828386864,-126.22461708632521L30.736546714055322,-122.93075835003431L31.66159463529472,-122.99924033363257z" style="fill:rgb(58,127,234)"/><path d="M31.66159463529472,-122.99924033363257L80.5905394513834,-122.93075835003432L80.6353966456558,-122.99924033363259z" style="fill:rgb(127,0,127)"/><path d="M80.59246883670923,126.36566763640431L31.662353054570115,126.4359472736705L80.63732817942079,126.4359472736705z" style="fill:rgb(127,254,127)"/><path d="M31.662353054570115,126.4359472736705L30.737292080766068,129.5894064916069L31.662362861953884,129.6614805472278z" style="fill:rgb(58,127,234)"/><path d="M-31.208164233748665,-126.18762879961184L-32.094804678509895,-123.03873441013306L-31.208173897383045,-122.9631964063823z" style="fill:rgb(203,127,230)"/><path d="M-31.208173897383045,-122.9631964063823L-80.66126612795048,-123.03873441013305L-80.61178708643972,-122.96319640638228z" style="fill:rgb(127,0,127)"/><path d="M-80.61371748927365,126.39895719225522L-32.09557372151493,126.47647807145265L-31.208921236568873,126.39895719225522z" style="fill:rgb(127,254,127)"/><path d="M-31.208921236568873,126.39895719225522L-32.09558366627791,129.70304619964344L-31.20893090067207,129.62354601470497zM-32.094804678509895,-123.03873441013306L-31.208164233748665,-126.18762879961184L-32.094794734229644,-126.26514591701174z" style="fill:rgb(203,127,230)"/><path d="M-80.66126612795048,-123.03873441013305L-31.208173897383045,-122.9631964063823L-32.094804678509895,-123.03873441013306z" style="fill:rgb(127,0,127)"/><path d="M-32.09557372151493,126.47647807145265L-80.61371748927365,126.39895719225522L-80.66319890127994,126.47647807145268z" style="fill:rgb(127,254,127)"/><path d="M-32.09558366627791,129.70304619964344L-31.208921236568873,126.39895719225522L-32.09557372151493,126.47647807145265z" style="fill:rgb(203,127,230)"/><path d="M31.66159463529472,-122.99924033363257L32.5058767011482,-126.30904272823001L31.661584828386864,-126.22461708632521z" style="fill:rgb(45,127,224)"/><path d="M80.6353966456558,-122.99924033363259L32.50588677629705,-123.08151047821538L31.66159463529472,-122.99924033363257z" style="fill:rgb(127,0,127)"/><path d="M32.50666594005892,126.52037701394559L80.63732817942079,126.4359472736705L31.662353054570115,126.4359472736705z" style="fill:rgb(127,254,127)"/><path d="M31.662362861953884,129.6614805472278L32.50666594005892,126.52037701394559L31.662353054570115,126.4359472736705zM32.5058767011482,-126.30904272823001L31.66159463529472,-122.99924033363257L32.50588677629705,-123.08151047821538z" style="fill:rgb(45,127,224)"/><path d="M32.50588677629705,-123.08151047821538L80.6353966456558,-122.99924033363259L80.68928538637947,-123.08151047821539z" style="fill:rgb(127,0,127)"/><path d="M80.63732817942079,126.4359472736705L32.50666594005892,126.52037701394559L80.69121950273117,126.52037701394556z" style="fill:rgb(127,254,127)"/><path d="M32.50666594005892,126.52037701394559L31.662362861953884,129.6614805472278L32.506676015697025,129.74806599410346z" style="fill:rgb(45,127,224)"/><path d="M-32.094794734229644,-126.26514591701174L-32.89301087081859,-123.12738198038922L-32.094804678509895,-123.03873441013306z" style="fill:rgb(216,127,219)"/><path d="M-32.094804678509895,-123.03873441013306L-80.71933222171438,-123.1273819803892L-80.66126612795048,-123.03873441013305z" style="fill:rgb(127,0,127)"/><path d="M-80.66319890127994,126.47647807145268L-32.893799607522055,126.56745264667698L-32.09557372151493,126.47647807145265z" style="fill:rgb(127,254,127)"/><path d="M-32.09557372151493,126.47647807145265L-32.893809806951296,129.79634358781675L-32.09558366627791,129.70304619964344zM-32.89301087081859,-123.12738198038922L-32.094794734229644,-126.26514591701174L-32.8930006718848,-126.35611607463717z" style="fill:rgb(216,127,219)"/><path d="M-80.71933222171438,-123.1273819803892L-32.094804678509895,-123.03873441013306L-32.89301087081859,-123.12738198038922z" style="fill:rgb(127,0,127)"/><path d="M-32.893799607522055,126.56745264667698L-80.66319890127994,126.47647807145268L-80.72126777879235,126.56745264667698z" style="fill:rgb(127,254,127)"/><path d="M-32.893809806951296,129.79634358781675L-32.09557372151493,126.47647807145265L-32.893799607522055,126.56745264667698z" style="fill:rgb(216,127,219)"/><path d="M32.50588677629705,-123.08151047821538L33.25443793839921,-126.40616344680997L32.5058767011482,-126.30904272823001z" style="fill:rgb(32,127,213)"/><path d="M80.68928538637947,-123.08151047821539L33.2544482534823,-123.17615157756437L32.50588677629705,-123.08151047821538z" style="fill:rgb(127,0,127)"/><path d="M33.25524597262487,126.61750245055406L80.69121950273117,126.52037701394556L32.50666594005892,126.52037701394559z" style="fill:rgb(127,254,127)"/><path d="M32.506676015697025,129.74806599410346L33.25524597262487,126.61750245055406L32.50666594005892,126.52037701394559zM33.25443793839921,-126.40616344680997L32.50588677629705,-123.08151047821538L33.2544482534823,-123.17615157756437z" style="fill:rgb(32,127,213)"/><path d="M33.2544482534823,-123.17615157756437L80.68928538637947,-123.08151047821539L80.75127737254265,-123.17615157756438z" style="fill:rgb(127,0,127)"/><path d="M80.69121950273117,126.52037701394556L33.25524597262487,126.61750245055406L80.75321446195854,126.61750245055406z" style="fill:rgb(127,254,127)"/><path d="M33.25524597262487,126.61750245055406L32.506676015697025,129.74806599410346L33.25525628820926,129.84767129086367z" style="fill:rgb(32,127,213)"/><path d="M-32.8930006718848,-126.35611607463717L-33.588576949140524,-123.22760809215178L-32.89301087081859,-123.12738198038922z" style="fill:rgb(227,127,206)"/><path d="M-32.89301087081859,-123.12738198038922L-80.78498251293367,-123.22760809215177L-80.71933222171438,-123.1273819803892z" style="fill:rgb(127,0,127)"/><path d="M-80.72126777879235,126.56745264667698L-33.589383019794155,126.67030970471859L-32.893799607522055,126.56745264667698z" style="fill:rgb(127,254,127)"/><path d="M-32.893799607522055,126.56745264667698L-33.58939344337496,129.9018268489518L-32.893809806951296,129.79634358781675zM-33.588576949140524,-123.22760809215178L-32.8930006718848,-126.35611607463717L-33.58856652606648,-126.4589681342543z" style="fill:rgb(227,127,206)"/><path d="M-80.78498251293367,-123.22760809215177L-32.89301087081859,-123.12738198038922L-33.588576949140524,-123.22760809215178z" style="fill:rgb(127,0,127)"/><path d="M-33.589383019794155,126.67030970471859L-80.72126777879235,126.56745264667698L-80.78692121976725,126.67030970471862z" style="fill:rgb(127,254,127)"/><path d="M-33.58939344337496,129.9018268489518L-32.893799607522055,126.56745264667698L-33.589383019794155,126.67030970471859z" style="fill:rgb(227,127,206)"/><path d="M33.2544482534823,-123.17615157756437L33.89388212311389,-126.51430107006978L33.25443793839921,-126.40616344680997z" style="fill:rgb(22,127,199)"/><path d="M80.75127737254265,-123.17615157756438L33.893892645530634,-123.28152830563113L33.2544482534823,-123.17615157756437z" style="fill:rgb(127,0,127)"/><path d="M33.8947063988827,126.72564533129612L80.75321446195854,126.61750245055406L33.25524597262487,126.61750245055406z" style="fill:rgb(127,254,127)"/><path d="M33.25525628820926,129.84767129086367L33.8947063988827,126.72564533129612L33.25524597262487,126.61750245055406zM33.89388212311389,-126.51430107006978L33.2544482534823,-123.17615157756437L33.893892645530634,-123.28152830563113z" style="fill:rgb(22,127,199)"/><path d="M33.893892645530634,-123.28152830563113L80.75127737254265,-123.17615157756438L80.82030142988319,-123.28152830563114z" style="fill:rgb(127,0,127)"/><path d="M80.75321446195854,126.61750245055406L33.8947063988827,126.72564533129612L80.82224183229981,126.72564533129609z" style="fill:rgb(127,254,127)"/><path d="M33.8947063988827,126.72564533129612L33.25525628820926,129.84767129086367L33.89471692181125,129.95857533526615z" style="fill:rgb(22,127,199)"/><path d="M-33.58856652606648,-126.4589681342543L-34.16900720770159,-123.33767779036957L-33.588576949140524,-123.22760809215178z" style="fill:rgb(237,127,192)"/><path d="M-33.588576949140524,-123.22760809215178L-80.85708056817435,-123.33767779036955L-80.78498251293367,-123.22760809215177z" style="fill:rgb(127,0,127)"/><path d="M-80.78692121976725,126.67030970471862L-34.169827939569466,126.78326874904738L-33.589383019794155,126.67030970471859z" style="fill:rgb(127,254,127)"/><path d="M-33.589383019794155,126.67030970471859L-34.16983855273976,130.01767002591663L-33.58939344337496,129.9018268489518zM-34.16900720770159,-123.33767779036957L-33.58856652606648,-126.4589681342543L-34.168996595047716,-126.57192168456216z" style="fill:rgb(237,127,192)"/><path d="M-80.85708056817435,-123.33767779036955L-33.588576949140524,-123.22760809215178L-34.16900720770159,-123.33767779036957z" style="fill:rgb(127,0,127)"/><path d="M-34.169827939569466,126.78326874904738L-80.78692121976725,126.67030970471862L-80.85902273706341,126.78326874904741z" style="fill:rgb(127,254,127)"/><path d="M-34.16983855273976,130.01767002591663L-33.589383019794155,126.67030970471859L-34.169827939569466,126.78326874904738z" style="fill:rgb(237,127,192)"/><path d="M33.893892645530634,-123.28152830563113L34.41265488067695,-126.63157776434674L33.89388212311389,-126.51430107006978z" style="fill:rgb(13,127,185)"/><path d="M80.82030142988319,-123.28152830563114L34.41266557404291,-123.39581077232206L33.893892645530634,-123.28152830563113z" style="fill:rgb(127,0,127)"/><path d="M34.413492547806456,126.84292773246045L80.82224183229981,126.72564533129609L33.8947063988827,126.72564533129612z" style="fill:rgb(127,254,127)"/><path d="M33.89471692181125,129.95857533526615L34.413492547806456,126.84292773246045L33.8947063988827,126.72564533129612zM34.41265488067695,-126.63157776434674L33.893892645530634,-123.28152830563113L34.41266557404291,-123.39581077232206z" style="fill:rgb(13,127,185)"/><path d="M34.41266557404291,-123.39581077232206L80.82030142988319,-123.28152830563114L80.89515894044182,-123.39581077232208z" style="fill:rgb(127,0,127)"/><path d="M80.82224183229981,126.72564533129609L34.413492547806456,126.84292773246045L80.89710293905166,126.84292773246042z" style="fill:rgb(127,254,127)"/><path d="M34.413492547806456,126.84292773246045L33.89471692181125,129.95857533526615L34.41350324169301,130.07885225543222z" style="fill:rgb(13,127,185)"/><path d="M-34.168996595047716,-126.57192168456216L-34.62374278945992,-123.45567195085877L-34.16900720770159,-123.33767779036957z" style="fill:rgb(244,127,177)"/><path d="M-34.16900720770159,-123.33767779036957L-80.93436931920004,-123.45567195085876L-80.85708056817435,-123.33767779036955z" style="fill:rgb(127,0,127)"/><path d="M-80.85902273706341,126.78326874904741L-34.6245752389458,126.90436027934624L-34.169827939569466,126.78326874904738z" style="fill:rgb(127,254,127)"/><path d="M-34.169827939569466,126.78326874904738L-34.624586003640964,130.14185333204108L-34.16983855273976,130.01767002591663zM-34.62374278945992,-123.45567195085877L-34.168996595047716,-126.57192168456216L-34.62373202528906,-126.69300731985523z" style="fill:rgb(244,127,177)"/><path d="M-80.93436931920004,-123.45567195085876L-34.16900720770159,-123.33767779036957L-34.62374278945992,-123.45567195085877z" style="fill:rgb(127,0,127)"/><path d="M-34.6245752389458,126.90436027934624L-80.85902273706341,126.78326874904741L-80.93631520282516,126.90436027934626z" style="fill:rgb(127,254,127)"/><path d="M-34.624586003640964,130.14185333204108L-34.169827939569466,126.78326874904738L-34.6245752389458,126.90436027934624z" style="fill:rgb(244,127,177)"/><path d="M34.41266557404291,-123.39581077232206L34.80124942769976,-126.75594247675093L34.41265488067695,-126.63157776434674z" style="fill:rgb(7,127,169)"/><path d="M80.89515894044182,-123.39581077232208L34.80126025242913,-123.51700029082699L34.41266557404291,-123.39581077232206z" style="fill:rgb(127,0,127)"/><path d="M34.80209738523145,126.9672985024394L80.89710293905166,126.84292773246042L34.413492547806456,126.84292773246045z" style="fill:rgb(127,254,127)"/><path d="M34.41350324169301,130.07885225543222L34.80209738523145,126.9672985024394L34.413492547806456,126.84292773246045z" style="fill:rgb(7,127,169)"/><path d="M-84.16827170587447,-123.45057466611898L-80.93100532681827,-126.68777648505583L-84.16824553989099,-126.68777648505583zM-80.93100532681827,-126.68777648505583L-84.16827170587447,-123.45057466611898L-80.93103048641777,-123.45057466611898zM-84.17032142513263,130.1364886793947L-80.93297620949491,126.8991291897694L-84.17029525787471,126.8991291897694zM-80.93297620949491,126.8991291897694L-84.17032142513263,130.1364886793947L-80.93300137031983,130.1364886793947z" style="fill:rgb(127,127,254)"/><path d="M34.80124942769976,-126.75594247675093L34.41266557404291,-123.39581077232206L34.80126025242913,-123.51700029082699z" style="fill:rgb(7,127,169)"/><path d="M34.80126025242913,-123.51700029082699L80.89515894044182,-123.39581077232208L80.97454072072499,-123.517000290827z" style="fill:rgb(127,0,127)"/><path d="M80.89710293905166,126.84292773246042L34.80209738523145,126.9672985024394L80.97648853651366,126.9672985024394z" style="fill:rgb(127,254,127)"/><path d="M34.80209738523145,126.9672985024394L34.41350324169301,130.07885225543222L34.80210821048834,130.20639852863366z" style="fill:rgb(7,127,169)"/><path d="M-34.62373202528906,-126.69300731985523L-34.944373148446566,-123.57952501447487L-34.62374278945992,-123.45567195085877z" style="fill:rgb(250,127,161)"/><path d="M-34.62374278945992,-123.45567195085877L-81.01549577967832,-123.57952501447484L-80.93436931920004,-123.45567195085876z" style="fill:rgb(127,0,127)"/><path d="M-80.93631520282516,126.90436027934626L-34.94521414893596,127.03146451610739L-34.6245752389458,126.90436027934624z" style="fill:rgb(127,254,127)"/><path d="M-34.6245752389458,126.90436027934624L-34.9452250242074,130.2722028644491L-34.624586003640964,130.14185333204108zM-34.944373148446566,-123.57952501447487L-34.62373202528906,-126.69300731985523L-34.94436227370535,-126.82010536284002z" style="fill:rgb(250,127,161)"/><path d="M-81.01549577967832,-123.57952501447484L-34.62374278945992,-123.45567195085877L-34.944373148446566,-123.57952501447487z" style="fill:rgb(127,0,127)"/><path d="M-34.94521414893596,127.03146451610739L-80.93631520282516,126.90436027934626L-81.01744556630959,127.03146451610739z" style="fill:rgb(127,254,127)"/><path d="M-34.9452250242074,130.2722028644491L-34.6245752389458,126.90436027934624L-34.94521414893596,127.03146451610739z" style="fill:rgb(250,127,161)"/><path d="M34.80126025242913,-123.51700029082699L35.05239072031853,-126.8852130297089L34.80124942769976,-126.75594247675093z" style="fill:rgb(2,127,152)"/><path d="M80.97454072072499,-123.517000290827L35.052401634273984,-123.64297039743305L34.80126025242913,-123.51700029082699z" style="fill:rgb(127,0,127)"/><path d="M35.05324566741524,127.09657535822436L80.97648853651366,126.9672985024394L34.80209738523145,126.9672985024394z" style="fill:rgb(127,254,127)"/><path d="M34.80210821048834,130.20639852863366L35.05324566741524,127.09657535822436L34.80209738523145,126.9672985024394zM35.05239072031853,-126.8852130297089L34.80126025242913,-123.51700029082699L35.052401634273984,-123.64297039743305z" style="fill:rgb(2,127,152)"/><path d="M35.052401634273984,-123.64297039743305L80.97454072072499,-123.517000290827L81.0570538905784,-123.64297039743306z" style="fill:rgb(127,0,127)"/><path d="M80.97648853651366,126.9672985024394L35.05324566741524,127.09657535822436L81.05900567809147,127.09657535822433z" style="fill:rgb(127,254,127)"/><path d="M35.05324566741524,127.09657535822436L34.80210821048834,130.20639852863366L35.0532565819031,130.33897615261725z" style="fill:rgb(2,127,152)"/><path d="M-34.94436227370535,-126.82010536284002L-35.12480459236084,-123.70705373848801L-34.944373148446566,-123.57952501447487z" style="fill:rgb(253,127,144)"/><path d="M-34.944373148446566,-123.57952501447487L-81.09902987795923,-123.707053738488L-81.01549577967832,-123.57952501447484z" style="fill:rgb(127,0,127)"/><path d="M-81.01744556630959,127.03146451610739L-35.125650806908,127.1623409066498L-34.94521414893596,127.03146451610739z" style="fill:rgb(127,254,127)"/><path d="M-34.94521414893596,127.03146451610739L-35.12566174960452,130.4064208634392L-34.9452250242074,130.2722028644491zM-35.12480459236084,-123.70705373848801L-34.94436227370535,-126.82010536284002L-35.12479365019838,-126.95097536930521z" style="fill:rgb(253,127,144)"/><path d="M-81.09902987795923,-123.707053738488L-34.944373148446566,-123.57952501447487L-35.12480459236084,-123.70705373848801z" style="fill:rgb(127,0,127)"/><path d="M-35.125650806908,127.1623409066498L-81.01744556630959,127.03146451610739L-81.10098368751473,127.16234090664982z" style="fill:rgb(127,254,127)"/><path d="M-35.12566174960452,130.4064208634392L-34.94521414893596,127.03146451610739L-35.125650806908,127.1623409066498z" style="fill:rgb(253,127,144)"/><path d="M35.052401634273984,-123.64297039743305L35.16119237110601,-127.0171020984297L35.05239072031853,-126.8852130297089z" style="fill:rgb(0,127,136)"/><path d="M81.0570538905784,-123.64297039743306L35.16120333030834,-123.77149216575081L35.052401634273984,-123.64297039743305z" style="fill:rgb(127,0,127)"/><path d="M35.162050862646886,127.22847086405866L81.05900567809147,127.09657535822433L35.05324566741524,127.09657535822436z" style="fill:rgb(127,254,127)"/><path d="M35.0532565819031,130.33897615261725L35.162050862646886,127.22847086405866L35.05324566741524,127.09657535822436zM35.16119237110601,-127.0171020984297L35.052401634273984,-123.64297039743305L35.16120333030834,-123.77149216575081z" style="fill:rgb(0,127,136)"/><path d="M35.16120333030834,-123.77149216575081L81.0570538905784,-123.64297039743306L81.14123845455775,-123.77149216575083z" style="fill:rgb(127,0,127)"/><path d="M81.05900567809147,127.09657535822433L35.162050862646886,127.22847086405866L81.14319429841582,127.22847086405866z" style="fill:rgb(127,254,127)"/><path d="M35.162050862646886,127.22847086405866L35.0532565819031,130.33897615261725L35.16206182238436,130.47423928755848z" style="fill:rgb(0,127,136)"/><path d="M-35.12479365019838,-126.95097536930521L-35.161385548321,-123.83599770283226L-35.12480459236084,-123.70705373848801z" style="fill:rgb(255,127,127)"/><path d="M-35.12480459236084,-123.70705373848801L-81.1834909895528,-123.83599770283224L-81.09902987795923,-123.707053738488z" style="fill:rgb(127,0,127)"/><path d="M-81.10098368751473,127.16234090664982L-35.16223352639855,127.29466969460235L-35.125650806908,127.1623409066498z" style="fill:rgb(127,254,127)"/><path d="M-35.125650806908,127.1623409066498L-35.162244491900175,130.54212834334166L-35.12566174960452,130.4064208634392zM-35.161385548321,-123.83599770283226L-35.12479365019838,-126.95097536930521L-35.1613745833551,-127.08329769564436z" style="fill:rgb(255,127,127)"/><path d="M-81.1834909895528,-123.83599770283224L-35.12480459236084,-123.70705373848801L-35.161385548321,-123.83599770283226z" style="fill:rgb(127,0,127)"/><path d="M-35.16223352639855,127.29466969460235L-81.10098368751473,127.16234090664982L-81.1854488708919,127.29466969460238z" style="fill:rgb(127,254,127)"/><path d="M-35.162244491900175,130.54212834334166L-35.125650806908,127.1623409066498L-35.16223352639855,127.29466969460235z" style="fill:rgb(255,127,127)"/><path d="M81.22559806583062,-123.900281172938L35.16120333030834,-123.77149216575081L81.14123845455775,-123.77149216575083z" style="fill:rgb(127,0,127)"/><path d="M35.162050862646886,127.22847086405866L81.22755797869213,127.36064063048572L81.14319429841582,127.22847086405866z" style="fill:rgb(127,254,127)"/><path d="M35.16120333030834,-123.77149216575081L81.22559806583062,-123.900281172938L35.1252870629997,-123.90028117293798z" style="fill:rgb(127,0,127)"/><path d="M81.22755797869213,127.36064063048572L35.162050862646886,127.22847086405866L35.12613460987559,127.36064063048575z" style="fill:rgb(127,254,127)"/><path d="M-35.161385548321,-123.83599770283226L-81.26737206202593,-123.96405614078152L-81.1834909895528,-123.83599770283224z" style="fill:rgb(127,0,127)"/><path d="M-81.1854488708919,127.29466969460238L-35.05386105694712,127.42608971735828L-35.16223352639855,127.29466969460235z" style="fill:rgb(127,254,127)"/><path d="M-81.26737206202593,-123.96405614078152L-35.161385548321,-123.83599770283226L-35.05301481894298,-123.96405614078154z" style="fill:rgb(127,0,127)"/><path d="M-35.05386105694712,127.42608971735828L-81.1854488708919,127.29466969460238L-81.26933399138052,127.42608971735831z" style="fill:rgb(127,254,127)"/><path d="M81.30862394674261,-124.02703401843074L35.1252870629997,-123.90028117293798L81.22559806583062,-123.900281172938z" style="fill:rgb(127,0,127)"/><path d="M35.12613460987559,127.36064063048575L81.310587868405,127.49072079168627L81.22755797869213,127.36064063048572z" style="fill:rgb(127,254,127)"/><path d="M35.1252870629997,-123.90028117293798L81.30862394674261,-124.02703401843074L34.94484263265787,-124.02703401843073z" style="fill:rgb(127,0,127)"/><path d="M81.310587868405,127.49072079168627L35.12613460987559,127.36064063048575L34.945686687446994,127.49072079168627z" style="fill:rgb(127,254,127)"/><path d="M-35.05301481894298,-123.96405614078154L-81.34916781943012,-124.08893099770962L-81.26737206202593,-123.96405614078152z" style="fill:rgb(127,0,127)"/><path d="M-81.26933399138052,127.42608971735831L-34.80203469254897,127.55424259513534L-35.05386105694712,127.42608971735828z" style="fill:rgb(127,254,127)"/><path d="M-81.34916781943012,-124.08893099770962L-35.05301481894298,-123.96405614078154L-34.801193688283604,-124.08893099770964z" style="fill:rgb(127,0,127)"/><path d="M-34.80203469254897,127.55424259513534L-81.26933399138052,127.42608971735831L-81.35113370019091,127.55424259513536z" style="fill:rgb(127,254,127)"/><path d="M81.38881966287028,-124.14946614566446L34.94484263265787,-124.02703401843073L81.30862394674261,-124.02703401843074z" style="fill:rgb(127,0,127)"/><path d="M34.945686687446994,127.49072079168627L81.39078746057123,127.6163668200416L81.310587868405,127.49072079168627z" style="fill:rgb(127,254,127)"/><path d="M34.94484263265787,-124.02703401843073L81.38881966287028,-124.14946614566446L34.62266802129045,-124.14946614566445z" style="fill:rgb(127,0,127)"/><path d="M81.39078746057123,127.6163668200416L34.945686687446994,127.49072079168627L34.623505119147616,127.6163668200416z" style="fill:rgb(127,254,127)"/><path d="M-34.801193688283604,-124.08893099770964L-81.42740062976954,-124.20836642209166L-81.34916781943012,-124.08893099770962z" style="fill:rgb(127,0,127)"/><path d="M-81.35113370019091,127.55424259513536L-34.410848387390146,127.67681325865584L-34.80203469254897,127.55424259513534z" style="fill:rgb(127,254,127)"/><path d="M-81.42740062976954,-124.20836642209166L-34.801193688283604,-124.08893099770964L-34.41001603659336,-124.20836642209167z" style="fill:rgb(127,0,127)"/><path d="M-34.410848387390146,127.67681325865584L-81.35113370019091,127.55424259513536L-81.42937029353622,127.67681325865587z" style="fill:rgb(127,254,127)"/><path d="M81.46473451990468,-124.26536282798315L34.62266802129045,-124.14946614566445L81.38881966287028,-124.14946614566446z" style="fill:rgb(127,0,127)"/><path d="M34.623505119147616,127.6163668200416L81.46670599026143,127.73530585048427L81.39078746057123,127.6163668200416z" style="fill:rgb(127,254,127)"/><path d="M34.62266802129045,-124.14946614566445L81.46473451990468,-124.26536282798315L34.164150805720325,-124.26536282798314z" style="fill:rgb(127,0,127)"/><path d="M81.46670599026143,127.73530585048427L34.623505119147616,127.6163668200416L34.16497758814315,127.73530585048428z" style="fill:rgb(127,254,127)"/><path d="M-34.41001603659336,-124.20836642209167L-81.50065044008205,-124.32019446639457L-81.42740062976954,-124.20836642209166z" style="fill:rgb(127,0,127)"/><path d="M-81.42937029353622,127.67681325865587L-33.886955976743806,127.79157684976076L-34.410848387390146,127.67681325865584z" style="fill:rgb(127,254,127)"/><path d="M-81.50065044008205,-124.32019446639457L-34.41001603659336,-124.20836642209167L-33.88613556081946,-124.32019446639458z" style="fill:rgb(127,0,127)"/><path d="M-33.886955976743806,127.79157684976076L-81.42937029353622,127.67681325865587L-81.50262364919438,127.79157684976077z" style="fill:rgb(127,254,127)"/><path d="M81.53498418452303,-124.37261064983672L34.164150805720325,-124.26536282798314L81.46473451990468,-124.26536282798315z" style="fill:rgb(127,0,127)"/><path d="M34.16497758814315,127.73530585048428L81.53695905651178,127.84536898816012L81.46670599026143,127.73530585048427z" style="fill:rgb(127,254,127)"/><path d="M34.164150805720325,-124.26536282798314L81.53498418452303,-124.37261064983672L33.57718912487023,-124.3726106498367z" style="fill:rgb(127,0,127)"/><path d="M81.53695905651178,127.84536898816012L34.16497758814315,127.73530585048428L33.578002403377994,127.84536898816015z" style="fill:rgb(127,254,127)"/><path d="M-33.88613556081946,-124.32019446639458L-81.5675783256436,-124.42237103886274L-81.50065044008205,-124.32019446639457z" style="fill:rgb(127,0,127)"/><path d="M-81.50262364919438,127.79157684976077L-33.23947532958799,127.89643561702823L-33.886955976743806,127.79157684976076z" style="fill:rgb(127,254,127)"/><path d="M-81.5675783256436,-124.42237103886274L-33.88613556081946,-124.32019446639458L-33.238669928564946,-124.42237103886275z" style="fill:rgb(127,0,127)"/><path d="M-33.23947532958799,127.89643561702823L-81.50262364919438,127.79157684976077L-81.56955477690278,127.89643561702826z" style="fill:rgb(127,254,127)"/><path d="M81.5982829576064,-124.46924677722718L33.57718912487023,-124.3726106498367L81.53498418452303,-124.37261064983672z" style="fill:rgb(127,0,127)"/><path d="M33.578002403377994,127.84536898816015L81.60026089716217,127.94454187234165L81.53695905651178,127.84536898816012z" style="fill:rgb(127,254,127)"/><path d="M33.57718912487023,-124.3726106498367L81.5982829576064,-124.46924677722718L32.87207879285467,-124.46924677722718z" style="fill:rgb(127,0,127)"/><path d="M81.60026089716217,127.94454187234165L33.578002403377994,127.84536898816015L32.87287561090736,127.94454187234165z" style="fill:rgb(127,254,127)"/><path d="M-33.238669928564946,-124.42237103886275L-81.62695709488469,-124.51302262702406L-81.5675783256436,-124.42237103886274z" style="fill:rgb(127,0,127)"/><path d="M-81.56955477690278,127.89643561702826L-32.47983693329752,127.98946686589949L-33.23947532958799,127.89643561702823z" style="fill:rgb(127,254,127)"/><path d="M-81.62695709488469,-124.51302262702406L-33.238669928564946,-124.42237103886275L-32.47904936559912,-124.51302262702407z" style="fill:rgb(127,0,127)"/><path d="M-32.47983693329752,127.98946686589949L-81.56955477690278,127.89643561702826L-81.62893642482156,127.98946686589952z" style="fill:rgb(127,254,127)"/><path d="M81.65346681923565,-124.55349413973575L32.87207879285467,-124.46924677722718L81.5982829576064,-124.46924677722718z" style="fill:rgb(127,0,127)"/><path d="M32.87287561090736,127.94454187234165L81.6554474350383,128.03100078211318L81.60026089716217,127.94454187234165z" style="fill:rgb(127,254,127)"/><path d="M32.87207879285467,-124.46924677722718L81.65346681923565,-124.55349413973575L32.06134122906193,-124.55349413973573z" style="fill:rgb(127,0,127)"/><path d="M81.6554474350383,128.03100078211318L32.87287561090736,127.94454187234165L32.06211892046402,128.03100078211318z" style="fill:rgb(127,254,127)"/><path d="M-32.47904936559912,-124.51302262702407L-81.67769058629474,-124.59047575763067L-81.62695709488469,-124.51302262702406z" style="fill:rgb(127,0,127)"/><path d="M-81.62893642482156,127.98946686589952L-31.62159668663915,128.0689531920761L-32.47983693329752,127.98946686589949z" style="fill:rgb(127,254,127)"/><path d="M-81.67769058629474,-124.59047575763067L-32.47904936559912,-124.51302262702407L-31.6208294528992,-124.59047575763068z" style="fill:rgb(127,0,127)"/><path d="M-31.62159668663915,128.0689531920761L-81.62893642482156,127.98946686589952L-81.67967237744656,128.0689531920761z" style="fill:rgb(127,254,127)"/><path d="M81.69951541866752,-124.62379500188655L32.06134122906193,-124.55349413973573L81.65346681923565,-124.55349413973575z" style="fill:rgb(127,0,127)"/><path d="M32.06211892046402,128.03100078211318L81.70149826906993,128.1031470891235L81.6554474350383,128.03100078211318z" style="fill:rgb(127,254,127)"/><path d="M32.06134122906193,-124.55349413973573L81.69951541866752,-124.62379500188655L31.15950072150126,-124.62379500188655z" style="fill:rgb(127,0,127)"/><path d="M81.70149826906993,128.1031470891235L32.06211892046402,128.03100078211318L31.16025696379024,128.1031470891235z" style="fill:rgb(127,254,127)"/><path d="M-31.6208294528992,-124.59047575763068L-81.71884025675024,-124.6532975881735L-81.67769058629474,-124.59047575763067z" style="fill:rgb(127,0,127)"/><path d="M-81.67967237744656,128.0689531920761L-30.68018858928389,128.13342413870834L-31.62159668663915,128.0689531920761z" style="fill:rgb(127,254,127)"/><path d="M-81.71884025675024,-124.6532975881735L-31.6208294528992,-124.59047575763068L-30.679443821868045,-124.65329758817352z" style="fill:rgb(127,0,127)"/><path d="M-30.68018858928389,128.13342413870834L-81.67967237744656,128.0689531920761L-81.72082404530396,128.13342413870836z" style="fill:rgb(127,254,127)"/><path d="M81.73557474455181,-124.67884557301187L31.15950072150126,-124.62379500188655L81.69951541866752,-124.62379500188655z" style="fill:rgb(127,0,127)"/><path d="M31.16025696379024,128.1031470891235L81.73755934568425,128.1596427761017L81.70149826906993,128.1031470891235z" style="fill:rgb(127,254,127)"/><path d="M31.15950072150126,-124.62379500188655L81.73557474455181,-124.67884557301187L30.182831943866773,-124.67884557301184z" style="fill:rgb(127,0,127)"/><path d="M81.73755934568425,128.1596427761017L31.16025696379024,128.1031470891235L30.18356480569159,128.15964277610172z" style="fill:rgb(127,254,127)"/><path d="M-30.679443821868045,-124.65329758817352L-81.74964126843813,-124.70032046625214L-81.71884025675024,-124.6532975881735z" style="fill:rgb(127,0,127)"/><path d="M-81.72082404530396,128.13342413870836L-29.672643273435906,128.18168140058216L-30.68018858928389,128.13342413870834z" style="fill:rgb(127,254,127)"/><path d="M-81.74964126843813,-124.70032046625214L-30.679443821868045,-124.65329758817352L-29.67192269287942,-124.70032046625215z" style="fill:rgb(127,0,127)"/><path d="M-29.672643273435906,128.18168140058216L-81.72082404530396,128.13342413870836L-81.75162655272898,128.1816814005822z" style="fill:rgb(127,254,127)"/><path d="M81.76097437871367,-124.71762234802617L30.182831943866773,-124.67884557301184L81.73557474455181,-124.67884557301187z" style="fill:rgb(127,0,127)"/><path d="M30.18356480569159,128.15964277610172L81.76296021349711,128.1994374692075L81.73755934568425,128.1596427761017z" style="fill:rgb(127,254,127)"/><path d="M30.182831943866773,-124.67884557301184L81.76097437871367,-124.71762234802617L29.149042424913752,-124.71762234802615z" style="fill:rgb(127,0,127)"/><path d="M81.76296021349711,128.1994374692075L30.18356480569159,128.15964277610172L29.149750405497343,128.1994374692075z" style="fill:rgb(127,254,127)"/><path d="M-29.67192269287942,-124.70032046625215L-81.76952085249168,-124.73066996472565L-81.74964126843813,-124.70032046625214z" style="fill:rgb(127,0,127)"/><path d="M-81.75162655272898,128.1816814005822L-28.617269993327245,128.2128275953169L-29.672643273435906,128.18168140058216z" style="fill:rgb(127,254,127)"/><path d="M-81.76952085249168,-124.73066996472565L-29.67192269287942,-124.70032046625215L-28.616574872818468,-124.73066996472566z" style="fill:rgb(127,0,127)"/><path d="M-28.617269993327245,128.2128275953169L-81.75162655272898,128.1816814005822L-81.77150710246026,128.2128275953169z" style="fill:rgb(127,254,127)"/><path d="M81.77524039869232,-124.73940180530246L29.149042424913752,-124.71762234802615L81.76097437871367,-124.71762234802617z" style="fill:rgb(127,0,127)"/><path d="M29.149750405497343,128.1994374692075L81.77722692653926,128.22178865308527L81.76296021349711,128.1994374692075z" style="fill:rgb(127,254,127)"/><path d="M29.149042424913752,-124.71762234802615L81.77524039869232,-124.73940180530246L28.07694781933444,-124.73940180530245zM-28.616574872818468,-124.73066996472566L-81.77810700491221,-124.74377815748653L-81.76952085249168,-124.73066996472565z" style="fill:rgb(127,0,127)"/><path d="M81.77722692653926,128.22178865308527L29.149750405497343,128.1994374692075L28.077629879557463,128.2217886530853zM-81.77150710246026,128.2128275953169L-27.53329914413394,128.22627988772163L-28.617269993327245,128.2128275953169z" style="fill:rgb(127,254,127)"/><path d="M-81.77810700491221,-124.74377815748653L-28.616574872818468,-124.73066996472566L-27.532630283317125,-124.74377815748655zM81.77810700491213,-124.74377815748659L28.07694781933444,-124.73940180530245L81.77524039869232,-124.73940180530246zM28.07694781933444,-124.73940180530245L81.77810700491213,-124.74377815748659L26.986107719957648,-124.74377815748657z" style="fill:rgb(127,0,127)"/><path d="M-27.53329914413394,128.22627988772163L-81.77150710246026,128.2128275953169L-81.78009367203737,128.22627988772163zM28.077629879557463,128.2217886530853L81.78009367203747,128.2262798877216L81.77722692653926,128.22178865308527zM81.78009367203747,128.2262798877216L28.077629879557463,128.2217886530853L26.986763303891,128.2262798877216z" style="fill:rgb(127,254,127)"/><path d="M-80.93090049532205,-140.17609573237365L-83.52768944314573,-130.75591495430956L-80.93100532681827,-126.68777648505583z" style="fill:rgb(255,127,127)"/><path d="M-80.93100532681827,-126.68777648505583L-86.86879702087155,-130.75591495430956L-84.16824553989099,-126.68777648505583z" style="fill:rgb(127,0,127)"/><path d="M80.93103048641767,-123.45057466611904L83.52768944314565,-130.75591495430962L80.93100532681818,-126.68777648505589z" style="fill:rgb(0,127,127)"/><path d="M-80.93100532681827,-126.68777648505583L-83.5277162431457,-127.414848274545L-80.93103048641777,-123.45057466611898z" style="fill:rgb(255,127,127)"/><path d="M84.16827170587437,-123.45057466611904L83.52771624314562,-127.41484827454505L80.93103048641767,-123.45057466611904zM-80.93103048641777,-123.45057466611898L-86.86882489287153,-127.414848274545L-84.16827170587447,-123.45057466611898z" style="fill:rgb(127,0,127)"/><path d="M-80.93103048641777,-123.45057466611898L-83.52978882856777,130.96746897999193L-80.93297620949491,126.8991291897694z" style="fill:rgb(255,127,127)"/><path d="M80.93297620949501,126.89912918976934L86.87098038171058,130.96746897999188L84.1702952578748,126.89912918976934zM-84.17029525787471,126.8991291897694L-83.52978882856777,130.96746897999193L-80.93297620949491,126.8991291897694z" style="fill:rgb(127,254,127)"/><path d="M80.93300137031993,130.13648867939466L83.52978882856787,130.96746897999188L80.93297620949501,126.89912918976934z" style="fill:rgb(0,127,127)"/><path d="M-80.93297620949491,126.8991291897694L-83.52981562991495,134.30870361067193L-80.93300137031983,130.1364886793947z" style="fill:rgb(255,127,127)"/><path d="M-84.17032142513263,130.1364886793947L-83.52981562991495,134.30870361067193L-80.93300137031983,130.1364886793947z" style="fill:rgb(127,254,127)"/><path d="M-80.93300137031983,130.1364886793947L-83.52990050096112,144.8892940865108L-80.93308104636864,140.3881403427114zM-83.52768944314573,-130.75591495430956L-80.93090049532205,-140.17609573237365L-83.5275777766643,-144.67700304253813z" style="fill:rgb(255,127,127)"/><path d="M-86.86879702087155,-130.75591495430956L-80.93100532681827,-126.68777648505583L-83.52768944314573,-130.75591495430956z" style="fill:rgb(127,0,127)"/><path d="M-83.5277162431457,-127.414848274545L-80.93100532681827,-126.68777648505583L-83.52768944314573,-130.75591495430956z" style="fill:rgb(255,127,127)"/><path d="M83.52768944314565,-130.75591495430962L80.93103048641767,-123.45057466611904L83.52771624314562,-127.41484827454505z" style="fill:rgb(0,127,127)"/><path d="M83.52771624314562,-127.41484827454505L84.16827170587437,-123.45057466611904L86.86882489287143,-127.41484827454505zM-86.86882489287153,-127.414848274545L-80.93103048641777,-123.45057466611898L-83.5277162431457,-127.414848274545z" style="fill:rgb(127,0,127)"/><path d="M-83.52978882856777,130.96746897999193L-80.93103048641777,-123.45057466611898L-83.5277162431457,-127.414848274545z" style="fill:rgb(255,127,127)"/><path d="M86.87098038171058,130.96746897999188L80.93297620949501,126.89912918976934L83.52978882856787,130.96746897999188zM-83.52978882856777,130.96746897999193L-84.17029525787471,126.8991291897694L-86.87098038171048,130.96746897999193z" style="fill:rgb(127,254,127)"/><path d="M-83.52981562991495,134.30870361067193L-80.93297620949491,126.8991291897694L-83.52978882856777,130.96746897999193z" style="fill:rgb(255,127,127)"/><path d="M83.52978882856787,130.96746897999188L80.93300137031993,130.13648867939466L83.52981562991505,134.30870361067187z" style="fill:rgb(0,127,127)"/><path d="M-83.52981562991495,134.30870361067193L-84.17032142513263,130.1364886793947L-86.87100825511155,134.30870361067193z" style="fill:rgb(127,254,127)"/><path d="M-83.52990050096112,144.8892940865108L-80.93300137031983,130.1364886793947L-83.52981562991495,134.30870361067193z" style="fill:rgb(255,127,127)"/><path d="M83.30479252689067,-150.30729920913538L72.7908164508846,-118.68643661329712L83.30490822648086,-135.84485036065254z" style="fill:rgb(0,127,127)"/><path d="M83.30490822648086,-135.84485036065254L75.82376713633813,-118.68643661329712L86.7759460692509,-135.84485036065254z" style="fill:rgb(127,0,127)"/><path d="M72.79083765185759,-115.65351962811522L83.30708343859436,136.05666517449868L83.30493599443035,-132.37385665928053z" style="fill:rgb(0,127,127)"/><path d="M75.82551920116367,121.93046728658683L83.30711120799397,139.52784014363843L86.7782408416604,139.52784014363843z" style="fill:rgb(127,254,127)"/><path d="M72.79249843311712,121.93046728658683L83.30719914454824,150.51990947954317L83.30711120799397,139.52784014363843z" style="fill:rgb(0,127,127)"/><path d="M86.77597499419828,-132.37385665928053L26.986107719957648,-124.74377815748657L81.77810700491213,-124.74377815748659zM86.77597499419828,-132.37385665928053L-27.532630283317125,-124.74377815748655L26.986107719957648,-124.74377815748657zM-27.532630283317125,-124.74377815748655L-86.77597499419838,-132.37385665928048L-81.77810700491221,-124.74377815748653z" style="fill:rgb(127,0,127)"/><path d="M26.986763303891,128.2262798877216L86.77821191520248,136.05666517449868L81.78009367203747,128.2262798877216zM-27.53329914413394,128.22627988772163L86.77821191520248,136.05666517449868L26.986763303891,128.2262798877216zM-86.77821191520238,136.05666517449876L-27.53329914413394,128.22627988772163L-81.78009367203737,128.22627988772163z" style="fill:rgb(127,254,127)"/><path d="M83.52771624314562,-127.41484827454505L86.86879702087147,-130.75591495430962L83.52768944314565,-130.75591495430962zM-86.86882489287153,-127.414848274545L-83.52768944314573,-130.75591495430956L-86.86879702087155,-130.75591495430956zM86.86879702087147,-130.75591495430962L83.52771624314562,-127.41484827454505L86.86882489287143,-127.41484827454505zM-83.52768944314573,-130.75591495430956L-86.86882489287153,-127.414848274545L-83.5277162431457,-127.414848274545zM83.52981562991505,134.30870361067187L86.87098038171058,130.96746897999188L83.52978882856787,130.96746897999188zM-86.87100825511155,134.30870361067193L-83.52978882856777,130.96746897999193L-86.87098038171048,130.96746897999193zM86.87098038171058,130.96746897999188L83.52981562991505,134.30870361067187L86.87100825511163,134.30870361067187zM-83.52978882856777,130.96746897999193L-86.87100825511155,134.30870361067193L-83.52981562991495,134.30870361067193z" style="fill:rgb(127,127,254)"/><path d="M-83.5275777766643,-144.67700304253813L-86.77833244223766,150.51990947954323L-83.52768944314573,-130.75591495430956zM-83.52768944314573,-130.75591495430956L-86.77833244223766,150.51990947954323L-83.5277162431457,-127.414848274545zM-83.5277162431457,-127.414848274545L-86.77833244223766,150.51990947954323L-83.52978882856777,130.96746897999193zM-83.52978882856777,130.96746897999193L-86.77833244223766,150.51990947954323L-83.52981562991495,134.30870361067193zM-83.52981562991495,134.30870361067193L-86.77833244223766,150.51990947954323L-83.52990050096112,144.8892940865108z" style="fill:rgb(255,127,127)"/><path d="M-86.77597499419838,-132.37385665928048L-27.532630283317125,-124.74377815748655L86.77597499419828,-132.37385665928053z" style="fill:rgb(127,0,127)"/><path d="M-27.53329914413394,128.22627988772163L-86.77821191520238,136.05666517449876L86.77821191520248,136.05666517449868z" style="fill:rgb(127,254,127)"/><path d="M-86.77833244223766,150.51990947954323L-83.5275777766643,-144.67700304253813L-86.77582554884454,-150.30729920913532z" style="fill:rgb(255,127,127)"/><path d="M83.30490822648086,-135.84485036065254L86.77582554884444,-150.30729920913538L83.30479252689067,-150.30729920913538zM86.77582554884444,-150.30729920913538L83.30490822648086,-135.84485036065254L86.7759460692509,-135.84485036065254zM-86.77597499419838,-132.37385665928048L86.7759460692509,-135.84485036065254L-86.775946069251,-135.84485036065246zM86.7759460692509,-135.84485036065254L-86.77597499419838,-132.37385665928048L86.77597499419828,-132.37385665928053zM-90.24946573992715,150.51990947954323L-86.77582554884454,-150.30729920913532L-90.24685857079831,-150.30729920913532zM83.30708343859436,136.05666517449868L86.77597499419828,-132.37385665928053L83.30493599443035,-132.37385665928053zM86.77597499419828,-132.37385665928053L83.30708343859436,136.05666517449868L86.77821191520248,136.05666517449868zM-86.77582554884454,-150.30729920913532L-90.24946573992715,150.51990947954323L-86.77833244223766,150.51990947954323zM-86.7782408416603,139.52784014363849L86.77821191520248,136.05666517449868L-86.77821191520238,136.05666517449876zM86.77821191520248,136.05666517449868L-86.7782408416603,139.52784014363849L86.7782408416604,139.52784014363843zM83.30719914454824,150.51990947954317L86.7782408416604,139.52784014363843L83.30711120799397,139.52784014363843zM86.7782408416604,139.52784014363843L83.30719914454824,150.51990947954317L86.77833244223774,150.51990947954317z" style="fill:rgb(127,127,254)"/></svg>
