<?xml version="1.0" encoding="UTF-8"?>
<!-- Generated by jsxcad -->
<!DOCTYPE svg PUBLIC "-//W3C//DTD SVG 1.1 Tiny//EN" "http://www.w3.org/Graphics/SVG/1.1/DTD/svg11-tiny.dtd">
<svg viewBox="-250 -250 500 500" width="500" height="500" xmlns="http://www.w3.org/2000/svg"><path d="M50.74506446865731,-214.19277742795606L-59.69666807736679,-54.78754545170239L95.82358177866853,-97.55372492504696z" style="fill:rgb(127,37,217)"/><path d="M95.605454688879,-99.70160395823353L50.74506446865731,-214.19277742795606L95.82358177866853,-97.55372492504696z" style="fill:rgb(247,158,158)"/><path d="M-41.32256267657254,-13.541147113530293L133.4312071530114,182.8071478710051L107.74445780056979,-52.809584791256555z" style="fill:rgb(83,212,212)"/><path d="M-59.69666807736679,-54.78754545170239L50.74506446865731,-214.19277742795606L-118.18480967483227,-162.41896465384343z" style="fill:rgb(127,37,217)"/><path d="M107.74445780056979,-52.809584791256555L134.4690749930597,185.02071017154017L108.63643747574002,-50.53057344231229zM50.74506446865731,-214.19277742795606L95.605454688879,-99.70160395823353L50.61775269013922,-216.2674105874366z" style="fill:rgb(247,158,158)"/><path d="M50.74506446865731,-214.19277742795606L-117.90049732949556,-164.53281622656377L-118.18480967483227,-162.41896465384343zM-59.2901329066069,-46.374216461624904L117.19351339480832,148.17511496626008L93.9036220772497,-88.17309471565251zM-117.90049732949556,-164.53281622656377L50.74506446865731,-214.19277742795606L50.61775269013922,-216.2674105874366z" style="fill:rgb(83,212,212)"/><path d="M93.9036220772497,-88.17309471565251L118.31666651500586,150.57058453752742L94.85411655205107,-85.74457915600055zM51.15247767251118,-207.55371474709457L138.3954309379063,184.21636818011743L111.78833895335917,-51.35896398332887z" style="fill:rgb(247,158,158)"/><path d="M133.4312071530114,182.8071478710051L-41.32256267657254,-13.541147113530293L-50.739976974383815,220.6433773100302z" style="fill:rgb(83,212,212)"/><path d="M-150.8670958811648,80.57208386419205L-40.16320664115185,-11.422598648848613L-119.09424853486699,-155.65733541016854zM134.4690749930597,185.02071017154017L107.74445780056979,-52.809584791256555L133.4312071530114,182.8071478710051z" style="fill:rgb(247,158,158)"/><path d="M117.19351339480832,148.17511496626008L-59.2901329066069,-46.374216461624904L-73.32236487036278,189.05209422259458z" style="fill:rgb(83,212,212)"/><path d="M-40.16320664115185,-11.422598648848613L-150.8670958811648,80.57208386419205L-49.29384548748196,222.66640302495898z" style="fill:rgb(247,158,158)"/><path d="M-154.96345926205638,81.5825606502417L-119.09424853486699,-155.65733541016854L-122.35500589439438,-154.66336860064118z" style="fill:rgb(83,212,212)"/><path d="M-49.29384548748196,222.66640302495898L133.4312071530114,182.8071478710051L-50.739976974383815,220.6433773100302z" style="fill:rgb(127,37,217)"/><path d="M118.31666651500586,150.57058453752742L93.9036220772497,-88.17309471565251L117.19351339480832,148.17511496626008z" style="fill:rgb(247,158,158)"/><path d="M133.4312071530114,182.8071478710051L-49.29384548748196,222.66640302495898L134.4690749930597,185.02071017154017zM-71.76293828275146,191.23361882898737L117.19351339480832,148.17511496626008L-73.32236487036278,189.05209422259458z" style="fill:rgb(127,37,217)"/><path d="M47.603023384914664,-206.4717256287994L65.55747630767326,27.18513399282203L51.15247767251118,-207.55371474709457z" style="fill:rgb(83,212,212)"/><path d="M-150.8670958811648,80.57208386419205L-52.87606166097373,223.40026466887036L-49.29384548748196,222.66640302495898zM117.19351339480832,148.17511496626008L-71.76293828275146,191.23361882898737L118.31666651500586,150.57058453752742z" style="fill:rgb(127,37,217)"/><path d="M138.3954309379063,184.21636818011743L51.15247767251118,-207.55371474709457L65.55747630767326,27.18513399282203z" style="fill:rgb(247,158,158)"/><path d="M-119.09424853486699,-155.65733541016854L-154.96345926205638,81.5825606502417L-150.8670958811648,80.57208386419205z" style="fill:rgb(83,212,212)"/><path d="M65.55747630767326,27.18513399282203L134.4690749930597,185.02071017154017L138.3954309379063,184.21636818011743zM-52.87606166097373,223.40026466887036L-150.8670958811648,80.57208386419205L-154.96345926205638,81.5825606502417zM65.7711891490917,30.66771802182205L-74.57042410657783,190.96183996442963L120.87335946980336,149.10833101923416z" style="fill:rgb(127,37,217)"/><path d="M65.55747630767326,27.18513399282203L120.87335946980336,149.10833101923416L120.52648751473733,145.6927365003858z" style="fill:rgb(247,158,158)"/><path d="M65.55747630767326,27.18513399282203L47.603023384914664,-206.4717256287994L60.9935846394253,28.310938126299845z" style="fill:rgb(83,212,212)"/><path d="M-74.57042410657783,190.96183996442963L65.7711891490917,30.66771802182205L-151.33294708455168,84.03565684413405zM134.4690749930597,185.02071017154017L65.55747630767326,27.18513399282203L60.9935846394253,28.310938126299845z" style="fill:rgb(127,37,217)"/><path d="M120.87335946980336,149.10833101923416L65.55747630767326,27.18513399282203L65.7711891490917,30.66771802182205z" style="fill:rgb(247,158,158)"/><path d="M65.7711891490917,30.66771802182205L-150.8670958811648,80.57208386419205L-151.33294708455168,84.03565684413405zM-150.8670958811648,80.57208386419205L65.7711891490917,30.66771802182205L65.55747630767326,27.18513399282203z" style="fill:rgb(83,212,212)"/></svg>
