<?xml version="1.0" encoding="UTF-8"?>
<!-- Generated by jsxcad -->
<!DOCTYPE svg PUBLIC "-//W3C//DTD SVG 1.1 Tiny//EN" "http://www.w3.org/Graphics/SVG/1.1/DTD/svg11-tiny.dtd">
<svg viewBox="-250 -250 500 500" width="500" height="500" xmlns="http://www.w3.org/2000/svg"><path d="M-70.92467412950614,-54.333617850482966L-43.517256905722284,-15.226182601784023L-70.23420156520409,-63.940232641071624zM-43.517256905722284,-15.226182601784023L-70.92467412950614,-54.333617850482966L-71.09241183773075,-51.99985955676053z" style="fill:rgb(247,158,158)"/><path d="M-74.12963043436794,-53.45017169827444L-71.09241183773075,-51.99985955676053L-70.92467412950614,-54.333617850482966zM-71.09241183773075,-51.99985955676053L-74.12963043436794,-53.45017169827444L-74.30480686464914,-51.116207594652835z" style="fill:rgb(83,212,212)"/><path d="M-70.23420156520409,-63.940232641071624L-84.68466215876377,-79.17642226171571L-70.92467412950614,-54.333617850482966z" style="fill:rgb(247,158,158)"/><path d="M-84.68466215876377,-79.17642226171571L-74.12963043436794,-53.45017169827444L-70.92467412950614,-54.333617850482966z" style="fill:rgb(127,37,217)"/><path d="M-84.68466215876377,-79.17642226171571L-70.23420156520409,-63.940232641071624L-83.8417300855426,-88.75136828007828z" style="fill:rgb(247,158,158)"/><path d="M-74.12963043436794,-53.45017169827444L-84.68466215876377,-79.17642226171571L-87.95087005379224,-78.25248481948545z" style="fill:rgb(127,37,217)"/><path d="M99.92592276562476,-99.04271115616626L118.72361952284228,-58.056707159433465L98.66840209954573,-110.89827762430991zM-83.8417300855426,-88.75136828007828L-106.29860834457047,-115.40956551108222L-84.68466215876377,-79.17642226171571zM-106.29860834457047,-115.40956551108222L-83.8417300855426,-88.75136828007828L-104.94193965364863,-127.22419683002859z" style="fill:rgb(247,158,158)"/><path d="M96.19421808616097,-100.40000238140108L99.92592276562476,-99.04271115616626L99.68003587068763,-101.36086485545769zM99.92592276562476,-99.04271115616626L96.19421808616097,-100.40000238140108L96.43130631287387,-98.08143420000923z" style="fill:rgb(83,212,212)"/><path d="M98.66840209954573,-110.89827762430991L89.35301447689208,-128.40790381351673L99.68003587068763,-101.36086485545769z" style="fill:rgb(247,158,158)"/><path d="M89.35301447689208,-128.40790381351673L96.19421808616097,-100.40000238140108L99.68003587068763,-101.36086485545769z" style="fill:rgb(127,37,217)"/><path d="M89.35301447689208,-128.40790381351673L98.66840209954573,-110.89827762430991L88.42494937902512,-137.88774450696647z" style="fill:rgb(247,158,158)"/><path d="M-44.735988411910476,-17.448340880233815L143.42461315330254,188.40388086231985L114.49639952107098,-59.58586928543126zM-109.39353517662778,-116.73149592185295L-106.29860834457047,-115.40956551108222L-106.03329619464728,-117.7200506005847z" style="fill:rgb(83,212,212)"/><path d="M96.19421808616097,-100.40000238140108L89.35301447689208,-128.40790381351673L85.79367136199716,-127.40104486224888z" style="fill:rgb(127,37,217)"/><path d="M-106.29860834457047,-115.40956551108222L-109.39353517662778,-116.73149592185295L-109.6670211796257,-114.42051462084066z" style="fill:rgb(83,212,212)"/><path d="M-104.94193965364863,-127.22419683002859L-121.45133091279138,-145.55635426031338L-106.03329619464728,-117.7200506005847zM-43.517256905722284,-15.226182601784023L-71.09241183773075,-51.99985955676053L-88.06729161159504,184.17358535649328z" style="fill:rgb(247,158,158)"/><path d="M-121.45133091279138,-145.55635426031338L-109.39353517662778,-116.73149592185295L-106.03329619464728,-117.7200506005847z" style="fill:rgb(127,37,217)"/><path d="M-121.45133091279138,-145.55635426031338L-104.94193965364863,-127.22419683002859L-120.17158166379346,-154.9929958284073zM143.42461315330254,188.40388086231985L115.41612109019746,-57.18355072436829L114.49639952107098,-59.58586928543126z" style="fill:rgb(247,158,158)"/><path d="M-109.39353517662778,-116.73149592185295L-121.45133091279138,-145.55635426031338L-124.87872266697471,-144.51977526364527z" style="fill:rgb(127,37,217)"/><path d="M-63.65203278393015,-51.93870740696004L126.60280288462805,151.85264286208812L100.20160251431028,-96.92401844068678z" style="fill:rgb(83,212,212)"/><path d="M-105.7324301034666,159.90695171102263L-71.09241183773075,-51.99985955676053L-84.88949438523858,-76.84971558938702z" style="fill:rgb(247,158,158)"/><path d="M69.61786868436434,-169.395287079006L73.48251452116409,-168.19793165615584L73.290762165158,-170.47581246504782zM73.48251452116409,-168.19793165615584L69.61786868436434,-169.395287079006L69.79984858895699,-167.11661749377262z" style="fill:rgb(83,212,212)"/><path d="M126.60280288462805,151.85264286208812L101.1846830879386,-94.3562011535171L100.20160251431028,-96.92401844068678zM72.50245046706621,-179.84038624109317L61.66030444932123,-200.93663268471218L73.290762165158,-170.47581246504782zM118.72361952284228,-58.056707159433465L99.92592276562476,-99.04271115616626L125.07012998117384,138.0099147869199z" style="fill:rgb(247,158,158)"/><path d="M61.66030444932123,-200.93663268471218L69.61786868436434,-169.395287079006L73.290762165158,-170.47581246504782z" style="fill:rgb(127,37,217)"/><path d="M61.66030444932123,-200.93663268471218L72.50245046706621,-179.84038624109317L60.980604705546476,-210.19818812411017z" style="fill:rgb(247,158,158)"/><path d="M143.42461315330254,188.40388086231985L-44.735988411910476,-17.448340880233815L-55.50217939462262,228.9083270018667z" style="fill:rgb(83,212,212)"/><path d="M-43.517256905722284,-15.226182601784023L-88.06729161159504,184.17358535649328L-53.962895270298546,231.0228250610684z" style="fill:rgb(247,158,158)"/><path d="M69.61786868436434,-169.395287079006L61.66030444932123,-200.93663268471218L57.90581540609271,-199.80111688176382z" style="fill:rgb(127,37,217)"/><path d="M-84.68466215876377,-79.17642226171571L-133.52850648996036,121.72345138737336L-84.88949438523858,-76.84971558938702zM-133.52850648996036,121.72345138737336L-84.68466215876377,-79.17642226171571L-106.29860834457047,-115.40956551108222zM115.41612109019746,-57.18355072436829L143.42461315330254,188.40388086231985L144.49705872345962,190.73414250053517zM112.79255858736968,111.01859163097804L99.92592276562476,-99.04271115616626L89.57865639410244,-126.10305306548611z" style="fill:rgb(247,158,158)"/><path d="M126.60280288462805,151.85264286208812L-63.65203278393015,-51.93870740696004L-79.59444431087867,195.81272982807002z" style="fill:rgb(83,212,212)"/><path d="M-153.90283468507408,93.73521765072644L-106.29860834457047,-115.40956551108222L-121.76253667446723,-143.26157395977395zM-71.09241183773075,-51.99985955676053L-105.7324301034666,159.90695171102263L-88.06729161159504,184.17358535649328zM118.72361952284228,-58.056707159433465L125.07012998117384,138.0099147869199L148.66770206835926,189.88746470770624zM88.42494937902512,-137.88774450696647L93.39774787885653,68.38053014846058L89.35301447689208,-128.40790381351673zM-163.12191212493687,81.07095358960026L-120.17158166379346,-154.9929958284073L-126.99817279469136,-167.44019791986665z" style="fill:rgb(247,158,158)"/><path d="M-167.47532020494262,82.14766590013264L-126.99817279469136,-167.44019791986665L-130.41988728327584,-166.38475817375638z" style="fill:rgb(83,212,212)"/><path d="M93.39774787885653,68.38053014846058L88.42494937902512,-137.88774450696647L72.50245046706621,-179.84038624109317z" style="fill:rgb(247,158,158)"/><path d="M-53.962895270298546,231.0228250610684L143.42461315330254,188.40388086231985L-55.50217939462262,228.9083270018667z" style="fill:rgb(127,37,217)"/><path d="M101.1846830879386,-94.3562011535171L126.60280288462805,151.85264286208812L127.7689748635073,154.3865584339792zM-84.88949438523858,-76.84971558938702L-133.52850648996036,121.72345138737336L-105.7324301034666,159.90695171102263z" style="fill:rgb(247,158,158)"/><path d="M143.42461315330254,188.40388086231985L-53.962895270298546,231.0228250610684L144.49705872345962,190.73414250053517z" style="fill:rgb(127,37,217)"/><path d="M79.12207370901265,36.9965137095472L73.48251452116409,-168.19793165615584L61.825693095833564,-198.68305317435994zM99.92592276562476,-99.04271115616626L112.79255858736968,111.01859163097804L125.07012998117384,138.0099147869199zM72.64594179210388,22.759216627476402L60.980604705546476,-210.19818812411017L55.80799370871421,-223.82699289496423z" style="fill:rgb(247,158,158)"/><path d="M-77.92740906965867,198.10274806736214L126.60280288462805,151.85264286208812L-79.59444431087867,195.81272982807002zM-163.12191212493687,81.07095358960026L-57.74055757257303,231.78972408376274L-53.962895270298546,231.0228250610684z" style="fill:rgb(127,37,217)"/><path d="M52.059809631769895,-222.67085233986182L72.64594179210388,22.759216627476402L55.80799370871421,-223.82699289496423z" style="fill:rgb(83,212,212)"/><path d="M-106.29860834457047,-115.40956551108222L-153.90283468507408,93.73521765072644L-133.52850648996036,121.72345138737336z" style="fill:rgb(247,158,158)"/><path d="M126.60280288462805,151.85264286208812L-77.92740906965867,198.10274806736214L127.7689748635073,154.3865584339792z" style="fill:rgb(127,37,217)"/><path d="M89.35301447689208,-128.40790381351673L93.39774787885653,68.38053014846058L112.79255858736968,111.01859163097804zM-120.17158166379346,-154.9929958284073L-163.12191212493687,81.07095358960026L-153.90283468507408,93.73521765072644z" style="fill:rgb(247,158,158)"/><path d="M-126.99817279469136,-167.44019791986665L-167.47532020494262,82.14766590013264L-163.12191212493687,81.07095358960026z" style="fill:rgb(83,212,212)"/><path d="M72.64594179210388,22.759216627476402L144.49705872345962,190.73414250053517L148.66770206835926,189.88746470770624zM-57.74055757257303,231.78972408376274L-163.12191212493687,81.07095358960026L-167.47532020494262,82.14766590013264z" style="fill:rgb(127,37,217)"/><path d="M73.48251452116409,-168.19793165615584L79.12207370901265,36.9965137095472L93.39774787885653,68.38053014846058zM60.980604705546476,-210.19818812411017L72.64594179210388,22.759216627476402L79.12207370901265,36.9965137095472z" style="fill:rgb(247,158,158)"/><path d="M72.64594179210388,22.759216627476402L52.059809631769895,-222.67085233986182L67.74820850147354,23.970558307111414z" style="fill:rgb(83,212,212)"/><path d="M144.49705872345962,190.73414250053517L72.64594179210388,22.759216627476402L67.74820850147354,23.970558307111414z" style="fill:rgb(127,37,217)"/></svg>
