<?xml version="1.0" encoding="UTF-8"?>
<!-- Generated by jsxcad -->
<!DOCTYPE svg PUBLIC "-//W3C//DTD SVG 1.1 Tiny//EN" "http://www.w3.org/Graphics/SVG/1.1/DTD/svg11-tiny.dtd">
<svg viewBox="-250 -250 500 500" width="500" height="500" xmlns="http://www.w3.org/2000/svg"><path d="M-42.84501334651654,-16.548533381905045L111.6100937000286,-59.69926528362998L-42.750088515912516,-18.81850281468024zM111.6100937000286,-59.69926528362998L-42.84501334651654,-16.548533381905045L111.86749421377655,-57.43586070409866z" style="fill:rgb(83,212,212)"/><path d="M115.7935516342839,-58.18721427489486L108.09455778097745,-78.33352418022598L108.34808066923905,-76.07543111709576z" style="fill:rgb(247,158,158)"/><path d="M104.77299984870422,-77.43820424085352L108.34808066923905,-76.07543111709576L108.09455778097745,-78.33352418022598zM108.34808066923905,-76.07543111709576L104.77299984870422,-77.43820424085352L105.0185354985124,-75.17982254326891z" style="fill:rgb(83,212,212)"/><path d="M63.197239150698486,-194.05526967493893L-51.83880071739126,-32.98684773026573L108.34808066923905,-76.07543111709576z" style="fill:rgb(127,37,217)"/><path d="M108.09455778097745,-78.33352418022598L63.197239150698486,-194.05526967493893L108.34808066923905,-76.07543111709576z" style="fill:rgb(247,158,158)"/><path d="M-51.83880071739126,-32.98684773026573L63.197239150698486,-194.05526967493893L-111.26511491800342,-141.6027328229626z" style="fill:rgb(127,37,217)"/><path d="M-42.84501334651654,-16.548533381905045L139.41086550563423,184.7603798984245L111.86749421377655,-57.43586070409866z" style="fill:rgb(83,212,212)"/><path d="M111.6100937000286,-59.69926528362998L140.47901671005295,187.06761487091387L112.52566627205434,-57.32380179992749zM63.197239150698486,-194.05526967493893L108.09455778097745,-78.33352418022598L63.033794578262345,-196.2459942682867z" style="fill:rgb(247,158,158)"/><path d="M63.197239150698486,-194.05526967493893L-110.98953961637434,-143.83059941488332L-111.26511491800342,-141.6027328229626zM-127.16948561211075,-166.22731644536856L-124.09790650272731,-165.05773508410252L-123.78447038551194,-167.27041630053625zM-124.09790650272731,-165.05773508410252L-127.16948561211075,-166.22731644536856L-127.49121497317037,-164.0139112366745zM-110.98953961637434,-143.83059941488332L63.197239150698486,-194.05526967493893L63.033794578262345,-196.2459942682867zM-61.54512744388536,-50.727494732258165L122.66718943783044,148.59326481284631L97.61772660537174,-94.35348924945943z" style="fill:rgb(83,212,212)"/><path d="M97.61772660537174,-94.35348924945943L123.82729284887789,151.0991304802319L98.59743207009437,-91.8153247083619z" style="fill:rgb(247,158,158)"/><path d="M139.41086550563423,184.7603798984245L-42.84501334651654,-16.548533381905045L-52.90939268069825,224.12457792404484zM49.56059060574879,-220.68761708868567L53.39886454804977,-219.65855809029912L53.25790697142539,-221.82697275007257zM53.39886454804977,-219.65855809029912L49.56059060574879,-220.68761708868567L49.69164383602324,-218.5181699012677z" style="fill:rgb(83,212,212)"/><path d="M-158.47365029414877,77.61500063233518L-41.547799438386,-16.615956160243677L-123.78447038551194,-167.27041630053625zM140.47901671005295,187.06761487091387L111.6100937000286,-59.69926528362998L139.41086550563423,184.7603798984245zM108.34808066923905,-76.07543111709576L69.05624359928223,21.20576713007103L115.7935516342839,-58.18721427489486z" style="fill:rgb(247,158,158)"/><path d="M122.66718943783044,148.59326481284631L-61.54512744388536,-50.727494732258165L-76.5833140245707,191.26822857187364z" style="fill:rgb(83,212,212)"/><path d="M-41.547799438386,-16.615956160243677L-158.47365029414877,77.61500063233518L-51.39601550593499,226.22495234359985z" style="fill:rgb(247,158,158)"/><path d="M-162.76791850378274,78.67963430434479L-124.09790650272731,-165.05773508410252L-127.49121497317037,-164.0139112366745z" style="fill:rgb(83,212,212)"/><path d="M-51.39601550593499,226.22495234359985L139.41086550563423,184.7603798984245L-52.90939268069825,224.12457792404484z" style="fill:rgb(127,37,217)"/><path d="M63.197239150698486,-194.05526967493893L69.05624359928223,21.20576713007103L108.34808066923905,-76.07543111709576zM123.82729284887789,151.0991304802319L97.61772660537174,-94.35348924945943L122.66718943783044,148.59326481284631z" style="fill:rgb(247,158,158)"/><path d="M139.41086550563423,184.7603798984245L-51.39601550593499,226.22495234359985L140.47901671005295,187.06761487091387z" style="fill:rgb(127,37,217)"/><path d="M115.7935516342839,-58.18721427489486L69.05624359928223,21.20576713007103L144.58692526223308,186.22929671126187zM63.033794578262345,-196.2459942682867L69.05624359928223,21.20576713007103L63.197239150698486,-194.05526967493893zM69.05624359928223,21.20576713007103L63.033794578262345,-196.2459942682867L53.25790697142539,-221.82697275007257z" style="fill:rgb(247,158,158)"/><path d="M-74.9460035666723,193.5405925739662L122.66718943783044,148.59326481284631L-76.5833140245707,191.26822857187364zM-158.47365029414877,77.61500063233518L-55.12889069474503,226.98673478474012L-51.39601550593499,226.22495234359985z" style="fill:rgb(127,37,217)"/><path d="M64.24497555747855,22.39857855092852L53.39886454804977,-219.65855809029912L49.69164383602324,-218.5181699012677z" style="fill:rgb(83,212,212)"/><path d="M122.66718943783044,148.59326481284631L-74.9460035666723,193.5405925739662L123.82729284887789,151.0991304802319z" style="fill:rgb(127,37,217)"/><path d="M-124.09790650272731,-165.05773508410252L-162.76791850378274,78.67963430434479L-158.47365029414877,77.61500063233518z" style="fill:rgb(83,212,212)"/><path d="M81.51577383612265,51.47640501043856L-64.43038813355655,211.88678170106874L135.9902994138995,170.12996211129743zM69.05624359928223,21.20576713007103L140.47901671005295,187.06761487091387L144.58692526223308,186.22929671126187zM-55.12889069474503,226.98673478474012L-158.47365029414877,77.61500063233518L-162.76791850378274,78.67963430434479z" style="fill:rgb(127,37,217)"/><path d="M135.59115375659408,166.57482732200816L81.51577383612265,51.47640501043856L135.9902994138995,170.12996211129743z" style="fill:rgb(247,158,158)"/><path d="M-64.43038813355655,211.88678170106874L81.51577383612265,51.47640501043856L-141.77222073077257,105.02953594231698z" style="fill:rgb(127,37,217)"/><path d="M53.39886454804977,-219.65855809029912L64.24497555747855,22.39857855092852L69.05624359928223,21.20576713007103z" style="fill:rgb(83,212,212)"/><path d="M81.51577383612265,51.47640501043856L135.59115375659408,166.57482732200816L81.24404699495398,47.834329319736455z" style="fill:rgb(247,158,158)"/><path d="M81.51577383612265,51.47640501043856L-141.3251155398405,101.41494961305075L-141.77222073077257,105.02953594231698z" style="fill:rgb(83,212,212)"/><path d="M140.47901671005295,187.06761487091387L69.05624359928223,21.20576713007103L64.24497555747855,22.39857855092852z" style="fill:rgb(127,37,217)"/><path d="M-141.3251155398405,101.41494961305075L81.51577383612265,51.47640501043856L81.24404699495398,47.834329319736455z" style="fill:rgb(83,212,212)"/></svg>
