<?xml version="1.0" encoding="UTF-8"?>
<!-- Generated by jsxcad -->
<!DOCTYPE svg PUBLIC "-//W3C//DTD SVG 1.1 Tiny//EN" "http://www.w3.org/Graphics/SVG/1.1/DTD/svg11-tiny.dtd">
<svg viewBox="-250 -250 500 500" width="500" height="500" xmlns="http://www.w3.org/2000/svg"><path d="M18.503782941964733,147.5302802089393L16.30120507184124,6.040967532004328L-106.64679451601546,37.376962848919334zM-1.826213216447987,19.061069711572713L-1.741865355458033,-29.90567967720384L-128.26006719821575,3.608499444075621z" style="fill:rgb(83,212,212)"/><path d="M18.503782941964733,147.5302802089393L17.461126581253517,8.35184167037535L16.30120507184124,6.040967532004328z" style="fill:rgb(247,158,158)"/><path d="M-1.826213216447987,19.061069711572713L-128.26006719821575,3.608499444075621L-134.26754371437056,52.54159591515356zM49.64694879815083,-2.4579260347651526L16.30120507184124,6.040967532004328L18.503782941964733,147.5302802089393z" style="fill:rgb(83,212,212)"/><path d="M-124.34180095912768,52.75061833107618L-129.24832713629672,51.27276037682369L-127.6885694545859,53.59434844583163zM-124.34180095912768,52.75061833107618L-125.89502130577415,50.42505801864022L-129.24832713629672,51.27276037682369z" style="fill:rgb(127,37,217)"/><path d="M57.64364558419856,141.49837897021143L50.741344009320606,-0.10900598945963408L49.64694879815083,-2.4579260347651526zM-143.02934299858373,134.44953020587795L-120.25063866676498,1.4868321595187257L-125.78492348825954,-7.283325322479113z" style="fill:rgb(247,158,158)"/><path d="M-146.68577740255864,135.29920745962258L-125.78492348825954,-7.283325322479113L-129.0150882722904,-6.41923401248656z" style="fill:rgb(83,212,212)"/><path d="M-133.4197703072893,86.52923640765454L-127.6885694545859,53.59434844583163L-129.24832713629672,51.27276037682369z" style="fill:rgb(247,158,158)"/><path d="M-133.4197703072893,86.52923640765454L-129.24832713629672,51.27276037682369L-134.26754371437056,52.54159591515356z" style="fill:rgb(83,212,212)"/><path d="M-124.34180095912768,52.75061833107618L-125.89502130577415,50.42505801864022L-129.9618289580739,85.6853115346049z" style="fill:rgb(247,158,158)"/><path d="M-125.89502130577415,50.42505801864022L-129.24832713629672,51.27276037682369L-133.4197703072893,86.52923640765454z" style="fill:rgb(83,212,212)"/><path d="M-143.02934299858373,134.44953020587795L-125.78492348825954,-7.283325322479113L-135.93394379057432,-23.36642715361827z" style="fill:rgb(247,158,158)"/><path d="M-102.95082302856761,43.15153098400921L184.8881552957942,-29.720304497808435L128.27401643431637,-202.42409503971106z" style="fill:rgb(127,37,217)"/><path d="M18.503782941964733,147.5302802089393L-106.64679451601546,37.376962848919334L-120.56366764426748,178.1149899107076z" style="fill:rgb(83,212,212)"/><path d="M-133.4197703072893,86.52923640765454L-131.79969992687737,88.84025935308888L-127.6885694545859,53.59434844583163z" style="fill:rgb(247,158,158)"/><path d="M-133.4197703072893,86.52923640765454L-134.26754371437056,52.54159591515356L-138.59524882637572,87.79233827611971z" style="fill:rgb(83,212,212)"/><path d="M-124.34180095912768,52.75061833107618L-129.9618289580739,85.6853115346049L-128.34870566459696,88.00040613046116z" style="fill:rgb(247,158,158)"/><path d="M-125.89502130577415,50.42505801864022L-133.4197703072893,86.52923640765454L-129.9618289580739,85.6853115346049zM-154.89537116659466,118.59956983171197L-135.93394379057432,-23.36642715361827L-139.20511974355594,-22.47564250524827zM208.5490360640077,105.73418334949737L182.70785114935754,-36.37141571282798L49.64694879815083,-2.4579260347651526z" style="fill:rgb(83,212,212)"/><path d="M-1.9865397829356064,112.13599781505769L-0.5001106241988957,-27.43177030275177L-1.741865355458033,-29.90567967720384z" style="fill:rgb(247,158,158)"/><path d="M-129.9618289580739,85.6853115346049L-131.79969992687737,88.84025935308888L-128.34870566459696,88.00040613046116zM-129.9618289580739,85.6853115346049L-133.4197703072893,86.52923640765454L-131.79969992687737,88.84025935308888z" style="fill:rgb(127,37,217)"/><path d="M178.5160318845797,-26.52857047719359L169.92092577515595,-75.37848161740912L32.61802056973397,-39.007476347405024zM-1.887134792309678,54.428079293288874L-1.826213216447987,19.061069711572713L-125.89502130577415,50.42505801864022zM-1.887134792309678,54.428079293288874L-125.89502130577415,50.42505801864022L-129.9618289580739,85.6853115346049zM32.61802056973397,-39.007476347405024L-1.741865355458033,-29.90567967720384L-1.9865397829356064,112.13599781505769z" style="fill:rgb(83,212,212)"/><path d="M127.90820418351528,-204.81585993474152L184.8881552957942,-29.720304497808435L184.43391316337244,-32.20514961251776zM18.503782941964733,147.5302802089393L19.814455419078342,149.79429489051324L17.461126581253517,8.35184167037535zM183.52863204278103,-33.86759285169384L182.70785114935754,-36.37141571282798L208.5490360640077,105.73418334949737z" style="fill:rgb(247,158,158)"/><path d="M178.5160318845797,-26.52857047719359L32.61802056973397,-39.007476347405024L34.21158453236444,9.950890701980823z" style="fill:rgb(83,212,212)"/><path d="M38.570009732303504,105.61527368255376L33.7902911326263,-36.49140903934961L32.61802056973397,-39.007476347405024z" style="fill:rgb(247,158,158)"/><path d="M-102.95082302856761,43.15153098400921L128.27401643431637,-202.42409503971106L-197.9200453741697,-105.22789049581326z" style="fill:rgb(127,37,217)"/><path d="M-177.69188322849587,-41.70310249482155L-171.00184048093496,-78.90925620137702L-171.09251093405425,-78.8207359009611zM-177.656611047605,-42.77208932361552L-171.09251093405425,-78.8207359009611L-171.2730788145165,-78.64446668083522z" style="fill:rgb(247,158,158)"/><path d="M49.64694879815083,-2.4579260347651526L18.503782941964733,147.5302802089393L56.41768648420132,139.1919892764703z" style="fill:rgb(83,212,212)"/><path d="M-177.68478513236536,-43.90694519309527L-171.2730788145165,-78.64446668083522L-171.54195730685583,-78.3819712931762zM-177.7760261509879,-45.09628354220171L-171.54195730685583,-78.3819712931762L-171.896818958863,-78.03553667644447zM-177.92933367037787,-46.32823465886335L-171.896818958863,-78.03553667644447L-172.33455237251334,-77.60820160887005zM-178.14312189666126,-47.59055691581139L-172.33455237251334,-77.60820160887005L-172.8512938037892,-77.1037366685744zM57.64364558419856,141.49837897021143L49.64694879815083,-2.4579260347651526L56.41768648420132,139.1919892764703zM-143.02934299858373,134.44953020587795L-136.579766346371,143.06450989822665L-120.25063866676498,1.4868321595187257zM-178.41523155447254,-48.87074452505813L-172.8512938037892,-77.1037366685744L-173.44243963423472,-76.52664056323023zM-178.74294455437547,-50.1561293298346L-173.44243963423472,-76.52664056323023L-174.10266251498564,-75.88210436997686zM-179.12301702033722,-51.43400136602036L-174.10266251498564,-75.88210436997686L-174.8259430122201,-75.1760064183449zM-179.55171298503242,-52.691719710836715L-174.8259430122201,-75.1760064183449L-175.60560930146445,-74.41486344363926z" style="fill:rgb(247,158,158)"/><path d="M-146.68577740255864,135.29920745962258L-143.02934299858373,134.44953020587795L-125.78492348825954,-7.283325322479113z" style="fill:rgb(83,212,212)"/><path d="M-180.0248190124719,-53.91681961783035L-175.60560930146445,-74.41486344363926L-176.4343557793809,-73.60579977269042zM-188.66249345185625,-61.66817933800655L-170.99048196048622,-78.920336164035L-182.58541558565918,-97.29474959729698z" style="fill:rgb(247,158,158)"/><path d="M19.814455419078342,149.79429489051324L-120.56366764426748,178.1149899107076L-118.95756248524775,180.22690975088287z" style="fill:rgb(127,37,217)"/><path d="M-180.53769875967103,-55.09713151937884L-176.4343557793809,-73.60579977269042L-177.3043117192304,-72.75650878245354zM-177.7760261509879,-45.09628354220171L-177.68478513236536,-43.90694519309527L-171.54195730685583,-78.3819712931762zM-177.92933367037787,-46.32823465886335L-177.7760261509879,-45.09628354220171L-171.896818958863,-78.03553667644447zM-177.68478513236536,-43.90694519309527L-177.656611047605,-42.77208932361552L-171.2730788145165,-78.64446668083522zM-178.14312189666126,-47.59055691581139L-177.92933367037787,-46.32823465886335L-172.33455237251334,-77.60820160887005zM-177.656611047605,-42.77208932361552L-177.69188322849587,-41.70310249482155L-171.09251093405425,-78.8207359009611zM-178.41523155447254,-48.87074452505813L-178.14312189666126,-47.59055691581139L-172.8512938037892,-77.1037366685744zM-181.08533004902975,-56.22087343133825L-177.3043117192304,-72.75650878245354L-178.2070914913657,-71.8751804967697zM-177.69188322849587,-41.70310249482155L-177.79040805283447,-40.71077453803698L-171.00184048093496,-78.90925620137702zM-178.74294455437547,-50.1561293298346L-178.41523155447254,-48.87074452505813L-173.44243963423472,-76.52664056323023zM-179.12301702033722,-51.43400136602036L-178.74294455437547,-50.1561293298346L-174.10266251498564,-75.88210436997686zM-179.55171298503242,-52.691719710836715L-179.12301702033722,-51.43400136602036L-174.8259430122201,-75.1760064183449zM-181.66232135901348,-57.27677655950549L-178.2070914913657,-71.8751804967697L-179.1338343615413,-70.9704607051939zM-180.0248190124719,-53.91681961783035L-179.55171298503242,-52.691719710836715L-175.60560930146445,-74.41486344363926z" style="fill:rgb(247,158,158)"/><path d="M208.5490360640077,105.73418334949737L49.64694879815083,-2.4579260347651526L56.41768648420132,139.1919892764703z" style="fill:rgb(83,212,212)"/><path d="M-180.53769875967103,-55.09713151937884L-180.0248190124719,-53.91681961783035L-176.4343557793809,-73.60579977269042zM-182.2629917604321,-58.25417080042484L-179.1338343615413,-70.9704607051939L-180.07530943665128,-70.05135989228162zM-181.08533004902975,-56.22087343133825L-180.53769875967103,-55.09713151937884L-177.3043117192304,-72.75650878245354zM-189.95402388505514,-59.15171374999882L-183.25001877794412,-93.39853076562929L-182.6591247882475,-96.86259933133272zM-182.88137329059896,-59.14311546259213L-180.07530943665128,-70.05135989228162L-181.0219513800491,-69.12720057068286zM-143.02934299858373,134.44953020587795L-135.93394379057432,-23.36642715361827L-154.89537116659466,118.59956983171197zM-196.2701934994792,63.333467680824526L-135.93394379057432,-23.36642715361827L-170.99048196048622,-78.920336164035zM-181.66232135901348,-57.27677655950549L-181.08533004902975,-56.22087343133825L-178.2070914913657,-71.8751804967697zM-182.2629917604321,-58.25417080042484L-181.66232135901348,-57.27677655950549L-179.1338343615413,-70.9704607051939zM-189.71697092456336,-59.95325026920325L-184.4380595165634,-86.43366236267462L-183.25001877794412,-93.39853076562929zM-183.5113543924821,-59.93446459200608L-181.0219513800491,-69.12720057068286L-181.9640424645744,-68.20749228421178z" style="fill:rgb(247,158,158)"/><path d="M-178.74294455437547,-50.1561293298346L-182.27005533847114,-49.1605837907554L-181.942666666848,-47.876368976802034z" style="fill:rgb(97,120,251)"/><path d="M-178.41523155447254,-48.87074452505813L-181.942666666848,-47.876368976802034L-181.6712715207908,-46.59721751234524z" style="fill:rgb(94,133,250)"/><path d="M-179.12301702033722,-51.43400136602036L-182.65019675035782,-50.43717305995403L-182.27005533847114,-49.1605837907554z" style="fill:rgb(100,108,250)"/><path d="M-182.88137329059896,-59.14311546259213L-182.2629917604321,-58.25417080042484L-180.07530943665128,-70.05135989228162z" style="fill:rgb(247,158,158)"/><path d="M-178.14312189666126,-47.59055691581139L-181.6712715207908,-46.59721751234524L-181.45858114132676,-45.33578767999215z" style="fill:rgb(91,145,248)"/><path d="M-179.55171298503242,-52.691719710836715L-183.0793542400092,-51.69350308485862L-182.65019675035782,-50.43717305995403z" style="fill:rgb(104,95,248)"/><path d="M-178.74294455437547,-50.1561293298346L-181.942666666848,-47.876368976802034L-178.41523155447254,-48.87074452505813z" style="fill:rgb(97,120,251)"/><path d="M-179.12301702033722,-51.43400136602036L-182.27005533847114,-49.1605837907554L-178.74294455437547,-50.1561293298346z" style="fill:rgb(100,108,250)"/><path d="M-178.41523155447254,-48.87074452505813L-181.6712715207908,-46.59721751234524L-178.14312189666126,-47.59055691581139z" style="fill:rgb(94,133,250)"/><path d="M-179.55171298503242,-52.691719710836715L-182.65019675035782,-50.43717305995403L-179.12301702033722,-51.43400136602036z" style="fill:rgb(104,95,248)"/><path d="M-177.92933367037787,-46.32823465886335L-181.45858114132676,-45.33578767999215L-181.30674426645652,-44.104586672985555z" style="fill:rgb(89,157,245)"/><path d="M-180.0248190124719,-53.91681961783035L-183.55330991905902,-52.917127378629985L-183.0793542400092,-51.69350308485862z" style="fill:rgb(108,83,245)"/><path d="M19.814455419078342,149.79429489051324L18.503782941964733,147.5302802089393L-120.56366764426748,178.1149899107076z" style="fill:rgb(127,37,217)"/><path d="M-178.14312189666126,-47.59055691581139L-181.45858114132676,-45.33578767999215L-177.92933367037787,-46.32823465886335z" style="fill:rgb(91,145,248)"/><path d="M-180.0248190124719,-53.91681961783035L-183.0793542400092,-51.69350308485862L-179.55171298503242,-52.691719710836715z" style="fill:rgb(108,83,245)"/><path d="M-177.7760261509879,-45.09628354220171L-181.30674426645652,-44.104586672985555L-181.21733251528812,-42.915843891757774z" style="fill:rgb(87,169,240)"/><path d="M-177.92933367037787,-46.32823465886335L-181.30674426645652,-44.104586672985555L-177.7760261509879,-45.09628354220171z" style="fill:rgb(89,157,245)"/><path d="M-180.53769875967103,-55.09713151937884L-184.06741946438163,-54.09588065320187L-183.55330991905902,-52.917127378629985zM-180.53769875967103,-55.09713151937884L-183.55330991905902,-52.917127378629985L-180.0248190124719,-53.91681961783035z" style="fill:rgb(112,72,241)"/><path d="M-184.1466273580482,-60.61998350011305L-181.9640424645744,-68.20749228421178L-182.89170491490546,-67.30187254992485z" style="fill:rgb(247,158,158)"/><path d="M-177.7760261509879,-45.09628354220171L-181.21733251528812,-42.915843891757774L-177.68478513236536,-43.90694519309527z" style="fill:rgb(87,169,240)"/><path d="M-177.68478513236536,-43.90694519309527L-181.21733251528812,-42.915843891757774L-181.1913286463521,-41.78142571235596z" style="fill:rgb(85,181,235)"/><path d="M-181.08533004902975,-56.22087343133825L-184.6166481679324,-55.218000776947235L-184.06741946438163,-54.09588065320187zM-181.08533004902975,-56.22087343133825L-184.06741946438163,-54.09588065320187L-180.53769875967103,-55.09713151937884z" style="fill:rgb(116,61,236)"/><path d="M-183.5113543924821,-59.93446459200608L-182.88137329059896,-59.14311546259213L-181.0219513800491,-69.12720057068286z" style="fill:rgb(247,158,158)"/><path d="M-177.68478513236536,-43.90694519309527L-181.1913286463521,-41.78142571235596L-177.656611047605,-42.77208932361552z" style="fill:rgb(85,181,235)"/><path d="M-177.656611047605,-42.77208932361552L-181.1913286463521,-41.78142571235596L-181.22909093709814,-40.712709315366254z" style="fill:rgb(84,192,228)"/><path d="M-181.66232135901348,-57.27677655950549L-185.19558973084366,-56.27222991683387L-184.6166481679324,-55.218000776947235zM-181.66232135901348,-57.27677655950549L-184.6166481679324,-55.218000776947235L-181.08533004902975,-56.22087343133825z" style="fill:rgb(120,51,229)"/><path d="M-154.89537116659466,118.59956983171197L-139.20511974355594,-22.47564250524827L-158.60433672969037,119.47918580771997z" style="fill:rgb(83,212,212)"/><path d="M-177.656611047605,-42.77208932361552L-181.22909093709814,-40.712709315366254L-177.69188322849587,-41.70310249482155z" style="fill:rgb(84,192,228)"/><path d="M-177.69188322849587,-41.70310249482155L-181.22909093709814,-40.712709315366254L-181.33040148467578,-39.72048414750077z" style="fill:rgb(84,202,220)"/><path d="M-182.2629917604321,-58.25417080042484L-185.79854408765183,-57.247929301565904L-185.19558973084366,-56.27222991683387zM-182.2629917604321,-58.25417080042484L-185.19558973084366,-56.27222991683387L-181.66232135901348,-57.27677655950549z" style="fill:rgb(125,41,221)"/><path d="M-184.1466273580482,-60.61998350011305L-183.5113543924821,-59.93446459200608L-181.9640424645744,-68.20749228421178z" style="fill:rgb(247,158,158)"/><path d="M-177.69188322849587,-41.70310249482155L-181.33040148467578,-39.72048414750077L-177.79040805283447,-40.71077453803698z" style="fill:rgb(84,202,220)"/><path d="M-184.78079865561122,-61.19244055153065L-182.89170491490546,-67.30187254992485L-183.7950610488848,-66.41997484283272z" style="fill:rgb(247,158,158)"/><path d="M-182.88137329059896,-59.14311546259213L-186.4195210936821,-58.135155027855646L-185.79854408765183,-57.247929301565904zM-182.88137329059896,-59.14311546259213L-185.79854408765183,-57.247929301565904L-182.2629917604321,-58.25417080042484z" style="fill:rgb(129,33,213)"/><path d="M-189.4204018159454,-60.644199060595476L-186.23586598589867,-75.89414220884987L-184.4380595165634,-86.43366236267462z" style="fill:rgb(247,158,158)"/><path d="M-183.5113543924821,-59.93446459200608L-186.4195210936821,-58.135155027855646L-182.88137329059896,-59.14311546259213zM-183.5113543924821,-59.93446459200608L-187.05238381547912,-58.92479332093056L-186.4195210936821,-58.135155027855646z" style="fill:rgb(134,25,203)"/><path d="M-184.78079865561122,-61.19244055153065L-184.1466273580482,-60.61998350011305L-182.89170491490546,-67.30187254992485zM-185.4074625042619,-61.64565892247093L-183.7950610488848,-66.41997484283272L-184.6643601952526,-65.57132179052249z" style="fill:rgb(247,158,158)"/><path d="M-184.1466273580482,-60.61998350011305L-187.05238381547912,-58.92479332093056L-183.5113543924821,-59.93446459200608zM-184.1466273580482,-60.61998350011305L-187.69079629362275,-59.60862680544728L-187.05238381547912,-58.92479332093056z" style="fill:rgb(138,18,193)"/><path d="M-185.4074625042619,-61.64565892247093L-184.78079865561122,-61.19244055153065L-183.7950610488848,-66.41997484283272z" style="fill:rgb(247,158,158)"/><path d="M169.72084807403442,-21.383186697050828L164.91838361613884,-23.09115279321614L165.85366608131773,-20.408262659316453z" style="fill:rgb(127,37,217)"/><path d="M-1.9865397829356064,112.13599781505769L-1.887134792309678,54.428079293288874L-138.59524882637572,87.79233827611971z" style="fill:rgb(83,212,212)"/><path d="M-184.78079865561122,-61.19244055153065L-187.69079629362275,-59.60862680544728L-184.1466273580482,-60.61998350011305zM-184.78079865561122,-61.19244055153065L-188.32833405752652,-60.17942605178448L-187.69079629362275,-59.60862680544728z" style="fill:rgb(142,13,182)"/><path d="M-186.02023864167913,-61.974633962562194L-184.6643601952526,-65.57132179052249L-185.49007330778412,-64.76523039065505z" style="fill:rgb(247,158,158)"/><path d="M169.72084807403442,-21.383186697050828L168.7944838331641,-24.071010166679436L164.91838361613884,-23.09115279321614z" style="fill:rgb(127,37,217)"/><path d="M-185.4074625042619,-61.64565892247093L-188.32833405752652,-60.17942605178448L-184.78079865561122,-61.19244055153065zM-185.4074625042619,-61.64565892247093L-188.9585581777902,-60.63105153440682L-188.32833405752652,-60.17942605178448z" style="fill:rgb(146,9,171)"/><path d="M-186.02023864167913,-61.974633962562194L-185.4074625042619,-61.64565892247093L-184.6643601952526,-65.57132179052249zM-1.9865397829356064,112.13599781505769L-0.5701746898494411,114.58258394554088L-0.5001106241988957,-27.43177030275177zM-189.95402388505514,-59.15171374999882L-189.71697092456336,-59.95325026920325L-183.25001877794412,-93.39853076562929zM194.9514016889136,66.88114333967061L170.80211285870146,-72.69038997478792L169.92092577515595,-75.37848161740912z" style="fill:rgb(247,158,158)"/><path d="M-186.02023864167913,-61.974633962562194L-188.9585581777902,-60.63105153440682L-185.4074625042619,-61.64565892247093z" style="fill:rgb(150,6,159)"/><path d="M170.65467691443152,12.318441858823096L164.91838361613884,-23.09115279321614L34.21158453236444,9.950890701980823z" style="fill:rgb(83,212,212)"/><path d="M-186.02023864167913,-61.974633962562194L-189.57505222592977,-60.958494978076864L-188.9585581777902,-60.63105153440682z" style="fill:rgb(150,6,159)"/><path d="M-186.6128310126244,-62.17555830556073L-185.49007330778412,-64.76523039065505L-186.26301252729417,-64.01064901026723z" style="fill:rgb(247,158,158)"/><path d="M170.65467691443152,12.318441858823096L34.21158453236444,9.950890701980823L35.36337738573157,45.33692014298598z" style="fill:rgb(83,212,212)"/><path d="M-186.6128310126244,-62.17555830556073L-186.02023864167913,-61.974633962562194L-185.49007330778412,-64.76523039065505zM-189.71697092456336,-59.95325026920325L-189.4204018159454,-60.644199060595476L-184.4380595165634,-86.43366236267462z" style="fill:rgb(247,158,158)"/><path d="M-186.6128310126244,-62.17555830556073L-189.57505222592977,-60.958494978076864L-186.02023864167913,-61.974633962562194zM-186.6128310126244,-62.17555830556073L-190.17148353914746,-61.15798559587621L-189.57505222592977,-60.958494978076864z" style="fill:rgb(154,4,146)"/><path d="M-187.1791132989443,-62.24591200825181L-186.6128310126244,-62.17555830556073L-186.26301252729417,-64.01064901026723zM-187.1791132989443,-62.24591200825181L-186.26301252729417,-64.01064901026723L-186.974473137933,-63.31609761833221z" style="fill:rgb(247,158,158)"/><path d="M-187.1791132989443,-62.24591200825181L-190.17148353914746,-61.15798559587621L-186.6128310126244,-62.17555830556073z" style="fill:rgb(157,3,134)"/><path d="M-1.9865397829356064,112.13599781505769L-138.59524882637572,87.79233827611971L-145.63647144921802,145.14567281988008z" style="fill:rgb(83,212,212)"/><path d="M-187.1791132989443,-62.24591200825181L-190.74168694055075,-61.22699867920958L-190.17148353914746,-61.15798559587621z" style="fill:rgb(157,3,134)"/><path d="M-189.06762694631647,-61.2177023137816L-188.66249345185625,-61.66817933800655L-186.23586598589867,-75.89414220884987z" style="fill:rgb(247,158,158)"/><path d="M-200.15922848830152,64.32152606321509L-170.99048196048622,-78.920336164035L-174.40129642560922,-77.93423151142223z" style="fill:rgb(83,212,212)"/><path d="M-187.71317491374768,-62.184478775773215L-187.1791132989443,-62.24591200825181L-186.974473137933,-63.31609761833221z" style="fill:rgb(247,158,158)"/><path d="M-187.71317491374768,-62.184478775773215L-190.74168694055075,-61.22699867920958L-187.1791132989443,-62.24591200825181zM-187.71317491374768,-62.184478775773215L-191.27971178540483,-61.16434754815142L-190.74168694055075,-61.22699867920958z" style="fill:rgb(160,4,121)"/><path d="M-189.4204018159454,-60.644199060595476L-189.06762694631647,-61.2177023137816L-186.23586598589867,-75.89414220884987zM-187.71317491374768,-62.184478775773215L-186.974473137933,-63.31609761833221L-187.61633861109453,-62.689482329072554zM-196.27890457264107,63.32183977115049L-170.99048196048622,-78.920336164035L-171.00184048093496,-78.90925620137702zM180.64324989119402,59.23476297396688L160.68524788529064,-72.93198873926877L157.29141036661113,-83.00819800660275zM-188.20939078247244,-61.99139928536791L-187.71317491374768,-62.184478775773215L-187.61633861109453,-62.689482329072554zM-188.20939078247244,-61.99139928536791L-187.61633861109453,-62.689482329072554L-188.181203512721,-62.13803655428512zM183.52863204278103,-33.86759285169384L208.5490360640077,105.73418334949737L209.41710424351535,108.21454537864754z" style="fill:rgb(247,158,158)"/><path d="M56.41768648420132,139.1919892764703L18.503782941964733,147.5302802089393L19.814455419078342,149.79429489051324z" style="fill:rgb(127,37,217)"/><path d="M-197.39960232979396,-107.68887066903501L-197.9200453741697,-105.22789049581326L128.27401643431637,-202.42409503971106z" style="fill:rgb(83,212,212)"/><path d="M-188.20939078247244,-61.99139928536791L-188.181203512721,-62.13803655428512L-188.66249345185625,-61.66817933800655z" style="fill:rgb(247,158,158)"/><path d="M32.61802056973397,-39.007476347405024L-1.9865397829356064,112.13599781505769L37.24421470963393,103.12106883810898zM176.35563049817728,60.2311200659852L157.29141036661113,-83.00819800660275L153.5781900263254,-82.01488762939812z" style="fill:rgb(83,212,212)"/><path d="M56.41768648420132,139.1919892764703L19.814455419078342,149.79429489051324L57.64364558419856,141.49837897021143z" style="fill:rgb(127,37,217)"/><path d="M38.570009732303504,105.61527368255376L32.61802056973397,-39.007476347405024L37.24421470963393,103.12106883810898zM170.65467691443152,12.318441858823096L165.85366608131773,-20.408262659316453L164.91838361613884,-23.09115279321614zM169.72084807403442,-21.383186697050828L168.7944838331641,-24.071010166679436L174.67118940455086,11.33819235239933z" style="fill:rgb(247,158,158)"/><path d="M168.7944838331641,-24.071010166679436L164.91838361613884,-23.09115279321614L170.65467691443152,12.318441858823096z" style="fill:rgb(83,212,212)"/><path d="M-143.02934299858373,134.44953020587795L-140.20749023214984,143.89813161959742L-136.579766346371,143.06450989822665z" style="fill:rgb(127,37,217)"/><path d="M127.90820418351528,-204.81585993474152L128.27401643431637,-202.42409503971106L184.8881552957942,-29.720304497808435z" style="fill:rgb(247,158,158)"/><path d="M184.74603474912448,8.879380709625451L178.5160318845797,-26.52857047719359L168.7944838331641,-24.071010166679436z" style="fill:rgb(83,212,212)"/><path d="M180.64324989119402,59.23476297396688L157.29141036661113,-83.00819800660275L151.05696582243806,-101.51804255731105z" style="fill:rgb(247,158,158)"/><path d="M-177.79040805283447,-40.71077453803698L-181.33040148467578,-39.72048414750077L-191.7667043472906,17.91394500179614z" style="fill:rgb(83,212,212)"/><path d="M-143.02934299858373,134.44953020587795L-146.68577740255864,135.29920745962258L-140.20749023214984,143.89813161959742z" style="fill:rgb(127,37,217)"/><path d="M-196.2701934994792,63.333467680824526L-154.89537116659466,118.59956983171197L-135.93394379057432,-23.36642715361827z" style="fill:rgb(247,158,158)"/><path d="M-0.5701746898494411,114.58258394554088L-145.63647144921802,145.14567281988008L-143.90552914165272,147.42175589587237z" style="fill:rgb(127,37,217)"/><path d="M170.65467691443152,12.318441858823096L171.60744877001727,15.00207626352751L165.85366608131773,-20.408262659316453z" style="fill:rgb(247,158,158)"/><path d="M-210.0887108491858,44.87549795349244L-182.58541558565918,-97.29474959729698L-186.0417420005935,-96.27605179474209z" style="fill:rgb(83,212,212)"/><path d="M169.72084807403442,-21.383186697050828L174.67118940455086,11.33819235239933L175.61438371046455,14.026934445033895zM-210.0887108491858,44.87549795349244L-182.6591247882475,-96.86259933133272L-182.58541558565918,-97.29474959729698z" style="fill:rgb(247,158,158)"/><path d="M168.7944838331641,-24.071010166679436L170.65467691443152,12.318441858823096L174.67118940455086,11.33819235239933zM184.74603474912448,8.879380709625451L168.7944838331641,-24.071010166679436L174.67118940455086,11.33819235239933z" style="fill:rgb(83,212,212)"/><path d="M209.41710424351535,108.21454537864754L56.41768648420132,139.1919892764703L57.64364558419856,141.49837897021143zM-154.89537116659466,118.59956983171197L-146.68577740255864,135.29920745962258L-143.02934299858373,134.44953020587795z" style="fill:rgb(127,37,217)"/><path d="M173.90820106745787,40.62032095818585L151.05696582243806,-101.51804255731105L147.2882789504913,-100.49177855578965z" style="fill:rgb(83,212,212)"/><path d="M-218.03333500390812,34.26353487912471L-182.58541558565918,-97.29474959729698L-189.22622449138348,-107.81839594721437z" style="fill:rgb(247,158,158)"/><path d="M-154.89537116659466,118.59956983171197L-158.60433672969037,119.47918580771997L-146.68577740255864,135.29920745962258zM-0.5701746898494411,114.58258394554088L-1.9865397829356064,112.13599781505769L-145.63647144921802,145.14567281988008z" style="fill:rgb(127,37,217)"/><path d="M-189.22622449138348,-107.81839594721437L-192.70846603102999,-106.78079260793149L-222.01518821365107,35.31116307538026z" style="fill:rgb(83,212,212)"/><path d="M174.67118940455086,11.33819235239933L171.60744877001727,15.00207626352751L175.61438371046455,14.026934445033895z" style="fill:rgb(127,37,217)"/><path d="M-177.79040805283447,-40.71077453803698L-191.7667043472906,17.91394500179614L-188.03288150463865,16.922430919896865zM-197.39960232979396,-107.68887066903501L128.27401643431637,-202.42409503971106L127.90820418351528,-204.81585993474152z" style="fill:rgb(83,212,212)"/><path d="M174.67118940455086,11.33819235239933L170.65467691443152,12.318441858823096L171.60744877001727,15.00207626352751zM209.41710424351535,108.21454537864754L208.5490360640077,105.73418334949737L56.41768648420132,139.1919892764703z" style="fill:rgb(127,37,217)"/><path d="M194.9514016889136,66.88114333967061L184.74603474912448,8.879380709625451L35.36337738573157,45.33692014298598z" style="fill:rgb(83,212,212)"/><path d="M134.7986918100691,-129.1981910724432L129.41413541106473,-165.76245271429443L129.40415801237748,-165.69242530465226zM134.59578322882473,-130.285971486774L129.40415801237748,-165.69242530465226L129.3842867253267,-165.5529890305941zM194.9514016889136,66.88114333967061L195.8929444140019,69.57144139657746L170.80211285870146,-72.69038997478792zM134.36041807498776,-131.45492720393332L129.3842867253267,-165.5529890305941L129.35468301141645,-165.3453086801022z" style="fill:rgb(247,158,158)"/><path d="M37.24421470963393,103.12106883810898L-1.9865397829356064,112.13599781505769L-0.5701746898494411,114.58258394554088z" style="fill:rgb(127,37,217)"/><path d="M134.0950043278577,-132.69333934840344L129.35468301141645,-165.3453086801022L129.31561679032086,-165.07118967551136zM133.80220638776345,-133.9888526386023L129.31561679032086,-165.07118967551136L129.26741780904726,-164.7329842646329zM133.48494467675943,-135.32861655037414L129.26741780904726,-164.7329842646329L129.21050502398802,-164.33365382577594z" style="fill:rgb(247,158,158)"/><path d="M37.24421470963393,103.12106883810898L-0.5701746898494411,114.58258394554088L38.570009732303504,105.61527368255376z" style="fill:rgb(127,37,217)"/><path d="M180.64324989119402,59.23476297396688L184.29578219638321,69.32972231873136L160.68524788529064,-72.93198873926877zM133.14636662291477,-136.69937070204224L129.21050502398802,-164.33365382577594L129.14537732848265,-163.87671309691126z" style="fill:rgb(247,158,158)"/><path d="M194.9514016889136,66.88114333967061L35.36337738573157,45.33692014298598L37.24421470963393,103.12106883810898z" style="fill:rgb(83,212,212)"/><path d="M132.78982414421577,-138.08760810591932L129.14537732848265,-163.87671309691126L129.07261936714306,-163.36622432729868z" style="fill:rgb(247,158,158)"/><path d="M-200.15922848830152,64.32152606321509L-196.2701934994792,63.333467680824526L-170.99048196048622,-78.920336164035z" style="fill:rgb(83,212,212)"/><path d="M-196.27890457264107,63.32183977115049L-196.2701934994792,63.333467680824526L-170.99048196048622,-78.920336164035z" style="fill:rgb(247,158,158)"/><path d="M-188.03288150463865,16.922430919896865L-191.7667043472906,17.91394500179614L-192.01536881178458,18.828699610585222z" style="fill:rgb(84,220,202)"/><path d="M132.4188340676385,-139.47962093258147L129.07261936714306,-163.36622432729868L128.99289060783212,-162.806798446835z" style="fill:rgb(247,158,158)"/><path d="M-188.03288150463865,16.922430919896865L-192.01536881178458,18.828699610585222L-188.27789056337764,17.837037798412805z" style="fill:rgb(84,220,202)"/><path d="M-188.27789056337764,17.837037798412805L-192.01536881178458,18.828699610585222L-192.32734961356792,19.637730671152536zM-188.27789056337764,17.837037798412805L-192.32734961356792,19.637730671152536L-188.58598744754715,18.645743340499173z" style="fill:rgb(84,228,192)"/><path d="M132.03704416199218,-140.86170149564853L128.99289060783212,-162.806798446835L128.9069150854224,-162.20355600649927z" style="fill:rgb(247,158,158)"/><path d="M-188.58598744754715,18.645743340499173L-192.32734961356792,19.637730671152536L-192.6996941955294,20.332539038424887zM-188.58598744754715,18.645743340499173L-192.6996941955294,20.332539038424887L-188.95425866314702,19.340050938640697z" style="fill:rgb(85,235,181)"/><path d="M176.35563049817728,60.2311200659852L180.64324989119402,59.23476297396688L157.29141036661113,-83.00819800660275z" style="fill:rgb(83,212,212)"/><path d="M-188.95425866314702,19.340050938640697L-192.6996941955294,20.332539038424887L-193.12886991675686,20.90569469798883z" style="fill:rgb(87,240,169)"/><path d="M131.64822058068444,-142.22020226776394L128.9069150854224,-162.20355600649927L128.81549737969883,-161.56208362696213z" style="fill:rgb(247,158,158)"/><path d="M-188.95425866314702,19.340050938640697L-193.12886991675686,20.90569469798883L-189.37921137375824,19.91253462633314z" style="fill:rgb(87,240,169)"/><path d="M-196.2701934994792,63.333467680824526L-158.60433672969037,119.47918580771997L-154.89537116659466,118.59956983171197z" style="fill:rgb(127,37,217)"/><path d="M127.46246799754068,-152.06859317800317L129.4153809493969,-165.77121119063426L122.22078859784622,-187.13174444455126z" style="fill:rgb(247,158,158)"/><path d="M-189.37921137375824,19.91253462633314L-193.12886991675686,20.90569469798883L-193.61073039653203,21.350935956544355zM-189.37921137375824,19.91253462633314L-193.61073039653203,21.350935956544355L-189.8567422318987,20.35693857296755z" style="fill:rgb(89,245,157)"/><path d="M131.25618081935912,-143.5416610634152L128.81549737969883,-161.56208362696213L128.71948598181248,-160.8884632724873z" style="fill:rgb(247,158,158)"/><path d="M-189.8567422318987,20.35693857296755L-193.61073039653203,21.350935956544355L-194.14057327717822,21.66323668862322zM-189.8567422318987,20.35693857296755L-194.14057327717822,21.66323668862322L-190.38219179387156,20.668243987412087z" style="fill:rgb(91,248,145)"/><path d="M134.0950043278577,-132.69333934840344L134.36041807498776,-131.45492720393332L129.35468301141645,-165.3453086801022zM133.80220638776345,-133.9888526386023L134.0950043278577,-132.69333934840344L129.31561679032086,-165.07118967551136zM134.36041807498776,-131.45492720393332L134.59578322882473,-130.285971486774L129.3842867253267,-165.5529890305941z" style="fill:rgb(247,158,158)"/><path d="M-190.38219179387156,20.668243987412087L-194.14057327717822,21.66323668862322L-194.71317046140402,21.838885985911055z" style="fill:rgb(94,250,133)"/><path d="M133.48494467675943,-135.32861655037414L133.80220638776345,-133.9888526386023L129.26741780904726,-164.7329842646329zM134.59578322882473,-130.285971486774L134.7986918100691,-129.1981910724432L129.40415801237748,-165.69242530465226zM133.14636662291477,-136.69937070204224L133.48494467675943,-135.32861655037414L129.21050502398802,-164.33365382577594zM130.864811794796,-144.81296044946117L128.71948598181248,-160.8884632724873L128.619813157606,-160.18913336123092zM134.7986918100691,-129.1981910724432L134.9670587840795,-128.20259816694954L129.41413541106473,-165.76245271429443z" style="fill:rgb(247,158,158)"/><path d="M-190.38219179387156,20.668243987412087L-194.71317046140402,21.838885985911055L-190.9503787972916,20.842749239045723z" style="fill:rgb(94,250,133)"/><path d="M132.78982414421577,-138.08760810591932L133.14636662291477,-136.69937070204224L129.14537732848265,-163.87671309691126zM132.4188340676385,-139.47962093258147L132.78982414421577,-138.08760810591932L129.07261936714306,-163.36622432729868zM132.03704416199218,-140.86170149564853L132.4188340676385,-139.47962093258147L128.99289060783212,-162.806798446835zM130.47800435068172,-146.02138499411302L128.619813157606,-160.18913336123092L128.51746200077537,-159.47094898604146zM131.64822058068444,-142.22020226776394L132.03704416199218,-140.86170149564853L128.9069150854224,-162.20355600649927zM131.25618081935912,-143.5416610634152L131.64822058068444,-142.22020226776394L128.81549737969883,-161.56208362696213zM130.09959649729245,-147.15477954879293L128.51746200077537,-159.47094898604146L128.41343298775894,-158.74102583235367z" style="fill:rgb(247,158,158)"/><path d="M195.8929444140019,69.57144139657746L37.24421470963393,103.12106883810898L38.570009732303504,105.61527368255376z" style="fill:rgb(127,37,217)"/><path d="M130.864811794796,-144.81296044946117L131.25618081935912,-143.5416610634152L128.71948598181248,-160.8884632724873zM127.56997398588068,-149.7754233151343L122.79259429575033,-183.3067903862764L122.28418872703155,-186.70761638935227zM129.73338669056702,-148.20166393497516L128.41343298775894,-158.74102583235367L128.3087843374373,-158.00675879623836zM130.47800435068172,-146.02138499411302L130.864811794796,-144.81296044946117L128.619813157606,-160.18913336123092zM180.64324989119402,59.23476297396688L151.05696582243806,-101.51804255731105L173.90820106745787,40.62032095818585zM-196.34840695323103,63.228998991454056L-188.03288150463865,16.922430919896865L-188.27789056337764,17.837037798412805zM150.27059736871354,-24.709774422956375L151.05696582243806,-101.51804255731105L129.4153809493969,-165.77121119063426zM-196.4867495462927,63.044221967541894L-188.27789056337764,17.837037798412805L-188.58598744754715,18.645743340499173zM130.09959649729245,-147.15477954879293L130.47800435068172,-146.02138499411302L128.51746200077537,-159.47094898604146z" style="fill:rgb(247,158,158)"/><path d="M-210.0887108491858,44.87549795349244L-186.0417420005935,-96.27605179474209L-214.03683287482303,45.90117938886112z" style="fill:rgb(83,212,212)"/><path d="M-196.69256697962874,62.769294372719415L-188.58598744754715,18.645743340499173L-188.95425866314702,19.340050938640697zM127.48238294408922,-150.54465850109585L123.81562201698821,-176.46342525693217L122.79259429575033,-183.3067903862764zM129.38306740689623,-149.15131880017518L128.3087843374373,-158.00675879623836L128.20459084068352,-157.27571194054113zM-210.0887108491858,44.87549795349244L-210.07967053601567,44.8875661999536L-182.6591247882475,-96.86259933133272z" style="fill:rgb(247,158,158)"/><path d="M132.78982414421577,-138.08760810591932L128.67194139535894,-136.92530869860832L129.02810110942534,-135.53844157731027z" style="fill:rgb(97,120,251)"/><path d="M-196.96387334998937,62.40689855402462L-188.95425866314702,19.340050938640697L-189.37921137375824,19.91253462633314z" style="fill:rgb(247,158,158)"/><path d="M133.14636662291477,-136.69937070204224L129.02810110942534,-135.53844157731027L129.36575725260408,-134.16887241356443z" style="fill:rgb(94,133,250)"/><path d="M132.4188340676385,-139.47962093258147L128.3007926700919,-138.31581260689993L128.67194139535894,-136.92530869860832z" style="fill:rgb(100,108,250)"/><path d="M129.73338669056702,-148.20166393497516L130.09959649729245,-147.15477954879293L128.41343298775894,-158.74102583235367z" style="fill:rgb(247,158,158)"/><path d="M133.48494467675943,-135.32861655037414L129.36575725260408,-134.16887241356443L129.68156665099974,-132.8301077989323z" style="fill:rgb(91,145,248)"/><path d="M132.03704416199218,-140.86170149564853L127.91830420439696,-139.69622762178022L128.3007926700919,-138.31581260689993z" style="fill:rgb(104,95,248)"/><path d="M132.78982414421577,-138.08760810591932L129.02810110942534,-135.53844157731027L133.14636662291477,-136.69937070204224z" style="fill:rgb(97,120,251)"/><path d="M132.4188340676385,-139.47962093258147L128.67194139535894,-136.92530869860832L132.78982414421577,-138.08760810591932z" style="fill:rgb(100,108,250)"/><path d="M133.14636662291477,-136.69937070204224L129.36575725260408,-134.16887241356443L133.48494467675943,-135.32861655037414z" style="fill:rgb(94,133,250)"/><path d="M132.03704416199218,-140.86170149564853L128.3007926700919,-138.31581260689993L132.4188340676385,-139.47962093258147z" style="fill:rgb(104,95,248)"/><path d="M133.80220638776345,-133.9888526386023L129.68156665099974,-132.8301077989323L129.97239769555344,-131.53540064513905z" style="fill:rgb(89,157,245)"/><path d="M131.64822058068444,-142.22020226776394L127.5282359630453,-141.05293062720978L127.91830420439696,-139.69622762178022z" style="fill:rgb(108,83,245)"/><path d="M133.48494467675943,-135.32861655037414L129.68156665099974,-132.8301077989323L133.80220638776345,-133.9888526386023z" style="fill:rgb(91,145,248)"/><path d="M131.64822058068444,-142.22020226776394L127.91830420439696,-139.69622762178022L132.03704416199218,-140.86170149564853z" style="fill:rgb(108,83,245)"/><path d="M134.0950043278577,-132.69333934840344L129.97239769555344,-131.53540064513905L130.23534596227546,-130.29759096108717z" style="fill:rgb(87,169,240)"/><path d="M133.80220638776345,-133.9888526386023L129.97239769555344,-131.53540064513905L134.0950043278577,-132.69333934840344z" style="fill:rgb(89,157,245)"/><path d="M-197.29802595264263,61.96055330249968L-189.37921137375824,19.91253462633314L-189.8567422318987,20.35693857296755z" style="fill:rgb(247,158,158)"/><path d="M131.25618081935912,-143.5416610634152L127.13445225724627,-142.37247949404053L127.5282359630453,-141.05293062720978zM131.25618081935912,-143.5416610634152L127.5282359630453,-141.05293062720978L131.64822058068444,-142.22020226776394z" style="fill:rgb(112,72,241)"/><path d="M129.0522040019716,-149.99391210898457L128.20459084068352,-157.27571194054113L128.10194875724247,-156.55555748571487z" style="fill:rgb(247,158,158)"/><path d="M134.0950043278577,-132.69333934840344L130.23534596227546,-130.29759096108717L134.36041807498776,-131.45492720393332z" style="fill:rgb(87,169,240)"/><path d="M134.36041807498776,-131.45492720393332L130.23534596227546,-130.29759096108717L130.4677625338508,-129.12903081566782z" style="fill:rgb(85,181,235)"/><path d="M130.864811794796,-144.81296044946117L126.74082162420174,-143.64177213241317L127.13445225724627,-142.37247949404053zM130.864811794796,-144.81296044946117L127.13445225724627,-142.37247949404053L131.25618081935912,-143.5416610634152z" style="fill:rgb(116,61,236)"/><path d="M129.38306740689623,-149.15131880017518L129.73338669056702,-148.20166393497516L128.3087843374373,-158.00675879623836zM-197.69176250914398,61.43462331808844L-189.8567422318987,20.35693857296755L-190.38219179387156,20.668243987412087z" style="fill:rgb(247,158,158)"/><path d="M134.36041807498776,-131.45492720393332L130.4677625338508,-129.12903081566782L134.59578322882473,-130.285971486774z" style="fill:rgb(85,181,235)"/><path d="M134.59578322882473,-130.285971486774L130.4677625338508,-129.12903081566782L130.6672973187046,-128.0414323219928z" style="fill:rgb(84,192,228)"/><path d="M130.47800435068172,-146.02138499411302L126.3512699383533,-144.84810465137903L126.74082162420174,-143.64177213241317zM130.47800435068172,-146.02138499411302L126.74082162420174,-143.64177213241317L130.864811794796,-144.81296044946117z" style="fill:rgb(120,51,229)"/><path d="M134.59578322882473,-130.285971486774L130.6672973187046,-128.0414323219928L134.7986918100691,-129.1981910724432z" style="fill:rgb(84,192,228)"/><path d="M173.90820106745787,40.62032095818585L147.2882789504913,-100.49177855578965L169.54637646715855,41.65477472570979z" style="fill:rgb(83,212,212)"/><path d="M134.7986918100691,-129.1981910724432L130.6672973187046,-128.0414323219928L130.83186822119785,-127.04580821578979z" style="fill:rgb(84,202,220)"/><path d="M-198.1412296883903,60.834251838052374L-190.38219179387156,20.668243987412087L-190.9503787972916,20.842749239045723z" style="fill:rgb(247,158,158)"/><path d="M130.09959649729245,-147.15477954879293L125.9696588741413,-145.97937163464982L126.3512699383533,-144.84810465137903z" style="fill:rgb(125,41,221)"/><path d="M-218.03333500390812,34.26353487912471L-210.0887108491858,44.87549795349244L-182.58541558565918,-97.29474959729698z" style="fill:rgb(247,158,158)"/><path d="M130.09959649729245,-147.15477954879293L126.3512699383533,-144.84810465137903L130.47800435068172,-146.02138499411302z" style="fill:rgb(125,41,221)"/><path d="M129.0522040019716,-149.99391210898457L129.38306740689623,-149.15131880017518L128.20459084068352,-157.27571194054113z" style="fill:rgb(247,158,158)"/><path d="M134.7986918100691,-129.1981910724432L130.83186822119785,-127.04580821578979L134.9670587840795,-128.20259816694954z" style="fill:rgb(84,202,220)"/><path d="M128.74420317348384,-150.72061377747923L128.10194875724247,-156.55555748571487L128.0019616250475,-155.85395769153405z" style="fill:rgb(247,158,158)"/><path d="M129.73338669056702,-148.20166393497516L125.59982035070233,-147.02407364890004L125.9696588741413,-145.97937163464982zM129.73338669056702,-148.20166393497516L125.9696588741413,-145.97937163464982L130.09959649729245,-147.15477954879293z" style="fill:rgb(129,33,213)"/><path d="M-198.64200655459646,60.16534854465153L-190.9503787972916,20.842749239045723L-191.5556350281398,20.878120857351476zM127.43509722027088,-151.18720931144978L125.36585966136538,-166.09338785117274L123.81562201698821,-176.46342525693217z" style="fill:rgb(247,158,158)"/><path d="M129.38306740689623,-149.15131880017518L125.59982035070233,-147.02407364890004L129.73338669056702,-148.20166393497516zM129.38306740689623,-149.15131880017518L125.24547929148483,-147.97154235473337L125.59982035070233,-147.02407364890004z" style="fill:rgb(134,25,203)"/><path d="M128.74420317348384,-150.72061377747923L129.0522040019716,-149.99391210898457L128.10194875724247,-156.55555748571487zM-199.18914754458146,59.43450542404458L-191.5556350281398,20.878120857351476L-192.1918675761654,20.773442880050368z" style="fill:rgb(247,158,158)"/><path d="M-196.2701934994792,63.333467680824526L-200.15922848830152,64.32152606321509L-158.60433672969037,119.47918580771997z" style="fill:rgb(127,37,217)"/><path d="M128.46223555848547,-151.32364846965461L128.0019616250475,-155.85395769153405L127.9056937413783,-155.17853808563248z" style="fill:rgb(247,158,158)"/><path d="M129.0522040019716,-149.99391210898457L125.24547929148483,-147.97154235473337L129.38306740689623,-149.15131880017518zM129.0522040019716,-149.99391210898457L124.9102428286266,-148.81197079837838L125.24547929148483,-147.97154235473337z" style="fill:rgb(138,18,193)"/><path d="M-199.7772359290431,58.64897151418153L-192.1918675761654,20.773442880050368L-192.8526217218517,20.529249421778925zM128.46223555848547,-151.32364846965461L128.74420317348384,-150.72061377747923L128.0019616250475,-155.85395769153405z" style="fill:rgb(247,158,158)"/><path d="M128.74420317348384,-150.72061377747923L124.9102428286266,-148.81197079837838L129.0522040019716,-149.99391210898457zM128.74420317348384,-150.72061377747923L124.59755843881275,-149.53652696356576L124.9102428286266,-148.81197079837838z" style="fill:rgb(142,13,182)"/><path d="M-200.40041112747997,57.81656484603275L-192.8526217218517,20.529249421778925L-193.53112416870184,20.147539316707267zM128.20927493874146,-151.79646276290754L127.9056937413783,-155.17853808563248L127.81422223908196,-154.5367353375845z" style="fill:rgb(247,158,158)"/><path d="M195.8929444140019,69.57144139657746L194.9514016889136,66.88114333967061L37.24421470963393,103.12106883810898z" style="fill:rgb(127,37,217)"/><path d="M128.46223555848547,-151.32364846965461L124.59755843881275,-149.53652696356576L128.74420317348384,-150.72061377747923z" style="fill:rgb(146,9,171)"/><path d="M-201.05244332635587,56.94561183810844L-193.53112416870184,20.147539316707267L-194.2203742011289,19.631779974870184z" style="fill:rgb(247,158,158)"/><path d="M128.46223555848547,-151.32364846965461L124.3106429502283,-150.13746845079646L124.59755843881275,-149.53652696356576z" style="fill:rgb(146,9,171)"/><path d="M128.20927493874146,-151.79646276290754L128.46223555848547,-151.32364846965461L127.9056937413783,-155.17853808563248z" style="fill:rgb(247,158,158)"/><path d="M-189.22622449138348,-107.81839594721437L-222.01518821365107,35.31116307538026L-218.03333500390812,34.26353487912471z" style="fill:rgb(83,212,212)"/><path d="M127.56997398588068,-149.7754233151343L127.48238294408922,-150.54465850109585L122.79259429575033,-183.3067903862764zM-201.7267826564636,56.04487294658808L-194.2203742011289,19.631779974870184L-194.9132105367901,18.98688501215252z" style="fill:rgb(247,158,158)"/><path d="M128.20927493874146,-151.79646276290754L124.3106429502283,-150.13746845079646L128.46223555848547,-151.32364846965461zM128.20927493874146,-151.79646276290754L124.05252053869079,-150.60825428143278L124.3106429502283,-150.13746845079646z" style="fill:rgb(150,6,159)"/><path d="M127.98800449250538,-152.13371137296573L127.81422223908196,-154.5367353375845L127.72856710825461,-153.93571401971545zM127.98800449250538,-152.13371137296573L128.20927493874146,-151.79646276290754L127.81422223908196,-154.5367353375845zM-202.41659816903817,55.12345834973082L-194.9132105367901,18.98688501215252L-195.60236561667642,18.21918732411029zM127.48238294408922,-150.54465850109585L127.43509722027088,-151.18720931144978L123.81562201698821,-176.46342525693217z" style="fill:rgb(247,158,158)"/><path d="M127.98800449250538,-152.13371137296573L124.05252053869079,-150.60825428143278L128.20927493874146,-151.79646276290754zM127.98800449250538,-152.13371137296573L123.82592532036284,-150.94359241344247L124.05252053869079,-150.60825428143278z" style="fill:rgb(154,4,146)"/><path d="M-196.34840695323103,63.228998991454056L-196.27890457264107,63.32183977115049L-188.03288150463865,16.922430919896865zM-203.11488774423657,54.1907417660813L-195.60236561667642,18.21918732411029L-196.28057836640806,17.336383643689167zM-196.4867495462927,63.044221967541894L-196.34840695323103,63.228998991454056L-188.27789056337764,17.837037798412805zM127.80080653401166,-152.3314195730725L127.98800449250538,-152.13371137296573L127.72856710825461,-153.93571401971545zM127.80080653401166,-152.3314195730725L127.72856710825461,-153.93571401971545L127.6496936554638,-153.38232766614854zM-196.69256697962874,62.769294372719415L-196.4867495462927,63.044221967541894L-188.58598744754715,18.645743340499173z" style="fill:rgb(247,158,158)"/><path d="M127.80080653401166,-152.3314195730725L123.82592532036284,-150.94359241344247L127.98800449250538,-152.13371137296573zM127.80080653401166,-152.3314195730725L123.63329325007082,-151.13948500309223L123.82592532036284,-150.94359241344247z" style="fill:rgb(157,3,134)"/><path d="M-203.81447458111984,53.25625902863784L-196.28057836640806,17.336383643689167L-196.94063136670076,16.347459533860192zM-196.96387334998937,62.40689855402462L-196.69256697962874,62.769294372719415L-188.95425866314702,19.340050938640697zM127.42847993279494,-151.69679835622546L127.46246799754068,-152.06859317800317L125.36585966136538,-166.09338785117274z" style="fill:rgb(247,158,158)"/><path d="M-116.60045532940737,186.90813444113286L211.44760727094382,115.56825871547433L150.17875149184124,-59.204579524710994z" style="fill:rgb(127,37,217)"/><path d="M-204.50820133986966,52.329620022325955L-196.94063136670076,16.347459533860192L-197.5755271829289,15.262607111226474zM-197.29802595264263,61.96055330249968L-196.96387334998937,62.40689855402462L-189.37921137375824,19.91253462633314zM127.64975238522436,-152.386986853281L127.80080653401166,-152.3314195730725L127.6496936554638,-153.38232766614854z" style="fill:rgb(247,158,158)"/><path d="M145.6504101281334,-23.53595437400006L129.4153809493969,-165.77121119063426L125.45557127728249,-164.62638538904383z" style="fill:rgb(83,212,212)"/><path d="M127.64975238522436,-152.386986853281L123.63329325007082,-151.13948500309223L127.80080653401166,-152.3314195730725zM127.64975238522436,-152.386986853281L123.47675148098426,-151.19338465666024L123.63329325007082,-151.13948500309223z" style="fill:rgb(160,4,121)"/><path d="M127.43509722027088,-151.18720931144978L127.42847993279494,-151.69679835622546L125.36585966136538,-166.09338785117274zM127.64975238522436,-152.386986853281L127.6496936554638,-153.38232766614854L127.57852272535867,-152.8829002011164zM-205.18888133533576,51.4204116673249L-197.5755271829289,15.262607111226474L-198.17845943429114,14.093115792496132zM-197.69176250914398,61.43462331808844L-197.29802595264263,61.96055330249968L-189.8567422318987,20.35693857296755zM150.26560442760245,-24.723586676183096L129.4153809493969,-165.77121119063426L129.41413541106473,-165.76245271429443zM-205.84942402449005,50.53809080641918L-198.17845943429114,14.093115792496132L-198.74295167262687,12.85125085001188zM-198.1412296883903,60.834251838052374L-197.69176250914398,61.43462331808844L-190.38219179387156,20.668243987412087zM127.53652942427568,-152.299263026867L127.64975238522436,-152.386986853281L127.57852272535867,-152.8829002011164zM-210.07967053601567,44.8875661999536L-201.2213414210018,-0.45584331940092926L-201.0946449714504,-1.5604103920278432zM-206.48293115338444,49.691883296917325L-198.74295167262687,12.85125085001188L-199.26294428944936,11.55011735709958zM127.53652942427568,-152.299263026867L127.57852272535867,-152.8829002011164L127.51586557689903,-152.44326638268808zM-210.00753657884007,44.98392039144155L-201.27757831696954,0.7305808845555024L-201.2213414210018,-0.45584331940092926zM-198.64200655459646,60.16534854465153L-198.1412296883903,60.834251838052374L-190.9503787972916,20.842749239045723zM-207.0827500788133,48.89067478962101L-199.26294428944936,11.55011735709958L-199.73285025211754,10.20350610728024zM-209.8640406704148,45.175583498665866L-201.26262142216316,1.9864698475705345L-201.27757831696954,0.7305808845555024zM-207.6425400105306,48.14294151010715L-199.73285025211754,10.20350610728024L-200.14761195714243,8.825743246405716zM-209.65075838017492,45.460479557940666L-201.1764719459931,3.298616546436799L-201.26262142216316,1.9864698475705345zM-208.15636647036627,47.45660738868296L-200.14761195714243,8.825743246405716L-200.50279071470177,7.431512781180605zM127.53652942427568,-152.299263026867L127.51586557689903,-152.44326638268808L127.46246799754068,-152.06859317800317zM-209.36998115969416,45.83552882065453L-201.01993686465522,4.653148640004232L-201.1764719459931,3.298616546436799zM-208.61874950732303,46.83898647706765L-200.50279071470177,7.431512781180605L-200.79459528040985,6.035686807786511zM-209.02473939530492,46.29668639344475L-200.79459528040985,6.035686807786511L-201.01993686465522,4.653148640004232zM-199.18914754458146,59.43450542404458L-198.64200655459646,60.16534854465153L-191.5556350281398,20.878120857351476zM-199.7772359290431,58.64897151418153L-199.18914754458146,59.43450542404458L-192.1918675761654,20.773442880050368zM-200.40041112747997,57.81656484603275L-199.7772359290431,58.64897151418153L-192.8526217218517,20.529249421778925zM-201.05244332635587,56.94561183810844L-200.40041112747997,57.81656484603275L-193.53112416870184,20.147539316707267zM-201.7267826564636,56.04487294658808L-201.05244332635587,56.94561183810844L-194.2203742011289,19.631779974870184zM-202.41659816903817,55.12345834973082L-201.7267826564636,56.04487294658808L-194.9132105367901,18.98688501215252z" style="fill:rgb(247,158,158)"/><path d="M180.64324989119402,59.23476297396688L180.04851514928657,70.30571049716244L184.29578219638321,69.32972231873136z" style="fill:rgb(127,37,217)"/><path d="M-203.11488774423657,54.1907417660813L-202.41659816903817,55.12345834973082L-195.60236561667642,18.21918732411029zM-203.81447458111984,53.25625902863784L-203.11488774423657,54.1907417660813L-196.28057836640806,17.336383643689167z" style="fill:rgb(247,158,158)"/><path d="M134.9670587840795,-128.20259816694954L130.83186822119785,-127.04580821578979L139.00791684610607,-69.92296692314233z" style="fill:rgb(83,212,212)"/><path d="M-204.50820133986966,52.329620022325955L-203.81447458111984,53.25625902863784L-196.94063136670076,16.347459533860192z" style="fill:rgb(247,158,158)"/><path d="M180.64324989119402,59.23476297396688L176.35563049817728,60.2311200659852L180.04851514928657,70.30571049716244z" style="fill:rgb(127,37,217)"/><path d="M-205.18888133533576,51.4204116673249L-204.50820133986966,52.329620022325955L-197.5755271829289,15.262607111226474zM150.27059736871354,-24.709774422956375L173.90820106745787,40.62032095818585L151.05696582243806,-101.51804255731105zM-205.84942402449005,50.53809080641918L-205.18888133533576,51.4204116673249L-198.17845943429114,14.093115792496132zM-206.48293115338444,49.691883296917325L-205.84942402449005,50.53809080641918L-198.74295167262687,12.85125085001188zM-207.0827500788133,48.89067478962101L-206.48293115338444,49.691883296917325L-199.26294428944936,11.55011735709958zM-207.6425400105306,48.14294151010715L-207.0827500788133,48.89067478962101L-199.73285025211754,10.20350610728024zM-208.15636647036627,47.45660738868296L-207.6425400105306,48.14294151010715L-200.14761195714243,8.825743246405716zM-208.61874950732303,46.83898647706765L-208.15636647036627,47.45660738868296L-200.50279071470177,7.431512781180605zM-209.02473939530492,46.29668639344475L-208.61874950732303,46.83898647706765L-200.79459528040985,6.035686807786511zM-210.07967053601567,44.8875661999536L-210.00753657884007,44.98392039144155L-201.2213414210018,-0.45584331940092926zM-209.36998115969416,45.83552882065453L-209.02473939530492,46.29668639344475L-201.01993686465522,4.653148640004232zM-210.00753657884007,44.98392039144155L-209.8640406704148,45.175583498665866L-201.27757831696954,0.7305808845555024zM-209.65075838017492,45.460479557940666L-209.36998115969416,45.83552882065453L-201.1764719459931,3.298616546436799zM-209.8640406704148,45.175583498665866L-209.65075838017492,45.460479557940666L-201.26262142216316,1.9864698475705345z" style="fill:rgb(247,158,158)"/><path d="M-210.0887108491858,44.87549795349244L-200.15922848830152,64.32152606321509L-196.2701934994792,63.333467680824526z" style="fill:rgb(127,37,217)"/><path d="M142.32238838269134,-46.67721160446154L122.22078859784622,-187.13174444455126L118.19792953104093,-185.9460593345523z" style="fill:rgb(83,212,212)"/><path d="M142.32238838269134,-46.67721160446154L122.28418872703155,-186.70761638935227L122.22078859784622,-187.13174444455126z" style="fill:rgb(247,158,158)"/><path d="M173.90820106745787,40.62032095818585L176.35563049817728,60.2311200659852L180.64324989119402,59.23476297396688z" style="fill:rgb(127,37,217)"/><path d="M149.67758355300526,-62.48138547098237L211.44760727094382,115.56825871547433L210.8536965736946,112.31937766082018z" style="fill:rgb(247,158,158)"/><path d="M-210.0887108491858,44.87549795349244L-214.03683287482303,45.90117938886112L-200.15922848830152,64.32152606321509zM-116.60045532940737,186.90813444113286L150.17875149184124,-59.204579524710994L-228.66687091224918,40.16217992196064z" style="fill:rgb(127,37,217)"/><path d="M137.74050392873926,-59.34072706952349L122.22078859784622,-187.13174444455126L118.091952971548,-199.3901290261021z" style="fill:rgb(247,158,158)"/><path d="M173.90820106745787,40.62032095818585L169.54637646715855,41.65477472570979L176.35563049817728,60.2311200659852z" style="fill:rgb(127,37,217)"/><path d="M118.091952971548,-199.3901290261021L114.03301066126434,-198.1806789677704L132.9846539808414,-58.089466010398255zM134.9670587840795,-128.20259816694954L139.00791684610607,-69.92296692314233L143.4103987122137,-71.09203991261667z" style="fill:rgb(83,212,212)"/><path d="M-218.03333500390812,34.26353487912471L-214.03683287482303,45.90117938886112L-210.0887108491858,44.87549795349244zM-218.03333500390812,34.26353487912471L-222.01518821365107,35.31116307538026L-214.03683287482303,45.90117938886112z" style="fill:rgb(127,37,217)"/><path d="M145.6504101281334,-23.53595437400006L150.27059736871354,-24.709774422956375L129.4153809493969,-165.77121119063426z" style="fill:rgb(83,212,212)"/><path d="M150.26560442760245,-24.723586676183096L150.27059736871354,-24.709774422956375L129.4153809493969,-165.77121119063426z" style="fill:rgb(247,158,158)"/><path d="M143.4103987122137,-71.09203991261667L139.00791684610607,-69.92296692314233L139.11236930667997,-69.0290664864107zM143.4103987122137,-71.09203991261667L139.11236930667997,-69.0290664864107L143.51995058325528,-70.19852887019115z" style="fill:rgb(84,220,202)"/><path d="M143.51995058325528,-70.19852887019115L139.11236930667997,-69.0290664864107L139.17600243392076,-68.25723198484303zM143.51995058325528,-70.19852887019115L139.17600243392076,-68.25723198484303L143.5890249191964,-69.42729769126223z" style="fill:rgb(84,228,192)"/><path d="M143.5890249191964,-69.42729769126223L139.17600243392076,-68.25723198484303L139.19805158456407,-67.61565561978993zM143.5890249191964,-69.42729769126223L139.19805158456407,-67.61565561978993L143.61676888348612,-68.7865566263173z" style="fill:rgb(85,235,181)"/><path d="M143.61676888348612,-68.7865566263173L139.19805158456407,-67.61565561978993L139.17811868110618,-67.11132454214957zM143.61676888348612,-68.7865566263173L139.17811868110618,-67.11132454214957L143.6027623895349,-68.28326263945371z" style="fill:rgb(87,240,169)"/><path d="M150.27059736871354,-24.709774422956375L169.54637646715855,41.65477472570979L173.90820106745787,40.62032095818585z" style="fill:rgb(127,37,217)"/><path d="M143.6027623895349,-68.28326263945371L139.17811868110618,-67.11132454214957L139.1162384504944,-66.74989221306075zM143.6027623895349,-68.28326263945371L139.1162384504944,-66.74989221306075L143.54696923483928,-67.92308311831911z" style="fill:rgb(89,245,157)"/><path d="M143.54696923483928,-67.92308311831911L139.1162384504944,-66.74989221306075L139.01286558162786,-66.53564309941832zM143.54696923483928,-67.92308311831911L139.01286558162786,-66.53564309941832L143.44978267585654,-67.71026813971221z" style="fill:rgb(91,248,145)"/><path d="M143.44978267585654,-67.71026813971221L139.01286558162786,-66.53564309941832L138.8688761347767,-66.4713793156091zM143.44978267585654,-67.71026813971221L138.8688761347767,-66.4713793156091L143.3120157203846,-67.64762393778025z" style="fill:rgb(94,250,133)"/><path d="M150.22569732313784,-24.83389170883356L143.4103987122137,-71.09203991261667L143.51995058325528,-70.19852887019115zM150.14626390141947,-25.05343842939046L143.51995058325528,-70.19852887019115L143.5890249191964,-69.42729769126223zM150.02806358829233,-25.38010576174814L143.5890249191964,-69.42729769126223L143.61676888348612,-68.7865566263173z" style="fill:rgb(247,158,158)"/><path d="M142.32238838269134,-46.67721160446154L118.19792953104093,-185.9460593345523L137.6160484612801,-45.45455292576268z" style="fill:rgb(83,212,212)"/><path d="M142.32238838269134,-46.67721160446154L142.32758916195831,-46.66282466319431L122.28418872703155,-186.70761638935227zM149.87225577479836,-25.81073758974776L143.61676888348612,-68.7865566263173L143.6027623895349,-68.28326263945371zM149.6803430287865,-26.341154818353886L143.6027623895349,-68.28326263945371L143.54696923483928,-67.92308311831911zM149.45418758289102,-26.966209577060972L143.54696923483928,-67.92308311831911L143.44978267585654,-67.71026813971221z" style="fill:rgb(247,158,158)"/><path d="M-227.97244941295105,36.87852695215927L-228.66687091224918,40.16217992196064L150.17875149184124,-59.204579524710994z" style="fill:rgb(83,212,212)"/><path d="M149.1959924642925,-27.679803148787325L143.44978267585654,-67.71026813971221L143.3120157203846,-67.64762393778025zM137.74050392873926,-59.34072706952349L142.32238838269134,-46.67721160446154L122.22078859784622,-187.13174444455126zM148.90829179052164,-28.47495012732691L143.3120157203846,-67.64762393778025L143.13491593096177,-67.73644313548391zM148.59391547459097,-29.343835286398935L143.13491593096177,-67.73644313548391L142.92013914808297,-67.97645381472476z" style="fill:rgb(247,158,158)"/><path d="M150.27059736871354,-24.709774422956375L145.6504101281334,-23.53595437400006L169.54637646715855,41.65477472570979z" style="fill:rgb(127,37,217)"/><path d="M148.25596263624894,-30.277877906561283L142.92013914808297,-67.97645381472476L142.669744894288,-68.36581956229533zM147.89779561316072,-31.26780203608327L142.669744894288,-68.36581956229533L142.38619331037228,-68.9011249626611zM147.5229728952699,-32.303726110078784L142.38619331037228,-68.9011249626611L142.0722920008494,-69.57736211375241zM149.67758355300526,-62.48138547098237L150.17875149184124,-59.204579524710994L211.44760727094382,115.56825871547433z" style="fill:rgb(247,158,158)"/><path d="M118.091952971548,-199.3901290261021L132.9846539808414,-58.089466010398255L137.74050392873926,-59.34072706952349z" style="fill:rgb(83,212,212)"/><path d="M147.1352715312422,-33.375252517621654L142.0722920008494,-69.57736211375241L141.73122622902653,-70.38800433259432zM146.73861680572443,-34.47155508092709L141.73122622902653,-70.38800433259432L141.36649112318804,-71.32501353899768zM150.22569732313784,-24.83389170883356L150.26560442760245,-24.723586676183096L143.4103987122137,-71.09203991261667zM146.33701927183174,-35.58149876686286L141.36649112318804,-71.32501353899768L140.98183445474407,-72.3789417498656zM150.14626390141947,-25.05343842939046L150.22569732313784,-24.83389170883356L143.51995058325528,-70.19852887019115zM150.02806358829233,-25.38010576174814L150.14626390141947,-25.05343842939046L143.5890249191964,-69.42729769126223zM145.93459235327637,-36.69373472352206L140.98183445474407,-72.3789417498656L140.58127309914718,-73.53899526478126zM149.87225577479836,-25.81073758974776L150.02806358829233,-25.38010576174814L143.61676888348612,-68.7865566263173zM145.53547123033843,-37.796823336835814L140.58127309914718,-73.53899526478126L140.16900729415963,-74.79317319229382zM149.6803430287865,-26.341154818353886L149.87225577479836,-25.81073758974776L143.6027623895349,-68.28326263945371zM145.14379295581486,-38.87934632552971L140.16900729415963,-74.79317319229382L139.74939801530806,-76.12835198208789zM149.45418758289102,-26.966209577060972L149.6803430287865,-26.341154818353886L143.54696923483928,-67.92308311831911zM144.76364060788333,-39.93002904353471L139.74939801530806,-76.12835198208789L139.3269143694686,-77.53048652600718zM149.1959924642925,-27.679803148787325L149.45418758289102,-26.966209577060972L143.44978267585654,-67.71026813971221zM142.32758916195831,-46.66282466319431L135.89059570098794,-91.8061958717102L135.70713388033892,-92.92045777002124zM144.3989799996848,-40.93787172340483L139.3269143694686,-77.53048652600718L138.90603627055674,-78.98471362530081zM142.36915916971213,-46.547955984449004L136.11210073195087,-90.59227534077408L135.89059570098794,-91.8061958717102zM148.90829179052164,-28.47495012732691L149.1959924642925,-27.679803148787325L143.3120157203846,-67.64762393778025zM144.05366648017406,-41.892254886198074L138.90603627055674,-78.98471362530081L138.4912880189346,-80.47555170367667zM142.45182443720736,-46.31947167730543L136.36939892433332,-89.2913511628149L136.11210073195087,-90.59227534077408zM143.7313515091424,-42.7830759368511L138.4912880189346,-80.47555170367667L138.08710303846945,-81.98708453202441zM142.57469843857004,-45.97985862518421L136.65984121732012,-87.9171032363475L136.36939892433332,-89.2913511628149zM143.43546243143865,-43.60085716882728L138.08710303846945,-81.98708453202441L137.69780774706564,-83.50314516039846zM142.73645974334642,-45.532804175198564L136.98035921006687,-86.48407574047205L136.65984121732012,-87.9171032363475zM143.16917505071564,-44.33685007549889L137.69780774706564,-83.50314516039846L137.32758206741474,-85.00750024453602zM142.93533248070844,-44.98315281530422L137.32758206741474,-85.00750024453602L136.98035921006687,-86.48407574047205zM148.59391547459097,-29.343835286398935L148.90829179052164,-28.47495012732691L143.13491593096177,-67.73644313548391zM148.25596263624894,-30.277877906561283L148.59391547459097,-29.343835286398935L142.92013914808297,-67.97645381472476zM147.89779561316072,-31.26780203608327L148.25596263624894,-30.277877906561283L142.669744894288,-68.36581956229533zM147.5229728952699,-32.303726110078784L147.89779561316072,-31.26780203608327L142.38619331037228,-68.9011249626611zM147.1352715312422,-33.375252517621654L147.5229728952699,-32.303726110078784L142.0722920008494,-69.57736211375241zM146.73861680572443,-34.47155508092709L147.1352715312422,-33.375252517621654L141.73122622902653,-70.38800433259432zM146.33701927183174,-35.58149876686286L146.73861680572443,-34.47155508092709L141.36649112318804,-71.32501353899768zM145.93459235327637,-36.69373472352206L146.33701927183174,-35.58149876686286L140.98183445474407,-72.3789417498656zM145.53547123033843,-37.796823336835814L145.93459235327637,-36.69373472352206L140.58127309914718,-73.53899526478126zM145.14379295581486,-38.87934632552971L145.53547123033843,-37.796823336835814L140.16900729415963,-74.79317319229382zM144.76364060788333,-39.93002904353471L145.14379295581486,-38.87934632552971L139.74939801530806,-76.12835198208789zM144.3989799996848,-40.93787172340483L144.76364060788333,-39.93002904353471L139.3269143694686,-77.53048652600718zM144.05366648017406,-41.892254886198074L144.3989799996848,-40.93787172340483L138.90603627055674,-78.98471362530081zM143.7313515091424,-42.7830759368511L144.05366648017406,-41.892254886198074L138.4912880189346,-80.47555170367667zM143.43546243143865,-43.60085716882728L143.7313515091424,-42.7830759368511L138.08710303846945,-81.98708453202441zM143.16917505071564,-44.33685007549889L143.43546243143865,-43.60085716882728L137.69780774706564,-83.50314516039846zM142.93533248070844,-44.98315281530422L143.16917505071564,-44.33685007549889L137.32758206741474,-85.00750024453602zM142.73645974334642,-45.532804175198564L142.93533248070844,-44.98315281530422L136.98035921006687,-86.48407574047205zM142.32758916195831,-46.66282466319431L142.36915916971213,-46.547955984449004L135.89059570098794,-91.8061958717102zM142.57469843857004,-45.97985862518421L142.73645974334642,-45.532804175198564L136.65984121732012,-87.9171032363475zM142.36915916971213,-46.547955984449004L142.45182443720736,-46.31947167730543L136.11210073195087,-90.59227534077408zM142.45182443720736,-46.31947167730543L142.57469843857004,-45.97985862518421L136.36939892433332,-89.2913511628149z" style="fill:rgb(247,158,158)"/><path d="M-227.97244941295105,36.87852695215927L150.17875149184124,-59.204579524710994L149.67758355300526,-62.48138547098237z" style="fill:rgb(83,212,212)"/><path d="M142.32238838269134,-46.67721160446154L145.6504101281334,-23.53595437400006L150.27059736871354,-24.709774422956375zM142.32238838269134,-46.67721160446154L137.6160484612801,-45.45455292576268L145.6504101281334,-23.53595437400006zM137.74050392873926,-59.34072706952349L137.6160484612801,-45.45455292576268L142.32238838269134,-46.67721160446154zM137.74050392873926,-59.34072706952349L132.9846539808414,-58.089466010398255L137.6160484612801,-45.45455292576268z" style="fill:rgb(127,37,217)"/></svg>
