<?xml version="1.0" encoding="UTF-8"?>
<!-- Generated by jsxcad -->
<!DOCTYPE svg PUBLIC "-//W3C//DTD SVG 1.1 Tiny//EN" "http://www.w3.org/Graphics/SVG/1.1/DTD/svg11-tiny.dtd">
<svg viewBox="-250 -250 500 500" width="500" height="500" xmlns="http://www.w3.org/2000/svg"><path d="M-73.49916844392705,35.695291384316455L-104.33182267895452,40.99386795821183L-102.95082302856758,43.151530984009156zM-73.49916844392705,35.695291384316455L-74.8263768021925,33.505243792122606L-104.33182267895452,40.99386795821183z" style="fill:rgb(127,37,217)"/><path d="M-74.6533659992244,31.02052721567328L-73.49916844392705,35.695291384316455L-73.3295935097515,33.21090731022879zM-74.6533659992244,31.02052721567328L-74.8263768021925,33.505243792122606L-73.49916844392705,35.695291384316455z" style="fill:rgb(247,158,158)"/><path d="M-74.8263768021925,33.505243792122606L-42.99961544390587,22.96720360865108L-74.6533659992244,31.02052721567328z" style="fill:rgb(83,212,212)"/><path d="M-41.831759076425904,27.67809316173477L-74.8263768021925,33.505243792122606L-73.49916844392705,35.695291384316455z" style="fill:rgb(127,37,217)"/><path d="M-74.8263768021925,33.505243792122606L-43.10006475433753,25.45295607550194L-42.99961544390587,22.96720360865108z" style="fill:rgb(83,212,212)"/><path d="M-41.831759076425904,27.67809316173477L-43.10006475433753,25.45295607550194L-74.8263768021925,33.505243792122606z" style="fill:rgb(127,37,217)"/><path d="M-42.99961544390587,22.96720360865108L-41.831759076425904,27.67809316173477L-41.73447869490285,25.19259706211535zM-42.99961544390587,22.96720360865108L-43.10006475433753,25.45295607550194L-41.831759076425904,27.67809316173477z" style="fill:rgb(247,158,158)"/><path d="M19.382866483097153,12.180462588822184L-43.10006475433753,25.45295607550194L-41.831759076425904,27.67809316173477zM19.382866483097153,12.180462588822184L18.23153498997074,9.886702290039626L-43.10006475433753,25.45295607550194z" style="fill:rgb(127,37,217)"/><path d="M18.23153498997074,9.886702290039626L19.337103952310276,9.693653966367892L18.188395037452,7.399792863547714zM18.23153498997074,9.886702290039626L19.382866483097153,12.180462588822184L19.337103952310276,9.693653966367892z" style="fill:rgb(247,158,158)"/><path d="M-94.03321468190539,1.8117213161811048L-125.78707794620337,7.4722903079262135L-124.31209802749024,9.776787490759377zM184.07369855826755,-32.20482998547072L-124.31209802749024,9.776787490759377L-104.33182267895452,40.99386795821183zM-94.03321468190539,1.8117213161811048L-95.45145280487382,-0.5285344768577378L-125.78707794620337,7.4722903079262135z" style="fill:rgb(127,37,217)"/><path d="M-95.22331821630998,-3.0155988997027534L-94.03321468190539,1.8117213161811048L-93.80897329206745,-0.6753516110759572zM-95.22331821630998,-3.0155988997027534L-95.45145280487382,-0.5285344768577378L-94.03321468190539,1.8117213161811048z" style="fill:rgb(247,158,158)"/><path d="M-61.45946557026311,-6.7570252053396L-93.80897329206745,-0.6753516110759572L-94.03321468190539,1.8117213161811048zM-95.45145280487382,-0.5285344768577378L-62.664120584673576,-11.622874745251915L-95.22331821630998,-3.0155988997027534z" style="fill:rgb(83,212,212)"/><path d="M-61.45946557026311,-6.7570252053396L-95.45145280487382,-0.5285344768577378L-94.03321468190539,1.8117213161811048z" style="fill:rgb(127,37,217)"/><path d="M-61.45946557026311,-6.7570252053396L-61.31169795771912,-9.243943779860919L-93.80897329206745,-0.6753516110759572z" style="fill:rgb(83,212,212)"/><path d="M116.71171695431313,-12.46015981070515L51.468207645989544,1.4510773561382633L52.55442786331506,3.782460085677651z" style="fill:rgb(127,37,217)"/><path d="M-95.45145280487382,-0.5285344768577378L-62.81548987944842,-9.136058083758009L-62.664120584673576,-11.622874745251915z" style="fill:rgb(83,212,212)"/><path d="M-61.45946557026311,-6.7570252053396L-62.81548987944842,-9.136058083758009L-95.45145280487382,-0.5285344768577378z" style="fill:rgb(127,37,217)"/><path d="M-62.664120584673576,-11.622874745251915L-61.45946557026311,-6.7570252053396L-61.31169795771912,-9.243943779860919zM-62.664120584673576,-11.622874745251915L-62.81548987944842,-9.136058083758009L-61.45946557026311,-6.7570252053396z" style="fill:rgb(247,158,158)"/><path d="M116.71171695431313,-12.46015981070515L115.7548469863566,-14.865178630846303L51.468207645989544,1.4510773561382633z" style="fill:rgb(127,37,217)"/><path d="M115.7548469863566,-14.865178630846303L116.42958284569437,-14.946788462844554L115.47439003019302,-17.351640678155114zM115.7548469863566,-14.865178630846303L116.71171695431313,-12.46015981070515L116.42958284569437,-14.946788462844554z" style="fill:rgb(247,158,158)"/><path d="M-117.89119016023827,181.6291453578877L18.23153498997074,9.886702290039626L-104.33182267895452,40.99386795821183z" style="fill:rgb(83,212,212)"/><path d="M1.5567864506332496,-23.333878377011736L-62.81548987944842,-9.136058083758009L-61.45946557026311,-6.7570252053396z" style="fill:rgb(127,37,217)"/><path d="M-118.21623831346461,167.5934430999804L-96.56430163510684,39.022431846101156L-104.42344737324879,26.56809390684088z" style="fill:rgb(247,158,158)"/><path d="M115.7548469863566,-14.865178630846303L150.24439957396393,-26.19780062296484L115.47439003019302,-17.351640678155114z" style="fill:rgb(83,212,212)"/><path d="M151.4972044947717,-21.266757953988638L115.7548469863566,-14.865178630846303L116.71171695431313,-12.46015981070515z" style="fill:rgb(127,37,217)"/><path d="M-121.76158514136013,168.38219878496113L-104.42344737324879,26.56809390684088L-107.56646968465954,27.37732873689759z" style="fill:rgb(83,212,212)"/><path d="M1.5567864506332496,-23.333878377011736L0.32454504327588635,-25.78883456112395L-62.81548987944842,-9.136058083758009z" style="fill:rgb(127,37,217)"/><path d="M115.7548469863566,-14.865178630846303L150.61236103098707,-23.712181534787398L150.24439957396393,-26.19780062296484z" style="fill:rgb(83,212,212)"/><path d="M151.4972044947717,-21.266757953988638L150.61236103098707,-23.712181534787398L115.7548469863566,-14.865178630846303z" style="fill:rgb(127,37,217)"/><path d="M150.24439957396393,-26.19780062296484L151.4972044947717,-21.266757953988638L151.12792887577498,-23.75264558421866zM150.24439957396393,-26.19780062296484L150.61236103098707,-23.712181534787398L151.4972044947717,-21.266757953988638zM-118.21623831346461,167.5934430999804L-104.42344737324879,26.56809390684088L-113.92320241128306,11.513878866223966zM0.32454504327588635,-25.78883456112395L1.5529844089597848,-25.819543084227387L0.3237506073416942,-28.27420658489782zM0.32454504327588635,-25.78883456112395L1.5567864506332496,-23.333878377011736L1.5529844089597848,-25.819543084227387z" style="fill:rgb(247,158,158)"/><path d="M184.88815529579412,-29.720304497808353L150.61236103098707,-23.712181534787398L151.4972044947717,-21.266757953988638z" style="fill:rgb(127,37,217)"/><path d="M35.73199005822639,-32.323897396913864L1.5529844089597848,-25.819543084227387L1.5567864506332496,-23.333878377011736zM35.73199005822639,-32.323897396913864L35.643989462491845,-34.80835500607429L1.5529844089597848,-25.819543084227387z" style="fill:rgb(83,212,212)"/><path d="M184.88815529579412,-29.720304497808353L184.07369855826755,-32.20482998547072L150.61236103098707,-23.712181534787398zM184.07369855826755,-32.20482998547072L172.261363645609,-68.23887560227591L-124.31209802749024,9.776787490759377z" style="fill:rgb(127,37,217)"/><path d="M-129.22393554891443,152.8899920172662L-113.92320241128306,11.513878866223966L-117.10511859313677,12.347287511262207z" style="fill:rgb(83,212,212)"/><path d="M20.68455445851144,151.29727494404972L19.382866483097153,12.180462588822184L18.23153498997074,9.886702290039626zM-132.03398590771053,149.13650277389118L-113.92320241128306,11.513878866223966L-116.34234333293837,7.680288472347397z" style="fill:rgb(247,158,158)"/><path d="M-135.64140492211155,149.958900262891L-116.34234333293837,7.680288472347397L-119.53412889168901,8.519909335952242zM20.74036600421725,154.51467783627518L51.345429171359996,-1.0359958627189338L18.188395037452,7.399792863547714z" style="fill:rgb(83,212,212)"/><path d="M101.8850579682848,-49.72590959748555L34.56877648385145,-34.820528788651295L35.73199005822639,-32.323897396913864z" style="fill:rgb(127,37,217)"/><path d="M52.429338090460874,1.2953992489967447L51.345429171359996,-1.0359958627189338L58.61667438995338,146.2542684709214z" style="fill:rgb(247,158,158)"/><path d="M101.8850579682848,-49.72590959748555L100.85924609609619,-52.30421016146112L34.56877648385145,-34.820528788651295z" style="fill:rgb(127,37,217)"/><path d="M100.85924609609619,-52.30421016146112L101.63007981971593,-52.20697941883269L100.60623982527196,-54.78465933738071zM100.85924609609619,-52.30421016146112L101.8850579682848,-49.72590959748555L101.63007981971593,-52.20697941883269z" style="fill:rgb(247,158,158)"/><path d="M-142.75644961057995,148.93273729806722L0.32454504327588635,-25.78883456112395L-125.78707794620337,7.4722903079262135zM137.78278822211504,-59.16905273507196L101.63007981971593,-52.20697941883269L101.8850579682848,-49.72590959748555z" style="fill:rgb(83,212,212)"/><path d="M-118.21623831346461,167.5934430999804L-109.1421203930452,179.7141158641588L-96.56430163510684,39.022431846101156z" style="fill:rgb(247,158,158)"/><path d="M100.85924609609619,-52.30421016146112L136.48741094320445,-64.27012120657514L100.60623982527196,-54.78465933738071z" style="fill:rgb(83,212,212)"/><path d="M137.78278822211504,-59.16905273507196L100.85924609609619,-52.30421016146112L101.8850579682848,-49.72590959748555z" style="fill:rgb(127,37,217)"/><path d="M137.78278822211504,-59.16905273507196L137.43499526564491,-61.647696687462286L101.63007981971593,-52.20697941883269z" style="fill:rgb(83,212,212)"/><path d="M171.38721189418018,-70.90550567451993L-197.92004537416958,-105.22789049581327L-125.78707794620337,7.4722903079262135z" style="fill:rgb(127,37,217)"/><path d="M58.457474153621,143.02942970247366L184.07369855826755,-32.20482998547072L51.468207645989544,1.4510773561382633zM100.85924609609619,-52.30421016146112L136.83362908088748,-61.792222326330915L136.48741094320445,-64.27012120657514z" style="fill:rgb(83,212,212)"/><path d="M137.78278822211504,-59.16905273507196L136.83362908088748,-61.792222326330915L100.85924609609619,-52.30421016146112z" style="fill:rgb(127,37,217)"/><path d="M136.48741094320445,-64.27012120657514L137.78278822211504,-59.16905273507196L137.43499526564491,-61.647696687462286zM136.48741094320445,-64.27012120657514L136.83362908088748,-61.792222326330915L137.78278822211504,-59.16905273507196z" style="fill:rgb(247,158,158)"/><path d="M-121.76158514136013,168.38219878496113L-118.21623831346461,167.5934430999804L-104.42344737324879,26.56809390684088z" style="fill:rgb(83,212,212)"/><path d="M172.261363645609,-68.23887560227591L136.83362908088748,-61.792222326330915L137.78278822211504,-59.16905273507196zM172.261363645609,-68.23887560227591L171.38721189418018,-70.90550567451993L136.83362908088748,-61.792222326330915z" style="fill:rgb(127,37,217)"/><path d="M-117.89119016023827,181.6291453578877L20.68455445851144,151.29727494404972L18.23153498997074,9.886702290039626z" style="fill:rgb(83,212,212)"/><path d="M-118.21623831346461,167.5934430999804L-113.92320241128306,11.513878866223966L-129.22393554891443,152.8899920172662zM0.3699332196453291,116.20649431429231L1.5567864506332496,-23.333878377011736L0.32454504327588635,-25.78883456112395z" style="fill:rgb(247,158,158)"/><path d="M0.3709708378485828,119.45263884536989L34.48344289379163,-37.30458502859601L0.3237506073416942,-28.27420658489782zM-129.22393554891443,152.8899920172662L-117.10511859313677,12.347287511262207L-132.81877406287157,153.7054990275726z" style="fill:rgb(83,212,212)"/><path d="M20.68455445851144,151.29727494404972L21.984218723158403,153.54226433625354L19.382866483097153,12.180462588822184zM184.88815529579412,-29.720304497808353L184.07369855826755,-32.20482998547072L209.9932573589263,109.86082470500556zM-132.03398590771053,149.13650277389118L-129.22393554891443,152.8899920172662L-113.92320241128306,11.513878866223966zM35.643989462491845,-34.80835500607429L34.48344289379163,-37.30458502859601L39.56168855882908,110.52301237025645z" style="fill:rgb(247,158,158)"/><path d="M-135.64140492211155,149.958900262891L-132.03398590771053,149.13650277389118L-116.34234333293837,7.680288472347397z" style="fill:rgb(83,212,212)"/><path d="M-172.47421972676455,-36.3793183709211L-166.095736667634,-71.16365919070151L-166.41598589029763,-71.6711618442046zM-172.75426532941356,-38.74082061476637L-166.41598589029763,-71.6711618442046L-166.93668546160117,-72.49629478159041zM127.90820418351531,-204.81585993474138L184.88815529579412,-29.720304497808353L184.4339131633724,-32.20514961251769zM-172.4253115473687,-34.20069477437912L-165.9876645891768,-70.9924013383916L-166.095736667634,-71.16365919070151zM-173.25450217301207,-41.19721507914783L-166.93668546160117,-72.49629478159041L-167.63862170282775,-73.60866216472974zM-173.95624448434452,-43.65740436057764L-167.63862170282775,-73.60866216472974L-168.49585424624195,-74.96709474850556zM-174.83353728975175,-46.030190166005646L-168.49585424624195,-74.96709474850556L-169.4764050986924,-76.52096710306817zM-175.85412948926586,-48.2273020593376L-169.4764050986924,-76.52096710306817L-170.54344960560582,-78.2119159136032z" style="fill:rgb(247,158,158)"/><path d="M20.74036600421725,154.51467783627518L58.61667438995338,146.2542684709214L51.345429171359996,-1.0359958627189338z" style="fill:rgb(83,212,212)"/><path d="M-176.9804652461364,-50.16632972910176L-170.54344960560582,-78.2119159136032L-171.6565783217455,-79.97587793505319zM194.66403336745663,97.98569530731986L175.16448316106127,-29.943623741764103L170.36853658630838,-44.18262443804316zM52.429338090460874,1.2953992489967447L58.61667438995338,146.2542684709214L59.83513206033674,148.539089666518zM-178.17082248488921,-51.7736115852047L-171.6565783217455,-79.97587793505319L-172.77320030745585,-81.74541118617982z" style="fill:rgb(247,158,158)"/><path d="M-83.32648967316914,179.67212447128233L-118.19842097703525,184.81568714942878L-116.6004553294074,186.90813444113274z" style="fill:rgb(127,37,217)"/><path d="M-179.3808089960544,-52.98689044208829L-172.77320030745585,-81.74541118617982L-173.85026726150144,-83.4522070633206z" style="fill:rgb(247,158,158)"/><path d="M190.53173164836363,98.90503423017016L170.36853658630838,-44.18262443804316L166.77225501251306,-43.25669119723537z" style="fill:rgb(83,212,212)"/><path d="M-109.1421203930452,179.7141158641588L-121.76158514136013,168.38219878496113L-112.64642612793675,180.4811540353002z" style="fill:rgb(127,37,217)"/><path d="M-180.56469673665717,-53.75782694721927L-173.85026726150144,-83.4522070633206L-174.8457883164842,-85.02979865552365z" style="fill:rgb(247,158,158)"/><path d="M-83.32648967316914,179.67212447128233L-84.85585914756032,177.5440302297264L-118.19842097703525,184.81568714942878z" style="fill:rgb(127,37,217)"/><path d="M39.44996456932617,107.27072733832898L171.38721189418018,-70.90550567451993L34.56877648385145,-34.820528788651295z" style="fill:rgb(83,212,212)"/><path d="M-84.633427995732,174.34959374952138L-83.32648967316914,179.67212447128233L-83.10860401857248,176.47995140851395zM-173.25450217301207,-41.19721507914783L-172.75426532941356,-38.74082061476637L-166.93668546160117,-72.49629478159041zM-172.75426532941356,-38.74082061476637L-172.47421972676455,-36.3793183709211L-166.41598589029763,-71.6711618442046zM-173.95624448434452,-43.65740436057764L-173.25450217301207,-41.19721507914783L-167.63862170282775,-73.60866216472974zM-181.67719167936366,-54.05405878843684L-174.8457883164842,-85.02979865552365L-175.72066230958708,-86.41622692068866zM-172.47421972676455,-36.3793183709211L-172.4253115473687,-34.20069477437912L-166.095736667634,-71.16365919070151zM-174.83353728975175,-46.030190166005646L-173.95624448434452,-43.65740436057764L-168.49585424624195,-74.96709474850556zM-84.633427995732,174.34959374952138L-84.85585914756032,177.5440302297264L-83.32648967316914,179.67212447128233zM-190.32864593087479,71.26984128872989L-117.80248088612932,5.3664059227435255L-165.9876645891768,-70.9924013383916zM-172.4253115473687,-34.20069477437912L-172.61015792903504,-32.28686432302623L-165.9876645891768,-70.9924013383916z" style="fill:rgb(247,158,158)"/><path d="M21.984218723158403,153.54226433625354L-117.89119016023827,181.6291453578877L-116.29811639509636,183.72394914744189z" style="fill:rgb(127,37,217)"/><path d="M-182.67509004707102,-53.86082901541244L-175.72066230958708,-86.41622692068866L-176.44025876729066,-87.5565756647839zM-175.85412948926586,-48.2273020593376L-174.83353728975175,-46.030190166005646L-169.4764050986924,-76.52096710306817zM194.66403336745663,97.98569530731986L170.36853658630838,-44.18262443804316L164.5604574654183,-61.42660313302324z" style="fill:rgb(247,158,158)"/><path d="M-109.1421203930452,179.7141158641588L-118.21623831346461,167.5934430999804L-121.76158514136013,168.38219878496113z" style="fill:rgb(127,37,217)"/><path d="M-176.9804652461364,-50.16632972910176L-175.85412948926586,-48.2273020593376L-170.54344960560582,-78.2119159136032zM-183.5190192723493,-53.18213955213756L-176.44025876729066,-87.5565756647839L-176.9759298078012,-88.4054296021932z" style="fill:rgb(247,158,158)"/><path d="M-84.85585914756032,177.5440302297264L-48.80002664175495,166.5062564638276L-84.633427995732,174.34959374952138z" style="fill:rgb(83,212,212)"/><path d="M-47.47553604467266,171.87569959599588L-84.85585914756032,177.5440302297264L-83.32648967316914,179.67212447128233z" style="fill:rgb(127,37,217)"/><path d="M-184.17502365386662,-52.041041070388076L-176.9759298078012,-88.4054296021932L-177.3061839755513,-88.92879108597492z" style="fill:rgb(247,158,158)"/><path d="M-188.18493437429368,-49.47013525909277L-177.4177691124127,-89.10561114005453L-180.853852594789,-88.10150461650954z" style="fill:rgb(83,212,212)"/><path d="M-178.17082248488921,-51.7736115852047L-176.9804652461364,-50.16632972910176L-171.6565783217455,-79.97587793505319zM-184.61621757966648,-50.47925483017508L-177.3061839755513,-88.92879108597492L-177.4177691124127,-89.10561114005453zM-179.3808089960544,-52.98689044208829L-178.17082248488921,-51.7736115852047L-172.77320030745585,-81.74541118617982z" style="fill:rgb(247,158,158)"/><path d="M-84.85585914756032,177.5440302297264L-48.9294445630554,169.7088812251523L-48.80002664175495,166.5062564638276z" style="fill:rgb(83,212,212)"/><path d="M-47.47553604467266,171.87569959599588L-48.9294445630554,169.7088812251523L-84.85585914756032,177.5440302297264z" style="fill:rgb(127,37,217)"/><path d="M-48.80002664175495,166.5062564638276L-47.47553604467266,171.87569959599588L-47.350274969106955,168.67529656031516zM-180.56469673665717,-53.75782694721927L-179.3808089960544,-52.98689044208829L-173.85026726150144,-83.4522070633206zM-48.80002664175495,166.5062564638276L-48.9294445630554,169.7088812251523L-47.47553604467266,171.87569959599588z" style="fill:rgb(247,158,158)"/><path d="M-173.25450217301207,-41.19721507914783L-176.76072929520075,-40.217078905324904L-176.26201930762105,-37.76260856625z" style="fill:rgb(93,135,250)"/><path d="M-173.95624448434452,-43.65740436057764L-177.46239349424928,-42.67488250936609L-176.76072929520075,-40.217078905324904z" style="fill:rgb(99,111,250)"/><path d="M-181.67719167936366,-54.05405878843684L-180.56469673665717,-53.75782694721927L-174.8457883164842,-85.02979865552365z" style="fill:rgb(247,158,158)"/><path d="M-173.95624448434452,-43.65740436057764L-176.76072929520075,-40.217078905324904L-173.25450217301207,-41.19721507914783z" style="fill:rgb(99,111,250)"/><path d="M-173.25450217301207,-41.19721507914783L-176.26201930762105,-37.76260856625L-172.75426532941356,-38.74082061476637z" style="fill:rgb(93,135,250)"/><path d="M-172.75426532941356,-38.74082061476637L-176.26201930762105,-37.76260856625L-175.98491424797768,-35.40250261470193z" style="fill:rgb(89,159,244)"/><path d="M-174.83353728975175,-46.030190166005646L-178.3410594958413,-45.04491116420734L-177.46239349424928,-42.67488250936609z" style="fill:rgb(106,87,246)"/><path d="M-142.75644961057995,148.93273729806722L0.3699332196453291,116.20649431429231L0.32454504327588635,-25.78883456112395z" style="fill:rgb(83,212,212)"/><path d="M-174.83353728975175,-46.030190166005646L-177.46239349424928,-42.67488250936609L-173.95624448434452,-43.65740436057764z" style="fill:rgb(106,87,246)"/><path d="M-172.75426532941356,-38.74082061476637L-175.98491424797768,-35.40250261470193L-172.47421972676455,-36.3793183709211z" style="fill:rgb(89,159,244)"/><path d="M-175.85412948926586,-48.2273020593376L-178.3410594958413,-45.04491116420734L-174.83353728975175,-46.030190166005646z" style="fill:rgb(114,65,238)"/><path d="M-172.47421972676455,-36.3793183709211L-175.98491424797768,-35.40250261470193L-175.9401951850788,-33.22469688946626z" style="fill:rgb(85,182,234)"/><path d="M-175.85412948926586,-48.2273020593376L-179.36442658562464,-47.23899100834578L-178.3410594958413,-45.04491116420734z" style="fill:rgb(114,65,238)"/><path d="M-172.47421972676455,-36.3793183709211L-175.9401951850788,-33.22469688946626L-172.4253115473687,-34.20069477437912z" style="fill:rgb(85,182,234)"/><path d="M-182.67509004707102,-53.86082901541244L-181.67719167936366,-54.05405878843684L-175.72066230958708,-86.41622692068866z" style="fill:rgb(247,158,158)"/><path d="M-132.81877406287157,153.7054990275726L-121.76158514136013,168.38219878496113L-118.21623831346461,167.5934430999804z" style="fill:rgb(127,37,217)"/><path d="M-176.9804652461364,-50.16632972910176L-179.36442658562464,-47.23899100834578L-175.85412948926586,-48.2273020593376z" style="fill:rgb(123,46,225)"/><path d="M-172.4253115473687,-34.20069477437912L-175.9401951850788,-33.22469688946626L-176.1303856931407,-31.31107497613203z" style="fill:rgb(84,202,220)"/><path d="M-176.9804652461364,-50.16632972910176L-180.4948384265394,-49.17482199350943L-179.36442658562464,-47.23899100834578z" style="fill:rgb(123,46,225)"/><path d="M-172.4253115473687,-34.20069477437912L-176.1303856931407,-31.31107497613203L-172.61015792903504,-32.28686432302623z" style="fill:rgb(84,202,220)"/><path d="M188.45453003827078,80.82376852228131L164.5604574654183,-61.42660313302324L160.91214056684873,-60.47103723391185z" style="fill:rgb(83,212,212)"/><path d="M21.984218723158403,153.54226433625354L20.68455445851144,151.29727494404972L-117.89119016023827,181.6291453578877z" style="fill:rgb(127,37,217)"/><path d="M-183.5190192723493,-53.18213955213756L-182.67509004707102,-53.86082901541244L-176.44025876729066,-87.5565756647839z" style="fill:rgb(247,158,158)"/><path d="M-178.17082248488921,-51.7736115852047L-180.4948384265394,-49.17482199350943L-176.9804652461364,-50.16632972910176zM-178.17082248488921,-51.7736115852047L-181.69044450144932,-50.77886067100705L-180.4948384265394,-49.17482199350943z" style="fill:rgb(131,29,208)"/><path d="M22.043387061802914,156.75757391995958L-48.9294445630554,169.7088812251523L-47.47553604467266,171.87569959599588z" style="fill:rgb(127,37,217)"/><path d="M-184.17502365386662,-52.041041070388076L-183.5190192723493,-53.18213955213756L-176.9759298078012,-88.4054296021932z" style="fill:rgb(247,158,158)"/><path d="M-179.3808089960544,-52.98689044208829L-181.69044450144932,-50.77886067100705L-178.17082248488921,-51.7736115852047zM-179.3808089960544,-52.98689044208829L-182.9066010236413,-51.988977058088715L-181.69044450144932,-50.77886067100705z" style="fill:rgb(140,16,189)"/><path d="M186.866703760752,76.43529184401201L164.5604574654183,-61.42660313302324L163.0795004356491,-65.82352624567872z" style="fill:rgb(247,158,158)"/><path d="M58.457474153621,143.02942970247366L209.9932573589263,109.86082470500556L184.07369855826755,-32.20482998547072z" style="fill:rgb(83,212,212)"/><path d="M-184.61621757966648,-50.47925483017508L-184.17502365386662,-52.041041070388076L-177.3061839755513,-88.92879108597492z" style="fill:rgb(247,158,158)"/><path d="M182.64788580609817,77.39707275271162L163.0795004356491,-65.82352624567872L159.41794041902432,-64.86032980593512zM-188.18493437429368,-49.47013525909277L-184.61621757966648,-50.47925483017508L-177.4177691124127,-89.10561114005453z" style="fill:rgb(83,212,212)"/><path d="M-180.56469673665717,-53.75782694721927L-182.9066010236413,-51.988977058088715L-179.3808089960544,-52.98689044208829z" style="fill:rgb(148,8,167)"/><path d="M-132.81877406287157,153.7054990275726L-118.21623831346461,167.5934430999804L-129.22393554891443,152.8899920172662z" style="fill:rgb(127,37,217)"/><path d="M-180.56469673665717,-53.75782694721927L-184.09741058632363,-52.756938774314186L-182.9066010236413,-51.988977058088715z" style="fill:rgb(148,8,167)"/><path d="M-190.32864593087479,71.26984128872989L-133.73142742512928,146.8691425092161L-117.80248088612932,5.3664059227435255z" style="fill:rgb(247,158,158)"/><path d="M-181.67719167936366,-54.05405878843684L-184.09741058632363,-52.756938774314186L-180.56469673665717,-53.75782694721927zM-181.67719167936366,-54.05405878843684L-185.21730017730476,-53.05051550982292L-184.09741058632363,-52.756938774314186z" style="fill:rgb(155,4,143)"/><path d="M0.3699332196453291,116.20649431429231L1.7739350472386317,118.63171421801148L1.5567864506332496,-23.333878377011736z" style="fill:rgb(247,158,158)"/><path d="M22.043387061802914,156.75757391995958L20.74036600421725,154.51467783627518L-48.9294445630554,169.7088812251523z" style="fill:rgb(127,37,217)"/><path d="M172.261363645609,-68.23887560227591L171.38721189418018,-70.90550567451993L196.51774987187952,71.35673755041958z" style="fill:rgb(247,158,158)"/><path d="M-194.1921116044446,72.24194506410068L-165.9876645891768,-70.9924013383916L-169.37873746782267,-70.02019081379608z" style="fill:rgb(83,212,212)"/><path d="M-182.67509004707102,-53.86082901541244L-185.21730017730476,-53.05051550982292L-181.67719167936366,-54.05405878843684zM-182.67509004707102,-53.86082901541244L-186.22280625372971,-52.855052628785614L-185.21730017730476,-53.05051550982292z" style="fill:rgb(161,4,119)"/><path d="M171.38721189418018,-70.90550567451993L128.2740164343164,-202.42409503971092L-197.92004537416958,-105.22789049581327zM-129.22393554891443,152.8899920172662L-135.64140492211155,149.958900262891L-132.81877406287157,153.7054990275726z" style="fill:rgb(127,37,217)"/><path d="M20.74036600421725,154.51467783627518L21.984218723158403,153.54226433625354L20.68455445851144,151.29727494404972zM20.74036600421725,154.51467783627518L22.043387061802914,156.75757391995958L21.984218723158403,153.54226433625354z" style="fill:rgb(247,158,158)"/><path d="M-129.22393554891443,152.8899920172662L-132.03398590771053,149.13650277389118L-135.64140492211155,149.958900262891z" style="fill:rgb(127,37,217)"/><path d="M184.88815529579412,-29.720304497808353L209.9932573589263,109.86082470500556L210.8536965736945,112.31937766082021z" style="fill:rgb(247,158,158)"/><path d="M0.3709708378485828,119.45263884536989L39.56168855882908,110.52301237025645L34.48344289379163,-37.30458502859601z" style="fill:rgb(83,212,212)"/><path d="M59.83513206033674,148.539089666518L20.74036600421725,154.51467783627518L22.043387061802914,156.75757391995958z" style="fill:rgb(127,37,217)"/><path d="M-197.92004537416958,-105.22789049581327L127.90820418351531,-204.81585993474138L-197.39960232979388,-107.68887066903503z" style="fill:rgb(83,212,212)"/><path d="M35.643989462491845,-34.80835500607429L39.56168855882908,110.52301237025645L40.87921477755228,112.99358841608402zM194.66403336745663,97.98569530731986L199.77028893873256,112.09846054739552L175.16448316106127,-29.943623741764103z" style="fill:rgb(247,158,158)"/><path d="M-107.0884164629295,146.60780533949819L-143.14266432646932,152.15231202033536L-141.4206876367908,154.40716579103267zM210.58631386525826,113.11138271072923L-141.4206876367908,154.40716579103267L-118.19842097703525,184.81568714942878zM59.83513206033674,148.539089666518L58.61667438995338,146.2542684709214L20.74036600421725,154.51467783627518zM-107.0884164629295,146.60780533949819L-108.7375380389289,144.31308822208126L-143.14266432646932,152.15231202033536z" style="fill:rgb(127,37,217)"/><path d="M-108.44157318070309,141.0865495608752L-107.0884164629295,146.60780533949819L-106.79768370730912,143.38326658009754zM-108.44157318070309,141.0865495608752L-108.7375380389289,144.31308822208126L-107.0884164629295,146.60780533949819zM127.90820418351531,-204.81585993474138L128.2740164343164,-202.42409503971092L184.88815529579412,-29.720304497808353z" style="fill:rgb(247,158,158)"/><path d="M1.7739350472386317,118.63171421801148L-142.75644961057995,148.93273729806722L-141.04008379214568,151.18966323168976z" style="fill:rgb(127,37,217)"/><path d="M-70.07243327630852,138.19878552705487L-106.79768370730912,143.38326658009754L-107.0884164629295,146.60780533949819zM190.53173164836363,98.90503423017016L194.66403336745663,97.98569530731986L170.36853658630838,-44.18262443804316zM-108.7375380389289,144.31308822208126L-71.44444970429002,132.62705642884035L-108.44157318070309,141.0865495608752z" style="fill:rgb(83,212,212)"/><path d="M-70.07243327630852,138.19878552705487L-108.7375380389289,144.31308822208126L-107.0884164629295,146.60780533949819z" style="fill:rgb(127,37,217)"/><path d="M-70.07243327630852,138.19878552705487L-69.88041202247581,134.967074396424L-106.79768370730912,143.38326658009754z" style="fill:rgb(83,212,212)"/><path d="M133.16930065099575,132.59127095553433L58.61667438995338,146.2542684709214L59.83513206033674,148.539089666518z" style="fill:rgb(127,37,217)"/><path d="M-108.7375380389289,144.31308822208126L-71.64127688497236,135.86067530761346L-71.44444970429002,132.62705642884035z" style="fill:rgb(83,212,212)"/><path d="M-70.07243327630852,138.19878552705487L-71.64127688497236,135.86067530761346L-108.7375380389289,144.31308822208126zM210.8536965736945,112.31937766082021L58.457474153621,143.02942970247366L59.67303615586199,145.3162587890271z" style="fill:rgb(127,37,217)"/><path d="M-71.44444970429002,132.62705642884035L-70.07243327630852,138.19878552705487L-69.88041202247581,134.967074396424zM-71.44444970429002,132.62705642884035L-71.64127688497236,135.86067530761346L-70.07243327630852,138.19878552705487z" style="fill:rgb(247,158,158)"/><path d="M133.16930065099575,132.59127095553433L132.12001344861184,130.22400457641064L58.61667438995338,146.2542684709214zM1.7739350472386317,118.63171421801148L0.3699332196453291,116.20649431429231L-142.75644961057995,148.93273729806722z" style="fill:rgb(127,37,217)"/><path d="M-218.03333500390806,34.26353487912462L-177.4177691124127,-89.10561114005453L-189.2262244913834,-107.81839594721438zM131.75477431755039,126.98589859536474L133.16930065099575,132.59127095553433L132.80211447927567,129.35501568161763zM194.66403336745663,97.98569530731986L164.5604574654183,-61.42660313302324L188.45453003827078,80.82376852228131z" style="fill:rgb(247,158,158)"/><path d="M1.77889764434134,121.87612204826364L-71.64127688497236,135.86067530761346L-70.07243327630852,138.19878552705487z" style="fill:rgb(127,37,217)"/><path d="M131.75477431755039,126.98589859536474L132.12001344861184,130.22400457641064L133.16930065099575,132.59127095553433z" style="fill:rgb(247,158,158)"/><path d="M39.44996456932617,107.27072733832898L196.51774987187952,71.35673755041958L171.38721189418018,-70.90550567451993zM-189.2262244913834,-107.81839594721438L-192.7084660310299,-106.78079260793149L-222.01518821365102,35.31116307538016zM132.12001344861184,130.22400457641064L171.62905369302797,118.25809166647592L131.75477431755039,126.98589859536474z" style="fill:rgb(83,212,212)"/><path d="M173.06381450721165,123.9155033357335L132.12001344861184,130.22400457641064L133.16930065099575,132.59127095553433zM-133.73142742512928,146.8691425092161L-194.1921116044446,72.24194506410068L-137.34643524495746,147.69573250876243z" style="fill:rgb(127,37,217)"/><path d="M188.45453003827078,80.82376852228131L160.91214056684873,-60.47103723391185L184.25330160808463,81.77682684934251z" style="fill:rgb(83,212,212)"/><path d="M210.8536965736945,112.31937766082021L209.9932573589263,109.86082470500556L58.457474153621,143.02942970247366z" style="fill:rgb(127,37,217)"/><path d="M-197.92004537416958,-105.22789049581327L128.2740164343164,-202.42409503971092L127.90820418351531,-204.81585993474138z" style="fill:rgb(83,212,212)"/><path d="M186.866703760752,76.43529184401201L188.45453003827078,80.82376852228131L164.5604574654183,-61.42660313302324z" style="fill:rgb(247,158,158)"/><path d="M1.77889764434134,121.87612204826364L0.3709708378485828,119.45263884536989L-71.64127688497236,135.86067530761346z" style="fill:rgb(127,37,217)"/><path d="M132.12001344861184,130.22400457641064L172.10938179099264,121.50277067047419L171.62905369302797,118.25809166647592z" style="fill:rgb(83,212,212)"/><path d="M173.06381450721165,123.9155033357335L172.10938179099264,121.50277067047419L132.12001344861184,130.22400457641064z" style="fill:rgb(127,37,217)"/><path d="M171.62905369302797,118.25809166647592L173.06381450721165,123.9155033357335L172.58208584207458,120.67259371388637zM137.4483654885344,-122.612613928711L132.44705848827937,-156.77026094792723L132.24880593216645,-157.3588845836947zM136.89144233002793,-125.09207172262268L132.24880593216645,-157.3588845836947L131.92643523430033,-158.31598292691862z" style="fill:rgb(247,158,158)"/><path d="M182.64788580609817,77.39707275271162L186.866703760752,76.43529184401201L163.0795004356491,-65.82352624567872z" style="fill:rgb(83,212,212)"/><path d="M137.8986525277504,-120.37007207352573L132.51395997529258,-156.57163494481972L132.44705848827937,-156.77026094792723zM171.62905369302797,118.25809166647592L172.10938179099264,121.50277067047419L173.06381450721165,123.9155033357335zM136.24874437954293,-127.71617675653802L131.92643523430033,-158.31598292691862L131.49178703011947,-159.6064287780996zM135.5441063441867,-130.38785093437005L131.49178703011947,-159.6064287780996L130.96091054070337,-161.18260876270017zM0.3709708378485828,119.45263884536989L1.7739350472386317,118.63171421801148L0.3699332196453291,116.20649431429231zM0.3709708378485828,119.45263884536989L1.77889764434134,121.87612204826364L1.7739350472386317,118.63171421801148zM134.80352008144598,-133.0083659387693L130.96091054070337,-161.18260876270017L130.35352305819825,-162.9859232551652z" style="fill:rgb(247,158,158)"/><path d="M211.44760727094376,115.56825871547434L172.10938179099264,121.50277067047419L173.06381450721165,123.9155033357335z" style="fill:rgb(127,37,217)"/><path d="M172.261363645609,-68.23887560227591L196.51774987187952,71.35673755041958L197.45067718316332,74.02241847151434zM134.0543475947821,-135.480592760507L130.35352305819825,-162.9859232551652L129.69240304479857,-164.94874911618555z" style="fill:rgb(247,158,158)"/><path d="M40.87921477755228,112.99358841608402L1.7739350472386317,118.63171421801148L1.77889764434134,121.87612204826364zM-194.1921116044446,72.24194506410068L-190.32864593087479,71.26984128872989L-165.9876645891768,-70.9924013383916z" style="fill:rgb(83,212,212)"/><path d="M133.32441399841113,-137.7121532996076L129.69240304479857,-164.94874911618555L129.00258222489254,-166.9968229993868z" style="fill:rgb(247,158,158)"/><path d="M40.87921477755228,112.99358841608402L0.3709708378485828,119.45263884536989L1.77889764434134,121.87612204826364z" style="fill:rgb(127,37,217)"/><path d="M-182.30835546566152,24.394799888999444L-186.01687185005207,25.37096360257493L-186.47924633681544,27.149371399673417z" style="fill:rgb(84,220,202)"/><path d="M40.87921477755228,112.99358841608402L40.764075522572156,109.74296151532411L1.7739350472386317,118.63171421801148z" style="fill:rgb(83,212,212)"/><path d="M-182.30835546566152,24.394799888999444L-186.47924633681544,27.149371399673417L-182.7637582988233,26.172967264110074z" style="fill:rgb(84,220,202)"/><path d="M132.641040569933,-139.61860116398637L129.00258222489254,-166.9968229993868L128.31040497436393,-169.05186216637108z" style="fill:rgb(247,158,158)"/><path d="M211.44760727094376,115.56825871547434L210.58631386525826,113.11138271072923L172.10938179099264,121.50277067047419z" style="fill:rgb(127,37,217)"/><path d="M-182.7637582988233,26.172967264110074L-186.47924633681544,27.149371399673417L-187.17085543952896,28.522634930023116z" style="fill:rgb(85,234,182)"/><path d="M132.03017359729145,-141.12644306938006L128.31040497436393,-169.05186216637108L127.64260378673178,-171.0345338555211z" style="fill:rgb(247,158,158)"/><path d="M-182.7637582988233,26.172967264110074L-187.17085543952896,28.522634930023116L-183.44759064755698,27.54534217287194z" style="fill:rgb(85,234,182)"/><path d="M210.58631386525826,113.11138271072923L198.02982512795765,77.29325781530997L-141.4206876367908,154.40716579103267zM40.87921477755228,112.99358841608402L39.56168855882908,110.52301237025645L0.3709708378485828,119.45263884536989z" style="fill:rgb(127,37,217)"/><path d="M-183.44759064755698,27.54534217287194L-187.17085543952896,28.522634930023116L-188.06698386315614,29.43598312795489z" style="fill:rgb(89,244,159)"/><path d="M199.77028893873256,112.09846054739552L190.53173164836363,98.90503423017016L195.69483441524042,112.9905064447698z" style="fill:rgb(127,37,217)"/><path d="M131.515404877392,-142.17604318118006L127.64260378673178,-171.0345338555211L127.0252278921776,-172.8675248727266z" style="fill:rgb(247,158,158)"/><path d="M-183.44759064755698,27.54534217287194L-188.06698386315614,29.43598312795489L-184.33549114353337,28.457180943348565z" style="fill:rgb(89,244,159)"/><path d="M136.24874437954293,-127.71617675653802L136.89144233002793,-125.09207172262268L131.92643523430033,-158.31598292691862zM136.89144233002793,-125.09207172262268L137.4483654885344,-122.612613928711L132.24880593216645,-157.3588845836947zM135.5441063441867,-130.38785093437005L136.24874437954293,-127.71617675653802L131.49178703011947,-159.6064287780996zM131.11701648458538,-142.72408238529698L127.0252278921776,-172.8675248727266L126.48254621811833,-174.47872398691484z" style="fill:rgb(247,158,158)"/><path d="M-184.33549114353337,28.457180943348565L-188.06698386315614,29.43598312795489L-189.13491808311213,29.851204351066276z" style="fill:rgb(93,250,135)"/><path d="M137.4483654885344,-122.612613928711L137.8986525277504,-120.37007207352573L132.44705848827937,-156.77026094792723zM134.80352008144598,-133.0083659387693L135.5441063441867,-130.38785093437005L130.96091054070337,-161.18260876270017z" style="fill:rgb(247,158,158)"/><path d="M-184.33549114353337,28.457180943348565L-189.13491808311213,29.851204351066276L-185.3949959477316,28.87032203946277z" style="fill:rgb(93,250,135)"/><path d="M137.8986525277504,-120.37007207352573L138.22515648843736,-118.44878650245901L132.51395997529258,-156.57163494481972zM130.85120585980195,-142.7456608585676L126.48254621811833,-174.47872398691484L126.03610256678476,-175.80418931563622zM134.0543475947821,-135.480592760507L134.80352008144598,-133.0083659387693L130.35352305819825,-162.9859232551652zM153.67980012962636,-15.28735497152388L162.18524115828893,-68.47854755842191L132.51395997529258,-156.57163494481972z" style="fill:rgb(247,158,158)"/><path d="M199.77028893873256,112.09846054739552L194.66403336745663,97.98569530731986L190.53173164836363,98.90503423017016z" style="fill:rgb(127,37,217)"/><path d="M133.32441399841113,-137.7121532996076L134.0543475947821,-135.480592760507L129.69240304479857,-164.94874911618555zM130.72927030486352,-142.23591152723844L126.03610256678476,-175.80418931563622L125.70373197644152,-176.790976856192zM130.7570512683879,-141.21070278881382L125.70373197644152,-176.790976856192L125.49879751078893,-177.39944896935904z" style="fill:rgb(247,158,158)"/><path d="M126.75906282603411,-138.52598719499133L125.4295497923012,-177.60503101841033L121.43478040250749,-176.43765273908517z" style="fill:rgb(83,212,212)"/><path d="M132.641040569933,-139.61860116398637L133.32441399841113,-137.7121532996076L129.00258222489254,-166.9968229993868zM130.93448398988656,-139.70666837674779L125.49879751078893,-177.39944896935904L125.4295497923012,-177.60503101841033z" style="fill:rgb(247,158,158)"/><path d="M116.83442484219394,95.73863461111745L39.56168855882908,110.52301237025645L40.87921477755228,112.99358841608402z" style="fill:rgb(127,37,217)"/><path d="M132.03017359729145,-141.12644306938006L132.641040569933,-139.61860116398637L128.31040497436393,-169.05186216637108zM-190.4568653731755,71.09857643056198L-182.30835546566152,24.394799888999444L-182.7637582988233,26.172967264110074zM131.515404877392,-142.17604318118006L132.03017359729145,-141.12644306938006L127.64260378673178,-171.0345338555211z" style="fill:rgb(247,158,158)"/><path d="M197.45067718316332,74.02241847151434L39.44996456932617,107.27072733832898L40.764075522572156,109.74296151532411zM-133.73142742512928,146.8691425092161L-190.32864593087479,71.26984128872989L-194.1921116044446,72.24194506410068z" style="fill:rgb(127,37,217)"/><path d="M-190.83685152124536,70.59100760473602L-182.7637582988233,26.172967264110074L-183.44759064755698,27.54534217287194z" style="fill:rgb(247,158,158)"/><path d="M136.24874437954293,-127.71617675653802L132.16007205384946,-126.57322544691732L132.8007892783203,-123.95130834299862z" style="fill:rgb(93,135,250)"/><path d="M135.5441063441867,-130.38785093437005L131.4554112330421,-129.2420813939682L132.16007205384946,-126.57322544691732z" style="fill:rgb(99,111,250)"/><path d="M131.11701648458538,-142.72408238529698L131.515404877392,-142.17604318118006L127.0252278921776,-172.8675248727266z" style="fill:rgb(247,158,158)"/><path d="M135.5441063441867,-130.38785093437005L132.16007205384946,-126.57322544691732L136.24874437954293,-127.71617675653802z" style="fill:rgb(99,111,250)"/><path d="M136.24874437954293,-127.71617675653802L132.8007892783203,-123.95130834299862L136.89144233002793,-125.09207172262268z" style="fill:rgb(93,135,250)"/><path d="M136.89144233002793,-125.09207172262268L132.8007892783203,-123.95130834299862L133.3538094653032,-121.47334104572744z" style="fill:rgb(89,159,244)"/><path d="M134.80352008144598,-133.0083659387693L130.7128300279814,-131.85927830910532L131.4554112330421,-129.2420813939682zM134.80352008144598,-133.0083659387693L131.4554112330421,-129.2420813939682L135.5441063441867,-130.38785093437005z" style="fill:rgb(106,87,246)"/><path d="M-191.45478644590597,69.76562209239623L-183.44759064755698,27.54534217287194L-184.33549114353337,28.457180943348565z" style="fill:rgb(247,158,158)"/><path d="M136.89144233002793,-125.09207172262268L133.3538094653032,-121.47334104572744L137.4483654885344,-122.612613928711z" style="fill:rgb(89,159,244)"/><path d="M134.0543475947821,-135.480592760507L130.7128300279814,-131.85927830910532L134.80352008144598,-133.0083659387693z" style="fill:rgb(114,65,238)"/><path d="M137.4483654885344,-122.612613928711L133.3538094653032,-121.47334104572744L133.79840933727183,-119.2315369963762z" style="fill:rgb(85,182,234)"/><path d="M134.0543475947821,-135.480592760507L129.9597297205946,-134.3277737645337L130.7128300279814,-131.85927830910532z" style="fill:rgb(114,65,238)"/><path d="M116.83442484219394,95.73863461111745L115.69820714025357,93.17525766656334L39.56168855882908,110.52301237025645z" style="fill:rgb(127,37,217)"/><path d="M137.4483654885344,-122.612613928711L133.79840933727183,-119.2315369963762L137.8986525277504,-120.37007207352573z" style="fill:rgb(85,182,234)"/><path d="M130.85120585980195,-142.7456608585676L131.11701648458538,-142.72408238529698L126.48254621811833,-174.47872398691484z" style="fill:rgb(247,158,158)"/><path d="M184.25330160808463,81.77682684934251L190.53173164836363,98.90503423017016L194.66403336745663,97.98569530731986z" style="fill:rgb(127,37,217)"/><path d="M133.32441399841113,-137.7121532996076L129.9597297205946,-134.3277737645337L134.0543475947821,-135.480592760507z" style="fill:rgb(123,46,225)"/><path d="M-192.28801585648242,68.65262994518237L-184.33549114353337,28.457180943348565L-185.3949959477316,28.87032203946277z" style="fill:rgb(247,158,158)"/><path d="M137.8986525277504,-120.37007207352573L133.79840933727183,-119.2315369963762L134.11764661376716,-117.31020805767213z" style="fill:rgb(84,202,220)"/><path d="M133.32441399841113,-137.7121532996076L129.22407709380047,-136.55533643489858L129.9597297205946,-134.3277737645337z" style="fill:rgb(123,46,225)"/><path d="M137.8986525277504,-120.37007207352573L134.11764661376716,-117.31020805767213L138.22515648843736,-118.44878650245901z" style="fill:rgb(84,202,220)"/><path d="M130.72927030486352,-142.23591152723844L130.85120585980195,-142.7456608585676L126.03610256678476,-175.80418931563622z" style="fill:rgb(247,158,158)"/><path d="M132.641040569933,-139.61860116398637L129.22407709380047,-136.55533643489858L133.32441399841113,-137.7121532996076zM132.641040569933,-139.61860116398637L128.53343060520567,-138.45765524536418L129.22407709380047,-136.55533643489858z" style="fill:rgb(131,29,208)"/><path d="M115.36539923494327,89.91245251044108L116.83442484219394,95.73863461111745L116.49925438471209,92.47727506282527zM-193.30591954888553,67.2929915006028L-185.3949959477316,28.87032203946277L-186.5866793872143,28.76508738985354zM-218.03333500390806,34.26353487912462L-203.92176592284702,53.11294422431289L-177.4177691124127,-89.10561114005453zM130.7570512683879,-141.21070278881382L130.72927030486352,-142.23591152723844L125.70373197644152,-176.790976856192z" style="fill:rgb(247,158,158)"/><path d="M132.03017359729145,-141.12644306938006L128.53343060520567,-138.45765524536418L132.641040569933,-139.61860116398637z" style="fill:rgb(140,16,189)"/><path d="M115.36539923494327,89.91245251044108L115.69820714025357,93.17525766656334L116.83442484219394,95.73863461111745z" style="fill:rgb(247,158,158)"/><path d="M132.03017359729145,-141.12644306938006L127.91396907772584,-139.96142339889713L128.53343060520567,-138.45765524536418z" style="fill:rgb(140,16,189)"/><path d="M-194.47070292032822,65.7371423395855L-186.5866793872143,28.76508738985354L-187.86530222890235,28.141697390061662zM130.93448398988656,-139.70666837674779L130.7570512683879,-141.21070278881382L125.49879751078893,-177.39944896935904z" style="fill:rgb(247,158,158)"/><path d="M158.2002147596642,86.34145824338204L116.49925438471209,92.47727506282527L116.83442484219394,95.73863461111745zM126.75906282603411,-138.52598719499133L130.93448398988656,-139.70666837674779L125.4295497923012,-177.60503101841033z" style="fill:rgb(83,212,212)"/><path d="M131.515404877392,-142.17604318118006L127.91396907772584,-139.96142339889713L132.03017359729145,-141.12644306938006z" style="fill:rgb(148,8,167)"/><path d="M184.25330160808463,81.77682684934251L194.66403336745663,97.98569530731986L188.45453003827078,80.82376852228131z" style="fill:rgb(127,37,217)"/><path d="M131.515404877392,-142.17604318118006L127.38960040529312,-141.0071291110849L127.91396907772584,-139.96142339889713z" style="fill:rgb(148,8,167)"/><path d="M-195.73877387171927,64.04331750166814L-187.86530222890235,28.141697390061662L-189.18157663959607,27.02075150489933z" style="fill:rgb(247,158,158)"/><path d="M115.69820714025357,93.17525766656334L156.70932674179102,80.45904535021464L115.36539923494327,89.91245251044108z" style="fill:rgb(83,212,212)"/><path d="M158.2002147596642,86.34145824338204L115.69820714025357,93.17525766656334L116.83442484219394,95.73863461111745z" style="fill:rgb(127,37,217)"/><path d="M158.2002147596642,86.34145824338204L157.7418802443257,83.07500889907705L116.49925438471209,92.47727506282527z" style="fill:rgb(83,212,212)"/><path d="M153.67980012962636,-15.28735497152388L185.9070214832203,73.78290844181257L162.18524115828893,-68.47854755842191zM-190.4568653731755,71.09857643056198L-190.32864593087479,71.26984128872989L-182.30835546566152,24.394799888999444z" style="fill:rgb(247,158,158)"/><path d="M131.11701648458538,-142.72408238529698L127.38960040529312,-141.0071291110849L131.515404877392,-142.17604318118006z" style="fill:rgb(155,4,143)"/><path d="M-197.062213793081,62.275549648048305L-189.18157663959607,27.02075150489933L-190.48404517393908,25.443017826079767z" style="fill:rgb(247,158,158)"/><path d="M197.45067718316332,74.02241847151434L196.51774987187952,71.35673755041958L39.44996456932617,107.27072733832898z" style="fill:rgb(127,37,217)"/><path d="M131.11701648458538,-142.72408238529698L126.98099726194972,-141.55161744027026L127.38960040529312,-141.0071291110849z" style="fill:rgb(155,4,143)"/><path d="M-190.83685152124536,70.59100760473602L-190.4568653731755,71.09857643056198L-182.7637582988233,26.172967264110074zM-198.39042805599206,60.50137659783691L-190.48404517393908,25.443017826079767L-191.72112871450125,23.4682355644035z" style="fill:rgb(247,158,158)"/><path d="M197.0957542194899,74.6287748133874L-228.66687091224912,40.16217992196055L-143.14266432646932,152.15231202033536z" style="fill:rgb(127,37,217)"/><path d="M-191.45478644590597,69.76562209239623L-190.83685152124536,70.59100760473602L-183.44759064755698,27.54534217287194z" style="fill:rgb(247,158,158)"/><path d="M149.09667702705266,-14.134178170207235L132.51395997529258,-156.57163494481972L128.5813795241947,-155.44418153181954z" style="fill:rgb(83,212,212)"/><path d="M130.85120585980195,-142.7456608585676L126.98099726194972,-141.55161744027026L131.11701648458538,-142.72408238529698z" style="fill:rgb(161,4,119)"/><path d="M-207.84358386104904,54.12175246494149L-195.17476562394498,6.17716018624448L-198.93706961626629,7.188587152103659zM115.69820714025357,93.17525766656334L157.16590745710872,83.72681419328578L156.70932674179102,80.45904535021464z" style="fill:rgb(83,212,212)"/><path d="M130.85120585980195,-142.7456608585676L126.70470938631786,-141.57012909179747L126.98099726194972,-141.55161744027026z" style="fill:rgb(161,4,119)"/><path d="M158.2002147596642,86.34145824338204L157.16590745710872,83.72681419328578L115.69820714025357,93.17525766656334z" style="fill:rgb(127,37,217)"/><path d="M-199.67217665979035,58.7893098334386L-191.72112871450125,23.4682355644035L-192.84346444820673,21.17294427174095zM-192.28801585648242,68.65262994518237L-191.45478644590597,69.76562209239623L-184.33549114353337,28.457180943348565zM156.70932674179102,80.45904535021464L158.2002147596642,86.34145824338204L157.7418802443257,83.07500889907705zM-203.92176592284702,53.11294422431289L-195.41228507365858,8.30645613307384L-195.17476562394498,6.17716018624448zM-200.85739789282945,57.20616479311945L-192.84346444820673,21.17294427174095L-193.80592341259458,18.647481859751654z" style="fill:rgb(247,158,158)"/><path d="M188.45453003827078,80.82376852228131L182.64788580609817,77.39707275271162L184.25330160808463,81.77682684934251z" style="fill:rgb(127,37,217)"/><path d="M-203.78875128237692,53.2906159177173L-195.38887905167266,10.71665813474732L-195.41228507365858,8.30645613307384zM-193.30591954888553,67.2929915006028L-192.28801585648242,68.65262994518237L-185.3949959477316,28.87032203946277zM-201.89939170151703,55.81431650900838L-193.80592341259458,18.647481859751654L-194.569788230935,15.99216036253645zM-203.3951056954643,53.8164341663251L-195.1044629575978,13.312923875634846L-195.38887905167266,10.71665813474732zM156.70932674179102,80.45904535021464L157.16590745710872,83.72681419328578L158.2002147596642,86.34145824338204zM-202.7567307255149,54.66911820278011L-194.569788230935,15.99216036253645L-195.1044629575978,13.312923875634846z" style="fill:rgb(247,158,158)"/><path d="M-189.2262244913834,-107.81839594721438L-222.01518821365102,35.31116307538016L-218.03333500390806,34.26353487912462z" style="fill:rgb(83,212,212)"/><path d="M188.45453003827078,80.82376852228131L186.866703760752,76.43529184401201L182.64788580609817,77.39707275271162z" style="fill:rgb(127,37,217)"/><path d="M-194.47070292032822,65.7371423395855L-193.30591954888553,67.2929915006028L-186.5866793872143,28.76508738985354z" style="fill:rgb(247,158,158)"/><path d="M198.02982512795765,77.29325781530997L157.16590745710872,83.72681419328578L158.2002147596642,86.34145824338204z" style="fill:rgb(127,37,217)"/><path d="M-195.73877387171927,64.04331750166814L-194.47070292032822,65.7371423395855L-187.86530222890235,28.141697390061662zM-197.062213793081,62.275549648048305L-195.73877387171927,64.04331750166814L-189.18157663959607,27.02075150489933zM-198.39042805599206,60.50137659783691L-197.062213793081,62.275549648048305L-190.48404517393908,25.443017826079767z" style="fill:rgb(247,158,158)"/><path d="M198.02982512795765,77.29325781530997L197.0957542194899,74.6287748133874L157.16590745710872,83.72681419328578z" style="fill:rgb(127,37,217)"/><path d="M-199.67217665979035,58.7893098334386L-198.39042805599206,60.50137659783691L-191.72112871450125,23.4682355644035zM-200.85739789282945,57.20616479311945L-199.67217665979035,58.7893098334386L-192.84346444820673,21.17294427174095zM-201.89939170151703,55.81431650900838L-200.85739789282945,57.20616479311945L-193.80592341259458,18.647481859751654z" style="fill:rgb(247,158,158)"/><path d="M-207.84358386104904,54.12175246494149L-203.92176592284702,53.11294422431289L-195.17476562394498,6.17716018624448z" style="fill:rgb(83,212,212)"/><path d="M-202.7567307255149,54.66911820278011L-201.89939170151703,55.81431650900838L-194.569788230935,15.99216036253645zM-203.3951056954643,53.8164341663251L-202.7567307255149,54.66911820278011L-195.1044629575978,13.312923875634846zM-203.92176592284702,53.11294422431289L-203.78875128237692,53.2906159177173L-195.41228507365858,8.30645613307384zM-203.78875128237692,53.2906159177173L-203.3951056954643,53.8164341663251L-195.38887905167266,10.71665813474732z" style="fill:rgb(247,158,158)"/><path d="M-203.92176592284702,53.11294422431289L-194.1921116044446,72.24194506410068L-190.32864593087479,71.26984128872989zM-203.92176592284702,53.11294422431289L-207.84358386104904,54.12175246494149L-194.1921116044446,72.24194506410068z" style="fill:rgb(127,37,217)"/><path d="M149.6775835530052,-62.48138547098228L211.44760727094376,115.56825871547434L210.8536965736945,112.31937766082021zM137.74050392873926,-59.34072706952342L125.4295497923012,-177.60503101841033L118.09195297154803,-199.390129026102z" style="fill:rgb(247,158,158)"/><path d="M-203.92176592284702,53.11294422431289L-222.01518821365102,35.31116307538016L-207.84358386104904,54.12175246494149z" style="fill:rgb(127,37,217)"/><path d="M118.09195297154803,-199.390129026102L114.03301066126436,-198.18067896777026L132.98465398084136,-58.08946601039817z" style="fill:rgb(83,212,212)"/><path d="M185.9070214832203,73.78290844181257L149.09667702705266,-14.134178170207235L181.67757952658977,74.74998050073917zM-203.92176592284702,53.11294422431289L-218.03333500390806,34.26353487912462L-222.01518821365102,35.31116307538016z" style="fill:rgb(127,37,217)"/><path d="M149.09667702705266,-14.134178170207235L153.67980012962636,-15.28735497152388L132.51395997529258,-156.57163494481972z" style="fill:rgb(83,212,212)"/><path d="M146.65256085835105,-62.19494827290846L142.28610736894206,-61.045598202642566L142.49617690001918,-59.30300053028495zM146.65256085835105,-62.19494827290846L142.49617690001918,-59.30300053028495L146.8723273993855,-60.45301913659641z" style="fill:rgb(84,220,202)"/><path d="M146.8723273993855,-60.45301913659641L142.49617690001918,-59.30300053028495L142.55421002696818,-58.0249304223062zM146.8723273993855,-60.45301913659641L142.55421002696818,-58.0249304223062L146.94119027616935,-59.17644057569598z" style="fill:rgb(85,234,182)"/><path d="M146.94119027616935,-59.17644057569598L142.55421002696818,-58.0249304223062L142.4568859218187,-57.26316821831124zM146.94119027616935,-59.17644057569598L142.4568859218187,-57.26316821831124L146.85542578733816,-58.41694527984497z" style="fill:rgb(89,244,159)"/><path d="M146.85542578733816,-58.41694527984497L142.4568859218187,-57.26316821831124L142.20670464735852,-57.05084913199747zM146.85542578733816,-58.41694527984497L142.20670464735852,-57.05084913199747L146.61709725041322,-58.20758081656511z" style="fill:rgb(93,250,135)"/><path d="M153.60628121738185,-15.490541696821293L146.65256085835105,-62.19494827290846L146.8723273993855,-60.45301913659641z" style="fill:rgb(247,158,158)"/><path d="M185.9070214832203,73.78290844181257L153.67980012962636,-15.28735497152388L149.09667702705266,-14.134178170207235z" style="fill:rgb(127,37,217)"/><path d="M153.388393873749,-16.092762052984106L146.8723273993855,-60.45301913659641L146.94119027616935,-59.17644057569598zM153.03402128212198,-17.07217511116511L146.94119027616935,-59.17644057569598L146.85542578733816,-58.41694527984497z" style="fill:rgb(247,158,158)"/><path d="M197.0957542194899,74.6287748133874L150.17875149184118,-59.204579524710915L-228.66687091224912,40.16217992196055z" style="fill:rgb(127,37,217)"/><path d="M152.55608211889256,-18.393103888290714L146.85542578733816,-58.41694527984497L146.61709725041322,-58.20758081656511zM151.9721080083852,-20.007132517853634L146.61709725041322,-58.20758081656511L146.2341328340197,-58.560932253765074zM137.74050392873926,-59.34072706952342L145.87286732147106,-36.86432649696104L125.4295497923012,-177.60503101841033zM151.30367053875756,-21.854568965496682L146.2341328340197,-58.560932253765074L145.7201902221418,-59.46785964446648zM150.5757316146949,-23.866444086186643L145.7201902221418,-59.46785964446648L145.09434824609127,-60.89723627084173z" style="fill:rgb(247,158,158)"/><path d="M-228.66687091224912,40.16217992196055L149.6775835530052,-62.48138547098228L-227.972449412951,36.87852695215917z" style="fill:rgb(83,212,212)"/><path d="M153.60628121738185,-15.490541696821293L153.67980012962636,-15.28735497152388L146.65256085835105,-62.19494827290846zM149.81578537806718,-25.966820093238212L145.09434824609127,-60.89723627084173L144.38045855976142,-62.79653501519711zM153.388393873749,-16.092762052984106L153.60628121738185,-15.490541696821293L146.8723273993855,-60.45301913659641zM149.05282473619872,-28.075493995393558L144.38045855976142,-62.79653501519711L143.60622828271232,-65.09343296584015zM153.03402128212198,-17.07217511116511L153.388393873749,-16.092762052984106L146.94119027616935,-59.17644057569598z" style="fill:rgb(247,158,158)"/><path d="M141.20496615437173,-35.66360686048078L139.07277451081856,-83.67913094787366L134.62946278419062,-82.48463017483782z" style="fill:rgb(83,212,212)"/><path d="M148.31633749252666,-30.11099862937471L143.60622828271232,-65.09343296584015L142.80218138055073,-67.69851541700773zM152.55608211889256,-18.393103888290714L153.03402128212198,-17.07217511116511L146.85542578733816,-58.41694527984497zM145.87286732147106,-36.86432649696104L139.42873327018745,-81.52980184010956L139.07277451081856,-83.67913094787366zM147.63511403416393,-31.993803129788965L142.80218138055073,-67.69851541700773L142.00034756331476,-70.50883996367719zM145.94939092486464,-36.652839102734845L139.9209370865783,-79.03497229021035L139.42873327018745,-81.52980184010956zM151.9721080083852,-20.007132517853634L152.55608211889256,-18.393103888290714L146.61709725041322,-58.20758081656511zM147.0360329847663,-33.64955292481505L142.00034756331476,-70.50883996367719L141.23280280492028,-73.41234864843152zM146.17582792345115,-36.02698503310024L140.53032052849755,-76.29280526689962L139.9209370865783,-79.03497229021035zM146.5429983666945,-35.01220117955393L141.23280280492028,-73.41234864843152L140.53032052849755,-76.29280526689962zM149.6775835530052,-62.48138547098228L150.17875149184118,-59.204579524710915L211.44760727094376,115.56825871547434z" style="fill:rgb(247,158,158)"/><path d="M118.09195297154803,-199.390129026102L132.98465398084136,-58.08946601039817L137.74050392873926,-59.34072706952342z" style="fill:rgb(83,212,212)"/><path d="M151.30367053875756,-21.854568965496682L151.9721080083852,-20.007132517853634L146.2341328340197,-58.560932253765074zM150.5757316146949,-23.866444086186643L151.30367053875756,-21.854568965496682L145.7201902221418,-59.46785964446648zM149.81578537806718,-25.966820093238212L150.5757316146949,-23.866444086186643L145.09434824609127,-60.89723627084173zM149.05282473619872,-28.075493995393558L149.81578537806718,-25.966820093238212L144.38045855976142,-62.79653501519711zM148.31633749252666,-30.11099862937471L149.05282473619872,-28.075493995393558L143.60622828271232,-65.09343296584015zM147.63511403416393,-31.993803129788965L148.31633749252666,-30.11099862937471L142.80218138055073,-67.69851541700773zM147.0360329847663,-33.64955292481505L147.63511403416393,-31.993803129788965L142.00034756331476,-70.50883996367719z" style="fill:rgb(247,158,158)"/><path d="M141.20496615437173,-35.66360686048078L145.87286732147106,-36.86432649696104L139.07277451081856,-83.67913094787366z" style="fill:rgb(83,212,212)"/><path d="M146.5429983666945,-35.01220117955393L147.0360329847663,-33.64955292481505L141.23280280492028,-73.41234864843152zM146.17582792345115,-36.02698503310024L146.5429983666945,-35.01220117955393L140.53032052849755,-76.29280526689962zM145.87286732147106,-36.86432649696104L145.94939092486464,-36.652839102734845L139.42873327018745,-81.52980184010956zM145.94939092486464,-36.652839102734845L146.17582792345115,-36.02698503310024L139.9209370865783,-79.03497229021035z" style="fill:rgb(247,158,158)"/><path d="M145.87286732147106,-36.86432649696104L149.09667702705266,-14.134178170207235L153.67980012962636,-15.28735497152388zM145.87286732147106,-36.86432649696104L141.20496615437173,-35.66360686048078L149.09667702705266,-14.134178170207235z" style="fill:rgb(127,37,217)"/><path d="M-228.66687091224912,40.16217992196055L150.17875149184118,-59.204579524710915L149.6775835530052,-62.48138547098228z" style="fill:rgb(83,212,212)"/><path d="M145.87286732147106,-36.86432649696104L132.98465398084136,-58.08946601039817L141.20496615437173,-35.66360686048078zM145.87286732147106,-36.86432649696104L137.74050392873926,-59.34072706952342L132.98465398084136,-58.08946601039817z" style="fill:rgb(127,37,217)"/></svg>
