solid JSxCAD
facet normal 0 1 0
outer loop
vertex -260 144 90
vertex 260 144 96
vertex 260 144 90
endloop
endfacet
facet normal 0 1 0
outer loop
vertex 260 144 96
vertex -260 144 90
vertex -260 144 96
endloop
endfacet
facet normal 0 -1 0
outer loop
vertex -260 -150 96
vertex 260 -150 90
vertex 260 -150 96
endloop
endfacet
facet normal 0 -1 0
outer loop
vertex 260 -150 90
vertex -260 -150 96
vertex -260 -150 90
endloop
endfacet
facet normal 0 0 1
outer loop
vertex -260 144 96
vertex 260 -150 96
vertex 260 144 96
endloop
endfacet
facet normal 0 0 1
outer loop
vertex 260 -150 96
vertex -260 144 96
vertex -260 -150 96
endloop
endfacet
facet normal 0 0 -1
outer loop
vertex -260 -150 90
vertex 260 144 90
vertex 260 -150 90
endloop
endfacet
facet normal 0 0 -1
outer loop
vertex 260 144 90
vertex -260 -150 90
vertex -260 144 90
endloop
endfacet
facet normal -1 0 0
outer loop
vertex -260 -150 90
vertex -260 144 96
vertex -260 144 90
endloop
endfacet
facet normal -1 0 0
outer loop
vertex -260 144 96
vertex -260 -150 90
vertex -260 -150 96
endloop
endfacet
facet normal 1 0 0
outer loop
vertex 260 -150 90
vertex 260 144 96
vertex 260 -150 96
endloop
endfacet
facet normal 1 0 0
outer loop
vertex 260 144 96
vertex 260 -150 90
vertex 260 144 90
endloop
endfacet
facet normal 0 1 0
outer loop
vertex -260 144 0
vertex 260 144 6
vertex 260 144 0
endloop
endfacet
facet normal 0 1 0
outer loop
vertex 260 144 6
vertex -260 144 0
vertex -260 144 6
endloop
endfacet
facet normal 0 -1 0
outer loop
vertex -260 -150 6
vertex 260 -150 0
vertex 260 -150 6
endloop
endfacet
facet normal 0 -1 0
outer loop
vertex 260 -150 0
vertex -260 -150 6
vertex -260 -150 0
endloop
endfacet
facet normal 0 0 1
outer loop
vertex -260 144 6
vertex 260 -150 6
vertex 260 144 6
endloop
endfacet
facet normal 0 0 1
outer loop
vertex 260 -150 6
vertex -260 144 6
vertex -260 -150 6
endloop
endfacet
facet normal 0 0 -1
outer loop
vertex -260 -150 0
vertex 260 144 0
vertex 260 -150 0
endloop
endfacet
facet normal 0 0 -1
outer loop
vertex 260 144 0
vertex -260 -150 0
vertex -260 144 0
endloop
endfacet
facet normal -1 0 0
outer loop
vertex -260 -150 0
vertex -260 144 6
vertex -260 144 0
endloop
endfacet
facet normal -1 0 0
outer loop
vertex -260 144 6
vertex -260 -150 0
vertex -260 -150 6
endloop
endfacet
facet normal 1 0 0
outer loop
vertex 260 144 6
vertex 260 -150 0
vertex 260 144 0
endloop
endfacet
facet normal 1 0 0
outer loop
vertex 260 -150 0
vertex 260 144 6
vertex 260 -150 6
endloop
endfacet
facet normal -1 0 0
outer loop
vertex -229 150 236.5
vertex -229 144 360
vertex -229 150 360
endloop
endfacet
facet normal -1 0 0
outer loop
vertex -229 150 230
vertex -229 144 360
vertex -229 150 236.5
endloop
endfacet
facet normal -1 0 0
outer loop
vertex -229 150 100
vertex -229 144 360
vertex -229 150 230
endloop
endfacet
facet normal -1 0 0
outer loop
vertex -229 144 360
vertex -229 150 100
vertex -229 144 100
endloop
endfacet
facet normal 1 0 0
outer loop
vertex -235 144 360
vertex -235 150 236.5
vertex -235 150 360
endloop
endfacet
facet normal 1 0 0
outer loop
vertex -235 144 360
vertex -235 150 230
vertex -235 150 236.5
endloop
endfacet
facet normal 1 0 0
outer loop
vertex -235 144 100
vertex -235 150 230
vertex -235 144 360
endloop
endfacet
facet normal 1 0 0
outer loop
vertex -235 150 230
vertex -235 144 100
vertex -235 150 100
endloop
endfacet
facet normal 0 0 1
outer loop
vertex -235 150 100
vertex -229 144 100
vertex -229 150 100
endloop
endfacet
facet normal 0 0 1
outer loop
vertex -229 144 100
vertex -235 150 100
vertex -235 144 100
endloop
endfacet
facet normal 0 0 1
outer loop
vertex 235 144 100
vertex 241 150 100
vertex 235 150 100
endloop
endfacet
facet normal 0 0 1
outer loop
vertex 241 150 100
vertex 235 144 100
vertex 241 144 100
endloop
endfacet
facet normal -1 0 0
outer loop
vertex 241 150 236.5
vertex 241 144 360
vertex 241 150 360
endloop
endfacet
facet normal -1 0 0
outer loop
vertex 241 150 230
vertex 241 144 360
vertex 241 150 236.5
endloop
endfacet
facet normal -1 0 0
outer loop
vertex 241 150 100
vertex 241 144 360
vertex 241 150 230
endloop
endfacet
facet normal -1 0 0
outer loop
vertex 241 144 360
vertex 241 150 100
vertex 241 144 100
endloop
endfacet
facet normal 1 0 0
outer loop
vertex 235 144 360
vertex 235 150 100
vertex 235 150 360
endloop
endfacet
facet normal 1 0 0
outer loop
vertex 235 150 100
vertex 235 144 360
vertex 235 144 100
endloop
endfacet
facet normal 0 0 1
outer loop
vertex 241 150 360
vertex 260 144 360
vertex 260 150 360
endloop
endfacet
facet normal 0 0 1
outer loop
vertex 260 144 360
vertex 241 150 360
vertex 241 144 360
endloop
endfacet
facet normal 0 0 1
outer loop
vertex -229 150 360
vertex 235 144 360
vertex 235 150 360
endloop
endfacet
facet normal 0 0 1
outer loop
vertex 235 144 360
vertex -229 150 360
vertex -229 144 360
endloop
endfacet
facet normal 0 0 1
outer loop
vertex -260 150 360
vertex -235 144 360
vertex -235 150 360
endloop
endfacet
facet normal 0 0 1
outer loop
vertex -235 144 360
vertex -260 150 360
vertex -260 144 360
endloop
endfacet
facet normal 1 0 0
outer loop
vertex 260 144 100
vertex 260 150 360
vertex 260 144 360
endloop
endfacet
facet normal 1 0 0
outer loop
vertex 260 144 100
vertex 260 150 100
vertex 260 150 360
endloop
endfacet
facet normal 1 0 0
outer loop
vertex 260 144 96
vertex 260 150 100
vertex 260 144 100
endloop
endfacet
facet normal 1 0 0
outer loop
vertex 260 144 90
vertex 260 150 100
vertex 260 144 96
endloop
endfacet
facet normal 1 0 0
outer loop
vertex 260 144 6
vertex 260 150 100
vertex 260 144 90
endloop
endfacet
facet normal 1 0 0
outer loop
vertex 260 144 0
vertex 260 150 100
vertex 260 144 6
endloop
endfacet
facet normal 1 0 0
outer loop
vertex 260 150 100
vertex 260 144 0
vertex 260 150 0
endloop
endfacet
facet normal 0 0 -1
outer loop
vertex -260 144 0
vertex 260 150 0
vertex 260 144 0
endloop
endfacet
facet normal 0 0 -1
outer loop
vertex 260 150 0
vertex -260 144 0
vertex -260 150 0
endloop
endfacet
facet normal 0 -1 0
outer loop
vertex -260 144 360
vertex -235 144 100
vertex -235 144 360
endloop
endfacet
facet normal 0 -1 0
outer loop
vertex -235 144 100
vertex -260 144 360
vertex -260 144 100
endloop
endfacet
facet normal 0 -0.9999999999999999 0
outer loop
vertex 235 144 360
vertex -229 144 100
vertex 235 144 100
endloop
endfacet
facet normal 0 -0.9999999999999999 0
outer loop
vertex -229 144 100
vertex 235 144 360
vertex -229 144 360
endloop
endfacet
facet normal 0 -1 0
outer loop
vertex 260 144 360
vertex 241 144 100
vertex 260 144 100
endloop
endfacet
facet normal 0 -1 0
outer loop
vertex 241 144 100
vertex 260 144 360
vertex 241 144 360
endloop
endfacet
facet normal 0 -1 0
outer loop
vertex 241 144 100
vertex 260 144 6
vertex 260 144 100
endloop
endfacet
facet normal 0 -1 0
outer loop
vertex 241 144 100
vertex 260 144 0
vertex 260 144 6
endloop
endfacet
facet normal 0 -1 0
outer loop
vertex 235 144 100
vertex 260 144 0
vertex 241 144 100
endloop
endfacet
facet normal 0 -0.9999999999999999 0
outer loop
vertex -229 144 100
vertex 260 144 0
vertex 235 144 100
endloop
endfacet
facet normal 0 -1 0
outer loop
vertex -235 144 100
vertex 260 144 0
vertex -229 144 100
endloop
endfacet
facet normal 0 -1 0
outer loop
vertex -260 144 100
vertex 260 144 0
vertex -235 144 100
endloop
endfacet
facet normal 0 -1 0
outer loop
vertex -260 144 96
vertex 260 144 0
vertex -260 144 100
endloop
endfacet
facet normal 0 -1 0
outer loop
vertex -260 144 90
vertex 260 144 0
vertex -260 144 96
endloop
endfacet
facet normal 0 -1 0
outer loop
vertex -260 144 6
vertex 260 144 0
vertex -260 144 90
endloop
endfacet
facet normal 0 -1 0
outer loop
vertex 260 144 0
vertex -260 144 6
vertex -260 144 0
endloop
endfacet
facet normal 0 1 0
outer loop
vertex 241 150 100
vertex -260 150 0
vertex -235 150 100
endloop
endfacet
facet normal 0 1 0
outer loop
vertex 260 150 100
vertex -260 150 0
vertex 241 150 100
endloop
endfacet
facet normal 0 1 0
outer loop
vertex -260 150 0
vertex 260 150 100
vertex 260 150 0
endloop
endfacet
facet normal 0 1 0
outer loop
vertex 235 150 236.5
vertex -229 150 360
vertex 235 150 360
endloop
endfacet
facet normal 0 1 0
outer loop
vertex 235 150 236.5
vertex -229 150 236.5
vertex -229 150 360
endloop
endfacet
facet normal 0 1 0
outer loop
vertex 235 150 230
vertex -229 150 236.5
vertex 235 150 236.5
endloop
endfacet
facet normal 0 1 0
outer loop
vertex 235 150 230
vertex -229 150 230
vertex -229 150 236.5
endloop
endfacet
facet normal 0 0.9999999999999999 0
outer loop
vertex 235 150 100
vertex -229 150 230
vertex 235 150 230
endloop
endfacet
facet normal 0 0.9999999999999999 0
outer loop
vertex -229 150 230
vertex 235 150 100
vertex -229 150 100
endloop
endfacet
facet normal 0 0.9999999999999999 0
outer loop
vertex 260 150 360
vertex 241 150 236.5
vertex 241 150 360
endloop
endfacet
facet normal 0 1 0
outer loop
vertex 260 150 360
vertex 241 150 230
vertex 241 150 236.5
endloop
endfacet
facet normal 0 1 0
outer loop
vertex 260 150 100
vertex 241 150 230
vertex 260 150 360
endloop
endfacet
facet normal 0 1 0
outer loop
vertex 241 150 230
vertex 260 150 100
vertex 241 150 100
endloop
endfacet
facet normal 0 1 0
outer loop
vertex -235 150 236.5
vertex -260 150 360
vertex -235 150 360
endloop
endfacet
facet normal 0 1 0
outer loop
vertex -235 150 230
vertex -260 150 360
vertex -235 150 236.5
endloop
endfacet
facet normal 0 1 0
outer loop
vertex -235 150 230
vertex -260 150 100
vertex -260 150 360
endloop
endfacet
facet normal 0 1 0
outer loop
vertex -260 150 100
vertex -235 150 230
vertex -235 150 100
endloop
endfacet
facet normal 0 1 0
outer loop
vertex -260 150 100
vertex -235 150 100
vertex -260 150 0
endloop
endfacet
facet normal -1 0 0
outer loop
vertex -260 144 0
vertex -260 150 360
vertex -260 150 0
endloop
endfacet
facet normal -1 0 0
outer loop
vertex -260 144 6
vertex -260 150 360
vertex -260 144 0
endloop
endfacet
facet normal -1 0 0
outer loop
vertex -260 144 90
vertex -260 150 360
vertex -260 144 6
endloop
endfacet
facet normal -1 0 0
outer loop
vertex -260 144 96
vertex -260 150 360
vertex -260 144 90
endloop
endfacet
facet normal -1 0 0
outer loop
vertex -260 144 100
vertex -260 150 360
vertex -260 144 96
endloop
endfacet
facet normal -1 0 0
outer loop
vertex -260 150 360
vertex -260 144 100
vertex -260 144 360
endloop
endfacet
facet normal -1 0 0
outer loop
vertex -260 -150 96
vertex -260 -156 360
vertex -260 -150 360
endloop
endfacet
facet normal -1 0 0
outer loop
vertex -260 -150 90
vertex -260 -156 360
vertex -260 -150 96
endloop
endfacet
facet normal -1 0 0
outer loop
vertex -260 -150 6
vertex -260 -156 360
vertex -260 -150 90
endloop
endfacet
facet normal -1 0 0
outer loop
vertex -260 -150 0
vertex -260 -156 360
vertex -260 -150 6
endloop
endfacet
facet normal -1 0 0
outer loop
vertex -260 -156 360
vertex -260 -150 0
vertex -260 -156 0
endloop
endfacet
facet normal 0 0 1
outer loop
vertex -260 -150 360
vertex 260 -156 360
vertex 260 -150 360
endloop
endfacet
facet normal 0 0 1
outer loop
vertex 260 -156 360
vertex -260 -150 360
vertex -260 -156 360
endloop
endfacet
facet normal 1 0 0
outer loop
vertex 260 -156 360
vertex 260 -150 0
vertex 260 -150 6
endloop
endfacet
facet normal 1 0 0
outer loop
vertex 260 -150 0
vertex 260 -156 360
vertex 260 -156 0
endloop
endfacet
facet normal 1 0 0
outer loop
vertex 260 -150 96
vertex 260 -156 360
vertex 260 -150 6
endloop
endfacet
facet normal 1 0 0
outer loop
vertex 260 -156 360
vertex 260 -150 96
vertex 260 -150 360
endloop
endfacet
facet normal 0 0 -1
outer loop
vertex -260 -156 0
vertex 260 -150 0
vertex 260 -156 0
endloop
endfacet
facet normal 0 0 -1
outer loop
vertex 260 -150 0
vertex -260 -156 0
vertex -260 -150 0
endloop
endfacet
facet normal 0 -1 0
outer loop
vertex -260 -156 360
vertex 260 -156 0
vertex 260 -156 360
endloop
endfacet
facet normal 0 -1 0
outer loop
vertex 260 -156 0
vertex -260 -156 360
vertex -260 -156 0
endloop
endfacet
facet normal 0 1 0
outer loop
vertex 260 -150 0
vertex -260 -150 360
vertex 260 -150 96
endloop
endfacet
facet normal 0 1 0
outer loop
vertex -260 -150 0
vertex -260 -150 360
vertex 260 -150 0
endloop
endfacet
facet normal 0 1 0
outer loop
vertex 260 -150 360
vertex 260 -150 96
vertex -260 -150 360
endloop
endfacet
facet normal 0 1 0
outer loop
vertex -229 0 230.5
vertex -235 0 236.5
vertex -229 0 236.5
endloop
endfacet
facet normal 0 1 0
outer loop
vertex -229 0 230.5
vertex -235 0 230.5
vertex -235 0 236.5
endloop
endfacet
facet normal 0 1 0
outer loop
vertex -229 0 230
vertex -235 0 230.5
vertex -229 0 230.5
endloop
endfacet
facet normal 0 1 0
outer loop
vertex -235 0 230.5
vertex -229 0 230
vertex -235 0 230
endloop
endfacet
facet normal 0 -1 0
outer loop
vertex -235 60 236.5
vertex -229 60 230
vertex -229 60 236.5
endloop
endfacet
facet normal 0 -1 0
outer loop
vertex -235 60 230.5
vertex -229 60 230
vertex -235 60 236.5
endloop
endfacet
facet normal 0 -1 0
outer loop
vertex -229 60 230
vertex -235 60 230.5
vertex -235 60 230
endloop
endfacet
facet normal 0 0 1
outer loop
vertex -235 60 230
vertex -229 0 230
vertex -229 60 230
endloop
endfacet
facet normal 0 0 1
outer loop
vertex -229 0 230
vertex -235 60 230
vertex -235 0 230
endloop
endfacet
facet normal 0 0 -1
outer loop
vertex -229 60 236.5
vertex -235 0 236.5
vertex -235 60 236.5
endloop
endfacet
facet normal 0 0 -1
outer loop
vertex -235 0 236.5
vertex -229 60 236.5
vertex -229 0 236.5
endloop
endfacet
facet normal 0 -1 0
outer loop
vertex -229 -150 360
vertex -235 -150 360
vertex -235 -150 236.5
endloop
endfacet
facet normal 0 -1 0
outer loop
vertex -235 -150 236.5
vertex -229 -150 100
vertex -229 -150 360
endloop
endfacet
facet normal 0 -1 0
outer loop
vertex -235 -150 230
vertex -229 -150 100
vertex -235 -150 236.5
endloop
endfacet
facet normal 0 -1 0
outer loop
vertex -229 -150 100
vertex -235 -150 230
vertex -235 -150 100
endloop
endfacet
facet normal 0 0 1
outer loop
vertex -235 150 360
vertex -229 144 360
vertex -229 150 360
endloop
endfacet
facet normal 0 0 1
outer loop
vertex -235 150 360
vertex -229 -150 360
vertex -229 144 360
endloop
endfacet
facet normal 0 0 1
outer loop
vertex -229 -150 360
vertex -235 150 360
vertex -235 -150 360
endloop
endfacet
facet normal 1 0 0
outer loop
vertex -229 150 236.5
vertex -229 60 230.5
vertex -229 150 230
endloop
endfacet
facet normal 1 0 0
outer loop
vertex -229 60 230.5
vertex -229 150 236.5
vertex -229 60 236.5
endloop
endfacet
facet normal 1 0 0
outer loop
vertex -229 144 360
vertex -229 150 236.5
vertex -229 150 360
endloop
endfacet
facet normal 1 0 0
outer loop
vertex -229 144 360
vertex -229 60 236.5
vertex -229 150 236.5
endloop
endfacet
facet normal 1 0 0
outer loop
vertex -229 144 360
vertex -229 0 236.5
vertex -229 60 236.5
endloop
endfacet
facet normal 0.9999999999999999 0 0
outer loop
vertex -229 -150 360
vertex -229 0 236.5
vertex -229 144 360
endloop
endfacet
facet normal 1 0 0
outer loop
vertex -229 0 236.5
vertex -229 -150 360
vertex -229 -150 236.5
endloop
endfacet
facet normal 1 0 0
outer loop
vertex -229 150 230
vertex -229 144 100
vertex -229 150 100
endloop
endfacet
facet normal 1 0 0
outer loop
vertex -229 60 230
vertex -229 144 100
vertex -229 150 230
endloop
endfacet
facet normal 1 0 0
outer loop
vertex -229 0 230
vertex -229 144 100
vertex -229 60 230
endloop
endfacet
facet normal 1 0 0
outer loop
vertex -229 -150 230
vertex -229 144 100
vertex -229 0 230
endloop
endfacet
facet normal 1 0 0
outer loop
vertex -229 144 100
vertex -229 -150 230
vertex -229 -150 100
endloop
endfacet
facet normal 1 0 0
outer loop
vertex -229 150 230
vertex -229 60 230.5
vertex -229 60 230
endloop
endfacet
facet normal 1 0 0
outer loop
vertex -229 -150 236.5
vertex -229 0 230
vertex -229 0 236.5
endloop
endfacet
facet normal 1 0 0
outer loop
vertex -229 0 230
vertex -229 -150 236.5
vertex -229 -150 230
endloop
endfacet
facet normal -1 0 0
outer loop
vertex -235 -150 230
vertex -235 0 236.5
vertex -235 0 230
endloop
endfacet
facet normal -1 0 0
outer loop
vertex -235 0 236.5
vertex -235 -150 230
vertex -235 -150 236.5
endloop
endfacet
facet normal -1 0 0
outer loop
vertex -235 150 230
vertex -235 60 230.5
vertex -235 150 236.5
endloop
endfacet
facet normal -1 0 0
outer loop
vertex -235 60 230.5
vertex -235 150 230
vertex -235 60 230
endloop
endfacet
facet normal -1 0 0
outer loop
vertex -235 144 100
vertex -235 150 230
vertex -235 150 100
endloop
endfacet
facet normal -1 0 0
outer loop
vertex -235 144 100
vertex -235 60 230
vertex -235 150 230
endloop
endfacet
facet normal -1 0 0
outer loop
vertex -235 144 100
vertex -235 0 230
vertex -235 60 230
endloop
endfacet
facet normal -1 0 0
outer loop
vertex -235 144 100
vertex -235 -150 230
vertex -235 0 230
endloop
endfacet
facet normal -1 0 0
outer loop
vertex -235 -150 230
vertex -235 144 100
vertex -235 -150 100
endloop
endfacet
facet normal -1 0 0
outer loop
vertex -235 60 236.5
vertex -235 150 360
vertex -235 150 236.5
endloop
endfacet
facet normal -1 0 0
outer loop
vertex -235 0 236.5
vertex -235 150 360
vertex -235 60 236.5
endloop
endfacet
facet normal -1 0 0
outer loop
vertex -235 0 236.5
vertex -235 -150 360
vertex -235 150 360
endloop
endfacet
facet normal -1 0 0
outer loop
vertex -235 -150 360
vertex -235 0 236.5
vertex -235 -150 236.5
endloop
endfacet
facet normal -1 0 0
outer loop
vertex -235 150 236.5
vertex -235 60 230.5
vertex -235 60 236.5
endloop
endfacet
facet normal 0 0 -1
outer loop
vertex -229 144 100
vertex -235 150 100
vertex -229 150 100
endloop
endfacet
facet normal 0 0 -1
outer loop
vertex -229 144 100
vertex -235 144 100
vertex -235 150 100
endloop
endfacet
facet normal 0 0 -1
outer loop
vertex -229 -150 100
vertex -235 144 100
vertex -229 144 100
endloop
endfacet
facet normal 0 0 -1
outer loop
vertex -235 144 100
vertex -229 -150 100
vertex -235 -150 100
endloop
endfacet
facet normal 0 1 0
outer loop
vertex -235 150 100
vertex -229 150 360
vertex -229 150 100
endloop
endfacet
facet normal 0 1 0
outer loop
vertex -235 150 100
vertex -235 150 360
vertex -229 150 360
endloop
endfacet
facet normal 0 0 1
outer loop
vertex -235 60 230.5
vertex -229 0 230.5
vertex -229 60 230.5
endloop
endfacet
facet normal 0 0 1
outer loop
vertex -229 0 230.5
vertex -235 60 230.5
vertex -235 0 230.5
endloop
endfacet
facet normal 0 -1 0
outer loop
vertex -235 0 230
vertex -229 0 230.5
vertex -235 0 230.5
endloop
endfacet
facet normal 0 -1 0
outer loop
vertex -229 0 230.5
vertex -235 0 230
vertex -229 0 230
endloop
endfacet
facet normal 0 1 0
outer loop
vertex -235 60 230
vertex -229 60 230.5
vertex -229 60 230
endloop
endfacet
facet normal 0 1 0
outer loop
vertex -229 60 230.5
vertex -235 60 230
vertex -235 60 230.5
endloop
endfacet
facet normal 0 0 -1
outer loop
vertex -229 60 230
vertex -235 0 230
vertex -235 60 230
endloop
endfacet
facet normal 0 0 -1
outer loop
vertex -235 0 230
vertex -229 60 230
vertex -229 0 230
endloop
endfacet
facet normal 1 0 0
outer loop
vertex -229 0 230.5
vertex -229 60 230
vertex -229 60 230.5
endloop
endfacet
facet normal 1 0 0
outer loop
vertex -229 60 230
vertex -229 0 230.5
vertex -229 0 230
endloop
endfacet
facet normal -1 0 0
outer loop
vertex -235 0 230
vertex -235 60 230.5
vertex -235 60 230
endloop
endfacet
facet normal -1 0 0
outer loop
vertex -235 60 230.5
vertex -235 0 230
vertex -235 0 230.5
endloop
endfacet
facet normal 0 -1 0
outer loop
vertex -235 0 236.5
vertex -229 0 230.5
vertex -229 0 236.5
endloop
endfacet
facet normal 0 -1 0
outer loop
vertex -229 0 230.5
vertex -235 0 236.5
vertex -235 0 230.5
endloop
endfacet
facet normal 0 0 1
outer loop
vertex -235 60 236.5
vertex -229 0 236.5
vertex -229 60 236.5
endloop
endfacet
facet normal 0 0 1
outer loop
vertex -229 0 236.5
vertex -235 60 236.5
vertex -235 0 236.5
endloop
endfacet
facet normal 0 1 0
outer loop
vertex -235 60 230.5
vertex -229 60 236.5
vertex -229 60 230.5
endloop
endfacet
facet normal 0 1 0
outer loop
vertex -229 60 236.5
vertex -235 60 230.5
vertex -235 60 236.5
endloop
endfacet
facet normal 0 0 -1
outer loop
vertex -229 60 230.5
vertex -235 0 230.5
vertex -235 60 230.5
endloop
endfacet
facet normal 0 0 -1
outer loop
vertex -235 0 230.5
vertex -229 60 230.5
vertex -229 0 230.5
endloop
endfacet
facet normal 1 0 0
outer loop
vertex -229 0 236.5
vertex -229 60 230.5
vertex -229 60 236.5
endloop
endfacet
facet normal 1 0 0
outer loop
vertex -229 60 230.5
vertex -229 0 236.5
vertex -229 0 230.5
endloop
endfacet
facet normal -1 0 0
outer loop
vertex -235 60 230.5
vertex -235 0 236.5
vertex -235 60 236.5
endloop
endfacet
facet normal -1 0 0
outer loop
vertex -235 0 236.5
vertex -235 60 230.5
vertex -235 0 230.5
endloop
endfacet
facet normal 0 -1 0
outer loop
vertex -235 0 86
vertex -229 0 80
vertex -229 0 86
endloop
endfacet
facet normal 0 -1 0
outer loop
vertex -229 0 80
vertex -235 0 86
vertex -235 0 80
endloop
endfacet
facet normal 0 0 1
outer loop
vertex -235 60 86
vertex -229 0 86
vertex -229 60 86
endloop
endfacet
facet normal 0 0 1
outer loop
vertex -229 0 86
vertex -235 60 86
vertex -235 0 86
endloop
endfacet
facet normal 0 1 0
outer loop
vertex -235 60 80
vertex -229 60 86
vertex -229 60 80
endloop
endfacet
facet normal 0 1 0
outer loop
vertex -229 60 86
vertex -235 60 80
vertex -235 60 86
endloop
endfacet
facet normal 0 0 -1
outer loop
vertex -229 60 80
vertex -235 0 80
vertex -235 60 80
endloop
endfacet
facet normal 0 0 -1
outer loop
vertex -235 0 80
vertex -229 60 80
vertex -229 0 80
endloop
endfacet
facet normal 1 0 0
outer loop
vertex -229 0 86
vertex -229 60 80
vertex -229 60 86
endloop
endfacet
facet normal 1 0 0
outer loop
vertex -229 60 80
vertex -229 0 86
vertex -229 0 80
endloop
endfacet
facet normal -1 0 0
outer loop
vertex -235 60 80
vertex -235 0 86
vertex -235 60 86
endloop
endfacet
facet normal -1 0 0
outer loop
vertex -235 0 86
vertex -235 60 80
vertex -235 0 80
endloop
endfacet
facet normal 0 1 0
outer loop
vertex 241 0 230.5
vertex 235 0 236.5
vertex 241 0 236.5
endloop
endfacet
facet normal 0 1 0
outer loop
vertex 241 0 230.5
vertex 235 0 230.5
vertex 235 0 236.5
endloop
endfacet
facet normal 0 1 0
outer loop
vertex 241 0 230
vertex 235 0 230.5
vertex 241 0 230.5
endloop
endfacet
facet normal 0 1 0
outer loop
vertex 235 0 230.5
vertex 241 0 230
vertex 235 0 230
endloop
endfacet
facet normal 0 -1 0
outer loop
vertex 235 60 236.5
vertex 241 60 230
vertex 241 60 236.5
endloop
endfacet
facet normal 0 -1 0
outer loop
vertex 235 60 230.5
vertex 241 60 230
vertex 235 60 236.5
endloop
endfacet
facet normal 0 -1 0
outer loop
vertex 241 60 230
vertex 235 60 230.5
vertex 235 60 230
endloop
endfacet
facet normal 0 0 1
outer loop
vertex 235 60 230
vertex 241 0 230
vertex 241 60 230
endloop
endfacet
facet normal 0 0 1
outer loop
vertex 241 0 230
vertex 235 60 230
vertex 235 0 230
endloop
endfacet
facet normal 0 0 -1
outer loop
vertex 241 60 236.5
vertex 235 0 236.5
vertex 235 60 236.5
endloop
endfacet
facet normal 0 0 -1
outer loop
vertex 235 0 236.5
vertex 241 60 236.5
vertex 241 0 236.5
endloop
endfacet
facet normal 0 -1 0
outer loop
vertex 241 -150 360
vertex 235 -150 360
vertex 235 -150 236.5
endloop
endfacet
facet normal 0 -1 0
outer loop
vertex 235 -150 236.5
vertex 241 -150 100
vertex 241 -150 360
endloop
endfacet
facet normal 0 -1 0
outer loop
vertex 235 -150 230
vertex 241 -150 100
vertex 235 -150 236.5
endloop
endfacet
facet normal 0 -1 0
outer loop
vertex 241 -150 100
vertex 235 -150 230
vertex 235 -150 100
endloop
endfacet
facet normal 0 0 1
outer loop
vertex 235 150 360
vertex 241 144 360
vertex 241 150 360
endloop
endfacet
facet normal 0 0 1
outer loop
vertex 235 150 360
vertex 241 -150 360
vertex 241 144 360
endloop
endfacet
facet normal 0 0 1
outer loop
vertex 241 -150 360
vertex 235 150 360
vertex 235 -150 360
endloop
endfacet
facet normal 1 0 0
outer loop
vertex 241 150 236.5
vertex 241 60 230.5
vertex 241 150 230
endloop
endfacet
facet normal 1 0 0
outer loop
vertex 241 60 230.5
vertex 241 150 236.5
vertex 241 60 236.5
endloop
endfacet
facet normal 1 0 0
outer loop
vertex 241 144 360
vertex 241 150 236.5
vertex 241 150 360
endloop
endfacet
facet normal 1 0 0
outer loop
vertex 241 144 360
vertex 241 60 236.5
vertex 241 150 236.5
endloop
endfacet
facet normal 1 0 0
outer loop
vertex 241 144 360
vertex 241 0 236.5
vertex 241 60 236.5
endloop
endfacet
facet normal 0.9999999999999999 0 0
outer loop
vertex 241 -150 360
vertex 241 0 236.5
vertex 241 144 360
endloop
endfacet
facet normal 1 0 0
outer loop
vertex 241 0 236.5
vertex 241 -150 360
vertex 241 -150 236.5
endloop
endfacet
facet normal 1 0 0
outer loop
vertex 241 150 230
vertex 241 144 100
vertex 241 150 100
endloop
endfacet
facet normal 1 0 0
outer loop
vertex 241 60 230
vertex 241 144 100
vertex 241 150 230
endloop
endfacet
facet normal 1 0 0
outer loop
vertex 241 0 230
vertex 241 144 100
vertex 241 60 230
endloop
endfacet
facet normal 1 0 0
outer loop
vertex 241 -150 230
vertex 241 144 100
vertex 241 0 230
endloop
endfacet
facet normal 1 0 0
outer loop
vertex 241 144 100
vertex 241 -150 230
vertex 241 -150 100
endloop
endfacet
facet normal 1 0 0
outer loop
vertex 241 150 230
vertex 241 60 230.5
vertex 241 60 230
endloop
endfacet
facet normal 1 0 0
outer loop
vertex 241 -150 236.5
vertex 241 0 230
vertex 241 0 236.5
endloop
endfacet
facet normal 1 0 0
outer loop
vertex 241 0 230
vertex 241 -150 236.5
vertex 241 -150 230
endloop
endfacet
facet normal -1 0 0
outer loop
vertex 235 -150 230
vertex 235 0 236.5
vertex 235 0 230
endloop
endfacet
facet normal -1 0 0
outer loop
vertex 235 0 236.5
vertex 235 -150 230
vertex 235 -150 236.5
endloop
endfacet
facet normal -1 0 0
outer loop
vertex 235 150 230
vertex 235 60 230.5
vertex 235 150 236.5
endloop
endfacet
facet normal -1 0 0
outer loop
vertex 235 60 230.5
vertex 235 150 230
vertex 235 60 230
endloop
endfacet
facet normal -1 0 0
outer loop
vertex 235 144 100
vertex 235 150 230
vertex 235 150 100
endloop
endfacet
facet normal -1 0 0
outer loop
vertex 235 144 100
vertex 235 60 230
vertex 235 150 230
endloop
endfacet
facet normal -1 0 0
outer loop
vertex 235 144 100
vertex 235 0 230
vertex 235 60 230
endloop
endfacet
facet normal -1 0 0
outer loop
vertex 235 144 100
vertex 235 -150 230
vertex 235 0 230
endloop
endfacet
facet normal -1 0 0
outer loop
vertex 235 -150 230
vertex 235 144 100
vertex 235 -150 100
endloop
endfacet
facet normal -1 0 0
outer loop
vertex 235 60 236.5
vertex 235 150 360
vertex 235 150 236.5
endloop
endfacet
facet normal -1 0 0
outer loop
vertex 235 0 236.5
vertex 235 150 360
vertex 235 60 236.5
endloop
endfacet
facet normal -1 0 0
outer loop
vertex 235 0 236.5
vertex 235 -150 360
vertex 235 150 360
endloop
endfacet
facet normal -1 0 0
outer loop
vertex 235 -150 360
vertex 235 0 236.5
vertex 235 -150 236.5
endloop
endfacet
facet normal -1 0 0
outer loop
vertex 235 150 236.5
vertex 235 60 230.5
vertex 235 60 236.5
endloop
endfacet
facet normal 0 0 -1
outer loop
vertex 241 -150 100
vertex 235 -150 100
vertex 235 144 100
endloop
endfacet
facet normal 0 0 -1
outer loop
vertex 235 144 100
vertex 241 150 100
vertex 241 -150 100
endloop
endfacet
facet normal 0 0 -1
outer loop
vertex 241 150 100
vertex 235 144 100
vertex 235 150 100
endloop
endfacet
facet normal 0 1 0
outer loop
vertex 235 150 100
vertex 241 150 230
vertex 241 150 100
endloop
endfacet
facet normal 0 1 0
outer loop
vertex 235 150 100
vertex 241 150 360
vertex 241 150 230
endloop
endfacet
facet normal 0 1 0
outer loop
vertex 235 150 100
vertex 235 150 360
vertex 241 150 360
endloop
endfacet
facet normal 0 0 1
outer loop
vertex 235 60 230.5
vertex 241 0 230.5
vertex 241 60 230.5
endloop
endfacet
facet normal 0 0 1
outer loop
vertex 241 0 230.5
vertex 235 60 230.5
vertex 235 0 230.5
endloop
endfacet
facet normal 0 -1 0
outer loop
vertex 235 0 230
vertex 241 0 230.5
vertex 235 0 230.5
endloop
endfacet
facet normal 0 -1 0
outer loop
vertex 241 0 230.5
vertex 235 0 230
vertex 241 0 230
endloop
endfacet
facet normal 0 1 0
outer loop
vertex 235 60 230
vertex 241 60 230.5
vertex 241 60 230
endloop
endfacet
facet normal 0 1 0
outer loop
vertex 241 60 230.5
vertex 235 60 230
vertex 235 60 230.5
endloop
endfacet
facet normal 0 0 -1
outer loop
vertex 241 60 230
vertex 235 0 230
vertex 235 60 230
endloop
endfacet
facet normal 0 0 -1
outer loop
vertex 235 0 230
vertex 241 60 230
vertex 241 0 230
endloop
endfacet
facet normal 1 0 0
outer loop
vertex 241 0 230.5
vertex 241 60 230
vertex 241 60 230.5
endloop
endfacet
facet normal 1 0 0
outer loop
vertex 241 60 230
vertex 241 0 230.5
vertex 241 0 230
endloop
endfacet
facet normal -1 0 0
outer loop
vertex 235 0 230
vertex 235 60 230.5
vertex 235 60 230
endloop
endfacet
facet normal -1 0 0
outer loop
vertex 235 60 230.5
vertex 235 0 230
vertex 235 0 230.5
endloop
endfacet
facet normal 0 -1 0
outer loop
vertex 235 0 236.5
vertex 241 0 230.5
vertex 241 0 236.5
endloop
endfacet
facet normal 0 -1 0
outer loop
vertex 241 0 230.5
vertex 235 0 236.5
vertex 235 0 230.5
endloop
endfacet
facet normal 0 0 1
outer loop
vertex 235 60 236.5
vertex 241 0 236.5
vertex 241 60 236.5
endloop
endfacet
facet normal 0 0 1
outer loop
vertex 241 0 236.5
vertex 235 60 236.5
vertex 235 0 236.5
endloop
endfacet
facet normal 0 1 0
outer loop
vertex 235 60 230.5
vertex 241 60 236.5
vertex 241 60 230.5
endloop
endfacet
facet normal 0 1 0
outer loop
vertex 241 60 236.5
vertex 235 60 230.5
vertex 235 60 236.5
endloop
endfacet
facet normal 0 0 -1
outer loop
vertex 241 60 230.5
vertex 235 0 230.5
vertex 235 60 230.5
endloop
endfacet
facet normal 0 0 -1
outer loop
vertex 235 0 230.5
vertex 241 60 230.5
vertex 241 0 230.5
endloop
endfacet
facet normal 1 0 0
outer loop
vertex 241 0 236.5
vertex 241 60 230.5
vertex 241 60 236.5
endloop
endfacet
facet normal 1 0 0
outer loop
vertex 241 60 230.5
vertex 241 0 236.5
vertex 241 0 230.5
endloop
endfacet
facet normal -1 0 0
outer loop
vertex 235 60 230.5
vertex 235 0 236.5
vertex 235 60 236.5
endloop
endfacet
facet normal -1 0 0
outer loop
vertex 235 0 236.5
vertex 235 60 230.5
vertex 235 0 230.5
endloop
endfacet
facet normal 0 -1 0
outer loop
vertex 235 0 86
vertex 241 0 80
vertex 241 0 86
endloop
endfacet
facet normal 0 -1 0
outer loop
vertex 241 0 80
vertex 235 0 86
vertex 235 0 80
endloop
endfacet
facet normal 0 0 1
outer loop
vertex 235 60 86
vertex 241 0 86
vertex 241 60 86
endloop
endfacet
facet normal 0 0 1
outer loop
vertex 241 0 86
vertex 235 60 86
vertex 235 0 86
endloop
endfacet
facet normal 0 1 0
outer loop
vertex 235 60 80
vertex 241 60 86
vertex 241 60 80
endloop
endfacet
facet normal 0 1 0
outer loop
vertex 241 60 86
vertex 235 60 80
vertex 235 60 86
endloop
endfacet
facet normal 0 0 -1
outer loop
vertex 241 60 80
vertex 235 0 80
vertex 235 60 80
endloop
endfacet
facet normal 0 0 -1
outer loop
vertex 235 0 80
vertex 241 60 80
vertex 241 0 80
endloop
endfacet
facet normal 1 0 0
outer loop
vertex 241 0 86
vertex 241 60 80
vertex 241 60 86
endloop
endfacet
facet normal 1 0 0
outer loop
vertex 241 60 80
vertex 241 0 86
vertex 241 0 80
endloop
endfacet
facet normal -1 0 0
outer loop
vertex 235 60 80
vertex 235 0 86
vertex 235 60 86
endloop
endfacet
facet normal -1 0 0
outer loop
vertex 235 0 86
vertex 235 60 80
vertex 235 0 80
endloop
endfacet
endsolid JSxCAD
