<?xml version="1.0" encoding="UTF-8"?>
<!-- Generated by jsxcad -->
<!DOCTYPE svg PUBLIC "-//W3C//DTD SVG 1.1 Tiny//EN" "http://www.w3.org/Graphics/SVG/1.1/DTD/svg11-tiny.dtd">
<svg viewBox="-250 -250 500 500" width="500" height="500" xmlns="http://www.w3.org/2000/svg"><path d="M72.60569351808775,-169.47083579568735L-41.63986191687904,-14.345832615980285L116.060234639858,-55.92343891449551z" style="fill:rgb(127,37,217)"/><path d="M72.42164311331585,-171.68040243749167L116.060234639858,-55.92343891449551L115.7935516342839,-58.18721427489486z" style="fill:rgb(247,158,158)"/><path d="M-41.63986191687904,-14.345832615980285L72.60569351808775,-169.47083579568735L-98.92173445834366,-119.04222975014052z" style="fill:rgb(127,37,217)"/><path d="M116.060234639858,-55.92343891449551L72.42164311331585,-171.68040243749167L72.60569351808775,-169.47083579568735z" style="fill:rgb(247,158,158)"/><path d="M-98.92173445834366,-119.04222975014052L72.42164311331585,-171.68040243749167L-98.68139104094445,-121.28253144011185zM-42.84501334651654,-16.548533381905045L139.41086550563423,184.7603798984245L111.86749421377655,-57.43586070409866z" style="fill:rgb(83,212,212)"/><path d="M139.41086550563423,184.7603798984245L112.78461910815544,-55.05982519505277L111.86749421377655,-57.43586070409866z" style="fill:rgb(247,158,158)"/><path d="M72.42164311331585,-171.68040243749167L-98.92173445834366,-119.04222975014052L72.60569351808775,-169.47083579568735zM-127.49121497317037,-164.0139112366745L-123.78447038551194,-167.27041630053625L-127.16948561211075,-166.22731644536856zM-123.78447038551194,-167.27041630053625L-127.49121497317037,-164.0139112366745L-124.09790650272731,-165.05773508410252zM-61.54512744388536,-50.727494732258165L122.66718943783044,148.59326481284631L97.61772660537174,-94.35348924945943z" style="fill:rgb(83,212,212)"/><path d="M72.60569351808775,-169.47083579568735L144.58692526223308,186.22929671126187L116.060234639858,-55.92343891449551zM53.25790697142539,-221.82697275007257L72.60569351808775,-169.47083579568735L72.42164311331585,-171.68040243749167zM97.61772660537174,-94.35348924945943L123.82729284887789,151.0991304802319L98.59743207009437,-91.8153247083619zM72.60569351808775,-169.47083579568735L53.25790697142539,-221.82697275007257L53.39886454804977,-219.65855809029912z" style="fill:rgb(247,158,158)"/><path d="M139.41086550563423,184.7603798984245L-42.84501334651654,-16.548533381905045L-52.90939268069825,224.12457792404484zM49.69164383602324,-218.5181699012677L53.25790697142539,-221.82697275007257L49.56059060574879,-220.68761708868567zM53.25790697142539,-221.82697275007257L49.69164383602324,-218.5181699012677L53.39886454804977,-219.65855809029912z" style="fill:rgb(83,212,212)"/><path d="M-158.47365029414877,77.61500063233518L-41.547799438386,-16.615956160243677L-123.78447038551194,-167.27041630053625zM112.78461910815544,-55.05982519505277L139.41086550563423,184.7603798984245L140.47901671005295,187.06761487091387zM144.58692526223308,186.22929671126187L72.60569351808775,-169.47083579568735L53.39886454804977,-219.65855809029912z" style="fill:rgb(247,158,158)"/><path d="M122.66718943783044,148.59326481284631L-61.54512744388536,-50.727494732258165L-76.5833140245707,191.26822857187364z" style="fill:rgb(83,212,212)"/><path d="M-41.547799438386,-16.615956160243677L-158.47365029414877,77.61500063233518L-51.39601550593499,226.22495234359985z" style="fill:rgb(247,158,158)"/><path d="M-127.49121497317037,-164.0139112366745L-158.47365029414877,77.61500063233518L-124.09790650272731,-165.05773508410252z" style="fill:rgb(83,212,212)"/><path d="M-51.39601550593499,226.22495234359985L139.41086550563423,184.7603798984245L-52.90939268069825,224.12457792404484z" style="fill:rgb(127,37,217)"/><path d="M123.82729284887789,151.0991304802319L97.61772660537174,-94.35348924945943L122.66718943783044,148.59326481284631z" style="fill:rgb(247,158,158)"/><path d="M139.41086550563423,184.7603798984245L-51.39601550593499,226.22495234359985L140.47901671005295,187.06761487091387zM-74.9460035666723,193.5405925739662L122.66718943783044,148.59326481284631L-76.5833140245707,191.26822857187364zM-158.47365029414877,77.61500063233518L-55.12889069474503,226.98673478474012L-51.39601550593499,226.22495234359985z" style="fill:rgb(127,37,217)"/><path d="M64.24497555747855,22.39857855092852L53.39886454804977,-219.65855809029912L49.69164383602324,-218.5181699012677z" style="fill:rgb(83,212,212)"/><path d="M122.66718943783044,148.59326481284631L-74.9460035666723,193.5405925739662L123.82729284887789,151.0991304802319zM93.11436403539918,76.73984678101402L-51.53696912103587,229.7006211833006L145.00296366744806,189.7608959171354z" style="fill:rgb(127,37,217)"/><path d="M144.58692526223308,186.22929671126187L53.39886454804977,-219.65855809029912L69.05624359928223,21.20576713007103z" style="fill:rgb(247,158,158)"/><path d="M-158.47365029414877,77.61500063233518L-127.49121497317037,-164.0139112366745L-162.76791850378274,78.67963430434479z" style="fill:rgb(83,212,212)"/><path d="M144.58692526223308,186.22929671126187L93.11436403539918,76.73984678101402L145.00296366744806,189.7608959171354z" style="fill:rgb(247,158,158)"/><path d="M-51.53696912103587,229.7006211833006L93.11436403539918,76.73984678101402L-125.3889195155802,127.6650861985888zM69.05624359928223,21.20576713007103L140.47901671005295,187.06761487091387L144.58692526223308,186.22929671126187zM-55.12889069474503,226.98673478474012L-158.47365029414877,77.61500063233518L-162.76791850378274,78.67963430434479z" style="fill:rgb(127,37,217)"/><path d="M93.11436403539918,76.73984678101402L144.58692526223308,186.22929671126187L92.81186868470094,73.10833573733385z" style="fill:rgb(247,158,158)"/><path d="M93.11436403539918,76.73984678101402L-125.00301054026252,124.06793118209343L-125.3889195155802,127.6650861985888zM53.39886454804977,-219.65855809029912L64.24497555747855,22.39857855092852L69.05624359928223,21.20576713007103zM-125.00301054026252,124.06793118209343L93.11436403539918,76.73984678101402L92.81186868470094,73.10833573733385z" style="fill:rgb(83,212,212)"/><path d="M140.47901671005295,187.06761487091387L69.05624359928223,21.20576713007103L64.24497555747855,22.39857855092852z" style="fill:rgb(127,37,217)"/></svg>
