<?xml version="1.0" encoding="UTF-8"?>
<!-- Generated by jsxcad -->
<!DOCTYPE svg PUBLIC "-//W3C//DTD SVG 1.1 Tiny//EN" "http://www.w3.org/Graphics/SVG/1.1/DTD/svg11-tiny.dtd">
<svg viewBox="-250 -250 500 500" width="500" height="500" xmlns="http://www.w3.org/2000/svg"><path d="M-132.44174819856914,-3.8597300329439457L-101.11843637158569,45.12345186014044L-100.88621155390122,42.62883337218122z" style="fill:rgb(247,158,158)"/><path d="M-101.11843637158569,45.12345186014044L-134.59541968521725,-3.2845125716629613L-103.1876759823525,45.64603935046477z" style="fill:rgb(127,37,217)"/><path d="M-132.44174819856914,-3.8597300329439457L-100.88621155390122,42.62883337218122L-132.1226710122598,-6.358675444116858z" style="fill:rgb(247,158,158)"/><path d="M-101.11843637158569,45.12345186014044L-132.44174819856914,-3.8597300329439457L-134.59541968521725,-3.2845125716629613zM175.83853591172667,-24.82240823895813L-129.20679549452893,-4.723744620092445L-98.01050703118175,44.338537521958216z" style="fill:rgb(127,37,217)"/><path d="M-134.59541968521725,-3.2845125716629613L-132.1226710122598,-6.358675444116858L-134.27133189161097,-5.7834710413360035zM-134.59541968521725,-3.2845125716629613L-132.44174819856914,-3.8597300329439457L-132.1226710122598,-6.358675444116858zM-105.07200570392004,-16.403572573456962L-71.83918209175951,-27.761902526975774L-104.81706095742867,-18.889913900515165z" style="fill:rgb(83,212,212)"/><path d="M-70.61742188684553,-22.823866911674276L-105.07200570392004,-16.403572573456962L-103.61027689934332,-13.99155197114662z" style="fill:rgb(127,37,217)"/><path d="M-105.07200570392004,-16.403572573456962L-72.01538015703413,-25.276469381121775L-71.83918209175951,-27.761902526975774z" style="fill:rgb(83,212,212)"/><path d="M-70.61742188684553,-22.823866911674276L-72.01538015703413,-25.276469381121775L-105.07200570392004,-16.403572573456962z" style="fill:rgb(127,37,217)"/><path d="M-72.01538015703413,-25.276469381121775L-70.44503979625124,-25.309586719870328L-71.83918209175951,-27.761902526975774zM-72.01538015703413,-25.276469381121775L-70.61742188684553,-22.823866911674276L-70.44503979625124,-25.309586719870328zM-161.4559317842109,-49.23190404852469L-133.96195979668056,-6.237024727830073L-133.63848913568376,-8.735898626778742z" style="fill:rgb(247,158,158)"/><path d="M-133.96195979668056,-6.237024727830073L-163.68635590327975,-48.60568809293666L-136.11968778692187,-5.659188570419411z" style="fill:rgb(127,37,217)"/><path d="M-129.20679549452893,-4.723744620092445L156.41596385581235,-83.60156169864294L-128.89525526613212,-7.22266741008605z" style="fill:rgb(83,212,212)"/><path d="M-161.4559317842109,-49.23190404852469L-133.63848913568376,-8.735898626778742L-161.0501146844793,-51.72499182824647z" style="fill:rgb(247,158,158)"/><path d="M-133.96195979668056,-6.237024727830073L-161.4559317842109,-49.23190404852469L-163.68635590327975,-48.60568809293666zM175.83853591172667,-24.82240823895813L156.821625634968,-81.11826469793536L-129.20679549452893,-4.723744620092445z" style="fill:rgb(127,37,217)"/><path d="M156.821625634968,-81.11826469793536L175.83853591172667,-24.82240823895813L175.40643376268048,-27.319825176402606z" style="fill:rgb(247,158,158)"/><path d="M185.3446388120669,-27.223189074566335L160.55263550434967,-82.11477012629621L179.3983177879512,-25.721434285593197z" style="fill:rgb(127,37,217)"/><path d="M166.78570208941565,-83.7795408262592L185.3446388120669,-27.223189074566335L184.8881552957942,-29.720304497808435z" style="fill:rgb(247,158,158)"/><path d="M-163.68635590327975,-48.60568809293666L-161.0501146844793,-51.72499182824647L-163.2751675373849,-51.09892101002272z" style="fill:rgb(83,212,212)"/><path d="M155.89533680834876,-83.860386520272L-158.10547626435667,-50.1725777691194L-130.72090495761924,-7.104974841138689z" style="fill:rgb(127,37,217)"/><path d="M-163.68635590327975,-48.60568809293666L-161.4559317842109,-49.23190404852469L-161.0501146844793,-51.72499182824647zM-129.20679549452893,-4.723744620092445L156.821625634968,-81.11826469793536L156.41596385581235,-83.60156169864294zM-133.10604711578907,-62.663002330207526L-98.58435330680958,-74.80695196961773L-132.76899481775902,-65.14064660616889z" style="fill:rgb(83,212,212)"/><path d="M-97.31296088616656,-69.65889838193077L-133.10604711578907,-62.663002330207526L-131.51385049586992,-60.035695454948666z" style="fill:rgb(127,37,217)"/><path d="M156.821625634968,-81.11826469793536L175.40643376268048,-27.319825176402606L156.41596385581235,-83.60156169864294z" style="fill:rgb(247,158,158)"/><path d="M-133.10604711578907,-62.663002330207526L-98.83681479970741,-72.33236527981272L-98.58435330680958,-74.80695196961773z" style="fill:rgb(83,212,212)"/><path d="M-97.31296088616656,-69.65889838193077L-98.83681479970741,-72.33236527981272L-133.10604711578907,-62.663002330207526z" style="fill:rgb(127,37,217)"/><path d="M166.78570208941565,-83.7795408262592L184.8881552957942,-29.720304497808435L166.3532454365176,-86.26181375075218zM-98.83681479970741,-72.33236527981272L-97.0649869014397,-72.13437333617149L-98.58435330680958,-74.80695196961773zM-98.83681479970741,-72.33236527981272L-97.31296088616656,-69.65889838193077L-97.0649869014397,-72.13437333617149z" style="fill:rgb(247,158,158)"/><path d="M185.3446388120669,-27.223189074566335L166.78570208941565,-83.7795408262592L160.55263550434967,-82.11477012629621z" style="fill:rgb(127,37,217)"/><path d="M93.89465736329349,-69.80921732746508L130.05321399977456,-82.07670798387738L93.65536208290564,-72.28464831100644z" style="fill:rgb(83,212,212)"/><path d="M130.38843692993296,-79.60469815473695L93.89465736329349,-69.80921732746508L94.95352471866622,-67.1478342103342z" style="fill:rgb(127,37,217)"/><path d="M-196.12291942160476,-103.4438993051249L-163.1111315188883,-51.82029095281484L-162.70018293622812,-54.312758409140486z" style="fill:rgb(247,158,158)"/><path d="M-163.1111315188883,-51.82029095281484L-198.4432399636541,-102.75390919484597L-165.34589286846054,-51.19109556799507zM130.38843692993296,-79.60469815473695L94.95352471866622,-67.1478342103342L131.36845292586534,-76.89625006656915z" style="fill:rgb(127,37,217)"/><path d="M93.89465736329349,-69.80921732746508L130.38843692993296,-79.60469815473695L130.05321399977456,-82.07670798387738z" style="fill:rgb(83,212,212)"/><path d="M130.05321399977456,-82.07670798387738L131.36845292586534,-76.89625006656915L131.031524244436,-79.36924504378459zM130.05321399977456,-82.07670798387738L130.38843692993296,-79.60469815473695L131.36845292586534,-76.89625006656915z" style="fill:rgb(247,158,158)"/><path d="M-158.10547626435667,-50.1725777691194L138.71219549000133,-136.0699676615229L-157.70773863381623,-52.665448481003345zM-9.18201516003727,99.70678380550821L-8.03786221906929,-42.44899784951267L-135.7911878040792,-8.158082193989257zM160.55263550434967,-82.11477012629621L166.3532454365176,-86.26181375075218L160.13695401582635,-84.59769012179835zM160.55263550434967,-82.11477012629621L166.78570208941565,-83.7795408262592L166.3532454365176,-86.26181375075218z" style="fill:rgb(83,212,212)"/><path d="M-196.12291942160476,-103.4438993051249L-162.70018293622812,-54.312758409140486L-195.60553137611777,-105.91754820478108z" style="fill:rgb(247,158,158)"/><path d="M-163.1111315188883,-51.82029095281484L-196.12291942160476,-103.4438993051249L-198.4432399636541,-102.75390919484597z" style="fill:rgb(127,37,217)"/><path d="M-8.03786221906929,-42.44899784951267L-7.72756445808683,102.21914678537107L-6.766897106716508,-39.91689414169596z" style="fill:rgb(247,158,158)"/><path d="M155.89533680834876,-83.860386520272L139.0887648034567,-133.612986547338L-158.10547626435667,-50.1725777691194z" style="fill:rgb(127,37,217)"/><path d="M-9.20823012948428,102.9638687839463L26.60673773947203,-54.24665908887L-8.017880422302609,-44.931649566504895zM-122.31489825131426,175.8229621602854L-118.46575096937599,171.84557723699706L-121.99363938007504,172.6266797120727z" style="fill:rgb(83,212,212)"/><path d="M27.80397743937738,-51.671505485355276L26.60673773947203,-54.24665908887L30.595768842477653,93.71042305392818z" style="fill:rgb(247,158,158)"/><path d="M138.07369841704764,-136.61789316456185L-192.63717698592328,-104.48044597028465L-159.754149322631,-52.765436344308405z" style="fill:rgb(127,37,217)"/><path d="M-122.31489825131426,175.8229621602854L-118.77800065575916,175.04268171105542L-118.46575096937599,171.84557723699706z" style="fill:rgb(83,212,212)"/><path d="M139.0887648034567,-133.612986547338L155.89533680834876,-83.860386520272L155.4910886884266,-86.34262767707851z" style="fill:rgb(247,158,158)"/><path d="M-196.12291942160476,-103.4438993051249L-195.60553137611777,-105.91754820478108L-197.9200453741697,-105.22789049581326zM-196.12291942160476,-103.4438993051249L-197.9200453741697,-105.22789049581326L-198.4432399636541,-102.75390919484597z" style="fill:rgb(83,212,212)"/><path d="M165.8815978300952,-86.5346994395647L142.97790970377585,-134.70490304456445L159.63463396830844,-84.86176320258471z" style="fill:rgb(127,37,217)"/><path d="M149.47590706910017,-136.52929030392553L165.8815978300952,-86.5346994395647L165.4504350919532,-89.01587276466019z" style="fill:rgb(247,158,158)"/><path d="M-158.10547626435667,-50.1725777691194L139.0887648034567,-133.612986547338L138.71219549000133,-136.0699676615229z" style="fill:rgb(83,212,212)"/><path d="M-139.01687305796705,153.86107662774083L-122.31489825131426,175.8229621602854L-121.99363938007504,172.6266797120727z" style="fill:rgb(247,158,158)"/><path d="M-122.31489825131426,175.8229621602854L-141.4206876367908,154.4071657910328L-124.66929673178359,176.34236259006914z" style="fill:rgb(127,37,217)"/><path d="M-9.18201516003727,99.70678380550821L-135.7911878040792,-8.158082193989257L-154.42506766675922,133.58916273401942z" style="fill:rgb(83,212,212)"/><path d="M139.0887648034567,-133.612986547338L155.4910886884266,-86.34262767707851L138.71219549000133,-136.0699676615229zM-139.01687305796705,153.86107662774083L-121.99363938007504,172.6266797120727L-138.64250888883333,150.64307950043633z" style="fill:rgb(247,158,158)"/><path d="M73.53972448483256,-120.96990042445891L111.2411857160413,-134.13878518894938L73.34369973011458,-123.42261200493166z" style="fill:rgb(83,212,212)"/><path d="M-122.31489825131426,175.8229621602854L-139.01687305796705,153.86107662774083L-141.4206876367908,154.4071657910328z" style="fill:rgb(127,37,217)"/><path d="M149.47590706910017,-136.52929030392553L165.4504350919532,-89.01587276466019L149.07021401837957,-138.9844269350456z" style="fill:rgb(247,158,158)"/><path d="M111.54124088341261,-131.6923559400282L73.53972448483256,-120.96990042445891L74.6981979908338,-118.05816952056671zM165.8815978300952,-86.5346994395647L149.47590706910017,-136.52929030392553L142.97790970377585,-134.70490304456445zM211.44760727094382,115.56825871547433L-124.66929673178359,176.34236259006914L-116.60045532940737,186.90813444113286zM111.54124088341261,-131.6923559400282L74.6981979908338,-118.05816952056671L112.6143140951245,-128.72673254138533z" style="fill:rgb(127,37,217)"/><path d="M73.53972448483256,-120.96990042445891L111.54124088341261,-131.6923559400282L111.2411857160413,-134.13878518894938z" style="fill:rgb(83,212,212)"/><path d="M111.2411857160413,-134.13878518894938L112.6143140951245,-128.72673254138533L112.31213611584226,-131.17495222560248zM111.2411857160413,-134.13878518894938L111.54124088341261,-131.6923559400282L112.6143140951245,-128.72673254138533z" style="fill:rgb(247,158,158)"/><path d="M190.16440885484243,53.203123578711356L165.4504350919532,-89.01587276466019L26.673616015335043,-51.766078140785446zM-37.296897877606646,51.14208445941475L-32.44096049708905,-91.06653219523811L-164.92955381332368,-53.68372155612158zM142.97790970377585,-134.70490304456445L149.07021401837957,-138.9844269350456L142.59045217815145,-137.16120192439843zM117.75079743844863,-196.77989890345435L-192.12852575696553,-106.9536012794901L-192.63717698592328,-104.48044597028465zM142.97790970377585,-134.70490304456445L149.47590706910017,-136.52929030392553L149.07021401837957,-138.9844269350456z" style="fill:rgb(83,212,212)"/><path d="M-8.03786221906929,-42.44899784951267L-9.18201516003727,99.70678380550821L-7.72756445808683,102.21914678537107zM166.3532454365176,-86.26181375075218L165.4504350919532,-89.01587276466019L190.16440885484243,53.203123578711356z" style="fill:rgb(247,158,158)"/><path d="M196.05201770585055,105.5882489961875L-135.40560221917042,153.04069628446513L-118.77800065575916,175.04268171105542z" style="fill:rgb(127,37,217)"/><path d="M-32.44096049708905,-91.06653219523811L-35.68880598574214,53.91984790932799L-31.05357689091785,-88.30248536751117z" style="fill:rgb(247,158,158)"/><path d="M-37.40888886786642,54.42180928935174L3.6126088545304005,-103.70492861150338L-32.35670560476846,-93.5339702038021z" style="fill:rgb(83,212,212)"/><path d="M138.07369841704764,-136.61789316456185L117.75079743844863,-196.77989890345435L-192.63717698592328,-104.48044597028465z" style="fill:rgb(127,37,217)"/><path d="M-9.20823012948428,102.9638687839463L30.595768842477653,93.71042305392818L26.60673773947203,-54.24665908887z" style="fill:rgb(83,212,212)"/><path d="M27.80397743937738,-51.671505485355276L30.595768842477653,93.71042305392818L31.961244216809874,96.27091165228244z" style="fill:rgb(247,158,158)"/><path d="M-118.24464503157897,131.0840946042563L-154.85005212652058,136.82200724938224L-153.06827821384272,139.15516306881608z" style="fill:rgb(127,37,217)"/><path d="M4.920224417808347,-100.89236209602414L3.6126088545304005,-103.70492861150338L4.182534309744637,44.181225442018zM117.75079743844863,-196.77989890345435L138.07369841704764,-136.61789316456185L137.69892402503837,-139.0729734437026z" style="fill:rgb(247,158,158)"/><path d="M-118.24464503157897,131.0840946042563L-119.95155124425419,128.70897123323266L-154.85005212652058,136.82200724938224zM211.44760727094382,115.56825871547433L207.09496559050427,103.15208117526646L-124.66929673178359,176.34236259006914z" style="fill:rgb(127,37,217)"/><path d="M-119.95155124425419,128.70897123323266L-117.91807131476665,127.84665050464722L-119.61940145998614,125.4696816521896zM-119.95155124425419,128.70897123323266L-118.24464503157897,131.0840946042563L-117.91807131476665,127.84665050464722z" style="fill:rgb(247,158,158)"/><path d="M148.48494166320157,-139.54913861924499L121.82830406500669,-197.9924274790526L141.97185169767087,-137.7154035679344z" style="fill:rgb(127,37,217)"/><path d="M128.64192643959595,-200.01858769305264L148.48494166320157,-139.54913861924499L148.08090792702384,-142.00234467926995z" style="fill:rgb(247,158,158)"/><path d="M-7.72756445808683,102.21914678537107L-154.42506766675922,133.58916273401942L-152.6492641325649,135.92424594029714z" style="fill:rgb(127,37,217)"/><path d="M-80.68709853083864,122.37939366123372L-117.91807131476665,127.84665050464722L-118.24464503157897,131.0840946042563zM-119.95155124425419,128.70897123323266L-82.08134300623544,116.71278323843653L-119.61940145998614,125.4696816521896z" style="fill:rgb(83,212,212)"/><path d="M-80.68709853083864,122.37939366123372L-119.95155124425419,128.70897123323266L-118.24464503157897,131.0840946042563z" style="fill:rgb(127,37,217)"/><path d="M-80.68709853083864,122.37939366123372L-80.46212848275262,119.13535344011052L-117.91807131476665,127.84665050464722zM117.75079743844863,-196.77989890345435L117.41491092052678,-199.1883866053782L-192.12852575696553,-106.9536012794901zM-119.95155124425419,128.70897123323266L-82.31144477545266,119.95856567341978L-82.08134300623544,116.71278323843653zM190.16440885484243,53.203123578711356L26.673616015335043,-51.766078140785446L30.507809102693802,90.44790990013183z" style="fill:rgb(83,212,212)"/><path d="M-80.68709853083864,122.37939366123372L-82.31144477545266,119.95856567341978L-119.95155124425419,128.70897123323266zM198.02982512795774,77.29325781530994L-153.06827821384272,139.15516306881608L-141.4206876367908,154.4071657910328z" style="fill:rgb(127,37,217)"/><path d="M-82.31144477545266,119.95856567341978L-80.46212848275262,119.13535344011052L-82.08134300623544,116.71278323843653zM-82.31144477545266,119.95856567341978L-80.68709853083864,122.37939366123372L-80.46212848275262,119.13535344011052z" style="fill:rgb(247,158,158)"/><path d="M-37.296897877606646,51.14208445941475L-164.92955381332368,-53.68372155612158L-188.6848899550411,88.53943820521077z" style="fill:rgb(83,212,212)"/><path d="M117.75079743844863,-196.77989890345435L137.69892402503837,-139.0729734437026L117.41491092052678,-199.1883866053782z" style="fill:rgb(247,158,158)"/><path d="M-7.72756445808683,102.21914678537107L-9.18201516003727,99.70678380550821L-154.42506766675922,133.58916273401942zM-7.749567900426917,105.4746829475599L-82.31144477545266,119.95856567341978L-80.68709853083864,122.37939366123372z" style="fill:rgb(127,37,217)"/><path d="M128.64192643959595,-200.01858769305264L148.08090792702384,-142.00234467926995L128.27401643431637,-202.42409503971106z" style="fill:rgb(247,158,158)"/><path d="M148.48494166320157,-139.54913861924499L128.64192643959595,-200.01858769305264L121.82830406500669,-197.9924274790526zM196.05201770585055,105.5882489961875L186.70756152672962,79.86536356044451L-135.40560221917042,153.04069628446513z" style="fill:rgb(127,37,217)"/><path d="M171.40027346440525,-0.412341167909429L148.08090792702384,-142.00234467926995L3.6221003741041446,-101.24203506157393z" style="fill:rgb(83,212,212)"/><path d="M-7.749567900426917,105.4746829475599L-9.20823012948428,102.9638687839463L-82.31144477545266,119.95856567341978z" style="fill:rgb(127,37,217)"/><path d="M196.05201770585055,105.5882489961875L199.61751705207396,101.42013370570544L195.4954321754501,102.3327842942818zM196.05201770585055,105.5882489961875L200.18639220245646,104.67616998352288L199.61751705207396,101.42013370570544z" style="fill:rgb(83,212,212)"/><path d="M-9.20823012948428,102.9638687839463L-7.72756445808683,102.21914678537107L-9.18201516003727,99.70678380550821zM-9.20823012948428,102.9638687839463L-7.749567900426917,105.4746829475599L-7.72756445808683,102.21914678537107zM166.3532454365176,-86.26181375075218L190.16440885484243,53.203123578711356L191.13252523307636,55.9693539593826z" style="fill:rgb(247,158,158)"/><path d="M31.961244216809874,96.27091165228244L-7.72756445808683,102.21914678537107L-7.749567900426917,105.4746829475599z" style="fill:rgb(83,212,212)"/><path d="M107.96314862891523,75.7244123847582L-187.26673946022262,94.373793473507L-154.85005212652058,136.82200724938224zM31.961244216809874,96.27091165228244L-9.20823012948428,102.9638687839463L-7.749567900426917,105.4746829475599z" style="fill:rgb(127,37,217)"/><path d="M31.961244216809874,96.27091165228244L31.86960638529271,93.00985615833063L-7.72756445808683,102.21914678537107z" style="fill:rgb(83,212,212)"/><path d="M-32.44096049708905,-91.06653219523811L-37.296897877606646,51.14208445941475L-35.68880598574214,53.91984790932799z" style="fill:rgb(247,158,158)"/><path d="M128.64192643959595,-200.01858769305264L128.27401643431637,-202.42409503971106L121.48044769416055,-200.3998056540177z" style="fill:rgb(83,212,212)"/><path d="M149.07021401837957,-138.9844269350456L148.08090792702384,-142.00234467926995L171.40027346440525,-0.412341167909429z" style="fill:rgb(247,158,158)"/><path d="M128.64192643959595,-200.01858769305264L121.48044769416055,-200.3998056540177L121.82830406500669,-197.9924274790526z" style="fill:rgb(83,212,212)"/><path d="M186.70756152672962,79.86536356044451L196.05201770585055,105.5882489961875L195.4954321754501,102.3327842942818z" style="fill:rgb(247,158,158)"/><path d="M31.961244216809874,96.27091165228244L30.595768842477653,93.71042305392818L-9.20823012948428,102.9638687839463zM207.09496559050427,103.15208117526646L190.94631942868313,78.90243574513055L200.18639220245646,104.67616998352288z" style="fill:rgb(127,37,217)"/><path d="M-37.40888886786642,54.42180928935174L4.182534309744637,44.181225442018L3.6126088545304005,-103.70492861150338z" style="fill:rgb(83,212,212)"/><path d="M198.02982512795774,77.29325781530994L191.70363318793693,59.24746427394912L-153.06827821384272,139.15516306881608z" style="fill:rgb(127,37,217)"/><path d="M4.920224417808347,-100.89236209602414L4.182534309744637,44.181225442018L5.694233193822478,47.0159091314383z" style="fill:rgb(247,158,158)"/><path d="M-151.01993085914762,85.47783649143061L-189.22999771374407,91.80300289980775L-187.26673946022262,94.373793473507z" style="fill:rgb(127,37,217)"/><path d="M186.70756152672962,79.86536356044451L195.4954321754501,102.3327842942818L186.16297937570096,76.59572189434071z" style="fill:rgb(247,158,158)"/><path d="M109.14150774424982,78.38286864756144L30.595768842477653,93.71042305392818L31.961244216809874,96.27091165228244zM-151.01993085914762,85.47783649143061L-152.90237079112225,82.85846130227135L-189.22999771374407,91.80300289980775zM207.09496559050427,103.15208117526646L198.02982512795774,77.29325781530994L190.94631942868313,78.90243574513055zM191.13252523307636,55.9693539593826L30.507809102693802,90.44790990013183L31.86960638529271,93.00985615833063z" style="fill:rgb(127,37,217)"/><path d="M-152.90237079112225,82.85846130227135L-150.58200447893577,82.21094672524863L-152.45777448172393,79.59025795375078zM-152.90237079112225,82.85846130227135L-151.01993085914762,85.47783649143061L-150.58200447893577,82.21094672524863z" style="fill:rgb(247,158,158)"/><path d="M-151.01993085914762,85.47783649143061L-111.56364642920542,72.60313433941342L-150.58200447893577,82.21094672524863z" style="fill:rgb(83,212,212)"/><path d="M-35.68880598574214,53.91984790932799L-188.6848899550411,88.53943820521077L-186.72874321809283,91.11166261086187zM109.14150774424982,78.38286864756144L107.96314862891523,75.7244123847582L30.595768842477653,93.71042305392818z" style="fill:rgb(127,37,217)"/><path d="M-190.7726771238209,79.7778306208084L-190.21618748064074,76.50814206927369L-194.05892775445244,77.46978290715283zM-152.90237079112225,82.85846130227135L-113.35059317467945,69.92961606735497L-152.45777448172393,79.59025795375078z" style="fill:rgb(83,212,212)"/><path d="M-111.89135763879277,75.8746219497546L-152.90237079112225,82.85846130227135L-151.01993085914762,85.47783649143061z" style="fill:rgb(127,37,217)"/><path d="M-190.7726771238209,79.7778306208084L-194.05892775445244,77.46978290715283L-194.62609320888515,80.73900919559044zM-151.01993085914762,85.47783649143061L-111.89135763879277,75.8746219497546L-111.56364642920542,72.60313433941342z" style="fill:rgb(83,212,212)"/><path d="M107.96314862891523,75.7244123847582L108.82267768433525,75.1125315917009L107.64689288216691,72.45286249140872zM107.96314862891523,75.7244123847582L109.14150774424982,78.38286864756144L108.82267768433525,75.1125315917009z" style="fill:rgb(247,158,158)"/><path d="M-152.90237079112225,82.85846130227135L-113.68447485419335,73.20228208685914L-113.35059317467945,69.92961606735497z" style="fill:rgb(83,212,212)"/><path d="M-111.89135763879277,75.8746219497546L-113.68447485419335,73.20228208685914L-152.90237079112225,82.85846130227135z" style="fill:rgb(127,37,217)"/><path d="M171.40027346440525,-0.412341167909429L3.6221003741041446,-101.24203506157393L4.169883505101577,40.89855537781875zM151.19620932962735,68.63586013532105L108.82267768433525,75.1125315917009L109.14150774424982,78.38286864756144z" style="fill:rgb(83,212,212)"/><path d="M-113.68447485419335,73.20228208685914L-111.56364642920542,72.60313433941342L-113.35059317467945,69.92961606735497zM-113.68447485419335,73.20228208685914L-111.89135763879277,75.8746219497546L-111.56364642920542,72.60313433941342z" style="fill:rgb(247,158,158)"/><path d="M107.96314862891523,75.7244123847582L149.67894461368985,62.64759863383952L107.64689288216691,72.45286249140872z" style="fill:rgb(83,212,212)"/><path d="M151.19620932962735,68.63586013532105L107.96314862891523,75.7244123847582L109.14150774424982,78.38286864756144z" style="fill:rgb(127,37,217)"/><path d="M151.19620932962735,68.63586013532105L150.75007100477626,65.36128632397444L108.82267768433525,75.1125315917009z" style="fill:rgb(83,212,212)"/><path d="M191.13252523307636,55.9693539593826L190.16440885484243,53.203123578711356L30.507809102693802,90.44790990013183z" style="fill:rgb(127,37,217)"/><path d="M-215.25590253169077,53.61231807623711L-194.62609320888515,80.73900919559044L-194.05892775445244,77.46978290715283z" style="fill:rgb(247,158,158)"/><path d="M-194.62609320888515,80.73900919559044L-217.87882234068337,54.28866318132433L-197.1907746568368,81.37873332900757zM-35.68880598574214,53.91984790932799L-37.296897877606646,51.14208445941475L-188.6848899550411,88.53943820521077z" style="fill:rgb(127,37,217)"/><path d="M107.96314862891523,75.7244123847582L150.1231488619978,65.92324945753995L149.67894461368985,62.64759863383952z" style="fill:rgb(83,212,212)"/><path d="M151.19620932962735,68.63586013532105L150.1231488619978,65.92324945753995L107.96314862891523,75.7244123847582z" style="fill:rgb(127,37,217)"/><path d="M149.67894461368985,62.64759863383952L151.19620932962735,68.63586013532105L150.75007100477626,65.36128632397444z" style="fill:rgb(247,158,158)"/><path d="M-35.79566730101975,57.198664400358204L-113.68447485419335,73.20228208685914L-111.89135763879277,75.8746219497546z" style="fill:rgb(127,37,217)"/><path d="M149.67894461368985,62.64759863383952L150.1231488619978,65.92324945753995L151.19620932962735,68.63586013532105z" style="fill:rgb(247,158,158)"/><path d="M191.70363318793693,59.24746427394912L150.1231488619978,65.92324945753995L151.19620932962735,68.63586013532105z" style="fill:rgb(127,37,217)"/><path d="M-215.25590253169077,53.61231807623711L-194.05892775445244,77.46978290715283L-214.61096174910358,50.33234213682364z" style="fill:rgb(247,158,158)"/><path d="M-194.62609320888515,80.73900919559044L-215.25590253169077,53.61231807623711L-217.87882234068337,54.28866318132433zM107.96314862891523,75.7244123847582L130.5244223732757,16.379177998297923L-187.26673946022262,94.373793473507zM-35.79566730101975,57.198664400358204L-37.40888886786642,54.42180928935174L-113.68447485419335,73.20228208685914zM191.70363318793693,59.24746427394912L190.7342216220578,56.482172884100635L150.1231488619978,65.92324945753995zM171.941812319476,2.8757588606572733L-197.1907746568368,81.37873332900757L-189.22999771374407,91.80300289980775z" style="fill:rgb(127,37,217)"/><path d="M150.17875149184124,-59.204579524710994L211.44760727094382,115.56825871547433L210.8536965736946,112.31937766082018zM-37.40888886786642,54.42180928935174L-35.68880598574214,53.91984790932799L-37.296897877606646,51.14208445941475zM-37.40888886786642,54.42180928935174L-35.79566730101975,57.198664400358204L-35.68880598574214,53.91984790932799z" style="fill:rgb(247,158,158)"/><path d="M-35.79566730101975,57.198664400358204L5.677058858228606,43.733994589215705L-35.68880598574214,53.91984790932799z" style="fill:rgb(83,212,212)"/><path d="M149.07021401837957,-138.9844269350456L171.40027346440525,-0.412341167909429L172.476113376902,2.6616912519822318z" style="fill:rgb(247,158,158)"/><path d="M5.694233193822478,47.0159091314383L-37.40888886786642,54.42180928935174L-35.79566730101975,57.198664400358204z" style="fill:rgb(127,37,217)"/><path d="M-35.79566730101975,57.198664400358204L5.694233193822478,47.0159091314383L5.677058858228606,43.733994589215705z" style="fill:rgb(83,212,212)"/><path d="M190.7342216220578,56.482172884100635L130.5244223732757,16.379177998297923L107.96314862891523,75.7244123847582zM5.694233193822478,47.0159091314383L4.182534309744637,44.181225442018L-37.40888886786642,54.42180928935174zM155.3154764310462,-6.549003560007747L-211.31480002533493,52.59606952102129L-190.7726771238209,79.7778306208084zM86.45280565602698,27.19555399254675L4.182534309744637,44.181225442018L5.694233193822478,47.0159091314383zM172.476113376902,2.6616912519822318L4.169883505101577,40.89855537781875L5.677058858228606,43.733994589215705zM86.45280565602698,27.19555399254675L85.14567769317642,24.246586901462198L4.182534309744637,44.181225442018z" style="fill:rgb(127,37,217)"/><path d="M85.14567769317642,24.246586901462198L86.18687531563616,23.909399643915936L84.88300806126325,20.960003909943882zM85.14567769317642,24.246586901462198L86.45280565602698,27.19555399254675L86.18687531563616,23.909399643915936z" style="fill:rgb(247,158,158)"/><path d="M190.7342216220578,56.482172884100635L173.01943855825954,5.949743722237663L130.5244223732757,16.379177998297923z" style="fill:rgb(127,37,217)"/><path d="M86.45280565602698,27.19555399254675L130.11865748058614,13.091715596763567L86.18687531563616,23.909399643915936z" style="fill:rgb(83,212,212)"/><path d="M171.941812319476,2.8757588606572733L167.56657096163582,-9.60486747949585L-197.1907746568368,81.37873332900757z" style="fill:rgb(127,37,217)"/><path d="M85.14567769317642,24.246586901462198L128.92957453597435,10.079187683580747L84.88300806126325,20.960003909943882z" style="fill:rgb(83,212,212)"/><path d="M130.5244223732757,16.379177998297923L85.14567769317642,24.246586901462198L86.45280565602698,27.19555399254675z" style="fill:rgb(127,37,217)"/><path d="M86.45280565602698,27.19555399254675L130.5244223732757,16.379177998297923L130.11865748058614,13.091715596763567z" style="fill:rgb(83,212,212)"/><path d="M172.476113376902,2.6616912519822318L171.40027346440525,-0.412341167909429L4.169883505101577,40.89855537781875z" style="fill:rgb(127,37,217)"/><path d="M85.14567769317642,24.246586901462198L129.33281275881907,13.366889399832557L128.92957453597435,10.079187683580747z" style="fill:rgb(83,212,212)"/><path d="M130.5244223732757,16.379177998297923L129.33281275881907,13.366889399832557L85.14567769317642,24.246586901462198z" style="fill:rgb(127,37,217)"/><path d="M128.92957453597435,10.079187683580747L130.5244223732757,16.379177998297923L130.11865748058614,13.091715596763567z" style="fill:rgb(247,158,158)"/><path d="M156.1541971287348,-42.15929697318751L-228.66687091224918,40.16217992196064L-217.87882234068337,54.28866318132433z" style="fill:rgb(127,37,217)"/><path d="M128.92957453597435,10.079187683580747L129.33281275881907,13.366889399832557L130.5244223732757,16.379177998297923z" style="fill:rgb(247,158,158)"/><path d="M173.01943855825954,5.949743722237663L129.33281275881907,13.366889399832557L130.5244223732757,16.379177998297923z" style="fill:rgb(127,37,217)"/><path d="M-228.66687091224918,40.16217992196064L149.67758355300526,-62.48138547098237L-227.97244941295105,36.87852695215927z" style="fill:rgb(83,212,212)"/><path d="M173.01943855825954,5.949743722237663L171.941812319476,2.8757588606572733L129.33281275881907,13.366889399832557zM155.3154764310462,-6.549003560007747L143.55901615942724,-38.91151109746723L-211.31480002533493,52.59606952102129z" style="fill:rgb(127,37,217)"/><path d="M150.17875149184124,-59.204579524710994L210.8536965736946,112.31937766082018L149.67758355300526,-62.48138547098237z" style="fill:rgb(247,158,158)"/><path d="M159.90127799853045,-7.692867474435775L159.3925532432232,-10.98069491307669L154.82187836200137,-9.836892511005038zM159.90127799853045,-7.692867474435775L154.82187836200137,-9.836892511005038L155.3154764310462,-6.549003560007747z" style="fill:rgb(83,212,212)"/><path d="M143.55901615942724,-38.91151109746723L155.3154764310462,-6.549003560007747L154.82187836200137,-9.836892511005038z" style="fill:rgb(247,158,158)"/><path d="M167.56657096163582,-9.60486747949585L148.27335089694245,-40.127147822918076L159.90127799853045,-7.692867474435775zM156.1541971287348,-42.15929697318751L150.17875149184124,-59.204579524710994L-228.66687091224918,40.16217992196064z" style="fill:rgb(127,37,217)"/><path d="M-228.66687091224918,40.16217992196064L150.17875149184124,-59.204579524710994L149.67758355300526,-62.48138547098237z" style="fill:rgb(83,212,212)"/><path d="M143.55901615942724,-38.91151109746723L154.82187836200137,-9.836892511005038L143.08874249416843,-42.19457753907206z" style="fill:rgb(247,158,158)"/><path d="M167.56657096163582,-9.60486747949585L156.1541971287348,-42.15929697318751L148.27335089694245,-40.127147822918076z" style="fill:rgb(127,37,217)"/></svg>
