<?xml version="1.0" encoding="UTF-8"?>
<!-- Generated by jsxcad -->
<!DOCTYPE svg PUBLIC "-//W3C//DTD SVG 1.1 Tiny//EN" "http://www.w3.org/Graphics/SVG/1.1/DTD/svg11-tiny.dtd">
<svg viewBox="-250 -250 500 500" width="500" height="500" xmlns="http://www.w3.org/2000/svg"><path d="M-73.49916844392703,35.695291384316484L-104.33182267895451,40.99386795821188L-102.95082302856757,43.15153098400919zM-73.49916844392703,35.695291384316484L-74.82637680219247,33.505243792122634L-104.33182267895451,40.99386795821188z" style="fill:rgb(127,37,217)"/><path d="M-74.82637680219247,33.505243792122634L-73.32959350975149,33.21090731022882L-74.65336599922439,31.020527215673308zM-74.82637680219247,33.505243792122634L-73.49916844392703,35.695291384316484L-73.32959350975149,33.21090731022882z" style="fill:rgb(247,158,158)"/><path d="M-74.82637680219247,33.505243792122634L-42.999619807709855,22.967203608651104L-74.65336599922439,31.020527215673308z" style="fill:rgb(83,212,212)"/><path d="M-41.8317590764259,27.67809316173479L-74.82637680219247,33.505243792122634L-73.49916844392703,35.695291384316484z" style="fill:rgb(127,37,217)"/><path d="M-74.82637680219247,33.505243792122634L-43.10006912833559,25.452956075501966L-42.999619807709855,22.967203608651104z" style="fill:rgb(83,212,212)"/><path d="M-41.8317590764259,27.67809316173479L-43.10006912833559,25.452956075501966L-74.82637680219247,33.505243792122634z" style="fill:rgb(127,37,217)"/><path d="M-107.56646968465952,27.37732873689763L-104.1803438370118,24.082467090778277L-107.31624821771867,24.891796680035302z" style="fill:rgb(83,212,212)"/><path d="M-43.10006912833559,25.452956075501966L-41.73447869490283,25.192597062115375L-42.999619807709855,22.967203608651104zM-43.10006912833559,25.452956075501966L-41.8317590764259,27.67809316173479L-41.73447869490283,25.192597062115375z" style="fill:rgb(247,158,158)"/><path d="M-107.56646968465952,27.37732873689763L-104.42344737324878,26.568093906840915L-104.1803438370118,24.082467090778277z" style="fill:rgb(83,212,212)"/><path d="M-116.82868162439055,9.86048615913147L-107.56646968465952,27.37732873689763L-107.31624821771867,24.891796680035302z" style="fill:rgb(247,158,158)"/><path d="M53.61014102073496,0.9074438512112886L-112.27161796129036,28.588763480715368L-104.33182267895451,40.99386795821188zM-107.56646968465952,27.37732873689763L-121.86836085102323,13.59487502670008L-112.27161796129036,28.588763480715368zM19.382866483097157,12.180462588822182L-43.10006912833559,25.452956075501966L-41.8317590764259,27.67809316173479z" style="fill:rgb(127,37,217)"/><path d="M-116.82868162439055,9.86048615913147L-117.10511859313677,12.34728751126225L-107.56646968465952,27.37732873689763z" style="fill:rgb(247,158,158)"/><path d="M-107.56646968465952,27.37732873689763L-117.10511859313677,12.34728751126225L-121.86836085102323,13.59487502670008zM19.382866483097157,12.180462588822182L18.231534989970744,9.886702290039622L-43.10006912833559,25.452956075501966z" style="fill:rgb(127,37,217)"/><path d="M18.231534989970744,9.886702290039622L19.33710395231028,9.693653966367886L18.188395037452004,7.3997928635477095zM18.231534989970744,9.886702290039622L19.382866483097157,12.180462588822182L19.33710395231028,9.693653966367886z" style="fill:rgb(247,158,158)"/><path d="M59.704774426582944,-15.690015766160988L-113.92320241128306,11.513878866224006L-104.42344737324878,26.568093906840915zM-94.03321468191045,1.8117218756522635L-125.78707794620337,7.472290307926257L-124.31209802749024,9.77678749075942zM53.61014102073496,0.9074438512112886L59.704774426582944,-15.690015766160988L-112.27161796129036,28.588763480715368zM-94.03321468191045,1.8117218756522635L-95.45145280487768,-0.5285340563099932L-125.78707794620337,7.472290307926257zM53.61014102073496,0.9074438512112886L51.468207645989544,1.4510773561382468L52.55442786331506,3.7824600856776347z" style="fill:rgb(127,37,217)"/><path d="M-95.45145280487768,-0.5285340563099932L-93.80897329207187,-0.675351122706208L-95.22331821631508,-3.0155983403127506zM-95.45145280487768,-0.5285340563099932L-94.03321468191045,1.8117218756522635L-93.80897329207187,-0.675351122706208z" style="fill:rgb(247,158,158)"/><path d="M-61.45946557026645,-6.757024641258103L-93.80897329207187,-0.675351122706208L-94.03321468191045,1.8117218756522635zM-95.45145280487768,-0.5285340563099932L-62.6641250966773,-11.622873617253925L-95.22331821631508,-3.0155983403127506z" style="fill:rgb(83,212,212)"/><path d="M-61.45946557026645,-6.757024641258103L-95.45145280487768,-0.5285340563099932L-94.03321468191045,1.8117218756522635z" style="fill:rgb(127,37,217)"/><path d="M-61.45946557026645,-6.757024641258103L-61.311697957722444,-9.243943217135785L-93.80897329207187,-0.675351122706208z" style="fill:rgb(83,212,212)"/><path d="M116.71171695431313,-12.460159810705195L53.61014102073496,0.9074438512112886L52.55442786331506,3.7824600856776347z" style="fill:rgb(127,37,217)"/><path d="M-117.89119016023821,181.6291453578878L-99.67498519235299,39.811938561339446L-104.33182267895451,40.99386795821188z" style="fill:rgb(83,212,212)"/><path d="M-112.64642612793669,180.48115403530028L-98.30241202702528,41.97469675483141L-99.67498519235299,39.811938561339446z" style="fill:rgb(247,158,158)"/><path d="M67.12858709924838,-35.907232245587274L-124.31209802749024,9.77678749075942L-121.86836085102323,13.59487502670008z" style="fill:rgb(127,37,217)"/><path d="M-95.45145280487768,-0.5285340563099932L-62.815494402347795,-9.136057518396491L-62.6641250966773,-11.622873617253925z" style="fill:rgb(83,212,212)"/><path d="M-61.45946557026645,-6.757024641258103L-62.815494402347795,-9.136057518396491L-95.45145280487768,-0.5285340563099932z" style="fill:rgb(127,37,217)"/><path d="M-62.815494402347795,-9.136057518396491L-61.311697957722444,-9.243943217135785L-62.6641250966773,-11.622873617253925zM-62.815494402347795,-9.136057518396491L-61.45946557026645,-6.757024641258103L-61.311697957722444,-9.243943217135785z" style="fill:rgb(247,158,158)"/><path d="M116.71171695431313,-12.460159810705195L115.7548469863566,-14.865178630846348L53.61014102073496,0.9074438512112886z" style="fill:rgb(127,37,217)"/><path d="M115.47439003018044,-17.35164181228838L116.71171695431313,-12.460159810705195L116.42958284568168,-14.946789594402325z" style="fill:rgb(247,158,158)"/><path d="M1.5567864506332418,-23.333878377011743L-62.815494402347795,-9.136057518396491L-61.45946557026645,-6.757024641258103z" style="fill:rgb(127,37,217)"/><path d="M115.47439003018044,-17.35164181228838L115.7548469863566,-14.865178630846348L116.71171695431313,-12.460159810705195zM-118.21623831346456,167.59344309998045L-95.1973790114859,41.18859686578542L-104.42344737324878,26.568093906840915z" style="fill:rgb(247,158,158)"/><path d="M59.704774426582944,-15.690015766160988L67.12858709924838,-35.907232245587274L-113.92320241128306,11.513878866224006z" style="fill:rgb(127,37,217)"/><path d="M-109.14212039304515,179.71411586415886L18.231534989970744,9.886702290039622L-96.56430163510683,39.0224318461012zM115.7548469863566,-14.865178630846348L150.24439957393096,-26.19780291017901L115.47439003018044,-17.35164181228838z" style="fill:rgb(83,212,212)"/><path d="M150.61236103098707,-23.71218153478745L115.7548469863566,-14.865178630846348L116.71171695431313,-12.460159810705195z" style="fill:rgb(127,37,217)"/><path d="M-121.76158514136007,168.3821987849612L-104.42344737324878,26.568093906840915L-107.56646968465952,27.37732873689763z" style="fill:rgb(83,212,212)"/><path d="M150.61236103098707,-23.71218153478745L116.71171695431313,-12.460159810705195L151.4972044947717,-21.26675795398869zM1.5567864506332418,-23.333878377011743L0.3245450432758777,-25.788834561123956L-62.815494402347795,-9.136057518396491z" style="fill:rgb(127,37,217)"/><path d="M115.7548469863566,-14.865178630846348L150.61236103098707,-23.71218153478745L150.24439957393096,-26.19780291017901z" style="fill:rgb(83,212,212)"/><path d="M150.61236103098707,-23.71218153478745L151.12792887574187,-23.75264786619552L150.24439957393096,-26.19780291017901zM150.61236103098707,-23.71218153478745L151.4972044947717,-21.26675795398869L151.12792887574187,-23.75264786619552z" style="fill:rgb(247,158,158)"/><path d="M151.00416592087305,-23.811622571630668L69.02912259118749,-41.0829319584765L53.61014102073496,0.9074438512112886zM67.12858709924838,-35.907232245587274L69.02912259118749,-41.0829319584765L-124.31209802749024,9.77678749075942zM151.00416592087305,-23.811622571630668L150.61236103098707,-23.71218153478745L151.4972044947717,-21.26675795398869z" style="fill:rgb(127,37,217)"/><path d="M0.3245450432758777,-25.788834561123956L1.5529844089597762,-25.819543084227394L0.3237506073416847,-28.274206584897826zM0.3245450432758777,-25.788834561123956L1.5567864506332418,-23.333878377011743L1.5529844089597762,-25.819543084227394z" style="fill:rgb(247,158,158)"/><path d="M35.73199005822637,-32.323897396913885L1.5529844089597762,-25.819543084227394L1.5567864506332418,-23.333878377011743zM35.73199005822637,-32.323897396913885L35.64398946249183,-34.80835500607431L1.5529844089597762,-25.819543084227394z" style="fill:rgb(83,212,212)"/><path d="M-104.1803438370118,24.082467090778277L-113.65405841442252,9.027037908079585L-129.57198515985004,156.10591304255558z" style="fill:rgb(247,158,158)"/><path d="M184.88815529579412,-29.720304497808424L148.16508265062976,-38.46590120796892L151.4972044947717,-21.26675795398869z" style="fill:rgb(127,37,217)"/><path d="M-113.65405841442252,9.027037908079585L-116.82868162439055,9.86048615913147L-133.1761768622748,156.92064536099997z" style="fill:rgb(83,212,212)"/><path d="M18.231534989970744,9.886702290039622L21.984218723158452,153.54226433625357L19.382866483097157,12.180462588822182z" style="fill:rgb(247,158,158)"/><path d="M69.02912259118749,-41.0829319584765L34.568776483851444,-34.82052878865131L35.73199005822637,-32.323897396913885zM184.88815529579412,-29.720304497808424L179.3861637380394,-46.50439171481905L148.16508265062976,-38.46590120796892z" style="fill:rgb(127,37,217)"/><path d="M20.7403660042173,154.5146778362752L51.345429171359996,-1.0359958627189512L18.188395037452004,7.3997928635477095zM-142.7564496105799,148.9327372980673L-121.00021472596028,6.2097877441704386L-125.78707794620337,7.472290307926257z" style="fill:rgb(83,212,212)"/><path d="M-137.3464352449574,147.6957325087625L-119.53412889168901,8.519909335952285L-121.00021472596028,6.2097877441704386z" style="fill:rgb(247,158,158)"/><path d="M69.02912259118749,-41.0829319584765L70.17823059239659,-44.21229379606432L34.568776483851444,-34.82052878865131z" style="fill:rgb(127,37,217)"/><path d="M166.77225501251306,-43.25669119723544L169.94433017706484,-46.664924469634364L166.35735785803618,-45.73917879255292z" style="fill:rgb(83,212,212)"/><path d="M151.00416592087305,-23.811622571630668L143.84514133244556,-60.763800119673036L69.02912259118749,-41.0829319584765z" style="fill:rgb(127,37,217)"/><path d="M166.77225501251306,-43.25669119723544L170.36853658630838,-44.18262443804322L169.94433017706484,-46.664924469634364z" style="fill:rgb(83,212,212)"/><path d="M171.38721189418015,-70.90550567452001L-174.45425941477058,-68.56506446832884L-125.78707794620337,7.472290307926257z" style="fill:rgb(127,37,217)"/><path d="M52.429338090460874,1.2953992489967274L51.345429171359996,-1.0359958627189512L58.61667438995343,146.2542684709214z" style="fill:rgb(247,158,158)"/><path d="M101.88505796823883,-49.725914295089346L70.17823059239659,-44.21229379606432L69.02912259118749,-41.0829319584765z" style="fill:rgb(127,37,217)"/><path d="M-112.64642612793669,180.48115403530028L-111.06402446484032,182.58154794144332L-98.30241202702528,41.97469675483141z" style="fill:rgb(247,158,158)"/><path d="M166.77225501251306,-43.25669119723544L144.7233484192271,-56.23086096705223L148.16508265062976,-38.46590120796892z" style="fill:rgb(127,37,217)"/><path d="M-117.89119016023821,181.6291453578878L-112.64642612793669,180.48115403530028L-99.67498519235299,39.811938561339446z" style="fill:rgb(83,212,212)"/><path d="M160.50548425569016,-62.94931503420016L166.77225501251306,-43.25669119723544L166.35735785803618,-45.73917879255292z" style="fill:rgb(247,158,158)"/><path d="M101.88505796823883,-49.725914295089346L100.85924655212192,-52.30421510714591L70.17823059239659,-44.21229379606432z" style="fill:rgb(127,37,217)"/><path d="M100.60623982527194,-54.78465933738076L101.88505796823883,-49.725914295089346L101.63007981971592,-52.20697941883274zM100.60623982527194,-54.78465933738076L100.85924655212192,-52.30421510714591L101.88505796823883,-49.725914295089346z" style="fill:rgb(247,158,158)"/><path d="M179.3861637380394,-46.50439171481905L164.56045746541827,-61.42660313302331L170.36853658630838,-44.18262443804322z" style="fill:rgb(127,37,217)"/><path d="M-118.21623831346456,167.59344309998045L-107.56687803458537,181.81824897371948L-95.1973790114859,41.18859686578542z" style="fill:rgb(247,158,158)"/><path d="M-133.73142742512923,146.86914250921615L0.3245450432758777,-25.788834561123956L-117.80248088612932,5.366405922743565zM137.78278822211502,-59.16905273507201L101.63007981971592,-52.20697941883274L101.88505796823883,-49.725914295089346z" style="fill:rgb(83,212,212)"/><path d="M166.77225501251306,-43.25669119723544L160.9121405668487,-60.47103723391192L144.7233484192271,-56.23086096705223z" style="fill:rgb(127,37,217)"/><path d="M100.85924655212192,-52.30421510714591L136.48741094314235,-64.2701259440975L100.60623982527194,-54.78465933738076z" style="fill:rgb(83,212,212)"/><path d="M160.50548425569016,-62.94931503420016L160.9121405668487,-60.47103723391192L166.77225501251306,-43.25669119723544z" style="fill:rgb(247,158,158)"/><path d="M137.78278822211502,-59.16905273507201L137.43499526558256,-61.647701413750745L101.63007981971592,-52.20697941883274z" style="fill:rgb(83,212,212)"/><path d="M136.83362908088748,-61.79222232633098L100.85924655212192,-52.30421510714591L101.88505796823883,-49.725914295089346z" style="fill:rgb(127,37,217)"/><path d="M58.45747415362105,143.02942970247366L171.61129153741757,-29.041808488523795L51.468207645989544,1.4510773561382468z" style="fill:rgb(83,212,212)"/><path d="M136.83362908088748,-61.79222232633098L101.88505796823883,-49.725914295089346L137.78278822211502,-59.16905273507201zM179.3861637380394,-46.50439171481905L173.70900091638265,-63.82278881661151L164.56045746541827,-61.42660313302331z" style="fill:rgb(127,37,217)"/><path d="M100.85924655212192,-52.30421510714591L136.83362908088748,-61.79222232633098L136.48741094314235,-64.2701259440975z" style="fill:rgb(83,212,212)"/><path d="M136.83362908088748,-61.79222232633098L137.43499526558256,-61.647701413750745L136.48741094314235,-64.2701259440975zM136.83362908088748,-61.79222232633098L137.78278822211502,-59.16905273507201L137.43499526558256,-61.647701413750745z" style="fill:rgb(247,158,158)"/><path d="M143.84514133244556,-60.763800119673036L136.83362908088748,-61.79222232633098L137.78278822211502,-59.16905273507201zM173.70900091638265,-63.82278881661151L143.31473778431746,-63.50157110443358L144.7233484192271,-56.23086096705223zM143.84514133244556,-60.763800119673036L143.31473778431746,-63.50157110443358L136.83362908088748,-61.79222232633098z" style="fill:rgb(127,37,217)"/><path d="M-121.76158514136007,168.3821987849612L-118.21623831346456,167.59344309998045L-104.42344737324878,26.568093906840915z" style="fill:rgb(83,212,212)"/><path d="M173.70900091638265,-63.82278881661151L171.38721189418015,-70.90550567452001L143.31473778431746,-63.50157110443358z" style="fill:rgb(127,37,217)"/><path d="M-169.3787374678227,-70.02019081379603L-165.56418741073028,-73.46743766751456L-168.94698545585348,-72.49555274850717zM-169.3787374678227,-70.02019081379603L-165.98766458917683,-70.99240133839156L-165.56418741073028,-73.46743766751456zM-109.14212039304515,179.71411586415886L20.684554458511485,151.29727494404975L18.231534989970744,9.886702290039622z" style="fill:rgb(83,212,212)"/><path d="M-104.1803438370118,24.082467090778277L-129.57198515985004,156.10591304255558L-118.5293578316398,170.79495784633218zM0.3245450432758777,-25.788834561123956L1.773935047238671,118.63171421801151L1.5567864506332418,-23.333878377011743zM-180.38537056763772,-90.57019057790433L-169.3787374678227,-70.02019081379603L-168.94698545585348,-72.49555274850717z" style="fill:rgb(247,158,158)"/><path d="M-169.3787374678227,-70.02019081379603L-185.99656071177327,-86.59868015403217L-174.45425941477058,-68.56506446832884z" style="fill:rgb(127,37,217)"/><path d="M0.3709708378486226,119.45263884536992L34.483442893791626,-37.30458502859602L0.3237506073416847,-28.274206584897826z" style="fill:rgb(83,212,212)"/><path d="M195.69483441524045,112.99050644476976L172.4521050528803,-26.57188219911436L171.61129153741757,-29.041808488523795z" style="fill:rgb(247,158,158)"/><path d="M199.7702889387326,112.09846054739549L184.07369855826755,-32.20482998547079L175.16448316106127,-29.94362374176417z" style="fill:rgb(83,212,212)"/><path d="M-180.38537056763772,-90.57019057790433L-180.85385259478903,-88.1015046165095L-169.3787374678227,-70.02019081379603z" style="fill:rgb(247,158,158)"/><path d="M-169.3787374678227,-70.02019081379603L-180.85385259478903,-88.1015046165095L-185.99656071177327,-86.59868015403217z" style="fill:rgb(127,37,217)"/><path d="M-113.65405841442252,9.027037908079585L-133.1761768622748,156.92064536099997L-129.57198515985004,156.10591304255558z" style="fill:rgb(83,212,212)"/><path d="M18.231534989970744,9.886702290039622L20.684554458511485,151.29727494404975L21.984218723158452,153.54226433625357zM184.88815529579412,-29.720304497808424L184.07369855826755,-32.20482998547079L209.99325735892631,109.8608247050055zM-172.47421972676455,-36.37931837092105L-165.6719187050525,-73.63864333287029L-165.99115758194574,-74.14597639089223zM-172.75426491775534,-38.74082052220222L-165.99115758194574,-74.14597639089223L-166.51021207074086,-74.97082593921593zM-172.42531237071915,-34.20069493818852L-165.56418741073028,-73.46743766751456L-165.6719187050525,-73.63864333287029zM-173.2545029984595,-41.19721527592239L-166.51021207074086,-74.97082593921593L-167.20992930919326,-76.08281359644347zM35.64398946249183,-34.80835500607431L34.483442893791626,-37.30458502859602L39.561688558829125,110.52301237025645zM-173.9562440698832,-43.65740425631306L-167.20992930919326,-76.08281359644347L-168.0644461554173,-77.44077434026147zM127.90820418351522,-204.81585993474147L184.88815529579412,-29.720304497808424L184.4339131633724,-32.20514961251775zM-137.3464352449574,147.6957325087625L-135.6414049221115,149.9589002628911L-119.53412889168901,8.519909335952285zM-174.83353728975175,-46.03019016600559L-168.0644461554173,-77.44077434026147L-169.04188332542253,-78.99409623202816z" style="fill:rgb(247,158,158)"/><path d="M-142.7564496105799,148.9327372980673L-137.3464352449574,147.6957325087625L-121.00021472596028,6.2097877441704386z" style="fill:rgb(83,212,212)"/><path d="M-175.85412990895097,-48.22730217468306L-169.04188332542253,-78.99409623202816L-170.10553241756506,-80.68443383079604z" style="fill:rgb(247,158,158)"/><path d="M-112.64642612793669,180.48115403530028L-116.29811639509629,183.72394914744194L-111.06402446484032,182.58154794144332zM-112.64642612793669,180.48115403530028L-117.89119016023821,181.6291453578878L-116.29811639509629,183.72394914744194z" style="fill:rgb(127,37,217)"/><path d="M-176.9804652461364,-50.166329729101705L-170.10553241756506,-80.68443383079604L-171.21511108287004,-82.44774466053116zM194.66403336745665,97.98569530731982L175.99780038696915,-27.469539587419L170.36853658630838,-44.18262443804322z" style="fill:rgb(247,158,158)"/><path d="M20.7403660042173,154.5146778362752L58.61667438995343,146.2542684709214L51.345429171359996,-1.0359958627189512z" style="fill:rgb(83,212,212)"/><path d="M-178.1708224849745,-51.77360659870138L-171.21511108287004,-82.44774466053116L-172.32816205806114,-84.21660512250689zM52.429338090460874,1.2953992489967274L58.61667438995343,146.2542684709214L59.83513206033679,148.53908966651804zM-179.38080878086157,-52.986890378397995L-172.32816205806114,-84.21660512250689L-173.40177595907912,-85.92275278877813z" style="fill:rgb(247,158,158)"/><path d="M-83.32648967316908,179.67212447128242L-118.19842097703518,184.81568714942887L-116.60045532940732,186.9081344411328zM-118.21623831346456,167.59344309998045L-111.06402446484032,182.58154794144332L-107.56687803458537,181.81824897371948z" style="fill:rgb(127,37,217)"/><path d="M-180.5646969536756,-53.75783202017902L-173.40177595907912,-85.92275278877813L-174.39409791594676,-87.49972443692758z" style="fill:rgb(247,158,158)"/><path d="M190.53173164836366,98.90503423017013L170.36853658630838,-44.18262443804322L166.77225501251306,-43.25669119723544zM39.4499645693262,107.27072733832898L158.5156894687715,-67.51072884087876L34.568776483851444,-34.82052878865131z" style="fill:rgb(83,212,212)"/><path d="M-181.67719167945125,-54.05405376830034L-174.39409791594676,-87.49972443692758L-175.26615375896546,-88.88558834912796zM-173.2545029984595,-41.19721527592239L-172.75426491775534,-38.74082052220222L-166.51021207074086,-74.97082593921593zM-172.75426491775534,-38.74082052220222L-172.47421972676455,-36.37931837092105L-165.99115758194574,-74.14597639089223z" style="fill:rgb(247,158,158)"/><path d="M-83.32648967316908,179.67212447128242L-84.8558591475603,177.54403022972647L-118.19842097703518,184.81568714942887z" style="fill:rgb(127,37,217)"/><path d="M-173.9562440698832,-43.65740425631306L-173.2545029984595,-41.19721527592239L-167.20992930919326,-76.08281359644347zM-190.32864593087473,71.26984128872996L-113.92320241128306,11.513878866224006L-165.98766458917683,-70.99240133839156zM-172.47421972676455,-36.37931837092105L-172.42531237071915,-34.20069493818852L-165.6719187050525,-73.63864333287029zM-174.83353728975175,-46.03019016600559L-173.9562440698832,-43.65740425631306L-168.0644461554173,-77.44077434026147zM-182.67508982637537,-53.86082895021558L-175.26615375896546,-88.88558834912796L-175.9834295767102,-90.02548472976514zM-84.8558591475603,177.54403022972647L-83.10860401857242,176.479951408514L-84.63342799573196,174.34959374952143zM-84.8558591475603,177.54403022972647L-83.32648967316908,179.67212447128242L-83.10860401857242,176.479951408514zM-172.42531237071915,-34.20069493818852L-172.61015792903504,-32.28686432302618L-165.56418741073028,-73.46743766751456zM-175.85412990895097,-48.22730217468306L-174.83353728975175,-46.03019016600559L-169.04188332542253,-78.99409623202816z" style="fill:rgb(247,158,158)"/><path d="M171.38721189418015,-70.90550567452001L142.37790945885638,-159.39958781752378L-174.45425941477058,-68.56506446832884z" style="fill:rgb(127,37,217)"/><path d="M-183.51901949458158,-53.182139616664486L-175.9834295767102,-90.02548472976514L-176.51737009190887,-90.87399053994841z" style="fill:rgb(247,158,158)"/><path d="M-118.21623831346456,167.59344309998045L-121.76158514136007,168.3821987849612L-111.06402446484032,182.58154794144332z" style="fill:rgb(127,37,217)"/><path d="M-176.9804652461364,-50.166329729101705L-175.85412990895097,-48.22730217468306L-170.10553241756506,-80.68443383079604zM-184.17502365386662,-52.04104107038802L-176.51737009190887,-90.87399053994841L-176.84655547965605,-91.39713531298584z" style="fill:rgb(247,158,158)"/><path d="M-188.18493437429368,-49.470135259092714L-176.95777960280404,-91.57388202037544L-180.38537056763772,-90.57019057790433z" style="fill:rgb(83,212,212)"/><path d="M-184.61621757966648,-50.47925483017503L-176.84655547965605,-91.39713531298584L-176.95777960280404,-91.57388202037544zM-178.1708224849745,-51.77360659870138L-176.9804652461364,-50.166329729101705L-171.21511108287004,-82.44774466053116z" style="fill:rgb(247,158,158)"/><path d="M-84.8558591475603,177.54403022972647L-48.800031594212,166.50625646382764L-84.63342799573196,174.34959374952143z" style="fill:rgb(83,212,212)"/><path d="M20.684554458511485,151.29727494404975L-109.14212039304515,179.71411586415886L-107.56687803458537,181.81824897371948zM-47.47553604467261,171.87569959599594L-84.8558591475603,177.54403022972647L-83.32648967316908,179.67212447128242z" style="fill:rgb(127,37,217)"/><path d="M-179.38080878086157,-52.986890378397995L-178.1708224849745,-51.77360659870138L-172.32816205806114,-84.21660512250689z" style="fill:rgb(247,158,158)"/><path d="M128.58137952419463,-155.4441815318196L-177.41776911241274,-89.1056111400545L-165.98766458917683,-70.99240133839156z" style="fill:rgb(127,37,217)"/><path d="M-180.5646969536756,-53.75783202017902L-179.38080878086157,-52.986890378397995L-173.40177595907912,-85.92275278877813z" style="fill:rgb(247,158,158)"/><path d="M-84.8558591475603,177.54403022972647L-48.92944952864639,169.70888122515237L-48.800031594212,166.50625646382764z" style="fill:rgb(83,212,212)"/><path d="M-47.47553604467261,171.87569959599594L-48.92944952864639,169.70888122515237L-84.8558591475603,177.54403022972647z" style="fill:rgb(127,37,217)"/><path d="M-122.08380338259379,171.58290374119483L-118.21623831346456,167.59344309998045L-121.76158514136007,168.3821987849612z" style="fill:rgb(83,212,212)"/><path d="M169.94433017706484,-46.664924469634364L164.1442221925898,-63.9046077542685L189.00339306545828,84.09135588593453zM-48.92944952864639,169.70888122515237L-47.350274969106906,168.6752965603152L-48.800031594212,166.50625646382764zM-48.92944952864639,169.70888122515237L-47.47553604467261,171.87569959599594L-47.350274969106906,168.6752965603152z" style="fill:rgb(247,158,158)"/><path d="M-122.08380338259379,171.58290374119483L-118.5293578316398,170.79495784633218L-118.21623831346456,167.59344309998045z" style="fill:rgb(83,212,212)"/><path d="M-181.67719167945125,-54.05405376830034L-180.5646969536756,-53.75783202017902L-174.39409791594676,-87.49972443692758z" style="fill:rgb(247,158,158)"/><path d="M-173.2545029984595,-41.19721527592239L-176.76073013659078,-40.217079097255855L-176.26201888798454,-37.76260847609855z" style="fill:rgb(93,135,250)"/><path d="M-173.9562440698832,-43.65740425631306L-177.46239307181716,-42.67488240753472L-176.76073013659078,-40.217079097255855zM-173.9562440698832,-43.65740425631306L-176.76073013659078,-40.217079097255855L-173.2545029984595,-41.19721527592239z" style="fill:rgb(99,111,250)"/><path d="M-173.2545029984595,-41.19721527592239L-176.26201888798454,-37.76260847609855L-172.75426491775534,-38.74082052220222z" style="fill:rgb(93,135,250)"/><path d="M-172.75426491775534,-38.74082052220222L-176.26201888798454,-37.76260847609855L-175.98491424797768,-35.40250261470188z" style="fill:rgb(89,159,244)"/><path d="M-174.83353728975175,-46.03019016600559L-178.34105949575635,-45.0449161247982L-177.46239307181716,-42.67488240753472zM-174.83353728975175,-46.03019016600559L-177.46239307181716,-42.67488240753472L-173.9562440698832,-43.65740425631306z" style="fill:rgb(106,87,246)"/><path d="M-172.75426491775534,-38.74082052220222L-175.98491424797768,-35.40250261470188L-172.47421972676455,-36.37931837092105z" style="fill:rgb(89,159,244)"/><path d="M-133.73142742512923,146.86914250921615L0.3699332196453678,116.20649431429233L0.3245450432758777,-25.788834561123956z" style="fill:rgb(83,212,212)"/><path d="M-182.67508982637537,-53.86082895021558L-181.67719167945125,-54.05405376830034L-175.26615375896546,-88.88558834912796z" style="fill:rgb(247,158,158)"/><path d="M-175.85412990895097,-48.22730217468306L-178.34105949575635,-45.0449161247982L-174.83353728975175,-46.03019016600559z" style="fill:rgb(114,65,238)"/><path d="M-172.47421972676455,-36.37931837092105L-175.98491424797768,-35.40250261470188L-175.94019602445093,-33.22469704847076z" style="fill:rgb(85,182,234)"/><path d="M-175.85412990895097,-48.22730217468306L-179.36442701329906,-47.23899112123011L-178.34105949575635,-45.0449161247982z" style="fill:rgb(114,65,238)"/><path d="M-172.47421972676455,-36.37931837092105L-175.94019602445093,-33.22469704847076L-172.42531237071915,-34.20069493818852z" style="fill:rgb(85,182,234)"/><path d="M-176.9804652461364,-50.166329729101705L-179.36442701329906,-47.23899112123011L-175.85412990895097,-48.22730217468306z" style="fill:rgb(123,46,225)"/><path d="M164.1442221925898,-63.9046077542685L160.50548425569016,-62.94931503420016L184.78939489576888,85.04394163139031z" style="fill:rgb(83,212,212)"/><path d="M-172.42531237071915,-34.20069493818852L-175.94019602445093,-33.22469704847076L-176.1303856931407,-31.311074976131984z" style="fill:rgb(84,202,220)"/><path d="M-176.9804652461364,-50.166329729101705L-180.4948384265394,-49.17482199350938L-179.36442701329906,-47.23899112123011z" style="fill:rgb(123,46,225)"/><path d="M-183.51901949458158,-53.182139616664486L-182.67508982637537,-53.86082895021558L-175.9834295767102,-90.02548472976514z" style="fill:rgb(247,158,158)"/><path d="M-172.42531237071915,-34.20069493818852L-176.1303856931407,-31.311074976131984L-172.61015792903504,-32.28686432302618z" style="fill:rgb(84,202,220)"/><path d="M20.684554458511485,151.29727494404975L-107.56687803458537,181.81824897371948L21.984218723158452,153.54226433625357zM-122.08380338259379,171.58290374119483L-138.57005488037126,158.13994128868686L-127.40342653017417,172.76214269544369z" style="fill:rgb(127,37,217)"/><path d="M-133.1761768622748,156.92064536099997L-122.08380338259379,171.58290374119483L-121.76158514136007,168.3821987849612z" style="fill:rgb(247,158,158)"/><path d="M-178.1708224849745,-51.77360659870138L-180.4948384265394,-49.17482199350938L-176.9804652461364,-50.166329729101705zM-178.1708224849745,-51.77360659870138L-181.6904445015363,-50.77885568904026L-180.4948384265394,-49.17482199350938z" style="fill:rgb(131,29,208)"/><path d="M58.45747415362105,143.02942970247366L195.69483441524045,112.99050644476976L171.61129153741757,-29.041808488523795z" style="fill:rgb(83,212,212)"/><path d="M-184.17502365386662,-52.04104107038802L-183.51901949458158,-53.182139616664486L-176.51737009190887,-90.87399053994841zM-190.32864593087473,71.26984128872996L-129.22393554891437,152.88999201726625L-113.92320241128306,11.513878866224006z" style="fill:rgb(247,158,158)"/><path d="M-129.57198515985004,156.10591304255558L-122.08380338259379,171.58290374119483L-118.5293578316398,170.79495784633218zM22.043387061802967,156.7575739199596L-48.92944952864639,169.70888122515237L-47.47553604467261,171.87569959599594z" style="fill:rgb(127,37,217)"/><path d="M-179.38080878086157,-52.986890378397995L-181.6904445015363,-50.77885568904026L-178.1708224849745,-51.77360659870138zM-179.38080878086157,-52.986890378397995L-182.90660080441884,-51.98897699565253L-181.6904445015363,-50.77885568904026z" style="fill:rgb(140,16,189)"/><path d="M-184.61621757966648,-50.47925483017503L-184.17502365386662,-52.04104107038802L-176.84655547965605,-91.39713531298584z" style="fill:rgb(247,158,158)"/><path d="M-188.18493437429368,-49.470135259092714L-184.61621757966648,-50.47925483017503L-176.95777960280404,-91.57388202037544z" style="fill:rgb(83,212,212)"/><path d="M-180.5646969536756,-53.75783202017902L-182.90660080441884,-51.98897699565253L-179.38080878086157,-52.986890378397995zM-180.5646969536756,-53.75783202017902L-184.09741080738578,-52.756943841436374L-182.90660080441884,-51.98897699565253z" style="fill:rgb(148,8,167)"/><path d="M-133.1761768622748,156.92064536099997L-121.76158514136007,168.3821987849612L-132.8187740628715,153.70549902757267zM181.6775795265898,74.74998050073913L159.4179404190243,-64.86032980593518L158.5156894687715,-67.51072884087876z" style="fill:rgb(247,158,158)"/><path d="M-122.08380338259379,171.58290374119483L-133.1761768622748,156.92064536099997L-138.57005488037126,158.13994128868686z" style="fill:rgb(127,37,217)"/><path d="M-181.67719167945125,-54.05405376830034L-184.09741080738578,-52.756943841436374L-180.5646969536756,-53.75783202017902z" style="fill:rgb(155,4,143)"/><path d="M-129.57198515985004,156.10591304255558L-133.1761768622748,156.92064536099997L-122.08380338259379,171.58290374119483z" style="fill:rgb(127,37,217)"/><path d="M-181.67719167945125,-54.05405376830034L-185.21730017739398,-53.05051049428433L-184.09741080738578,-52.756943841436374z" style="fill:rgb(155,4,143)"/><path d="M185.90702148322035,73.78290844181251L171.38721189418015,-70.90550567452001L162.18524115828887,-68.47854755842198z" style="fill:rgb(83,212,212)"/><path d="M135.45005562640833,-180.53327967942786L-197.9200453741696,-105.22789049581323L-185.99656071177327,-86.59868015403217z" style="fill:rgb(127,37,217)"/><path d="M0.3245450432758777,-25.788834561123956L0.3699332196453678,116.20649431429233L1.773935047238671,118.63171421801151z" style="fill:rgb(247,158,158)"/><path d="M22.043387061802967,156.7575739199596L20.7403660042173,154.5146778362752L-48.92944952864639,169.70888122515237z" style="fill:rgb(127,37,217)"/><path d="M172.26136364560898,-68.23887560227598L171.38721189418015,-70.90550567452001L196.51774987187957,71.35673755041954z" style="fill:rgb(247,158,158)"/><path d="M-169.3787374678227,-70.02019081379603L-190.32864593087473,71.26984128872996L-165.98766458917683,-70.99240133839156z" style="fill:rgb(83,212,212)"/><path d="M172.10938222403706,121.50277097592527L-127.40342653017417,172.76214269544369L-118.19842097703518,184.81568714942887z" style="fill:rgb(127,37,217)"/><path d="M-182.67508982637537,-53.86082895021558L-185.21730017739398,-53.05051049428433L-181.67719167945125,-54.05405376830034zM-182.67508982637537,-53.86082895021558L-186.22280602886465,-52.855057592449L-185.21730017739398,-53.05051049428433z" style="fill:rgb(161,4,119)"/><path d="M195.69483441524045,112.99050644476976L196.58999603567628,115.43260166675186L172.4521050528803,-26.57188219911436zM20.7403660042173,154.5146778362752L21.984218723158452,153.54226433625357L20.684554458511485,151.29727494404975zM20.7403660042173,154.5146778362752L22.043387061802967,156.7575739199596L21.984218723158452,153.54226433625357zM184.88815529579412,-29.720304497808424L209.99325735892631,109.8608247050055L210.85369657369452,112.31937766082015z" style="fill:rgb(247,158,158)"/><path d="M-137.3464352449574,147.6957325087625L-141.04008379214565,151.18966323168985L-135.6414049221115,149.9589002628911zM-137.3464352449574,147.6957325087625L-142.7564496105799,148.9327372980673L-141.04008379214565,151.18966323168985z" style="fill:rgb(127,37,217)"/><path d="M199.7702889387326,112.09846054739549L209.99325735892631,109.8608247050055L184.07369855826755,-32.20482998547079zM0.3709708378486226,119.45263884536992L39.561688558829125,110.52301237025645L34.483442893791626,-37.30458502859602z" style="fill:rgb(83,212,212)"/><path d="M59.83513206033679,148.53908966651804L20.7403660042173,154.5146778362752L22.043387061802967,156.7575739199596z" style="fill:rgb(127,37,217)"/><path d="M194.66403336745665,97.98569530731982L200.65557945707243,114.54523355781521L175.99780038696915,-27.469539587419z" style="fill:rgb(247,158,158)"/><path d="M-197.9200453741696,-105.22789049581323L127.90820418351522,-204.81585993474147L-197.3996023297939,-107.68887066903497z" style="fill:rgb(83,212,212)"/><path d="M35.64398946249183,-34.80835500607431L39.561688558829125,110.52301237025645L40.87921477755231,112.99358841608402z" style="fill:rgb(247,158,158)"/><path d="M-107.08841640559666,146.60780526106342L-143.14266432646926,152.15231202033544L-141.42068763679075,154.40716579103275zM59.83513206033679,148.53908966651804L58.61667438995343,146.2542684709214L20.7403660042173,154.5146778362752zM128.58137952419463,-155.4441815318196L121.43478040250744,-176.43765273908525L-177.41776911241274,-89.1056111400545zM-107.08841640559666,146.60780526106342L-108.73753797222604,144.31308813361926L-143.14266432646926,152.15231202033544z" style="fill:rgb(127,37,217)"/><path d="M-108.73753797222604,144.31308813361926L-106.79768364214118,143.38326649266875L-108.44157313094789,141.08654949618975zM-108.73753797222604,144.31308813361926L-107.08841640559666,146.60780526106342L-106.79768364214118,143.38326649266875z" style="fill:rgb(247,158,158)"/><path d="M150.10301103555224,111.24541058106706L-129.57198515985004,156.10591304255558L-118.5293578316398,170.79495784633218z" style="fill:rgb(127,37,217)"/><path d="M127.90820418351522,-204.81585993474147L128.27401643431637,-202.424095039711L184.88815529579412,-29.720304497808424z" style="fill:rgb(247,158,158)"/><path d="M-107.08841640559666,146.60780526106342L-69.88041197943521,134.96707431335957L-106.79768364214118,143.38326649266875zM190.53173164836366,98.90503423017013L194.66403336745665,97.98569530731982L170.36853658630838,-44.18262443804322zM-108.73753797222604,144.31308813361926L-71.4444548043784,132.62705634700654L-108.44157313094789,141.08654949618975z" style="fill:rgb(83,212,212)"/><path d="M0.3699332196453678,116.20649431429233L-133.73142742512923,146.86914250921615L-132.03398590771047,149.13650277389124zM-70.07243323303106,138.1987854417663L-108.73753797222604,144.31308813361926L-107.08841640559666,146.60780526106342zM133.16930081651026,132.59127112020093L58.61667438995343,146.2542684709214L59.83513206033679,148.53908966651804z" style="fill:rgb(127,37,217)"/><path d="M-107.08841640559666,146.60780526106342L-70.07243323303106,138.1987854417663L-69.88041197943521,134.96707431335957zM-108.73753797222604,144.31308813361926L-71.64128195462855,135.86067513949033L-71.4444548043784,132.62705634700654z" style="fill:rgb(83,212,212)"/><path d="M195.69483441524045,112.99050644476976L58.45747415362105,143.02942970247366L59.67303615586204,145.3162587890271zM-70.07243323303106,138.1987854417663L-71.64128195462855,135.86067513949033L-108.73753797222604,144.31308813361926z" style="fill:rgb(127,37,217)"/><path d="M-71.64128195462855,135.86067513949033L-69.88041197943521,134.96707431335957L-71.4444548043784,132.62705634700654zM-71.64128195462855,135.86067513949033L-70.07243323303106,138.1987854417663L-69.88041197943521,134.96707431335957z" style="fill:rgb(247,158,158)"/><path d="M128.58137952419463,-155.4441815318196L132.14994797141517,-159.00145778804043L128.2285017532031,-157.87481837999596z" style="fill:rgb(83,212,212)"/><path d="M123.57657479031582,98.88121335159869L-141.42068763679075,154.40716579103275L-138.57005488037126,158.13994128868686z" style="fill:rgb(127,37,217)"/><path d="M128.58137952419463,-155.4441815318196L132.51395997529252,-156.57163494481978L132.14994797141517,-159.00145778804043z" style="fill:rgb(83,212,212)"/><path d="M133.16930081651026,132.59127112020093L132.12001361324988,130.22400473855623L58.61667438995343,146.2542684709214z" style="fill:rgb(127,37,217)"/><path d="M169.94433017706484,-46.664924469634364L189.00339306545828,84.09135588593453L195.2208254041,101.2438377116604z" style="fill:rgb(247,158,158)"/><path d="M172.10938222403706,121.50277097592527L150.10301103555224,111.24541058106706L-127.40342653017417,172.76214269544369zM0.3699332196453678,116.20649431429233L-132.03398590771047,149.13650277389124L1.773935047238671,118.63171421801151z" style="fill:rgb(127,37,217)"/><path d="M-218.03333500390806,34.263534879124705L-177.41776911241274,-89.1056111400545L-189.2262244913834,-107.81839594721433zM131.7547743175504,126.98589859536474L133.16930081651026,132.59127112020093L132.8021144792757,129.3550156816176zM121.09568682945367,-178.85217865643864L128.58137952419463,-155.4441815318196L128.2285017532031,-157.87481837999596z" style="fill:rgb(247,158,158)"/><path d="M39.4499645693262,107.27072733832898L181.6775795265898,74.74998050073913L158.5156894687715,-67.51072884087876z" style="fill:rgb(83,212,212)"/><path d="M1.7788976443413809,121.87612204826365L-71.64128195462855,135.86067513949033L-70.07243323303106,138.1987854417663z" style="fill:rgb(127,37,217)"/><path d="M131.7547743175504,126.98589859536474L132.12001361324988,130.22400473855623L133.16930081651026,132.59127112020093z" style="fill:rgb(247,158,158)"/><path d="M-190.32864593087473,71.26984128872996L-132.8187740628715,153.70549902757267L-129.22393554891437,152.88999201726625zM135.45005562640833,-180.53327967942786L128.27401643431637,-202.424095039711L-197.9200453741696,-105.22789049581323zM195.69483441524045,112.99050644476976L59.67303615586204,145.3162587890271L196.58999603567628,115.43260166675186zM142.37790945885638,-159.39958781752378L125.42954979230112,-177.6050310184104L132.51395997529252,-156.57163494481978z" style="fill:rgb(127,37,217)"/><path d="M-189.2262244913834,-107.81839594721433L-192.70846603102993,-106.78079260793145L-222.01518821365102,35.31116307538025zM132.12001361324988,130.22400473855623L171.629053693028,118.25809166647589L131.7547743175504,126.98589859536474z" style="fill:rgb(83,212,212)"/><path d="M173.0638149415156,123.9155036464383L132.12001361324988,130.22400473855623L133.16930081651026,132.59127112020093z" style="fill:rgb(127,37,217)"/><path d="M121.09568682945367,-178.85217865643864L121.43478040250744,-176.43765273908525L128.58137952419463,-155.4441815318196z" style="fill:rgb(247,158,158)"/><path d="M-197.9200453741696,-105.22789049581323L128.27401643431637,-202.424095039711L127.90820418351522,-204.81585993474147zM164.1442221925898,-63.9046077542685L184.78939489576888,85.04394163139031L189.00339306545828,84.09135588593453z" style="fill:rgb(83,212,212)"/><path d="M1.7788976443413809,121.87612204826365L0.3709708378486226,119.45263884536992L-71.64128195462855,135.86067513949033z" style="fill:rgb(127,37,217)"/><path d="M137.44836548853436,-122.61261392871104L132.08317035649134,-159.1999400809267L131.88528416981762,-159.78812524721639z" style="fill:rgb(247,158,158)"/><path d="M132.12001361324988,130.22400473855623L172.10938222403706,121.50277097592527L171.629053693028,118.25809166647589z" style="fill:rgb(83,212,212)"/><path d="M173.0638149415156,123.9155036464383L172.10938222403706,121.50277097592527L132.12001361324988,130.22400473855623z" style="fill:rgb(127,37,217)"/><path d="M136.89144162547802,-125.09207107826568L131.88528416981762,-159.78812524721639L131.56351072938125,-160.7445244315192zM137.89865323897834,-120.37007269488524L132.14994797141517,-159.00145778804043L132.08317035649134,-159.1999400809267zM136.24874508055285,-127.71617741418312L131.56351072938125,-160.7445244315192L131.1296707408817,-162.03403215098922zM172.10938222403706,121.50277097592527L172.58208584207463,120.67259371388636L171.629053693028,118.25809166647589zM135.54410634418667,-130.38785093437014L131.1296707408817,-162.03403215098922L130.5997836288717,-163.60904180351474zM172.10938222403706,121.50277097592527L173.0638149415156,123.9155036464383L172.58208584207463,120.67259371388636z" style="fill:rgb(247,158,158)"/><path d="M142.37790945885638,-159.39958781752378L135.45005562640833,-180.53327967942786L125.42954979230112,-177.6050310184104z" style="fill:rgb(127,37,217)"/><path d="M181.6775795265898,74.74998050073913L182.64788580609823,77.39707275271158L159.4179404190243,-64.86032980593518zM134.80352008144595,-133.00836593876932L130.5997836288717,-163.60904180351474L129.99353405178098,-165.41099451792095z" style="fill:rgb(247,158,158)"/><path d="M150.10301103555224,111.24541058106706L123.57657479031582,98.88121335159869L-129.57198515985004,156.10591304255558z" style="fill:rgb(127,37,217)"/><path d="M0.3709708378486226,119.45263884536992L1.773935047238671,118.63171421801151L0.3699332196453678,116.20649431429233zM0.3709708378486226,119.45263884536992L1.7788976443413809,121.87612204826365L1.773935047238671,118.63171421801151zM134.0543482858685,-135.48059345948303L129.99353405178098,-165.41099451792095L129.33365793990788,-167.3723423808488z" style="fill:rgb(247,158,158)"/><path d="M1.7788976443413809,121.87612204826365L40.76407552257219,109.74296151532414L1.773935047238671,118.63171421801151z" style="fill:rgb(83,212,212)"/><path d="M211.44760727094376,115.56825871547429L172.10938222403706,121.50277097592527L173.0638149415156,123.9155036464383z" style="fill:rgb(127,37,217)"/><path d="M133.32441399841107,-137.71215329960765L129.33365793990788,-167.3723423808488L128.6451408545594,-169.41884382483533zM172.26136364560898,-68.23887560227598L196.51774987187957,71.35673755041954L197.45067718316335,74.0224184715143z" style="fill:rgb(247,158,158)"/><path d="M185.90702148322035,73.78290844181251L196.51774987187957,71.35673755041954L171.38721189418015,-70.90550567452001zM-169.3787374678227,-70.02019081379603L-194.19211160444456,72.24194506410076L-190.32864593087473,71.26984128872996z" style="fill:rgb(83,212,212)"/><path d="M132.6410405700702,-139.61859038975996L128.6451408545594,-169.41884382483533L127.9542784635185,-171.47228609139398z" style="fill:rgb(247,158,158)"/><path d="M40.87921477755231,112.99358841608402L0.3709708378486226,119.45263884536992L1.7788976443413809,121.87612204826365zM209.99325735892631,109.8608247050055L200.65557945707243,114.54523355781521L210.85369657369452,112.31937766082015zM209.99325735892631,109.8608247050055L199.7702889387326,112.09846054739549L200.65557945707243,114.54523355781521z" style="fill:rgb(127,37,217)"/><path d="M-182.30835546566152,24.39479988899951L-186.01687185005207,25.370963602574992L-186.47924633672113,27.149366134140607zM-182.30835546566152,24.39479988899951L-186.47924633672113,27.149366134140607L-182.76375829873078,26.172961993509368z" style="fill:rgb(84,220,202)"/><path d="M1.7788976443413809,121.87612204826365L40.87921477755231,112.99358841608402L40.76407552257219,109.74296151532414z" style="fill:rgb(83,212,212)"/><path d="M132.0301729127164,-141.1264423371011L127.9542784635185,-171.47228609139398L127.2877523164192,-173.45339917465586z" style="fill:rgb(247,158,158)"/><path d="M211.44760727094376,115.56825871547429L210.58631386525832,113.11138271072917L172.10938222403706,121.50277097592527zM123.57657479031582,98.88121335159869L116.83442484219398,95.73863461111743L-141.42068763679075,154.40716579103275z" style="fill:rgb(127,37,217)"/><path d="M-182.76375829873078,26.172961993509368L-186.47924633672113,27.149366134140607L-187.17085543952896,28.52263493002318z" style="fill:rgb(85,234,182)"/><path d="M210.58631386525832,113.11138271072917L150.10301103555224,111.24541058106706L172.10938222403706,121.50277097592527zM194.66403336745665,97.98569530731982L196.58999603567628,115.43260166675186L200.65557945707243,114.54523355781521z" style="fill:rgb(127,37,217)"/><path d="M-182.76375829873078,26.172961993509368L-187.17085543952896,28.52263493002318L-183.44759064755698,27.545342172872008z" style="fill:rgb(85,234,182)"/><path d="M131.51540487725524,-142.17605400606533L127.2877523164192,-173.45339917465586L126.67156073340303,-175.28492306403743z" style="fill:rgb(247,158,158)"/><path d="M40.87921477755231,112.99358841608402L39.561688558829125,110.52301237025645L0.3709708378486226,119.45263884536992z" style="fill:rgb(127,37,217)"/><path d="M-183.44759064755698,27.545342172872008L-187.17085543952896,28.52263493002318L-188.06698386320392,29.435985773138814z" style="fill:rgb(89,244,159)"/><path d="M131.11701648458535,-142.72408238529704L126.67156073340303,-175.28492306403743L126.1299234561529,-176.89483818831604zM136.24874508055285,-127.71617741418312L136.89144162547802,-125.09207107826568L131.56351072938125,-160.7445244315192z" style="fill:rgb(247,158,158)"/><path d="M-183.44759064755698,27.545342172872008L-188.06698386320392,29.435985773138814L-184.3354911435802,28.457183591090402z" style="fill:rgb(89,244,159)"/><path d="M136.89144162547802,-125.09207107826568L137.44836548853436,-122.61261392871104L131.88528416981762,-159.78812524721639zM135.54410634418667,-130.38785093437014L136.24874508055285,-127.71617741418312L131.1296707408817,-162.03403215098922zM137.44836548853436,-122.61261392871104L137.89865323897834,-120.37007269488524L132.08317035649134,-159.1999400809267zM134.80352008144595,-133.00836593876932L135.54410634418667,-130.38785093437014L130.5997836288717,-163.60904180351474zM130.8512058598019,-142.74566085856767L126.1299234561529,-176.89483818831604L125.68434314560928,-178.2192313526706zM153.67980012962636,-15.287354971523934L164.56045746541827,-61.42660313302331L132.51395997529252,-156.57163494481978z" style="fill:rgb(247,158,158)"/><path d="M-184.3354911435802,28.457183591090402L-188.06698386320392,29.435985773138814L-189.13491808301578,29.851199047292532z" style="fill:rgb(93,250,135)"/><path d="M137.89865323897834,-120.37007269488524L138.22515648843734,-118.44878650245907L132.14994797141517,-159.00145778804043zM134.0543482858685,-135.48059345948303L134.80352008144595,-133.00836593876932L129.99353405178098,-165.41099451792095z" style="fill:rgb(247,158,158)"/><path d="M-184.3354911435802,28.457183591090402L-189.13491808301578,29.851199047292532L-185.39499594763709,28.870316730547227z" style="fill:rgb(93,250,135)"/><path d="M130.72927030486346,-142.2359115272385L125.68434314560928,-178.2192313526706L125.35261627279898,-179.20521434771348z" style="fill:rgb(247,158,158)"/><path d="M194.66403336745665,97.98569530731982L190.53173164836366,98.90503423017013L196.58999603567628,115.43260166675186z" style="fill:rgb(127,37,217)"/><path d="M133.32441399841107,-137.71215329960765L134.0543482858685,-135.48059345948303L129.33365793990788,-167.3723423808488zM130.75705058189712,-141.21070204689346L125.35261627279898,-179.20521434771348L125.14807965006972,-179.81318838589533z" style="fill:rgb(247,158,158)"/><path d="M126.75906282603408,-138.5259871949914L125.07896649586206,-180.01860178807922L121.09568682945367,-178.85217865643864z" style="fill:rgb(83,212,212)"/><path d="M130.93448398988653,-139.70666837674787L125.14807965006972,-179.81318838589533L125.07896649586206,-180.01860178807922zM132.6410405700702,-139.61859038975996L133.32441399841107,-137.71215329960765L128.6451408545594,-169.41884382483533z" style="fill:rgb(247,158,158)"/><path d="M210.58631386525832,113.11138271072917L205.61802892902801,98.93902154238226L150.10301103555224,111.24541058106706zM116.83442484219398,95.73863461111743L39.561688558829125,110.52301237025645L40.87921477755231,112.99358841608402z" style="fill:rgb(127,37,217)"/><path d="M132.0301729127164,-141.1264423371011L132.6410405700702,-139.61859038975996L127.9542784635185,-171.47228609139398z" style="fill:rgb(247,158,158)"/><path d="M-190.32864593087473,71.26984128872996L-194.19211160444456,72.24194506410076L-132.8187740628715,153.70549902757267z" style="fill:rgb(127,37,217)"/><path d="M131.51540487725524,-142.17605400606533L132.0301729127164,-141.1264423371011L127.2877523164192,-173.45339917465586z" style="fill:rgb(247,158,158)"/><path d="M191.07617069589296,102.1626088167324L123.57657479031582,98.88121335159869L150.10301103555224,111.24541058106706z" style="fill:rgb(127,37,217)"/><path d="M191.07617069589296,102.1626088167324L194.66403336745665,97.98569530731982L190.53173164836366,98.90503423017013z" style="fill:rgb(83,212,212)"/><path d="M181.6775795265898,74.74998050073913L39.4499645693262,107.27072733832898L40.76407552257219,109.74296151532414z" style="fill:rgb(127,37,217)"/><path d="M-191.01719275194492,74.37072742014509L-182.30835546566152,24.39479988899951L-182.76375829873078,26.172961993509368z" style="fill:rgb(247,158,158)"/><path d="M191.07617069589296,102.1626088167324L195.2208254041,101.2438377116604L194.66403336745665,97.98569530731982z" style="fill:rgb(83,212,212)"/><path d="M131.11701648458535,-142.72408238529704L131.51540487725524,-142.17605400606533L126.67156073340303,-175.28492306403743z" style="fill:rgb(247,158,158)"/><path d="M187.05919517288228,76.9156119900351L-200.55957182934384,76.96743949861401L-143.14266432646926,152.15231202033544z" style="fill:rgb(127,37,217)"/><path d="M136.24874508055285,-127.71617741418312L132.1600727331582,-126.57322609804473L132.80078927832028,-123.95130834299867z" style="fill:rgb(93,135,250)"/><path d="M135.54410634418667,-130.38785093437014L131.45541055723936,-129.24208072900885L132.1600727331582,-126.57322609804473z" style="fill:rgb(99,111,250)"/><path d="M-191.39859134431708,73.8633810136801L-182.76375829873078,26.172961993509368L-183.44759064755698,27.545342172872008z" style="fill:rgb(247,158,158)"/><path d="M135.54410634418667,-130.38785093437014L132.1600727331582,-126.57322609804473L136.24874508055285,-127.71617741418312z" style="fill:rgb(99,111,250)"/><path d="M136.24874508055285,-127.71617741418312L132.80078927832028,-123.95130834299867L136.89144162547802,-125.09207107826568z" style="fill:rgb(93,135,250)"/><path d="M136.89144162547802,-125.09207107826568L132.80078927832028,-123.95130834299867L133.35380946530316,-121.4733410457275z" style="fill:rgb(89,159,244)"/><path d="M134.80352008144595,-133.00836593876932L130.71283002798137,-131.85927830910538L131.45541055723936,-129.24208072900885zM134.80352008144595,-133.00836593876932L131.45541055723936,-129.24208072900885L135.54410634418667,-130.38785093437014z" style="fill:rgb(106,87,246)"/><path d="M136.89144162547802,-125.09207107826568L133.35380946530316,-121.4733410457275L137.44836548853436,-122.61261392871104z" style="fill:rgb(89,159,244)"/><path d="M130.8512058598019,-142.74566085856767L131.11701648458535,-142.72408238529704L126.1299234561529,-176.89483818831604z" style="fill:rgb(247,158,158)"/><path d="M134.0543482858685,-135.48059345948303L130.71283002798137,-131.85927830910538L134.80352008144595,-133.00836593876932z" style="fill:rgb(114,65,238)"/><path d="M137.44836548853436,-122.61261392871104L133.35380946530316,-121.4733410457275L133.7984093372718,-119.23153699637626z" style="fill:rgb(85,182,234)"/><path d="M134.0543482858685,-135.48059345948303L129.959730389916,-134.32777445688788L130.71283002798137,-131.85927830910538z" style="fill:rgb(114,65,238)"/><path d="M116.83442484219398,95.73863461111743L115.6982071402536,93.17525766656333L39.561688558829125,110.52301237025645z" style="fill:rgb(127,37,217)"/><path d="M-192.01882466619688,73.03835898556557L-183.44759064755698,27.545342172872008L-184.3354911435802,28.457183591090402z" style="fill:rgb(247,158,158)"/><path d="M137.44836548853436,-122.61261392871104L133.7984093372718,-119.23153699637626L137.89865323897834,-120.37007269488524z" style="fill:rgb(85,182,234)"/><path d="M133.32441399841107,-137.71215329960765L129.959730389916,-134.32777445688788L134.0543482858685,-135.48059345948303z" style="fill:rgb(123,46,225)"/><path d="M137.89865323897834,-120.37007269488524L133.7984093372718,-119.23153699637626L134.1176466137671,-117.31020805767218z" style="fill:rgb(84,202,220)"/><path d="M133.32441399841107,-137.71215329960765L129.22407709380045,-136.55533643489863L129.959730389916,-134.32777445688788z" style="fill:rgb(123,46,225)"/><path d="M130.72927030486346,-142.2359115272385L130.8512058598019,-142.74566085856767L125.68434314560928,-178.2192313526706z" style="fill:rgb(247,158,158)"/><path d="M137.89865323897834,-120.37007269488524L134.1176466137671,-117.31020805767218L138.22515648843734,-118.44878650245907z" style="fill:rgb(84,202,220)"/><path d="M-192.85515955819236,71.92583801327173L-184.3354911435802,28.457183591090402L-185.39499594763709,28.870316730547227zM184.78939489576888,85.04394163139031L191.07617069589296,102.1626088167324L190.53173164836366,98.90503423017013z" style="fill:rgb(247,158,158)"/><path d="M132.6410405700702,-139.61859038975996L129.22407709380045,-136.55533643489863L133.32441399841107,-137.71215329960765zM132.6410405700702,-139.61859038975996L128.53343060520564,-138.45765524536424L129.22407709380045,-136.55533643489863z" style="fill:rgb(131,29,208)"/><path d="M115.36539983157877,89.9124475889419L116.83442484219398,95.73863461111743L116.49925498564781,92.4772755393117zM130.75705058189712,-141.21070204689346L130.72927030486346,-142.2359115272385L125.35261627279898,-179.20521434771348z" style="fill:rgb(247,158,158)"/><path d="M189.00339306545828,84.09135588593453L191.07617069589296,102.1626088167324L195.2208254041,101.2438377116604z" style="fill:rgb(127,37,217)"/><path d="M-193.87686466020304,70.5667717099152L-185.39499594763709,28.870316730547227L-186.58667938726197,28.765090051020028zM-218.03333500390806,34.263534879124705L-203.92176592284702,53.112944224312976L-177.41776911241274,-89.1056111400545zM153.67980012962636,-15.287354971523934L188.4545300382708,80.82376852228127L164.56045746541827,-61.42660313302331z" style="fill:rgb(247,158,158)"/><path d="M191.07617069589296,102.1626088167324L184.78939489576888,85.04394163139031L123.57657479031582,98.88121335159869z" style="fill:rgb(127,37,217)"/><path d="M132.0301729127164,-141.1264423371011L128.53343060520564,-138.45765524536424L132.6410405700702,-139.61859038975996z" style="fill:rgb(140,16,189)"/><path d="M115.36539983157877,89.9124475889419L115.6982071402536,93.17525766656333L116.83442484219398,95.73863461111743z" style="fill:rgb(247,158,158)"/><path d="M132.0301729127164,-141.1264423371011L127.91396907772581,-139.96142339889718L128.53343060520564,-138.45765524536424z" style="fill:rgb(140,16,189)"/><path d="M205.61802892902801,98.93902154238226L189.00339306545828,84.09135588593453L195.2208254041,101.2438377116604z" style="fill:rgb(127,37,217)"/><path d="M130.93448398988653,-139.70666837674787L130.75705058189712,-141.21070204689346L125.14807965006972,-179.81318838589533z" style="fill:rgb(247,158,158)"/><path d="M116.83442484219398,95.73863461111743L157.7418802443257,83.07500889907703L116.49925498564781,92.4772755393117zM126.75906282603408,-138.5259871949914L130.93448398988653,-139.70666837674787L125.07896649586206,-180.01860178807922z" style="fill:rgb(83,212,212)"/><path d="M-195.04600831604566,69.01156904937709L-186.58667938726197,28.765090051020028L-187.86530222890235,28.14169739006173z" style="fill:rgb(247,158,158)"/><path d="M181.6775795265898,74.74998050073913L40.76407552257219,109.74296151532414L182.64788580609823,77.39707275271158z" style="fill:rgb(127,37,217)"/><path d="M131.51540487725524,-142.17605400606533L127.91396907772581,-139.96142339889718L132.0301729127164,-141.1264423371011z" style="fill:rgb(148,8,167)"/><path d="M189.00339306545828,84.09135588593453L116.83442484219398,95.73863461111743L123.57657479031582,98.88121335159869z" style="fill:rgb(127,37,217)"/><path d="M131.51540487725524,-142.17605400606533L127.3896004052931,-141.00712911108496L127.91396907772581,-139.96142339889718z" style="fill:rgb(148,8,167)"/><path d="M184.78939489576888,85.04394163139031L190.53173164836366,98.90503423017013L184.25330160808468,81.77682684934247z" style="fill:rgb(247,158,158)"/><path d="M115.6982071402536,93.17525766656333L156.70932674179105,80.45904535021461L115.36539983157877,89.9124475889419z" style="fill:rgb(83,212,212)"/><path d="M158.20021558618416,86.34145869393049L115.6982071402536,93.17525766656333L116.83442484219398,95.73863461111743z" style="fill:rgb(127,37,217)"/><path d="M-196.31883874740922,67.31842534329775L-187.86530222890235,28.14169739006173L-189.1815766395475,27.020748831371765z" style="fill:rgb(247,158,158)"/><path d="M131.11701648458535,-142.72408238529704L127.3896004052931,-141.00712911108496L131.51540487725524,-142.17605400606533z" style="fill:rgb(155,4,143)"/><path d="M189.00339306545828,84.09135588593453L184.78939489576888,85.04394163139031L191.07617069589296,102.1626088167324z" style="fill:rgb(127,37,217)"/><path d="M116.83442484219398,95.73863461111743L158.20021558618416,86.34145869393049L157.7418802443257,83.07500889907703z" style="fill:rgb(83,212,212)"/><path d="M131.11701648458535,-142.72408238529704L126.9809972620819,-141.55160659823608L127.3896004052931,-141.00712911108496z" style="fill:rgb(155,4,143)"/><path d="M-197.64725989781795,65.55134425254353L-189.1815766395475,27.020748831371765L-190.48404517393908,25.443017826079835zM-191.01719275194492,74.37072742014509L-190.88849596405785,74.54191648312896L-182.30835546566152,24.39479988899951z" style="fill:rgb(247,158,158)"/><path d="M130.8512058598019,-142.74566085856767L126.9809972620819,-141.55160659823608L131.11701648458535,-142.72408238529704z" style="fill:rgb(161,4,119)"/><path d="M-191.39859134431708,73.8633810136801L-191.01719275194492,74.37072742014509L-182.76375829873078,26.172961993509368z" style="fill:rgb(247,158,158)"/><path d="M128.58137952419463,-155.4441815318196L153.67980012962636,-15.287354971523934L132.51395997529252,-156.57163494481978z" style="fill:rgb(83,212,212)"/><path d="M-198.98048663211358,63.777846656503755L-190.48404517393908,25.443017826079835L-191.72112772659585,23.468235444012436z" style="fill:rgb(247,158,158)"/><path d="M115.6982071402536,93.17525766656333L157.16590828047254,83.72681463136988L156.70932674179105,80.45904535021461z" style="fill:rgb(83,212,212)"/><path d="M130.8512058598019,-142.74566085856767L126.70470938631783,-141.57012909179755L126.9809972620819,-141.55160659823608z" style="fill:rgb(161,4,119)"/><path d="M158.20021558618416,86.34145869393049L157.16590828047254,83.72681463136988L115.6982071402536,93.17525766656333z" style="fill:rgb(127,37,217)"/><path d="M-208.46579253481312,57.40049548111921L-195.17476562394498,6.177160186244546L-198.93706961626629,7.188587152103726z" style="fill:rgb(83,212,212)"/><path d="M-192.01882466619688,73.03835898556557L-191.39859134431708,73.8633810136801L-183.44759064755698,27.545342172872008zM-200.26708908528695,62.06641457733235L-191.72112772659585,23.468235444012436L-192.84346444823163,21.17294561471598z" style="fill:rgb(247,158,158)"/><path d="M189.00339306545828,84.09135588593453L187.7916860171397,79.61908676239767L116.83442484219398,95.73863461111743z" style="fill:rgb(127,37,217)"/><path d="M157.16590828047254,83.72681463136988L157.7418802443257,83.07500889907703L156.70932674179105,80.45904535021461zM157.16590828047254,83.72681463136988L158.20021558618416,86.34145869393049L157.7418802443257,83.07500889907703zM-204.5328596516086,56.39202956069809L-195.41228507365858,8.306456133073906L-195.17476562394498,6.177160186244546zM-192.85515955819236,71.92583801327173L-192.01882466619688,73.03835898556557L-184.3354911435802,28.457183591090402zM-201.45680855684034,60.48384000642343L-192.84346444823163,21.17294561471598L-193.8059244130272,18.647480611600994zM-204.3993363054411,56.56964241463651L-195.38887905164748,10.716656792194131L-195.41228507365858,8.306456133073906z" style="fill:rgb(247,158,158)"/><path d="M-189.2262244913834,-107.81839594721433L-222.01518821365102,35.31116307538025L-218.03333500390806,34.263534879124705z" style="fill:rgb(83,212,212)"/><path d="M-202.50276428874562,59.09248569096222L-193.8059244130272,18.647480611600994L-194.569787226361,15.9921602805058zM-204.00418607082293,57.09527974497781L-195.10446295762299,13.31292521929411L-195.38887905164748,10.716656792194131zM-203.3633737141944,57.947675933388275L-194.569787226361,15.9921602805058L-195.10446295762299,13.31292521929411zM-193.87686466020304,70.5667717099152L-192.85515955819236,71.92583801327173L-185.39499594763709,28.870316730547227z" style="fill:rgb(247,158,158)"/><path d="M187.7916860171397,79.61908676239767L157.16590828047254,83.72681463136988L158.20021558618416,86.34145869393049z" style="fill:rgb(127,37,217)"/><path d="M-195.04600831604566,69.01156904937709L-193.87686466020304,70.5667717099152L-186.58667938726197,28.765090051020028zM-196.31883874740922,67.31842534329775L-195.04600831604566,69.01156904937709L-187.86530222890235,28.14169739006173z" style="fill:rgb(247,158,158)"/><path d="M187.7916860171397,79.61908676239767L187.05919517288228,76.9156119900351L157.16590828047254,83.72681463136988zM196.51774987187957,71.35673755041954L186.86670376075205,76.43529184401196L197.45067718316335,74.0224184715143zM196.51774987187957,71.35673755041954L185.90702148322035,73.78290844181251L186.86670376075205,76.43529184401196z" style="fill:rgb(127,37,217)"/><path d="M-197.64725989781795,65.55134425254353L-196.31883874740922,67.31842534329775L-189.1815766395475,27.020748831371765z" style="fill:rgb(247,158,158)"/><path d="M-194.7627530373283,75.51358930335871L-190.32864593087473,71.26984128872996L-194.19211160444456,72.24194506410076z" style="fill:rgb(83,212,212)"/><path d="M-198.98048663211358,63.777846656503755L-197.64725989781795,65.55134425254353L-190.48404517393908,25.443017826079835z" style="fill:rgb(247,158,158)"/><path d="M-194.7627530373283,75.51358930335871L-190.88849596405785,74.54191648312896L-190.32864593087473,71.26984128872996z" style="fill:rgb(83,212,212)"/><path d="M-200.26708908528695,62.06641457733235L-198.98048663211358,63.777846656503755L-191.72112772659585,23.468235444012436zM-201.45680855684034,60.48384000642343L-200.26708908528695,62.06641457733235L-192.84346444823163,21.17294561471598zM-202.50276428874562,59.09248569096222L-201.45680855684034,60.48384000642343L-193.8059244130272,18.647480611600994z" style="fill:rgb(247,158,158)"/><path d="M-208.46579253481312,57.40049548111921L-204.5328596516086,56.39202956069809L-195.17476562394498,6.177160186244546z" style="fill:rgb(83,212,212)"/><path d="M-203.3633737141944,57.947675933388275L-202.50276428874562,59.09248569096222L-194.569787226361,15.9921602805058zM-204.00418607082293,57.09527974497781L-203.3633737141944,57.947675933388275L-195.10446295762299,13.31292521929411zM-204.5328596516086,56.39202956069809L-204.3993363054411,56.56964241463651L-195.41228507365858,8.306456133073906zM-204.3993363054411,56.56964241463651L-204.00418607082293,57.09527974497781L-195.38887905164748,10.716656792194131z" style="fill:rgb(247,158,158)"/><path d="M-194.7627530373283,75.51358930335871L-214.35012735669,58.90933429185873L-200.55957182934384,76.96743949861401z" style="fill:rgb(127,37,217)"/><path d="M-208.46579253481312,57.40049548111921L-194.7627530373283,75.51358930335871L-194.19211160444456,72.24194506410076z" style="fill:rgb(247,158,158)"/><path d="M-204.5328596516086,56.39202956069809L-194.7627530373283,75.51358930335871L-190.88849596405785,74.54191648312896z" style="fill:rgb(127,37,217)"/><path d="M-208.46579253481312,57.40049548111921L-194.19211160444456,72.24194506410076L-207.84358386104904,54.12175246494157z" style="fill:rgb(247,158,158)"/><path d="M-194.7627530373283,75.51358930335871L-208.46579253481312,57.40049548111921L-214.35012735669,58.90933429185873zM-204.5328596516086,56.39202956069809L-208.46579253481312,57.40049548111921L-194.7627530373283,75.51358930335871z" style="fill:rgb(127,37,217)"/><path d="M150.17875149184115,-59.20457952471097L211.44760727094376,115.56825871547429L210.85369657369452,112.31937766082015zM137.74050392873923,-59.340727069523474L125.42954979230112,-177.6050310184104L118.09195297154797,-199.39012902610207z" style="fill:rgb(247,158,158)"/><path d="M153.67980012962636,-15.287354971523934L184.25330160808468,81.77682684934247L188.4545300382708,80.82376852228127zM-218.03333500390806,34.263534879124705L-207.84358386104904,54.12175246494157L-203.92176592284702,53.112944224312976z" style="fill:rgb(127,37,217)"/><path d="M118.09195297154797,-199.39012902610207L114.0330106612643,-198.18067896777032L132.98465398084133,-58.08946601039823z" style="fill:rgb(83,212,212)"/><path d="M205.61802892902801,98.93902154238226L156.4217499260212,-36.16260897476671L189.00339306545828,84.09135588593453zM-218.03333500390806,34.263534879124705L-222.01518821365102,35.31116307538025L-207.84358386104904,54.12175246494157zM187.05919517288228,76.9156119900351L162.40874403263996,-14.065542198272599L-200.55957182934384,76.96743949861401z" style="fill:rgb(127,37,217)"/><path d="M128.58137952419463,-155.4441815318196L149.09667702705266,-14.134178170207289L153.67980012962636,-15.287354971523934z" style="fill:rgb(83,212,212)"/><path d="M149.5739713043078,-10.846564929541781L-204.5328596516086,56.39202956069809L-190.88849596405785,74.54191648312896z" style="fill:rgb(127,37,217)"/><path d="M146.65256085835105,-62.19494827290851L142.28610736894206,-61.04559820264263L142.49617690001915,-59.303000530285026zM146.65256085835105,-62.19494827290851L142.49617690001915,-59.303000530285026L146.87232739930482,-60.45302485681371z" style="fill:rgb(84,220,202)"/><path d="M146.87232739930482,-60.45302485681371L142.49617690001915,-59.303000530285026L142.55421002696815,-58.02493042230626zM146.87232739930482,-60.45302485681371L142.55421002696815,-58.02493042230626L146.94119027616932,-59.17644057569605z" style="fill:rgb(85,234,182)"/><path d="M146.94119027616932,-59.17644057569605L142.55421002696815,-58.02493042230626L142.45688592181867,-57.2631682183113zM146.94119027616932,-59.17644057569605L142.45688592181867,-57.2631682183113L146.85542578741922,-58.41693953030683z" style="fill:rgb(89,244,159)"/><path d="M146.85542578741922,-58.41693953030683L142.45688592181867,-57.2631682183113L142.20670464727985,-57.05085489130998zM146.85542578741922,-58.41693953030683L142.20670464727985,-57.05085489130998L146.61709725033202,-58.207586581941094z" style="fill:rgb(93,250,135)"/><path d="M153.67980012962636,-15.287354971523934L149.09667702705266,-14.134178170207289L184.25330160808468,81.77682684934247z" style="fill:rgb(127,37,217)"/><path d="M154.09864564316183,-12.203039988676709L146.65256085835105,-62.19494827290851L146.87232739930482,-60.45302485681371z" style="fill:rgb(247,158,158)"/><path d="M158.10509427294164,-36.594245452059475L-228.66687091224912,40.16217992196063L-214.35012735669,58.90933429185873z" style="fill:rgb(127,37,217)"/><path d="M153.8803391329836,-12.805309626700451L146.87232739930482,-60.45302485681371L146.94119027616932,-59.17644057569605zM153.5252859726083,-13.78481115702404L146.94119027616932,-59.17644057569605L146.85542578741922,-58.41693953030683zM153.04642736216968,-15.105875186917652L146.85542578741922,-58.41693953030683L146.61709725033202,-58.207586581941094zM152.46132246341318,-16.720071712268165L146.61709725033202,-58.207586581941094L146.2341328340197,-58.56093225376514zM137.74050392873923,-59.340727069523474L145.87286732147103,-36.8643264969611L125.42954979230112,-177.6050310184104zM151.79158185261088,-18.567730881647194L146.2341328340197,-58.56093225376514L145.7201902221418,-59.46785964446654z" style="fill:rgb(247,158,158)"/><path d="M-228.66687091224912,40.16217992196063L149.67758355300518,-62.48138547098234L-227.972449412951,36.878526952159255z" style="fill:rgb(83,212,212)"/><path d="M205.61802892902801,98.93902154238226L158.10509427294164,-36.594245452059475L156.4217499260212,-36.16260897476671z" style="fill:rgb(127,37,217)"/><path d="M151.06221891560935,-20.579869188319634L145.7201902221418,-59.46785964446654L145.09434824601027,-60.89724208122557zM150.3007747381201,-22.680541317099L145.09434824601027,-60.89724208122557L144.38045855976142,-62.79653501519718zM154.09864564316183,-12.203039988676709L154.17230521333812,-11.999833840448934L146.65256085835105,-62.19494827290851z" style="fill:rgb(247,158,158)"/><path d="M149.5739713043078,-10.846564929541781L141.66624606335373,-32.379056101690935L-204.5328596516086,56.39202956069809z" style="fill:rgb(127,37,217)"/><path d="M153.8803391329836,-12.805309626700451L154.09864564316183,-12.203039988676709L146.87232739930482,-60.45302485681371zM149.53630044061458,-24.78954094849547L144.38045855976142,-62.79653501519718L143.60622667401518,-65.09343223548792z" style="fill:rgb(247,158,158)"/><path d="M141.66624606335373,-32.379056101690935L139.07277451081853,-83.67913094787373L134.6294627841906,-82.48463017483787z" style="fill:rgb(83,212,212)"/><path d="M153.5252859726083,-13.78481115702404L153.8803391329836,-12.805309626700451L146.94119027616932,-59.17644057569605zM148.7983427927977,-26.825388541460363L143.60622667401518,-65.09343223548792L142.80218138063077,-67.69850957727547zM146.34992896360822,-33.580029369883384L139.4287332702655,-81.52979601049833L139.07277451081853,-83.67913094787373zM150.17875149184115,-59.20457952471097L210.85369657369452,112.31937766082015L149.67758355300518,-62.48138547098234zM153.04642736216968,-15.105875186917652L153.5252859726083,-13.78481115702404L146.85542578741922,-58.41693953030683zM148.11574943196158,-28.708533990411926L142.80218138063077,-67.69850957727547L142.00034915715628,-70.508840756252zM146.4266089190186,-33.36849664435032L139.92093708657828,-79.03497229021042L139.4287332702655,-81.52979601049833zM147.51546046874432,-30.364593252543486L142.00034915715628,-70.508840756252L141.23280280492025,-73.41234864843157z" style="fill:rgb(247,158,158)"/><path d="M118.09195297154797,-199.39012902610207L132.98465398084133,-58.08946601039823L137.74050392873923,-59.340727069523474z" style="fill:rgb(83,212,212)"/><path d="M146.65350795628615,-32.7425101173299L140.53032052849753,-76.29280526689968L139.92093708657828,-79.03497229021042zM147.02142580344074,-31.72751951385761L141.23280280492025,-73.41234864843157L140.53032052849753,-76.29280526689968zM152.46132246341318,-16.720071712268165L153.04642736216968,-15.105875186917652L146.61709725033202,-58.207586581941094zM151.79158185261088,-18.567730881647194L152.46132246341318,-16.720071712268165L146.2341328340197,-58.56093225376514zM151.06221891560935,-20.579869188319634L151.79158185261088,-18.567730881647194L145.7201902221418,-59.46785964446654zM150.3007747381201,-22.680541317099L151.06221891560935,-20.579869188319634L145.09434824601027,-60.89724208122557z" style="fill:rgb(247,158,158)"/><path d="M149.5739713043078,-10.846564929541781L153.67980012962636,-15.287354971523934L149.09667702705266,-14.134178170207289z" style="fill:rgb(83,212,212)"/><path d="M149.53630044061458,-24.78954094849547L150.3007747381201,-22.680541317099L144.38045855976142,-62.79653501519718zM148.7983427927977,-26.825388541460363L149.53630044061458,-24.78954094849547L143.60622667401518,-65.09343223548792zM148.11574943196158,-28.708533990411926L148.7983427927977,-26.825388541460363L142.80218138063077,-67.69850957727547zM147.51546046874432,-30.364593252543486L148.11574943196158,-28.708533990411926L142.00034915715628,-70.508840756252z" style="fill:rgb(247,158,158)"/><path d="M141.66624606335373,-32.379056101690935L146.34992896360822,-33.580029369883384L139.07277451081853,-83.67913094787373z" style="fill:rgb(83,212,212)"/><path d="M147.02142580344074,-31.72751951385761L147.51546046874432,-30.364593252543486L141.23280280492025,-73.41234864843157zM146.65350795628615,-32.7425101173299L147.02142580344074,-31.72751951385761L140.53032052849753,-76.29280526689968zM146.34992896360822,-33.580029369883384L146.4266089190186,-33.36849664435032L139.4287332702655,-81.52979601049833zM146.4266089190186,-33.36849664435032L146.65350795628615,-32.7425101173299L139.92093708657828,-79.03497229021042zM141.66624606335373,-32.379056101690935L149.5739713043078,-10.846564929541781L149.09667702705266,-14.134178170207289z" style="fill:rgb(247,158,158)"/><path d="M158.10509427294164,-36.594245452059475L150.17875149184115,-59.20457952471097L-228.66687091224912,40.16217992196063zM146.34992896360822,-33.580029369883384L149.5739713043078,-10.846564929541781L154.17230521333812,-11.999833840448934zM162.40874403263996,-14.065542198272599L146.34992896360822,-33.580029369883384L154.17230521333812,-11.999833840448934z" style="fill:rgb(127,37,217)"/><path d="M141.66624606335373,-32.379056101690935L149.09667702705266,-14.134178170207289L141.2049661543717,-35.66360686048084z" style="fill:rgb(247,158,158)"/><path d="M-228.66687091224912,40.16217992196063L150.17875149184115,-59.20457952471097L149.67758355300518,-62.48138547098234z" style="fill:rgb(83,212,212)"/><path d="M146.34992896360822,-33.580029369883384L141.66624606335373,-32.379056101690935L149.5739713043078,-10.846564929541781zM162.40874403263996,-14.065542198272599L156.4217499260212,-36.16260897476671L146.34992896360822,-33.580029369883384zM137.74050392873923,-59.340727069523474L141.2049661543717,-35.66360686048084L145.87286732147103,-36.8643264969611zM137.74050392873923,-59.340727069523474L132.98465398084133,-58.08946601039823L141.2049661543717,-35.66360686048084z" style="fill:rgb(127,37,217)"/></svg>
