<?xml version="1.0" encoding="UTF-8"?>
<!-- Generated by jsxcad -->
<!DOCTYPE svg PUBLIC "-//W3C//DTD SVG 1.1 Tiny//EN" "http://www.w3.org/Graphics/SVG/1.1/DTD/svg11-tiny.dtd">
<svg viewBox="-250 -250 500 500" width="500" height="500" xmlns="http://www.w3.org/2000/svg"><path d="M113.94586259912504,-49.53643353712737L-43.20401438606793,-17.85374538595758L-43.61087893941585,-8.217388302600606zM114.21416348835379,-47.20161976644595L-43.61087893941585,-8.217388302600606L-43.70966937289611,-5.877594712878528zM-43.20401438606793,-17.85374538595758L113.94586259912504,-49.53643353712737L112.84137595843913,-59.14790279701618zM-43.61087893941585,-8.217388302600606L114.21416348835379,-47.20161976644595L113.94586259912504,-49.53643353712737zM99.4934456535723,-86.89296756450784L-62.07762025837432,-52.37095443811327L-62.68145589952477,-42.753319004763576zM99.73575785435278,-84.56900397663688L-62.68145589952477,-42.753319004763576L-62.82812811733848,-40.41718236700627zM-62.07762025837432,-52.37095443811327L99.4934456535723,-86.89296756450784L98.49635889263637,-96.45584723658648zM-62.68145589952477,-42.753319004763576L99.73575785435278,-84.56900397663688L99.4934456535723,-86.89296756450784z" style="fill:rgb(83,212,212)"/><path d="M117.06921441708654,-57.61995601573239L102.28010679724227,-89.55385026408217L102.52979461610505,-87.23087994764936z" style="fill:rgb(247,158,158)"/><path d="M98.82811607380799,-88.61272091892221L102.52979461610505,-87.23087994764936L102.28010679724227,-89.55385026408217zM102.52979461610505,-87.23087994764936L98.82811607380799,-88.61272091892221L99.06917560758427,-86.28940169339204zM-53.60645770038355,228.5223151536589L114.21416348835379,-47.20161976644595L-43.70966937289611,-5.877594712878528z" style="fill:rgb(83,212,212)"/><path d="M117.06921441708654,-57.61995601573239L54.540529731161165,-214.03646136314512L102.28010679724227,-89.55385026408217z" style="fill:rgb(247,158,158)"/><path d="M54.688367899460566,-211.79456559192127L-63.70714576727951,-42.00522411720526L102.52979461610505,-87.23087994764936z" style="fill:rgb(127,37,217)"/><path d="M112.84137595843913,-59.14790279701618L142.41484520168706,191.15683953261572L113.76434186173691,-56.74749279371522z" style="fill:rgb(247,158,158)"/><path d="M54.540529731161165,-214.03646136314512L98.82811607380799,-88.61272091892221L102.28010679724227,-89.55385026408217z" style="fill:rgb(127,37,217)"/><path d="M54.540529731161165,-214.03646136314512L102.52979461610505,-87.23087994764936L102.28010679724227,-89.55385026408217z" style="fill:rgb(247,158,158)"/><path d="M-63.70714576727951,-42.00522411720526L54.688367899460566,-211.79456559192127L-126.96195274701924,-156.28192756707534z" style="fill:rgb(127,37,217)"/><path d="M-77.63338795127451,195.39464990936986L99.73575785435278,-84.56900397663688L-62.82812811733848,-40.41718236700627zM-128.70977715184367,-166.91223803287292L-126.63390126747434,-158.56821856693966L-125.28507225304133,-167.96860017306483z" style="fill:rgb(83,212,212)"/><path d="M54.540529731161165,-214.03646136314512L117.06921441708654,-57.61995601573239L53.933045119622875,-223.24866842162004z" style="fill:rgb(247,158,158)"/><path d="M-126.63390126747434,-158.56821856693966L-128.70977715184367,-166.91223803287292L-130.09425294859582,-157.5088009247465zM-130.09425294859582,-157.5088009247465L-126.96195274701924,-156.28192756707534L-126.63390126747434,-158.56821856693966zM-126.96195274701924,-156.28192756707534L-130.09425294859582,-157.5088009247465L-130.43097097004775,-155.22179211213793z" style="fill:rgb(83,212,212)"/><path d="M98.49635889263637,-96.45584723658648L125.60651832330922,154.84613494612404L99.48288160026149,-93.89014887553623z" style="fill:rgb(247,158,158)"/><path d="M98.82811607380799,-88.61272091892221L54.540529731161165,-214.03646136314512L50.75306767522352,-212.87688637349734z" style="fill:rgb(127,37,217)"/><path d="M102.52979461610505,-87.23087994764936L54.540529731161165,-214.03646136314512L54.688367899460566,-211.79456559192127z" style="fill:rgb(247,158,158)"/><path d="M54.688367899460566,-211.79456559192127L-126.63390126747434,-158.56821856693966L-126.96195274701924,-156.28192756707534zM-126.63390126747434,-158.56821856693966L54.688367899460566,-211.79456559192127L54.540529731161165,-214.03646136314512zM114.21416348835379,-47.20161976644595L-53.60645770038355,228.5223151536589L141.33723377352166,188.8288959569658zM50.18828489818681,-222.09358395764357L54.540529731161165,-214.03646136314512L53.933045119622875,-223.24866842162004z" style="fill:rgb(83,212,212)"/><path d="M-160.94153973340534,80.53168967479877L-41.98803250105138,-15.629887944786509L-125.28507225304133,-167.96860017306483z" style="fill:rgb(247,158,158)"/><path d="M54.540529731161165,-214.03646136314512L50.18828489818681,-222.09358395764357L50.75306767522352,-212.87688637349734z" style="fill:rgb(83,212,212)"/><path d="M142.41484520168706,191.15683953261572L112.84137595843913,-59.14790279701618L141.33723377352166,188.8288959569658zM102.52979461610505,-87.23087994764936L69.19255113704348,8.154217689144954L117.06921441708654,-57.61995601573239zM117.06921441708654,-57.61995601573239L126.39074395040802,134.75943290758156L146.5813433149751,190.31100324794735zM-41.98803250105138,-15.629887944786509L-160.94153973340534,80.53168967479877L-52.07137953886937,230.6388409328495z" style="fill:rgb(247,158,158)"/><path d="M99.73575785435278,-84.56900397663688L-77.63338795127451,195.39464990936986L124.43477751721088,152.31485748922287zM-165.29983499448466,81.60961071427904L-126.96195274701924,-156.28192756707534L-130.43097097004775,-155.22179211213793z" style="fill:rgb(83,212,212)"/><path d="M-52.07137953886937,230.6388409328495L141.33723377352166,188.8288959569658L-53.60645770038355,228.5223151536589z" style="fill:rgb(127,37,217)"/><path d="M125.60651832330922,154.84613494612404L98.49635889263637,-96.45584723658648L124.43477751721088,152.31485748922287zM69.19255113704348,8.154217689144954L102.52979461610505,-87.23087994764936L54.688367899460566,-211.79456559192127z" style="fill:rgb(247,158,158)"/><path d="M141.33723377352166,188.8288959569658L-52.07137953886937,230.6388409328495L142.41484520168706,191.15683953261572z" style="fill:rgb(127,37,217)"/><path d="M117.06921441708654,-57.61995601573239L69.19255113704348,8.154217689144954L126.39074395040802,134.75943290758156z" style="fill:rgb(247,158,158)"/><path d="M-75.97084353588407,197.68692978200983L124.43477751721088,152.31485748922287L-77.63338795127451,195.39464990936986zM-160.94153973340534,80.53168967479877L-55.85262043450369,231.40646643197888L-52.07137953886937,230.6388409328495z" style="fill:rgb(127,37,217)"/><path d="M50.89051209420088,-210.63392637572554L69.19255113704348,8.154217689144954L54.688367899460566,-211.79456559192127z" style="fill:rgb(83,212,212)"/><path d="M146.5813433149751,190.31100324794735L126.39074395040802,134.75943290758156L126.77224345609255,138.30871309063264z" style="fill:rgb(247,158,158)"/><path d="M124.43477751721088,152.31485748922287L-75.97084353588407,197.68692978200983L125.60651832330922,154.84613494612404z" style="fill:rgb(127,37,217)"/><path d="M122.1010602278146,135.69158390932435L126.77224345609255,138.30871309063264L126.39074395040802,134.75943290758156zM126.77224345609255,138.30871309063264L122.1010602278146,135.69158390932435L122.4692330102989,139.24002795169986zM-126.96195274701924,-156.28192756707534L-165.29983499448466,81.60961071427904L-160.94153973340534,80.53168967479877z" style="fill:rgb(83,212,212)"/><path d="M70.19561927275684,23.36524805251249L142.41484520168706,191.15683953261572L146.5813433149751,190.31100324794735zM69.43066427677543,11.765082002157774L-78.03103015204482,182.63450891620005L126.77224345609255,138.30871309063264zM-55.85262043450369,231.40646643197888L-160.94153973340534,80.53168967479877L-165.29983499448466,81.60961071427904z" style="fill:rgb(127,37,217)"/><path d="M126.77224345609255,138.30871309063264L70.19561927275684,23.36524805251249L146.5813433149751,190.31100324794735z" style="fill:rgb(247,158,158)"/><path d="M69.19255113704348,8.154217689144954L122.1010602278146,135.69158390932435L126.39074395040802,134.75943290758156z" style="fill:rgb(127,37,217)"/><path d="M126.39074395040802,134.75943290758156L69.43066427677543,11.765082002157774L126.77224345609255,138.30871309063264z" style="fill:rgb(247,158,158)"/><path d="M-78.03103015204482,182.63450891620005L69.43066427677543,11.765082002157774L-159.2851425649048,68.98777617012418z" style="fill:rgb(127,37,217)"/><path d="M69.19255113704348,8.154217689144954L50.89051209420088,-210.63392637572554L64.37163618905964,9.364667527903885z" style="fill:rgb(83,212,212)"/><path d="M142.41484520168706,191.15683953261572L70.19561927275684,23.36524805251249L65.30370773591993,24.575149854645367zM122.1010602278146,135.69158390932435L69.19255113704348,8.154217689144954L64.37163618905964,9.364667527903885z" style="fill:rgb(127,37,217)"/><path d="M69.43066427677543,11.765082002157774L126.39074395040802,134.75943290758156L69.19255113704348,8.154217689144954z" style="fill:rgb(247,158,158)"/><path d="M69.43066427677543,11.765082002157774L-158.76912969400678,65.3915324296584L-159.2851425649048,68.98777617012418z" style="fill:rgb(83,212,212)"/><path d="M70.19561927275684,23.36524805251249L126.77224345609255,138.30871309063264L69.43066427677543,11.765082002157774z" style="fill:rgb(247,158,158)"/><path d="M-158.76912969400678,65.3915324296584L69.43066427677543,11.765082002157774L69.19255113704348,8.154217689144954zM64.59289868226011,12.97544911919259L70.19561927275684,23.36524805251249L69.43066427677543,11.765082002157774zM70.19561927275684,23.36524805251249L64.59289868226011,12.97544911919259L65.30370773591993,24.575149854645367z" style="fill:rgb(83,212,212)"/></svg>
