<?xml version="1.0" encoding="UTF-8"?>
<!-- Generated by jsxcad -->
<!DOCTYPE svg PUBLIC "-//W3C//DTD SVG 1.1 Tiny//EN" "http://www.w3.org/Graphics/SVG/1.1/DTD/svg11-tiny.dtd">
<svg viewBox="-250 -250 500 500" width="500" height="500" xmlns="http://www.w3.org/2000/svg"><path d="M-129.24832713629672,51.27276037682369L-120.25063866676498,1.4868321595187257L-123.45833646166525,2.336539048867778zM-120.56366764426748,178.1149899107076L16.30120507184124,6.040967532004328L-106.64679451601546,37.376962848919334zM-129.24832713629672,51.27276037682369L-125.89502130577415,50.42505801864022L-120.25063866676498,1.4868321595187257z" style="fill:rgb(83,212,212)"/><path d="M18.503782941964733,147.5302802089393L17.461126581253517,8.35184167037535L16.30120507184124,6.040967532004328z" style="fill:rgb(247,158,158)"/><path d="M49.64694879815083,-2.4579260347651526L16.30120507184124,6.040967532004328L18.503782941964733,147.5302802089393zM-145.63647144921802,145.14567281988008L-123.45833646166525,2.336539048867778L-128.26006719821575,3.608499444075621z" style="fill:rgb(83,212,212)"/><path d="M-124.34180095912768,52.75061833107618L-129.24832713629672,51.27276037682369L-127.6885694545859,53.59434844583163zM-124.34180095912768,52.75061833107618L-125.89502130577415,50.42505801864022L-129.24832713629672,51.27276037682369z" style="fill:rgb(127,37,217)"/><path d="M57.64364558419856,141.49837897021143L50.741344009320606,-0.10900598945963408L49.64694879815083,-2.4579260347651526zM-143.02934282229458,134.44953004029207L-120.25063866676498,1.4868321595187257L-125.78492348827317,-7.283324193749811z" style="fill:rgb(247,158,158)"/><path d="M-146.68577713161892,135.29920720990705L-125.78492348827317,-7.283324193749811L-129.01508827231135,-6.419232320787357zM-136.579766346371,143.06450989822665L-1.741865355458033,-29.90567967720384L-120.25063866676498,1.4868321595187257z" style="fill:rgb(83,212,212)"/><path d="M-133.4197703072893,86.52923640765454L-127.6885694545859,53.59434844583163L-129.24832713629672,51.27276037682369zM-124.34180095912768,52.75061833107618L-125.89502130577415,50.42505801864022L-129.9618289580739,85.6853115346049z" style="fill:rgb(247,158,158)"/><path d="M-125.89502130577415,50.42505801864022L-129.24832713629672,51.27276037682369L-133.4197703072893,86.52923640765454z" style="fill:rgb(83,212,212)"/><path d="M-143.02934299858373,134.44953020587795L-125.78492348825954,-7.283325322479113L-135.93394379057432,-23.36642715361827z" style="fill:rgb(247,158,158)"/><path d="M56.41768648420132,139.1919892764703L182.70785114935754,-36.37141571282798L49.64694879815083,-2.4579260347651526z" style="fill:rgb(83,212,212)"/><path d="M-102.95082302856761,43.15153098400921L184.8881552957942,-29.720304497808435L128.27401643431637,-202.42409503971106z" style="fill:rgb(127,37,217)"/><path d="M-133.4197703072893,86.52923640765454L-131.79969992687737,88.84025935308888L-127.6885694545859,53.59434844583163zM-124.34180095912768,52.75061833107618L-129.9618289580739,85.6853115346049L-128.34870566459696,88.00040613046116z" style="fill:rgb(247,158,158)"/><path d="M-125.89502130577415,50.42505801864022L-133.4197703072893,86.52923640765454L-129.9618289580739,85.6853115346049zM-154.89537116659466,118.59956983171197L-135.93394379057432,-23.36642715361827L-139.20511974355594,-22.47564250524827zM-120.56366764426748,178.1149899107076L18.503782941964733,147.5302802089393L16.30120507184124,6.040967532004328z" style="fill:rgb(83,212,212)"/><path d="M-1.9865397829356064,112.13599781505769L-0.5001106241988957,-27.43177030275177L-1.741865355458033,-29.90567967720384z" style="fill:rgb(247,158,158)"/><path d="M-129.9618289580739,85.6853115346049L-131.79969992687737,88.84025935308888L-128.34870566459696,88.00040613046116zM-129.9618289580739,85.6853115346049L-133.4197703072893,86.52923640765454L-131.79969992687737,88.84025935308888z" style="fill:rgb(127,37,217)"/><path d="M32.61802056973397,-39.007476347405024L-1.741865355458033,-29.90567967720384L-1.9865397829356064,112.13599781505769z" style="fill:rgb(83,212,212)"/><path d="M127.90820418351528,-204.81585993474152L184.8881552957942,-29.720304497808435L184.43391316337244,-32.20514961251776zM18.503782941964733,147.5302802089393L19.814455419078342,149.79429489051324L17.461126581253517,8.35184167037535zM183.52863204278103,-33.86759285169384L182.70785114935754,-36.37141571282798L208.5490360640077,105.73418334949737zM38.570009732303504,105.61527368255376L33.7902911326263,-36.49140903934961L32.61802056973397,-39.007476347405024z" style="fill:rgb(247,158,158)"/><path d="M-102.95082302856761,43.15153098400921L128.27401643431637,-202.42409503971106L-197.9200453741697,-105.22789049581326z" style="fill:rgb(127,37,217)"/><path d="M164.91838361613884,-23.09115279321614L160.68524788529064,-72.93198873926877L157.0022996839097,-71.95639194949341zM-145.63647144921802,145.14567281988008L-140.20749023214984,143.89813161959742L-123.45833646166525,2.336539048867778z" style="fill:rgb(83,212,212)"/><path d="M-177.71164192450124,-44.347193467173014L-171.1000998903821,-79.09404369419221L-171.42493220042562,-79.60881311573401zM-177.9897436328315,-46.72002728343015L-171.42493220042562,-79.60881311573401L-171.9530850127491,-80.44574916504554zM-177.6686366359013,-42.16197199328157L-170.99048196048622,-78.920336164035L-171.1000998903821,-79.09404369419221z" style="fill:rgb(247,158,158)"/><path d="M49.64694879815083,-2.4579260347651526L18.503782941964733,147.5302802089393L56.41768648420132,139.1919892764703z" style="fill:rgb(83,212,212)"/><path d="M-178.4920585470775,-49.19209906545391L-171.9530850127491,-80.44574916504554L-172.6650806390279,-81.57406646440059zM-179.1998217980511,-51.67173321312801L-172.6650806390279,-81.57406646440059L-173.53461073450282,-82.95197709613662zM-180.08684768298806,-54.067055358829265L-173.53461073450282,-82.95197709613662L-174.5292274778527,-84.5281751462292zM57.64364558419856,141.49837897021143L49.64694879815083,-2.4579260347651526L56.41768648420132,139.1919892764703zM-143.02934282229458,134.44953004029207L-136.579766346371,143.06450989822665L-120.25063866676498,1.4868321595187257zM-181.12059804178458,-56.288970104839045L-174.5292274778527,-84.5281751462292L-175.61164165254092,-86.2434446654848zM-182.26299197985202,-58.25417087068031L-175.61164165254092,-86.2434446654848L-176.7408085176824,-88.03283191728157z" style="fill:rgb(247,158,158)"/><path d="M-140.20749023214984,143.89813161959742L-129.9618289580739,85.6853115346049L-133.4197703072893,86.52923640765454zM37.24421470963393,103.12106883810898L157.0022996839097,-71.95639194949341L32.61802056973397,-39.007476347405024z" style="fill:rgb(83,212,212)"/><path d="M-183.47175002743768,-59.88802381044245L-176.7408085176824,-88.03283191728157L-177.87354476289303,-89.82788694481147z" style="fill:rgb(247,158,158)"/><path d="M-146.68577713161892,135.29920720990705L-143.02934282229458,134.44953004029207L-125.78492348827317,-7.283324193749811z" style="fill:rgb(83,212,212)"/><path d="M-184.7018126852464,-61.127291442919L-177.87354476289303,-89.82788694481147L-178.96618011429763,-91.55936262487646zM-185.90670556193766,-61.922603528992745L-178.96618011429763,-91.55936262487646L-179.9761114125567,-93.15979000838944z" style="fill:rgb(247,158,158)"/><path d="M19.814455419078342,149.79429489051324L-120.56366764426748,178.1149899107076L-118.95756248524775,180.22690975088287z" style="fill:rgb(127,37,217)"/><path d="M-178.4920585470775,-49.19209906545391L-177.9897436328315,-46.72002728343015L-171.9530850127491,-80.44574916504554zM-177.9897436328315,-46.72002728343015L-177.71164192450124,-44.347193467173014L-171.42493220042562,-79.60881311573401zM-179.1998217980511,-51.67173321312801L-178.4920585470775,-49.19209906545391L-172.6650806390279,-81.57406646440059zM-187.04034236224297,-62.2406525092055L-179.9761114125567,-93.15979000838944L-180.86366536760733,-94.56630340162526zM-177.71164192450124,-44.347193467173014L-177.6686366359013,-42.16197199328157L-171.1000998903821,-79.09404369419221zM-180.08684768298806,-54.067055358829265L-179.1998217980511,-51.67173321312801L-173.53461073450282,-82.95197709613662zM-177.6686366359013,-42.16197199328157L-177.8631441281781,-40.24654673918499L-170.99048196048622,-78.920336164035zM-188.05870737502283,-62.06581106551227L-180.86366536760733,-94.56630340162526L-181.59370421588036,-95.72320953175063zM-181.12059804178458,-56.288970104839045L-180.08684768298806,-54.067055358829265L-174.5292274778527,-84.5281751462292z" style="fill:rgb(247,158,158)"/><path d="M164.91838361613884,-23.09115279321614L168.7944838331641,-24.071010166679436L160.68524788529064,-72.93198873926877z" style="fill:rgb(83,212,212)"/><path d="M-182.26299197985202,-58.25417087068031L-181.12059804178458,-56.288970104839045L-175.61164165254092,-86.2434446654848zM-188.92162191713695,-61.40130400046375L-181.59370421588036,-95.72320953175063L-182.1371555180322,-96.58439220122938zM-189.59436945405213,-60.26958289029057L-182.1371555180322,-96.58439220122938L-182.4722079025987,-97.11535881541651z" style="fill:rgb(247,158,158)"/><path d="M-193.63992137483135,-57.6875748715261L-182.58541601527943,-97.29475963127375L-186.0417424381299,-96.27605202141079z" style="fill:rgb(83,212,212)"/><path d="M-183.47175002743768,-59.88802381044245L-182.26299197985202,-58.25417087068031L-176.7408085176824,-88.03283191728157zM-190.04938352485732,-58.71195507534593L-182.4722079025987,-97.11535881541651L-182.58541601527943,-97.29475963127375zM-184.7018126852464,-61.127291442919L-183.47175002743768,-59.88802381044245L-177.87354476289303,-89.82788694481147zM-143.02934299858373,134.44953020587795L-135.93394379057432,-23.36642715361827L-154.89537116659466,118.59956983171197zM-196.2701934994792,63.333467680824526L-135.93394379057432,-23.36642715361827L-170.99048196048622,-78.920336164035zM-185.90670556193766,-61.922603528992745L-184.7018126852464,-61.127291442919L-178.96618011429763,-91.55936262487646z" style="fill:rgb(247,158,158)"/><path d="M-136.579766346371,143.06450989822665L-1.9865397829356064,112.13599781505769L-1.741865355458033,-29.90567967720384z" style="fill:rgb(83,212,212)"/><path d="M-178.4920585470775,-49.19209906545391L-182.01937602599733,-48.197443996739665L-181.51860740711882,-45.727320306130345z" style="fill:rgb(93,135,250)"/><path d="M-179.1998217980511,-51.67173321312801L-182.72705823820775,-50.67465724879552L-182.01937602599733,-48.197443996739665z" style="fill:rgb(99,111,250)"/><path d="M-187.04034236224297,-62.2406525092055L-185.90670556193766,-61.922603528992745L-179.9761114125567,-93.15979000838944z" style="fill:rgb(247,158,158)"/><path d="M-179.1998217980511,-51.67173321312801L-182.01937602599733,-48.197443996739665L-178.4920585470775,-49.19209906545391z" style="fill:rgb(99,111,250)"/><path d="M-178.4920585470775,-49.19209906545391L-181.51860740711882,-45.727320306130345L-177.9897436328315,-46.72002728343015z" style="fill:rgb(93,135,250)"/><path d="M-177.9897436328315,-46.72002728343015L-181.51860740711882,-45.727320306130345L-181.24346236560393,-43.35588733588529z" style="fill:rgb(89,159,244)"/><path d="M-180.08684768298806,-54.067055358829265L-183.61549171619126,-53.067172249670726L-182.72705823820775,-50.67465724879552z" style="fill:rgb(106,87,246)"/><path d="M19.814455419078342,149.79429489051324L18.503782941964733,147.5302802089393L-120.56366764426748,178.1149899107076z" style="fill:rgb(127,37,217)"/><path d="M-180.08684768298806,-54.067055358829265L-182.72705823820775,-50.67465724879552L-179.1998217980511,-51.67173321312801z" style="fill:rgb(106,87,246)"/><path d="M-177.9897436328315,-46.72002728343015L-181.24346236560393,-43.35588733588529L-177.71164192450124,-44.347193467173014z" style="fill:rgb(89,159,244)"/><path d="M-140.20749023214984,143.89813161959742L-136.579766346371,143.06450989822665L-129.9618289580739,85.6853115346049z" style="fill:rgb(83,212,212)"/><path d="M-181.12059804178458,-56.288970104839045L-183.61549171619126,-53.067172249670726L-180.08684768298806,-54.067055358829265z" style="fill:rgb(114,65,238)"/><path d="M-177.71164192450124,-44.347193467173014L-181.24346236560393,-43.35588733588529L-181.20471704179187,-41.171483498010204z" style="fill:rgb(85,182,234)"/><path d="M-181.12059804178458,-56.288970104839045L-184.65202788678474,-55.28599435672024L-183.61549171619126,-53.067172249670726z" style="fill:rgb(114,65,238)"/><path d="M-177.71164192450124,-44.347193467173014L-181.20471704179187,-41.171483498010204L-177.6686366359013,-42.16197199328157z" style="fill:rgb(85,182,234)"/><path d="M-188.05870737502283,-62.06581106551227L-187.04034236224297,-62.2406525092055L-180.86366536760733,-94.56630340162526z" style="fill:rgb(247,158,158)"/><path d="M-154.89537116659466,118.59956983171197L-139.20511974355594,-22.47564250524827L-158.60433672969037,119.47918580771997z" style="fill:rgb(83,212,212)"/><path d="M-182.26299197985202,-58.25417087068031L-184.65202788678474,-55.28599435672024L-181.12059804178458,-56.288970104839045z" style="fill:rgb(123,46,225)"/><path d="M-177.6686366359013,-42.16197199328157L-181.20471704179187,-41.171483498010204L-181.404633094722,-39.25624443582699z" style="fill:rgb(84,202,220)"/><path d="M-182.26299197985202,-58.25417087068031L-185.79854431112344,-57.24792937054684L-184.65202788678474,-55.28599435672024z" style="fill:rgb(123,46,225)"/><path d="M-177.6686366359013,-42.16197199328157L-181.404633094722,-39.25624443582699L-177.8631441281781,-40.24654673918499z" style="fill:rgb(84,202,220)"/><path d="M56.41768648420132,139.1919892764703L208.5490360640077,105.73418334949737L182.70785114935754,-36.37141571282798z" style="fill:rgb(83,212,212)"/><path d="M-188.92162191713695,-61.40130400046375L-188.05870737502283,-62.06581106551227L-181.59370421588036,-95.72320953175063z" style="fill:rgb(247,158,158)"/><path d="M-183.47175002743768,-59.88802381044245L-185.79854431112344,-57.24792937054684L-182.26299197985202,-58.25417087068031zM-183.47175002743768,-59.88802381044245L-187.0125914814972,-58.878464073143256L-185.79854431112344,-57.24792937054684z" style="fill:rgb(131,29,208)"/><path d="M-189.59436945405213,-60.26958289029057L-188.92162191713695,-61.40130400046375L-182.1371555180322,-96.58439220122938z" style="fill:rgb(247,158,158)"/><path d="M-184.7018126852464,-61.127291442919L-187.0125914814972,-58.878464073143256L-183.47175002743768,-59.88802381044245zM-184.7018126852464,-61.127291442919L-188.24891598831894,-60.11448088809456L-187.0125914814972,-58.878464073143256z" style="fill:rgb(140,16,189)"/><path d="M169.72084807403442,-21.383186697050828L164.91838361613884,-23.09115279321614L165.85366608131773,-20.408262659316453z" style="fill:rgb(127,37,217)"/><path d="M-190.04938352485732,-58.71195507534593L-189.59436945405213,-60.26958289029057L-182.4722079025987,-97.11535881541651z" style="fill:rgb(247,158,158)"/><path d="M169.72084807403442,-21.383186697050828L168.7944838331641,-24.071010166679436L164.91838361613884,-23.09115279321614z" style="fill:rgb(127,37,217)"/><path d="M-193.63992137483135,-57.6875748715261L-190.04938352485732,-58.71195507534593L-182.58541601527943,-97.29475963127375zM184.29578219638321,69.32972231873136L169.92092577515595,-75.37848161740912L160.68524788529064,-72.93198873926877z" style="fill:rgb(83,212,212)"/><path d="M-1.9865397829356064,112.13599781505769L-0.5701746898494411,114.58258394554088L-0.5001106241988957,-27.43177030275177z" style="fill:rgb(247,158,158)"/><path d="M-185.90670556193766,-61.922603528992745L-188.24891598831894,-60.11448088809456L-184.7018126852464,-61.127291442919zM-185.90670556193766,-61.922603528992745L-189.4608117501967,-60.906749640168904L-188.24891598831894,-60.11448088809456z" style="fill:rgb(148,8,167)"/><path d="M194.9514016889136,66.88114333967061L170.80211285870146,-72.69038997478792L169.92092577515595,-75.37848161740912z" style="fill:rgb(247,158,158)"/><path d="M-187.04034236224297,-62.2406525092055L-189.4608117501967,-60.906749640168904L-185.90670556193766,-61.922603528992745zM-187.04034236224297,-62.2406525092055L-190.60193009439925,-61.222067617341544L-189.4608117501967,-60.906749640168904z" style="fill:rgb(155,4,143)"/><path d="M-200.15922848830152,64.32152606321509L-170.99048196048622,-78.920336164035L-174.40129642560922,-77.93423151142223z" style="fill:rgb(83,212,212)"/><path d="M-188.05870737502283,-62.06581106551227L-190.60193009439925,-61.222067617341544L-187.04034236224297,-62.2406525092055zM-188.05870737502283,-62.06581106551227L-191.6279925851633,-61.04492287361179L-190.60193009439925,-61.222067617341544z" style="fill:rgb(161,4,119)"/><path d="M180.64324989129045,59.23476853358834L160.68524788529064,-72.93198873926877L157.29140963539666,-83.00819762023113zM183.52863204278103,-33.86759285169384L208.5490360640077,105.73418334949737L209.41710424351535,108.21454537864754z" style="fill:rgb(247,158,158)"/><path d="M56.41768648420132,139.1919892764703L18.503782941964733,147.5302802089393L19.814455419078342,149.79429489051324z" style="fill:rgb(127,37,217)"/><path d="M-197.39960232979396,-107.68887066903501L-197.9200453741697,-105.22789049581326L128.27401643431637,-202.42409503971106zM32.61802056973397,-39.007476347405024L-1.9865397829356064,112.13599781505769L37.24421470963393,103.12106883810898zM176.35563049817728,60.2311200659852L157.29140963539666,-83.00819762023113L153.5781900263254,-82.01488762939812z" style="fill:rgb(83,212,212)"/><path d="M56.41768648420132,139.1919892764703L19.814455419078342,149.79429489051324L57.64364558419856,141.49837897021143z" style="fill:rgb(127,37,217)"/><path d="M38.570009732303504,105.61527368255376L32.61802056973397,-39.007476347405024L37.24421470963393,103.12106883810898zM170.65467691443152,12.318441858823096L165.85366608131773,-20.408262659316453L164.91838361613884,-23.09115279321614zM169.72084807403442,-21.383186697050828L168.7944838331641,-24.071010166679436L174.67118940455086,11.33819235239933z" style="fill:rgb(247,158,158)"/><path d="M168.7944838331641,-24.071010166679436L164.91838361613884,-23.09115279321614L170.65467691443152,12.318441858823096z" style="fill:rgb(83,212,212)"/><path d="M-143.02934282229458,134.44953004029207L-140.20749023214984,143.89813161959742L-136.579766346371,143.06450989822665z" style="fill:rgb(127,37,217)"/><path d="M127.90820418351528,-204.81585993474152L128.27401643431637,-202.42409503971106L184.8881552957942,-29.720304497808435zM180.64324989119402,59.23476297396688L157.29141036661113,-83.00819800660275L151.05696582243806,-101.51804255731105z" style="fill:rgb(247,158,158)"/><path d="M-143.02934282229458,134.44953004029207L-146.68577713161892,135.29920720990705L-140.20749023214984,143.89813161959742z" style="fill:rgb(127,37,217)"/><path d="M-196.2701934994792,63.333467680824526L-154.89537116659466,118.59956983171197L-135.93394379057432,-23.36642715361827z" style="fill:rgb(247,158,158)"/><path d="M-0.5701746898494411,114.58258394554088L-145.63647144921802,145.14567281988008L-143.90552914165272,147.42175589587237z" style="fill:rgb(127,37,217)"/><path d="M170.65467691443152,12.318441858823096L171.60744877001727,15.00207626352751L165.85366608131773,-20.408262659316453zM169.72084807403442,-21.383186697050828L174.67118940455086,11.33819235239933L175.61438371046455,14.026934445033895z" style="fill:rgb(247,158,158)"/><path d="M168.7944838331641,-24.071010166679436L170.65467691443152,12.318441858823096L174.67118940455086,11.33819235239933z" style="fill:rgb(83,212,212)"/><path d="M209.41710424351535,108.21454537864754L56.41768648420132,139.1919892764703L57.64364558419856,141.49837897021143zM-154.89537116659466,118.59956983171197L-146.68577740255864,135.29920745962258L-143.02934299858373,134.44953020587795z" style="fill:rgb(127,37,217)"/><path d="M173.90820106745787,40.62032095818585L151.05696582243806,-101.51804255731105L147.2882789504913,-100.49177855578965z" style="fill:rgb(83,212,212)"/><path d="M-218.03333500390812,34.26353487912471L-182.58541601527943,-97.29475963127375L-189.22622449138348,-107.81839594721437z" style="fill:rgb(247,158,158)"/><path d="M-154.89537116659466,118.59956983171197L-158.60433672969037,119.47918580771997L-146.68577740255864,135.29920745962258zM-0.5701746898494411,114.58258394554088L-1.9865397829356064,112.13599781505769L-145.63647144921802,145.14567281988008z" style="fill:rgb(127,37,217)"/><path d="M-189.22622449138348,-107.81839594721437L-192.70846603102999,-106.78079260793149L-222.01518821365107,35.31116307538026zM37.24421470963393,103.12106883810898L180.04851514928657,70.30571049716244L157.0022996839097,-71.95639194949341z" style="fill:rgb(83,212,212)"/><path d="M174.67118940455086,11.33819235239933L171.60744877001727,15.00207626352751L175.61438371046455,14.026934445033895z" style="fill:rgb(127,37,217)"/><path d="M-197.39960232979396,-107.68887066903501L128.27401643431637,-202.42409503971106L127.90820418351528,-204.81585993474152z" style="fill:rgb(83,212,212)"/><path d="M174.67118940455086,11.33819235239933L170.65467691443152,12.318441858823096L171.60744877001727,15.00207626352751zM209.41710424351535,108.21454537864754L208.5490360640077,105.73418334949737L56.41768648420132,139.1919892764703z" style="fill:rgb(127,37,217)"/><path d="M134.26427179838439,-131.9118528697429L129.34745861349654,-165.97289959440317L129.14613811475593,-166.5706011248889zM133.70554860132862,-134.40339076349142L129.14613811475593,-166.5706011248889L128.81880227423636,-167.54245848450387zM134.71405510566078,-129.66338477373992L129.41538111087254,-165.77121139760214L129.34745861349654,-165.97289959440317zM194.9514016889136,66.88114333967061L195.8929444140019,69.57144139657746L170.80211285870146,-72.69038997478792zM133.05878620261916,-137.04532740449412L128.81880227423636,-167.54245848450387L128.37744059484103,-168.85284884449808z" style="fill:rgb(247,158,158)"/><path d="M37.24421470963393,103.12106883810898L-1.9865397829356064,112.13599781505769L-0.5701746898494411,114.58258394554088z" style="fill:rgb(127,37,217)"/><path d="M184.29578219638321,69.32972231873136L194.9514016889136,66.88114333967061L169.92092577515595,-75.37848161740912z" style="fill:rgb(83,212,212)"/><path d="M132.3479619151085,-139.73992644643582L128.37744059484103,-168.85284884449808L127.83834280510506,-170.45340478282537zM131.59930902780613,-142.38767995234522L127.83834280510506,-170.45340478282537L127.22154885339964,-172.28464884382723z" style="fill:rgb(247,158,158)"/><path d="M37.24421470963393,103.12106883810898L-0.5701746898494411,114.58258394554088L38.570009732303504,105.61527368255376z" style="fill:rgb(127,37,217)"/><path d="M180.64324989129045,59.23476853358834L184.29578219638321,69.32972231873136L160.68524788529064,-72.93198873926877zM130.84046278878338,-144.89045348946493L127.22154885339964,-172.28464884382723L126.55017367187178,-174.2779225113471z" style="fill:rgb(247,158,158)"/><path d="M-200.15922848830152,64.32152606321509L-196.2701934994792,63.333467680824526L-170.99048196048622,-78.920336164035z" style="fill:rgb(83,212,212)"/><path d="M130.09959649729245,-147.15477954879293L126.55017367187178,-174.2779225113471L125.84963421422104,-176.35781981734047z" style="fill:rgb(247,158,158)"/><path d="M-187.9347539552488,16.428340596701176L-191.6668461994215,17.419846488252098L-192.14422299912428,19.19618691119718zM-187.9347539552488,16.428340596701176L-192.14422299912428,19.19618691119718L-188.4050709413412,18.204404407232953z" style="fill:rgb(84,220,202)"/><path d="M180.04851514928657,70.30571049716244L174.67118940455086,11.33819235239933L170.65467691443152,12.318441858823096z" style="fill:rgb(83,212,212)"/><path d="M129.40442645536788,-149.09499705788727L125.84963421422104,-176.35781981734047L125.14668267521297,-178.44485512174245z" style="fill:rgb(247,158,158)"/><path d="M-188.4050709413412,18.204404407232953L-192.14422299912428,19.19618691119718L-192.8541763974513,20.562089609397333z" style="fill:rgb(85,234,182)"/><path d="M176.35563049817728,60.2311200659852L180.64324989129045,59.23476853358834L157.29140963539666,-83.00819762023113z" style="fill:rgb(83,212,212)"/><path d="M128.78133633050751,-150.6363941901799L125.14668267521297,-178.44485512174245L124.46847033800825,-180.4584398968286z" style="fill:rgb(247,158,158)"/><path d="M-188.4050709413412,18.204404407232953L-192.8541763974513,20.562089609397333L-189.1071724450231,19.569369296567842z" style="fill:rgb(85,234,182)"/><path d="M-189.1071724450231,19.569369296567842L-192.8541763974513,20.562089609397333L-193.77139573946516,21.463010931853113z" style="fill:rgb(89,244,159)"/><path d="M-196.2701934994792,63.333467680824526L-158.60432629245065,119.47918580771997L-154.89537116659466,118.59956983171197z" style="fill:rgb(127,37,217)"/><path d="M128.25437611412644,-151.71798446487432L124.46847033800825,-180.4584398968286L123.84145341189866,-182.32004446940553z" style="fill:rgb(247,158,158)"/><path d="M-189.1071724450231,19.569369296567842L-193.77139573946516,21.463010931853113L-190.01603864684884,20.468719007341097z" style="fill:rgb(89,244,159)"/><path d="M133.05878620261916,-137.04532740449412L133.70554860132862,-134.40339076349142L128.81880227423636,-167.54245848450387zM133.70554860132862,-134.40339076349142L134.26427179838439,-131.9118528697429L129.14613811475593,-166.5706011248889zM132.3479619151085,-139.73992644643582L133.05878620261916,-137.04532740449412L128.37744059484103,-168.85284884449808zM127.844297153721,-152.29523891128304L123.84145341189866,-182.32004446940553L123.29028440704377,-183.95644991180788z" style="fill:rgb(247,158,158)"/><path d="M-190.01603864684884,20.468719007341097L-193.77139573946516,21.463010931853113L-194.86233403119033,21.861142977509207z" style="fill:rgb(93,250,135)"/><path d="M134.26427179838439,-131.9118528697429L134.71405510566078,-129.66338477373992L129.34745861349654,-165.97289959440317zM131.59930902780613,-142.38767995234522L132.3479619151085,-139.73992644643582L127.83834280510506,-170.45340478282537z" style="fill:rgb(247,158,158)"/><path d="M-190.01603864684884,20.468719007341097L-194.86233403119033,21.861142977509207L-191.0984423416763,20.864699515833685z" style="fill:rgb(93,250,135)"/><path d="M134.71405510566078,-129.66338477373992L135.03772043722412,-127.74258905383407L129.41538111087254,-165.77121139760214zM127.56775662719167,-152.34207296379643L123.29028440704377,-183.95644991180788L122.83685117731322,-185.30266977770674zM130.84046278878338,-144.89045348946493L131.59930902780613,-142.38767995234522L127.22154885339964,-172.28464884382723zM130.09959649729245,-147.15477954879293L130.84046278878338,-144.89045348946493L126.55017367187178,-174.2779225113471zM127.43648386472361,-151.85257969698299L122.83685117731322,-185.30266977770674L122.49927148488884,-186.30492290119233zM127.45670139090926,-150.8417670527682L122.49927148488884,-186.30492290119233L122.29112236760584,-186.92291549011753z" style="fill:rgb(247,158,158)"/><path d="M123.42253863891258,-148.14563698321754L122.22078890823991,-187.1317449200582L118.1979298309284,-185.94605980659205z" style="fill:rgb(83,212,212)"/><path d="M129.40442645536788,-149.09499705788727L130.09959649729245,-147.15477954879293L125.84963421422104,-176.35781981734047zM127.62866663220574,-149.34564549677688L122.29112236760584,-186.92291549011753L122.22078890823991,-187.1317449200582z" style="fill:rgb(247,158,158)"/><path d="M195.8929444140019,69.57144139657746L37.24421470963393,103.12106883810898L38.570009732303504,105.61527368255376z" style="fill:rgb(127,37,217)"/><path d="M128.78133633050751,-150.6363941901799L129.40442645536788,-149.09499705788727L125.14668267521297,-178.44485512174245zM180.64324989119402,59.23476297396688L151.05696582243806,-101.51804255731105L173.90820106745787,40.62032095818585zM-196.40051925815598,63.159389354065134L-187.9347539552488,16.428340596701176L-188.4050709413412,18.204404407232953zM150.27059736869177,-24.709775931627085L151.0569756635975,-101.51804255731105L129.41538111087254,-165.77121139760214zM128.25437611412644,-151.71798446487432L128.78133633050751,-150.6363941901799L124.46847033800825,-180.4584398968286zM-196.7867509530094,62.643474236473814L-188.4050709413412,18.204404407232953L-189.1071724450231,19.569369296567842z" style="fill:rgb(247,158,158)"/><path d="M133.05878620261916,-137.04532740449412L128.94065647775716,-135.88407440320944L129.58540855536359,-133.24435460421944z" style="fill:rgb(93,135,250)"/><path d="M132.3479619151085,-139.73992644643582L128.2298311231964,-138.57581712462007L128.94065647775716,-135.88407440320944z" style="fill:rgb(99,111,250)"/><path d="M127.844297153721,-152.29523891128304L128.25437611412644,-151.71798446487432L123.84145341189866,-182.32004446940553z" style="fill:rgb(247,158,158)"/><path d="M132.3479619151085,-139.73992644643582L128.94065647775716,-135.88407440320944L133.05878620261916,-137.04532740449412z" style="fill:rgb(99,111,250)"/><path d="M133.05878620261916,-137.04532740449412L129.58540855536359,-133.24435460421944L133.70554860132862,-134.40339076349142z" style="fill:rgb(93,135,250)"/><path d="M133.70554860132862,-134.40339076349142L129.58540855536359,-133.24435460421944L130.14018085174033,-130.75430375834225z" style="fill:rgb(89,159,244)"/><path d="M131.59930902780613,-142.38767995234522L127.47914403955318,-141.22017532791807L128.2298311231964,-138.57581712462007zM131.59930902780613,-142.38767995234522L128.2298311231964,-138.57581712462007L132.3479619151085,-139.73992644643582z" style="fill:rgb(106,87,246)"/><path d="M-197.41484551376308,61.80452582613831L-189.1071724450231,19.569369296567842L-190.01603864684884,20.468719007341097z" style="fill:rgb(247,158,158)"/><path d="M133.70554860132862,-134.40339076349142L130.14018085174033,-130.75430375834225L134.26427179838439,-131.9118528697429z" style="fill:rgb(89,159,244)"/><path d="M180.04851514928657,70.30571049716244L184.29578219638321,69.32972231873136L174.67118940455086,11.33819235239933z" style="fill:rgb(83,212,212)"/><path d="M130.84046278878338,-144.89045348946493L127.47914403955318,-141.22017532791807L131.59930902780613,-142.38767995234522z" style="fill:rgb(114,65,238)"/><path d="M134.26427179838439,-131.9118528697429L130.14018085174033,-130.75430375834225L130.58418308463683,-128.5065724427285z" style="fill:rgb(85,182,234)"/><path d="M130.84046278878338,-144.89045348946493L126.71631566560914,-143.71913782505982L127.47914403955318,-141.22017532791807z" style="fill:rgb(114,65,238)"/><path d="M134.26427179838439,-131.9118528697429L130.58418308463683,-128.5065724427285L134.71405510566078,-129.66338477373992z" style="fill:rgb(85,182,234)"/><path d="M127.56775662719167,-152.34207296379643L127.844297153721,-152.29523891128304L123.29028440704377,-183.95644991180788z" style="fill:rgb(247,158,158)"/><path d="M130.09959649729245,-147.15477954879293L126.71631566560914,-143.71913782505982L130.84046278878338,-144.89045348946493z" style="fill:rgb(123,46,225)"/><path d="M-198.2617932652632,60.67320733476757L-190.01603864684884,20.468719007341097L-191.0984423416763,20.864699515833685z" style="fill:rgb(247,158,158)"/><path d="M134.71405510566078,-129.66338477373992L130.58418308463683,-128.5065724427285L130.9004880203455,-126.58570260125035z" style="fill:rgb(84,202,220)"/><path d="M130.09959649729245,-147.15477954879293L125.96964804526648,-145.97937163464982L126.71631566560914,-143.71913782505982z" style="fill:rgb(123,46,225)"/><path d="M173.90820106745787,40.62032095818585L147.2882789504913,-100.49177855578965L169.54637646715855,41.65477472570979z" style="fill:rgb(83,212,212)"/><path d="M-218.03333500390812,34.26353487912471L-210.08871312523115,44.875495618103464L-182.58541601527943,-97.29475963127375z" style="fill:rgb(247,158,158)"/><path d="M134.71405510566078,-129.66338477373992L130.9004880203455,-126.58570260125035L135.03772043722412,-127.74258905383407z" style="fill:rgb(84,202,220)"/><path d="M127.43648386472361,-151.85257969698299L127.56775662719167,-152.34207296379643L122.83685117731322,-185.30266977770674z" style="fill:rgb(247,158,158)"/><path d="M129.40442645536788,-149.09499705788727L125.96964804526648,-145.97937163464982L130.09959649729245,-147.15477954879293zM129.40442645536788,-149.09499705788727L125.26710109779829,-147.91536880492794L125.96964804526648,-145.97937163464982z" style="fill:rgb(131,29,208)"/><path d="M-199.29647245083132,59.29115783900937L-191.0984423416763,20.864699515833685L-192.31409828086782,20.738243020390446z" style="fill:rgb(247,158,158)"/><path d="M-196.2701934994792,63.333467680824526L-200.15922848830152,64.32152606321509L-158.60432629245065,119.47918580771997z" style="fill:rgb(127,37,217)"/><path d="M127.45670139090926,-150.8417670527682L127.43648386472361,-151.85257969698299L122.49927148488884,-186.30492290119233z" style="fill:rgb(247,158,158)"/><path d="M128.78133633050751,-150.6363941901799L125.26710109779829,-147.91536880492794L129.40442645536788,-149.09499705788727zM128.78133633050751,-150.6363941901799L124.63529242696755,-149.45256223001624L125.26710109779829,-147.91536880492794z" style="fill:rgb(140,16,189)"/><path d="M-200.4804623998858,57.709625641338L-192.31409828086782,20.738243020390446L-193.61683232979743,20.090311973921274zM127.62866663220574,-149.34564549677688L127.45670139090926,-150.8417670527682L122.29112236760584,-186.92291549011753z" style="fill:rgb(247,158,158)"/><path d="M195.8929444140019,69.57144139657746L194.9514016889136,66.88114333967061L37.24421470963393,103.12106883810898z" style="fill:rgb(127,37,217)"/><path d="M123.42253863891258,-148.14563698321754L127.62866663220574,-149.34564549677688L122.22078890823991,-187.1317449200582z" style="fill:rgb(83,212,212)"/><path d="M128.25437611412644,-151.71798446487432L124.63529242696755,-149.45256223001624L128.78133633050751,-150.6363941901799z" style="fill:rgb(148,8,167)"/><path d="M-189.22622449138348,-107.81839594721437L-222.01518821365107,35.31116307538026L-218.03333500390812,34.26353487912471z" style="fill:rgb(83,212,212)"/><path d="M128.25437611412644,-151.71798446487432L124.09860419541869,-150.53015928531912L124.63529242696755,-149.45256223001624z" style="fill:rgb(148,8,167)"/><path d="M-201.7695227393614,55.98779233022229L-193.61683232979743,20.090311973921274L-194.95647596113292,18.942430227461095zM-196.40051925815598,63.159389354065134L-196.2701934994792,63.333467680824526L-187.9347539552488,16.428340596701176z" style="fill:rgb(247,158,158)"/><path d="M127.844297153721,-152.29523891128304L124.09860419541869,-150.53015928531912L128.25437611412644,-151.71798446487432z" style="fill:rgb(155,4,143)"/><path d="M-203.11488774423657,54.1907417660813L-194.95647596113292,18.942430227461095L-196.2805783663826,17.336382293659174z" style="fill:rgb(247,158,158)"/><path d="M127.844297153721,-152.29523891128304L123.67814966636526,-151.10375442118175L124.09860419541869,-150.53015928531912z" style="fill:rgb(155,4,143)"/><path d="M-196.7867509530094,62.643474236473814L-196.40051925815598,63.159389354065134L-188.4050709413412,18.204404407232953zM-204.46514124816628,52.38712455557031L-196.2805783663826,17.336382293659174L-197.5367037894759,15.333016679120002zM-197.41484551376308,61.80452582613831L-196.7867509530094,62.643474236473814L-189.1071724450231,19.569369296567842z" style="fill:rgb(247,158,158)"/><path d="M-116.60045532940737,186.90813444113286L211.44760727094382,115.56825871547433L150.17875149184124,-59.204579524710994z" style="fill:rgb(127,37,217)"/><path d="M145.6504101281123,-23.53595588101005L129.41538111087254,-165.77121139760214L125.45557143366892,-164.62638559438838z" style="fill:rgb(83,212,212)"/><path d="M127.56775662719167,-152.34207296379643L123.67814966636526,-151.10375442118175L127.844297153721,-152.29523891128304z" style="fill:rgb(161,4,119)"/><path d="M-214.0368328747651,45.90117657132123L-201.00533169917944,-2.0783830321565318L-204.79186521660645,-1.050770437672619z" style="fill:rgb(83,212,212)"/><path d="M127.56775662719167,-152.34207296379643L123.39098025874029,-151.14742330507784L123.67814966636526,-151.10375442118175z" style="fill:rgb(161,4,119)"/><path d="M-205.76820143944002,50.64658905562917L-197.5367037894759,15.333016679120002L-198.67471057242565,13.009998896965316zM-198.2617932652632,60.67320733476757L-197.41484551376308,61.80452582613831L-190.01603864684884,20.468719007341097zM-210.08871312523115,44.875495618103464L-201.25468284146615,0.05385806649553715L-201.00533169917944,-2.0783830321565318zM-206.97316085683724,49.0370789255741L-198.67471057242565,13.009998896965316L-199.64881195303275,10.458806210938471zM-209.9534701426469,45.05614590374842L-201.2386413952004,2.472663800636372L-201.25468284146615,0.05385806649553715zM-199.29647245083132,59.29115783900937L-198.2617932652632,60.67320733476757L-191.0984423416763,20.864699515833685zM-208.0325320690294,47.62202090603946L-199.64881195303275,10.458806210938471L-200.41980700145115,7.780805301452754zM-209.55323888346516,45.59075253132983L-200.95680466820443,5.082867001803649L-201.2386413952004,2.472663800636372zM-208.90419169627842,46.45769454826737L-200.41980700145115,7.780805301452754L-200.95680466820443,5.082867001803649zM-200.4804623998858,57.709625641338L-199.29647245083132,59.29115783900937L-192.31409828086782,20.738243020390446zM-201.7695227393614,55.98779233022229L-200.4804623998858,57.709625641338L-193.61683232979743,20.090311973921274zM-203.11488774423657,54.1907417660813L-201.7695227393614,55.98779233022229L-194.95647596113292,18.942430227461095z" style="fill:rgb(247,158,158)"/><path d="M180.64324989129045,59.23476853358834L180.04851514928657,70.30571049716244L184.29578219638321,69.32972231873136z" style="fill:rgb(127,37,217)"/><path d="M-204.46514124816628,52.38712455557031L-203.11488774423657,54.1907417660813L-196.2805783663826,17.336382293659174z" style="fill:rgb(247,158,158)"/><path d="M180.64324989129045,59.23476853358834L176.35563049817728,60.2311200659852L180.04851514928657,70.30571049716244z" style="fill:rgb(127,37,217)"/><path d="M-205.76820143944002,50.64658905562917L-204.46514124816628,52.38712455557031L-197.5367037894759,15.333016679120002zM150.27059736869177,-24.709775931627085L173.90821239734478,40.62032095818585L151.0569756635975,-101.51804255731105zM-206.97316085683724,49.0370789255741L-205.76820143944002,50.64658905562917L-198.67471057242565,13.009998896965316zM-208.0325320690294,47.62202090603946L-206.97316085683724,49.0370789255741L-199.64881195303275,10.458806210938471z" style="fill:rgb(247,158,158)"/><path d="M-214.0368328747651,45.90117657132123L-210.08871312523115,44.875495618103464L-201.00533169917944,-2.0783830321565318z" style="fill:rgb(83,212,212)"/><path d="M-208.90419169627842,46.45769454826737L-208.0325320690294,47.62202090603946L-200.41980700145115,7.780805301452754zM-209.55323888346516,45.59075253132983L-208.90419169627842,46.45769454826737L-200.95680466820443,5.082867001803649zM-210.08871312523115,44.875495618103464L-209.9534701426469,45.05614590374842L-201.25468284146615,0.05385806649553715zM-209.9534701426469,45.05614590374842L-209.55323888346516,45.59075253132983L-201.2386413952004,2.472663800636372z" style="fill:rgb(247,158,158)"/><path d="M-210.08871312523115,44.875495618103464L-200.15922848830152,64.32152606321509L-196.2701934994792,63.333467680824526zM173.90820106745787,40.62032095818585L176.35563049817728,60.2311200659852L180.64324989119402,59.23476297396688z" style="fill:rgb(127,37,217)"/><path d="M149.67758355300526,-62.48138547098237L211.44760727094382,115.56825871547433L210.8536965736946,112.31937766082018z" style="fill:rgb(247,158,158)"/><path d="M-210.08871312523115,44.875495618103464L-214.0368328747651,45.90117657132123L-200.15922848830152,64.32152606321509zM-116.60045532940737,186.90813444113286L150.17875149184124,-59.204579524710994L-228.66687091224918,40.16217992196064z" style="fill:rgb(127,37,217)"/><path d="M137.74050392873926,-59.34072706952349L122.22078890823991,-187.1317449200582L118.091952971548,-199.3901290261021z" style="fill:rgb(247,158,158)"/><path d="M173.90820106745787,40.62032095818585L169.54637646715855,41.65477472570979L176.35563049817728,60.2311200659852z" style="fill:rgb(127,37,217)"/><path d="M118.091952971548,-199.3901290261021L114.03301066126434,-198.1806789677704L132.9846539808414,-58.089466010398255z" style="fill:rgb(83,212,212)"/><path d="M-218.03333500390812,34.26353487912471L-214.0368328747651,45.90117657132123L-210.08871312523115,44.875495618103464zM-218.03333500390812,34.26353487912471L-222.01518821365107,35.31116307538026L-214.0368328747651,45.90117657132123z" style="fill:rgb(127,37,217)"/><path d="M145.6504101281123,-23.53595588101005L150.27059736869177,-24.709775931627085L129.41538111087254,-165.77121139760214z" style="fill:rgb(83,212,212)"/><path d="M143.34081052516308,-71.5817808811776L138.9407387537451,-70.41281416854146L139.14528144790597,-68.67585733830761zM143.34081052516308,-71.5817808811776L139.14528144790597,-68.67585733830761L143.55521218617585,-69.84555870771766z" style="fill:rgb(84,220,202)"/><path d="M143.55521218617585,-69.84555870771766L139.14528144790597,-68.67585733830761L139.19550223542248,-67.41011593894412zM143.55521218617585,-69.84555870771766L139.19550223542248,-67.41011593894412L143.61642087259517,-68.58138423416884z" style="fill:rgb(85,234,182)"/><path d="M143.61642087259517,-68.58138423416884L139.19550223542248,-67.41011593894412L139.08834986118472,-66.66696991210425z" style="fill:rgb(89,244,159)"/><path d="M150.27059736869177,-24.709775931627085L169.5463746243563,41.6547742740952L173.90821239734478,40.62032095818585z" style="fill:rgb(127,37,217)"/><path d="M143.61642087259517,-68.58138423416884L139.08834986118472,-66.66696991210425L143.52101773028465,-67.8405848619259z" style="fill:rgb(89,244,159)"/><path d="M143.52101773028465,-67.8405848619259L139.08834986118472,-66.66696991210425L138.8266728110665,-66.47893291930224zM143.52101773028465,-67.8405848619259L138.8266728110665,-66.47893291930224L143.27137785424938,-67.65560877724599z" style="fill:rgb(93,250,135)"/><path d="M150.19577358942047,-24.916602381950593L143.34081052516308,-71.5817808811776L143.55521218617585,-69.84555870771766zM149.97396961199127,-25.529614412909375L143.55521218617585,-69.84555870771766L143.61642087259517,-68.58138423416884zM149.6132523166951,-26.526585267741023L143.61642087259517,-68.58138423416884L143.52101773028465,-67.8405848619259z" style="fill:rgb(247,158,158)"/><path d="M-227.97244941295105,36.87852695215927L-228.66687091224918,40.16217992196064L150.17875149184124,-59.204579524710994z" style="fill:rgb(83,212,212)"/><path d="M149.1267344468552,-27.871233646424887L143.52101773028465,-67.8405848619259L143.27137785424938,-67.65560877724599zM137.74050392873926,-59.34072706952349L142.32238838264925,-46.67721468396173L122.22078890823991,-187.1317449200582zM148.532249268615,-29.514275229690295L143.27137785424938,-67.65560877724599L142.87583707580683,-68.03816398536792z" style="fill:rgb(247,158,158)"/><path d="M150.27059736869177,-24.709775931627085L145.6504101281123,-23.53595588101005L169.5463746243563,41.6547742740952z" style="fill:rgb(127,37,217)"/><path d="M147.85177451476807,-31.394985065470962L142.87583707580683,-68.03816398536792L142.3485491565257,-68.97806936346964zM147.11070276174775,-33.443158323270595L142.3485491565257,-68.97806936346964L141.70908630303887,-70.44295130658767zM149.67758355300526,-62.48138547098237L150.17875149184124,-59.204579524710994L211.44760727094382,115.56825871547433z" style="fill:rgb(247,158,158)"/><path d="M118.091952971548,-199.3901290261021L132.9846539808414,-58.089466010398255L137.74050392873926,-59.34072706952349z" style="fill:rgb(83,212,212)"/><path d="M150.19577358942047,-24.916602381950593L150.27059736869177,-24.709775931627085L143.34081052516308,-71.5817808811776zM146.3370192717889,-35.58150181496678L141.70908630303887,-70.44295130658767L140.98183445474407,-72.3789417498656zM149.97396961199127,-25.529614412909375L150.19577358942047,-24.916602381950593L143.55521218617585,-69.84555870771766zM145.56024111919365,-37.728363773799195L140.98183445474407,-72.3789417498656L140.19503257518153,-74.71226462190688zM149.6132523166951,-26.526585267741023L149.97396961199127,-25.529614412909375L143.61642087259517,-68.58138423416884z" style="fill:rgb(247,158,158)"/><path d="M137.61604846123942,-45.45455600180323L135.63027241964096,-93.4365726690499L131.1521588080978,-92.22127176902609z" style="fill:rgb(83,212,212)"/><path d="M144.81038790210263,-39.800815544723825L140.19503257518153,-74.71226462190688L139.37972229724497,-77.35206411355513zM149.1267344468552,-27.871233646424887L149.6132523166951,-26.526585267741023L143.52101773028465,-67.8405848619259zM142.32238838264925,-46.67721468396173L135.9829436125122,-91.28664264347542L135.63027241964096,-93.4365726690499zM144.11677669715255,-41.71785260088731L139.37972229724497,-77.35206411355513L138.56838866198095,-80.19395719127921zM142.4003074161128,-46.461854094749185L136.47458443384838,-88.78383915083982L135.9829436125122,-91.28664264347542zM148.532249268615,-29.514275229690295L149.1267344468552,-27.871233646424887L143.27137785424938,-67.65560877724599zM143.50678669503148,-43.40375180395147L138.56838866198095,-80.19395719127921L137.79350916871894,-83.1245888283357zM142.63088555065434,-45.8245710282309L137.08616197893886,-86.02659188516368L136.47458443384838,-88.78383915083982zM143.00476001425892,-44.79125854914614L137.79350916871894,-83.1245888283357L137.08616197893886,-86.02659188516368zM147.85177451476807,-31.394985065470962L148.532249268615,-29.514275229690295L142.87583707580683,-68.03816398536792zM147.11070276174775,-33.443158323270595L147.85177451476807,-31.394985065470962L142.3485491565257,-68.97806936346964zM146.3370192717889,-35.58150181496678L147.11070276174775,-33.443158323270595L141.70908630303887,-70.44295130658767zM145.56024111919365,-37.728363773799195L146.3370192717889,-35.58150181496678L140.98183445474407,-72.3789417498656zM144.81038790210263,-39.800815544723825L145.56024111919365,-37.728363773799195L140.19503257518153,-74.71226462190688zM144.11677669715255,-41.71785260088731L144.81038790210263,-39.800815544723825L139.37972229724497,-77.35206411355513zM143.50678669503148,-43.40375180395147L144.11677669715255,-41.71785260088731L138.56838866198095,-80.19395719127921z" style="fill:rgb(247,158,158)"/><path d="M137.61604846123942,-45.45455600180323L142.32238838264925,-46.67721468396173L135.63027241964096,-93.4365726690499z" style="fill:rgb(83,212,212)"/><path d="M143.00476001425892,-44.79125854914614L143.50678669503148,-43.40375180395147L137.79350916871894,-83.1245888283357zM142.63088555065434,-45.8245710282309L143.00476001425892,-44.79125854914614L137.08616197893886,-86.02659188516368zM142.32238838264925,-46.67721468396173L142.4003074161128,-46.461854094749185L135.9829436125122,-91.28664264347542zM142.4003074161128,-46.461854094749185L142.63088555065434,-45.8245710282309L136.47458443384838,-88.78383915083982z" style="fill:rgb(247,158,158)"/><path d="M-227.97244941295105,36.87852695215927L150.17875149184124,-59.204579524710994L149.67758355300526,-62.48138547098237z" style="fill:rgb(83,212,212)"/><path d="M142.32238838264925,-46.67721468396173L145.6504101281123,-23.53595588101005L150.27059736869177,-24.709775931627085zM142.32238838264925,-46.67721468396173L137.61604846123942,-45.45455600180323L145.6504101281123,-23.53595588101005zM137.74050392873926,-59.34072706952349L137.61604846123942,-45.45455600180323L142.32238838264925,-46.67721468396173zM137.74050392873926,-59.34072706952349L132.9846539808414,-58.089466010398255L137.61604846123942,-45.45455600180323z" style="fill:rgb(127,37,217)"/></svg>
