<?xml version="1.0" encoding="UTF-8"?>
<!-- Generated by jsxcad -->
<!DOCTYPE svg PUBLIC "-//W3C//DTD SVG 1.1 Tiny//EN" "http://www.w3.org/Graphics/SVG/1.1/DTD/svg11-tiny.dtd">
<svg viewBox="-250 -250 500 500" width="500" height="500" xmlns="http://www.w3.org/2000/svg"><path d="M-75.26243640801533,39.76771563135997L-43.25162140493546,29.203435675482886L-75.08740434981974,37.25398590533134z" style="fill:rgb(83,212,212)"/><path d="M-42.076955405400895,33.94282256604016L-75.26243640801533,39.76771563135997L-73.92655636112984,41.95681247754948z" style="fill:rgb(127,37,217)"/><path d="M-75.26243640801533,39.76771563135997L-43.35325258834193,31.718443985563496L-43.25162140493546,29.203435675482886z" style="fill:rgb(83,212,212)"/><path d="M-42.076955405400895,33.94282256604016L-43.35325258834193,31.718443985563496L-75.26243640801533,39.76771563135997z" style="fill:rgb(127,37,217)"/><path d="M-43.25162140493546,29.203435675482886L-42.076955405400895,33.94282256604016L-41.97853260774906,31.42813792361568zM-43.25162140493546,29.203435675482886L-43.35325258834193,31.718443985563496L-42.076955405400895,33.94282256604016z" style="fill:rgb(247,158,158)"/><path d="M183.75671961334794,-35.909606869909L-123.57924569036227,3.5814932771834793L-102.36342139332889,36.96506882555743zM-93.4746093698533,-4.383799242433141L-125.0438826400951,1.2768559891495603L-123.57924569036227,3.5814932771834793zM-93.4746093698533,-4.383799242433141L-94.88315454840112,-6.723983939980588L-125.0438826400951,1.2768559891495603z" style="fill:rgb(127,37,217)"/><path d="M-94.6577251977049,-9.18155625937986L-93.4746093698533,-4.383799242433141L-93.2530219392161,-6.8414457771509145zM-94.6577251977049,-9.18155625937986L-94.88315454840112,-6.723983939980588L-93.4746093698533,-4.383799242433141z" style="fill:rgb(247,158,158)"/><path d="M-93.4746093698533,-4.383799242433141L-60.945369568801496,-15.409234708093654L-93.2530219392161,-6.8414457771509145zM-94.88315454840112,-6.723983939980588L-62.28886909220926,-17.787793852051365L-94.6577251977049,-9.18155625937986z" style="fill:rgb(83,212,212)"/><path d="M-61.09137457445301,-12.951980146981178L-94.88315454840112,-6.723983939980588L-93.4746093698533,-4.383799242433141z" style="fill:rgb(127,37,217)"/><path d="M-93.4746093698533,-4.383799242433141L-61.09137457445301,-12.951980146981178L-60.945369568801496,-15.409234708093654zM-94.88315454840112,-6.723983939980588L-62.438428762443564,-15.330707124676493L-62.28886909220926,-17.787793852051365z" style="fill:rgb(83,212,212)"/><path d="M-61.09137457445301,-12.951980146981178L-62.438428762443564,-15.330707124676493L-94.88315454840112,-6.723983939980588z" style="fill:rgb(127,37,217)"/><path d="M-62.28886909220926,-17.787793852051365L-61.09137457445301,-12.951980146981178L-60.945369568801496,-15.409234708093654zM-62.28886909220926,-17.787793852051365L-62.438428762443564,-15.330707124676493L-61.09137457445301,-12.951980146981178z" style="fill:rgb(247,158,158)"/><path d="M1.5473160534727255,-29.525357671141975L-62.438428762443564,-15.330707124676493L-61.09137457445301,-12.951980146981178zM1.5473160534727255,-29.525357671141975L0.3225662149783391,-31.979532249291093L-62.438428762443564,-15.330707124676493z" style="fill:rgb(127,37,217)"/><path d="M0.32178142552647104,-34.43472554173692L1.5473160534727255,-29.525357671141975L1.543560073208011,-31.980908744286918zM0.32178142552647104,-34.43472554173692L0.3225662149783391,-31.979532249291093L1.5473160534727255,-29.525357671141975z" style="fill:rgb(247,158,158)"/><path d="M1.5473160534727255,-29.525357671141975L35.42587195474388,-40.96628357972332L1.543560073208011,-31.980908744286918zM-118.66228090233813,189.6267524843727L18.34028536349737,16.15589757073052L-104.9352840421027,47.25285874988963zM1.5473160534727255,-29.525357671141975L35.512797835641024,-38.512179042719666L35.42587195474388,-40.96628357972332zM116.46198846262102,-8.595857687311272L151.1676937253891,-19.960835845399465L116.17809762400412,-11.112755080433496z" style="fill:rgb(83,212,212)"/><path d="M152.4283359468578,-14.998557282786L116.46198846262102,-8.595857687311272L117.42306978798176,-6.19054013915391zM183.75671961334794,-35.909606869909L171.16953615093846,-74.40517749964013L-123.57924569036227,3.5814932771834793z" style="fill:rgb(127,37,217)"/><path d="M116.46198846262102,-8.595857687311272L151.5401971381794,-17.44453417173212L151.1676937253891,-19.960835845399465z" style="fill:rgb(83,212,212)"/><path d="M152.4283359468578,-14.998557282786L151.5401971381794,-17.44453417173212L116.46198846262102,-8.595857687311272z" style="fill:rgb(127,37,217)"/><path d="M151.1676937253891,-19.960835845399465L152.4283359468578,-14.998557282786L152.05451403923342,-17.515061109789627zM151.1676937253891,-19.960835845399465L151.5401971381794,-17.44453417173212L152.4283359468578,-14.998557282786z" style="fill:rgb(247,158,158)"/><path d="M101.24999519782737,-55.90538153437782L34.356229826043716,-41.00775868071588L35.512797835641024,-38.512179042719666zM101.24999519782737,-55.90538153437782L100.22910082804526,-58.48208214191776L34.356229826043716,-41.00775868071588z" style="fill:rgb(127,37,217)"/><path d="M99.97924266293703,-60.931667620966046L101.24999519782737,-55.90538153437782L100.99818093523898,-58.355651179406884zM20.824650363054033,159.37345928588908L19.49822590844367,18.449287610510353L18.34028536349737,16.15589757073052z" style="fill:rgb(247,158,158)"/><path d="M-141.7999696244547,140.95931043949093L0.3225662149783391,-31.979532249291093L-125.0438826400951,1.2768559891495603z" style="fill:rgb(83,212,212)"/><path d="M99.97924266293703,-60.931667620966046L100.22910082804526,-58.48208214191776L101.24999519782737,-55.90538153437782z" style="fill:rgb(247,158,158)"/><path d="M101.24999519782737,-55.90538153437782L136.57314604743303,-67.78991131878455L100.99818093523898,-58.355651179406884zM20.88122153883844,162.6346522200938L51.653480955908215,5.204069525779457L18.29662999265347,13.639266640045967zM100.22910082804526,-58.48208214191776L135.62948154572672,-70.4103607317642L99.97924266293703,-60.931667620966046z" style="fill:rgb(83,212,212)"/><path d="M136.91658523997097,-65.34229569674733L100.22910082804526,-58.48208214191776L101.24999519782737,-55.90538153437782z" style="fill:rgb(127,37,217)"/><path d="M101.24999519782737,-55.90538153437782L136.91658523997097,-65.34229569674733L136.57314604743303,-67.78991131878455z" style="fill:rgb(83,212,212)"/><path d="M170.29833133579106,-77.06958821610704L-196.62404984667336,-111.35616902743915L-125.0438826400951,1.2768559891495603z" style="fill:rgb(127,37,217)"/><path d="M100.22910082804526,-58.48208214191776L135.97135602816914,-67.96355430782548L135.62948154572672,-70.4103607317642z" style="fill:rgb(83,212,212)"/><path d="M136.91658523997097,-65.34229569674733L135.97135602816914,-67.96355430782548L100.22910082804526,-58.48208214191776z" style="fill:rgb(127,37,217)"/><path d="M52.74318526960204,7.535383065582952L51.653480955908215,5.204069525779457L59.018494622700665,154.3937635768743zM135.62948154572672,-70.4103607317642L136.91658523997097,-65.34229569674733L136.57314604743303,-67.78991131878455zM135.62948154572672,-70.4103607317642L135.97135602816914,-67.96355430782548L136.91658523997097,-65.34229569674733z" style="fill:rgb(247,158,158)"/><path d="M171.16953615093846,-74.40517749964013L135.97135602816914,-67.96355430782548L136.91658523997097,-65.34229569674733zM171.16953615093846,-74.40517749964013L170.29833133579106,-77.06958821610704L135.97135602816914,-67.96355430782548z" style="fill:rgb(127,37,217)"/><path d="M58.85710726329714,151.1246109719438L185.21676742192582,-25.939642835122434L51.77773932281248,7.721111205667539z" style="fill:rgb(83,212,212)"/><path d="M0.36736439297434587,108.17000174734062L1.5473160534727255,-29.525357671141975L0.3225662149783391,-31.979532249291093z" style="fill:rgb(247,158,158)"/><path d="M0.3683876307817437,111.37116817346141L34.27194108051069,-43.46139723602401L0.32178142552647104,-34.43472554173692zM-118.66228090233813,189.6267524843727L20.824650363054033,159.37345928588908L18.34028536349737,16.15589757073052z" style="fill:rgb(83,212,212)"/><path d="M35.42587195474388,-40.96628357972332L34.27194108051069,-43.46139723602401L39.28355681980912,102.42660741399926zM127.00273812150215,-210.73607752331662L183.75671961334794,-35.909606869909L183.30801486490103,-38.364167639940206zM20.824650363054033,159.37345928588908L22.132739188643466,161.61312135460162L19.49822590844367,18.449287610510353zM186.03360870117612,-23.454311575817034L185.21676742192582,-25.939642835122434L211.48220592023807,118.02178087616093z" style="fill:rgb(247,158,158)"/><path d="M39.173396034262524,99.21982721917068L170.29833133579106,-77.06958821610704L34.356229826043716,-41.00775868071588zM20.88122153883844,162.6346522200938L59.018494622700665,154.3937635768743L51.653480955908215,5.204069525779457z" style="fill:rgb(83,212,212)"/><path d="M52.74318526960204,7.535383065582952L59.018494622700665,154.3937635768743L60.24425092884781,156.67328223096618z" style="fill:rgb(247,158,158)"/><path d="M-141.7999696244547,140.95931043949093L0.36736439297434587,108.17000174734062L0.3225662149783391,-31.979532249291093z" style="fill:rgb(83,212,212)"/><path d="M22.132739188643466,161.61312135460162L-118.66228090233813,189.6267524843727L-117.05692217268752,191.7156141933576z" style="fill:rgb(127,37,217)"/><path d="M-85.41708589482445,185.6041273711434L-49.12486359037375,174.54480550053086L-85.1917066529471,182.36733208856384z" style="fill:rgb(83,212,212)"/><path d="M-47.79160744437035,179.951271114207L-85.41708589482445,185.6041273711434L-83.87623495179218,187.72625813672045z" style="fill:rgb(127,37,217)"/><path d="M-85.41708589482445,185.6041273711434L-49.256012499632604,177.79024598067573L-49.12486359037375,174.54480550053086z" style="fill:rgb(83,212,212)"/><path d="M-47.79160744437035,179.951271114207L-49.256012499632604,177.79024598067573L-85.41708589482445,185.6041273711434z" style="fill:rgb(127,37,217)"/><path d="M0.36736439297434587,108.17000174734062L1.761648854221116,110.59935233957432L1.5473160534727255,-29.525357671141975zM-49.12486359037375,174.54480550053086L-47.79160744437035,179.951271114207L-47.66467517932375,176.70816944320782zM171.16953615093846,-74.40517749964013L170.29833133579106,-77.06958821610704L195.087464867607,63.259987281376596zM-49.12486359037375,174.54480550053086L-49.256012499632604,177.79024598067573L-47.79160744437035,179.951271114207z" style="fill:rgb(247,158,158)"/><path d="M170.29833133579106,-77.06958821610704L127.3633818856652,-208.37808166578705L-196.62404984667336,-111.35616902743915zM22.132739188643466,161.61312135460162L20.824650363054033,159.37345928588908L-118.66228090233813,189.6267524843727z" style="fill:rgb(127,37,217)"/><path d="M0.3683876307817437,111.37116817346141L39.28355681980912,102.42660741399926L34.27194108051069,-43.46139723602401zM58.85710726329714,151.1246109719438L211.48220592023807,118.02178087616093L185.21676742192582,-25.939642835122434zM-196.62404984667336,-111.35616902743915L127.00273812150215,-210.73607752331662L-196.11039190478485,-113.7850576534466z" style="fill:rgb(83,212,212)"/><path d="M35.42587195474388,-40.96628357972332L39.28355681980912,102.42660741399926L40.592577692451336,104.90119469087121z" style="fill:rgb(247,158,158)"/><path d="M-106.36453243052979,138.57916382016455L-142.18101951583844,144.13582939541405L-140.47300380330998,146.3957509775755zM209.10990967339004,105.01917194706448L-140.47300380330998,146.3957509775755L-117.43332752241939,176.88028274016335zM-106.36453243052979,138.57916382016455L-108.00063449674613,136.27954049068993L-142.18101951583844,144.13582939541405z" style="fill:rgb(127,37,217)"/><path d="M-108.00063449674613,136.27954049068993L-106.07771165879747,135.39801305980689L-107.70866214230972,133.09653696534653zM-108.00063449674613,136.27954049068993L-106.36453243052979,138.57916382016455L-106.07771165879747,135.39801305980689zM127.00273812150215,-210.73607752331662L127.3633818856652,-208.37808166578705L183.75671961334794,-35.909606869909z" style="fill:rgb(247,158,158)"/><path d="M-106.36453243052979,138.57916382016455L-69.40493179439692,126.96476893934857L-106.07771165879747,135.39801305980689z" style="fill:rgb(83,212,212)"/><path d="M1.761648854221116,110.59935233957432L-141.7999696244547,140.95931043949093L-140.0974769916769,143.22117865972328z" style="fill:rgb(127,37,217)"/><path d="M-108.00063449674613,136.27954049068993L-70.95708123634007,124.62018892022051L-107.70866214230972,133.09653696534653z" style="fill:rgb(83,212,212)"/><path d="M186.03360870117612,-23.454311575817034L211.48220592023807,118.02178087616093L212.34477291037896,120.4760424086404z" style="fill:rgb(247,158,158)"/><path d="M-69.59434529509942,130.15258148382924L-108.00063449674613,136.27954049068993L-106.36453243052979,138.57916382016455z" style="fill:rgb(127,37,217)"/><path d="M-106.36453243052979,138.57916382016455L-69.59434529509942,130.15258148382924L-69.40493179439692,126.96476893934857z" style="fill:rgb(83,212,212)"/><path d="M60.24425092884781,156.67328223096618L20.88122153883844,162.6346522200938L22.19271079457561,164.87207076771764z" style="fill:rgb(127,37,217)"/><path d="M-108.00063449674613,136.27954049068993L-71.15122851478499,127.8097912443536L-70.95708123634007,124.62018892022051z" style="fill:rgb(83,212,212)"/><path d="M-69.59434529509942,130.15258148382924L-71.15122851478499,127.8097912443536L-108.00063449674613,136.27954049068993z" style="fill:rgb(127,37,217)"/><path d="M-70.95708123634007,124.62018892022051L-69.59434529509942,130.15258148382924L-69.40493179439692,126.96476893934857z" style="fill:rgb(247,158,158)"/><path d="M60.24425092884781,156.67328223096618L59.018494622700665,154.3937635768743L20.88122153883844,162.6346522200938z" style="fill:rgb(127,37,217)"/><path d="M-70.95708123634007,124.62018892022051L-71.15122851478499,127.8097912443536L-69.59434529509942,130.15258148382924z" style="fill:rgb(247,158,158)"/><path d="M1.761648854221116,110.59935233957432L0.36736439297434587,108.17000174734062L-141.7999696244547,140.95931043949093zM1.7665428531076584,113.79890218878325L-71.15122851478499,127.8097912443536L-69.59434529509942,130.15258148382924z" style="fill:rgb(127,37,217)"/><path d="M39.173396034262524,99.21982721917068L195.087464867607,63.259987281376596L170.29833133579106,-77.06958821610704zM-196.62404984667336,-111.35616902743915L127.3633818856652,-208.37808166578705L127.00273812150215,-210.73607752331662z" style="fill:rgb(83,212,212)"/><path d="M212.34477291037896,120.4760424086404L58.85710726329714,151.1246109719438L60.079933858490605,153.40628945155387zM1.7665428531076584,113.79890218878325L0.3683876307817437,111.37116817346141L-71.15122851478499,127.8097912443536z" style="fill:rgb(127,37,217)"/><path d="M0.36736439297434587,108.17000174734062L1.7665428531076584,113.79890218878325L1.761648854221116,110.59935233957432zM0.36736439297434587,108.17000174734062L0.3683876307817437,111.37116817346141L1.7665428531076584,113.79890218878325z" style="fill:rgb(247,158,158)"/><path d="M1.7665428531076584,113.79890218878325L40.47904520240155,101.69591976836521L1.761648854221116,110.59935233957432z" style="fill:rgb(83,212,212)"/><path d="M171.16953615093846,-74.40517749964013L195.087464867607,63.259987281376596L196.01752208018823,65.9284052633766z" style="fill:rgb(247,158,158)"/><path d="M40.592577692451336,104.90119469087121L0.3683876307817437,111.37116817346141L1.7665428531076584,113.79890218878325z" style="fill:rgb(127,37,217)"/><path d="M1.7665428531076584,113.79890218878325L40.592577692451336,104.90119469087121L40.47904520240155,101.69591976836521zM133.0420325889532,138.39838751432777L172.83493705953626,126.40398596206911L132.67168489776142,135.1149813083229z" style="fill:rgb(83,212,212)"/><path d="M174.27998541942318,132.1025285907853L133.0420325889532,138.39838751432777L134.09621149134384,140.76073860136904zM209.10990967339004,105.01917194706448L196.5882801034797,69.1518719050765L-140.47300380330998,146.3957509775755zM212.34477291037896,120.4760424086404L211.48220592023807,118.02178087616093L58.85710726329714,151.1246109719438zM40.592577692451336,104.90119469087121L39.28355681980912,102.42660741399926L0.3683876307817437,111.37116817346141z" style="fill:rgb(127,37,217)"/><path d="M133.0420325889532,138.39838751432777L173.32204811672904,129.69447417317585L172.83493705953626,126.40398596206911z" style="fill:rgb(83,212,212)"/><path d="M174.27998541942318,132.1025285907853L173.32204811672904,129.69447417317585L133.0420325889532,138.39838751432777z" style="fill:rgb(127,37,217)"/><path d="M172.83493705953626,126.40398596206911L174.27998541942318,132.1025285907853L173.79147201949542,128.81394541449066zM172.83493705953626,126.40398596206911L173.32204811672904,129.69447417317585L174.27998541942318,132.1025285907853z" style="fill:rgb(247,158,158)"/><path d="M116.0000895638882,87.62015508687107L39.28355681980912,102.42660741399926L40.592577692451336,104.90119469087121zM196.01752208018823,65.9284052633766L39.173396034262524,99.21982721917068L40.47904520240155,101.69591976836521zM116.0000895638882,87.62015508687107L114.86976252404325,85.05328164457902L39.28355681980912,102.42660741399926z" style="fill:rgb(127,37,217)"/><path d="M114.86976252404325,85.05328164457902L115.66968286038195,84.40513840649604L114.54169745699916,81.83696934554888zM114.86976252404325,85.05328164457902L116.0000895638882,87.62015508687107L115.66968286038195,84.40513840649604z" style="fill:rgb(247,158,158)"/><path d="M116.0000895638882,87.62015508687107L156.60757893005615,74.99108737794397L115.66968286038195,84.40513840649604zM114.86976252404325,85.05328164457902L155.5793969268618,72.37208112765616L114.54169745699916,81.83696934554888z" style="fill:rgb(83,212,212)"/><path d="M157.05933605880327,78.21066651890011L114.86976252404325,85.05328164457902L116.0000895638882,87.62015508687107z" style="fill:rgb(127,37,217)"/><path d="M116.0000895638882,87.62015508687107L157.05933605880327,78.21066651890011L156.60757893005615,74.99108737794397z" style="fill:rgb(83,212,212)"/><path d="M196.01752208018823,65.9284052633766L195.087464867607,63.259987281376596L39.173396034262524,99.21982721917068zM195.6570730115505,66.48450517119748L-226.93869191080813,31.99027425065658L-142.18101951583844,144.13582939541405z" style="fill:rgb(127,37,217)"/><path d="M114.86976252404325,85.05328164457902L156.0294077081013,75.59283405489813L155.5793969268618,72.37208112765616z" style="fill:rgb(83,212,212)"/><path d="M157.05933605880327,78.21066651890011L156.0294077081013,75.59283405489813L114.86976252404325,85.05328164457902z" style="fill:rgb(127,37,217)"/><path d="M155.5793969268618,72.37208112765616L157.05933605880327,78.21066651890011L156.60757893005615,74.99108737794397zM155.5793969268618,72.37208112765616L156.0294077081013,75.59283405489813L157.05933605880327,78.21066651890011z" style="fill:rgb(247,158,158)"/><path d="M196.5882801034797,69.1518719050765L156.0294077081013,75.59283405489813L157.05933605880327,78.21066651890011zM196.5882801034797,69.1518719050765L195.6570730115505,66.48450517119748L156.0294077081013,75.59283405489813z" style="fill:rgb(127,37,217)"/><path d="M208.52512821631606,101.81398017473923L148.9320650515113,-67.35578231209915L209.10990967339004,105.01917194706448z" style="fill:rgb(247,158,158)"/><path d="M195.6570730115505,66.48450517119748L148.9320650515113,-67.35578231209915L-226.93869191080813,31.99027425065658z" style="fill:rgb(127,37,217)"/><path d="M-226.93869191080813,31.99027425065658L148.43916966284,-70.57849350892002L-226.25471140741055,28.75599277635328z" style="fill:rgb(83,212,212)"/><path d="M208.52512821631606,101.81398017473923L148.43916966284,-70.57849350892002L148.9320650515113,-67.35578231209915z" style="fill:rgb(247,158,158)"/><path d="M-226.93869191080813,31.99027425065658L148.9320650515113,-67.35578231209915L148.43916966284,-70.57849350892002z" style="fill:rgb(83,212,212)"/></svg>
