<?xml version="1.0" encoding="UTF-8"?>
<!-- Generated by jsxcad -->
<!DOCTYPE svg PUBLIC "-//W3C//DTD SVG 1.1 Tiny//EN" "http://www.w3.org/Graphics/SVG/1.1/DTD/svg11-tiny.dtd">
<svg viewBox="-250 -250 500 500" width="500" height="500" xmlns="http://www.w3.org/2000/svg"><path d="M18.50378294196473,147.53028020893925L16.301205071841235,6.040967532004327L-106.64679451601543,37.37696284891933zM-1.8262132164479865,19.061069711572706L-1.7418653554580326,-29.905679677203835L-128.26006719821572,3.60849944407562z" style="fill:rgb(83,212,212)"/><path d="M16.301205071841235,6.040967532004327L19.814455419078335,149.79429489051319L17.46112658125351,8.351841670375347z" style="fill:rgb(247,158,158)"/><path d="M-1.8262132164479865,19.061069711572706L-128.26006719821572,3.60849944407562L-134.26754371437053,52.54159591515354zM49.64694879815082,-2.457926034765152L16.301205071841235,6.040967532004327L18.50378294196473,147.53028020893925z" style="fill:rgb(83,212,212)"/><path d="M-124.34180095912764,52.75061833107617L-129.2483271362967,51.27276037682368L-127.68856945458585,53.594348445831606zM-124.34180095912764,52.75061833107617L-125.89502130577412,50.425058018640215L-129.2483271362967,51.27276037682368z" style="fill:rgb(127,37,217)"/><path d="M57.643645584198545,141.4983789702114L50.741344009320585,-0.10900598945963401L49.64694879815082,-2.457926034765152zM-143.02934299858367,134.44953020587792L-120.25063866676494,1.4868321595187253L-125.78492348825951,-7.28332532247911z" style="fill:rgb(247,158,158)"/><path d="M-129.01508827229037,-6.419234012486558L-143.02934299858367,134.44953020587792L-125.78492348825951,-7.28332532247911z" style="fill:rgb(83,212,212)"/><path d="M-133.41977030728924,86.52923640765451L-127.68856945458585,53.594348445831606L-129.2483271362967,51.27276037682368z" style="fill:rgb(247,158,158)"/><path d="M-133.41977030728924,86.52923640765451L-129.2483271362967,51.27276037682368L-134.26754371437053,52.54159591515354z" style="fill:rgb(83,212,212)"/><path d="M-124.34180095912764,52.75061833107617L-125.89502130577412,50.425058018640215L-129.96182895807388,85.68531153460488z" style="fill:rgb(247,158,158)"/><path d="M-125.89502130577412,50.425058018640215L-129.2483271362967,51.27276037682368L-133.41977030728924,86.52923640765451z" style="fill:rgb(83,212,212)"/><path d="M-143.02934299858367,134.44953020587792L-125.78492348825951,-7.28332532247911L-135.9339437905743,-23.366427153618265z" style="fill:rgb(247,158,158)"/><path d="M-102.95082302856757,43.15153098400919L184.88815529579412,-29.720304497808424L128.27401643431637,-202.424095039711z" style="fill:rgb(127,37,217)"/><path d="M18.50378294196473,147.53028020893925L-106.64679451601543,37.37696284891933L-120.56366764426745,178.11498991070758z" style="fill:rgb(83,212,212)"/><path d="M-133.41977030728924,86.52923640765451L-131.7996999268773,88.84025935308885L-127.68856945458585,53.594348445831606z" style="fill:rgb(247,158,158)"/><path d="M-133.41977030728924,86.52923640765451L-134.26754371437053,52.54159591515354L-138.59524882637567,87.79233827611968z" style="fill:rgb(83,212,212)"/><path d="M-124.34180095912764,52.75061833107617L-129.96182895807388,85.68531153460488L-128.34870566459693,88.00040613046114z" style="fill:rgb(247,158,158)"/><path d="M-125.89502130577412,50.425058018640215L-133.41977030728924,86.52923640765451L-129.96182895807388,85.68531153460488zM-154.89537116659463,118.59956983171193L-135.9339437905743,-23.366427153618265L-139.2051197435559,-22.475642505248267zM208.54903606400765,105.73418334949734L182.7078511493575,-36.371415712827975L49.64694879815082,-2.457926034765152z" style="fill:rgb(83,212,212)"/><path d="M-1.7418653554580326,-29.905679677203835L-0.5701746898494411,114.58258394554083L-0.5001106241988956,-27.431770302751765z" style="fill:rgb(247,158,158)"/><path d="M-129.96182895807388,85.68531153460488L-131.7996999268773,88.84025935308885L-128.34870566459693,88.00040613046114zM-129.96182895807388,85.68531153460488L-133.41977030728924,86.52923640765451L-131.7996999268773,88.84025935308885z" style="fill:rgb(127,37,217)"/><path d="M178.51603188457963,-26.52857047719358L169.92092577515592,-75.37848161740911L32.618020569733964,-39.00747634740502zM-1.8871347923096777,54.42807929328887L-1.8262132164479865,19.061069711572706L-125.89502130577412,50.425058018640215zM-1.8871347923096777,54.42807929328887L-125.89502130577412,50.425058018640215L-129.96182895807388,85.68531153460488zM32.618020569733964,-39.00747634740502L-1.7418653554580326,-29.905679677203835L-1.986539782935606,112.13599781505766z" style="fill:rgb(83,212,212)"/><path d="M127.90820418351522,-204.81585993474147L184.88815529579412,-29.720304497808424L184.4339131633724,-32.20514961251775zM16.301205071841235,6.040967532004327L18.50378294196473,147.53028020893925L19.814455419078335,149.79429489051319zM183.52863204278097,-33.86759285169384L182.7078511493575,-36.371415712827975L208.54903606400765,105.73418334949734z" style="fill:rgb(247,158,158)"/><path d="M178.51603188457963,-26.52857047719358L32.618020569733964,-39.00747634740502L34.211584532364434,9.950890701980821z" style="fill:rgb(83,212,212)"/><path d="M38.5700097323035,105.61527368255375L33.79029113262629,-36.4914090393496L32.618020569733964,-39.00747634740502z" style="fill:rgb(247,158,158)"/><path d="M-102.95082302856757,43.15153098400919L128.27401643431637,-202.424095039711L-197.9200453741696,-105.22789049581323z" style="fill:rgb(127,37,217)"/><path d="M-177.7116417111235,-44.34718841054019L-171.10009989038204,-79.09404369419218L-171.42493220042556,-79.60881311573398zM-177.98974363274604,-46.72003228283535L-171.42493220042556,-79.60881311573398L-171.9530858102213,-80.44575436848251zM-177.66863706323454,-42.161972094941106L-170.9904819604862,-78.92033616403499L-171.10009989038204,-79.09404369419218z" style="fill:rgb(247,158,158)"/><path d="M49.64694879815082,-2.457926034765152L18.50378294196473,147.53028020893925L56.4176864842013,139.19198927647025z" style="fill:rgb(83,212,212)"/><path d="M-178.49205897541762,-49.1920991837536L-171.9530858102213,-80.44575436848251L-172.66508063902785,-81.57406646440054zM-179.1998215829112,-51.67173814965317L-172.66508063902785,-81.57406646440054L-173.5346107343414,-82.95198677737346zM-180.086847466735,-54.06705529377906L-173.5346107343414,-82.95198677737346L-174.52922747785263,-84.52817514622917zM57.643645584198545,141.4983789702114L49.64694879815082,-2.457926034765152L56.4176864842013,139.19198927647025zM-143.02934299858367,134.44953020587792L-136.57976634637095,143.0645098982266L-120.25063866676494,1.4868321595187253zM-181.12059825951027,-56.288970172629384L-174.52922747785263,-84.52817514622917L-175.61164165254087,-86.24344466548479zM-182.26299176043204,-58.254170800424816L-175.61164165254087,-86.24344466548479L-176.74080851768235,-88.03283191728154zM-183.47175069126297,-59.88802402750208L-176.74080851768235,-88.03283191728154L-177.87354476272657,-89.82789668523988z" style="fill:rgb(247,158,158)"/><path d="M-129.01508827229037,-6.419234012486558L-146.68577740255859,135.29920745962252L-143.02934299858367,134.44953020587792z" style="fill:rgb(83,212,212)"/><path d="M-184.70181223888747,-61.12728626091017L-177.87354476272657,-89.82789668523988L-178.96617927599524,-91.55936219551197zM-185.9067055618476,-61.92260857451996L-178.96617927599524,-91.55936219551197L-179.97611141238778,-93.1597997775007z" style="fill:rgb(247,158,158)"/><path d="M18.50378294196473,147.53028020893925L-120.56366764426745,178.11498991070758L-118.95756248524772,180.22690975088284z" style="fill:rgb(127,37,217)"/><path d="M-178.49205897541762,-49.1920991837536L-177.98974363274604,-46.72003228283535L-171.9530858102213,-80.44575436848251zM-177.98974363274604,-46.72003228283535L-177.7116417111235,-44.34718841054019L-171.42493220042556,-79.60881311573398zM-179.1998215829112,-51.67173814965317L-178.49205897541762,-49.1920991837536L-172.66508063902785,-81.57406646440054zM-187.04034293002266,-62.24065269845936L-179.97611141238778,-93.1597997775007L-180.86366536760724,-94.56630340162523zM-177.7116417111235,-44.34718841054019L-177.66863706323454,-42.161972094941106L-171.10009989038204,-79.09404369419218zM-180.086847466735,-54.06705529377906L-179.1998215829112,-51.67173814965317L-173.5346107343414,-82.95198677737346zM-177.66863706323454,-42.161972094941106L-177.8631439139821,-40.246544182008776L-170.9904819604862,-78.92033616403499zM-188.0587069172196,-62.06581091416804L-180.86366536760724,-94.56630340162523L-181.59370421588034,-95.72320953175063zM-181.12059825951027,-56.288970172629384L-180.086847466735,-54.06705529377906L-174.52922747785263,-84.52817514622917zM-182.26299176043204,-58.254170800424816L-181.12059825951027,-56.288970172629384L-175.61164165254087,-86.24344466548479zM-188.9216218307023,-61.40130397232404L-181.59370421588034,-95.72320953175063L-182.13715508956255,-96.58439197377389zM-189.59436994304428,-60.26958304600338L-182.13715508956255,-96.58439197377389L-182.4722083320567,-97.11535904422772z" style="fill:rgb(247,158,158)"/><path d="M208.54903606400765,105.73418334949734L49.64694879815082,-2.457926034765152L56.4176864842013,139.19198927647025zM-193.63992109339065,-57.68757478753031L-182.58541558565912,-97.29474959729694L-186.04174200059347,-96.27605179474207z" style="fill:rgb(83,212,212)"/><path d="M-183.47175069126297,-59.88802402750208L-182.26299176043204,-58.254170800424816L-176.74080851768235,-88.03283191728154zM-190.04938323382626,-58.71195498527825L-182.4722083320567,-97.11535904422772L-182.58541558565912,-97.29474959729694zM-184.70181223888747,-61.12728626091017L-183.47175069126297,-59.88802402750208L-177.87354476272657,-89.82789668523988zM-143.02934299858367,134.44953020587792L-135.9339437905743,-23.366427153618265L-154.89537116659463,118.59956983171193zM-196.27019349947912,63.33346768082451L-135.9339437905743,-23.366427153618265L-170.9904819604862,-78.92033616403499zM-185.9067055618476,-61.92260857451996L-184.70181223888747,-61.12728626091017L-178.96617927599524,-91.55936219551197z" style="fill:rgb(247,158,158)"/><path d="M18.50378294196473,147.53028020893925L-118.95756248524772,180.22690975088284L19.814455419078335,149.79429489051319z" style="fill:rgb(127,37,217)"/><path d="M-178.49205897541762,-49.1920991837536L-182.01937646240387,-48.1974441125467L-181.5186074071188,-45.72732030613034z" style="fill:rgb(93,135,250)"/><path d="M-179.1998215829112,-51.67173814965317L-182.72705823820772,-50.67465724879551L-182.01937646240387,-48.1974441125467z" style="fill:rgb(99,111,250)"/><path d="M-187.04034293002266,-62.24065269845936L-185.9067055618476,-61.92260857451996L-179.97611141238778,-93.1597997775007z" style="fill:rgb(247,158,158)"/><path d="M-179.1998215829112,-51.67173814965317L-182.01937646240387,-48.1974441125467L-178.49205897541762,-49.1920991837536z" style="fill:rgb(99,111,250)"/><path d="M-178.49205897541762,-49.1920991837536L-181.5186074071188,-45.72732030613034L-177.98974363274604,-46.72003228283535z" style="fill:rgb(93,135,250)"/><path d="M-177.98974363274604,-46.72003228283535L-181.5186074071188,-45.72732030613034L-181.24346214809722,-43.355887283729786z" style="fill:rgb(89,159,244)"/><path d="M-180.086847466735,-54.06705529377906L-183.61549149590212,-53.06717218587948L-182.72705823820772,-50.67465724879551zM-180.086847466735,-54.06705529377906L-182.72705823820772,-50.67465724879551L-179.1998215829112,-51.67173814965317z" style="fill:rgb(106,87,246)"/><path d="M-177.98974363274604,-46.72003228283535L-181.24346214809722,-43.355887283729786L-177.7116417111235,-44.34718841054019z" style="fill:rgb(89,159,244)"/><path d="M-181.12059825951027,-56.288970172629384L-183.61549149590212,-53.06717218587948L-180.086847466735,-54.06705529377906z" style="fill:rgb(114,65,238)"/><path d="M-177.7116417111235,-44.34718841054019L-181.24346214809722,-43.355887283729786L-181.2047174772754,-41.17148109487336z" style="fill:rgb(85,182,234)"/><path d="M-181.12059825951027,-56.288970172629384L-184.65202833040956,-55.28598948724655L-183.61549149590212,-53.06717218587948z" style="fill:rgb(114,65,238)"/><path d="M-177.7116417111235,-44.34718841054019L-181.2047174772754,-41.17148109487336L-177.66863706323454,-42.161972094941106z" style="fill:rgb(85,182,234)"/><path d="M-188.0587069172196,-62.06581091416804L-187.04034293002266,-62.24065269845936L-180.86366536760724,-94.56630340162523z" style="fill:rgb(247,158,158)"/><path d="M-154.89537116659463,118.59956983171193L-139.2051197435559,-22.475642505248267L-158.60433672969032,119.47918580771993z" style="fill:rgb(83,212,212)"/><path d="M-182.26299176043204,-58.254170800424816L-184.65202833040956,-55.28598948724655L-181.12059825951027,-56.288970172629384z" style="fill:rgb(123,46,225)"/><path d="M-177.66863706323454,-42.161972094941106L-181.2047174772754,-41.17148109487336L-181.40463265815646,-39.25624183481647z" style="fill:rgb(84,202,220)"/><path d="M-182.26299176043204,-58.254170800424816L-185.7985440876518,-57.2479293015659L-184.65202833040956,-55.28598948724655z" style="fill:rgb(123,46,225)"/><path d="M-177.66863706323454,-42.161972094941106L-181.40463265815646,-39.25624183481647L-177.8631439139821,-40.246544182008776z" style="fill:rgb(84,202,220)"/><path d="M-188.9216218307023,-61.40130397232404L-188.0587069172196,-62.06581091416804L-181.59370421588034,-95.72320953175063z" style="fill:rgb(247,158,158)"/><path d="M-183.47175069126297,-59.88802402750208L-185.7985440876518,-57.2479293015659L-182.26299176043204,-58.254170800424816zM-183.47175069126297,-59.88802402750208L-187.01259215751355,-58.878464286354564L-185.7985440876518,-57.2479293015659z" style="fill:rgb(131,29,208)"/><path d="M-189.59436994304428,-60.26958304600338L-188.9216218307023,-61.40130397232404L-182.13715508956255,-96.58439197377389z" style="fill:rgb(247,158,158)"/><path d="M-184.70181223888747,-61.12728626091017L-187.01259215751355,-58.878464286354564L-183.47175069126297,-59.88802402750208zM-184.70181223888747,-61.12728626091017L-188.2489155337149,-60.114480742672065L-187.01259215751355,-58.878464286354564z" style="fill:rgb(140,16,189)"/><path d="M169.72084807403434,-21.38318669705082L164.91838361613878,-23.091152793216132L165.8536660813177,-20.40826265931645z" style="fill:rgb(127,37,217)"/><path d="M-1.986539782935606,112.13599781505766L-1.8871347923096777,54.42807929328887L-138.59524882637567,87.79233827611968z" style="fill:rgb(83,212,212)"/><path d="M-190.04938323382626,-58.71195498527825L-189.59436994304428,-60.26958304600338L-182.4722083320567,-97.11535904422772z" style="fill:rgb(247,158,158)"/><path d="M169.72084807403434,-21.38318669705082L168.79448383316404,-24.07101016667943L164.91838361613878,-23.091152793216132z" style="fill:rgb(127,37,217)"/><path d="M-193.63992109339065,-57.68757478753031L-190.04938323382626,-58.71195498527825L-182.58541558565912,-97.29474959729694z" style="fill:rgb(83,212,212)"/><path d="M169.92092577515592,-75.37848161740911L195.89294441400182,69.57144139657744L170.80211285870143,-72.6903899747879z" style="fill:rgb(247,158,158)"/><path d="M-185.9067055618476,-61.92260857451996L-188.2489155337149,-60.114480742672065L-184.70181223888747,-61.12728626091017zM-185.9067055618476,-61.92260857451996L-189.46081175019665,-60.90674964016888L-188.2489155337149,-60.114480742672065z" style="fill:rgb(148,8,167)"/><path d="M-1.7418653554580326,-29.905679677203835L-1.986539782935606,112.13599781505766L-0.5701746898494411,114.58258394554083z" style="fill:rgb(247,158,158)"/><path d="M170.65467691443146,12.31844185882309L164.91838361613878,-23.091152793216132L34.211584532364434,9.950890701980821zM170.65467691443146,12.31844185882309L34.211584532364434,9.950890701980821L35.36337738573156,45.336920142985974z" style="fill:rgb(83,212,212)"/><path d="M-187.04034293002266,-62.24065269845936L-189.46081175019665,-60.90674964016888L-185.9067055618476,-61.92260857451996zM-187.04034293002266,-62.24065269845936L-190.6019306725491,-61.22206275035378L-189.46081175019665,-60.90674964016888z" style="fill:rgb(155,4,143)"/><path d="M-1.986539782935606,112.13599781505766L-138.59524882637567,87.79233827611968L-145.63647144921796,145.14567281988002zM-174.40129642560916,-77.9342315114222L-196.27019349947912,63.33346768082451L-170.9904819604862,-78.92033616403499z" style="fill:rgb(83,212,212)"/><path d="M-188.0587069172196,-62.06581091416804L-190.6019306725491,-61.22206275035378L-187.04034293002266,-62.24065269845936zM-188.0587069172196,-62.06581091416804L-191.6279718581582,-61.04492272489046L-190.6019306725491,-61.22206275035378z" style="fill:rgb(161,4,119)"/><path d="M180.64324989119396,59.23476297396686L160.68524788529064,-72.93198873926876L157.29141036661105,-83.00819800660273zM183.52863204278097,-33.86759285169384L208.54903606400765,105.73418334949734L209.41710424351533,108.21454537864753z" style="fill:rgb(247,158,158)"/><path d="M56.4176864842013,139.19198927647025L18.50378294196473,147.53028020893925L19.814455419078335,149.79429489051319z" style="fill:rgb(127,37,217)"/><path d="M-197.3996023297939,-107.68887066903497L-197.9200453741696,-105.22789049581323L128.27401643431637,-202.424095039711zM32.618020569733964,-39.00747634740502L-1.986539782935606,112.13599781505766L37.244214709633916,103.12106883810894zM153.57819002632536,-82.0148876293981L180.64324989119396,59.23476297396686L157.29141036661105,-83.00819800660273z" style="fill:rgb(83,212,212)"/><path d="M56.4176864842013,139.19198927647025L19.814455419078335,149.79429489051319L57.643645584198545,141.4983789702114z" style="fill:rgb(127,37,217)"/><path d="M38.5700097323035,105.61527368255375L32.618020569733964,-39.00747634740502L37.244214709633916,103.12106883810894zM170.65467691443146,12.31844185882309L165.8536660813177,-20.40826265931645L164.91838361613878,-23.091152793216132zM169.72084807403434,-21.38318669705082L168.79448383316404,-24.07101016667943L174.67118940455083,11.338192352399327z" style="fill:rgb(247,158,158)"/><path d="M168.79448383316404,-24.07101016667943L164.91838361613878,-23.091152793216132L170.65467691443146,12.31844185882309z" style="fill:rgb(83,212,212)"/><path d="M-143.02934299858367,134.44953020587792L-140.2074902321498,143.8981316195974L-136.57976634637095,143.0645098982266z" style="fill:rgb(127,37,217)"/><path d="M127.90820418351522,-204.81585993474147L128.27401643431637,-202.424095039711L184.88815529579412,-29.720304497808424z" style="fill:rgb(247,158,158)"/><path d="M184.74603474912445,8.87938070962545L178.51603188457963,-26.52857047719358L168.79448383316404,-24.07101016667943z" style="fill:rgb(83,212,212)"/><path d="M180.64324989119396,59.23476297396686L157.29141036661105,-83.00819800660273L151.05696582243803,-101.51804255731103z" style="fill:rgb(247,158,158)"/><path d="M-143.02934299858367,134.44953020587792L-146.68577740255859,135.29920745962252L-140.2074902321498,143.8981316195974z" style="fill:rgb(127,37,217)"/><path d="M-196.27019349947912,63.33346768082451L-154.89537116659463,118.59956983171193L-135.9339437905743,-23.366427153618265z" style="fill:rgb(247,158,158)"/><path d="M-0.5701746898494411,114.58258394554083L-145.63647144921796,145.14567281988002L-143.90552914165266,147.4217558958723z" style="fill:rgb(127,37,217)"/><path d="M170.65467691443146,12.31844185882309L171.6074487700172,15.002076263527504L165.8536660813177,-20.40826265931645zM169.72084807403434,-21.38318669705082L174.67118940455083,11.338192352399327L175.6143837104645,14.02693444503389z" style="fill:rgb(247,158,158)"/><path d="M168.79448383316404,-24.07101016667943L170.65467691443146,12.31844185882309L174.67118940455083,11.338192352399327zM184.74603474912445,8.87938070962545L168.79448383316404,-24.07101016667943L174.67118940455083,11.338192352399327z" style="fill:rgb(83,212,212)"/><path d="M-154.89537116659463,118.59956983171193L-146.68577740255859,135.29920745962252L-143.02934299858367,134.44953020587792zM208.54903606400765,105.73418334949734L56.4176864842013,139.19198927647025L57.643645584198545,141.4983789702114z" style="fill:rgb(127,37,217)"/><path d="M173.9082010674578,40.620320958185836L151.05696582243803,-101.51804255731103L147.28827895049125,-100.49177855578961z" style="fill:rgb(83,212,212)"/><path d="M-218.03333500390806,34.263534879124705L-182.58541558565912,-97.29474959729694L-189.2262244913834,-107.81839594721433z" style="fill:rgb(247,158,158)"/><path d="M-154.89537116659463,118.59956983171193L-158.60433672969032,119.47918580771993L-146.68577740255859,135.29920745962252zM-0.5701746898494411,114.58258394554083L-1.986539782935606,112.13599781505766L-145.63647144921796,145.14567281988002z" style="fill:rgb(127,37,217)"/><path d="M-189.2262244913834,-107.81839594721433L-192.70846603102993,-106.78079260793145L-222.01518821365102,35.31116307538025z" style="fill:rgb(83,212,212)"/><path d="M174.67118940455083,11.338192352399327L171.6074487700172,15.002076263527504L175.6143837104645,14.02693444503389z" style="fill:rgb(127,37,217)"/><path d="M-197.3996023297939,-107.68887066903497L128.27401643431637,-202.424095039711L127.90820418351522,-204.81585993474147z" style="fill:rgb(83,212,212)"/><path d="M174.67118940455083,11.338192352399327L170.65467691443146,12.31844185882309L171.6074487700172,15.002076263527504zM208.54903606400765,105.73418334949734L57.643645584198545,141.4983789702114L209.41710424351533,108.21454537864753z" style="fill:rgb(127,37,217)"/><path d="M194.95140168891353,66.8811433396706L184.74603474912445,8.87938070962545L35.36337738573156,45.336920142985974z" style="fill:rgb(83,212,212)"/><path d="M134.26427179852377,-131.91184205644032L129.3474586134965,-165.97289959440315L129.1461377922631,-166.57060070868283zM133.70553779683976,-134.40339076349136L129.1461377922631,-166.57060070868283L128.8187921864415,-167.54246931290606zM134.71405510566072,-129.66338477373986L129.41538094939688,-165.7712111906342L129.3474586134965,-165.97289959440315zM133.0587868926787,-137.04532811576846L128.8187921864415,-167.54246931290606L128.377440594841,-168.85284884449806z" style="fill:rgb(247,158,158)"/><path d="M37.244214709633916,103.12106883810894L-1.986539782935606,112.13599781505766L-0.5701746898494411,114.58258394554083z" style="fill:rgb(127,37,217)"/><path d="M169.92092577515592,-75.37848161740911L194.95140168891353,66.8811433396706L195.89294441400182,69.57144139657744zM132.34796191497117,-139.7399372490455L128.377440594841,-168.85284884449806L127.838342805105,-170.4534047828253zM131.59930834473744,-142.3876792127388L127.838342805105,-170.4534047828253L127.22154885339963,-172.28464884382717z" style="fill:rgb(247,158,158)"/><path d="M37.244214709633916,103.12106883810894L-0.5701746898494411,114.58258394554083L38.5700097323035,105.61527368255375z" style="fill:rgb(127,37,217)"/><path d="M180.64324989119396,59.23476297396686L184.29578219638316,69.32972231873133L160.68524788529064,-72.93198873926876zM130.84046346869397,-144.89045424292723L127.22154885339963,-172.28464884382717L126.55017367187175,-174.27792251134707z" style="fill:rgb(247,158,158)"/><path d="M194.95140168891353,66.8811433396706L35.36337738573156,45.336920142985974L37.244214709633916,103.12106883810894zM-174.40129642560916,-77.9342315114222L-200.15922848830144,64.32152606321506L-196.27019349947912,63.33346768082451z" style="fill:rgb(83,212,212)"/><path d="M130.0995964972924,-147.1547795487929L126.55017367187175,-174.27792251134707L125.84963389741408,-176.35781937312478z" style="fill:rgb(247,158,158)"/><path d="M-187.9347534768955,16.428341880467393L-191.6668457120651,17.41984909229218L-192.1442225094723,19.19618420914231zM-187.9347534768955,16.428341880467393L-192.1442225094723,19.19618420914231L-188.40507094129308,18.20440175125272z" style="fill:rgb(84,220,202)"/><path d="M129.40442713019917,-149.09499783594597L125.84963389741408,-176.35781937312478L125.14668267521293,-178.4448551217424z" style="fill:rgb(247,158,158)"/><path d="M-188.40507094129308,18.20440175125272L-192.1442225094723,19.19618420914231L-192.85417639747587,20.562090939128982z" style="fill:rgb(85,234,182)"/><path d="M153.57819002632536,-82.0148876293981L176.35563049817722,60.23112006598518L180.64324989119396,59.23476297396686z" style="fill:rgb(83,212,212)"/><path d="M128.78134721599156,-150.63638330498793L125.14668267521293,-178.4448551217424L124.4684805446755,-180.45841839952288z" style="fill:rgb(247,158,158)"/><path d="M-188.40507094129308,18.20440175125272L-192.85417639747587,20.562090939128982L-189.1071714781798,19.569370528070404z" style="fill:rgb(85,234,182)"/><path d="M-189.1071714781798,19.569370528070404L-192.85417639747587,20.562090939128982L-193.77139573946513,21.46301093185311z" style="fill:rgb(89,244,159)"/><path d="M-196.27019349947912,63.33346768082451L-158.60433672969032,119.47918580771993L-154.89537116659463,118.59956983171193z" style="fill:rgb(127,37,217)"/><path d="M128.25437611399198,-151.71799537700943L124.4684805446755,-180.45841839952288L123.84145341189864,-182.3200444694055z" style="fill:rgb(247,158,158)"/><path d="M-189.1071714781798,19.569370528070404L-193.77139573946513,21.46301093185311L-190.01603962076047,20.46871911171811z" style="fill:rgb(89,244,159)"/><path d="M133.0587868926787,-137.04532811576846L133.70553779683976,-134.40339076349136L128.8187921864415,-167.54246931290606zM133.70553779683976,-134.40339076349136L134.26427179852377,-131.91184205644032L129.1461377922631,-166.57060070868283zM132.34796191497117,-139.7399372490455L133.0587868926787,-137.04532811576846L128.377440594841,-168.85284884449806zM127.84429782531653,-152.29523971187203L123.84145341189864,-182.3200444694055L123.29028440704373,-183.95644991180782z" style="fill:rgb(247,158,158)"/><path d="M-190.01603962076047,20.46871911171811L-193.77139573946513,21.46301093185311L-194.86233403114025,21.861140304680276z" style="fill:rgb(93,250,135)"/><path d="M134.26427179852377,-131.91184205644032L134.71405510566072,-129.66338477373986L129.3474586134965,-165.97289959440315zM131.59930834473744,-142.3876792127388L132.34796191497117,-139.7399372490455L127.838342805105,-170.4534047828253z" style="fill:rgb(247,158,158)"/><path d="M-190.01603962076047,20.46871911171811L-194.86233403114025,21.861140304680276L-191.09844234162716,20.86469684039308z" style="fill:rgb(93,250,135)"/><path d="M134.71405510566072,-129.66338477373986L135.0377204372241,-127.74258905383404L129.41538094939688,-165.7712111906342zM127.56775662705728,-152.34208393294503L123.29028440704373,-183.95644991180782L122.83685117731319,-185.30266977770665zM130.84046346869397,-144.89045424292723L131.59930834473744,-142.3876792127388L127.22154885339963,-172.28464884382717zM130.0995964972924,-147.1547795487929L130.84046346869397,-144.89045424292723L126.55017367187175,-174.27792251134707zM127.43648386472356,-151.85257969698293L122.83685117731319,-185.30266977770665L122.49927117399724,-186.30492242810377zM127.45670206552171,-150.84176785170607L122.49927117399724,-186.30492242810377L122.2911226781253,-186.92291596501332z" style="fill:rgb(247,158,158)"/><path d="M123.42253863891254,-148.14563698321749L122.2207885978462,-187.13174444455123L118.19792953104091,-185.94605933455227z" style="fill:rgb(83,212,212)"/><path d="M129.40442713019917,-149.09499783594597L130.0995964972924,-147.1547795487929L125.84963389741408,-176.35781937312478zM127.62866663220571,-149.34564549677683L122.2911226781253,-186.92291596501332L122.2207885978462,-187.13174444455123z" style="fill:rgb(247,158,158)"/><path d="M195.89294441400182,69.57144139657744L37.244214709633916,103.12106883810894L38.5700097323035,105.61527368255375z" style="fill:rgb(127,37,217)"/><path d="M128.78134721599156,-150.63638330498793L129.40442713019917,-149.09499783594597L125.14668267521293,-178.4448551217424zM180.64324989119396,59.23476297396686L151.05696582243803,-101.51804255731103L173.9082010674578,40.620320958185836zM-196.40051925815592,63.15938935406512L-187.9347534768955,16.428341880467393L-188.40507094129308,18.20440175125272zM150.27059736871348,-24.709774422956368L151.05696582243803,-101.51804255731103L129.41538094939688,-165.7712111906342zM128.25437611399198,-151.71799537700943L128.78134721599156,-150.63638330498793L124.4684805446755,-180.45841839952288zM-196.78675095300935,62.6434742364738L-188.40507094129308,18.20440175125272L-189.1071714781798,19.569370528070404z" style="fill:rgb(247,158,158)"/><path d="M133.0587868926787,-137.04532811576846L128.94065647775713,-135.8840744032094L129.58540855536353,-133.2443546042194z" style="fill:rgb(93,135,250)"/><path d="M132.34796191497117,-139.7399372490455L128.22983112319636,-138.57581712462002L128.94065647775713,-135.8840744032094z" style="fill:rgb(99,111,250)"/><path d="M127.84429782531653,-152.29523971187203L128.25437611399198,-151.71799537700943L123.84145341189864,-182.3200444694055z" style="fill:rgb(247,158,158)"/><path d="M132.34796191497117,-139.7399372490455L128.94065647775713,-135.8840744032094L133.0587868926787,-137.04532811576846z" style="fill:rgb(99,111,250)"/><path d="M133.0587868926787,-137.04532811576846L129.58540855536353,-133.2443546042194L133.70553779683976,-134.40339076349136z" style="fill:rgb(93,135,250)"/><path d="M133.70553779683976,-134.40339076349136L129.58540855536353,-133.2443546042194L130.14018085174027,-130.7543037583422z" style="fill:rgb(89,159,244)"/><path d="M131.59930834473744,-142.3876792127388L127.47914403955313,-141.22017532791804L128.22983112319636,-138.57581712462002zM131.59930834473744,-142.3876792127388L128.22983112319636,-138.57581712462002L132.34796191497117,-139.7399372490455z" style="fill:rgb(106,87,246)"/><path d="M-197.4148465648901,61.80452060961382L-189.1071714781798,19.569370528070404L-190.01603962076047,20.46871911171811z" style="fill:rgb(247,158,158)"/><path d="M133.70553779683976,-134.40339076349136L130.14018085174027,-130.7543037583422L134.26427179852377,-131.91184205644032z" style="fill:rgb(89,159,244)"/><path d="M130.84046346869397,-144.89045424292723L127.47914403955313,-141.22017532791804L131.59930834473744,-142.3876792127388z" style="fill:rgb(114,65,238)"/><path d="M134.26427179852377,-131.91184205644032L130.14018085174027,-130.7543037583422L130.58418376285596,-128.5065731106979z" style="fill:rgb(85,182,234)"/><path d="M130.84046346869397,-144.89045424292723L126.71631566560912,-143.7191378250598L127.47914403955313,-141.22017532791804z" style="fill:rgb(114,65,238)"/><path d="M134.26427179852377,-131.91184205644032L130.58418376285596,-128.5065731106979L134.71405510566072,-129.66338477373986z" style="fill:rgb(85,182,234)"/><path d="M127.56775662705728,-152.34208393294503L127.84429782531653,-152.29523971187203L123.29028440704373,-183.95644991180782z" style="fill:rgb(247,158,158)"/><path d="M130.0995964972924,-147.1547795487929L126.71631566560912,-143.7191378250598L130.84046346869397,-144.89045424292723z" style="fill:rgb(123,46,225)"/><path d="M-198.26179326526312,60.67320733476754L-190.01603962076047,20.46871911171811L-191.09844234162716,20.86469684039308z" style="fill:rgb(247,158,158)"/><path d="M134.71405510566072,-129.66338477373986L130.58418376285596,-128.5065731106979L130.90048733932267,-126.58570194213384z" style="fill:rgb(84,202,220)"/><path d="M130.0995964972924,-147.1547795487929L125.96965887414127,-145.9793716346498L126.71631566560912,-143.7191378250598z" style="fill:rgb(123,46,225)"/><path d="M173.9082010674578,40.620320958185836L147.28827895049125,-100.49177855578961L169.5463764671585,41.65477472570978z" style="fill:rgb(83,212,212)"/><path d="M-218.03333500390806,34.263534879124705L-210.0887108491857,44.875497953492435L-182.58541558565912,-97.29474959729694z" style="fill:rgb(247,158,158)"/><path d="M134.71405510566072,-129.66338477373986L130.90048733932267,-126.58570194213384L135.0377204372241,-127.74258905383404z" style="fill:rgb(84,202,220)"/><path d="M127.43648386472356,-151.85257969698293L127.56775662705728,-152.34208393294503L122.83685117731319,-185.30266977770665z" style="fill:rgb(247,158,158)"/><path d="M129.40442713019917,-149.09499783594597L125.96965887414127,-145.9793716346498L130.0995964972924,-147.1547795487929zM129.40442713019917,-149.09499783594597L125.26710109779826,-147.91536880492788L125.96965887414127,-145.9793716346498z" style="fill:rgb(131,29,208)"/><path d="M-199.29647457877996,59.29115847096713L-191.09844234162716,20.86469684039308L-192.31409927161997,20.738244467817264z" style="fill:rgb(247,158,158)"/><path d="M-196.27019349947912,63.33346768082451L-200.15922848830144,64.32152606321506L-158.60433672969032,119.47918580771993z" style="fill:rgb(127,37,217)"/><path d="M127.45670206552171,-150.84176785170607L127.43648386472356,-151.85257969698293L122.49927117399724,-186.30492242810377z" style="fill:rgb(247,158,158)"/><path d="M128.78134721599156,-150.63638330498793L125.26710109779826,-147.91536880492788L129.40442713019917,-149.09499783594597zM128.78134721599156,-150.63638330498793L124.63529177618531,-149.4525614491071L125.26710109779826,-147.91536880492788z" style="fill:rgb(140,16,189)"/><path d="M-200.4804623998857,57.70962564133798L-192.31409927161997,20.738244467817264L-193.61683232982236,20.09031331832102zM127.62866663220571,-149.34564549677683L127.45670206552171,-150.84176785170607L122.2911226781253,-186.92291596501332z" style="fill:rgb(247,158,158)"/><path d="M195.89294441400182,69.57144139657744L194.95140168891353,66.8811433396706L37.244214709633916,103.12106883810894z" style="fill:rgb(127,37,217)"/><path d="M123.42253863891254,-148.14563698321749L127.62866663220571,-149.34564549677683L122.2207885978462,-187.13174444455123z" style="fill:rgb(83,212,212)"/><path d="M128.25437611399198,-151.71799537700943L124.63529177618531,-149.4525614491071L128.78134721599156,-150.63638330498793z" style="fill:rgb(148,8,167)"/><path d="M-189.2262244913834,-107.81839594721433L-222.01518821365102,35.31116307538025L-218.03333500390806,34.263534879124705z" style="fill:rgb(83,212,212)"/><path d="M128.25437611399198,-151.71799537700943L124.09860354583638,-150.53015849683828L124.63529177618531,-149.4525614491071z" style="fill:rgb(148,8,167)"/><path d="M-201.76952273936135,55.98779233022228L-193.61683232982236,20.09031331832102L-194.95647596110763,18.94242888005398zM-196.40051925815592,63.15938935406512L-196.27019349947912,63.33346768082451L-187.9347534768955,16.428341880467393z" style="fill:rgb(247,158,158)"/><path d="M127.84429782531653,-152.29523971187203L124.09860354583638,-150.53015849683828L128.25437611399198,-151.71799537700943z" style="fill:rgb(155,4,143)"/><path d="M-203.11488774423648,54.19074176608128L-194.95647596110763,18.94242888005398L-196.280578366408,17.33638364368916z" style="fill:rgb(247,158,158)"/><path d="M127.84429782531653,-152.29523971187203L123.6781503154266,-151.1037552147188L124.09860354583638,-150.53015849683828z" style="fill:rgb(155,4,143)"/><path d="M-196.78675095300935,62.6434742364738L-196.40051925815592,63.15938935406512L-188.40507094129308,18.20440175125272zM-204.4651434466473,52.387125117735394L-196.280578366408,17.33638364368916L-197.53670378939887,15.333012622632358zM-197.4148465648901,61.80452060961382L-196.78675095300935,62.6434742364738L-189.1071714781798,19.569370528070404z" style="fill:rgb(247,158,158)"/><path d="M-116.60045532940732,186.9081344411328L211.44760727094376,115.56825871547429L150.17875149184115,-59.20457952471097z" style="fill:rgb(127,37,217)"/><path d="M127.56775662705728,-152.34208393294503L123.6781503154266,-151.1037552147188L127.84429782531653,-152.29523971187203z" style="fill:rgb(161,4,119)"/><path d="M-214.03683287482298,45.9011793888611L-201.005331699212,-2.0783813456030424L-204.79186521663786,-1.0507688370243053zM125.45557127728243,-164.62638538904378L150.27059736871348,-24.709774422956368L129.41538094939688,-165.7712111906342z" style="fill:rgb(83,212,212)"/><path d="M127.56775662705728,-152.34208393294503L123.39097960949073,-151.14742250923354L123.6781503154266,-151.1037552147188z" style="fill:rgb(161,4,119)"/><path d="M-205.7682014395508,50.646594663853385L-197.53670378939887,15.333012622632358L-198.6747095393736,13.010001537290679zM-198.26179326526312,60.67320733476754L-197.4148465648901,61.80452060961382L-190.01603962076047,20.46871911171811zM-210.0887108491857,44.875497953492435L-201.25468284141098,0.053855215586602896L-201.005331699212,-2.0783813456030424zM-206.97316308982255,49.03707945350029L-198.6747095393736,13.010001537290679L-199.64881299190284,10.458806264818888zM-209.95347014259,45.05614308381738L-201.23864139521015,2.472664308119861L-201.25468284141098,0.053855215586602896zM-199.29647457877996,59.29115847096713L-198.26179326526312,60.67320733476754L-191.09844234162716,20.86469684039308zM-208.03253206902934,47.622020906039445L-199.64881299190284,10.458806264818888L-200.41980700138592,7.780801914285845zM-209.55323888352177,45.59075534974806L-200.95680466825667,5.082869710629663L-201.23864139521015,2.472664308119861zM-208.90419169627833,46.457694548267355L-200.41980700138592,7.780801914285845L-200.95680466825667,5.082869710629663zM-200.4804623998857,57.70962564133798L-199.29647457877996,59.29115847096713L-192.31409927161997,20.738244467817264zM-201.76952273936135,55.98779233022228L-200.4804623998857,57.70962564133798L-193.61683232982236,20.09031331832102zM-203.11488774423648,54.19074176608128L-201.76952273936135,55.98779233022228L-194.95647596110763,18.94242888005398z" style="fill:rgb(247,158,158)"/><path d="M180.64324989119396,59.23476297396686L180.04851514928652,70.30571049716242L184.29578219638316,69.32972231873133z" style="fill:rgb(127,37,217)"/><path d="M-204.4651434466473,52.387125117735394L-203.11488774423648,54.19074176608128L-196.280578366408,17.33638364368916z" style="fill:rgb(247,158,158)"/><path d="M180.64324989119396,59.23476297396686L176.35563049817722,60.23112006598518L180.04851514928652,70.30571049716242z" style="fill:rgb(127,37,217)"/><path d="M-205.7682014395508,50.646594663853385L-204.4651434466473,52.387125117735394L-197.53670378939887,15.333012622632358zM150.27059736871348,-24.709774422956368L173.9082010674578,40.620320958185836L151.05696582243803,-101.51804255731103zM-206.97316308982255,49.03707945350029L-205.7682014395508,50.646594663853385L-198.6747095393736,13.010001537290679zM-208.03253206902934,47.622020906039445L-206.97316308982255,49.03707945350029L-199.64881299190284,10.458806264818888z" style="fill:rgb(247,158,158)"/><path d="M-214.03683287482298,45.9011793888611L-210.0887108491857,44.875497953492435L-201.005331699212,-2.0783813456030424z" style="fill:rgb(83,212,212)"/><path d="M-208.90419169627833,46.457694548267355L-208.03253206902934,47.622020906039445L-200.41980700138592,7.780801914285845zM-209.55323888352177,45.59075534974806L-208.90419169627833,46.457694548267355L-200.95680466825667,5.082869710629663zM-210.0887108491857,44.875497953492435L-209.95347014259,45.05614308381738L-201.25468284141098,0.053855215586602896zM-209.95347014259,45.05614308381738L-209.55323888352177,45.59075534974806L-201.23864139521015,2.472664308119861z" style="fill:rgb(247,158,158)"/><path d="M-210.0887108491857,44.875497953492435L-200.15922848830144,64.32152606321506L-196.27019349947912,63.33346768082451zM173.9082010674578,40.620320958185836L176.35563049817722,60.23112006598518L180.64324989119396,59.23476297396686z" style="fill:rgb(127,37,217)"/><path d="M149.67758355300518,-62.48138547098234L211.44760727094376,115.56825871547429L210.85369657369452,112.31937766082015z" style="fill:rgb(247,158,158)"/><path d="M-210.0887108491857,44.875497953492435L-214.03683287482298,45.9011793888611L-200.15922848830144,64.32152606321506zM-116.60045532940732,186.9081344411328L150.17875149184115,-59.20457952471097L-228.66687091224912,40.16217992196063z" style="fill:rgb(127,37,217)"/><path d="M137.74050392873923,-59.340727069523474L122.2207885978462,-187.13174444455123L118.09195297154797,-199.39012902610207z" style="fill:rgb(247,158,158)"/><path d="M173.9082010674578,40.620320958185836L169.5463764671585,41.65477472570978L176.35563049817722,60.23112006598518z" style="fill:rgb(127,37,217)"/><path d="M118.09195297154797,-199.39012902610207L114.0330106612643,-198.18067896777032L132.98465398084133,-58.08946601039823z" style="fill:rgb(83,212,212)"/><path d="M-218.03333500390806,34.263534879124705L-214.03683287482298,45.9011793888611L-210.0887108491857,44.875497953492435zM-218.03333500390806,34.263534879124705L-222.01518821365102,35.31116307538025L-214.03683287482298,45.9011793888611z" style="fill:rgb(127,37,217)"/><path d="M125.45557127728243,-164.62638538904378L145.65041012813336,-23.535954374000056L150.27059736871348,-24.709774422956368z" style="fill:rgb(83,212,212)"/><path d="M143.34081052516302,-71.58178088117758L138.9407387538218,-70.41280841822083L139.1452814478289,-68.67586310120359zM143.34081052516302,-71.58178088117758L139.1452814478289,-68.67586310120359L143.5552121861758,-69.84555870771766z" style="fill:rgb(84,220,202)"/><path d="M143.5552121861758,-69.84555870771766L139.1452814478289,-68.67586310120359L139.19550223542245,-67.4101159389441zM143.5552121861758,-69.84555870771766L139.19550223542245,-67.4101159389441L143.61641927735772,-68.58138347123582z" style="fill:rgb(85,234,182)"/><path d="M143.61641927735772,-68.58138347123582L139.19550223542245,-67.4101159389441L139.0883498611847,-66.66696991210422z" style="fill:rgb(89,244,159)"/><path d="M150.27059736871348,-24.709774422956368L169.5463764671585,41.65477472570978L173.9082010674578,40.620320958185836z" style="fill:rgb(127,37,217)"/><path d="M143.61641927735772,-68.58138347123582L139.0883498611847,-66.66696991210422L143.5210061326266,-67.84058486192589z" style="fill:rgb(89,244,159)"/><path d="M143.5210061326266,-67.84058486192589L139.0883498611847,-66.66696991210422L138.82667281106646,-66.47893291930221zM143.5210061326266,-67.84058486192589L138.82667281106646,-66.47893291930221L143.2713778541693,-67.65561459214776z" style="fill:rgb(93,250,135)"/><path d="M150.19577358942044,-24.916602381950586L143.34081052516302,-71.58178088117758L143.5552121861758,-69.84555870771766zM149.97396961203472,-25.52961139324813L143.5552121861758,-69.84555870771766L143.61641927735772,-68.58138347123582zM149.61324196372703,-26.526588599410445L143.61641927735772,-68.58138347123582L143.5210061326266,-67.84058486192589z" style="fill:rgb(247,158,158)"/><path d="M-227.972449412951,36.878526952159255L-228.66687091224912,40.16217992196063L150.17875149184115,-59.20457952471097z" style="fill:rgb(83,212,212)"/><path d="M149.12673444685515,-27.871233646424876L143.5210061326266,-67.84058486192589L143.2713778541693,-67.65561459214776zM137.74050392873923,-59.340727069523474L142.3223883826913,-46.67721160446152L122.2207885978462,-187.13174444455123zM148.53224926861492,-29.514275229690284L143.2713778541693,-67.65561459214776L142.8758386759121,-68.03816474851196z" style="fill:rgb(247,158,158)"/><path d="M150.27059736871348,-24.709774422956368L145.65041012813336,-23.535954374000056L169.5463764671585,41.65477472570978z" style="fill:rgb(127,37,217)"/><path d="M147.85177451476804,-31.394985065470955L142.8758386759121,-68.03816474851196L142.34854915660557,-68.97806351700159zM147.1107027617477,-33.44315832327058L142.34854915660557,-68.97806351700159L141.70908630295907,-70.44295716727697zM149.67758355300518,-62.48138547098234L150.17875149184115,-59.20457952471097L211.44760727094376,115.56825871547429z" style="fill:rgb(247,158,158)"/><path d="M118.09195297154797,-199.39012902610207L132.98465398084133,-58.08946601039823L137.74050392873923,-59.340727069523474z" style="fill:rgb(83,212,212)"/><path d="M150.19577358942044,-24.916602381950586L150.27059736871348,-24.709774422956368L143.34081052516302,-71.58178088117758zM146.3370192718317,-35.58149876686285L141.70908630295907,-70.44295716727697L140.98183445474402,-72.37894174986556zM149.97396961203472,-25.52961139324813L150.19577358942044,-24.916602381950586L143.5552121861758,-69.84555870771766zM145.56024111919362,-37.72836377379918L140.98183445474402,-72.37894174986556L140.1950325751023,-74.71227050509525zM149.61324196372703,-26.526588599410445L149.97396961203472,-25.52961139324813L143.61641927735772,-68.58138347123582z" style="fill:rgb(247,158,158)"/><path d="M137.61604846128003,-45.454552925762655L135.63027241964093,-93.43657266904987L131.15215880809777,-92.22127176902606z" style="fill:rgb(83,212,212)"/><path d="M144.81039673802582,-39.80081154655835L140.1950325751023,-74.71227050509525L139.3797325015381,-77.35206323724275zM149.12673444685515,-27.871233646424876L149.61324196372703,-26.526588599410445L143.5210061326266,-67.84058486192589zM142.3223883826913,-46.67721160446152L135.98294361243535,-91.28664852372712L135.63027241964093,-93.43657266904987zM144.1167766971525,-41.7178526008873L139.3797325015381,-77.35206323724275L138.56839023084729,-80.19395810041127zM142.40030741607066,-46.46185717363994L136.47458443384835,-88.7838391508398L135.98294361243535,-91.28664852372712zM148.53224926861492,-29.514275229690284L149.12673444685515,-27.871233646424876L143.2713778541693,-67.65561459214776zM143.50678669503145,-43.40375180395146L138.56839023084729,-80.19395810041127L137.79350916864087,-83.12459472432457zM142.63088555069643,-45.824567951143344L137.0861635307516,-86.02659286016183L136.47458443384835,-88.7838391508398zM143.00476001425886,-44.79125854914612L137.79350916864087,-83.12459472432457L137.0861635307516,-86.02659286016183zM147.85177451476804,-31.394985065470955L148.53224926861492,-29.514275229690284L142.8758386759121,-68.03816474851196zM147.1107027617477,-33.44315832327058L147.85177451476804,-31.394985065470955L142.34854915660557,-68.97806351700159zM146.3370192718317,-35.58149876686285L147.1107027617477,-33.44315832327058L141.70908630295907,-70.44295716727697zM145.56024111919362,-37.72836377379918L146.3370192718317,-35.58149876686285L140.98183445474402,-72.37894174986556zM144.81039673802582,-39.80081154655835L145.56024111919362,-37.72836377379918L140.1950325751023,-74.71227050509525zM144.1167766971525,-41.7178526008873L144.81039673802582,-39.80081154655835L139.3797325015381,-77.35206323724275zM143.50678669503145,-43.40375180395146L144.1167766971525,-41.7178526008873L138.56839023084729,-80.19395810041127z" style="fill:rgb(247,158,158)"/><path d="M137.61604846128003,-45.454552925762655L142.3223883826913,-46.67721160446152L135.63027241964093,-93.43657266904987z" style="fill:rgb(83,212,212)"/><path d="M143.00476001425886,-44.79125854914612L143.50678669503145,-43.40375180395146L137.79350916864087,-83.12459472432457zM142.63088555069643,-45.824567951143344L143.00476001425886,-44.79125854914612L137.0861635307516,-86.02659286016183zM142.3223883826913,-46.67721160446152L142.40030741607066,-46.46185717363994L135.98294361243535,-91.28664852372712zM142.40030741607066,-46.46185717363994L142.63088555069643,-45.824567951143344L136.47458443384835,-88.7838391508398z" style="fill:rgb(247,158,158)"/><path d="M-227.972449412951,36.878526952159255L150.17875149184115,-59.20457952471097L149.67758355300518,-62.48138547098234z" style="fill:rgb(83,212,212)"/><path d="M142.3223883826913,-46.67721160446152L145.65041012813336,-23.535954374000056L150.27059736871348,-24.709774422956368zM142.3223883826913,-46.67721160446152L137.61604846128003,-45.454552925762655L145.65041012813336,-23.535954374000056zM137.74050392873923,-59.340727069523474L137.61604846128003,-45.454552925762655L142.3223883826913,-46.67721160446152zM137.74050392873923,-59.340727069523474L132.98465398084133,-58.08946601039823L137.61604846128003,-45.454552925762655z" style="fill:rgb(127,37,217)"/></svg>
